<?xml version="1.0" standalone="no"?>
<!DOCTYPE svg PUBLIC "-//W3C//DTD SVG 1.1//EN" "http://www.w3.org/Graphics/SVG/1.1/DTD/svg11.dtd" >
<svg xmlns="http://www.w3.org/2000/svg">
<metadata></metadata>
<defs>
<font id="arquitecta_lightlight_italic" horiz-adv-x="605" >
<font-face units-per-em="1000" ascent="750" descent="-250" />
<missing-glyph horiz-adv-x="221" />
<glyph horiz-adv-x="0" />
<glyph horiz-adv-x="333" />
<glyph horiz-adv-x="0" />
<glyph horiz-adv-x="0" />
<glyph unicode="&#xd;" horiz-adv-x="52" />
<glyph unicode=" "  horiz-adv-x="221" />
<glyph unicode="&#x09;" horiz-adv-x="221" />
<glyph unicode="&#xa0;" horiz-adv-x="221" />
<glyph unicode="!" horiz-adv-x="231" d="M228 600l-4 -31l-72 -418h-33l46 418l4 31h59zM82 26q0 16 13 28.5t30 12.5q15 0 24.5 -9.5t9.5 -23.5q0 -17 -13.5 -29.5t-30.5 -12.5q-14 0 -23.5 10t-9.5 24z" />
<glyph unicode="&#x22;" horiz-adv-x="273" d="M216 662l-66 -199h-26l1 10l44 199h48zM320 662l-65 -199h-27l1 10l44 199h48z" />
<glyph unicode="#" horiz-adv-x="634" d="M593 583l-62 -169h123l-11 -32h-124l-68 -184h116l-10 -32h-117l-61 -166h-35l61 166h-184l-61 -166h-35l61 166h-125l10 32h126l68 184h-118l11 32h119l62 169h35l-62 -169h184l62 169h35zM300 382l-68 -184h184l68 184h-184z" />
<glyph unicode="$" horiz-adv-x="529" d="M56 54l30 34l6.5 -6.5t21 -14.5t35 -18t49.5 -14.5t65 -6.5q99 0 149 37t50 98q0 46 -39 73t-123 52q-95 29 -141 61t-46 90q0 77 62.5 124t163.5 50l13 93h37l-13 -94q56 -2 99 -15.5t59 -26.5l15 -12l-29 -37q-6 6 -18 14t-57 22t-99 14q-79 0 -133 -33t-54 -92 q0 -42 38 -66t124 -50q93 -27 139.5 -63.5t46.5 -97.5q0 -75 -55 -125t-164 -56l-13 -94h-37l13 93q-38 1 -72 8t-55.5 16.5t-37.5 19.5t-23 17z" />
<glyph unicode="%" horiz-adv-x="669" d="M255 613q52 0 80.5 -35.5t28.5 -90.5q0 -69 -41.5 -120.5t-109.5 -51.5q-52 0 -80.5 36.5t-28.5 90.5q0 69 42 120t109 51zM250 576q-47 0 -76 -38.5t-29 -92.5q0 -40 19 -66t55 -26q46 0 75 38.5t29 92.5q0 40 -19 66t-54 26zM637 598l28 -24l-548 -564l-28 24zM542 290 q52 0 80.5 -36t28.5 -90q0 -68 -42.5 -120t-108.5 -52q-52 0 -81 36.5t-29 90.5q0 69 42.5 120t109.5 51zM537 253q-47 0 -76.5 -38.5t-29.5 -92.5q0 -40 19.5 -66t54.5 -26q47 0 76 38.5t29 92.5q0 40 -19 66t-54 26z" />
<glyph unicode="&#x26;" horiz-adv-x="602" d="M80 135q0 72 45 115t125 79l-5 6q-51 62 -51 125q0 69 47.5 111t115.5 42q64 0 98 -32.5t34 -82.5q0 -34 -13.5 -62t-42 -50t-53 -36t-65.5 -33l169 -190q46 66 61 165l3 20h43l-3 -20q-17 -113 -79 -194l82 -91l-1 -7h-48l-60 67q-82 -80 -205 -80q-92 0 -144.5 40.5 t-52.5 107.5zM283 26q108 0 175 69l-181 204q-73 -34 -111 -68.5t-38 -88.5q0 -51 43 -83.5t112 -32.5zM237 461q0 -50 51 -115q39 17 60.5 28.5t47.5 29.5t37.5 40t11.5 50q0 35 -22 58t-71 23q-48 0 -81.5 -31t-33.5 -83z" />
<glyph unicode="'" horiz-adv-x="169" d="M216 662l-66 -199h-26l1 10l44 199h48z" />
<glyph unicode="(" horiz-adv-x="302" d="M377 648q-94 -62 -148 -128q-114 -138 -114 -323q0 -210 153 -330l-27 -31q-23 17 -44 38.5t-54 65.5t-53 110t-20 144q0 309 290 485z" />
<glyph unicode=")" horiz-adv-x="302" d="M107 648l26 31q172 -130 172 -356q0 -308 -290 -487l-18 31q262 169 262 452q0 206 -152 329z" />
<glyph unicode="*" horiz-adv-x="427" d="M336 700l-24 -77h-21l-2 77l4 29h47zM425 590l-80 -12l-3 20l74 37l29 9l8 -45zM244 578l-75 12l-27 9l21 45l26 -9l65 -37zM188 486l63 56l15 -12l-43 -71l-20 -24l-34 27zM329 542l47 -56l14 -24l-42 -27l-15 24l-23 71z" />
<glyph unicode="+" horiz-adv-x="484" d="M331 488l-24 -168h169l-5 -38h-169l-23 -164h-39l23 164h-170l5 38h170l24 168h39z" />
<glyph unicode="," horiz-adv-x="119" d="M27 23q0 18 12 29.5t29 11.5q14 0 23.5 -9t9.5 -24v-5q-4 -21 -17 -40l-55 -80h-35l48 69l14 15v2q-29 2 -29 31z" />
<glyph unicode="-" horiz-adv-x="401" d="M98 278l5 38h283l-5 -38h-283z" />
<glyph unicode="." horiz-adv-x="120" d="M27 24q0 18 12.5 30t29.5 12q14 0 23 -9.5t9 -23.5q0 -17 -12.5 -29t-29.5 -12q-14 0 -23 9t-9 23z" />
<glyph unicode="/" horiz-adv-x="337" d="M400 703l-345 -879h-45l345 879h45z" />
<glyph unicode="0" horiz-adv-x="619" d="M308 -14q-103 0 -161 73.5t-58 188.5q0 152 87 258.5t220 106.5q102 0 160 -73.5t58 -189.5q0 -151 -86.5 -257.5t-219.5 -106.5zM313 28q114 0 185 94.5t71 223.5q0 98 -46.5 161.5t-132.5 63.5q-115 0 -186 -94.5t-71 -224.5q0 -97 46.5 -160.5t133.5 -63.5z" />
<glyph unicode="1" horiz-adv-x="308" d="M102 559l6 41h187l-85 -600h-45l79 559h-142z" />
<glyph unicode="2" horiz-adv-x="501" d="M48 0l2 12l322 298q51 48 68 75.5t17 67.5q0 52 -36.5 85t-99.5 33q-47 0 -92.5 -19.5t-68.5 -38.5l-22 -19l-21 34q10 10 27.5 24t72 37.5t110.5 23.5q83 0 129 -41.5t46 -110.5q0 -50 -19 -84.5t-76 -87.5l-267 -248h319l-6 -41h-405z" />
<glyph unicode="3" horiz-adv-x="507" d="M309 303h-91q3 6 3 20l232 236h-314l6 41h389l-1 -12l-247 -249h38q71 0 114.5 -39.5t43.5 -109.5q0 -89 -65 -146t-169 -57q-112 0 -197 85l28 34q3 -3 8 -8.5t22 -19t36 -23.5t48.5 -18.5t59.5 -8.5q79 0 132 44t53 112q0 55 -35 87t-94 32z" />
<glyph unicode="4" horiz-adv-x="530" d="M49 150l5 33l414 417h35l-57 -408h69l-6 -42h-69l-21 -150h-44l21 150h-347zM114 195l-1 -3h289l47 335l-324 -325z" />
<glyph unicode="5" horiz-adv-x="502" d="M508 559h-288l-40 -219q56 14 121 14q87 0 134.5 -41.5t47.5 -112.5q0 -101 -64 -157t-172 -56q-35 0 -68 9t-55.5 21.5t-40 25t-25.5 21.5l-8 9l29 34q3 -3 8 -8.5t22.5 -19t36 -24t48 -19t59.5 -8.5q81 0 133 44.5t52 121.5q0 55 -38.5 87.5t-103.5 32.5q-40 0 -79 -6 t-58 -12l-19 -6l-10 9l54 301h330z" />
<glyph unicode="6" horiz-adv-x="499" d="M78 146q0 51 18 93t61 97l210 264h52l-195 -244l-24 -26v-4q52 33 111 33q85 0 133.5 -45.5t48.5 -116.5q0 -92 -67 -151t-166 -59q-83 0 -132.5 43t-49.5 116zM305 318q-80 0 -131.5 -45.5t-51.5 -120.5q0 -55 40 -89.5t103 -34.5q77 0 130 47.5t53 116.5q0 55 -39 90.5 t-104 35.5z" />
<glyph unicode="7" horiz-adv-x="447" d="M113 559l5 41h403l-1 -12l-365 -588h-54l347 559h-335z" />
<glyph unicode="8" horiz-adv-x="535" d="M266 -13q-89 0 -138.5 43.5t-49.5 110.5q0 62 37.5 109t101.5 68q-75 37 -75 119q0 75 58.5 125.5t153.5 50.5q79 0 123 -39t44 -100q0 -51 -30 -93t-83 -64q94 -40 94 -136q0 -81 -65 -137.5t-171 -56.5zM272 28q81 0 133 43.5t52 105.5q0 54 -40 87t-107 33 q-81 0 -133.5 -42t-52.5 -108q0 -51 39.5 -85t108.5 -34zM315 335q72 0 116 38t44 95q0 45 -33.5 74t-93.5 29q-72 0 -116 -37.5t-44 -93.5q0 -47 33.5 -76t93.5 -29z" />
<glyph unicode="9" horiz-adv-x="499" d="M506 454q0 -89 -79 -190l-209 -263h-52l193 243l25 25v4q-51 -32 -111 -32q-85 0 -133.5 45.5t-48.5 116.5q0 93 67 151.5t166 58.5q83 0 132.5 -43t49.5 -116zM279 282q81 0 131.5 46.5t50.5 118.5q0 55 -40 90t-102 35q-77 0 -130.5 -47.5t-53.5 -116.5q0 -55 39 -90.5 t105 -35.5z" />
<glyph unicode=":" horiz-adv-x="191" d="M102 312q0 16 13 28.5t30 12.5q14 0 23 -9.5t9 -23.5q0 -17 -13 -29t-30 -12q-14 0 -23 9.5t-9 23.5zM62 25q0 17 13 29t29 12q14 0 23 -9t9 -23q0 -18 -12.5 -30t-29.5 -12q-14 0 -23 9.5t-9 23.5z" />
<glyph unicode=";" horiz-adv-x="219" d="M80 23q0 18 12 29t30 11q14 0 23 -8.5t9 -23.5q0 -20 -17 -45l-55 -80h-35l49 69l13 15v2q-29 3 -29 31zM121 311q0 17 13 29.5t30 12.5q14 0 23 -9.5t9 -23.5q0 -17 -13 -29t-30 -12q-14 0 -23 9t-9 23z" />
<glyph unicode="&#x3c;" horiz-adv-x="369" d="M289 44l-208 232l3 23l274 232l23 -28l-254 -216l193 -215z" />
<glyph unicode="=" horiz-adv-x="488" d="M125 368l5 38h342l-5 -38h-342zM98 177l5 38h342l-5 -38h-342z" />
<glyph unicode="&#x3e;" horiz-adv-x="369" d="M366 276l-274 -232l-23 28l254 215l-193 216l31 28l208 -232z" />
<glyph unicode="?" horiz-adv-x="373" d="M133 542l-11 35q53 36 145 36q60 0 93.5 -31.5t33.5 -81.5q0 -42 -16.5 -75.5t-42 -57.5t-51.5 -46.5t-48.5 -56t-30.5 -73.5l-7 -40h-33l6 45q5 41 25.5 75t45.5 57t49 45.5t40.5 52t16.5 64.5q0 38 -25 61.5t-68 23.5q-35 0 -65.5 -8.5t-43.5 -16.5zM129 25 q0 17 12.5 29t29.5 12q14 0 23 -9t9 -23q0 -18 -12.5 -30t-29.5 -12q-14 0 -23 9.5t-9 23.5z" />
<glyph unicode="@" horiz-adv-x="923" d="M423 -244q-167 0 -263.5 104.5t-96.5 263.5q0 130 61.5 240.5t173.5 176.5t249 66q112 0 195.5 -49t123 -124.5t39.5 -163.5q0 -115 -54.5 -199t-150.5 -84q-55 0 -80.5 30t-21.5 60h-2q-3 -6 -7.5 -12t-19 -20.5t-31 -25t-44.5 -19t-60 -8.5q-67 0 -110 43t-43 113 q0 90 60 148t144 58q36 0 63 -10t41.5 -25.5t21.5 -26.5t10 -22l19 76h32l-34 -240q-5 -38 13 -59.5t56 -21.5q73 0 116 72t43 167q0 128 -87.5 217t-236.5 89q-186 0 -313 -128t-127 -313q0 -146 89 -241t238 -95q57 0 107 10.5t72 20.5l21 11l12 -33q-8 -5 -24.5 -12.5 t-73 -20.5t-120.5 -13zM608 194q0 57 -35 90t-88 33q-65 0 -112.5 -46.5t-47.5 -116.5q0 -55 33.5 -90t86.5 -35q66 0 114.5 45.5t48.5 119.5z" />
<glyph unicode="A" d="M8 0l372 600h12l205 -600h-50l-44 124h-368l-78 -124h-49zM484 179l-107 331h-7l-200 -331l-9 -13h328z" />
<glyph unicode="B" horiz-adv-x="634" d="M604 180q0 -90 -67.5 -135t-176.5 -45h-267l84 600h252q91 0 142 -35t51 -104q0 -60 -32.5 -100t-87.5 -56v-4q47 -13 74.5 -44t27.5 -77zM410 280h-234l-34 -239h226q84 0 137.5 34t53.5 103q0 49 -41 74.5t-108 27.5zM576 454q0 105 -152 105h-209l-33 -237h208 q87 0 136.5 33t49.5 99z" />
<glyph unicode="C" horiz-adv-x="595" d="M552 100l20 -34q-3 -3 -9 -8.5t-27 -19.5t-44.5 -24.5t-60 -19t-75.5 -8.5q-122 0 -196.5 77t-74.5 195q0 148 104.5 251.5t254.5 103.5q39 0 73 -8t55 -19.5t37 -23.5t23 -20l6 -8l-30 -33q-2 3 -6.5 7.5t-20 16.5t-33.5 21.5t-47.5 17t-62.5 7.5q-128 0 -217.5 -91.5 t-89.5 -214.5q0 -100 63 -168.5t168 -68.5q52 0 99.5 18t68.5 36z" />
<glyph unicode="D" horiz-adv-x="657" d="M654 341q0 -155 -104.5 -248t-262.5 -93h-194l84 600h194q128 0 205.5 -69.5t77.5 -189.5zM364 559h-149l-73 -518h149q133 0 225 80.5t92 212.5q0 104 -68 164.5t-176 60.5z" />
<glyph unicode="E" horiz-adv-x="561" d="M519 317l-6 -41h-338l-33 -235h384l-6 -41h-427l84 600h427l-5 -41h-384l-34 -242h338z" />
<glyph unicode="F" horiz-adv-x="553" d="M93 0l84 600h427l-5 -41h-384l-34 -242h343l-6 -41h-343l-38 -276h-44z" />
<glyph unicode="G" horiz-adv-x="673" d="M624 267l1 9h-248l5 41h293l-4 -32q-19 -139 -104 -219t-213 -80q-124 0 -196 76t-72 194q0 150 102 253.5t256 103.5q42 0 79 -8t60 -20t40 -24t24 -20l7 -8l-31 -33q-2 3 -7 7.5t-21.5 17t-36 22t-52 17t-68.5 7.5q-135 0 -221 -91t-86 -218q0 -101 60 -167.5 t169 -66.5q104 0 176.5 64.5t87.5 174.5z" />
<glyph unicode="H" horiz-adv-x="667" d="M659 600l-84 -600h-44l38 276h-394l-38 -276h-44l84 600h44l-40 -283h394l40 283h44z" />
<glyph unicode="I" horiz-adv-x="230" d="M221 600l-84 -600h-44l84 600h44z" />
<glyph unicode="J" horiz-adv-x="441" d="M30 30l27 35q39 -36 109 -36q148 0 172 165l57 406h44l-58 -414q-15 -102 -71.5 -150.5t-146.5 -48.5q-39 0 -73 11.5t-44.5 19t-15.5 12.5z" />
<glyph unicode="K" horiz-adv-x="579" d="M221 600l-50 -358l418 358h51l-1 -9l-279 -240l197 -342l-1 -9h-48l-184 320l-162 -139l-25 -181h-44l84 600h44z" />
<glyph unicode="L" horiz-adv-x="514" d="M503 0h-410l84 600h44l-79 -559h367z" />
<glyph unicode="M" horiz-adv-x="756" d="M620 0l70 501l-272 -265h-14l-197 262l-70 -498h-44l84 600h14l228 -307l315 307h14l-84 -600h-44z" />
<glyph unicode="N" horiz-adv-x="695" d="M687 600l-84 -600h-15l-381 504l-70 -504h-44l84 600h15l380 -502l71 502h44z" />
<glyph unicode="O" horiz-adv-x="709" d="M352 -14q-123 0 -194.5 76t-71.5 194q0 150 100.5 253.5t253.5 103.5q123 0 194.5 -76t71.5 -196q0 -149 -101 -252t-253 -103zM358 28q134 0 218.5 91t84.5 217q0 101 -59.5 168t-167.5 67q-133 0 -218 -91.5t-85 -217.5q0 -101 60 -167.5t167 -66.5z" />
<glyph unicode="P" horiz-adv-x="596" d="M93 0l84 600h233q101 0 155.5 -43t54.5 -125q0 -111 -71.5 -171.5t-196.5 -60.5h-187l-28 -200h-44zM576 425q0 67 -45.5 100.5t-126.5 33.5h-189l-45 -318h189q100 0 158.5 46t58.5 138z" />
<glyph unicode="Q" horiz-adv-x="709" d="M352 -14q-123 0 -194.5 76t-71.5 194q0 150 100.5 253.5t253.5 103.5q123 0 194.5 -76t71.5 -196q0 -100 -49 -183.5t-132 -128.5l38 -74l-1 -10h-45l-33 65q-64 -24 -132 -24zM391 192l1 10h45l69 -137q72 40 113.5 113t41.5 158q0 101 -59.5 168t-167.5 67 q-133 0 -218 -91.5t-85 -217.5q0 -101 60 -167.5t167 -66.5q59 0 107 18z" />
<glyph unicode="R" horiz-adv-x="620" d="M409 600q102 0 156.5 -43t54.5 -125q0 -89 -49.5 -144.5t-134.5 -71.5v-3l139 -201l-2 -12h-47l-145 209h-215l-29 -209h-44l84 600h232zM575 426q0 66 -45.5 99.5t-125.5 33.5h-189l-43 -309h200q90 0 146.5 44.5t56.5 131.5z" />
<glyph unicode="S" horiz-adv-x="528" d="M56 54l30 34l6.5 -6.5t21 -14.5t35 -18t49.5 -14.5t65 -6.5q99 0 149 37t50 98q0 46 -39 73t-123 52q-95 29 -141 61t-46 90q0 80 66.5 127t172.5 47q64 0 113 -13.5t67 -27.5l17 -14l-29 -37q-6 6 -18 14t-57 22t-99 14q-79 0 -133 -33t-54 -92q0 -42 38 -66t124 -50 q93 -27 139.5 -63.5t46.5 -97.5q0 -80 -62.5 -131t-186.5 -51q-63 0 -113.5 17t-69.5 34z" />
<glyph unicode="T" horiz-adv-x="514" d="M96 559l6 41h480l-6 -41h-218l-79 -559h-44l79 559h-218z" />
<glyph unicode="U" horiz-adv-x="656" d="M326 -13q-115 0 -169.5 70.5t-37.5 190.5l49 352h44l-49 -352q-14 -101 29 -160.5t140 -59.5t157 59.5t74 160.5l49 352h44l-49 -352q-17 -120 -91 -190.5t-190 -70.5z" />
<glyph unicode="V" d="M318 86l159 266l155 248h48l-372 -600h-12l-204 600h49l86 -248l84 -266h7z" />
<glyph unicode="W" horiz-adv-x="806" d="M264 110l207 490h33l68 -490l2 -32h3l13 32l234 490h47l-291 -600h-36l-69 488l-1 17h-2l-6 -17l-207 -488h-34l-124 600h47l97 -490l4 -32h3z" />
<glyph unicode="X" horiz-adv-x="536" d="M591 600l-250 -292l176 -308h-52l-140 243l-17 40l-30 -40l-207 -243h-52l261 308l-167 292h53l134 -234l15 -35l23 35l200 234h53z" />
<glyph unicode="Y" horiz-adv-x="535" d="M330 302l229 298h51l-288 -369l-32 -231h-45l32 231l-183 369h52l146 -298l11 -29h7z" />
<glyph unicode="Z" horiz-adv-x="532" d="M31 0l2 12l477 547h-392l5 41h467l-1 -12l-477 -547h388l-6 -41h-463z" />
<glyph unicode="[" horiz-adv-x="308" d="M378 674l-5 -38h-157l-106 -756h156l-5 -38h-199l117 832h199z" />
<glyph unicode="\" horiz-adv-x="337" d="M231 -176l-97 879h45l97 -879h-45z" />
<glyph unicode="]" horiz-adv-x="308" d="M4 -158l5 38h156l106 756h-155l5 38h199l-117 -832h-199z" />
<glyph unicode="^" horiz-adv-x="409" d="M384 488l-91 139l-130 -139h-29l1 10l147 170h33l99 -170l-1 -10h-29z" />
<glyph unicode="_" horiz-adv-x="487" d="M42 -58l5 38h381l-5 -38h-381z" />
<glyph unicode="`" horiz-adv-x="254" d="M208 419l-59 148l1 10h56l31 -148l-2 -10h-27z" />
<glyph unicode="a" horiz-adv-x="422" d="M45 90q0 51 43.5 84t123.5 33q84 0 127 -40h5l4 30q17 120 -111 120q-31 0 -59.5 -7.5t-41.5 -14.5l-13 -7l-11 34q48 32 138 32q84 0 117 -44t22 -118l-27 -192h-30l1 49h-3q-8 -9 -20.5 -19t-50 -24t-81.5 -14q-66 0 -99.5 27.5t-33.5 70.5zM89 94q0 -30 25.5 -49 t76.5 -19q56 0 99.5 27t43.5 56q0 28 -35.5 47.5t-86.5 19.5q-60 0 -91.5 -22.5t-31.5 -59.5z" />
<glyph unicode="b" horiz-adv-x="469" d="M66 0l94 668h43l-55 -392h2q2 3 5.5 8.5t16.5 19t29.5 23.5t44 18.5t59.5 8.5q66 0 108 -43.5t42 -113.5q0 -89 -60 -147t-142 -58q-32 0 -58.5 8.5t-40.5 20.5t-23 24t-12 21l-3 8h-2l-17 -74h-31zM129 153q0 -57 35 -90.5t88 -33.5q65 0 112 47t47 117q0 55 -33 89.5 t-85 34.5q-66 0 -115 -45.5t-49 -118.5z" />
<glyph unicode="c" horiz-adv-x="366" d="M223 -8q-72 0 -117 43t-45 113q0 89 62.5 147.5t150.5 58.5q32 0 59.5 -8t38.5 -16l11 -7l-18 -33q-34 27 -93 27q-66 0 -116.5 -46.5t-50.5 -118.5q0 -56 36 -89.5t90 -33.5q26 0 51.5 6.5t37.5 13.5l12 7l8 -33q-44 -31 -117 -31z" />
<glyph unicode="d" horiz-adv-x="469" d="M397 279h2l55 389h43l-94 -668h-31l3 72h-2q-2 -3 -5.5 -8.5t-17.5 -19.5t-30.5 -24.5t-45 -19t-60.5 -8.5q-67 0 -110 43t-43 113q0 89 60.5 147.5t142.5 58.5q31 0 56.5 -7.5t39 -19t22.5 -22.5t12 -19zM388 193q0 57 -35 90.5t-88 33.5q-65 0 -112.5 -46.5 t-47.5 -116.5q0 -55 33.5 -90t86.5 -35q66 0 114.5 45.5t48.5 118.5z" />
<glyph unicode="e" horiz-adv-x="417" d="M352 61l11 -31q-51 -38 -134 -38q-75 0 -121 43t-46 113q0 90 58.5 148t143.5 58q76 0 111 -42.5t35 -114.5l-3 -27h-302v-18q0 -58 36.5 -91t92.5 -33q32 0 61.5 8t42.5 16zM258 318q-51 0 -91.5 -30.5t-55.5 -83.5h258q3 50 -26 82t-85 32z" />
<glyph unicode="f" horiz-adv-x="301" d="M332 310h-145l-43 -310h-43l43 310h-86l5 36h86l23 159q22 161 160 161q11 0 22 -2t18.5 -4t13.5 -4.5t9 -4.5l3 -2l-19 -37q-23 14 -49 14q-50 0 -78 -29t-37 -92l-23 -159h145z" />
<glyph unicode="g" horiz-adv-x="406" d="M180 -237q-79 0 -122.5 31.5t-43.5 83.5q0 90 101 120l1 3q-69 16 -69 69q0 59 71 86q-14 25 -14 55q0 59 44 100t112 41l176 -6l-5 -34h-80v-3q3 -2 8.5 -5.5t14 -21t8.5 -41.5q0 -58 -44 -99t-113 -41q-55 0 -88 30q-50 -17 -50 -54q0 -53 130 -53q80 0 123 -30t43 -83 q0 -64 -55 -106t-148 -42zM212 -13q-71 0 -113.5 -29.5t-42.5 -72.5q0 -37 34 -61.5t95 -24.5q71 0 113 29.5t42 74.5q0 37 -33.5 60.5t-94.5 23.5zM255 316q-50 0 -81.5 -29.5t-31.5 -71.5q0 -34 23.5 -56t64.5 -22q51 0 82.5 29t31.5 71q0 34 -23.5 56.5t-65.5 22.5z" />
<glyph unicode="h" horiz-adv-x="454" d="M66 0l94 668h43l-53 -375h2q60 61 138 61q72 0 106.5 -44t24.5 -116l-27 -194h-44l27 189q8 57 -17.5 92.5t-82.5 35.5q-60 0 -96.5 -35.5t-42.5 -74.5l-29 -207h-43z" />
<glyph unicode="i" horiz-adv-x="180" d="M160 497q-12 0 -20 7.5t-8 19.5q0 15 11 25.5t26 10.5q12 0 20 -8t8 -20q0 -15 -11 -25t-26 -10zM69 0l49 346h43l-49 -346h-43z" />
<glyph unicode="j" horiz-adv-x="174" d="M-67 -184l16 33q18 -12 41 -12q28 0 42.5 16t19.5 52l62 441h43l-62 -442q-8 -54 -32 -79.5t-71 -25.5q-16 0 -31 4.5t-21 8.5zM157 497q-12 0 -20 7.5t-8 19.5q0 15 11 25.5t26 10.5q12 0 19.5 -8t7.5 -20q0 -15 -10.5 -25t-25.5 -10z" />
<glyph unicode="k" horiz-adv-x="376" d="M334 346h55l-207 -169l186 -177h-61l-174 166h-2l-23 -166h-43l94 668h43l-69 -484h3z" />
<glyph unicode="l" horiz-adv-x="180" d="M69 0l94 668h43l-94 -668h-43z" />
<glyph unicode="m" horiz-adv-x="738" d="M66 0l49 346h30l-3 -61h3q59 69 145 69q51 0 84.5 -21.5t45.5 -58.5h3q59 80 152 80q72 0 106 -44t24 -116l-27 -194h-43l27 189q8 57 -17.5 92.5t-82.5 35.5q-56 0 -91.5 -33t-46.5 -74l-30 -210h-44l29 205q7 50 -19 81t-83 31q-56 0 -92 -32t-46 -70l-30 -215h-43z " />
<glyph unicode="n" horiz-adv-x="453" d="M66 0l49 346h30l-3 -61h3q53 69 145 69q72 0 106.5 -44t24.5 -116l-27 -194h-44l27 189q8 57 -17.5 92.5t-82.5 35.5q-56 0 -92 -32t-46 -70l-30 -215h-43z" />
<glyph unicode="o" horiz-adv-x="447" d="M434 195q0 -90 -62.5 -146.5t-148.5 -56.5q-71 0 -116.5 42t-45.5 113q0 90 63 148.5t150 58.5q70 0 115 -43.5t45 -115.5zM228 28q65 0 114 45t49 118q0 57 -35 92t-87 35q-65 0 -115 -47t-50 -119q0 -56 35.5 -90t88.5 -34z" />
<glyph unicode="p" horiz-adv-x="469" d="M120 67h-2l-36 -259h-43l76 538h30l-3 -71h4q2 3 5.5 8.5t17.5 19t30.5 24t44.5 19t60 8.5q67 0 109 -43t42 -113q0 -89 -59.5 -147.5t-141.5 -58.5q-32 0 -57.5 7.5t-39 18.5t-22.5 22.5t-12 19.5zM129 153q0 -57 35 -90.5t88 -33.5q65 0 112 47t47 117q0 55 -33 89.5 t-85 34.5q-66 0 -115 -45.5t-49 -118.5z" />
<glyph unicode="q" horiz-adv-x="469" d="M451 346l-75 -538h-43l37 262h-2q-2 -3 -5.5 -8.5t-16.5 -19t-29.5 -23.5t-44 -18.5t-59.5 -8.5q-67 0 -109.5 43.5t-42.5 113.5q0 89 60.5 147t143.5 58q32 0 58 -8.5t39.5 -20.5t22.5 -24t12 -21l3 -8h3l17 74h31zM388 193q0 57 -35 90.5t-88 33.5q-65 0 -112.5 -46.5 t-47.5 -116.5q0 -55 33.5 -90t86.5 -35q66 0 114.5 45.5t48.5 118.5z" />
<glyph unicode="r" horiz-adv-x="272" d="M314 336l-21 -35q-16 11 -44 11q-43 0 -71 -30t-40 -75l-29 -207h-43l49 346h30l-3 -61h2q43 65 113 65q16 0 30 -3.5t21 -6.5z" />
<glyph unicode="s" horiz-adv-x="374" d="M41 29l23 31q48 -32 124 -32q59 0 90 18.5t31 48.5q0 22 -24 36.5t-58.5 22t-68.5 17t-58 29t-24 49.5q0 47 41 76t118 29q40 0 74 -7t47 -13l14 -7l-22 -36q-38 27 -114 27q-115 0 -115 -64q0 -21 24 -34t58.5 -20t68.5 -16t58 -29.5t24 -52.5q0 -47 -41.5 -78.5 t-125.5 -31.5q-45 0 -81 9t-50 19z" />
<glyph unicode="t" horiz-adv-x="301" d="M63 346h72l15 105h43l-15 -105h148l-5 -36h-148l-23 -165q-17 -115 79 -115q12 0 25.5 3.5t20.5 6.5l7 4l10 -31q-31 -21 -74 -21q-133 0 -111 152l23 166h-72z" />
<glyph unicode="u" horiz-adv-x="449" d="M360 135l29 211h43l-48 -346h-29v61h-2q-3 -5 -7 -10t-17 -16.5t-28 -20t-40 -15.5t-53 -7q-72 0 -104.5 43.5t-22.5 116.5l27 194h44l-27 -189q-8 -58 15.5 -93t80.5 -35q59 0 96 35t43 71z" />
<glyph unicode="v" horiz-adv-x="402" d="M186 0l-122 346h49l92 -273q3 -10 3 -22h3q2 10 9 22l168 273h48l-220 -346h-30z" />
<glyph unicode="w" horiz-adv-x="574" d="M154 0l-85 346h47l60 -273q3 -10 3 -22h4q0 1 9 22l126 273h39l49 -273q2 -14 2 -22h5q0 6 9 22l137 273h44l-183 -346h-39l-48 270q-2 10 -2 23h-3q-1 -5 -7 -18l-128 -275h-39z" />
<glyph unicode="x" horiz-adv-x="376" d="M17 0l170 181l-108 165h50l87 -138h2l128 138h49l-155 -164l119 -182h-51l-97 155h-2l-142 -155h-50z" />
<glyph unicode="y" horiz-adv-x="403" d="M436 346l-335 -538h-46l129 205l-117 333h48l92 -273q3 -10 3 -22h3q2 10 9 22l169 273h45z" />
<glyph unicode="z" horiz-adv-x="368" d="M36 24l281 285h-241l5 37h301l-3 -23l-282 -286h242l-5 -37h-301z" />
<glyph unicode="{" horiz-adv-x="237" d="M64 277h11q26 0 47 22t26 61l35 249q12 86 100 95v-38q-26 -3 -38 -17t-16 -47l-35 -243q-11 -82 -66 -100l-1 -7q50 -17 39 -98l-35 -244q-4 -33 4 -46.5t33 -17.5l-11 -37q-85 7 -73 94l35 250q5 38 -9.5 60.5t-40.5 22.5h-11z" />
<glyph unicode="|" horiz-adv-x="209" d="M220 673l-116 -825h-41l116 825h41z" />
<glyph unicode="}" horiz-adv-x="237" d="M245 236h-12q-26 0 -47.5 -22.5t-26.5 -60.5l-35 -250q-12 -87 -98 -94l-1 37q27 4 39 17.5t16 46.5l34 244q11 81 66 98l1 7q-49 18 -38 100l34 243q4 34 -3.5 47.5t-33.5 16.5l12 38q83 -8 71 -95l-35 -249q-6 -39 9.5 -61t41.5 -22h12z" />
<glyph unicode="~" horiz-adv-x="451" d="M340 299q23 0 42.5 5t27.5 10l7 5l12 -27q-29 -30 -93 -30q-24 0 -70 14t-73 14q-23 0 -42 -5t-27 -10l-8 -5l-11 27q29 29 92 29q25 0 70.5 -13.5t72.5 -13.5z" />
<glyph unicode="&#xa1;" horiz-adv-x="230" d="M148 31l-4 -31h-59l4 31l71 418h33zM157 566q0 17 13 29.5t30 12.5q15 0 24 -9.5t9 -24.5q0 -16 -13 -28.5t-30 -12.5q-14 0 -23.5 9.5t-9.5 23.5z" />
<glyph unicode="&#xa2;" horiz-adv-x="414" d="M201 -85l11 79q-61 8 -98.5 49.5t-37.5 104.5q0 82 53 138t132 66l12 81h35l-12 -79q31 -1 57 -8.5t37 -15.5l11 -7l-19 -34q-36 28 -95 28q-66 0 -116.5 -46.5t-50.5 -118.5q0 -56 36 -89.5t90 -33.5q26 0 52 7t38 14l13 7l10 -34q-44 -29 -113 -31l-11 -77h-34z" />
<glyph unicode="&#xa3;" horiz-adv-x="508" d="M453 45l-5 -39h-380l5 39q-1 0 3 1.5t11.5 6t16.5 11t18.5 17t17 23t12.5 30.5t5 39q0 28 -7 56h-67l6 37h51q-15 60 -15 105q0 91 67.5 162.5t186.5 71.5q32 0 60 -6t44.5 -14.5t28.5 -17.5t16 -15l5 -6l-29 -32q-4 5 -12.5 13.5t-41.5 22t-75 13.5q-97 0 -149.5 -58 t-52.5 -134q0 -41 16 -105h259l-6 -37h-244q6 -36 6 -50q0 -84 -68 -134h317z" />
<glyph unicode="&#xa4;" horiz-adv-x="578" d="M119 82l-26 30l65 60q-30 44 -30 102q0 86 65 151l-48 59l34 30l47 -61q61 43 132 43q68 0 119 -46l66 64l27 -30l-69 -63q30 -46 30 -101q0 -83 -62 -148l49 -60l-35 -30l-47 61q-63 -45 -134 -45t-119 45zM170 279q0 -59 39.5 -99.5t98.5 -40.5q70 0 125 52.5t55 123.5 q0 59 -38.5 99.5t-97.5 40.5q-71 0 -126.5 -52.5t-55.5 -123.5z" />
<glyph unicode="&#xa5;" horiz-adv-x="585" d="M355 302l229 298h51l-262 -335h161l-5 -37h-183l-12 -88h182l-5 -37h-182l-14 -103h-45l14 103h-185l5 37h185l12 88h-184l5 37h163l-166 335h52l146 -298l11 -29h7z" />
<glyph unicode="&#xa6;" horiz-adv-x="210" d="M105 -152h-42l116 825h42z" />
<glyph unicode="&#xa7;" horiz-adv-x="526" d="M24 -127l30 35q2 -3 7 -7.5t22 -16t37 -20.5t52.5 -16.5t67.5 -7.5q94 0 141.5 39.5t47.5 96.5q0 43 -33 71.5t-117 61.5q-74 29 -103.5 53.5t-29.5 61.5q0 61 53 90q-83 48 -83 123q0 76 62 126t178 50q63 0 112 -15.5t66 -30.5l18 -15l-31 -37q-6 6 -17.5 15.5 t-56 25.5t-97.5 16q-90 0 -137 -36.5t-47 -92.5q0 -82 129 -126q77 -27 114 -56.5t37 -69.5q0 -57 -48 -92q80 -47 80 -120q0 -75 -60.5 -127.5t-181.5 -52.5q-42 0 -79.5 7.5t-60.5 18.5t-40 22t-24 19zM274 282q-13 4 -37 14q-46 -17 -46 -65q0 -25 24.5 -44t84.5 -42 q37 -14 62 -27q39 26 39 67q0 53 -127 97z" />
<glyph unicode="&#xa8;" horiz-adv-x="403" d="M143 479q0 16 12 27.5t28 11.5q13 0 21.5 -9t8.5 -22q0 -16 -12 -27.5t-28 -11.5q-13 0 -21.5 9t-8.5 22zM320 479q0 16 12 27.5t27 11.5q13 0 21.5 -9t8.5 -22q0 -16 -12 -27.5t-28 -11.5q-12 0 -20.5 9t-8.5 22z" />
<glyph unicode="&#xa9;" horiz-adv-x="725" d="M447 602q128 0 200.5 -75t72.5 -189q0 -141 -100.5 -241.5t-257.5 -100.5q-127 0 -199.5 75t-72.5 189q0 141 101 241.5t256 100.5zM443 572q-140 0 -230 -90t-90 -218q0 -103 65 -170.5t178 -67.5q141 0 231 90.5t90 217.5q0 103 -65 170.5t-179 67.5zM536 425l-22 -24 q-24 29 -85 29q-67 0 -109.5 -43t-42.5 -104q0 -49 30.5 -81t84.5 -32q26 0 49.5 7t34.5 15l10 7l15 -24q-4 -4 -12.5 -10t-38 -16.5t-63.5 -10.5q-69 0 -107.5 39.5t-38.5 101.5q0 76 53 130t138 54q34 0 60 -9.5t35 -19.5z" />
<glyph unicode="&#xaa;" horiz-adv-x="413" d="M94 358q0 53 44 84t119 31q89 0 116 -40l3 23q9 62 -13 93t-88 31q-26 0 -54.5 -6t-44.5 -12l-15 -6l-8 32q65 26 130 26q84 0 113.5 -41t18.5 -118l-25 -181h-28l-1 42h-5q-39 -50 -138 -50q-56 0 -90 25t-34 67zM133 362q0 -30 26 -48t71 -18q59 0 96.5 25.5t37.5 58.5 q0 30 -28 47.5t-77 17.5q-58 0 -92 -22.5t-34 -60.5z" />
<glyph unicode="&#xab;" horiz-adv-x="393" d="M68 163l2 17l128 156h40l-1 -7l-126 -155l-1 -3l83 -157l-1 -7h-40zM224 163l2 17l128 156h39l-1 -7l-126 -155l-1 -3l83 -157l-1 -7h-39z" />
<glyph unicode="&#xac;" horiz-adv-x="544" d="M78 309l5 38h420l-48 -347h-38l42 309h-381z" />
<glyph unicode="&#xad;" horiz-adv-x="401" d="M98 278l5 38h283l-5 -38h-283z" />
<glyph unicode="&#xae;" horiz-adv-x="572" d="M578 410q0 -107 -76.5 -184t-195.5 -77q-96 0 -150.5 57.5t-54.5 143.5q0 108 76 185t194 77q97 0 152 -57.5t55 -144.5zM545 406q0 76 -48 125.5t-130 49.5q-101 0 -167 -66t-66 -161q0 -76 47 -125.5t129 -49.5q102 0 168.5 66t66.5 161zM266 485h91q37 0 59.5 -17 t22.5 -47q0 -55 -53 -74l36 -56l-1 -8h-28l-37 57q-7 -1 -22 -1h-59l-8 -56h-29zM354 458h-63l-13 -93h59q72 0 72 53q0 40 -55 40z" />
<glyph unicode="&#xaf;" horiz-adv-x="487" d="M182 446l4 31h257l-4 -31h-257z" />
<glyph unicode="&#xb0;" horiz-adv-x="322" d="M255 672q47 0 74.5 -27t27.5 -68q0 -50 -37.5 -85t-94.5 -35q-47 0 -75 26.5t-28 67.5q0 50 38.5 85.5t94.5 35.5zM251 643q-42 0 -70 -26t-28 -62q0 -29 21 -49t55 -20q42 0 69.5 25.5t27.5 61.5q0 30 -20.5 50t-54.5 20z" />
<glyph unicode="&#xb1;" horiz-adv-x="566" d="M327 161h-38l25 183h-192l5 38h193l26 185h38l-26 -185h188l-5 -38h-189zM504 86l-5 -38h-419l5 38h419z" />
<glyph unicode="&#xb2;" horiz-adv-x="318" d="M76 342l2 15l183 140q55 43 55 87q0 60 -78 60q-25 0 -50.5 -9t-36 -16t-13.5 -10l-15 26q51 42 121 42q55 0 81.5 -23.5t26.5 -62.5q0 -60 -68 -112l-138 -106h195l-4 -31h-261z" />
<glyph unicode="&#xb3;" horiz-adv-x="316" d="M129 637l4 31h231l-1 -12l-103 -122q88 -6 88 -82q0 -50 -38.5 -84t-106.5 -34q-75 0 -121 46l25 25q4 -4 12 -10.5t34 -17t54 -10.5q50 0 78.5 22.5t28.5 58.5q0 27 -20 42.5t-56 15.5h-32l2 13l99 118h-178z" />
<glyph unicode="&#xb4;" horiz-adv-x="247" d="M247 567l-102 -148h-26l1 10l72 148h56z" />
<glyph unicode="&#xb5;" horiz-adv-x="494" d="M97 -192h-42l75 538h44l-27 -189q-8 -58 15.5 -93t80.5 -35q59 0 96 35t43 71l29 211h43l-48 -346h-29v61h-2q-3 -5 -7 -10t-17 -16.5t-28 -20t-40 -15.5t-53 -7q-68 0 -102 40z" />
<glyph unicode="&#xb6;" horiz-adv-x="496" d="M329 -181l41 291h-87q-100 0 -154.5 43.5t-54.5 126.5q0 109 69 166.5t194 57.5h132l-96 -685h-44z" />
<glyph unicode="&#xb7;" horiz-adv-x="123" d="M73 356q0 17 13 29.5t30 12.5q14 0 23.5 -10t9.5 -24q0 -17 -13 -29t-31 -12q-14 0 -23 9.5t-9 23.5z" />
<glyph unicode="&#xb8;" horiz-adv-x="216" d="M76 -57l-10 15l29 43h31l-21 -31q62 0 62 -53q0 -34 -24 -55.5t-65 -21.5q-20 0 -35.5 6t-20.5 12l-6 7l15 23q18 -21 51 -21q25 0 40 12t15 34q0 16 -11.5 25t-30.5 9z" />
<glyph unicode="&#xb9;" horiz-adv-x="188" d="M111 637l4 31h110l-45 -326h-34l40 295h-75z" />
<glyph unicode="&#xba;" horiz-adv-x="432" d="M302 613q68 0 109 -40t41 -108q0 -86 -57 -140.5t-141 -54.5q-68 0 -109 40t-41 106q0 88 56.5 142.5t141.5 54.5zM297 578q-67 0 -110.5 -43.5t-43.5 -113.5q0 -53 31.5 -84.5t84.5 -31.5q67 0 110.5 43.5t43.5 113.5q0 53 -31.5 84.5t-84.5 31.5z" />
<glyph unicode="&#xbb;" horiz-adv-x="393" d="M217 180l-2 -17l-128 -156h-39l1 7l127 157v3l-83 155l1 7h39zM372 180l-2 -17l-128 -156h-39l1 7l127 157v3l-83 155l1 7h39z" />
<glyph unicode="&#xbc;" horiz-adv-x="629" d="M338 95l3 21l215 210h25l-29 -201h56l-4 -30h-56l-13 -95h-33l13 95h-177zM388 125v-2l57 2h74l16 110l7 37h-2l-109 -107zM115 11l-23 20l548 564l23 -20zM122 569l5 31h111l-42 -295h73l-4 -31h-184l4 31h76l37 264h-76z" />
<glyph unicode="&#xbd;" horiz-adv-x="715" d="M419 15l-2 -15h261l5 31h-195l138 106q68 53 68 112q0 39 -26.5 62.5t-81.5 23.5q-32 0 -62.5 -10.5t-45.5 -20.5l-14 -11l15 -26q3 3 14 10t36.5 16t50.5 9q78 0 78 -60q0 -43 -56 -87zM115 11l-23 20l548 564l23 -20zM122 569l5 31h111l-42 -295h73l-4 -31h-184l4 31 h76l37 264h-76z" />
<glyph unicode="&#xbe;" horiz-adv-x="738" d="M446 95l2 21l217 210h25l-29 -201h55l-4 -30h-55l-13 -95h-33l13 95h-178zM136 569l4 31h230l-1 -12l-103 -122q88 -6 88 -82q0 -50 -38.5 -84t-106.5 -34q-75 0 -121 46l25 25q4 -4 12 -10.5t34 -17t54 -10.5q51 0 79 23t28 58q0 27 -20 42.5t-56 15.5h-32l2 13l100 118 h-178zM195 11l-23 20l548 564l23 -20zM495 125v-3l59 3h74l16 110q0 2 6 37h-3l-108 -107z" />
<glyph unicode="&#xbf;" horiz-adv-x="372" d="M324 63l12 -35q-54 -36 -145 -36q-60 0 -94 32t-34 82q0 42 17 75.5t42 57t51.5 46t49 56t29.5 73.5l7 40h33l-6 -45q-5 -41 -25.5 -75t-45.5 -57t-49 -45.5t-40.5 -52t-16.5 -64.5q0 -38 25 -61.5t68 -23.5q35 0 65.5 8t43.5 16zM329 581q0 -18 -12.5 -30t-30.5 -12 q-14 0 -23 9t-9 23q0 18 12.5 30t29.5 12q15 0 24 -9t9 -23z" />
<glyph unicode="&#xc0;" d="M8 0l372 600h12l205 -600h-50l-44 124h-368l-78 -124h-49zM484 179l-107 331h-7l-200 -331l-9 -13h328zM376 638l-59 148l1 10h56l31 -148l-2 -10h-27z" />
<glyph unicode="&#xc1;" d="M8 0l372 600h12l205 -600h-50l-44 124h-368l-78 -124h-49zM484 179l-107 331h-7l-200 -331l-9 -13h328zM508 786l-102 -148h-26l1 10l72 148h56z" />
<glyph unicode="&#xc2;" d="M500 638l-96 117l-129 -117h-27l1 10l135 148h51l93 -148l-1 -10h-27zM8 0l372 600h12l205 -600h-50l-44 124h-368l-78 -124h-49zM484 179l-107 331h-7l-200 -331l-9 -13h328z" />
<glyph unicode="&#xc3;" d="M8 0l372 600h12l205 -600h-50l-44 124h-368l-78 -124h-49zM484 179l-107 331h-7l-200 -331l-9 -13h328zM456 655q-28 0 -66 25.5t-56 25.5q-33 0 -49 -39l-5 -14l-31 6l7 19q22 64 79 64q27 0 65 -26t58 -26q33 0 49 39l6 14l29 -5l-6 -19q-20 -64 -80 -64z" />
<glyph unicode="&#xc4;" d="M272 707q0 16 12 27.5t28 11.5q13 0 21.5 -9t8.5 -22q0 -16 -12 -27.5t-28 -11.5q-13 0 -21.5 9t-8.5 22zM449 707q0 16 12 27.5t27 11.5q13 0 21.5 -9t8.5 -22q0 -16 -12 -27.5t-28 -11.5q-12 0 -20.5 9t-8.5 22zM8 0l372 600h12l205 -600h-50l-44 124h-368l-78 -124 h-49zM484 179l-107 331h-7l-200 -331l-9 -13h328z" />
<glyph unicode="&#xc5;" d="M8 0l369 595q-31 2 -49.5 22.5t-18.5 51.5q0 41 29 68.5t70 27.5q34 0 55 -21t21 -53q0 -38 -26 -65t-65 -31l204 -595h-50l-44 124h-368l-78 -124h-49zM484 179l-107 331h-7l-200 -331l-9 -13h328zM452 688q0 21 -13 34t-35 13q-28 0 -45.5 -17.5t-17.5 -45.5 q0 -21 12.5 -33.5t34.5 -12.5q29 0 46.5 17t17.5 45z" />
<glyph unicode="&#xc6;" horiz-adv-x="902" d="M-8 0l522 600h432l-5 -41h-385l-34 -242h338l-6 -41h-338l-33 -235h385l-6 -41h-428l17 124h-301l-106 -124h-52zM501 526l-315 -360h271l50 360h-6z" />
<glyph unicode="&#xc7;" horiz-adv-x="595" d="M325 -57l-10 15l19 29q-113 7 -181 83t-68 188q0 148 104.5 251.5t254.5 103.5q39 0 73 -8t55 -19.5t37 -23.5t23 -20l6 -8l-30 -33q-2 3 -6.5 7.5t-20 16.5t-33.5 21.5t-47.5 17t-62.5 7.5q-128 0 -217.5 -91.5t-89.5 -214.5q0 -100 63 -168.5t168 -68.5q52 0 99.5 18 t68.5 36l22 18l20 -34q-3 -3 -9 -8t-26 -18.5t-42 -24t-57.5 -19.5t-72.5 -10l-11 -16q62 0 62 -53q0 -34 -24 -55.5t-65 -21.5q-20 0 -35.5 6t-21.5 12l-5 7l15 23q18 -21 51 -21q25 0 40 12t15 34q0 16 -11.5 25t-30.5 9z" />
<glyph unicode="&#xc8;" horiz-adv-x="561" d="M519 317l-6 -41h-338l-33 -235h384l-6 -41h-427l84 600h427l-5 -41h-384l-34 -242h338zM387 637l-59 148l1 10h56l31 -148l-2 -10h-27z" />
<glyph unicode="&#xc9;" horiz-adv-x="561" d="M500 786l-102 -148h-26l1 10l72 148h56zM519 317l-6 -41h-338l-33 -235h384l-6 -41h-427l84 600h427l-5 -41h-384l-34 -242h338z" />
<glyph unicode="&#xca;" horiz-adv-x="561" d="M518 638l-96 117l-129 -117h-27l1 10l135 148h51l93 -148l-1 -10h-27zM519 317l-6 -41h-338l-33 -235h384l-6 -41h-427l84 600h427l-5 -41h-384l-34 -242h338z" />
<glyph unicode="&#xcb;" horiz-adv-x="561" d="M289 701q0 16 12 27.5t28 11.5q13 0 21.5 -9t8.5 -22q0 -16 -12 -27.5t-28 -11.5q-13 0 -21.5 9t-8.5 22zM466 701q0 16 12 27.5t27 11.5q13 0 21.5 -9t8.5 -22q0 -16 -12 -27.5t-28 -11.5q-12 0 -20.5 9t-8.5 22zM519 317l-6 -41h-338l-33 -235h384l-6 -41h-427l84 600 h427l-5 -41h-384l-34 -242h338z" />
<glyph unicode="&#xcc;" horiz-adv-x="230" d="M221 600l-84 -600h-44l84 600h44zM189 637l-59 148l1 10h56l31 -148l-2 -10h-27z" />
<glyph unicode="&#xcd;" horiz-adv-x="230" d="M221 600l-84 -600h-44l84 600h44zM322 786l-102 -148h-26l1 10l72 148h56z" />
<glyph unicode="&#xce;" horiz-adv-x="230" d="M319 638l-96 117l-129 -117h-27l1 10l135 148h51l93 -148l-1 -10h-27zM221 600l-84 -600h-44l84 600h44z" />
<glyph unicode="&#xcf;" horiz-adv-x="230" d="M94 701q0 16 12 27.5t28 11.5q13 0 21.5 -9t8.5 -22q0 -16 -12 -27.5t-28 -11.5q-13 0 -21.5 9t-8.5 22zM271 701q0 16 12 27.5t27 11.5q13 0 21.5 -9t8.5 -22q0 -16 -12 -27.5t-28 -11.5q-12 0 -20.5 9t-8.5 22zM221 600l-84 -600h-44l84 600h44z" />
<glyph unicode="&#xd0;" horiz-adv-x="665" d="M62 281l5 37h78l40 282h194q128 0 205.5 -69.5t77.5 -189.5q0 -155 -104.5 -248t-262.5 -93h-194l39 281h-78zM372 559h-149l-34 -241h144l-5 -37h-144l-34 -240h149q133 0 225 80.5t92 212.5q0 104 -68 164.5t-176 60.5z" />
<glyph unicode="&#xd1;" horiz-adv-x="695" d="M687 600l-84 -600h-15l-381 504l-70 -504h-44l84 600h15l380 -502l71 502h44zM506 670q-28 0 -66 25.5t-56 25.5q-33 0 -49 -39l-5 -14l-31 6l7 19q22 64 79 64q27 0 65 -26t58 -26q33 0 49 39l6 14l29 -5l-6 -19q-20 -64 -80 -64z" />
<glyph unicode="&#xd2;" horiz-adv-x="709" d="M430 638l-59 148l1 10h56l31 -148l-2 -10h-27zM352 -14q-123 0 -194.5 76t-71.5 194q0 150 100.5 253.5t253.5 103.5q123 0 194.5 -76t71.5 -196q0 -149 -101 -252t-253 -103zM358 28q134 0 218.5 91t84.5 217q0 101 -59.5 168t-167.5 67q-133 0 -218 -91.5t-85 -217.5 q0 -101 60 -167.5t167 -66.5z" />
<glyph unicode="&#xd3;" horiz-adv-x="709" d="M555 786l-102 -148h-26l1 10l72 148h56zM352 -14q-123 0 -194.5 76t-71.5 194q0 150 100.5 253.5t253.5 103.5q123 0 194.5 -76t71.5 -196q0 -149 -101 -252t-253 -103zM358 28q134 0 218.5 91t84.5 217q0 101 -59.5 168t-167.5 67q-133 0 -218 -91.5t-85 -217.5 q0 -101 60 -167.5t167 -66.5z" />
<glyph unicode="&#xd4;" horiz-adv-x="709" d="M552 638l-96 117l-129 -117h-27l1 10l135 148h51l93 -148l-1 -10h-27zM352 -14q-123 0 -194.5 76t-71.5 194q0 150 100.5 253.5t253.5 103.5q123 0 194.5 -76t71.5 -196q0 -149 -101 -252t-253 -103zM358 28q134 0 218.5 91t84.5 217q0 101 -59.5 168t-167.5 67 q-133 0 -218 -91.5t-85 -217.5q0 -101 60 -167.5t167 -66.5z" />
<glyph unicode="&#xd5;" horiz-adv-x="709" d="M352 -14q-123 0 -194.5 76t-71.5 194q0 150 100.5 253.5t253.5 103.5q123 0 194.5 -76t71.5 -196q0 -149 -101 -252t-253 -103zM358 28q134 0 218.5 91t84.5 217q0 101 -59.5 168t-167.5 67q-133 0 -218 -91.5t-85 -217.5q0 -101 60 -167.5t167 -66.5zM509 669 q-28 0 -66 25.5t-56 25.5q-33 0 -49 -39l-5 -14l-31 6l7 19q22 64 79 64q27 0 65 -26t58 -26q33 0 49 39l6 14l29 -5l-6 -19q-20 -64 -80 -64z" />
<glyph unicode="&#xd6;" horiz-adv-x="709" d="M323 700q0 16 12 27.5t28 11.5q13 0 21.5 -9t8.5 -22q0 -16 -12 -27.5t-28 -11.5q-13 0 -21.5 9t-8.5 22zM500 700q0 16 12 27.5t27 11.5q13 0 21.5 -9t8.5 -22q0 -16 -12 -27.5t-28 -11.5q-12 0 -20.5 9t-8.5 22zM352 -14q-123 0 -194.5 76t-71.5 194q0 150 100.5 253.5 t253.5 103.5q123 0 194.5 -76t71.5 -196q0 -149 -101 -252t-253 -103zM358 28q134 0 218.5 91t84.5 217q0 101 -59.5 168t-167.5 67q-133 0 -218 -91.5t-85 -217.5q0 -101 60 -167.5t167 -66.5z" />
<glyph unicode="&#xd7;" horiz-adv-x="518" d="M111 113l-23 26l187 164l-141 165l31 26l141 -164l187 164l23 -26l-188 -165l142 -164l-31 -26l-141 164z" />
<glyph unicode="&#xd8;" horiz-adv-x="707" d="M352 -14q-128 0 -200 82l-73 -63l-24 27l75 64q-44 67 -44 160q0 150 100.5 253.5t253.5 103.5q125 0 197 -80l65 56l24 -27l-67 -57q47 -70 47 -164q0 -149 -101 -252t-253 -103zM358 28q134 0 218.5 91t84.5 217q0 78 -37 138l-437 -376q63 -70 171 -70zM131 262 q0 -76 35 -134l436 375q-62 68 -168 68q-133 0 -218 -91.5t-85 -217.5z" />
<glyph unicode="&#xd9;" horiz-adv-x="656" d="M326 -13q-115 0 -169.5 70.5t-37.5 190.5l49 352h44l-49 -352q-14 -101 29 -160.5t140 -59.5t157 59.5t74 160.5l49 352h44l-49 -352q-17 -120 -91 -190.5t-190 -70.5zM413 638l-59 148l1 10h56l31 -148l-2 -10h-27z" />
<glyph unicode="&#xda;" horiz-adv-x="656" d="M532 786l-102 -148h-26l1 10l72 148h56zM326 -13q-115 0 -169.5 70.5t-37.5 190.5l49 352h44l-49 -352q-14 -101 29 -160.5t140 -59.5t157 59.5t74 160.5l49 352h44l-49 -352q-17 -120 -91 -190.5t-190 -70.5z" />
<glyph unicode="&#xdb;" horiz-adv-x="656" d="M536 638l-96 117l-129 -117h-27l1 10l135 148h51l93 -148l-1 -10h-27zM326 -13q-115 0 -169.5 70.5t-37.5 190.5l49 352h44l-49 -352q-14 -101 29 -160.5t140 -59.5t157 59.5t74 160.5l49 352h44l-49 -352q-17 -120 -91 -190.5t-190 -70.5z" />
<glyph unicode="&#xdc;" horiz-adv-x="656" d="M302 702q0 16 12 27.5t28 11.5q13 0 21.5 -9t8.5 -22q0 -16 -12 -27.5t-28 -11.5q-13 0 -21.5 9t-8.5 22zM479 702q0 16 12 27.5t27 11.5q13 0 21.5 -9t8.5 -22q0 -16 -12 -27.5t-28 -11.5q-12 0 -20.5 9t-8.5 22zM326 -13q-115 0 -169.5 70.5t-37.5 190.5l49 352h44 l-49 -352q-14 -101 29 -160.5t140 -59.5t157 59.5t74 160.5l49 352h44l-49 -352q-17 -120 -91 -190.5t-190 -70.5z" />
<glyph unicode="&#xdd;" horiz-adv-x="535" d="M330 302l229 298h51l-288 -369l-32 -231h-45l32 231l-183 369h52l146 -298l11 -29h7zM460 786l-102 -148h-26l1 10l72 148h56z" />
<glyph unicode="&#xde;" horiz-adv-x="594" d="M221 600l-14 -101h189q101 0 155.5 -43t54.5 -125q0 -111 -71.5 -171.5t-196.5 -60.5h-187l-14 -99h-44l84 600h44zM560 324q0 67 -45 100t-126 33h-188l-45 -317h189q100 0 157.5 46t57.5 138z" />
<glyph unicode="&#xdf;" horiz-adv-x="454" d="M228 167l145 144h-221l-43 -311h-43l66 469q23 162 166 162q16 0 31.5 -4t22.5 -8l8 -4l-19 -37q-21 13 -47 13q-51 0 -80.5 -28.5t-38.5 -91.5l-18 -124h295l-2 -10l-162 -160q62 -2 100 -32t38 -87q0 -73 -51.5 -118t-131.5 -45q-32 0 -59 5t-38 10l-11 5l16 33 q37 -17 97 -17q55 0 93.5 35t38.5 88q0 43 -30.5 67t-80.5 24h-44z" />
<glyph unicode="&#xe0;" horiz-adv-x="422" d="M45 90q0 51 43.5 84t123.5 33q84 0 127 -40h5l4 30q17 120 -111 120q-31 0 -59.5 -7.5t-41.5 -14.5l-13 -7l-11 34q48 32 138 32q84 0 117 -44t22 -118l-27 -192h-30l1 49h-3q-8 -9 -20.5 -19t-50 -24t-81.5 -14q-66 0 -99.5 27.5t-33.5 70.5zM89 94q0 -30 25.5 -49 t76.5 -19q56 0 99.5 27t43.5 56q0 28 -35.5 47.5t-86.5 19.5q-60 0 -91.5 -22.5t-31.5 -59.5zM242 419l-59 148l1 10h56l31 -148l-2 -10h-27z" />
<glyph unicode="&#xe1;" horiz-adv-x="422" d="M45 90q0 51 43.5 84t123.5 33q84 0 127 -40h5l4 30q17 120 -111 120q-31 0 -59.5 -7.5t-41.5 -14.5l-13 -7l-11 34q48 32 138 32q84 0 117 -44t22 -118l-27 -192h-30l1 49h-3q-8 -9 -20.5 -19t-50 -24t-81.5 -14q-66 0 -99.5 27.5t-33.5 70.5zM89 94q0 -30 25.5 -49 t76.5 -19q56 0 99.5 27t43.5 56q0 28 -35.5 47.5t-86.5 19.5q-60 0 -91.5 -22.5t-31.5 -59.5zM366 567l-102 -148h-26l1 10l72 148h56z" />
<glyph unicode="&#xe2;" horiz-adv-x="422" d="M45 90q0 51 43.5 84t123.5 33q84 0 127 -40h5l4 30q17 120 -111 120q-31 0 -59.5 -7.5t-41.5 -14.5l-13 -7l-11 34q48 32 138 32q84 0 117 -44t22 -118l-27 -192h-30l1 49h-3q-8 -9 -20.5 -19t-50 -24t-81.5 -14q-66 0 -99.5 27.5t-33.5 70.5zM89 94q0 -30 25.5 -49 t76.5 -19q56 0 99.5 27t43.5 56q0 28 -35.5 47.5t-86.5 19.5q-60 0 -91.5 -22.5t-31.5 -59.5zM372 419l-96 117l-129 -117h-27l1 10l135 148h51l93 -148l-1 -10h-27z" />
<glyph unicode="&#xe3;" horiz-adv-x="422" d="M45 90q0 51 43.5 84t123.5 33q84 0 127 -40h5l4 30q17 120 -111 120q-31 0 -59.5 -7.5t-41.5 -14.5l-13 -7l-11 34q48 32 138 32q84 0 117 -44t22 -118l-27 -192h-30l1 49h-3q-8 -9 -20.5 -19t-50 -24t-81.5 -14q-66 0 -99.5 27.5t-33.5 70.5zM89 94q0 -30 25.5 -49 t76.5 -19q56 0 99.5 27t43.5 56q0 28 -35.5 47.5t-86.5 19.5q-60 0 -91.5 -22.5t-31.5 -59.5zM329 449q-28 0 -66 25.5t-56 25.5q-33 0 -49 -39l-5 -14l-31 6l7 19q22 64 79 64q27 0 65 -26t58 -26q33 0 49 39l6 14l29 -5l-6 -19q-20 -64 -80 -64z" />
<glyph unicode="&#xe4;" horiz-adv-x="422" d="M45 90q0 51 43.5 84t123.5 33q84 0 127 -40h5l4 30q17 120 -111 120q-31 0 -59.5 -7.5t-41.5 -14.5l-13 -7l-11 34q48 32 138 32q84 0 117 -44t22 -118l-27 -192h-30l1 49h-3q-8 -9 -20.5 -19t-50 -24t-81.5 -14q-66 0 -99.5 27.5t-33.5 70.5zM89 94q0 -30 25.5 -49 t76.5 -19q56 0 99.5 27t43.5 56q0 28 -35.5 47.5t-86.5 19.5q-60 0 -91.5 -22.5t-31.5 -59.5zM143 479q0 16 12 27.5t28 11.5q13 0 21.5 -9t8.5 -22q0 -16 -12 -27.5t-28 -11.5q-13 0 -21.5 9t-8.5 22zM320 479q0 16 12 27.5t27 11.5q13 0 21.5 -9t8.5 -22q0 -16 -12 -27.5 t-28 -11.5q-12 0 -20.5 9t-8.5 22z" />
<glyph unicode="&#xe5;" horiz-adv-x="422" d="M45 90q0 51 43.5 84t123.5 33q84 0 127 -40h5l4 30q17 120 -111 120q-31 0 -59.5 -7.5t-41.5 -14.5l-13 -7l-11 34q48 32 138 32q84 0 117 -44t22 -118l-27 -192h-30l1 49h-3q-8 -9 -20.5 -19t-50 -24t-81.5 -14q-66 0 -99.5 27.5t-33.5 70.5zM89 94q0 -30 25.5 -49 t76.5 -19q56 0 99.5 27t43.5 56q0 28 -35.5 47.5t-86.5 19.5q-60 0 -91.5 -22.5t-31.5 -59.5zM263 436q-33 0 -54 21t-21 53q0 41 29 68.5t70 27.5q34 0 55 -21t21 -53q0 -41 -29 -68.5t-71 -27.5zM331 529q0 21 -13 34t-35 13q-28 0 -45.5 -17.5t-17.5 -45.5 q0 -21 12.5 -33.5t34.5 -12.5q29 0 46.5 17t17.5 45z" />
<glyph unicode="&#xe6;" horiz-adv-x="701" d="M635 60l12 -31q-53 -37 -136 -37q-52 0 -91 22t-59 61q-58 -83 -182 -83q-67 0 -100.5 28t-33.5 71q0 50 42.5 83t119.5 33q89 0 131 -42h4l4 30q17 123 -110 123q-31 0 -59.5 -7t-42.5 -14l-13 -7l-10 33q53 31 138 31q110 0 135 -80q59 80 162 80q153 0 145 -170 l-1 -13h-301q-1 -6 -1 -19q0 -58 37 -91t93 -33q32 0 61 8t43 16zM86 94q0 -67 104 -67q56 0 99.5 25.5t43.5 55.5q0 29 -36.5 48t-85.5 19q-62 0 -93.5 -22.5t-31.5 -58.5zM541 318q-52 0 -92.5 -30.5t-54.5 -84.5h258q3 49 -25.5 82t-85.5 33z" />
<glyph unicode="&#xe7;" horiz-adv-x="366" d="M183 -57l-10 15l24 36q-61 8 -98.5 49.5t-37.5 104.5q0 89 62.5 147.5t150.5 58.5q32 0 59.5 -8t38.5 -16l11 -7l-18 -33q-34 27 -93 27q-66 0 -116.5 -46.5t-50.5 -118.5q0 -56 36 -89.5t90 -33.5q26 0 51.5 6.5t37.5 13.5l12 7l8 -33q-43 -30 -113 -31l-15 -22 q62 0 62 -53q0 -34 -24 -55.5t-65 -21.5q-20 0 -35.5 6t-21.5 12l-5 7l15 23q18 -21 51 -21q25 0 40 12t15 34q0 16 -11.5 25t-30.5 9z" />
<glyph unicode="&#xe8;" horiz-adv-x="417" d="M352 61l11 -31q-51 -38 -134 -38q-75 0 -121 43t-46 113q0 90 58.5 148t143.5 58q76 0 111 -42.5t35 -114.5l-3 -27h-302v-18q0 -58 36.5 -91t92.5 -33q32 0 61.5 8t42.5 16zM258 318q-51 0 -91.5 -30.5t-55.5 -83.5h258q3 50 -26 82t-85 32zM259 419l-59 148l1 10h56 l31 -148l-2 -10h-27z" />
<glyph unicode="&#xe9;" horiz-adv-x="417" d="M379 567l-102 -148h-26l1 10l72 148h56zM352 61l11 -31q-51 -38 -134 -38q-75 0 -121 43t-46 113q0 90 58.5 148t143.5 58q76 0 111 -42.5t35 -114.5l-3 -27h-302v-18q0 -58 36.5 -91t92.5 -33q32 0 61.5 8t42.5 16zM258 318q-51 0 -91.5 -30.5t-55.5 -83.5h258 q3 50 -26 82t-85 32z" />
<glyph unicode="&#xea;" horiz-adv-x="417" d="M389 419l-96 117l-129 -117h-27l1 10l135 148h51l93 -148l-1 -10h-27zM352 61l11 -31q-51 -38 -134 -38q-75 0 -121 43t-46 113q0 90 58.5 148t143.5 58q76 0 111 -42.5t35 -114.5l-3 -27h-302v-18q0 -58 36.5 -91t92.5 -33q32 0 61.5 8t42.5 16zM258 318 q-51 0 -91.5 -30.5t-55.5 -83.5h258q3 50 -26 82t-85 32z" />
<glyph unicode="&#xeb;" horiz-adv-x="417" d="M161 479q0 16 12 27.5t28 11.5q13 0 21.5 -9t8.5 -22q0 -16 -12 -27.5t-28 -11.5q-13 0 -21.5 9t-8.5 22zM338 479q0 16 12 27.5t27 11.5q13 0 21.5 -9t8.5 -22q0 -16 -12 -27.5t-28 -11.5q-12 0 -20.5 9t-8.5 22zM352 61l11 -31q-51 -38 -134 -38q-75 0 -121 43t-46 113 q0 90 58.5 148t143.5 58q76 0 111 -42.5t35 -114.5l-3 -27h-302v-18q0 -58 36.5 -91t92.5 -33q32 0 61.5 8t42.5 16zM258 318q-51 0 -91.5 -30.5t-55.5 -83.5h258q3 50 -26 82t-85 32z" />
<glyph unicode="&#xec;" horiz-adv-x="180" d="M69 0l49 346h43l-49 -346h-43zM133 419l-59 148l1 10h56l31 -148l-2 -10h-27z" />
<glyph unicode="&#xed;" horiz-adv-x="180" d="M260 567l-102 -148h-26l1 10l72 148h56zM69 0l49 346h43l-49 -346h-43z" />
<glyph unicode="&#xee;" horiz-adv-x="180" d="M262 419l-96 117l-129 -117h-27l1 10l135 148h51l93 -148l-1 -10h-27zM69 0l49 346h43l-49 -346h-43z" />
<glyph unicode="&#xef;" horiz-adv-x="180" d="M37 479q0 16 12 27.5t28 11.5q13 0 21.5 -9t8.5 -22q0 -16 -12 -27.5t-28 -11.5q-13 0 -21.5 9t-8.5 22zM214 479q0 16 12 27.5t27 11.5q13 0 21.5 -9t8.5 -22q0 -16 -12 -27.5t-28 -11.5q-12 0 -20.5 9t-8.5 22zM69 0l49 346h43l-49 -346h-43z" />
<glyph unicode="&#xf0;" horiz-adv-x="476" d="M172 400l-12 28l130 69l-50 95l1 8h41l44 -83l114 60l12 -28l-111 -59l88 -165q34 -64 34 -119q0 -96 -64 -156.5t-162 -60.5q-80 0 -128 43.5t-48 114.5q0 86 64 145t164 59q51 0 90 -21l-75 140zM242 26q72 0 124 48t52 119q0 56 -39 88.5t-95 32.5q-75 0 -126.5 -46.5 t-51.5 -114.5q0 -56 37.5 -91.5t98.5 -35.5z" />
<glyph unicode="&#xf1;" horiz-adv-x="453" d="M66 0l49 346h30l-3 -61h3q53 69 145 69q72 0 106.5 -44t24.5 -116l-27 -194h-44l27 189q8 57 -17.5 92.5t-82.5 35.5q-56 0 -92 -32t-46 -70l-30 -215h-43zM348 449q-28 0 -66 25.5t-56 25.5q-33 0 -49 -39l-5 -14l-31 6l7 19q22 64 79 64q27 0 65 -26t58 -26q33 0 49 39 l6 14l29 -5l-6 -19q-20 -64 -80 -64z" />
<glyph unicode="&#xf2;" horiz-adv-x="447" d="M434 195q0 -90 -62.5 -146.5t-148.5 -56.5q-71 0 -116.5 42t-45.5 113q0 90 63 148.5t150 58.5q70 0 115 -43.5t45 -115.5zM228 28q65 0 114 45t49 118q0 57 -35 92t-87 35q-65 0 -115 -47t-50 -119q0 -56 35.5 -90t88.5 -34zM286 419l-59 148l1 10h56l31 -148l-2 -10 h-27z" />
<glyph unicode="&#xf3;" horiz-adv-x="447" d="M390 567l-102 -148h-26l1 10l72 148h56zM434 195q0 -90 -62.5 -146.5t-148.5 -56.5q-71 0 -116.5 42t-45.5 113q0 90 63 148.5t150 58.5q70 0 115 -43.5t45 -115.5zM228 28q65 0 114 45t49 118q0 57 -35 92t-87 35q-65 0 -115 -47t-50 -119q0 -56 35.5 -90t88.5 -34z" />
<glyph unicode="&#xf4;" horiz-adv-x="447" d="M393 419l-96 117l-129 -117h-27l1 10l135 148h51l93 -148l-1 -10h-27zM434 195q0 -90 -62.5 -146.5t-148.5 -56.5q-71 0 -116.5 42t-45.5 113q0 90 63 148.5t150 58.5q70 0 115 -43.5t45 -115.5zM228 28q65 0 114 45t49 118q0 57 -35 92t-87 35q-65 0 -115 -47t-50 -119 q0 -56 35.5 -90t88.5 -34z" />
<glyph unicode="&#xf5;" horiz-adv-x="447" d="M434 195q0 -90 -62.5 -146.5t-148.5 -56.5q-71 0 -116.5 42t-45.5 113q0 90 63 148.5t150 58.5q70 0 115 -43.5t45 -115.5zM228 28q65 0 114 45t49 118q0 57 -35 92t-87 35q-65 0 -115 -47t-50 -119q0 -56 35.5 -90t88.5 -34zM355 449q-28 0 -66 25.5t-56 25.5 q-33 0 -49 -39l-5 -14l-31 6l7 19q22 64 79 64q27 0 65 -26t58 -26q33 0 49 39l6 14l29 -5l-6 -19q-20 -64 -80 -64z" />
<glyph unicode="&#xf6;" horiz-adv-x="447" d="M163 479q0 16 12 27.5t28 11.5q13 0 21.5 -9t8.5 -22q0 -16 -12 -27.5t-28 -11.5q-13 0 -21.5 9t-8.5 22zM340 479q0 16 12 27.5t27 11.5q13 0 21.5 -9t8.5 -22q0 -16 -12 -27.5t-28 -11.5q-12 0 -20.5 9t-8.5 22zM434 195q0 -90 -62.5 -146.5t-148.5 -56.5 q-71 0 -116.5 42t-45.5 113q0 90 63 148.5t150 58.5q70 0 115 -43.5t45 -115.5zM228 28q65 0 114 45t49 118q0 57 -35 92t-87 35q-65 0 -115 -47t-50 -119q0 -56 35.5 -90t88.5 -34z" />
<glyph unicode="&#xf7;" horiz-adv-x="514" d="M241 158q0 17 13.5 29.5t30.5 12.5q14 0 23.5 -10t9.5 -24q0 -17 -13 -29t-30 -12q-14 0 -24 9.5t-10 23.5zM280 432q0 17 13.5 29.5t30.5 12.5q14 0 23.5 -10t9.5 -24q0 -17 -13 -29t-31 -12q-14 0 -23.5 9.5t-9.5 23.5zM108 277l5 38h377l-5 -38h-377z" />
<glyph unicode="&#xf8;" horiz-adv-x="447" d="M434 195q0 -90 -62.5 -146.5t-148.5 -56.5q-72 0 -117 42l-46 -41l-17 20l46 40q-28 39 -28 94q0 90 63 148.5t150 58.5q67 0 111 -41l48 44l18 -20l-49 -43q32 -42 32 -99zM228 28q65 0 114 45t49 118q0 43 -21 75l-231 -204q34 -34 89 -34zM104 152q0 -40 19 -70 l231 203q-35 33 -85 33q-65 0 -115 -47t-50 -119z" />
<glyph unicode="&#xf9;" horiz-adv-x="449" d="M360 135l29 211h43l-48 -346h-29v61h-2q-3 -5 -7 -10t-17 -16.5t-28 -20t-40 -15.5t-53 -7q-72 0 -104.5 43.5t-22.5 116.5l27 194h44l-27 -189q-8 -58 15.5 -93t80.5 -35q59 0 96 35t43 71zM288 419l-59 148l1 10h56l31 -148l-2 -10h-27z" />
<glyph unicode="&#xfa;" horiz-adv-x="449" d="M360 135l29 211h43l-48 -346h-29v61h-2q-3 -5 -7 -10t-17 -16.5t-28 -20t-40 -15.5t-53 -7q-72 0 -104.5 43.5t-22.5 116.5l27 194h44l-27 -189q-8 -58 15.5 -93t80.5 -35q59 0 96 35t43 71zM375 567l-102 -148h-26l1 10l72 148h56z" />
<glyph unicode="&#xfb;" horiz-adv-x="449" d="M360 135l29 211h43l-48 -346h-29v61h-2q-3 -5 -7 -10t-17 -16.5t-28 -20t-40 -15.5t-53 -7q-72 0 -104.5 43.5t-22.5 116.5l27 194h44l-27 -189q-8 -58 15.5 -93t80.5 -35q59 0 96 35t43 71zM391 419l-96 117l-129 -117h-27l1 10l135 148h51l93 -148l-1 -10h-27z" />
<glyph unicode="&#xfc;" horiz-adv-x="449" d="M360 135l29 211h43l-48 -346h-29v61h-2q-3 -5 -7 -10t-17 -16.5t-28 -20t-40 -15.5t-53 -7q-72 0 -104.5 43.5t-22.5 116.5l27 194h44l-27 -189q-8 -58 15.5 -93t80.5 -35q59 0 96 35t43 71zM166 479q0 16 12 27.5t28 11.5q13 0 21.5 -9t8.5 -22q0 -16 -12 -27.5 t-28 -11.5q-13 0 -21.5 9t-8.5 22zM343 479q0 16 12 27.5t27 11.5q13 0 21.5 -9t8.5 -22q0 -16 -12 -27.5t-28 -11.5q-12 0 -20.5 9t-8.5 22z" />
<glyph unicode="&#xfd;" horiz-adv-x="403" d="M436 346l-335 -538h-46l129 205l-117 333h48l92 -273q3 -10 3 -22h3q2 10 9 22l169 273h45zM360 567l-102 -148h-26l1 10l72 148h56z" />
<glyph unicode="&#xfe;" horiz-adv-x="469" d="M121 77h-2l-38 -269h-43l111 792h43l-46 -330h2q2 3 5.5 9t17 20.5t30 25.5t44.5 20t59 9q67 0 109 -43t42 -113q0 -89 -60 -147.5t-142 -58.5q-31 0 -56.5 9t-39 21t-22.5 24.5t-11 21.5zM129 153q0 -57 35 -90.5t88 -33.5q65 0 112 47t47 117q0 55 -33 89.5t-85 34.5 q-66 0 -115 -45.5t-49 -118.5z" />
<glyph unicode="&#xff;" horiz-adv-x="403" d="M436 346l-335 -538h-46l129 205l-117 333h48l92 -273q3 -10 3 -22h3q2 10 9 22l169 273h45zM147 479q0 16 12 27.5t28 11.5q13 0 21.5 -9t8.5 -22q0 -16 -12 -27.5t-28 -11.5q-13 0 -21.5 9t-8.5 22zM324 479q0 16 12 27.5t27 11.5q13 0 21.5 -9t8.5 -22q0 -16 -12 -27.5 t-28 -11.5q-12 0 -20.5 9t-8.5 22z" />
<glyph unicode="&#x152;" horiz-adv-x="1085" d="M349 -14q-123 0 -194.5 76t-71.5 194q0 150 100.5 253.5t253.5 103.5q89 0 152 -41t91 -113l20 141h427l-5 -41h-384l-34 -242h338l-6 -41h-338l-33 -235h384l-6 -41h-427l18 127q-48 -66 -122 -103.5t-163 -37.5zM355 28q134 0 218 91t84 217q0 102 -59.5 168.5 t-166.5 66.5q-133 0 -218 -91.5t-85 -217.5q0 -101 60 -167.5t167 -66.5z" />
<glyph unicode="&#x153;" horiz-adv-x="743" d="M678 61l11 -31q-51 -38 -134 -38q-57 0 -98 24.5t-58 68.5q-28 -44 -76 -68.5t-103 -24.5q-71 0 -116.5 42t-45.5 113q0 90 63 148.5t150 58.5q52 0 91 -24.5t57 -68.5q27 44 72 68.5t99 24.5q76 0 111 -42.5t35 -114.5l-3 -27h-302v-18q0 -58 36.5 -91t92.5 -33 q32 0 61.5 8t42.5 16zM225 28q65 0 114 45t49 118q0 57 -35 92t-87 35q-65 0 -115 -47t-50 -119q0 -56 35.5 -90t88.5 -34zM584 318q-51 0 -91.5 -30.5t-55.5 -83.5h258q3 50 -26 82t-85 32z" />
<glyph unicode="&#x178;" horiz-adv-x="535" d="M238 701q0 16 12 27.5t28 11.5q13 0 21.5 -9t8.5 -22q0 -16 -12 -27.5t-28 -11.5q-13 0 -21.5 9t-8.5 22zM415 701q0 16 12 27.5t27 11.5q13 0 21.5 -9t8.5 -22q0 -16 -12 -27.5t-28 -11.5q-12 0 -20.5 9t-8.5 22zM330 302l229 298h51l-288 -369l-32 -231h-45l32 231 l-183 369h52l146 -298l11 -29h7z" />
<glyph unicode="&#x2c6;" horiz-adv-x="329" d="M340 419l-96 117l-129 -117h-27l1 10l135 148h51l93 -148l-1 -10h-27z" />
<glyph unicode="&#x2dc;" horiz-adv-x="430" d="M339 449q-28 0 -66 25.5t-56 25.5q-33 0 -49 -39l-5 -14l-31 6l7 19q22 64 79 64q27 0 65 -26t58 -26q33 0 49 39l6 14l29 -5l-6 -19q-20 -64 -80 -64z" />
<glyph unicode="&#x2000;" horiz-adv-x="398" />
<glyph unicode="&#x2001;" horiz-adv-x="796" />
<glyph unicode="&#x2002;" horiz-adv-x="398" />
<glyph unicode="&#x2003;" horiz-adv-x="796" />
<glyph unicode="&#x2004;" horiz-adv-x="265" />
<glyph unicode="&#x2005;" horiz-adv-x="199" />
<glyph unicode="&#x2006;" horiz-adv-x="132" />
<glyph unicode="&#x2007;" horiz-adv-x="132" />
<glyph unicode="&#x2008;" horiz-adv-x="99" />
<glyph unicode="&#x2009;" horiz-adv-x="159" />
<glyph unicode="&#x200a;" horiz-adv-x="44" />
<glyph unicode="&#x2010;" horiz-adv-x="401" d="M98 278l5 38h283l-5 -38h-283z" />
<glyph unicode="&#x2011;" horiz-adv-x="401" d="M98 278l5 38h283l-5 -38h-283z" />
<glyph unicode="&#x2012;" horiz-adv-x="401" d="M98 278l5 38h283l-5 -38h-283z" />
<glyph unicode="&#x2013;" horiz-adv-x="457" d="M97 269l5 38h339l-5 -38h-339z" />
<glyph unicode="&#x2014;" horiz-adv-x="733" d="M97 269l5 38h615l-5 -38h-615z" />
<glyph unicode="&#x2018;" horiz-adv-x="180" d="M198 562q0 -18 -12 -29.5t-29 -11.5q-14 0 -23.5 9t-9.5 24v5q4 21 17 40l55 80h35l-48 -69l-14 -15v-2q29 -2 29 -31z" />
<glyph unicode="&#x2019;" horiz-adv-x="181" d="M153 614q0 18 12 29.5t29 11.5q14 0 23.5 -9t9.5 -24v-5q-4 -21 -17 -40l-55 -80h-35l48 69l14 15v2q-29 2 -29 31z" />
<glyph unicode="&#x201a;" horiz-adv-x="119" d="M27 23q0 18 12 29.5t29 11.5q14 0 23.5 -9t9.5 -24v-5q-4 -21 -17 -40l-55 -80h-35l48 69l14 15v2q-29 2 -29 31z" />
<glyph unicode="&#x201c;" horiz-adv-x="345" d="M198 562q0 -18 -12 -29.5t-29 -11.5q-14 0 -23.5 9t-9.5 24v5q4 21 17 40l55 80h35l-48 -69l-14 -15v-2q29 -2 29 -31zM362 562q0 -18 -12 -29.5t-29 -11.5q-14 0 -23.5 9t-9.5 24v5q4 21 17 40l55 80h35l-48 -69l-14 -15v-2q29 -2 29 -31z" />
<glyph unicode="&#x201d;" horiz-adv-x="340" d="M151 614q0 18 12 29.5t29 11.5q14 0 23.5 -9t9.5 -24v-5q-4 -21 -17 -40l-55 -80h-35l48 69l14 15v2q-29 2 -29 31zM310 614q0 18 12 29.5t29 11.5q14 0 23.5 -9t9.5 -24v-5q-4 -21 -17 -40l-55 -80h-35l48 69l14 15v2q-29 2 -29 31z" />
<glyph unicode="&#x201e;" horiz-adv-x="346" d="M27 23q0 18 12 29.5t29 11.5q14 0 23.5 -9t9.5 -24v-5q-4 -21 -17 -40l-55 -80h-35l48 69l14 15v2q-29 2 -29 31zM254 23q0 18 12 29.5t29 11.5q14 0 23.5 -9t9.5 -24v-5q-4 -21 -17 -40l-55 -80h-35l48 69l14 15v2q-29 2 -29 31z" />
<glyph unicode="&#x2022;" horiz-adv-x="291" d="M108 166q0 27 21.5 48t49.5 21q22 0 37.5 -16t15.5 -39q0 -27 -21.5 -47.5t-48.5 -20.5q-24 0 -39 15.5t-15 38.5z" />
<glyph unicode="&#x2026;" horiz-adv-x="389" d="M28 25q0 18 13 30.5t31 12.5q15 0 24.5 -10t9.5 -24q0 -18 -13.5 -30.5t-31.5 -12.5q-15 0 -24 9.5t-9 24.5zM160 25q0 18 13 30.5t31 12.5q15 0 24.5 -9.5t9.5 -23.5q0 -18 -13 -31t-32 -13q-14 0 -23.5 10t-9.5 24zM293 25q0 18 13 30.5t31 12.5q15 0 24.5 -10t9.5 -24 q0 -18 -13.5 -30.5t-31.5 -12.5q-15 0 -24 9.5t-9 24.5z" />
<glyph unicode="&#x202f;" horiz-adv-x="159" />
<glyph unicode="&#x2039;" horiz-adv-x="238" d="M68 163l2 17l128 156h40l-1 -7l-126 -155l-1 -3l83 -157l-1 -7h-40z" />
<glyph unicode="&#x203a;" horiz-adv-x="238" d="M217 180l-2 -17l-128 -156h-39l1 7l127 157v3l-83 155l1 7h39z" />
<glyph unicode="&#x205f;" horiz-adv-x="199" />
<glyph unicode="&#x20ac;" d="M457 247l-5 -37h-246q8 -79 54.5 -126t131.5 -47q42 0 79.5 15t54.5 30l16 15l23 -31l-7.5 -7.5t-22 -17t-36.5 -22t-50 -17t-64 -7.5q-105 0 -162 59.5t-65 155.5h-83l5 37h78q0 29 4 53q3 24 9 50h-76l5 37h82q34 98 108.5 158.5t180.5 60.5q33 0 61.5 -7t46 -17.5 t30.5 -21t18 -17.5l5 -7l-33 -33q-2 2 -5 6.5t-14.5 14.5t-25.5 18t-37.5 14.5t-50.5 6.5q-85 0 -145.5 -48t-90.5 -128h247l-5 -37h-254q-7 -23 -10 -50q-4 -24 -4 -53h253z" />
<glyph unicode="&#x2122;" horiz-adv-x="742" d="M430 281h-35l44 319h15l121 -132q24 19 83 68.5t76 63.5h14l-44 -319h-35l36 256l-129 -106h-13l-97 105zM371 600l-4 -31h-107l-40 -288h-35l40 288h-107l4 31h249z" />
<glyph unicode="&#x25fc;" horiz-adv-x="345" d="M0 345h345v-345h-345v345z" />
<glyph unicode="&#xfb01;" horiz-adv-x="513" d="M492 497q-12 0 -20 7.5t-8 19.5q0 15 11 25.5t26 10.5q12 0 20 -8t8 -20q0 -15 -11 -25t-26 -10zM401 0l49 346h43l-49 -346h-43zM332 310h-145l-43 -310h-43l43 310h-86l5 36h86l23 159q22 161 160 161q11 0 22 -2t18.5 -4t13.5 -4.5t9 -4.5l3 -2l-19 -37q-23 14 -49 14 q-50 0 -78 -29t-37 -92l-23 -159h145z" />
<glyph unicode="&#xfb02;" horiz-adv-x="503" d="M391 0l94 668h43l-94 -668h-43zM332 310h-145l-43 -310h-43l43 310h-86l5 36h86l23 159q22 161 160 161q11 0 22 -2t18.5 -4t13.5 -4.5t9 -4.5l3 -2l-19 -37q-23 14 -49 14q-50 0 -78 -29t-37 -92l-23 -159h145z" />
<glyph unicode="&#xfb03;" horiz-adv-x="853" d="M832 497q-12 0 -20 7.5t-8 19.5q0 15 11 25.5t26 10.5q12 0 20 -8t8 -20q0 -15 -11 -25t-26 -10zM741 0l49 346h43l-49 -346h-43zM332 310h-145l-43 -310h-43l43 310h-86l5 36h86l23 159q22 161 160 161q11 0 22 -2t18.5 -4t13.5 -4.5t9 -4.5l3 -2l-19 -37q-23 14 -49 14 q-50 0 -78 -29t-37 -92l-23 -159h145zM672 310h-145l-43 -310h-43l43 310h-86l5 36h86l23 159q22 161 160 161q11 0 22 -2t18.5 -4t13.5 -4.5t9 -4.5l3 -2l-19 -37q-23 14 -49 14q-50 0 -78 -29t-37 -92l-23 -159h145z" />
<glyph unicode="&#xfb04;" horiz-adv-x="841" d="M729 0l94 668h43l-94 -668h-43zM332 310h-145l-43 -310h-43l43 310h-86l5 36h86l23 159q22 161 160 161q11 0 22 -2t18.5 -4t13.5 -4.5t9 -4.5l3 -2l-19 -37q-23 14 -49 14q-50 0 -78 -29t-37 -92l-23 -159h145zM672 310h-145l-43 -310h-43l43 310h-86l5 36h86l23 159 q22 161 160 161q11 0 22 -2t18.5 -4t13.5 -4.5t9 -4.5l3 -2l-19 -37q-23 14 -49 14q-50 0 -78 -29t-37 -92l-23 -159h145z" />
</font>
</defs>
</svg>
