<?xml version="1.0" standalone="no"?>
<!DOCTYPE svg PUBLIC "-//W3C//DTD SVG 1.1//EN" "http://www.w3.org/Graphics/SVG/1.1/DTD/svg11.dtd" >
<svg xmlns="http://www.w3.org/2000/svg" xmlns:xlink="http://www.w3.org/1999/xlink" version="1.1">
<metadata></metadata>
<defs>
<font id="mucho_sanslight_italic" horiz-adv-x="1165" >
<font-face units-per-em="2048" ascent="1536" descent="-512" />
<missing-glyph horiz-adv-x="512" />
<glyph unicode="&#xfb01;" horiz-adv-x="1163" d="M-31 -236q75 3 140 64t86 160l196 934h-151l18 82h152l18 92q22 104 88 178t146.5 106.5t166.5 32.5q60 0 142 -16l-15 -76q-81 12 -102 12q-56 0 -107 -13t-98 -40t-81.5 -75.5t-47.5 -112.5l-18 -88h618l-188 -891q0 -52 57 -52q26 0 86 21v-82q-54 -20 -104 -20 q-58 0 -94.5 32.5t-36.5 98.5l170 811h-527l-198 -942q-10 -46 -34.5 -94t-63 -94t-96 -76.5t-122.5 -32.5v81zM1075 1327q0 34 26.5 60t61.5 26q25 0 42.5 -15.5t17.5 -41.5q0 -31 -28.5 -58.5t-61.5 -27.5q-26 0 -42 16.5t-16 40.5z" />
<glyph unicode="&#xfb02;" horiz-adv-x="1118" d="M-31 -236q76 3 141.5 64t84.5 160l196 934h-151l18 82h152l20 100q17 79 59 140t98.5 97t118 54t123.5 18q88 0 113 -8l-14 -74q-6 0 -31.5 1t-44.5 1q-55 0 -106 -12.5t-97.5 -39t-80 -73t-46.5 -108.5l-20 -96h301l-19 -82h-301l-198 -942q-10 -46 -34.5 -94t-63 -94 t-96 -76.5t-122.5 -32.5v81zM805 111l270 1282h92l-270 -1280q0 -52 57 -52q26 0 86 21v-82q-54 -20 -104 -20q-58 0 -94.5 32.5t-36.5 98.5z" />
<glyph unicode="&#xfb03;" horiz-adv-x="1781" d="M-31 -236q75 3 140 64t86 160l196 934h-151l18 82h152l20 100q17 79 59 140t98.5 97t118 54t123.5 18q88 0 113 -8l-14 -74q-7 0 -31 1t-45 1q-55 0 -106 -12.5t-97.5 -39t-80 -73t-46.5 -108.5l-20 -96h526l21 100q14 63 45 116t71 88t88.5 59t96.5 35t96 11 q94 0 149 -14l-16 -78q-35 12 -104 12q-55 0 -106.5 -12.5t-99 -39t-81.5 -73t-47 -108.5l-21 -96h619l-189 -891q0 -52 58 -52q26 0 86 21v-82q-54 -20 -105 -20q-58 0 -94.5 32.5t-36.5 98.5l170 811h-526l-199 -942q-10 -46 -34.5 -94t-62.5 -94t-95.5 -76.5 t-122.5 -32.5v81q75 3 139.5 64t85.5 160l197 934h-527l-198 -942q-10 -46 -34.5 -94t-63 -94t-96 -76.5t-122.5 -32.5v81zM1696 1325q0 35 25 61.5t61 26.5q26 0 42.5 -15.5t16.5 -41.5q0 -32 -28 -59t-62 -27q-27 0 -41 15.5t-14 39.5z" />
<glyph unicode="&#xfb04;" horiz-adv-x="1773" d="M-31 -236q75 3 140 64t86 160l194 934h-149l18 82h150l18 94q15 79 58 140.5t100.5 97t119.5 53.5t125 18q88 0 111 -8l-16 -76q-16 4 -74 4q-55 0 -105.5 -12.5t-97 -39t-80.5 -73t-47 -108.5l-18 -90h526l19 94q15 78 58 140t100.5 97.5t119 53.5t121.5 18 q73 0 141 -10l-14 -76q-41 6 -100 6q-56 0 -107 -12.5t-98.5 -38.5t-81.5 -72.5t-47 -109.5l-19 -90h301l-18 -82h-301l-199 -942q-10 -46 -34.5 -94t-62.5 -94t-95.5 -76.5t-122.5 -32.5v81q76 3 141 64t84 160l197 934h-527l-198 -942q-10 -46 -34.5 -94t-63 -94 t-96 -76.5t-122.5 -32.5v81zM1460 111l271 1282h92l-271 -1280q0 -52 58 -52q26 0 86 21v-82q-54 -20 -105 -20q-58 0 -94.5 32.5t-36.5 98.5z" />
<glyph horiz-adv-x="0" />
<glyph horiz-adv-x="682" />
<glyph unicode=" "  horiz-adv-x="512" />
<glyph unicode="&#x09;" horiz-adv-x="512" />
<glyph unicode="&#xa0;" horiz-adv-x="512" />
<glyph unicode="!" horiz-adv-x="579" d="M152 35q0 33 28 58.5t64 25.5q26 0 43.5 -17.5t17.5 -42.5q0 -34 -29.5 -56.5t-62.5 -22.5q-28 0 -44.5 15t-16.5 40zM244 356l221 1037h102l-221 -1037h-102z" />
<glyph unicode="&#x22;" horiz-adv-x="647" d="M240 1059l71 334h76l-72 -334h-75zM514 1059l72 334h76l-72 -334h-76z" />
<glyph unicode="#" horiz-adv-x="1286" d="M123 412l18 82h201q21 63 63.5 197t71.5 222h-196l18 82h203l125 398h102l-127 -398h412l129 398h102l-131 -398h199l-19 -82h-202q-8 -25 -136 -419h201l-18 -82h-207l-131 -412h-103l131 412h-411l-129 -412h-103l129 412h-192zM442 494h412q66 212 135 419h-407z" />
<glyph unicode="$" horiz-adv-x="1097" d="M55 76l64 80q144 -101 323 -101l138 639q-84 33 -137.5 60t-99.5 62.5t-67.5 78t-21.5 96.5q0 96 40 175.5t107.5 132t152.5 83.5t179 37l25 115h92l-25 -115q63 -3 121.5 -17.5t86.5 -26.5t71 -34l-57 -86q-99 74 -240 82l-123 -583q56 -22 94 -40t83 -47t72 -59.5 t45.5 -74t18.5 -95.5q0 -115 -70 -215.5t-178 -161.5t-231 -79l-26 -132h-93l27 123q-236 2 -371 103zM358 1012q0 -42 18 -76.5t54.5 -62t74.5 -46.5t93 -41l117 549q-64 -7 -126 -31t-114.5 -63.5t-84.5 -99t-32 -129.5zM537 63q66 13 128 44t113 76t82 106.5t31 130.5 q0 68 -49.5 124.5t-177.5 114.5z" />
<glyph unicode="%" horiz-adv-x="1601" d="M260 0l1137 1395h90l-1137 -1395h-90zM272 915q0 78 27.5 164.5t75 161t120.5 123.5t156 49q100 0 157.5 -80t57.5 -205q0 -74 -24.5 -157.5t-70 -160t-121 -127t-165.5 -50.5q-98 0 -155.5 79t-57.5 203zM358 918q0 -97 39.5 -158.5t102.5 -61.5q75 0 142.5 73 t104.5 173t37 189q0 95 -39.5 155t-105.5 60q-71 0 -138.5 -77t-105 -176t-37.5 -177zM872 262q0 78 27.5 164.5t75 161t120.5 123.5t156 49q100 0 158.5 -80t58.5 -205q0 -74 -25 -157.5t-70.5 -160t-121.5 -127t-166 -50.5q-98 0 -155.5 79t-57.5 203zM958 264 q0 -97 39.5 -158t102.5 -61q75 0 142.5 72.5t104.5 172.5t37 189q0 95 -39.5 155t-105.5 60q-71 0 -138.5 -77t-105 -176t-37.5 -177z" />
<glyph unicode="&#x26;" horiz-adv-x="1439" d="M168 287q0 179 120 298t312 154q-123 10 -182.5 70.5t-59.5 161.5q0 119 66.5 221.5t177.5 161.5t236 59q176 0 271 -59t95 -160q0 -23 -6 -47h-92q4 20 4 31q0 71 -73.5 112t-207.5 41q-147 0 -256.5 -98t-109.5 -248q0 -99 67.5 -155t169.5 -56h539l-18 -82h-123 l-105 -495q0 -60 77 -99t202 -39l-19 -79q-252 0 -329 114q-124 -114 -394 -114q-72 0 -136 18.5t-115 55t-81 97t-30 136.5zM270 297q0 -62 24.5 -109.5t66.5 -74t89.5 -39.5t100.5 -13q143 0 240.5 43.5t111.5 110.5l103 477h-328q-109 0 -201.5 -48.5t-149.5 -140 t-57 -206.5z" />
<glyph unicode="'" horiz-adv-x="372" d="M240 1059l71 334h76l-72 -334h-75z" />
<glyph unicode="(" horiz-adv-x="776" d="M190 389q0 351 188.5 676.5t504.5 527.5l51 -88q-136 -93 -250.5 -211t-202 -257t-137 -300.5t-49.5 -326.5q0 -191 67.5 -353t190.5 -278l-72 -76q-144 115 -217.5 295t-73.5 391z" />
<glyph unicode=")" horiz-adv-x="784" d="M-25 -221q135 93 251 213.5t205.5 261t140.5 304t51 327.5q0 379 -254 620l71 88q136 -115 212.5 -295t76.5 -383q0 -354 -185.5 -679.5t-500.5 -532.5z" />
<glyph unicode="*" horiz-adv-x="772" d="M225 1104l236 74l-101 188l62 41l98 -193l180 191l45 -41l-178 -193l207 -69l-35 -62l-209 68l-49 -227h-65l49 229l-229 -68z" />
<glyph unicode="+" horiz-adv-x="1411" d="M160 551l16 82h551l119 555h92l-119 -555h555l-16 -82h-555l-117 -551h-92l117 551h-551z" />
<glyph unicode="," horiz-adv-x="516" d="M131 -180q111 98 119 145q0 4 -4 4q-34 0 -51 19t-17 49q0 43 29.5 74.5t75.5 31.5q33 0 52 -17.5t19 -47.5q0 -68 -57 -138.5t-131 -119.5h-35z" />
<glyph unicode="-" horiz-adv-x="849" d="M141 551l17 82h678l-17 -82h-678z" />
<glyph unicode="." horiz-adv-x="518" d="M176 41q0 41 32.5 71.5t76.5 30.5q37 0 55 -18t18 -47q0 -40 -32.5 -71.5t-75.5 -31.5q-36 0 -55 19t-19 47z" />
<glyph unicode="/" horiz-adv-x="827" d="M-57 -170l979 1563h92l-979 -1563h-92z" />
<glyph unicode="0" horiz-adv-x="1431" d="M203 500q0 172 60.5 339t160.5 293t236 203.5t278 77.5q132 0 232 -70t152 -189.5t52 -270.5q0 -118 -34.5 -244.5t-101 -243.5t-154.5 -210t-205.5 -149t-243.5 -56q-199 0 -315.5 145.5t-116.5 374.5zM305 516q0 -201 97.5 -328t250.5 -127q104 0 202.5 52t172.5 137 t130 190t85 216t29 210q0 203 -97 334t-251 131q-129 0 -248 -81.5t-198 -204t-126 -264t-47 -265.5z" />
<glyph unicode="1" horiz-adv-x="845" d="M33 0l16 82h270l256 1204l-313 -188l-37 65l373 230h92l-278 -1311h274l-16 -82h-637z" />
<glyph unicode="2" horiz-adv-x="1040" d="M55 0l25 121q11 52 48 107t89.5 105.5t118 103.5t134.5 105t137.5 105t129.5 109t107.5 112t74 118.5t27.5 123.5q0 99 -56.5 160t-172.5 61q-136 0 -220 -76t-116 -196h-102q36 152 161 253t295 101q148 0 231 -84t83 -213q0 -96 -40.5 -182t-107.5 -154t-149.5 -132 t-171.5 -127.5t-168 -127.5t-143.5 -144.5t-94.5 -166.5h676l-16 -82h-779z" />
<glyph unicode="3" horiz-adv-x="1056" d="M125 260q0 41 8 74h103q-7 -31 -7 -53q0 -94 64.5 -157t165.5 -63q63 0 133 34.5t126 89.5t93 129t37 147q0 110 -78 171.5t-190 61.5h-101l17 82h96q138 0 244 102.5t106 243.5q0 98 -66.5 153.5t-166.5 55.5q-116 0 -216.5 -81t-123.5 -191h-103q33 149 162.5 251.5 t296.5 102.5q139 0 229 -75.5t90 -202.5q0 -144 -92 -251t-241 -143q104 -21 170.5 -93.5t66.5 -182.5q0 -129 -67 -240.5t-184.5 -178t-256.5 -66.5q-146 0 -230.5 78.5t-84.5 201.5z" />
<glyph unicode="4" horiz-adv-x="1077" d="M80 362l18 82l848 951h103l-201 -951h176l-18 -82h-177l-75 -362h-90l75 362h-659zM203 444h553l170 807q-114 -131 -346.5 -384.5t-376.5 -422.5z" />
<glyph unicode="5" horiz-adv-x="1071" d="M129 260q0 41 8 74h103q-7 -31 -7 -53q0 -94 64.5 -157t165.5 -63q86 0 163.5 43t130 111.5t83 154.5t30.5 173q0 131 -76 205.5t-169 74.5q-94 0 -180 -37t-130 -92h-102l258 699h606l-16 -82h-526l-193 -508q135 102 301 102q65 0 124 -21t106.5 -61t75.5 -105.5 t28 -148.5q0 -87 -25 -173t-72.5 -160.5t-111.5 -132t-148 -90.5t-176 -33q-146 0 -230.5 78.5t-84.5 201.5z" />
<glyph unicode="6" horiz-adv-x="1157" d="M172 420q0 113 31 272q32 150 88.5 278t134.5 228.5t184.5 157.5t227.5 57q230 0 327 -143l-82 -62q-85 123 -266 123q-72 0 -137 -30t-115.5 -84t-91.5 -116t-73.5 -139t-53.5 -139t-39 -129q73 105 185 163t237 58q90 0 156.5 -28t104 -77.5t55.5 -108.5t18 -128 q0 -108 -37.5 -213t-105.5 -190t-174 -137.5t-232 -52.5q-78 0 -138.5 24.5t-98 65t-62 98.5t-34 119.5t-9.5 132.5zM281 426q0 -72 13 -133.5t41.5 -115.5t82 -85t127.5 -31q114 0 211.5 79t149.5 191.5t52 223.5q0 125 -68.5 202t-187.5 77q-99 0 -223.5 -67.5 t-177.5 -152.5q-20 -92 -20 -188z" />
<glyph unicode="7" horiz-adv-x="894" d="M113 0l825 1311h-688l16 82h791l-17 -82l-825 -1311h-102z" />
<glyph unicode="8" horiz-adv-x="1103" d="M123 276q0 154 110.5 272t274.5 175q-81 37 -136 110.5t-55 167.5q0 110 67 206t173.5 151t222.5 55q129 0 220.5 -69.5t91.5 -192.5q0 -254 -347 -397q41 -15 79.5 -40.5t75.5 -64t60 -94t23 -119.5q0 -92 -43 -177t-113 -146t-162.5 -97t-189.5 -36q-165 0 -258.5 85.5 t-93.5 210.5zM227 295q0 -103 76 -168.5t191 -65.5q149 0 267 100t118 249q0 51 -21.5 95t-50 73t-73.5 55.5t-76.5 40t-73.5 28.5q-70 -33 -125.5 -67.5t-112 -84.5t-88 -115.5t-31.5 -139.5zM422 1026q0 -55 25.5 -102t66 -78t75.5 -49t68 -29q330 153 330 377 q0 95 -64 140.5t-159 45.5q-82 0 -160 -38t-130 -109.5t-52 -157.5z" />
<glyph unicode="9" horiz-adv-x="1155" d="M137 123l84 61q83 -123 266 -123q72 0 137 30t115.5 84t91.5 116t73.5 139t53.5 139t39 129q-75 -105 -186 -163t-236 -58q-90 0 -156.5 28t-104.5 77.5t-56 109t-18 129.5q0 86 23.5 171t70.5 160.5t111.5 134t153 92.5t189.5 34q96 0 165.5 -36.5t106.5 -101 t53.5 -138.5t16.5 -164q0 -136 -30 -273q-31 -150 -87.5 -278t-135 -228t-184.5 -157t-228 -57q-228 0 -328 143zM346 842q0 -127 68.5 -205t187.5 -78q99 0 222.5 67t176.5 152q21 100 21 193q0 71 -13 132t-41.5 114t-81.5 83.5t-126 30.5q-86 0 -164.5 -44t-132.5 -114.5 t-85.5 -157.5t-31.5 -173z" />
<glyph unicode=":" horiz-adv-x="522" d="M143 45q0 43 32.5 72.5t78.5 29.5q35 0 53.5 -19t18.5 -48q0 -41 -32.5 -70.5t-76.5 -29.5q-37 0 -55.5 18t-18.5 47zM281 686q0 41 32.5 69.5t75.5 28.5q35 0 53.5 -18t18.5 -45q0 -40 -32 -70t-75 -30q-35 0 -54 18.5t-19 46.5z" />
<glyph unicode=";" horiz-adv-x="520" d="M98 -180q111 98 119 145q0 4 -4 4q-32 0 -52 20.5t-20 51.5q0 41 32.5 71.5t76.5 30.5q31 0 50 -20.5t19 -48.5q0 -69 -55.5 -136.5t-130.5 -117.5h-35zM279 686q0 41 32.5 69.5t75.5 28.5q33 0 51.5 -18t18.5 -45q0 -40 -31 -70t-74 -30q-35 0 -54 18.5t-19 46.5z" />
<glyph unicode="&#x3c;" horiz-adv-x="989" d="M162 543l20 102l871 479l-21 -102l-772 -434l590 -422l-23 -103z" />
<glyph unicode="=" horiz-adv-x="1280" d="M117 332l16 82h1063l-16 -82h-1063zM209 764l16 82h1063l-16 -82h-1063z" />
<glyph unicode="&#x3e;" horiz-adv-x="987" d="M59 63l23 103l770 422l-588 434l21 102l665 -479l-20 -102z" />
<glyph unicode="?" horiz-adv-x="825" d="M207 35q0 33 28 58.5t64 25.5q26 0 41.5 -17.5t15.5 -42.5q0 -35 -28 -57t-60 -22q-28 0 -44.5 15t-16.5 40zM223 1255q94 92 170.5 125t175.5 33q137 0 221 -70.5t84 -195.5q0 -76 -21.5 -137t-57 -103t-79 -77.5t-90 -69t-87.5 -68t-73.5 -83.5t-45.5 -107l-33 -146 h-92l33 146q15 67 48 123.5t73 96t85.5 75.5t87 70t75.5 70.5t54.5 86t20.5 109.5q0 54 -20.5 94.5t-54.5 62t-69 31.5t-71 10q-50 0 -101.5 -23t-82 -46t-90.5 -74z" />
<glyph unicode="@" horiz-adv-x="1785" d="M158 346q0 126 44 255.5t124.5 242.5t186 202.5t238 141t269.5 51.5q156 0 257 -92t101 -256q0 -55 -12 -117l-147 -696h-82l30 201q-50 -72 -166.5 -135.5t-216.5 -63.5q-125 0 -196.5 76.5t-71.5 181.5q0 29 6 59q12 58 37 110t76.5 105.5t123 92.5t183 64t250.5 26h88 q6 41 6 73q0 136 -76.5 212.5t-195.5 76.5q-146 0 -285.5 -68t-241 -178t-163.5 -255.5t-62 -293.5q0 -232 153.5 -386t389.5 -154q171 0 345 88t302.5 241.5t165.5 329.5h102q-42 -202 -182.5 -373t-339 -269.5t-407.5 -98.5q-278 0 -455.5 171t-177.5 435zM631 360 q0 -68 43.5 -123t128.5 -55q36 0 76.5 9t94.5 30.5t113 67.5t109 112l61 287q-81 0 -141.5 -3.5t-132 -13t-124 -29.5t-100.5 -51t-79.5 -80t-44.5 -114q-4 -24 -4 -37z" />
<glyph unicode="A" d="M-45 0l801 1393h92l213 -1393h-92l-70 477h-580l-272 -477h-92zM373 559h516l-115 690z" />
<glyph unicode="B" horiz-adv-x="1183" d="M137 0l295 1393h381q160 0 248 -73t88 -192q0 -126 -64 -211.5t-184 -158.5q4 -4 27.5 -15t49.5 -28.5t53.5 -44t45 -72.5t17.5 -104q0 -213 -143.5 -353.5t-364.5 -140.5h-449zM246 82h356q92 0 181 52t147.5 143.5t58.5 195.5q0 59 -22 105.5t-58.5 73.5t-80 41 t-91.5 14h-358zM395 788h359q74 0 142 50.5t107 123.5t39 142q0 37 -9.5 69.5t-31.5 65.5t-68.5 52.5t-111.5 19.5h-313z" />
<glyph unicode="C" horiz-adv-x="1318" d="M164 514q0 127 37.5 256t109.5 244t168 204.5t221.5 142t260.5 52.5q142 0 251 -64.5t174 -191.5l-81 -63q-50 113 -143 175t-218 62q-114 0 -221 -50t-188 -134t-142 -188t-93 -216.5t-32 -216.5q0 -207 111.5 -336t294.5 -129q230 0 440 248l76 -73 q-233 -256 -528 -256q-223 0 -360.5 148t-137.5 386z" />
<glyph unicode="D" horiz-adv-x="1298" d="M137 0l295 1393h311q259 0 399 -130t140 -368q0 -143 -36.5 -276t-108.5 -245t-171.5 -196t-232.5 -131t-284 -47h-312zM246 82h219q163 0 299 65.5t226.5 176.5t140 257.5t49.5 309.5q0 212 -121 316t-332 104h-219z" />
<glyph unicode="E" horiz-adv-x="1067" d="M137 0l295 1393h725l-16 -82h-633l-111 -512h578l-17 -82h-577l-135 -637h633l-17 -80h-725z" />
<glyph unicode="F" horiz-adv-x="997" d="M137 0l295 1393h676l-16 -82h-584l-113 -523h531l-17 -81h-530l-150 -707h-92z" />
<glyph unicode="G" horiz-adv-x="1355" d="M164 522q0 133 38 263.5t110.5 243t169.5 199t223 136t262 49.5q147 0 260 -64.5t178 -191.5l-84 -59q-50 106 -149.5 169.5t-223.5 63.5q-96 0 -188 -35.5t-165.5 -96t-136 -141t-104 -169.5t-65 -182t-23.5 -179q0 -218 116.5 -342.5t297.5 -124.5q91 0 228.5 33 t236.5 86l98 441h-405l16 81h498l-123 -575q-108 -67 -276 -107t-294 -40q-216 0 -355.5 150.5t-139.5 391.5z" />
<glyph unicode="H" horiz-adv-x="1353" d="M137 0l295 1393h92l-127 -594h758l127 594h88l-295 -1393h-88l152 717h-758l-152 -717h-92z" />
<glyph unicode="I" horiz-adv-x="516" d="M137 0l295 1393h92l-295 -1393h-92z" />
<glyph unicode="J" horiz-adv-x="1099" d="M86 272q0 50 12 105h92q-8 -39 -8 -101q0 -75 35.5 -124.5t91 -70t129.5 -20.5q131 0 242 83.5t143 234.5l199 932h-498l17 82h589l-210 -996q-43 -204 -169 -310.5t-327 -106.5q-147 0 -242.5 78t-95.5 214z" />
<glyph unicode="K" horiz-adv-x="1179" d="M137 0l295 1393h92l-127 -586l783 586h151l-835 -625q357 -495 542 -768h-108l-541 758l-160 -758h-92z" />
<glyph unicode="L" horiz-adv-x="1064" d="M137 0l295 1393h92l-278 -1315h700l-16 -78h-793z" />
<glyph unicode="M" horiz-adv-x="1769" d="M96 0l439 1393h112l195 -1239l706 1239h127l-151 -1393h-92l135 1249l-715 -1249h-84l-186 1249l-394 -1249h-92z" />
<glyph unicode="N" horiz-adv-x="1357" d="M137 0l295 1393h107l469 -1250l266 1250h92l-295 -1393h-106l-473 1249l-265 -1249h-90z" />
<glyph unicode="O" horiz-adv-x="1456" d="M164 524q0 132 38 262t109.5 242t167.5 199t220 136.5t259 49.5q143 0 253.5 -71t169.5 -194t59 -278q0 -117 -35.5 -241.5t-105.5 -240t-163 -207t-219.5 -146.5t-263.5 -55q-225 0 -357 152.5t-132 391.5zM266 526q0 -207 111.5 -336t294.5 -129q85 0 170.5 34.5 t157.5 93.5t135.5 138.5t107.5 167.5t69 183.5t25 183.5q0 207 -109 338t-286 131q-114 0 -220.5 -50t-187.5 -133t-142.5 -187t-93.5 -217t-32 -218z" />
<glyph unicode="P" horiz-adv-x="1101" d="M137 0l295 1393h402q160 0 248.5 -88t88.5 -215q0 -188 -143 -318.5t-354 -130.5h-309l-136 -641h-92zM383 723h309q94 0 179 43.5t140.5 127.5t55.5 187q0 94 -64 162t-186 68h-309z" />
<glyph unicode="Q" horiz-adv-x="1456" d="M164 524q0 132 38 262t109.5 242t167.5 199t220 136.5t259 49.5q143 0 253.5 -71t169.5 -194t59 -278q0 -130 -46.5 -269t-127.5 -261t-202 -215t-259 -127q169 -47 438 -74l-18 -61q-293 7 -588 117q-214 6 -343.5 159t-129.5 385zM266 526q0 -207 111.5 -336 t294.5 -129q105 0 207 48.5t183 130.5t144 184.5t97 217t34 220.5q0 207 -109 338t-286 131q-114 0 -220.5 -50t-187.5 -133t-142.5 -187t-93.5 -217t-32 -218z" />
<glyph unicode="R" horiz-adv-x="1130" d="M137 0l295 1393h356q165 0 252.5 -84t87.5 -217q0 -148 -87.5 -254t-233.5 -148l168 -690h-103l-159 672q-54 -4 -80 -4h-262l-142 -668h-92zM387 750h264q94 0 177.5 36.5t139.5 113.5t56 181q0 96 -61 163t-191 67h-264z" />
<glyph unicode="S" horiz-adv-x="1085" d="M53 82l64 82q150 -103 329 -103q63 0 126 15t120 45t101 71.5t70 99.5t26 124q0 75 -65 130.5t-230 125.5q-170 72 -259 147t-89 164q0 121 71 220.5t192 154.5t265 55q77 0 144.5 -14.5t99 -28t78.5 -37.5l-58 -86q-109 84 -280 84q-67 0 -137 -21.5t-132 -60.5 t-101.5 -103t-39.5 -140q0 -54 35.5 -98.5t92.5 -76t126 -61t137.5 -61.5t125.5 -69t92.5 -92.5t35.5 -123.5q0 -82 -30 -153t-83 -124t-124 -91t-154.5 -57t-173.5 -19q-131 0 -226.5 31t-148.5 71z" />
<glyph unicode="T" horiz-adv-x="1024" d="M225 1311l17 82h975l-17 -82h-440l-279 -1311h-92l279 1311h-443z" />
<glyph unicode="U" horiz-adv-x="1409" d="M221 385q0 101 27 227l166 781h92l-166 -781q-23 -112 -23 -200q0 -71 14 -128.5t34.5 -94t51.5 -63t58 -40t61 -21t53.5 -9t41.5 -1.5q25 0 48.5 2t72 13.5t91 31.5t96 61.5t96.5 98.5t83 147.5t64 202.5l166 781h92l-166 -781q-133 -632 -660 -632q-191 0 -292 109 t-101 296z" />
<glyph unicode="V" horiz-adv-x="1167" d="M250 1393h102l185 -1246l708 1246h115l-801 -1393h-98z" />
<glyph unicode="W" horiz-adv-x="1781" d="M332 1393h104l68 -1246l543 1246h124l17 -1246l590 1246h114l-678 -1393h-116l-17 1245l-544 -1245h-117z" />
<glyph unicode="X" horiz-adv-x="1290" d="M35 0l629 696l-334 697h116l287 -613l537 613h131l-623 -711l328 -682h-117l-282 596l-541 -596h-131z" />
<glyph unicode="Y" horiz-adv-x="1120" d="M250 1393h112l283 -590l537 590h131l-637 -691l-148 -702h-92l148 702z" />
<glyph unicode="Z" horiz-adv-x="1193" d="M35 0l16 82l1108 1229h-846l17 82h975l-17 -82l-1108 -1229h846l-16 -82h-975z" />
<glyph unicode="[" horiz-adv-x="677" d="M80 -289l403 1907h377l-18 -92h-275l-366 -1723h274l-18 -92h-377z" />
<glyph unicode="\" horiz-adv-x="888" d="M313 1393h93l315 -1563h-92z" />
<glyph unicode="]" horiz-adv-x="681" d="M-41 -291l21 92h272l366 1731h-272l21 92h374l-407 -1915h-375z" />
<glyph unicode="^" horiz-adv-x="1193" d="M143 696l609 697h53l311 -697h-90l-270 568l-500 -568h-113z" />
<glyph unicode="_" horiz-adv-x="1042" d="M-31 -170l17 78h1054l-16 -78h-1055z" />
<glyph unicode="`" horiz-adv-x="356" d="M209 1393h108l103 -181h-101z" />
<glyph unicode="a" horiz-adv-x="1001" d="M84 211q0 68 28 124t73 94.5t109 68.5t129 47t141.5 28.5t137.5 15.5t125 5q21 93 21 151q0 93 -51.5 145t-175.5 52q-68 0 -156 -29t-146 -65l-47 61q69 48 167.5 81.5t199.5 33.5q289 0 289 -276q0 -61 -19 -158l-100 -477q0 -52 57 -52q26 0 86 21v-82 q-54 -20 -104 -20q-58 0 -94.5 32.5t-36.5 98.5l12 61q-27 -29 -58.5 -56t-81.5 -61t-112.5 -54.5t-126.5 -20.5q-118 0 -192 69t-74 162zM182 219q0 -76 51 -118t136 -42q98 0 215 79.5t151 129.5q30 37 49 133l25 111q-47 -1 -90.5 -3t-109.5 -9.5t-120.5 -19.5 t-113.5 -34t-99.5 -51.5t-67 -75t-26.5 -100.5z" />
<glyph unicode="b" horiz-adv-x="1124" d="M98 0l295 1393h92l-114 -549q70 88 153.5 134t202.5 46q158 0 253 -118t95 -292q0 -86 -27 -176t-78.5 -171.5t-120 -146t-158 -102.5t-185.5 -38q-58 0 -105.5 16.5t-81 47.5t-53.5 57t-41 63l-45 -164h-82zM279 385q0 -149 64.5 -236.5t180.5 -87.5q115 0 222 90.5 t168 218.5t61 244q0 141 -72 234.5t-186 93.5q-71 0 -139.5 -35.5t-121.5 -94t-93.5 -130.5t-62 -149.5t-21.5 -147.5z" />
<glyph unicode="c" horiz-adv-x="999" d="M150 385q0 154 74 300.5t206.5 242.5t286.5 96q103 0 186 -46.5t129 -135.5l-71 -49q-35 72 -103.5 110.5t-155.5 38.5q-116 0 -222 -88.5t-167 -217.5t-61 -251q0 -142 74.5 -232.5t195.5 -91.5q161 0 305 162l60 -63q-168 -180 -373 -180q-162 0 -263 115.5t-101 289.5 z" />
<glyph unicode="d" horiz-adv-x="1161" d="M150 389q0 108 43.5 220.5t116.5 204.5t181.5 151t227.5 59q47 0 88 -12.5t68.5 -29.5t53 -44t39.5 -48t31 -50l119 553h92l-270 -1280q0 -52 57 -52q26 0 86 21v-82q-54 -20 -104 -20q-58 0 -94.5 32.5t-36.5 98.5l6 49q-70 -88 -153.5 -134t-202.5 -46 q-158 0 -253 117.5t-95 291.5zM250 389q0 -141 72 -234.5t186 -93.5q71 0 139.5 35.5t121.5 94t93.5 130.5t62 149.5t21.5 147.5q0 149 -65 236.5t-181 87.5q-87 0 -172 -54t-144.5 -136t-96.5 -179.5t-37 -183.5z" />
<glyph unicode="e" horiz-adv-x="1062" d="M150 385q0 120 47.5 237t124.5 205t181.5 142.5t213.5 54.5q151 0 242.5 -87.5t91.5 -207.5q0 -94 -69.5 -157.5t-178.5 -63.5l-537 2q-14 -63 -14 -123q0 -142 73 -234t191 -92q84 0 182.5 50t171.5 131l60 -64q-183 -198 -424 -198q-113 0 -196 59.5t-121.5 149.5 t-38.5 196zM291 594h530q57 0 99.5 36.5t42.5 98.5q0 95 -78.5 154t-179.5 59q-122 0 -239.5 -96.5t-174.5 -251.5z" />
<glyph unicode="f" horiz-adv-x="724" d="M-31 -236q77 3 142 66t86 170l194 922h-151l18 82h152l22 112q10 46 35.5 95.5t65 96t99 76t126.5 29.5q109 0 174 -45l-58 -78q-46 41 -118 41q-77 0 -145 -60.5t-89 -162.5l-20 -104h315l-18 -82h-316l-194 -922q-28 -129 -110 -221t-210 -96v81z" />
<glyph unicode="g" horiz-adv-x="1034" d="M27 -246q0 85 64 166.5t161 124.5q-70 46 -70 111q0 61 36.5 112t98.5 86q-92 77 -92 246q0 111 62.5 209.5t167.5 156.5t225 58q152 0 235 -90q25 79 94.5 131.5t139.5 52.5q46 0 78 -22l-51 -97q-6 2 -17 8t-22 9.5t-23 3.5q-44 0 -80.5 -28.5t-89.5 -102.5 q37 -63 37 -180q0 -86 -35 -163.5t-95 -135t-146 -91.5t-183 -34q-73 0 -151 32q-26 -25 -40.5 -40.5t-29 -43.5t-14.5 -55q0 -37 53.5 -58t181.5 -30q94 -7 165 -22.5t126.5 -43t84 -71.5t28.5 -103q0 -104 -76 -183t-197 -119t-264 -40q-100 0 -180 25t-131 82t-51 139z M135 -233q0 -87 77.5 -131t193.5 -44q65 0 135 17t131.5 47.5t101 79t39.5 104.5q0 46 -27.5 78.5t-69.5 48t-98.5 26t-107.5 14t-103.5 9.5t-80.5 15q-39 -27 -66 -49.5t-59 -56.5t-49 -74t-17 -84zM330 600q0 -103 51.5 -168t163.5 -65q127 0 229.5 103t102.5 237 q0 99 -56.5 166t-156.5 67q-131 0 -232.5 -102.5t-101.5 -237.5z" />
<glyph unicode="h" horiz-adv-x="1077" d="M96 0l295 1393h92l-135 -637q59 102 185 185t245 83q101 0 171.5 -64t70.5 -172q0 -38 -8 -71l-127 -604q0 -52 57 -52q26 0 86 21v-82q-54 -20 -104 -20q-58 0 -94.5 32.5t-36.5 98.5l120 577q11 57 11 84q0 83 -42.5 126.5t-111.5 43.5q-86 0 -186 -57t-183 -162 t-108 -225l-105 -498h-92z" />
<glyph unicode="i" horiz-adv-x="421" d="M98 111l189 893h92l-189 -891q0 -52 58 -52q26 0 86 21v-82q-54 -20 -105 -20q-58 0 -94.5 32.5t-36.5 98.5zM326 1323q0 34 28 62t64 28q25 0 42 -17t17 -42q0 -32 -28 -58t-62 -26q-28 0 -44.5 14t-16.5 39z" />
<glyph unicode="j" horiz-adv-x="501" d="M-344 -467l43 76q40 -19 86 -19q79 0 146 35t108.5 83t73.5 110t46 103.5t21 76.5l215 1006h92l-215 -1006q-19 -91 -59.5 -174t-101.5 -156t-151 -116.5t-196 -43.5q-56 0 -108 25zM438 1323q0 34 27 62t63 28q26 0 43 -16.5t17 -40.5q0 -33 -27.5 -59.5t-62.5 -26.5 q-28 0 -44 14t-16 39z" />
<glyph unicode="k" horiz-adv-x="886" d="M96 0l295 1393h92l-166 -791l539 402h141l-600 -451l396 -553h-113l-377 535l-115 -535h-92z" />
<glyph unicode="l" horiz-adv-x="409" d="M96 111l271 1282h92l-271 -1280q0 -52 58 -52q26 0 86 21v-82q-54 -20 -105 -20q-58 0 -94.5 32.5t-36.5 98.5z" />
<glyph unicode="m" horiz-adv-x="1714" d="M117 0l213 1004h82l-41 -248q58 103 176 185.5t231 82.5q97 0 162.5 -62.5t65.5 -158.5q0 -21 -2 -33q62 102 180 178t235 76q96 0 169 -65.5t73 -167.5q0 -28 -6 -58q-133 -610 -133 -620q0 -52 57 -52q26 0 86 21v-82q-54 -20 -104 -20q-58 0 -94.5 32.5t-36.5 98.5 l120 577q11 57 11 82q0 83 -42 127.5t-108 44.5q-47 0 -101 -17.5t-109 -52.5t-102.5 -82t-84 -112.5t-51.5 -138.5l-113 -539h-92l145 688q10 52 10 84q0 82 -40 126t-103 44q-59 0 -129.5 -31.5t-135.5 -85.5t-117 -135.5t-71 -171.5l-108 -518h-92z" />
<glyph unicode="n" horiz-adv-x="1095" d="M117 0l213 1004h82l-43 -248q59 102 185 185t245 83q101 0 171 -64t70 -172q0 -38 -8 -71l-127 -604q0 -52 56 -52q26 0 86 21v-82q-54 -20 -105 -20q-58 0 -94.5 32.5t-36.5 98.5l123 577q8 39 8 78q0 84 -40.5 130t-110.5 46q-86 0 -185.5 -55.5t-182.5 -159 t-108 -223.5l-106 -504h-92z" />
<glyph unicode="o" horiz-adv-x="1107" d="M150 385q0 84 26 174t77 172.5t119 148t159 105t190 39.5q148 0 246 -117.5t98 -290.5q0 -88 -28 -179.5t-80.5 -172.5t-121.5 -145t-157 -101.5t-180 -37.5q-151 0 -249.5 116t-98.5 289zM252 385q0 -142 74 -233t190 -91q84 0 167.5 53t144 134t98 180t37.5 188 q0 143 -73 234.5t-188 91.5q-116 0 -222 -88.5t-167 -217.5t-61 -251z" />
<glyph unicode="p" horiz-adv-x="1161" d="M41 -471l311 1475h82l-20 -160q70 88 153.5 134t202.5 46q158 0 253 -118t95 -292q0 -86 -27 -176t-78.5 -171.5t-120 -146t-158 -102.5t-185.5 -38q-58 0 -105.5 16.5t-81 47.5t-53.5 57t-41 63l-135 -635h-92zM322 385q0 -149 64.5 -236.5t180.5 -87.5q115 0 222 90.5 t168 218.5t61 244q0 141 -72 234.5t-186 93.5q-71 0 -139.5 -35.5t-121.5 -94t-93.5 -130.5t-62 -149.5t-21.5 -147.5z" />
<glyph unicode="q" horiz-adv-x="1116" d="M150 389q0 108 43.5 220.5t116.5 204.5t181.5 151t227.5 59q47 0 88 -12.5t68.5 -29.5t53 -44t39.5 -48t31 -50l45 164h82l-313 -1475h-92l133 631q-70 -88 -153.5 -134t-202.5 -46q-158 0 -253 117.5t-95 291.5zM250 389q0 -141 72 -234.5t186 -93.5q71 0 139.5 35.5 t121.5 94t93.5 130.5t62 149.5t21.5 147.5q0 149 -65 236.5t-181 87.5q-87 0 -172 -54t-144.5 -136t-96.5 -179.5t-37 -183.5z" />
<glyph unicode="r" horiz-adv-x="768" d="M117 0l213 1004h82l-45 -256q12 31 50 76.5t92 90.5t126.5 77t140.5 32q75 0 117 -33l-55 -86q-56 29 -95 29q-89 0 -182.5 -66.5t-161.5 -169.5t-90 -209l-100 -489h-92z" />
<glyph unicode="s" horiz-adv-x="765" d="M49 88l68 55q30 -39 81.5 -61.5t114.5 -22.5q48 0 99.5 15.5t96.5 43.5t74 73.5t29 99.5q0 39 -25 71t-65 54.5t-88.5 43.5t-97 44t-88.5 50t-65 67t-25 90q0 101 54.5 173.5t140.5 106t192 33.5q167 0 256 -106l-66 -58q-67 82 -209 82q-61 0 -120 -23.5t-101.5 -73 t-42.5 -114.5q0 -39 25 -71.5t65 -56t88.5 -45t96.5 -45.5t88 -52t65 -69t25 -91q0 -78 -36 -140.5t-96 -101t-133.5 -59t-152.5 -20.5q-159 0 -248 108z" />
<glyph unicode="t" horiz-adv-x="710" d="M190 922l19 82h151l52 245h92l-51 -245h321l-18 -82h-322l-133 -625q-10 -45 -10 -92q0 -66 32.5 -105t100.5 -39q30 0 55 7t40.5 15t43.5 26l39 -78q-84 -51 -203 -51q-103 0 -151.5 63.5t-48.5 161.5q0 38 10 90l133 627h-152z" />
<glyph unicode="u" horiz-adv-x="1089" d="M152 215q0 39 8 72l153 717h93l-148 -689q-8 -39 -8 -77q0 -84 40.5 -130.5t110.5 -46.5q86 0 185.5 56t182.5 159.5t108 223.5l108 504h92l-186 -891q0 -52 57 -52q26 0 86 21v-82q-54 -20 -104 -20q-58 0 -94.5 32.5t-36.5 98.5l24 137q-59 -102 -185 -185t-245 -83 q-101 0 -171 63.5t-70 171.5z" />
<glyph unicode="v" horiz-adv-x="983" d="M219 1004h98l140 -889l510 889h116l-589 -1004h-115z" />
<glyph unicode="w" horiz-adv-x="1327" d="M229 1004h99l49 -889l391 889h115l4 -885l422 885h108l-485 -1004h-131l-8 838l-371 -838h-131z" />
<glyph unicode="x" horiz-adv-x="946" d="M14 0l455 500l-242 504h103l207 -431l383 431h116l-458 -504l245 -500h-102l-209 422l-381 -422h-117z" />
<glyph unicode="y" horiz-adv-x="976" d="M-66 -475l43 76q28 -11 66 -11q57 0 107.5 31t85.5 90l155 269l-153 1024h102l129 -889l524 889h109l-768 -1280q-67 -111 -145 -163.5t-156 -52.5q-49 0 -99 17z" />
<glyph unicode="z" horiz-adv-x="876" d="M35 0l16 78l754 844h-576l19 82h698l-18 -82l-754 -844h576l-17 -78h-698z" />
<glyph unicode="{" horiz-adv-x="593" d="M240 -133q0 54 18 149q9 38 32 115.5t36.5 141.5t13.5 122q0 149 -100 254q47 36 89.5 79.5t87 117t60.5 151.5q10 46 23.5 126.5t22.5 131t30.5 119t48.5 115.5t75.5 95t113.5 81l-21 -102q-46 -38 -77.5 -87t-50.5 -112t-29 -113.5t-22.5 -130t-21.5 -123.5 q-26 -118 -72.5 -193.5t-138.5 -154.5q41 -53 60.5 -102.5t19.5 -110.5q0 -65 -14 -134.5t-41 -164t-37 -139.5q-10 -55 -10 -100q0 -98 45 -162l-23 -103q-118 79 -118 234z" />
<glyph unicode="|" horiz-adv-x="518" d="M100 -221l353 1661h92l-352 -1661h-93z" />
<glyph unicode="}" horiz-adv-x="600" d="M-57 -367l22 103q111 96 146 262q7 34 22 128t33 179q26 118 73 193.5t138 150.5q-80 109 -80 219q0 93 51 275t51 262q0 97 -45 158l21 102q121 -79 121 -233q0 -87 -49.5 -258t-49.5 -265q0 -147 99 -260q-75 -53 -144 -141.5t-94 -202.5q-9 -43 -24 -139.5t-27 -149.5 q-28 -135 -85.5 -227.5t-178.5 -155.5z" />
<glyph unicode="~" horiz-adv-x="1296" d="M135 432q35 160 132 242t225 82q57 0 106 -18t80.5 -45t65 -59t60.5 -59t65 -45t81 -18q45 0 81 13.5t59.5 34t44 54.5t33 64.5t26.5 75.5h92q-35 -162 -131.5 -243t-222.5 -81q-51 0 -92 13.5t-68.5 35t-52 47.5t-48 52t-49.5 47.5t-63.5 35t-83.5 13.5 q-195 0 -248 -242h-92z" />
<glyph unicode="&#xa1;" horiz-adv-x="587" d="M49 -389l221 1036h103l-221 -1036h-103zM311 944q0 34 30 57t62 23q28 0 45 -15t17 -40q0 -33 -28 -58.5t-64 -25.5q-26 0 -44 17t-18 42z" />
<glyph unicode="&#xa2;" horiz-adv-x="1021" d="M147 369q0 156 65 298t185.5 238.5t268.5 114.5l43 194h92l-41 -192q185 -12 274 -180l-71 -49q-33 69 -99 109t-153 40q-99 0 -188 -51t-149 -131.5t-95 -179.5t-35 -197q0 -143 75.5 -232.5t204.5 -89.5q161 0 303 160l62 -61q-152 -165 -352 -178l-39 -189h-92l40 191 q-137 20 -218 123.5t-81 261.5z" />
<glyph unicode="&#xa3;" horiz-adv-x="1073" d="M55 0l17 84q40 4 63.5 11t40 22t24.5 29t23 47l111 526h-127l18 82h127l41 190q18 84 54.5 156.5t93 133.5t140.5 96.5t185 35.5q139 0 283 -78l-59 -84q-21 19 -97 49.5t-143 30.5q-82 0 -146.5 -30.5t-105 -83t-64.5 -107.5t-38 -119l-41 -190h368l-18 -82h-369 q-114 -541 -114 -559q-4 -16 -8.5 -26t-19.5 -25t-40 -27h606l-16 -82h-789z" />
<glyph unicode="&#xa4;" horiz-adv-x="1312" d="M55 231l142 113q-64 106 -64 231q0 116 55.5 227.5t149.5 205.5l-94 112l82 66l92 -113q177 133 383 133q200 0 327 -133l142 113l53 -66l-143 -112q65 -111 65 -236q0 -114 -56.5 -224t-150.5 -204l97 -113l-82 -65l-95 113q-184 -134 -383 -134q-97 0 -182.5 34.5 t-144.5 99.5l-139 -113zM236 588q0 -153 96.5 -257t257.5 -104q104 0 206 47.5t177.5 124t122.5 177.5t47 202q0 153 -100 249.5t-263 96.5q-100 0 -200 -46.5t-175 -121t-122 -173t-47 -195.5z" />
<glyph unicode="&#xa5;" horiz-adv-x="1241" d="M311 1393h119l283 -592l534 592h125l-555 -592h199l-19 -82h-256l-22 -109h256l-19 -82h-256l-110 -528h-92l110 528h-254l19 82h254l22 109h-254l19 82h194z" />
<glyph unicode="&#xa6;" horiz-adv-x="520" d="M100 -225l160 751h92l-159 -751h-93zM291 670l164 772h92l-164 -772h-92z" />
<glyph unicode="&#xa7;" horiz-adv-x="964" d="M137 29l53 75q105 -43 191 -43q117 0 198.5 47t96.5 119q4 20 4 27q0 53 -51.5 89.5t-125.5 58.5t-148 44.5t-125.5 62t-51.5 97.5q0 159 262 260q-137 63 -137 172q0 72 44 130t112.5 92.5t143.5 52.5t145 18q120 0 219 -45l-52 -78q-78 41 -186 41q-42 0 -94 -12 t-104 -34t-87.5 -62t-35.5 -88q0 -45 38 -78t94.5 -50t122.5 -37t122.5 -39t94.5 -56t38 -88q0 -47 -23.5 -89.5t-67 -77t-82 -58t-90.5 -48.5q129 -70 129 -166q0 -10 -4 -30q-26 -117 -144.5 -186.5t-275.5 -69.5q-133 0 -223 49zM287 643q0 -121 293 -174q229 81 229 207 q0 30 -14.5 54t-38 40.5t-62.5 30.5t-77.5 23.5t-94.5 19.5q-8 -4 -42 -19t-53 -24t-49.5 -28t-47 -36t-30 -42t-13.5 -52z" />
<glyph unicode="&#xa8;" horiz-adv-x="575" d="M188 1335q0 35 25 56.5t55 21.5q24 0 39 -14.5t15 -36.5q0 -31 -24 -55.5t-56 -24.5q-24 0 -39 15t-15 38zM537 1335q0 35 24.5 56.5t54.5 21.5q24 0 39 -14.5t15 -36.5q0 -31 -24 -55.5t-56 -24.5q-24 0 -38.5 14.5t-14.5 38.5z" />
<glyph unicode="&#xa9;" horiz-adv-x="1689" d="M168 551q0 168 75.5 327.5t199 276t289 187.5t337.5 71q263 0 431.5 -162t168.5 -407q0 -135 -49 -265.5t-136 -237.5t-200 -189t-248 -127t-272 -45q-174 0 -310.5 74.5t-211 204.5t-74.5 292zM270 555q0 -218 139.5 -356t370.5 -138q150 0 294.5 63.5t252.5 169 t174 250t66 298.5q0 218 -140.5 353.5t-375.5 135.5q-150 0 -293 -63t-250 -167.5t-172.5 -248.5t-65.5 -297zM555 592q0 83 32.5 169.5t88 157.5t138.5 116.5t175 45.5q161 0 230 -129l-60 -51q-21 50 -70.5 80.5t-115.5 30.5q-70 0 -133.5 -39.5t-105 -100t-65.5 -130.5 t-24 -132q0 -106 50 -172.5t139 -66.5q67 0 129 30t104 82l41 -53q-123 -129 -285 -129q-119 0 -193.5 80.5t-74.5 210.5z" />
<glyph unicode="&#xaa;" horiz-adv-x="763" d="M104 457l13 65h547l-13 -65h-547zM186 825q0 55 25.5 99.5t71 73t97.5 49.5t116 32t115 16t104 7q14 65 14 104q0 140 -149 140q-60 0 -106 -15t-103 -45l-21 64q51 24 118.5 42.5t123.5 18.5q209 0 209 -207q0 -51 -13 -108q-15 -77 -46.5 -226t-41.5 -200h-71l14 100 q-60 -44 -132.5 -80.5t-127.5 -36.5q-91 0 -144 51.5t-53 120.5zM260 834q0 -52 40 -83.5t95 -31.5q67 0 141.5 46.5t110.5 82.5q9 9 14.5 18t10.5 25.5t7.5 30.5t9.5 49l13 65q-442 -7 -442 -202z" />
<glyph unicode="&#xab;" horiz-adv-x="899" d="M201 588l299 385h92l-299 -395l121 -404h-82zM580 588l297 385h92l-297 -395l121 -404h-82z" />
<glyph unicode="&#xac;" horiz-adv-x="1290" d="M186 555l17 78h1057l-78 -367h-92l61 289h-965z" />
<glyph unicode="&#xad;" horiz-adv-x="808" d="M223 551l17 82h473l-17 -82h-473z" />
<glyph unicode="&#xae;" horiz-adv-x="1689" d="M168 551q0 168 75.5 327.5t199 276t289 187.5t337.5 71q263 0 431.5 -162t168.5 -407q0 -135 -49 -265.5t-136 -237.5t-200 -189t-248 -127t-272 -45q-174 0 -310.5 74.5t-211 204.5t-74.5 292zM270 555q0 -218 139.5 -356t370.5 -138q150 0 294.5 63.5t252.5 169 t174 250t66 298.5q0 218 -140.5 353.5t-375.5 135.5q-150 0 -293 -63t-250 -167.5t-172.5 -248.5t-65.5 -297zM600 311l160 754h233q94 0 141.5 -43.5t47.5 -108.5q0 -81 -59.5 -141.5t-145.5 -69.5l127 -391h-92l-115 383h-133l-82 -383h-82zM776 756h127q51 0 93 13t73 48 t31 88q0 45 -36 72t-108 27h-127z" />
<glyph unicode="&#xaf;" horiz-adv-x="538" d="M178 1331l15 62h438l-15 -62h-438z" />
<glyph unicode="&#xb0;" horiz-adv-x="583" d="M233 1182q0 88 68 162.5t160 74.5q64 0 104.5 -43t40.5 -108q0 -88 -68.5 -163t-160.5 -75q-64 0 -104 43.5t-40 108.5zM295 1194q0 -43 26.5 -70.5t69.5 -27.5q57 0 104.5 47.5t47.5 109.5q0 44 -26.5 72.5t-70.5 28.5q-60 0 -105.5 -49t-45.5 -111z" />
<glyph unicode="&#xb1;" horiz-adv-x="1406" d="M4 -227l16 82h1199l-17 -82h-1198zM170 551l16 82h551l119 555h92l-119 -555h555l-16 -82h-555l-117 -551h-92l117 551h-551z" />
<glyph unicode="&#xb2;" horiz-adv-x="655" d="M141 723l19 90q9 42 39 82t71.5 72.5t89.5 65t94.5 65.5t84.5 67t61 76.5t23 87.5q0 58 -35 86.5t-84 28.5q-54 0 -104.5 -42.5t-67.5 -127.5h-74q21 100 92.5 166.5t167.5 66.5q86 0 132 -41.5t46 -115.5q0 -62 -23 -114t-60.5 -89.5t-84 -71t-95 -64.5t-91 -63t-75 -74 t-44.5 -90h367l-12 -61h-437z" />
<glyph unicode="&#xb3;" horiz-adv-x="677" d="M186 895q0 21 7 53h71q-6 -24 -6 -47q0 -61 37 -92t84 -31q82 0 141.5 61t59.5 144q0 61 -40 91t-100 30h-90l12 61h89q66 0 124 51t58 121q0 50 -38 79.5t-83 29.5q-55 0 -108 -43.5t-70 -128.5h-72q21 99 93.5 166t168.5 67q83 0 132 -44.5t49 -112.5t-40 -123.5 t-106 -85.5q90 -41 90 -150q0 -118 -75 -197t-207 -79q-83 0 -132 51t-49 129z" />
<glyph unicode="&#xb4;" horiz-adv-x="344" d="M168 1212l176 181h109l-185 -181h-100z" />
<glyph unicode="&#xb5;" horiz-adv-x="1089" d="M2 -471l311 1475h93l-156 -766q0 -84 40.5 -130.5t110.5 -46.5q86 0 185.5 56t182.5 159.5t108 223.5l108 504h92l-186 -891q0 -52 57 -52q26 0 86 21v-82q-54 -20 -104 -20q-58 0 -94.5 32.5t-36.5 98.5l24 137q-59 -102 -185 -185t-245 -83q-121 0 -188 79l-111 -530 h-92z" />
<glyph unicode="&#xb6;" horiz-adv-x="1173" d="M252 930q0 96 46.5 183t122.5 148t174 96.5t198 35.5h501l-340 -1604h-92l324 1522h-318l-323 -1522h-92l176 827q-184 0 -280.5 89.5t-96.5 224.5z" />
<glyph unicode="&#xb7;" horiz-adv-x="512" d="M229 571q0 39 32 71t73 32q31 0 51.5 -20.5t20.5 -51.5q0 -36 -34.5 -66t-72.5 -30q-29 0 -49.5 18.5t-20.5 46.5z" />
<glyph unicode="&#xb8;" horiz-adv-x="454" d="M-10 -408l51 37q28 -33 52 -46t65 -13q48 0 90.5 31.5t42.5 81.5q0 31 -26.5 51t-80.5 20q-32 0 -71 -8l110 256h68l-80 -186q82 0 116.5 -36.5t34.5 -86.5q0 -80 -66.5 -132.5t-154.5 -52.5q-105 0 -151 84z" />
<glyph unicode="&#xb9;" horiz-adv-x="540" d="M109 723l12 61h143l125 588l-100 -96l-47 43l172 174h71l-149 -709h143l-12 -61h-358z" />
<glyph unicode="&#xba;" horiz-adv-x="851" d="M123 459l12 61h592l-12 -61h-592zM217 936q0 115 50.5 223.5t146.5 181t213 72.5q108 0 176.5 -82.5t68.5 -208.5q0 -60 -18 -124.5t-53.5 -126.5t-83.5 -111t-114 -79t-138 -30q-112 0 -180 80t-68 205zM289 946q0 -102 53 -167.5t135 -65.5q67 0 128.5 38t103 97 t66 130t24.5 138q0 102 -51.5 169t-133.5 67q-89 0 -166 -65.5t-118 -158t-41 -182.5z" />
<glyph unicode="&#xbb;" horiz-adv-x="901" d="M51 174l305 424l-127 375h82l138 -385l-306 -414h-92zM430 174l305 424l-129 375h82l139 -385l-305 -414h-92z" />
<glyph unicode="&#xbc;" horiz-adv-x="1452" d="M182 623l13 61h143l125 588l-101 -96l-47 43l172 174h72l-149 -709h143l-12 -61h-359zM256 0l1135 1395h92l-1135 -1395h-92zM782 197l15 61l444 510h84l-106 -510h94l-15 -61h-94l-41 -197h-71l41 197h-351zM877 258h268l82 391z" />
<glyph unicode="&#xbd;" horiz-adv-x="1452" d="M182 623l13 61h143l125 588l-101 -96l-47 43l172 174h72l-149 -709h143l-12 -61h-359zM256 0l1135 1395h92l-1135 -1395h-92zM864 0l19 90q9 42 39 82t71.5 72.5t89.5 65t94.5 65.5t84.5 67t61 76.5t23 87.5q0 58 -35 86.5t-84 28.5q-54 0 -104.5 -42.5t-67.5 -127.5h-74 q21 100 92.5 166.5t167.5 66.5q86 0 132 -41.5t46 -115.5q0 -62 -23 -114t-60.5 -89.5t-84 -71t-95 -64.5t-91 -63t-75 -74t-44.5 -90h367l-13 -61h-436z" />
<glyph unicode="&#xbe;" horiz-adv-x="1490" d="M242 801q0 26 6 53h71q-6 -24 -6 -47q0 -61 37 -92t84 -31q82 0 141.5 61t59.5 144q0 61 -39.5 91t-99.5 30h-90l12 61h88q66 0 124 51t58 121q0 50 -38 79.5t-83 29.5q-55 0 -108 -43.5t-70 -128.5h-72q21 99 94 166t169 67q83 0 131.5 -45t48.5 -113q0 -67 -40 -122.5 t-106 -85.5q91 -41 91 -150q0 -118 -75.5 -197t-207.5 -79q-83 0 -131.5 50.5t-48.5 129.5zM285 0l1134 1395h92l-1134 -1395h-92zM811 197l14 61l445 510h84l-107 -510h94l-14 -61h-94l-41 -197h-72l41 197h-350zM905 258h269l81 391z" />
<glyph unicode="&#xbf;" horiz-adv-x="825" d="M-14 -143q0 76 21.5 137t57 103t79 77.5t90 69t87.5 68t73.5 83.5t45.5 107l33 145h92l-33 -145q-15 -67 -48 -123.5t-73 -96t-85.5 -75.5t-87 -70t-75.5 -70.5t-54.5 -86t-20.5 -109.5q0 -54 20.5 -94.5t54.5 -62.5t69 -32t71 -10q38 0 73 10t73 35t60.5 42.5t68.5 56.5 l59 -68q-94 -92 -170.5 -125t-175.5 -33q-136 0 -220.5 71t-84.5 196zM504 944q0 35 28 57.5t60 22.5q28 0 44.5 -15t16.5 -40q0 -33 -28 -58.5t-64 -25.5q-26 0 -41.5 17t-15.5 42z" />
<glyph unicode="&#xc0;" d="M-45 0l801 1393h92l213 -1393h-92l-70 477h-580l-272 -477h-92zM373 559h516l-115 690zM686 1753h109l102 -178h-100z" />
<glyph unicode="&#xc1;" d="M-45 0l801 1393h92l213 -1393h-92l-70 477h-580l-272 -477h-92zM373 559h516l-115 690zM795 1573l176 180h108l-184 -180h-100z" />
<glyph unicode="&#xc2;" d="M-45 0l801 1393h92l213 -1393h-92l-70 477h-580l-272 -477h-92zM373 559h516l-115 690zM649 1575l176 178h105l104 -178h-82l-88 111l-133 -111h-82z" />
<glyph unicode="&#xc3;" d="M-45 0l801 1393h92l213 -1393h-92l-70 477h-580l-272 -477h-92zM373 559h516l-115 690zM555 1620q60 152 203 152q41 0 72.5 -17t48.5 -37.5t43.5 -37.5t58.5 -17q92 0 125 90h72q-54 -144 -209 -151q-47 2 -83 19.5t-53 37t-40 35.5t-48 16q-85 0 -118 -90h-72z" />
<glyph unicode="&#xc4;" d="M-45 0l801 1393h92l213 -1393h-92l-70 477h-580l-272 -477h-92zM373 559h516l-115 690zM627 1683q0 35 25 56.5t55 21.5q24 0 38.5 -14.5t14.5 -36.5q0 -31 -24 -55.5t-56 -24.5q-24 0 -38.5 14.5t-14.5 38.5zM975 1683q0 35 25 56.5t55 21.5q24 0 38.5 -14.5t14.5 -36.5 q0 -31 -24 -55.5t-56 -24.5q-24 0 -38.5 14.5t-14.5 38.5z" />
<glyph unicode="&#xc5;" d="M-45 0l801 1393h92l213 -1393h-92l-70 477h-580l-272 -477h-92zM373 559h516l-115 690zM694 1579q0 68 56.5 125t132.5 57q56 0 90.5 -34.5t34.5 -86.5q0 -68 -57 -124t-132 -56q-55 0 -90 34t-35 85zM768 1587q0 -29 17 -47t46 -18q38 0 71.5 33t33.5 75q0 30 -18.5 50 t-47.5 20q-40 0 -71 -34t-31 -79z" />
<glyph unicode="&#xc6;" horiz-adv-x="1699" d="M-45 0l1044 1393h791l-16 -82h-635l-111 -512h580l-17 -82h-579l-135 -635h634l-16 -82h-729l100 481h-450q-306 -414 -359 -481h-102zM485 563h402l160 748z" />
<glyph unicode="&#xc7;" horiz-adv-x="1318" d="M164 514q0 127 37.5 256t109.5 244t168 204.5t221.5 142t260.5 52.5q142 0 251 -64.5t174 -191.5l-81 -63q-50 113 -143 175t-218 62q-114 0 -221 -50t-188 -134t-142 -188t-93 -216.5t-32 -216.5q0 -207 111.5 -336t294.5 -129q230 0 440 248l76 -73 q-233 -256 -533 -256l-69 -166q82 0 116.5 -36.5t34.5 -86.5q0 -80 -66.5 -132.5t-154.5 -52.5q-105 0 -151 84l51 37q28 -33 52 -46t65 -13q48 0 90.5 31.5t42.5 81.5q0 31 -26.5 51t-80.5 20q-33 0 -72 -8l103 240q-194 23 -311 167t-117 363z" />
<glyph unicode="&#xc8;" horiz-adv-x="1067" d="M137 0l295 1393h725l-16 -82h-633l-111 -512h578l-17 -82h-577l-135 -637h633l-17 -80h-725zM674 1753h108l103 -180h-101z" />
<glyph unicode="&#xc9;" horiz-adv-x="1067" d="M137 0l295 1393h725l-16 -82h-633l-111 -512h578l-17 -82h-577l-135 -637h633l-17 -80h-725zM770 1573l176 180h109l-185 -180h-100z" />
<glyph unicode="&#xca;" horiz-adv-x="1067" d="M137 0l295 1393h725l-16 -82h-633l-111 -512h578l-17 -82h-577l-135 -637h633l-17 -80h-725zM641 1575l176 178h105l104 -178h-82l-88 111l-133 -111h-82z" />
<glyph unicode="&#xcb;" horiz-adv-x="1067" d="M137 0l295 1393h725l-16 -82h-633l-111 -512h578l-17 -82h-577l-135 -637h633l-17 -80h-725zM621 1683q0 35 24.5 56.5t54.5 21.5q24 0 39 -14.5t15 -36.5q0 -31 -24 -55.5t-56 -24.5q-24 0 -38.5 14.5t-14.5 38.5zM969 1683q0 35 25 56.5t55 21.5q24 0 38.5 -14.5 t14.5 -36.5q0 -31 -24 -55.5t-56 -24.5q-24 0 -38.5 14.5t-14.5 38.5z" />
<glyph unicode="&#xcc;" horiz-adv-x="516" d="M137 0l295 1393h92l-295 -1393h-92zM358 1753h109l102 -180h-100z" />
<glyph unicode="&#xcd;" horiz-adv-x="516" d="M137 0l295 1393h92l-295 -1393h-92zM469 1573l176 180h109l-185 -180h-100z" />
<glyph unicode="&#xce;" horiz-adv-x="516" d="M137 0l295 1393h92l-295 -1393h-92zM328 1575l176 178h104l105 -178h-82l-88 111l-133 -111h-82z" />
<glyph unicode="&#xcf;" horiz-adv-x="516" d="M137 0l295 1393h92l-295 -1393h-92zM301 1683q0 35 25 56.5t55 21.5q24 0 38.5 -14.5t14.5 -36.5q0 -31 -24 -55.5t-56 -24.5q-24 0 -38.5 14.5t-14.5 38.5zM649 1683q0 35 25 56.5t55 21.5q24 0 38.5 -14.5t14.5 -36.5q0 -31 -24 -55.5t-56 -24.5q-24 0 -38.5 14.5 t-14.5 38.5z" />
<glyph unicode="&#xd0;" horiz-adv-x="1298" d="M137 0l152 719h-101l19 82h100l125 592h311q259 0 399 -130t140 -368q0 -143 -36.5 -276t-108.5 -245t-171.5 -196t-232.5 -131t-284 -47h-312zM246 82h219q163 0 299 65.5t226.5 176.5t140 257.5t49.5 309.5q0 212 -121 316t-332 104h-219l-109 -510h342l-18 -82h-342z " />
<glyph unicode="&#xd1;" horiz-adv-x="1357" d="M137 0l295 1393h107l469 -1250l266 1250h92l-295 -1393h-106l-473 1249l-265 -1249h-90zM653 1620q60 152 203 152q41 0 72.5 -17t48.5 -37.5t43.5 -37.5t58.5 -17q92 0 125 90h72q-54 -144 -209 -151q-47 2 -82.5 19.5t-53 37t-40 35.5t-47.5 16q-86 0 -119 -90h-72z " />
<glyph unicode="&#xd2;" horiz-adv-x="1456" d="M164 524q0 132 38 262t109.5 242t167.5 199t220 136.5t259 49.5q143 0 253.5 -71t169.5 -194t59 -278q0 -117 -35.5 -241.5t-105.5 -240t-163 -207t-219.5 -146.5t-263.5 -55q-225 0 -357 152.5t-132 391.5zM266 526q0 -207 111.5 -336t294.5 -129q85 0 170.5 34.5 t157.5 93.5t135.5 138.5t107.5 167.5t69 183.5t25 183.5q0 207 -109 338t-286 131q-114 0 -220.5 -50t-187.5 -133t-142.5 -187t-93.5 -217t-32 -218zM858 1753h109l102 -180h-100z" />
<glyph unicode="&#xd3;" horiz-adv-x="1456" d="M164 524q0 132 38 262t109.5 242t167.5 199t220 136.5t259 49.5q143 0 253.5 -71t169.5 -194t59 -278q0 -117 -35.5 -241.5t-105.5 -240t-163 -207t-219.5 -146.5t-263.5 -55q-225 0 -357 152.5t-132 391.5zM266 526q0 -207 111.5 -336t294.5 -129q85 0 170.5 34.5 t157.5 93.5t135.5 138.5t107.5 167.5t69 183.5t25 183.5q0 207 -109 338t-286 131q-114 0 -220.5 -50t-187.5 -133t-142.5 -187t-93.5 -217t-32 -218zM940 1573l176 180h109l-185 -180h-100z" />
<glyph unicode="&#xd4;" horiz-adv-x="1456" d="M164 524q0 132 38 262t109.5 242t167.5 199t220 136.5t259 49.5q143 0 253.5 -71t169.5 -194t59 -278q0 -117 -35.5 -241.5t-105.5 -240t-163 -207t-219.5 -146.5t-263.5 -55q-225 0 -357 152.5t-132 391.5zM266 526q0 -207 111.5 -336t294.5 -129q85 0 170.5 34.5 t157.5 93.5t135.5 138.5t107.5 167.5t69 183.5t25 183.5q0 207 -109 338t-286 131q-114 0 -220.5 -50t-187.5 -133t-142.5 -187t-93.5 -217t-32 -218zM803 1575l176 178h104l105 -178h-82l-88 111l-133 -111h-82z" />
<glyph unicode="&#xd5;" horiz-adv-x="1456" d="M164 524q0 132 38 262t109.5 242t167.5 199t220 136.5t259 49.5q143 0 253.5 -71t169.5 -194t59 -278q0 -117 -35.5 -241.5t-105.5 -240t-163 -207t-219.5 -146.5t-263.5 -55q-225 0 -357 152.5t-132 391.5zM266 526q0 -207 111.5 -336t294.5 -129q85 0 170.5 34.5 t157.5 93.5t135.5 138.5t107.5 167.5t69 183.5t25 183.5q0 207 -109 338t-286 131q-114 0 -220.5 -50t-187.5 -133t-142.5 -187t-93.5 -217t-32 -218zM700 1620q60 152 205 152q41 0 72.5 -17t48.5 -37.5t43.5 -37.5t58.5 -17q89 0 125 90h72q-54 -144 -211 -151 q-46 2 -81.5 19.5t-52.5 37t-39.5 35.5t-47.5 16q-83 0 -121 -90h-72z" />
<glyph unicode="&#xd6;" horiz-adv-x="1456" d="M164 524q0 132 38 262t109.5 242t167.5 199t220 136.5t259 49.5q143 0 253.5 -71t169.5 -194t59 -278q0 -117 -35.5 -241.5t-105.5 -240t-163 -207t-219.5 -146.5t-263.5 -55q-225 0 -357 152.5t-132 391.5zM266 526q0 -207 111.5 -336t294.5 -129q85 0 170.5 34.5 t157.5 93.5t135.5 138.5t107.5 167.5t69 183.5t25 183.5q0 207 -109 338t-286 131q-114 0 -220.5 -50t-187.5 -133t-142.5 -187t-93.5 -217t-32 -218zM776 1683q0 35 25 56.5t55 21.5q24 0 38.5 -14.5t14.5 -36.5q0 -31 -24 -55.5t-56 -24.5q-24 0 -38.5 14.5t-14.5 38.5z M1124 1683q0 35 25 56.5t55 21.5q24 0 38.5 -14.5t14.5 -36.5q0 -31 -23.5 -55.5t-55.5 -24.5q-24 0 -39 15t-15 38z" />
<glyph unicode="&#xd7;" horiz-adv-x="1136" d="M94 211l473 395l-309 393l78 58l303 -391l481 391l47 -58l-477 -393l305 -395l-67 -59l-316 391l-469 -391z" />
<glyph unicode="&#xd8;" horiz-adv-x="1454" d="M164 524q0 132 38 262t109.5 242t167.5 199t220 136.5t259 49.5q117 0 213 -49l58 90h94l-84 -133q95 -71 148 -189t53 -262q0 -117 -36.5 -242t-107.5 -240t-164.5 -206.5t-218.5 -146.5t-260 -55q-121 0 -223 51l-72 -113h-92l96 154q-94 72 -146 190t-52 262zM266 526 q0 -243 148 -372l708 1132q-82 45 -180 45q-114 0 -220.5 -50t-187.5 -133t-142.5 -187t-93.5 -217t-32 -218zM477 109q88 -48 195 -48q105 0 207 48.5t183 130.5t144 184.5t97 217t34 220.5q0 120 -39 217.5t-110 161.5z" />
<glyph unicode="&#xd9;" horiz-adv-x="1409" d="M221 385q0 101 27 227l166 781h92l-166 -781q-23 -112 -23 -200q0 -71 14 -128.5t34.5 -94t51.5 -63t58 -40t61 -21t53.5 -9t41.5 -1.5q25 0 48.5 2t72 13.5t91 31.5t96 61.5t96.5 98.5t83 147.5t64 202.5l166 781h92l-166 -781q-133 -632 -660 -632q-191 0 -292 109 t-101 296zM791 1753h108l102 -180h-100z" />
<glyph unicode="&#xda;" horiz-adv-x="1409" d="M221 385q0 101 27 227l166 781h92l-166 -781q-23 -112 -23 -200q0 -71 14 -128.5t34.5 -94t51.5 -63t58 -40t61 -21t53.5 -9t41.5 -1.5q25 0 48.5 2t72 13.5t91 31.5t96 61.5t96.5 98.5t83 147.5t64 202.5l166 781h92l-166 -781q-133 -632 -660 -632q-191 0 -292 109 t-101 296zM907 1573l176 180h109l-184 -180h-101z" />
<glyph unicode="&#xdb;" horiz-adv-x="1409" d="M221 385q0 101 27 227l166 781h92l-166 -781q-23 -112 -23 -200q0 -71 14 -128.5t34.5 -94t51.5 -63t58 -40t61 -21t53.5 -9t41.5 -1.5q25 0 48.5 2t72 13.5t91 31.5t96 61.5t96.5 98.5t83 147.5t64 202.5l166 781h92l-166 -781q-133 -632 -660 -632q-191 0 -292 109 t-101 296zM766 1575l176 178h105l104 -178h-82l-88 111l-133 -111h-82z" />
<glyph unicode="&#xdc;" horiz-adv-x="1409" d="M221 385q0 101 27 227l166 781h92l-166 -781q-23 -112 -23 -200q0 -71 14 -128.5t34.5 -94t51.5 -63t58 -40t61 -21t53.5 -9t41.5 -1.5q25 0 48.5 2t72 13.5t91 31.5t96 61.5t96.5 98.5t83 147.5t64 202.5l166 781h92l-166 -781q-133 -632 -660 -632q-191 0 -292 109 t-101 296zM750 1683q0 35 24.5 56.5t54.5 21.5q24 0 39 -14.5t15 -36.5q0 -31 -24 -55.5t-56 -24.5q-24 0 -38.5 14.5t-14.5 38.5zM1098 1683q0 35 25 56.5t55 21.5q24 0 38.5 -14.5t14.5 -36.5q0 -31 -24 -55.5t-56 -24.5q-24 0 -38.5 14.5t-14.5 38.5z" />
<glyph unicode="&#xdd;" horiz-adv-x="1120" d="M250 1393h112l283 -590l537 590h131l-637 -691l-148 -702h-92l148 702zM754 1573l176 180h108l-184 -180h-100z" />
<glyph unicode="&#xde;" horiz-adv-x="1054" d="M137 0l295 1393h92l-69 -324h288q161 0 248.5 -85.5t87.5 -213.5q0 -119 -69.5 -223t-183.5 -164.5t-240 -60.5h-289l-68 -322h-92zM313 403h303q88 0 171.5 48.5t136.5 131.5t53 175q0 101 -67 165t-183 64h-289z" />
<glyph unicode="&#xdf;" horiz-adv-x="1060" d="M96 0l205 965q96 448 432 448q69 0 119 -20t75 -53t36.5 -67t11.5 -71q0 -54 -24.5 -106.5t-60 -94.5t-71 -82t-60 -82.5t-24.5 -82.5q0 -34 18.5 -68t46.5 -62t60 -61t60 -64t46.5 -73t18.5 -86q0 -142 -115 -251t-270 -109q-163 0 -238 118l70 52q16 -36 62 -62.5 t122 -26.5q96 0 179.5 77.5t83.5 178.5q0 49 -25.5 94.5t-62 81.5l-73 72t-62 82t-25.5 96q0 43 17.5 84t44.5 72t57.5 66.5t57.5 66.5t44.5 73.5t17.5 86.5q0 64 -38.5 101.5t-114.5 37.5q-63 0 -120 -32t-95.5 -82.5t-64.5 -106.5t-38 -111l-211 -999h-92z" />
<glyph unicode="&#xe0;" horiz-adv-x="1001" d="M84 211q0 68 28 124t73 94.5t109 68.5t129 47t141.5 28.5t137.5 15.5t125 5q21 93 21 151q0 93 -51.5 145t-175.5 52q-68 0 -156 -29t-146 -65l-47 61q69 48 167.5 81.5t199.5 33.5q289 0 289 -276q0 -61 -19 -158l-100 -477q0 -52 57 -52q26 0 86 21v-82 q-54 -20 -104 -20q-58 0 -94.5 32.5t-36.5 98.5l12 61q-27 -29 -58.5 -56t-81.5 -61t-112.5 -54.5t-126.5 -20.5q-118 0 -192 69t-74 162zM182 219q0 -76 51 -118t136 -42q98 0 215 79.5t151 129.5q30 37 49 133l25 111q-47 -1 -90.5 -3t-109.5 -9.5t-120.5 -19.5 t-113.5 -34t-99.5 -51.5t-67 -75t-26.5 -100.5zM535 1393h108l102 -181h-100z" />
<glyph unicode="&#xe1;" horiz-adv-x="1001" d="M84 211q0 68 28 124t73 94.5t109 68.5t129 47t141.5 28.5t137.5 15.5t125 5q21 93 21 151q0 93 -51.5 145t-175.5 52q-68 0 -156 -29t-146 -65l-47 61q69 48 167.5 81.5t199.5 33.5q289 0 289 -276q0 -61 -19 -158l-100 -477q0 -52 57 -52q26 0 86 21v-82 q-54 -20 -104 -20q-58 0 -94.5 32.5t-36.5 98.5l12 61q-27 -29 -58.5 -56t-81.5 -61t-112.5 -54.5t-126.5 -20.5q-118 0 -192 69t-74 162zM182 219q0 -76 51 -118t136 -42q98 0 215 79.5t151 129.5q30 37 49 133l25 111q-47 -1 -90.5 -3t-109.5 -9.5t-120.5 -19.5 t-113.5 -34t-99.5 -51.5t-67 -75t-26.5 -100.5zM633 1212l176 181h109l-185 -181h-100z" />
<glyph unicode="&#xe2;" horiz-adv-x="1001" d="M84 211q0 68 28 124t73 94.5t109 68.5t129 47t141.5 28.5t137.5 15.5t125 5q21 93 21 151q0 93 -51.5 145t-175.5 52q-68 0 -156 -29t-146 -65l-47 61q69 48 167.5 81.5t199.5 33.5q289 0 289 -276q0 -61 -19 -158l-100 -477q0 -52 57 -52q26 0 86 21v-82 q-54 -20 -104 -20q-58 0 -94.5 32.5t-36.5 98.5l12 61q-27 -29 -58.5 -56t-81.5 -61t-112.5 -54.5t-126.5 -20.5q-118 0 -192 69t-74 162zM182 219q0 -76 51 -118t136 -42q98 0 215 79.5t151 129.5q30 37 49 133l25 111q-47 -1 -90.5 -3t-109.5 -9.5t-120.5 -19.5 t-113.5 -34t-99.5 -51.5t-67 -75t-26.5 -100.5zM487 1214l177 179h104l104 -179h-81l-89 111l-133 -111h-82z" />
<glyph unicode="&#xe3;" horiz-adv-x="1085" d="M84 211q0 68 28 124t73 94.5t109 68.5t129 47t141.5 28.5t137.5 15.5t125 5q21 93 21 151q0 93 -51.5 145t-175.5 52q-68 0 -156 -29t-146 -65l-47 61q69 48 167.5 81.5t199.5 33.5q289 0 289 -276q0 -61 -19 -158l-100 -477q0 -52 57 -52q26 0 86 21v-82 q-54 -20 -104 -20q-58 0 -94.5 32.5t-36.5 98.5l12 61q-27 -29 -58.5 -56t-81.5 -61t-112.5 -54.5t-126.5 -20.5q-118 0 -192 69t-74 162zM182 219q0 -76 51 -118t136 -42q98 0 215 79.5t151 129.5q30 37 49 133l25 111q-47 -1 -90.5 -3t-109.5 -9.5t-120.5 -19.5 t-113.5 -34t-99.5 -51.5t-67 -75t-26.5 -100.5zM412 1260q60 151 204 151q41 0 72.5 -17t49 -37t44 -37t58.5 -17q89 0 125 90h71q-55 -145 -211 -152q-38 2 -68 13.5t-48 27.5t-33.5 31.5t-33 26t-38.5 10.5q-83 0 -121 -90h-71z" />
<glyph unicode="&#xe4;" horiz-adv-x="1005" d="M84 211q0 68 28 124t73 94.5t109 68.5t129 47t141.5 28.5t137.5 15.5t125 5q21 93 21 151q0 93 -51.5 145t-175.5 52q-68 0 -156 -29t-146 -65l-47 61q69 48 167.5 81.5t199.5 33.5q289 0 289 -276q0 -61 -19 -158l-100 -477q0 -52 57 -52q26 0 86 21v-82 q-54 -20 -104 -20q-58 0 -94.5 32.5t-36.5 98.5l12 61q-27 -29 -58.5 -56t-81.5 -61t-112.5 -54.5t-126.5 -20.5q-118 0 -192 69t-74 162zM182 219q0 -76 51 -118t136 -42q98 0 215 79.5t151 129.5q30 37 49 133l25 111q-47 -1 -90.5 -3t-109.5 -9.5t-120.5 -19.5 t-113.5 -34t-99.5 -51.5t-67 -75t-26.5 -100.5zM475 1335q0 35 25 56.5t55 21.5q24 0 38.5 -14.5t14.5 -36.5q0 -31 -24 -55.5t-56 -24.5q-24 0 -38.5 14.5t-14.5 38.5zM823 1335q0 35 25 56.5t55 21.5q24 0 38.5 -14.5t14.5 -36.5q0 -31 -23.5 -55.5t-55.5 -24.5 q-25 0 -39.5 15t-14.5 38z" />
<glyph unicode="&#xe5;" horiz-adv-x="1001" d="M84 211q0 68 28 124t73 94.5t109 68.5t129 47t141.5 28.5t137.5 15.5t125 5q21 93 21 151q0 93 -51.5 145t-175.5 52q-68 0 -156 -29t-146 -65l-47 61q69 48 167.5 81.5t199.5 33.5q289 0 289 -276q0 -61 -19 -158l-100 -477q0 -52 57 -52q26 0 86 21v-82 q-54 -20 -104 -20q-58 0 -94.5 32.5t-36.5 98.5l12 61q-27 -29 -58.5 -56t-81.5 -61t-112.5 -54.5t-126.5 -20.5q-118 0 -192 69t-74 162zM182 219q0 -76 51 -118t136 -42q98 0 215 79.5t151 129.5q30 37 49 133l25 111q-47 -1 -90.5 -3t-109.5 -9.5t-120.5 -19.5 t-113.5 -34t-99.5 -51.5t-67 -75t-26.5 -100.5zM545 1231q0 68 56 125t132 57q56 0 90.5 -34.5t34.5 -86.5q0 -68 -56.5 -124t-131.5 -56q-55 0 -90 34t-35 85zM618 1239q0 -29 17.5 -47t46.5 -18q38 0 71 33t33 75q0 30 -18 50t-47 20q-40 0 -71.5 -34t-31.5 -79z" />
<glyph unicode="&#xe6;" horiz-adv-x="1708" d="M86 211q0 68 28 124t73 94.5t109 68.5t129 47t141.5 28.5t137.5 15.5t125 5q21 93 21 151q0 93 -51.5 145t-175.5 52q-68 0 -155.5 -29t-145.5 -65l-48 61q69 48 167.5 81.5t199.5 33.5q141 0 215.5 -61t89.5 -162q82 103 190.5 163t225.5 60q151 0 242.5 -87.5 t91.5 -207.5q0 -94 -69.5 -157.5t-178.5 -63.5l-537 2q-14 -63 -14 -123q0 -142 73 -234t191 -92q84 0 183 50t172 131l59 -64q-183 -198 -424 -198q-123 0 -208 67.5t-122 177.5q-43 -44 -73.5 -72.5t-78 -65t-91.5 -57t-103 -35.5t-123 -15q-118 0 -192 69t-74 162z M184 219q0 -76 51 -118t136 -42q98 0 215 79.5t151 129.5q30 37 49 133l21 111q-46 -1 -90.5 -3t-109.5 -9.5t-120 -19.5t-113 -34.5t-98 -52t-66 -74.5t-26 -100zM936 594h530q57 0 99.5 36.5t42.5 98.5q0 95 -78.5 154t-179.5 59q-122 0 -239.5 -96.5t-174.5 -251.5z" />
<glyph unicode="&#xe7;" horiz-adv-x="999" d="M150 385q0 154 74 300.5t206.5 242.5t286.5 96q103 0 186 -46.5t129 -135.5l-71 -49q-35 72 -103.5 110.5t-155.5 38.5q-116 0 -222 -88.5t-167 -217.5t-61 -251q0 -142 74.5 -232.5t195.5 -91.5q161 0 305 162l60 -63q-150 -163 -336 -178l-72 -168q82 0 117 -36.5 t35 -86.5q0 -80 -66.5 -132.5t-154.5 -52.5q-106 0 -152 84l51 37q28 -33 52 -46t65 -13q48 0 90.5 31.5t42.5 81.5q0 32 -26 51.5t-80 19.5q-33 0 -72 -8l102 238q-150 10 -241.5 123t-91.5 280z" />
<glyph unicode="&#xe8;" horiz-adv-x="1062" d="M150 385q0 120 47.5 237t124.5 205t181.5 142.5t213.5 54.5q151 0 242.5 -87.5t91.5 -207.5q0 -94 -69.5 -157.5t-178.5 -63.5l-537 2q-14 -63 -14 -123q0 -142 73 -234t191 -92q84 0 182.5 50t171.5 131l60 -64q-183 -198 -424 -198q-113 0 -196 59.5t-121.5 149.5 t-38.5 196zM291 594h530q57 0 99.5 36.5t42.5 98.5q0 95 -78.5 154t-179.5 59q-122 0 -239.5 -96.5t-174.5 -251.5zM614 1393h109l102 -181h-100z" />
<glyph unicode="&#xe9;" horiz-adv-x="1062" d="M150 385q0 120 47.5 237t124.5 205t181.5 142.5t213.5 54.5q151 0 242.5 -87.5t91.5 -207.5q0 -94 -69.5 -157.5t-178.5 -63.5l-537 2q-14 -63 -14 -123q0 -142 73 -234t191 -92q84 0 182.5 50t171.5 131l60 -64q-183 -198 -424 -198q-113 0 -196 59.5t-121.5 149.5 t-38.5 196zM291 594h530q57 0 99.5 36.5t42.5 98.5q0 95 -78.5 154t-179.5 59q-122 0 -239.5 -96.5t-174.5 -251.5zM713 1212l176 181h108l-184 -181h-100z" />
<glyph unicode="&#xea;" horiz-adv-x="1062" d="M150 385q0 120 47.5 237t124.5 205t181.5 142.5t213.5 54.5q151 0 242.5 -87.5t91.5 -207.5q0 -94 -69.5 -157.5t-178.5 -63.5l-537 2q-14 -63 -14 -123q0 -142 73 -234t191 -92q84 0 182.5 50t171.5 131l60 -64q-183 -198 -424 -198q-113 0 -196 59.5t-121.5 149.5 t-38.5 196zM291 594h530q57 0 99.5 36.5t42.5 98.5q0 95 -78.5 154t-179.5 59q-122 0 -239.5 -96.5t-174.5 -251.5zM578 1214l176 179h104l105 -179h-82l-88 111l-134 -111h-81z" />
<glyph unicode="&#xeb;" horiz-adv-x="1062" d="M150 385q0 120 47.5 237t124.5 205t181.5 142.5t213.5 54.5q151 0 242.5 -87.5t91.5 -207.5q0 -94 -69.5 -157.5t-178.5 -63.5l-537 2q-14 -63 -14 -123q0 -142 73 -234t191 -92q84 0 182.5 50t171.5 131l60 -64q-183 -198 -424 -198q-113 0 -196 59.5t-121.5 149.5 t-38.5 196zM291 594h530q57 0 99.5 36.5t42.5 98.5q0 95 -78.5 154t-179.5 59q-122 0 -239.5 -96.5t-174.5 -251.5zM541 1335q0 35 25 56.5t55 21.5q24 0 38.5 -14.5t14.5 -36.5q0 -31 -24 -55.5t-56 -24.5q-24 0 -38.5 14.5t-14.5 38.5zM889 1335q0 35 25 56.5t55 21.5 q24 0 38.5 -14.5t14.5 -36.5q0 -31 -24 -55.5t-56 -24.5q-24 0 -38.5 14.5t-14.5 38.5z" />
<glyph unicode="&#xec;" horiz-adv-x="421" d="M98 111l189 893h92l-189 -891q0 -52 58 -52q26 0 86 21v-82q-54 -20 -105 -20q-58 0 -94.5 32.5t-36.5 98.5zM225 1393h109l102 -181h-100z" />
<glyph unicode="&#xed;" horiz-adv-x="421" d="M98 111l189 893h92l-189 -891q0 -52 58 -52q26 0 86 21v-82q-54 -20 -105 -20q-58 0 -94.5 32.5t-36.5 98.5zM328 1210l176 181h108l-184 -181h-100z" />
<glyph unicode="&#xee;" horiz-adv-x="421" d="M98 111l189 893h92l-189 -891q0 -52 58 -52q26 0 86 21v-82q-54 -20 -105 -20q-58 0 -94.5 32.5t-36.5 98.5zM184 1214l176 179h105l104 -179h-82l-88 111l-133 -111h-82z" />
<glyph unicode="&#xef;" horiz-adv-x="421" d="M98 111l189 893h92l-189 -891q0 -52 58 -52q26 0 86 21v-82q-54 -20 -105 -20q-58 0 -94.5 32.5t-36.5 98.5zM160 1333q0 35 25 56.5t55 21.5q24 0 38.5 -14.5t14.5 -36.5q0 -31 -24 -55.5t-56 -24.5q-24 0 -38.5 14.5t-14.5 38.5zM508 1333q0 35 25 56.5t55 21.5 q24 0 38.5 -14.5t14.5 -36.5q0 -31 -24 -55.5t-56 -24.5q-24 0 -38.5 14.5t-14.5 38.5z" />
<glyph unicode="&#xf0;" horiz-adv-x="1048" d="M115 311q0 107 35.5 211.5t98 188.5t159 136t208.5 52q88 0 167.5 -46t129.5 -122q7 32 7 92q0 87 -17 185t-55 174l-148 -127h-92l207 180q-72 96 -180 96q-72 0 -166 -53l-47 74q81 61 219 61q155 0 252 -108l100 88h99l-160 -140q90 -143 90 -372q0 -124 -27 -256 q-18 -83 -45 -163t-75 -170t-108 -157t-148 -111t-189 -44q-84 0 -147 27.5t-98.5 75t-52.5 104.5t-17 124zM219 319q0 -126 64 -192t157 -66q46 0 93 16t99.5 55t97.5 98.5t86 154t67 213.5q-20 84 -107 151.5t-174 67.5q-70 0 -132.5 -30.5t-107.5 -81t-77.5 -115.5 t-49 -134.5t-16.5 -136.5z" />
<glyph unicode="&#xf1;" horiz-adv-x="1140" d="M117 0l213 1004h82l-43 -248q59 102 185 185t245 83q101 0 171 -64t70 -172q0 -38 -8 -71l-127 -604q0 -52 56 -52q26 0 86 21v-82q-54 -20 -105 -20q-58 0 -94.5 32.5t-36.5 98.5l123 577q8 39 8 78q0 84 -40.5 130t-110.5 46q-86 0 -185.5 -55.5t-182.5 -159 t-108 -223.5l-106 -504h-92zM467 1260q60 151 205 151q41 0 72.5 -17t48.5 -37t43.5 -37t58.5 -17q89 0 125 90h72q-55 -145 -211 -152q-38 2 -68 13.5t-48 27.5t-34 31.5t-33.5 26t-38.5 10.5q-82 0 -120 -90h-72z" />
<glyph unicode="&#xf2;" horiz-adv-x="1107" d="M150 385q0 84 26 174t77 172.5t119 148t159 105t190 39.5q148 0 246 -117.5t98 -290.5q0 -88 -28 -179.5t-80.5 -172.5t-121.5 -145t-157 -101.5t-180 -37.5q-151 0 -249.5 116t-98.5 289zM252 385q0 -142 74 -233t190 -91q84 0 167.5 53t144 134t98 180t37.5 188 q0 143 -73 234.5t-188 91.5q-116 0 -222 -88.5t-167 -217.5t-61 -251zM600 1393h109l102 -181h-100z" />
<glyph unicode="&#xf3;" horiz-adv-x="1107" d="M150 385q0 84 26 174t77 172.5t119 148t159 105t190 39.5q148 0 246 -117.5t98 -290.5q0 -88 -28 -179.5t-80.5 -172.5t-121.5 -145t-157 -101.5t-180 -37.5q-151 0 -249.5 116t-98.5 289zM252 385q0 -142 74 -233t190 -91q84 0 167.5 53t144 134t98 180t37.5 188 q0 143 -73 234.5t-188 91.5q-116 0 -222 -88.5t-167 -217.5t-61 -251zM711 1210l176 181h108l-184 -181h-100z" />
<glyph unicode="&#xf4;" horiz-adv-x="1107" d="M150 385q0 84 26 174t77 172.5t119 148t159 105t190 39.5q148 0 246 -117.5t98 -290.5q0 -88 -28 -179.5t-80.5 -172.5t-121.5 -145t-157 -101.5t-180 -37.5q-151 0 -249.5 116t-98.5 289zM252 385q0 -142 74 -233t190 -91q84 0 167.5 53t144 134t98 180t37.5 188 q0 143 -73 234.5t-188 91.5q-116 0 -222 -88.5t-167 -217.5t-61 -251zM571 1212l177 179h104l104 -179h-82l-88 111l-133 -111h-82z" />
<glyph unicode="&#xf5;" horiz-adv-x="1107" d="M150 385q0 84 26 174t77 172.5t119 148t159 105t190 39.5q148 0 246 -117.5t98 -290.5q0 -88 -28 -179.5t-80.5 -172.5t-121.5 -145t-157 -101.5t-180 -37.5q-151 0 -249.5 116t-98.5 289zM252 385q0 -142 74 -233t190 -91q84 0 167.5 53t144 134t98 180t37.5 188 q0 143 -73 234.5t-188 91.5q-116 0 -222 -88.5t-167 -217.5t-61 -251zM471 1260q60 151 205 151q41 0 72.5 -17t48.5 -37t43.5 -37t58.5 -17q89 0 125 90h72q-55 -145 -211 -152q-38 2 -68 13.5t-48 27.5t-33.5 31.5t-33 26t-38.5 10.5q-83 0 -121 -90h-72z" />
<glyph unicode="&#xf6;" horiz-adv-x="1107" d="M150 385q0 84 26 174t77 172.5t119 148t159 105t190 39.5q148 0 246 -117.5t98 -290.5q0 -88 -28 -179.5t-80.5 -172.5t-121.5 -145t-157 -101.5t-180 -37.5q-151 0 -249.5 116t-98.5 289zM252 385q0 -142 74 -233t190 -91q84 0 167.5 53t144 134t98 180t37.5 188 q0 143 -73 234.5t-188 91.5q-116 0 -222 -88.5t-167 -217.5t-61 -251zM549 1335q0 35 25 56.5t55 21.5q24 0 38.5 -14.5t14.5 -36.5q0 -31 -24 -55.5t-56 -24.5q-24 0 -38.5 14.5t-14.5 38.5zM897 1335q0 35 25 56.5t55 21.5q24 0 38.5 -14.5t14.5 -36.5q0 -31 -24 -55.5 t-56 -24.5q-24 0 -38.5 14.5t-14.5 38.5z" />
<glyph unicode="&#xf7;" horiz-adv-x="1406" d="M160 551l16 82h1194l-16 -82h-1194zM584 186q0 39 36.5 70t77.5 31q30 0 51 -21t21 -51q0 -38 -33 -68t-73 -30q-35 0 -57.5 20.5t-22.5 48.5zM750 967q0 39 36.5 69.5t77.5 30.5q30 0 51 -21t21 -51q0 -38 -33.5 -68t-73.5 -30q-34 0 -56.5 20.5t-22.5 49.5z" />
<glyph unicode="&#xf8;" horiz-adv-x="1107" d="M150 385q0 84 26 174t77 172.5t119 148t159 105t190 39.5q76 0 145 -37l62 98h92l-88 -143q62 -56 97.5 -141t35.5 -185q0 -88 -28 -179.5t-80.5 -172.5t-121.5 -145t-157 -101.5t-180 -37.5q-77 0 -146 32l-67 -108h-92l94 151q-65 56 -101 141.5t-36 188.5zM252 385 q0 -156 86 -248l481 774q-60 31 -117 31q-116 0 -222 -88.5t-167 -217.5t-61 -251zM399 90q56 -29 117 -29q84 0 167.5 53t144 134t98 180t37.5 188q0 152 -82 244z" />
<glyph unicode="&#xf9;" horiz-adv-x="1089" d="M152 215q0 39 8 72l153 717h93l-148 -689q-8 -39 -8 -77q0 -84 40.5 -130.5t110.5 -46.5q86 0 185.5 56t182.5 159.5t108 223.5l108 504h92l-186 -891q0 -52 57 -52q26 0 86 21v-82q-54 -20 -104 -20q-58 0 -94.5 32.5t-36.5 98.5l24 137q-59 -102 -185 -185t-245 -83 q-101 0 -171 63.5t-70 171.5zM582 1393h108l103 -181h-101z" />
<glyph unicode="&#xfa;" horiz-adv-x="1089" d="M152 215q0 39 8 72l153 717h93l-148 -689q-8 -39 -8 -77q0 -84 40.5 -130.5t110.5 -46.5q86 0 185.5 56t182.5 159.5t108 223.5l108 504h92l-186 -891q0 -52 57 -52q26 0 86 21v-82q-54 -20 -104 -20q-58 0 -94.5 32.5t-36.5 98.5l24 137q-59 -102 -185 -185t-245 -83 q-101 0 -171 63.5t-70 171.5zM666 1212l176 181h108l-184 -181h-100z" />
<glyph unicode="&#xfb;" horiz-adv-x="1089" d="M152 215q0 39 8 72l153 717h93l-148 -689q-8 -39 -8 -77q0 -84 40.5 -130.5t110.5 -46.5q86 0 185.5 56t182.5 159.5t108 223.5l108 504h92l-186 -891q0 -52 57 -52q26 0 86 21v-82q-54 -20 -104 -20q-58 0 -94.5 32.5t-36.5 98.5l24 137q-59 -102 -185 -185t-245 -83 q-101 0 -171 63.5t-70 171.5zM537 1214l176 179h104l105 -179h-82l-88 111l-134 -111h-81z" />
<glyph unicode="&#xfc;" horiz-adv-x="1089" d="M152 215q0 39 8 72l153 717h93l-148 -689q-8 -39 -8 -77q0 -84 40.5 -130.5t110.5 -46.5q86 0 185.5 56t182.5 159.5t108 223.5l108 504h92l-186 -891q0 -52 57 -52q26 0 86 21v-82q-54 -20 -104 -20q-58 0 -94.5 32.5t-36.5 98.5l24 137q-59 -102 -185 -185t-245 -83 q-101 0 -171 63.5t-70 171.5zM518 1335q0 35 25 56.5t55 21.5q24 0 38.5 -14.5t14.5 -36.5q0 -31 -24 -55.5t-56 -24.5q-24 0 -38.5 14.5t-14.5 38.5zM866 1335q0 35 25 56.5t55 21.5q24 0 38.5 -14.5t14.5 -36.5q0 -31 -23.5 -55.5t-55.5 -24.5q-24 0 -39 15t-15 38z" />
<glyph unicode="&#xfd;" horiz-adv-x="976" d="M-66 -475l43 76q28 -11 66 -11q57 0 107.5 31t85.5 90l155 269l-153 1024h102l129 -889l524 889h109l-768 -1280q-67 -111 -145 -163.5t-156 -52.5q-49 0 -99 17zM647 1212l176 181h109l-184 -181h-101z" />
<glyph unicode="&#xfe;" horiz-adv-x="1161" d="M39 -471l395 1864h92l-118 -557q69 85 170.5 136.5t191.5 51.5q160 0 254 -107.5t94 -277.5q-1 -93 -27.5 -187t-77.5 -178.5t-119 -150.5t-157.5 -104.5t-187.5 -38.5q-95 0 -175 55.5t-108 136.5l-135 -643h-92zM322 373q0 -140 68.5 -226t184.5 -86q95 0 179.5 54 t140.5 137.5t88.5 183t32.5 191.5q0 140 -69.5 227.5t-184.5 87.5q-143 0 -264.5 -125.5t-161.5 -314.5q-14 -63 -14 -129z" />
<glyph unicode="&#xff;" horiz-adv-x="976" d="M-66 -475l43 76q28 -11 66 -11q57 0 107.5 31t85.5 90l155 269l-153 1024h102l129 -889l524 889h109l-768 -1280q-67 -111 -145 -163.5t-156 -52.5q-49 0 -99 17zM492 1335q0 35 24.5 56.5t54.5 21.5q24 0 39 -14.5t15 -36.5q0 -31 -24 -55.5t-56 -24.5q-24 0 -38.5 14.5 t-14.5 38.5zM840 1335q0 35 25 56.5t55 21.5q24 0 38.5 -14.5t14.5 -36.5q0 -31 -24 -55.5t-56 -24.5q-24 0 -38.5 14.5t-14.5 38.5z" />
<glyph unicode="&#x152;" horiz-adv-x="1701" d="M164 528q0 119 34.5 243.5t104 239t163 204.5t222 144t270.5 54q41 0 111 -20h723l-18 -84h-635l-109 -510h580l-17 -82h-579l-135 -635h634l-16 -82h-715q-55 -20 -129 -20q-219 0 -354 155.5t-135 392.5zM266 530q0 -209 111 -339t295 -130q38 0 116 19l261 1235 q-46 16 -107 16q-114 0 -221 -49.5t-188 -132t-142 -186t-93 -216t-32 -217.5z" />
<glyph unicode="&#x153;" horiz-adv-x="1853" d="M150 385q0 84 26 174t77 172.5t119 148t159 105t190 39.5q118 0 206.5 -78t121.5 -203q82 127 203.5 204t254.5 77q151 0 242.5 -87.5t91.5 -207.5q0 -94 -69.5 -157.5t-178.5 -63.5l-536 2q-15 -67 -15 -123q0 -141 73.5 -233.5t191.5 -92.5q84 0 182.5 50t171.5 131 l59 -64q-183 -198 -424 -198q-134 0 -222.5 78.5t-119.5 203.5q-80 -126 -200 -204t-256 -78q-151 0 -249.5 116t-98.5 289zM252 385q0 -142 74 -233t190 -91q84 0 167.5 53t144 134t98 180t37.5 188q0 143 -73 234.5t-188 91.5q-116 0 -222 -88.5t-167 -217.5t-61 -251z M1081 594h531q57 0 99 36.5t42 98.5q0 95 -78.5 154t-179.5 59q-122 0 -239.5 -96.5t-174.5 -251.5z" />
<glyph unicode="&#x178;" horiz-adv-x="1120" d="M250 1393h112l283 -590l537 590h131l-637 -691l-148 -702h-92l148 702zM596 1683q0 35 25 56.5t55 21.5q24 0 38.5 -14.5t14.5 -36.5q0 -31 -24 -55.5t-56 -24.5q-24 0 -38.5 14.5t-14.5 38.5zM944 1683q0 35 25 56.5t55 21.5q24 0 38.5 -14.5t14.5 -36.5 q0 -31 -24 -55.5t-56 -24.5q-24 0 -38.5 14.5t-14.5 38.5z" />
<glyph unicode="&#x2c6;" horiz-adv-x="483" d="M168 1214l176 179h105l104 -179h-82l-88 111l-133 -111h-82z" />
<glyph unicode="&#x2dc;" horiz-adv-x="694" d="M174 1260q60 151 205 151q41 0 72.5 -17t48.5 -37t43.5 -37t58.5 -17q89 0 125 90h72q-55 -145 -211 -152q-38 2 -68 13.5t-48 27.5t-33.5 31.5t-33 26t-38.5 10.5q-83 0 -121 -90h-72z" />
<glyph unicode="&#x2000;" horiz-adv-x="886" />
<glyph unicode="&#x2001;" horiz-adv-x="1772" />
<glyph unicode="&#x2002;" horiz-adv-x="886" />
<glyph unicode="&#x2003;" horiz-adv-x="1772" />
<glyph unicode="&#x2004;" horiz-adv-x="590" />
<glyph unicode="&#x2005;" horiz-adv-x="443" />
<glyph unicode="&#x2006;" horiz-adv-x="295" />
<glyph unicode="&#x2007;" horiz-adv-x="295" />
<glyph unicode="&#x2008;" horiz-adv-x="221" />
<glyph unicode="&#x2009;" horiz-adv-x="354" />
<glyph unicode="&#x200a;" horiz-adv-x="98" />
<glyph unicode="&#x2010;" horiz-adv-x="849" d="M141 551l17 82h678l-17 -82h-678z" />
<glyph unicode="&#x2011;" horiz-adv-x="849" d="M141 551l17 82h678l-17 -82h-678z" />
<glyph unicode="&#x2012;" horiz-adv-x="849" d="M141 551l17 82h678l-17 -82h-678z" />
<glyph unicode="&#x2013;" horiz-adv-x="1228" d="M141 551l17 82h1056l-16 -82h-1057z" />
<glyph unicode="&#x2014;" horiz-adv-x="2074" d="M141 551l17 82h1902l-16 -82h-1903z" />
<glyph unicode="&#x2018;" horiz-adv-x="440" d="M240 1024q54 224 149 369h66q-35 -58 -76.5 -177t-56.5 -192h-82z" />
<glyph unicode="&#x2019;" horiz-adv-x="440" d="M240 1024q38 59 77.5 175t55.5 194h82q-55 -222 -150 -369h-65z" />
<glyph unicode="&#x201a;" horiz-adv-x="438" d="M111 -266q37 55 77 172.5t56 195.5h82q-56 -222 -150 -368h-65z" />
<glyph unicode="&#x201c;" horiz-adv-x="610" d="M240 1024q54 224 149 369h66q-35 -58 -76.5 -177t-56.5 -192h-82zM410 1024q58 231 149 369h66q-35 -58 -76.5 -177t-56.5 -192h-82z" />
<glyph unicode="&#x201d;" horiz-adv-x="610" d="M240 1024q38 59 77.5 175t55.5 194h82q-55 -222 -150 -369h-65zM410 1024q36 61 77 178t56 191h82q-44 -211 -150 -369h-65z" />
<glyph unicode="&#x201e;" horiz-adv-x="608" d="M111 -262q38 55 77.5 169.5t55.5 194.5h82q-53 -214 -150 -364h-65zM281 -262q36 56 77 172.5t56 191.5h82q-43 -204 -150 -364h-65z" />
<glyph unicode="&#x2022;" horiz-adv-x="501" d="M168 567q0 64 52 115t120 51q50 0 83.5 -33t33.5 -84q0 -59 -56 -107t-118 -48q-48 0 -81.5 30.5t-33.5 75.5z" />
<glyph unicode="&#x2026;" horiz-adv-x="1171" d="M102 45q0 39 34.5 69.5t76.5 30.5q35 0 56.5 -19t21.5 -48q0 -40 -36 -69t-79 -29q-32 0 -53 18.5t-21 46.5zM492 45q0 39 34 69.5t76 30.5q35 0 56.5 -19t21.5 -48q0 -40 -36 -69t-79 -29q-32 0 -52.5 18.5t-20.5 46.5zM881 45q0 39 34 69.5t76 30.5q35 0 56.5 -19 t21.5 -48q0 -40 -36 -69t-79 -29q-32 0 -52.5 18.5t-20.5 46.5z" />
<glyph unicode="&#x202f;" horiz-adv-x="354" />
<glyph unicode="&#x2039;" horiz-adv-x="522" d="M201 588l299 385h92l-299 -395l121 -404h-82z" />
<glyph unicode="&#x203a;" horiz-adv-x="522" d="M51 174l305 424l-127 375h82l138 -385l-306 -414h-92z" />
<glyph unicode="&#x205f;" horiz-adv-x="443" />
<glyph unicode="&#x20ac;" horiz-adv-x="1366" d="M174 528l19 82h133q8 51 14 80l6 29h-131l18 82h136q39 123 103 231t148 194t193.5 136.5t228.5 50.5q267 0 379 -254l-82 -61q-33 108 -114.5 170.5t-196.5 62.5q-93 0 -180.5 -43t-157.5 -117.5t-125 -168.5t-92 -201h485l-18 -82h-491q-10 -40 -11 -47l-12 -62h492 l-19 -82h-481v-47q0 -66 10 -124.5t34.5 -113.5t62.5 -94.5t97.5 -63.5t135.5 -24q114 0 221 63t188 173l60 -57q-215 -260 -488 -260q-108 0 -190.5 39t-132.5 108t-74.5 157t-24.5 193v51h-143z" />
<glyph unicode="&#x2122;" horiz-adv-x="1624" d="M276 1329l15 64h543l-15 -64h-235l-150 -704h-72l150 704h-236zM731 625l254 768h100l82 -656q39 70 113.5 207t134.5 245.5t115 203.5h102l-86 -768h-82l74 643q-175 -306 -373 -643h-51l-90 643l-211 -643h-82z" />
<glyph unicode="&#x25fc;" horiz-adv-x="1003" d="M0 0v1004h1004v-1004h-1004z" />
</font>
</defs>
</svg>
