<?xml version="1.0" standalone="no"?>
<!DOCTYPE svg PUBLIC "-//W3C//DTD SVG 1.1//EN" "http://www.w3.org/Graphics/SVG/1.1/DTD/svg11.dtd" >
<svg xmlns="http://www.w3.org/2000/svg" xmlns:xlink="http://www.w3.org/1999/xlink" version="1.1">
<metadata></metadata>
<defs>
<font id="mucho_sansbold_italic" horiz-adv-x="584" >
<font-face units-per-em="1000" ascent="750" descent="-250" />
<missing-glyph horiz-adv-x="250" />
<glyph unicode="fi" horiz-adv-x="580" d="M78 -8l86 406h-65l20 92h67l8 36c24 114 124 164 207 164c-3 0 49 -2 49 -6c0 -8 -17 -82 -17 -89c-14 3 -26 4 -34 4c-46 0 -98 -23 -109 -75l-7 -34h286l-84 -398c0 -20 12 -26 27 -26c10 0 20 3 29 5v-72c-23 -9 -44 -9 -59 -9c-67 0 -96 34 -96 89c0 10 1 23 4 37 l59 282h-185l-86 -407c-25 -117 -116 -180 -198 -180v92c4 0 11 1 15 1c34 0 66 26 83 88zM487 617c0 35 31 73 73 73c29 0 49 -21 49 -48c0 -36 -35 -72 -74 -72c-29 0 -48 20 -48 47z" />
<glyph unicode="ffi" horiz-adv-x="862" d="M78 -8l86 406h-65l20 92h67l8 36c24 114 127 164 208 164c18 0 44 -3 75 -11l-19 -89c-22 5 -44 9 -57 9c-47 0 -98 -23 -109 -75l-7 -34h183l8 36c24 114 124 164 207 164c-3 0 49 -2 49 -6c0 -8 -17 -82 -17 -89c-14 3 -26 4 -34 4c-46 0 -98 -23 -109 -75l-7 -34h286 l-84 -398c0 -20 12 -26 27 -26c10 0 20 3 29 5v-72c-23 -9 -44 -9 -59 -9c-67 0 -96 34 -96 89c0 10 1 23 4 37l59 282h-185l-86 -407c-25 -117 -116 -180 -198 -180v92c4 0 11 1 15 1c34 0 66 26 83 88l86 406h-182l-86 -407c-25 -117 -116 -180 -198 -180v92 c4 0 11 1 15 1c34 0 66 26 83 88zM769 617c0 35 31 73 73 73c29 0 49 -21 49 -48c0 -36 -35 -72 -74 -72c-29 0 -48 20 -48 47z" />
<glyph unicode="ffl" horiz-adv-x="865" d="M78 -8l86 406h-65l20 92h67l8 36c24 114 127 164 208 164c18 0 44 -3 75 -11l-19 -89c-22 5 -44 9 -57 9c-47 0 -98 -23 -109 -75l-7 -34h183l8 36c24 114 124 164 207 164c13 0 30 -2 52 -6l-20 -89c-14 2 -26 4 -34 4c-46 0 -98 -23 -109 -75l-7 -34h128l-20 -92h-127 l-86 -407c-25 -117 -116 -180 -198 -180v92c4 0 11 1 15 1c34 0 66 26 83 88l86 406h-182l-86 -407c-25 -117 -116 -180 -198 -180v92c4 0 11 1 15 1c34 0 66 26 83 88zM894 680l-125 -588c0 -20 12 -26 27 -26c10 0 20 3 29 5v-72c-23 -9 -44 -9 -59 -9 c-67 0 -96 34 -96 89c0 9 0 20 3 33l121 568h100z" />
<glyph unicode="ff" horiz-adv-x="635" d="M78 -8l86 406h-65l20 92h67l8 36c24 114 127 164 208 164c18 0 44 -3 75 -11l-19 -89c-22 5 -44 9 -57 9c-47 0 -98 -23 -109 -75l-7 -34h183l8 36c24 114 124 164 207 164c17 0 43 -3 75 -11l-19 -89c-23 5 -45 9 -58 9c-46 0 -98 -23 -109 -75l-7 -34h128l-20 -92h-127 l-86 -407c-25 -117 -116 -180 -198 -180v92c4 0 11 1 15 1c34 0 66 26 83 88l86 406h-182l-86 -407c-25 -117 -116 -180 -198 -180v92c4 0 11 1 15 1c34 0 66 26 83 88z" />
<glyph unicode="fl" horiz-adv-x="579" d="M184 490l8 36c24 114 127 164 208 164c14 0 31 -2 51 -8l-19 -89c-14 5 -23 6 -32 6c-48 0 -98 -23 -109 -75l-7 -34h127l-20 -92h-127l-86 -407c-25 -117 -116 -180 -198 -180v92c4 0 11 1 15 1c34 0 66 26 83 88l86 406h-65l20 92h65zM608 680l-125 -588 c0 -20 12 -26 27 -26c10 0 20 3 29 5v-72c-23 -9 -44 -9 -59 -9c-67 0 -96 34 -96 89c0 9 0 20 3 33l121 568h100z" />
<glyph unicode="B" horiz-adv-x="578" d="M207 680h187c111 0 172 -64 172 -149c0 -86 -51 -130 -84 -158c29 -26 61 -54 61 -124c0 -142 -102 -249 -251 -249h-230zM286 583l-36 -171h131c62 0 89 69 89 101c0 26 -12 70 -73 70h-111zM229 317l-47 -222h130c59 0 135 48 135 135c0 58 -44 87 -87 87h-131z" />
<glyph unicode="C" horiz-adv-x="652" d="M462 690c95 0 178 -45 228 -147l-80 -61c-30 76 -97 113 -168 113c-150 0 -261 -189 -261 -332c0 -109 56 -177 154 -177c66 0 141 52 202 127l66 -76c-92 -102 -194 -147 -289 -147c-145 0 -239 115 -239 266c0 203 153 434 387 434z" />
<glyph unicode="D" horiz-adv-x="636" d="M207 680h168c171 0 258 -102 258 -241c0 -236 -146 -439 -403 -439h-168zM287 585l-104 -488h68c169 0 283 149 283 322c0 131 -73 166 -179 166h-68z" />
<glyph unicode="E" horiz-adv-x="541" d="M570 585h-283l-36 -168h259l-20 -95h-259l-48 -227h283l-21 -95h-383l145 680h383z" />
<glyph unicode="F" horiz-adv-x="510" d="M549 585h-262l-37 -173h236l-20 -95h-236l-68 -317h-100l145 680h362z" />
<glyph unicode="G" horiz-adv-x="692" d="M478 690c93 0 193 -45 243 -147l-81 -59c-30 73 -116 111 -182 111c-124 0 -267 -138 -267 -326c0 -122 63 -182 167 -182c42 0 124 16 169 39l34 151h-181l20 93h282l-65 -300c-86 -55 -199 -80 -278 -80c-138 0 -256 110 -256 274c0 265 201 426 395 426z" />
<glyph unicode="H" horiz-adv-x="675" d="M539 0h-100l69 322h-277l-69 -322h-100l145 680h100l-56 -263h277l56 263h100z" />
<glyph unicode="I" horiz-adv-x="298" d="M162 0h-100l145 680h100z" />
<glyph unicode="J" horiz-adv-x="545" d="M225 585l20 95h320l-100 -481c-30 -141 -124 -209 -258 -209c-109 0 -170 87 -170 188c0 16 2 32 5 49h100c-4 -20 -5 -41 -5 -49c0 -51 26 -92 90 -92c63 0 119 34 136 113l82 386h-220z" />
<glyph unicode="K" horiz-adv-x="634" d="M713 680l-412 -315l261 -365h-131l-206 296l-63 -296h-100l145 680h100l-51 -239l301 239h156z" />
<glyph unicode="L" horiz-adv-x="549" d="M183 95h313l-21 -95h-413l145 680h100z" />
<glyph unicode="M" horiz-adv-x="859" d="M426 0h-68l-68 461c-48 -154 -99 -307 -148 -461h-100l205 680h114l64 -495l289 495h114l-86 -680h-99l50 462z" />
<glyph unicode="N" horiz-adv-x="673" d="M537 0h-93l-178 476l-104 -476h-100l145 680h93l178 -480l104 480h100z" />
<glyph unicode="O" horiz-adv-x="705" d="M462 690c146 0 240 -117 240 -267c0 -220 -155 -433 -388 -433c-145 0 -239 115 -239 266c0 203 153 434 387 434zM442 595c-150 0 -261 -189 -261 -332c0 -109 56 -177 154 -177c152 0 261 187 261 330c0 104 -60 179 -154 179z" />
<glyph unicode="P" horiz-adv-x="548" d="M207 680h189c117 0 191 -79 191 -176c0 -122 -120 -217 -255 -217h-109l-61 -287h-100zM287 583l-43 -201h109c65 0 137 52 137 122c0 38 -31 79 -94 79h-109z" />
<glyph unicode="Q" horiz-adv-x="705" d="M462 690c146 0 240 -117 240 -267c0 -157 -79 -311 -209 -386c36 -8 76 -13 129 -18l-19 -86c-91 2 -191 22 -296 57c-141 4 -232 117 -232 266c0 203 153 434 387 434zM442 595c-150 0 -261 -189 -261 -332c0 -109 56 -177 154 -177c152 0 261 187 261 330 c0 104 -60 179 -154 179z" />
<glyph unicode="R" horiz-adv-x="565" d="M207 680h170c127 0 192 -89 192 -174c0 -82 -57 -153 -137 -188l79 -318h-107l-70 297h-108l-63 -297h-101zM288 583l-41 -191h99c63 0 126 41 126 112c0 39 -31 79 -95 79h-89z" />
<glyph unicode="S" horiz-adv-x="562" d="M396 690c76 0 133 -30 176 -55l-59 -81c-40 27 -91 41 -137 41c-57 0 -148 -34 -148 -106c0 -103 287 -104 287 -262c0 -141 -146 -237 -287 -237c-95 0 -170 37 -207 63l64 77c53 -32 115 -46 163 -46c63 0 162 47 162 123c0 33 -27 68 -119 106 c-97 40 -169 73 -169 152c0 135 135 225 274 225z" />
<glyph unicode="T" horiz-adv-x="522" d="M601 585h-198l-125 -585h-100l125 585h-198l20 95h496z" />
<glyph unicode="U" horiz-adv-x="694" d="M714 680l-81 -381c-44 -209 -150 -309 -329 -309c-116 0 -201 73 -201 196c0 33 5 73 94 494h100c-87 -411 -90 -472 -90 -494c0 -75 43 -102 117 -102c28 0 165 10 209 215l81 381h100z" />
<glyph unicode="V" horiz-adv-x="596" d="M296 170l294 510h105l-397 -680h-75l-106 680h105z" />
<glyph unicode="W" horiz-adv-x="865" d="M571 680l11 -509l238 509h104l-335 -680h-88l-14 426l-197 -426h-88l-45 680h104l22 -509l228 509h60z" />
<glyph unicode="X" horiz-adv-x="688" d="M407 257l-240 -257h-118l310 340l-165 340h108l123 -265l241 265h118l-311 -350l166 -330h-107z" />
<glyph unicode="Y" horiz-adv-x="604" d="M286 334l-169 346h100l133 -263l231 263h122l-317 -346l-71 -334h-100z" />
<glyph unicode="Z" horiz-adv-x="593" d="M632 586l-481 -492h376l-20 -94h-495l20 94l481 492h-376l20 94h495z" />
<glyph unicode="!" horiz-adv-x="321" d="M210 161h-103l110 519h103zM146 110c29 0 51 -21 51 -48c0 -37 -37 -72 -76 -72c-32 0 -52 20 -52 47c0 36 35 73 77 73z" />
<glyph unicode="&#x22;" horiz-adv-x="357" d="M205 471h-93l44 209h93zM325 471h-92l44 209h92z" />
<glyph unicode="#" horiz-adv-x="674" d="M587 502h86l-20 -91h-95l-43 -133h86l-20 -94h-95l-59 -184h-106l58 184h-123l-58 -184h-105l58 184h-82l20 94h91c7 25 15 49 43 133h-81l20 91h89l57 178h105l-57 -178h124l57 178h105zM327 411l-42 -133h124l42 133h-124z" />
<glyph unicode="$" horiz-adv-x="565" d="M278 -70h-101l13 62c-76 8 -136 38 -168 61l64 77c53 -32 115 -46 163 -46c63 0 162 47 162 123c0 33 -27 68 -119 106c-97 40 -169 73 -169 152c0 115 99 198 214 219l15 67h101l-14 -64c55 -9 99 -32 134 -52l-59 -81c-40 27 -91 41 -137 41c-57 0 -148 -34 -148 -106 c0 -103 287 -104 287 -262c0 -120 -106 -207 -224 -230z" />
<glyph unicode="%" horiz-adv-x="889" d="M328 690c74 0 121 -64 121 -149c0 -17 -2 -35 -6 -53c-23 -110 -112 -203 -201 -203c-74 0 -120 64 -120 149c0 17 2 36 6 54c23 110 111 202 200 202zM310 603c-32 0 -72 -49 -86 -115c-3 -16 -5 -30 -5 -44c0 -42 15 -72 41 -72c34 0 73 50 87 116c3 15 5 30 5 43 c0 42 -15 72 -42 72zM257 0h-107l555 681h107zM717 395c74 0 121 -64 121 -149c0 -17 -2 -35 -6 -53c-23 -110 -112 -203 -201 -203c-74 0 -120 64 -120 149c0 17 2 36 6 54c23 110 111 202 200 202zM699 308c-32 0 -72 -49 -86 -115c-3 -16 -5 -30 -5 -44 c0 -42 15 -72 41 -72c34 0 73 50 87 116c3 15 5 30 5 43c0 42 -15 72 -42 72z" />
<glyph unicode="&#x26;" horiz-adv-x="707" d="M631 84l-19 -94c-81 0 -139 20 -173 52c-44 -32 -105 -52 -178 -52c-97 0 -184 69 -184 176c0 89 49 151 132 195c-29 22 -46 60 -46 104c0 125 116 225 246 225c96 0 184 -53 184 -151c0 -11 -1 -13 -3 -25h-106c1 6 2 11 2 16c0 39 -33 64 -93 64 c-64 0 -125 -46 -125 -116c0 -47 36 -74 79 -74h271l-20 -94h-52l-34 -160v-4c0 -36 44 -62 119 -62zM280 85c53 0 114 25 127 70l33 155h-115c-85 0 -142 -79 -142 -143c0 -44 35 -82 97 -82z" />
<glyph unicode="'" horiz-adv-x="237" d="M205 471h-93l44 209h93z" />
<glyph unicode="(" horiz-adv-x="406" d="M430 780l58 -87c-166 -94 -294 -279 -294 -479c0 -114 35 -210 115 -284l-76 -72c-92 83 -145 219 -145 353c0 232 145 461 342 569z" />
<glyph unicode=")" horiz-adv-x="411" d="M52 -142l-66 72c166 94 297 294 297 494c0 114 -35 205 -109 269l70 87c88 -76 145 -219 145 -353c0 -232 -140 -461 -337 -569z" />
<glyph unicode="*" horiz-adv-x="420" d="M280 390h-94l18 89l-90 -26l-9 88l89 26l-38 75l88 57l38 -75l70 74l64 -56l-71 -74l81 -28l-45 -88l-82 29z" />
<glyph unicode="+" horiz-adv-x="692" d="M679 340l-20 -95h-243l-52 -245h-99l52 245h-244l20 95h244l51 240h99l-51 -240h243z" />
<glyph unicode="," horiz-adv-x="305" d="M232 70c0 -69 -81 -126 -134 -163l-39 40c19 17 40 35 52 47c1 1 1 2 1 4c-15 10 -24 25 -24 43c0 43 41 83 87 83c33 0 57 -23 57 -54z" />
<glyph unicode="-" horiz-adv-x="457" d="M435 245h-371l20 95h371z" />
<glyph unicode="." horiz-adv-x="298" d="M168 124c33 0 57 -23 57 -54c0 -40 -39 -80 -86 -80c-35 0 -58 21 -58 51c0 41 39 83 87 83z" />
<glyph unicode="/" horiz-adv-x="461" d="M72 -96h-105l484 776h106z" />
<glyph unicode="0" horiz-adv-x="701" d="M458 690c136 0 220 -124 220 -278c0 -223 -179 -422 -368 -422c-135 0 -216 120 -216 273c0 223 175 427 364 427zM439 596c-107 0 -237 -148 -237 -317c0 -111 53 -195 128 -195c112 0 240 145 240 316c0 110 -53 196 -131 196z" />
<glyph unicode="1" horiz-adv-x="450" d="M377 95l-21 -95h-345l21 95h122l95 451c-35 -21 -76 -43 -110 -64l-47 70l199 128h88l-124 -585h122z" />
<glyph unicode="2" horiz-adv-x="522" d="M347 596c-63 0 -103 -58 -120 -125h-105c28 130 110 219 246 219c107 0 163 -73 163 -161c0 -225 -298 -270 -387 -434h304l-20 -95h-406l20 94c31 144 381 279 381 418c0 44 -23 84 -76 84z" />
<glyph unicode="3" horiz-adv-x="533" d="M217 -10c-102 0 -161 73 -161 163c0 15 1 32 5 48h106c-2 -11 -4 -22 -4 -32c0 -57 41 -84 86 -84c61 0 129 45 129 138c0 63 -42 87 -91 87h-76l20 94h74c56 0 118 45 118 118c0 49 -32 74 -71 74c-62 0 -112 -50 -128 -125h-106c25 129 117 219 247 219 c96 0 167 -56 167 -151c0 -73 -32 -138 -110 -176c43 -22 65 -65 65 -121c0 -181 -132 -252 -270 -252z" />
<glyph unicode="4" horiz-adv-x="547" d="M448 255h79l-20 -93h-79l-35 -162h-100l35 162h-294l17 80l390 438h97zM347 255l54 258c-70 -77 -149 -168 -225 -258h171z" />
<glyph unicode="5" horiz-adv-x="542" d="M530 585h-235l-54 -139c29 11 61 18 89 18c87 0 170 -58 170 -183s-72 -291 -275 -291c-103 0 -167 71 -167 161c0 15 2 32 5 48h106c-2 -9 -3 -18 -3 -27c0 -49 35 -88 77 -88c106 0 149 101 149 179c0 70 -40 107 -83 107c-51 0 -94 -26 -121 -60h-99l139 370h322z" />
<glyph unicode="6" horiz-adv-x="583" d="M390 596c-84 0 -136 -87 -165 -170c41 26 88 41 137 41c131 0 175 -96 175 -187c0 -130 -81 -290 -280 -290c-140 0 -178 133 -178 241c0 213 111 459 333 459c79 0 141 -36 180 -99l-92 -70c-22 46 -63 75 -110 75zM341 373c-47 0 -116 -37 -146 -76 c-4 -22 -7 -48 -7 -74c0 -69 21 -139 92 -139c62 0 149 66 149 179c0 64 -33 110 -88 110z" />
<glyph unicode="7" horiz-adv-x="472" d="M420 585h-295l20 95h411l-17 -78l-380 -602h-109z" />
<glyph unicode="8" horiz-adv-x="549" d="M236 -10c-108 0 -181 80 -181 163c0 98 72 175 145 207c-30 28 -56 69 -56 119c0 142 120 211 241 211c85 0 163 -50 163 -146c0 -82 -56 -148 -124 -184c36 -27 75 -72 75 -139c0 -128 -103 -231 -263 -231zM256 84c63 0 135 46 135 116c0 58 -61 95 -101 111 c-59 -34 -127 -71 -127 -140c0 -49 30 -87 93 -87zM440 527c0 48 -36 69 -75 69s-112 -29 -112 -100c0 -52 48 -80 75 -91c34 17 112 60 112 122z" />
<glyph unicode="9" horiz-adv-x="582" d="M264 84c84 0 136 87 165 170c-41 -26 -88 -41 -137 -41c-131 0 -175 96 -175 187c0 130 81 290 280 290c140 0 178 -133 178 -241c0 -213 -111 -459 -333 -459c-79 0 -141 36 -180 99l92 70c22 -46 63 -75 110 -75zM313 307c47 0 116 37 146 76c4 22 7 48 7 74 c0 69 -21 139 -92 139c-62 0 -149 -66 -149 -179c0 -64 33 -110 88 -110z" />
<glyph unicode=":" horiz-adv-x="295" d="M152 124c33 0 57 -23 57 -54c0 -40 -39 -80 -86 -80c-35 0 -58 21 -58 51c0 41 39 83 87 83zM213 411c33 0 57 -23 57 -54c0 -40 -39 -80 -86 -80c-35 0 -58 21 -58 51c0 41 39 83 87 83z" />
<glyph unicode=";" horiz-adv-x="303" d="M220 411c33 0 57 -23 57 -54c0 -40 -39 -80 -86 -80c-35 0 -58 21 -58 51c0 41 39 83 87 83zM216 70c0 -69 -81 -126 -134 -163l-39 40c19 17 40 35 52 47c1 1 1 2 1 4c-15 10 -24 25 -24 43c0 43 41 83 87 83c33 0 57 -23 57 -54z" />
<glyph unicode="&#x3c;" horiz-adv-x="475" d="M199 289l225 -155l-23 -103l-327 231l12 56l425 231l-22 -103z" />
<glyph unicode="=" horiz-adv-x="639" d="M648 435l-20 -94h-535l20 94h535zM607 245l-20 -94h-535l20 94h535z" />
<glyph unicode="&#x3e;" horiz-adv-x="474" d="M336 291l-225 155l23 103l327 -231l-12 -56l-425 -231l22 103z" />
<glyph unicode="?" horiz-adv-x="425" d="M160 518l-64 68c69 67 135 104 207 104c83 0 151 -66 151 -150c0 -168 -185 -213 -200 -287l-19 -92h-100l19 92c28 129 194 162 194 274c0 52 -36 68 -67 68c-33 0 -74 -38 -121 -77zM176 110c30 0 51 -21 51 -49c0 -38 -37 -71 -77 -71c-31 0 -51 20 -51 47 c0 36 35 73 77 73z" />
<glyph unicode="@" horiz-adv-x="863" d="M615 112h-97l-1 36c-41 -47 -99 -67 -132 -67c-95 0 -146 69 -146 138c0 146 146 213 283 213c17 0 37 0 56 -2c1 4 1 7 1 11c0 53 -43 75 -101 75c-162 0 -300 -161 -300 -322c0 -128 83 -214 220 -214c158 0 294 138 332 294h106c-45 -215 -252 -390 -457 -390 c-180 0 -307 127 -307 296c0 207 193 431 421 431c78 0 193 -34 193 -146c0 -14 -2 -29 -5 -45zM542 265l18 88c-66 -3 -215 -23 -215 -117c0 -40 22 -60 61 -60c53 0 123 70 136 89z" />
<glyph unicode="&#x2212;" horiz-adv-x="697" d="M684 339l-20 -93h-591l20 93h591z" />
<glyph unicode="&#xb1;" horiz-adv-x="696" d="M690 340l-20 -95h-241l-52 -244h-99l52 244h-246l20 95h246l51 239h99l-51 -239h241zM603 -71l-21 -95h-585l20 95h586z" />
<glyph unicode="_" horiz-adv-x="527" d="M0 -43h531l-20 -94h-531z" />
<glyph unicode="&#x2030;" horiz-adv-x="1248" d="M328 690c74 0 121 -64 121 -149c0 -17 -2 -35 -6 -53c-23 -110 -112 -203 -201 -203c-74 0 -120 64 -120 149c0 17 2 36 6 54c23 110 111 202 200 202zM310 603c-32 0 -72 -49 -86 -115c-3 -16 -5 -30 -5 -44c0 -42 15 -72 41 -72c34 0 73 50 87 116c3 15 5 30 5 43 c0 42 -15 72 -42 72zM257 0h-107l555 681h107zM717 395c74 0 121 -64 121 -149c0 -17 -2 -35 -6 -53c-23 -110 -112 -203 -201 -203c-74 0 -120 64 -120 149c0 17 2 36 6 54c23 110 111 202 200 202zM699 308c-32 0 -72 -49 -86 -115c-3 -16 -5 -30 -5 -44 c0 -42 15 -72 41 -72c34 0 73 50 87 116c3 15 5 30 5 43c0 42 -15 72 -42 72zM1076 395c74 0 121 -64 121 -149c0 -17 -2 -35 -6 -53c-23 -110 -112 -203 -201 -203c-74 0 -120 64 -120 149c0 17 2 36 6 54c23 110 111 202 200 202zM1058 308c-32 0 -72 -49 -86 -115 c-3 -16 -5 -30 -5 -44c0 -42 15 -72 41 -72c34 0 73 50 87 116c3 15 5 30 5 43c0 42 -15 72 -42 72z" />
<glyph unicode="a" horiz-adv-x="488" d="M160 350l-60 73c64 49 149 77 210 77c117 0 153 -79 153 -139c0 -26 -4 -52 -9 -77l-43 -194c1 -19 14 -24 29 -24c10 0 20 3 29 5v-72c-23 -9 -44 -9 -59 -9c-59 0 -88 26 -95 70c-44 -54 -111 -70 -150 -70c-90 0 -128 59 -128 119c0 158 191 187 324 195 c1 9 2 18 2 26c0 55 -18 77 -76 77c-42 0 -91 -35 -127 -57zM342 221c-51 -2 -204 -6 -204 -90c0 -31 26 -48 57 -48c53 0 116 59 127 75c12 21 15 37 20 63z" />
<glyph unicode="b" horiz-adv-x="563" d="M369 500c93 0 175 -91 175 -207c0 -161 -137 -303 -284 -303c-41 0 -78 24 -106 59l-16 -59h-95l147 690h100l-48 -224c38 27 82 44 127 44zM349 407c-72 0 -155 -90 -155 -199c0 -72 36 -125 86 -125c78 0 159 91 159 200c0 71 -36 124 -90 124z" />
<glyph unicode="c" horiz-adv-x="495" d="M258 83c43 0 94 37 136 89l64 -71c-70 -79 -150 -111 -220 -111c-91 0 -171 92 -171 207c0 162 135 303 280 303c70 0 130 -34 168 -111l-79 -54c-20 53 -66 72 -109 72c-72 0 -156 -90 -156 -199c0 -72 37 -125 87 -125z" />
<glyph unicode="d" horiz-adv-x="577" d="M242 -10c-93 0 -175 91 -175 207c0 161 137 303 284 303c41 0 77 -25 105 -60l50 240h100l-125 -589c0 -19 14 -25 29 -25c10 0 20 3 29 5v-72c-23 -9 -44 -9 -59 -9c-53 0 -82 21 -92 56c-42 -34 -92 -56 -146 -56zM262 83c72 0 155 90 155 199c0 72 -36 125 -86 125 c-78 0 -159 -91 -159 -200c0 -71 36 -124 90 -124z" />
<glyph unicode="e" horiz-adv-x="521" d="M193 304h204c17 0 19 14 19 29c0 52 -40 74 -89 74s-104 -42 -134 -103zM347 500c94 0 173 -57 173 -166c0 -96 -67 -113 -129 -113h-220v-13c0 -72 37 -125 94 -125c47 0 99 25 141 77l59 -66c-66 -72 -144 -104 -220 -104c-98 0 -178 92 -178 207 c0 162 135 303 280 303z" />
<glyph unicode="f" horiz-adv-x="383" d="M184 490l4 18c25 119 113 182 196 182c38 0 75 -5 105 -32l-59 -75c-19 14 -41 14 -61 14c-34 0 -64 -26 -81 -88l-4 -19h127l-20 -92h-127l-87 -407c-25 -117 -115 -180 -197 -180v92c4 0 11 1 15 1c34 0 66 26 83 88l86 406h-65l20 92h65z" />
<glyph unicode="g" horiz-adv-x="507" d="M8 -121c0 62 51 112 108 144c-25 20 -27 39 -27 57c0 33 22 71 58 90c-33 32 -44 79 -44 118c0 114 105 213 230 213c39 0 81 -14 103 -35c23 40 63 80 103 80c19 0 44 -6 67 -22l-52 -87c-8 4 -21 16 -35 16c-19 0 -39 -9 -56 -27c12 -19 21 -51 21 -73 c0 -117 -105 -225 -231 -225c-19 0 -47 4 -66 11c-7 -9 -17 -26 -17 -40c0 -18 26 -34 81 -41c147 -18 203 -45 203 -134c0 -117 -145 -164 -267 -164c-108 0 -179 47 -179 119zM314 408c-54 0 -110 -53 -110 -114c0 -42 28 -73 70 -73c54 0 109 54 109 114 c0 41 -28 73 -69 73zM207 -147c38 0 141 13 141 71c0 53 -119 58 -179 60c-25 -19 -58 -44 -58 -76c0 -31 30 -55 96 -55z" />
<glyph unicode="h" horiz-adv-x="527" d="M355 108l48 218c1 7 1 13 1 19c0 46 -20 64 -47 64c-76 0 -150 -96 -164 -163l-52 -246h-100l145 680h100l-57 -270c45 61 101 90 148 90c72 0 133 -44 133 -122c0 -12 -1 -25 -4 -38l-54 -248c0 -20 12 -26 27 -26c10 0 20 3 29 5v-72c-23 -9 -44 -9 -59 -9 c-67 0 -96 34 -96 89c0 8 0 18 2 29z" />
<glyph unicode="i" horiz-adv-x="236" d="M46 116l79 374h100l-84 -398c0 -20 12 -26 27 -26c10 0 20 3 29 5v-72c-23 -9 -44 -9 -59 -9c-67 0 -96 34 -96 89c0 10 1 23 4 37zM143 617c0 35 31 73 73 73c29 0 49 -21 49 -48c0 -36 -35 -72 -74 -72c-29 0 -48 20 -48 47z" />
<glyph unicode="j" horiz-adv-x="269" d="M270 490l-104 -488c-24 -112 -107 -242 -257 -242c-25 0 -54 6 -89 19l59 86c20 -7 39 -12 50 -12c95 0 130 118 137 149l104 488h100zM188 618c0 34 33 72 74 72c28 0 48 -20 48 -47c0 -34 -33 -73 -73 -73c-30 0 -49 21 -49 48z" />
<glyph unicode="k" horiz-adv-x="493" d="M142 0h-100l145 680h100l-72 -329l189 139l148 1l-309 -223l197 -268l-118 1l-138 205z" />
<glyph unicode="l" horiz-adv-x="285" d="M266 680l-125 -588c0 -20 12 -26 27 -26c10 0 20 3 29 5v-72c-23 -9 -44 -9 -59 -9c-67 0 -96 34 -96 89c0 9 0 20 3 33l121 568h100z" />
<glyph unicode="m" horiz-adv-x="805" d="M482 246l-52 -246h-100l69 326c1 9 2 17 2 24c0 41 -17 59 -42 59c-72 0 -143 -101 -156 -163l-51 -246h-100l104 491h95l-12 -81c39 58 95 90 140 90c53 0 106 -35 113 -108c44 71 114 108 166 108c64 0 128 -48 128 -124c0 -10 -1 -20 -3 -31l-54 -253 c0 -20 12 -26 27 -26c10 0 20 3 29 5v-72c-23 -9 -44 -9 -59 -9c-67 0 -96 34 -96 89c0 9 0 20 3 33c50 238 41 200 45 225c2 10 2 12 2 14c0 42 -18 58 -43 58c-53 0 -137 -77 -155 -163z" />
<glyph unicode="n" horiz-adv-x="539" d="M368 116c46 218 49 225 49 232c0 44 -22 61 -49 61c-76 0 -151 -96 -165 -163l-51 -246h-100l104 491h95l-13 -81c44 59 102 90 149 90c72 0 133 -44 133 -122c0 -12 -1 -25 -4 -38l-53 -248c0 -20 12 -26 27 -26c10 0 20 3 29 5v-72c-23 -9 -44 -9 -59 -9 c-67 0 -96 34 -96 89c0 10 1 23 4 37z" />
<glyph unicode="o" horiz-adv-x="541" d="M347 500c93 0 175 -91 175 -207c0 -161 -137 -303 -284 -303c-91 0 -171 92 -171 207c0 162 135 303 280 303zM327 407c-72 0 -155 -90 -155 -199c0 -72 36 -125 86 -125c78 0 159 91 159 200c0 71 -36 124 -90 124z" />
<glyph unicode="p" horiz-adv-x="582" d="M388 500c93 0 175 -91 175 -207c0 -161 -137 -303 -284 -303c-41 0 -78 24 -106 59l-58 -279h-100l153 720h94l-1 -34c38 27 81 44 127 44zM368 407c-72 0 -155 -90 -155 -199c0 -72 36 -125 86 -125c78 0 159 91 159 200c0 71 -36 124 -90 124z" />
<glyph unicode="q" horiz-adv-x="556" d="M242 -10c-93 0 -175 91 -175 207c0 161 137 303 284 303c41 0 77 -25 105 -60l16 52h94l-154 -723h-100l56 264c-38 -27 -81 -43 -126 -43zM262 83c72 0 155 90 155 199c0 72 -36 125 -86 125c-78 0 -159 -91 -159 -200c0 -71 36 -124 90 -124z" />
<glyph unicode="r" horiz-adv-x="400" d="M251 490l-17 -102c48 85 96 112 148 112c25 0 53 -9 84 -31l-61 -89c-23 14 -39 19 -51 19c-61 0 -133 -67 -149 -143l-53 -256h-100l104 490h95z" />
<glyph unicode="s" horiz-adv-x="411" d="M186 82c53 0 91 27 91 61c0 32 -42 56 -80 73c-54 24 -115 52 -115 121c0 93 67 163 206 163c44 0 103 -23 145 -74l-74 -60c-25 31 -62 41 -91 41c-43 0 -83 -18 -83 -53c0 -23 37 -43 74 -61c57 -28 122 -59 122 -133c0 -98 -92 -170 -215 -170c-46 0 -105 23 -147 74 l74 60c25 -31 62 -42 93 -42z" />
<glyph unicode="t" horiz-adv-x="355" d="M102 155l51 243h-65l20 92h65l25 120h99l-25 -120h119l-20 -92h-119l-51 -242c-2 -7 -3 -16 -3 -24c0 -25 8 -50 30 -50c20 0 48 14 83 39l30 -91c-35 -23 -87 -40 -133 -40c-81 0 -111 58 -111 120c0 15 2 30 5 45z" />
<glyph unicode="u" horiz-adv-x="537" d="M536 490l-85 -401c1 -18 14 -23 29 -23c10 0 20 3 29 5v-72c-23 -9 -44 -9 -59 -9c-67 0 -96 34 -96 90c-44 -59 -106 -90 -153 -90c-72 0 -132 44 -132 122c0 12 1 25 4 38l72 340h100l-69 -326c-1 -8 -2 -15 -2 -22c0 -44 19 -61 46 -61c76 0 151 96 165 163l51 246 h100z" />
<glyph unicode="v" horiz-adv-x="504" d="M251 145l212 345h95l-293 -490h-81l-82 490h95z" />
<glyph unicode="w" horiz-adv-x="644" d="M359 0l-5 279c-41 -89 -83 -190 -124 -279h-92l-31 490h94l13 -345l146 345h79l-2 -346l162 346h94l-241 -490h-93z" />
<glyph unicode="x" horiz-adv-x="520" d="M274 177l-164 -177h-108l229 244l-124 246h103l87 -176l164 176h108l-232 -245l127 -245h-103z" />
<glyph unicode="y" horiz-adv-x="511" d="M46 -240c-26 0 -42 9 -78 23l54 80c10 -6 28 -9 43 -9c21 0 42 14 56 40l77 126l-77 470h94l59 -345l209 345h94l-371 -617c-47 -78 -107 -113 -160 -113z" />
<glyph unicode="z" horiz-adv-x="438" d="M457 398l-312 -305h247l-20 -93h-360l20 93l314 305h-249l20 93h360z" />
<glyph unicode="&#xa1;" horiz-adv-x="335" d="M139 329h103l-110 -519h-103zM203 380c-29 0 -51 21 -51 48c0 37 37 72 76 72c32 0 52 -20 52 -47c0 -36 -35 -73 -77 -73z" />
<glyph unicode="&#xbf;" horiz-adv-x="425" d="M282 -27l64 -68c-69 -67 -135 -104 -207 -104c-83 0 -151 66 -151 150c0 168 185 213 200 287l19 92h100l-19 -92c-28 -129 -194 -162 -194 -274c0 -52 36 -68 67 -68c33 0 74 38 121 77zM266 381c-30 0 -51 21 -51 49c0 38 37 71 77 71c31 0 51 -20 51 -47 c0 -36 -35 -73 -77 -73z" />
<glyph unicode="&#x2013;" horiz-adv-x="618" d="M84 340h532l-20 -95h-532z" />
<glyph unicode="&#x2014;" horiz-adv-x="993" d="M84 340h907l-20 -95h-907z" />
<glyph unicode="&#xb7;" horiz-adv-x="298" d="M194 359c33 0 57 -22 57 -53c0 -40 -40 -81 -86 -81c-35 0 -58 22 -58 52c0 41 39 82 87 82z" />
<glyph unicode="&#x2219;" horiz-adv-x="239" d="M165 359c33 0 57 -22 57 -53c0 -40 -40 -81 -86 -81c-36 0 -59 22 -59 52c0 43 43 82 88 82z" />
<glyph unicode="&#x2026;" horiz-adv-x="725" d="M138 124c33 0 56 -23 56 -54c0 -40 -38 -80 -85 -80c-36 0 -59 22 -59 52c0 43 43 82 88 82zM377 124c33 0 56 -23 56 -54c0 -40 -38 -80 -85 -80c-34 0 -57 22 -57 52c0 40 40 82 86 82zM618 124c33 0 56 -23 56 -54c0 -40 -38 -80 -85 -80c-36 0 -59 22 -59 52 c0 43 43 82 88 82z" />
<glyph unicode="&#xa9;" horiz-adv-x="812" d="M461 455c-67 0 -111 -89 -111 -150c0 -47 24 -83 62 -83c29 0 66 21 98 63l60 -58c-59 -64 -119 -92 -176 -92c-85 0 -142 61 -142 152c0 116 96 255 229 255c57 0 105 -28 136 -92l-76 -48c-21 42 -51 53 -80 53zM517 690c171 0 290 -120 290 -278 c0 -212 -213 -422 -439 -422c-173 0 -291 120 -291 279c0 214 212 421 440 421zM496 597c-163 0 -310 -148 -310 -315c0 -115 78 -199 201 -199c163 0 311 149 311 316c0 115 -78 198 -202 198z" />
<glyph unicode="&#xae;" horiz-adv-x="812" d="M348 534h135c74 0 107 -43 107 -91c0 -46 -27 -90 -74 -114l55 -159h-111l-41 140h-21l-29 -140h-98zM429 453l-14 -63h25c21 0 52 9 52 36c0 15 -11 27 -38 27h-25zM517 690c171 0 290 -120 290 -278c0 -212 -213 -422 -439 -422c-173 0 -291 120 -291 279 c0 214 212 421 440 421zM496 597c-163 0 -310 -148 -310 -315c0 -115 78 -199 201 -199c163 0 311 149 311 316c0 115 -78 198 -202 198z" />
<glyph unicode="&#x2117;" horiz-adv-x="812" d="M368 534h134c74 0 108 -43 108 -91c0 -67 -62 -128 -132 -133h-61l-29 -140h-97zM448 453l-14 -63h26c21 0 51 10 51 36c0 15 -11 27 -37 27h-26zM517 690c171 0 290 -120 290 -278c0 -212 -213 -422 -439 -422c-173 0 -291 120 -291 279c0 214 212 421 440 421zM496 597 c-163 0 -310 -148 -310 -315c0 -115 78 -199 201 -199c163 0 311 149 311 316c0 115 -78 198 -202 198z" />
<glyph unicode="[" horiz-adv-x="354" d="M34 -147l201 946h213l-21 -95h-114l-160 -757h114l-20 -94h-213z" />
<glyph unicode="\" horiz-adv-x="486" d="M409 -96h-106l-155 776h106z" />
<glyph unicode="]" horiz-adv-x="354" d="M388 799l-201 -946h-212l20 94h113l160 757h-114l21 95h213z" />
<glyph unicode="^" horiz-adv-x="646" d="M613 311h-109l-116 237l-214 -237h-109l327 369h48z" />
<glyph unicode="`" horiz-adv-x="227" d="M263 538h-86l-80 142h109z" />
<glyph unicode="&#xb4;" horiz-adv-x="241" d="M160 538h-86l117 142h109z" />
<glyph unicode="&#xa8;" horiz-adv-x="313" d="M159 690c30 0 49 -19 49 -46c0 -36 -35 -69 -73 -69c-30 0 -49 20 -49 45c0 37 33 70 73 70zM315 690c28 0 48 -19 48 -46c0 -35 -34 -69 -72 -69c-31 0 -49 20 -49 45c0 37 33 70 73 70z" />
<glyph unicode="{" horiz-adv-x="347" d="M234 319c23 -26 39 -48 39 -78c0 -82 -39 -162 -39 -238c0 -21 7 -43 25 -67l-26 -120c-78 52 -101 104 -101 161c0 75 42 142 42 220c0 48 -25 86 -62 122c63 44 111 91 124 153c9 41 12 82 22 128c17 81 54 153 190 223l-26 -120c-40 -34 -55 -63 -62 -94 c-9 -44 -14 -87 -25 -137c-16 -75 -42 -109 -101 -153z" />
<glyph unicode="|" horiz-adv-x="299" d="M145 -111h-101l172 811h101z" />
<glyph unicode="}" horiz-adv-x="349" d="M181 320c-23 26 -39 48 -39 78c0 82 39 162 39 238c0 21 -7 43 -25 67l26 120c78 -52 101 -104 101 -161c0 -75 -42 -142 -42 -220c0 -48 25 -86 62 -122c-63 -44 -111 -91 -124 -153c-9 -41 -12 -82 -22 -128c-17 -81 -54 -153 -190 -223l26 120c40 34 55 63 62 94 c9 44 14 87 25 137c16 75 42 109 101 153z" />
<glyph unicode="~" horiz-adv-x="645" d="M161 192h-100c30 139 112 205 203 205c70 0 96 -32 121 -63c23 -27 41 -49 77 -49c53 0 72 58 83 111h100c-30 -143 -113 -205 -201 -205c-74 0 -101 35 -130 70c-19 23 -37 41 -70 41c-57 0 -72 -57 -83 -110z" />
<glyph unicode="&#xa2;" horiz-adv-x="506" d="M258 83c43 0 94 37 136 89l64 -71c-51 -57 -107 -90 -160 -103l-21 -98h-100l21 96c-73 22 -131 103 -131 201c0 146 109 274 237 299l20 94h100l-21 -99c45 -14 84 -47 112 -102l-79 -54c-20 53 -66 72 -109 72c-72 0 -156 -90 -156 -199c0 -72 37 -125 87 -125z" />
<glyph unicode="&#xa3;" horiz-adv-x="546" d="M418 330h-162l-42 -201c-4 -14 -7 -23 -19 -35h258l-20 -94h-411l19 92c46 3 57 10 62 23l46 215h-57l17 80h57l13 61c24 113 102 219 246 219c64 0 123 -27 163 -49l-58 -84c-11 7 -78 39 -124 39c-75 0 -108 -69 -120 -125l-13 -61h162z" />
<glyph unicode="&#xa4;" horiz-adv-x="666" d="M209 600l45 -53c53 31 114 51 169 51c51 0 101 -13 139 -43l59 50l55 -63l-58 -48c18 -33 27 -73 27 -113c0 -68 -30 -133 -81 -195l46 -57l-88 -69l-47 56c-52 -31 -112 -49 -166 -49c-51 0 -104 17 -142 46l-61 -54l-55 64l62 52c-17 33 -25 70 -25 108 c0 71 32 138 81 194l-45 51zM404 503c-105 0 -213 -94 -213 -207c0 -79 61 -134 141 -134c104 0 210 93 210 205c0 79 -57 136 -138 136z" />
<glyph unicode="&#xa5;" horiz-adv-x="664" d="M316 334h-114l17 80h58l-130 266h100l133 -263l231 263h122l-244 -266h56l-17 -80h-112l-8 -35h113l-17 -80h-113l-46 -219h-100l46 219h-113l17 80h113z" />
<glyph unicode="&#xa6;" horiz-adv-x="299" d="M145 -110h-101l78 368h101zM317 701l-80 -375h-101l80 375h101z" />
<glyph unicode="&#xa7;" horiz-adv-x="516" d="M62 26l64 86c37 -22 67 -28 96 -28c56 0 97 25 97 51s-35 37 -78 50c-61 19 -145 46 -145 115c0 48 33 88 89 118c-21 19 -32 45 -32 72c0 101 119 160 234 160c49 0 92 -14 135 -32l-63 -89c-39 18 -63 26 -93 26c-52 0 -104 -23 -104 -48c0 -26 43 -38 89 -49 c66 -16 136 -47 136 -112c0 -48 -37 -88 -93 -123c24 -20 35 -43 35 -70c0 -98 -110 -163 -228 -163c-45 0 -93 13 -139 36zM376 323c0 27 -50 43 -112 56c-36 -19 -57 -38 -57 -55c0 -31 74 -49 111 -56c41 17 58 37 58 55z" />
<glyph unicode="&#xaa;" horiz-adv-x="390" d="M337 198h-291l18 85h291zM180 572l-22 75c43 23 101 42 142 42c89 0 113 -50 113 -106c0 -19 -3 -39 -7 -58l-45 -213h-86l3 34c-29 -28 -67 -40 -92 -40c-69 0 -96 45 -96 91c0 114 132 147 232 154c1 5 1 10 1 15c0 24 -11 38 -41 38c-28 0 -56 -6 -102 -32zM305 470 c-26 -1 -123 -7 -123 -53c0 -17 15 -27 32 -27c33 0 76 40 84 50c2 3 5 20 7 30z" />
<glyph unicode="&#xba;" horiz-adv-x="433" d="M318 690c77 0 130 -61 130 -146c0 -106 -89 -238 -212 -238c-78 0 -131 61 -131 145c0 107 89 239 213 239zM300 606c-61 0 -102 -82 -102 -139c0 -45 23 -76 56 -76c62 0 102 82 102 138c0 45 -23 77 -56 77zM378 198h-323l18 85h323z" />
<glyph unicode="&#xab;" horiz-adv-x="473" d="M157 85l-64 209l146 182h106l-146 -182l63 -209h-105zM325 85l-63 209l144 182h106l-145 -182l63 -209h-105z" />
<glyph unicode="&#xbb;" horiz-adv-x="478" d="M447 294l-154 -209h-104l152 209l-67 182h105zM278 294l-153 -209h-105l153 209l-68 182h106z" />
<glyph unicode="&#xac;" horiz-adv-x="648" d="M106 344h532l-47 -221h-101l27 126h-431z" />
<glyph unicode="&#xad;" horiz-adv-x="437" d="M375 249h-271l20 95h271z" />
<glyph unicode="&#xb0;" horiz-adv-x="325" d="M252 690c62 0 89 -46 89 -94c0 -64 -51 -136 -137 -136c-66 0 -95 45 -95 92c0 64 55 138 143 138zM256 581c0 13 -7 25 -22 25c-22 0 -38 -20 -38 -38c0 -13 8 -26 24 -26c23 0 36 21 36 39z" />
<glyph unicode="&#xb2;" horiz-adv-x="352" d="M256 642c-22 0 -42 -24 -52 -54h-83c22 78 80 141 155 141c67 0 101 -43 101 -97c0 -112 -121 -149 -192 -221h151l-19 -87h-253l14 67c19 85 206 150 206 222c0 16 -8 29 -28 29z" />
<glyph unicode="&#xb3;" horiz-adv-x="359" d="M352 464c0 -89 -77 -146 -161 -146c-56 0 -105 32 -105 108c0 12 1 25 4 38h83c-1 -5 -2 -10 -2 -15c0 -31 17 -44 37 -44c24 0 50 20 50 51c0 24 -15 33 -34 33h-33l16 76h32c19 0 46 22 46 46c0 19 -16 31 -33 31c-18 0 -45 -17 -52 -53h-83c18 84 81 140 157 140 c59 0 103 -36 103 -95c0 -43 -27 -80 -57 -103c17 -11 32 -37 32 -67z" />
<glyph unicode="&#xb9;" horiz-adv-x="312" d="M287 410l-18 -87h-221l18 87h65l39 183l-40 -38l-46 45l128 124h78l-67 -314h64z" />
<glyph unicode="&#xb5;" horiz-adv-x="539" d="M-6 -230l153 720h100l-69 -326c-1 -8 -2 -15 -2 -22c0 -44 19 -61 46 -61c76 0 151 96 165 163l51 246h100l-85 -401c1 -18 14 -23 29 -23c10 0 20 3 29 5v-72c-23 -9 -44 -9 -59 -9c-67 0 -96 34 -96 90c-44 -59 -106 -90 -153 -90c-22 0 -42 4 -60 11l-49 -231h-100z " />
<glyph unicode="&#xb6;" horiz-adv-x="583" d="M482 -104h-100l143 672h-84l-143 -672h-100l81 379c-108 13 -161 84 -161 164c0 141 137 240 277 240h253z" />
<glyph unicode="&#xb8;" horiz-adv-x="267" d="M66 -98l64 156h77l-45 -103c57 -15 67 -60 67 -85c0 -53 -59 -110 -127 -110c-56 0 -97 41 -111 70l65 50c16 -26 39 -36 55 -36s26 13 27 25c0 13 -14 32 -72 33z" />
<glyph unicode="&#xbc;" horiz-adv-x="788" d="M323 366l-18 -87h-221l18 87h65l39 183l-40 -38l-46 45l128 124h78l-67 -314h64zM248 0h-106l553 681h107zM722 164h42l-18 -77h-42l-19 -87h-90l19 87h-157l18 77l214 240h82zM631 164l22 113l-92 -113h70z" />
<glyph unicode="&#x2044;" horiz-adv-x="278" d="M-49 0h-106l553 681h107z" />
<glyph unicode="&#xbe;" horiz-adv-x="776" d="M703 174h42l-19 -87h-42l-18 -87h-90l18 87h-157l19 87l214 230h82zM612 174l22 103l-92 -103h70zM235 0h-106l554 681h107zM378 425c0 -89 -77 -146 -161 -146c-56 0 -105 32 -105 108c0 12 1 25 4 38h83c-1 -5 -2 -10 -2 -15c0 -31 17 -44 37 -44c24 0 50 20 50 51 c0 24 -15 33 -34 33h-33l16 76h32c19 0 46 22 46 46c0 19 -16 31 -33 31c-18 0 -45 -17 -52 -53h-83c18 84 81 140 157 140c59 0 103 -36 103 -95c0 -43 -27 -80 -57 -103c17 -11 32 -37 32 -67z" />
<glyph unicode="&#xbd;" horiz-adv-x="804" d="M248 0h-106l553 681h107zM323 366l-18 -87h-221l18 87h65l39 183l-40 -38l-46 45l128 124h78l-67 -314h64zM697 319c-22 0 -42 -24 -52 -54h-83c22 78 80 141 155 141c67 0 101 -43 101 -97c0 -112 -121 -150 -192 -222h151l-19 -87h-253l14 67c19 85 206 151 206 223 c0 16 -8 29 -28 29z" />
<glyph unicode="&#x2c6;" horiz-adv-x="318" d="M160 539h-86l117 142h107l56 -142h-85l-40 70z" />
<glyph unicode="&#x2c7;" horiz-adv-x="318" d="M97 680h85l40 -70c22 22 48 47 70 70h85l-116 -142h-107z" />
<glyph unicode="&#x2d8;" horiz-adv-x="317" d="M290 680h85c-19 -87 -86 -139 -154 -139c-62 0 -126 40 -126 116c0 7 1 15 2 23h85c0 -4 -1 -8 -1 -11c0 -31 21 -49 44 -49c26 0 54 22 65 60z" />
<glyph unicode="&#x2d9;" horiz-adv-x="173" d="M169 690c32 0 54 -22 54 -51c0 -40 -39 -77 -82 -77c-35 0 -55 21 -55 50c0 39 37 78 83 78z" />
<glyph unicode="&#x2da;" horiz-adv-x="216" d="M189 690c48 0 75 -28 75 -67c0 -56 -52 -104 -111 -104c-43 0 -72 29 -72 68c0 53 52 103 108 103zM177 632c-16 0 -35 -15 -35 -33c0 -13 10 -23 23 -23c16 0 35 15 35 33c0 13 -10 23 -23 23z" />
<glyph unicode="&#x2db;" horiz-adv-x="185" d="M112 40h26l24 -40c-26 -19 -69 -52 -69 -93c0 -26 18 -49 56 -61l-35 -76c-69 21 -108 60 -108 119c0 67 46 118 106 151z" />
<glyph unicode="&#x2dc;" horiz-adv-x="370" d="M342 681h85c-17 -49 -53 -122 -127 -122c-46 0 -78 50 -106 50c-21 0 -25 -26 -33 -41h-83c19 55 57 122 131 122c40 0 60 -49 99 -49c19 0 25 15 34 40z" />
<glyph unicode="&#x2dd;" horiz-adv-x="428" d="M181 540h-107l124 140h121zM339 540h-106l133 140h121z" />
<glyph unicode="&#x2c9;" horiz-adv-x="300" d="M334 601h-254l17 80h254z" />
<glyph unicode="&#xc6;" horiz-adv-x="832" d="M861 585h-282l-36 -168h258l-20 -95h-258l-48 -227h282l-21 -95h-384l46 213h-153l-160 -213h-112l503 680h405zM321 307h98l41 197c-44 -64 -95 -133 -139 -197z" />
<glyph unicode="&#xdf;" horiz-adv-x="524" d="M169 43l86 69c13 -17 31 -30 53 -30c36 0 77 33 77 81c0 73 -103 105 -103 190c0 79 104 131 104 201c0 24 -13 43 -41 43c-59 0 -91 -62 -102 -114l-103 -483h-98l99 467c26 124 94 222 223 222c102 0 128 -69 128 -119c0 -90 -108 -140 -108 -209 c0 -64 106 -106 106 -190c0 -103 -100 -181 -201 -181c-60 0 -95 22 -120 53z" />
<glyph unicode="&#xde;" horiz-adv-x="539" d="M176 537l30 143h100l-31 -144h90c117 0 191 -79 191 -176c0 -122 -120 -217 -255 -217h-109l-30 -143h-100l114 536h49zM256 439l-43 -201h109c65 0 137 52 137 122c0 38 -31 79 -94 79h-109z" />
<glyph unicode="&#x131;" horiz-adv-x="238" d="M46 116l80 374h100l-85 -398c0 -20 12 -26 27 -26c10 0 20 3 29 5v-72c-23 -9 -44 -9 -59 -9c-67 0 -96 34 -96 89c0 10 1 23 4 37z" />
<glyph unicode="&#xaf;" horiz-adv-x="300" d="M334 600h-254l17 80h254z" />
<glyph unicode="&#x126;" horiz-adv-x="675" d="M539 0h-100l69 322h-277l-69 -322h-100l110 518h-51l17 80h51l18 82h100l-18 -82h277l18 82h100l-18 -82h51l-17 -80h-51zM251 417h277l21 101h-277z" />
<glyph unicode="&#x111;" horiz-adv-x="577" d="M242 -10c-93 0 -175 91 -175 207c0 161 137 303 284 303c41 0 77 -25 105 -60l16 78h-102l17 80h102l17 82h100l-18 -82h42l-17 -80h-42l-90 -427c0 -19 14 -25 29 -25c10 0 20 3 29 5v-72c-23 -9 -44 -9 -59 -9c-53 0 -82 21 -92 56c-42 -34 -92 -56 -146 -56zM262 83 c72 0 155 90 155 199c0 72 -36 125 -86 125c-78 0 -159 -91 -159 -200c0 -71 36 -124 90 -124z" />
<glyph unicode="&#x110;" horiz-adv-x="636" d="M207 680h168c171 0 258 -102 258 -241c0 -236 -146 -439 -403 -439h-168l68 321h-54l20 95h54zM287 585l-36 -169h134l-20 -95h-135l-47 -224h68c169 0 283 149 283 322c0 131 -73 166 -179 166h-68z" />
<glyph unicode="&#xd0;" horiz-adv-x="636" d="M207 680h168c171 0 258 -102 258 -241c0 -236 -146 -439 -403 -439h-168l68 321h-54l20 95h54zM287 585l-36 -169h134l-20 -95h-135l-47 -224h68c169 0 283 149 283 322c0 131 -73 166 -179 166h-68z" />
<glyph unicode="&#xe6;" horiz-adv-x="794" d="M160 350l-60 73c64 49 149 77 210 77c74 0 116 -32 136 -70c49 43 111 70 174 70h5c89 0 168 -57 168 -166c0 -96 -67 -113 -129 -113h-220v-13c0 -72 37 -125 94 -125c47 0 99 25 141 77l59 -66c-66 -72 -144 -104 -220 -104c-60 0 -114 34 -146 88 c-46 -43 -99 -88 -207 -88c-90 0 -128 59 -128 119c0 157 190 187 323 195c0 1 1 2 1 4c1 7 2 15 2 22c0 55 -18 77 -76 77c-42 0 -91 -35 -127 -57zM340 213c0 2 1 5 1 8c-52 -2 -203 -7 -203 -90c0 -31 26 -48 57 -48c53 0 116 59 127 75c10 18 14 33 18 55zM466 304h204 c17 0 19 14 19 29c0 52 -40 74 -89 74s-104 -42 -134 -103z" />
<glyph unicode="&#x132;" horiz-adv-x="759" d="M162 0h-100l145 680h100zM439 585l20 95h320l-100 -481c-30 -141 -124 -209 -258 -209c-109 0 -170 87 -170 188c0 16 2 32 5 49h100c-4 -20 -5 -41 -5 -49c0 -51 26 -92 90 -92c63 0 119 34 136 113l82 386h-220z" />
<glyph unicode="&#x133;" horiz-adv-x="506" d="M119 0h-98l104 491h98zM142 618c0 34 33 72 74 72c28 0 49 -20 49 -47c0 -36 -35 -73 -74 -73c-30 0 -49 21 -49 48zM507 490l-104 -488c-24 -112 -107 -242 -257 -242c-25 0 -54 6 -89 19l59 86c20 -7 39 -12 50 -12c95 0 130 118 137 149l104 488h100zM425 618 c0 34 33 72 74 72c28 0 48 -20 48 -47c0 -34 -33 -73 -73 -73c-30 0 -49 21 -49 48z" />
<glyph unicode="&#x139;" horiz-adv-x="549" d="M183 95h313l-21 -95h-413l145 680h100zM306 716h-86l117 142h108z" />
<glyph unicode="&#x13f;" horiz-adv-x="549" d="M183 95h313l-21 -95h-413l145 680h100zM413 400c33 0 57 -22 57 -54c0 -42 -41 -80 -86 -80c-35 0 -58 22 -58 52c0 41 40 82 87 82z" />
<glyph unicode="&#x140;" horiz-adv-x="386" d="M266 680l-125 -588c0 -20 12 -26 27 -26c10 0 20 3 29 5v-72c-23 -9 -44 -9 -59 -9c-67 0 -96 34 -96 89c0 9 0 20 3 33l121 568h100zM314 400c33 0 57 -22 57 -53c0 -40 -40 -81 -86 -81c-35 0 -58 22 -58 52c0 41 39 82 87 82z" />
<glyph unicode="&#x13d;" horiz-adv-x="549" d="M183 95h313l-21 -95h-413l145 680h100zM458 530h-69c33 56 46 93 58 150h81c-14 -56 -36 -99 -70 -150z" />
<glyph unicode="&#x13e;" horiz-adv-x="269" d="M266 680l-125 -588c0 -20 12 -26 27 -26c10 0 20 3 29 5v-72c-23 -9 -44 -9 -59 -9c-67 0 -96 34 -96 89c0 9 0 20 3 33l121 568h100zM344 530h-69c33 56 46 93 58 150h81c-14 -56 -36 -99 -70 -150z" />
<glyph unicode="&#x123;" horiz-adv-x="507" d="M8 -121c0 62 51 112 108 144c-25 20 -27 39 -27 57c0 33 22 71 58 90c-33 32 -44 79 -44 118c0 114 105 213 230 213c39 0 81 -14 103 -35c23 40 63 80 103 80c19 0 44 -6 67 -22l-52 -87c-8 4 -21 16 -35 16c-19 0 -39 -9 -56 -27c12 -19 21 -51 21 -73 c0 -117 -105 -225 -231 -225c-19 0 -47 4 -66 11c-7 -9 -17 -26 -17 -40c0 -18 26 -34 81 -41c147 -18 203 -45 203 -134c0 -117 -145 -164 -267 -164c-108 0 -179 47 -179 119zM314 408c-54 0 -110 -53 -110 -114c0 -42 28 -73 70 -73c54 0 109 54 109 114 c0 41 -28 73 -69 73zM207 -147c38 0 141 13 141 71c0 53 -119 58 -179 60c-25 -19 -58 -44 -58 -76c0 -31 30 -55 96 -55zM346 680h69c-33 -56 -46 -93 -58 -150h-81c14 56 36 99 70 150z" />
<glyph unicode="&#x137;" horiz-adv-x="493" d="M142 0h-100l145 680h100l-72 -329l189 139l148 1l-309 -223l197 -268l-118 1l-138 205zM168 -230h-83c32 56 56 117 68 175h91c-21 -89 -40 -122 -76 -175z" />
<glyph unicode="&#x138;" horiz-adv-x="491" d="M142 0h-100l104 490h99l-30 -139l189 139h146l-307 -222l197 -268l-118 1l-138 205z" />
<glyph unicode="&#x13b;" horiz-adv-x="549" d="M183 95h313l-21 -95h-413l145 680h100zM250 -230h-83c32 56 56 117 68 175h91c-21 -89 -40 -122 -76 -175z" />
<glyph unicode="&#x13c;" horiz-adv-x="237" d="M266 680l-125 -588c0 -20 12 -26 27 -26c10 0 20 3 29 5v-72c-23 -9 -44 -9 -59 -9c-67 0 -96 34 -96 89c0 9 0 20 3 33l121 568h100zM73 -230h-83c32 56 56 117 68 175h91c-21 -89 -40 -122 -76 -175z" />
<glyph unicode="&#xf0;" horiz-adv-x="506" d="M322 690c50 0 86 -16 113 -42l36 32h96l-96 -83c19 -42 27 -94 27 -147c0 -51 -7 -104 -17 -149c-25 -120 -104 -311 -270 -311c-114 0 -160 85 -160 172c0 131 99 283 252 283c37 0 73 -13 96 -59c3 19 5 37 5 55c0 31 -5 61 -15 86l-61 -52h-89l117 103 c-14 12 -30 19 -49 19c-17 0 -33 -2 -79 -29l-53 66c41 33 102 56 147 56zM286 354c-84 0 -136 -100 -136 -177c0 -64 39 -94 77 -94c91 0 133 123 152 199c-11 38 -52 72 -93 72z" />
<glyph unicode="&#x10f;" horiz-adv-x="577" d="M676 505h-84c33 56 57 118 69 175h91c-20 -88 -39 -122 -76 -175zM242 -10c-93 0 -175 91 -175 207c0 161 137 303 284 303c41 0 77 -25 105 -60l50 240h100l-125 -589c0 -19 14 -25 29 -25c10 0 20 3 29 5v-72c-23 -9 -44 -9 -59 -9c-53 0 -82 21 -92 56 c-42 -34 -92 -56 -146 -56zM262 83c72 0 155 90 155 199c0 72 -36 125 -86 125c-78 0 -159 -91 -159 -200c0 -71 36 -124 90 -124z" />
<glyph unicode="&#x149;" horiz-adv-x="539" d="M368 116c46 218 49 225 49 232c0 44 -22 61 -49 61c-76 0 -151 -96 -165 -163l-51 -246h-100l104 491h95l-13 -81c44 59 102 90 149 90c72 0 133 -44 133 -122c0 -12 -1 -25 -4 -38l-53 -248c0 -20 12 -26 27 -26c10 0 20 3 29 5v-72c-23 -9 -44 -9 -59 -9 c-67 0 -96 34 -96 89c0 10 1 23 4 37zM123 530h-69c33 56 46 93 58 150h81c-14 -56 -36 -99 -70 -150z" />
<glyph unicode="&#x153;" horiz-adv-x="864" d="M690 500c94 0 173 -57 173 -166c0 -96 -67 -113 -129 -113h-220v-13c0 -72 37 -125 94 -125c47 0 99 25 141 77l59 -66c-66 -72 -144 -104 -220 -104c-63 0 -118 37 -150 94c-53 -57 -125 -94 -200 -94c-91 0 -171 92 -171 207c0 162 135 303 280 303 c59 0 114 -37 146 -94c52 57 123 94 197 94zM327 407c-72 0 -155 -90 -155 -199c0 -72 36 -125 86 -125c78 0 159 91 159 200c0 71 -36 124 -90 124zM536 304h204c17 0 19 14 19 29c0 52 -40 74 -89 74s-104 -42 -134 -103z" />
<glyph unicode="&#x152;" horiz-adv-x="874" d="M517 577c-20 10 -49 18 -75 18c-150 0 -261 -189 -261 -332c0 -109 56 -177 154 -177c29 0 56 6 81 18c1 1 3 16 101 473zM540 680h383l-20 -95h-283l-36 -168h259l-20 -95h-259l-48 -227h283l-21 -95h-383c-24 -5 -55 -10 -81 -10c-145 0 -239 115 -239 266 c0 203 153 434 387 434c24 0 57 -4 78 -10z" />
<glyph unicode="&#x157;" horiz-adv-x="400" d="M251 490l-17 -102c48 85 96 112 148 112c25 0 53 -9 84 -31l-61 -89c-23 14 -39 19 -51 19c-61 0 -133 -67 -149 -143l-53 -256h-100l104 490h95zM61 -230h-83c32 56 56 117 68 175h91c-21 -89 -40 -122 -76 -175z" />
<glyph horiz-adv-x="370" d="M361 858h85c-17 -49 -53 -122 -127 -122c-46 0 -78 50 -106 50c-21 0 -25 -26 -33 -41h-83c19 55 57 122 131 122c40 0 60 -49 99 -49c19 0 25 15 34 40z" />
<glyph horiz-adv-x="216" d="M207 869c48 0 75 -28 75 -67c0 -56 -52 -104 -111 -104c-43 0 -72 29 -72 68c0 54 49 103 108 103zM195 811c-16 0 -35 -15 -35 -33c0 -13 10 -23 23 -23c16 0 35 15 35 33c0 13 -10 23 -23 23z" />
<glyph horiz-adv-x="170" d="M184 860c32 0 54 -21 54 -49c0 -40 -39 -76 -81 -76c-34 0 -53 21 -53 49c0 38 35 76 80 76z" />
<glyph horiz-adv-x="311" d="M309 858h85c-19 -87 -86 -139 -154 -139c-62 0 -126 40 -126 116c0 7 1 15 2 23h85c0 -4 -1 -8 -1 -11c0 -31 21 -49 44 -49c26 0 54 22 65 60z" />
<glyph horiz-adv-x="318" d="M115 858h86l39 -70l69 70h86l-117 -142h-106z" />
<glyph horiz-adv-x="318" d="M179 716h-86l117 142h106l57 -142h-86l-39 70z" />
<glyph horiz-adv-x="241" d="M179 716h-86l117 142h108z" />
<glyph horiz-adv-x="295" d="M352 779h-249l17 79h249z" />
<glyph horiz-adv-x="308" d="M177 870c28 0 47 -19 47 -46c0 -35 -33 -68 -71 -68c-31 0 -49 19 -49 44c0 37 33 70 73 70zM328 870c29 0 48 -19 48 -46c0 -35 -34 -68 -72 -68c-29 0 -47 18 -47 43c0 36 31 71 71 71z" />
<glyph horiz-adv-x="225" d="M280 716h-85l-80 142h109z" />
<glyph unicode="&#xf6c3;" horiz-adv-x="166" d="M70 -230h-83c32 56 56 117 68 175h91c-21 -89 -40 -122 -76 -175z" />
<glyph horiz-adv-x="426" d="M200 718h-107l121 140h120zM355 718h-106l133 140h121z" />
<glyph horiz-adv-x="166" d="M151 505h-84c33 56 57 118 69 175h91c-21 -88 -40 -122 -76 -175z" />
<glyph unicode=" "  horiz-adv-x="250" />
<glyph unicode="&#x09;" horiz-adv-x="250" />
<glyph unicode="&#xa0;" horiz-adv-x="250" />
<glyph unicode="&#x2202;" horiz-adv-x="506" d="M322 690c136 0 176 -117 176 -240c0 -51 -7 -104 -17 -149c-25 -120 -104 -311 -270 -311c-114 0 -160 85 -160 172c0 131 99 283 252 283c37 0 73 -13 96 -59c3 19 5 37 5 55c0 83 -35 156 -97 156c-17 0 -33 -2 -79 -29l-53 66c41 33 102 56 147 56zM286 354 c-84 0 -136 -100 -136 -177c0 -64 39 -94 77 -94c91 0 133 123 152 199c-11 38 -52 72 -93 72z" />
<glyph unicode="&#x142;" horiz-adv-x="234" d="M268 680l-47 -220l88 42l-16 -77l-88 -42l-62 -291c0 -20 12 -26 27 -26c10 0 20 3 29 5v-72c-23 -9 -44 -9 -59 -9c-67 0 -96 34 -96 89c0 9 0 20 3 33l46 218l-86 -41l16 77l87 41l58 273h100z" />
<glyph unicode="&#x141;" horiz-adv-x="549" d="M183 95h313l-21 -95h-413l59 279l-80 -38l17 80l80 38l69 321h100l-57 -268l210 100l-16 -78l-211 -101z" />
<glyph unicode="&#xfe;" horiz-adv-x="582" d="M388 500c93 0 175 -91 175 -207c0 -161 -137 -303 -284 -303c-41 0 -78 24 -106 59l-58 -280h-100l193 911h100l-48 -225c38 28 82 45 128 45zM368 407c-72 0 -155 -90 -155 -199c0 -72 36 -125 86 -125c78 0 159 91 159 200c0 71 -36 124 -90 124z" />
<glyph unicode="&#xf7;" horiz-adv-x="697" d="M354 186c33 0 58 -21 58 -52c0 -40 -40 -81 -86 -81c-34 0 -57 22 -57 52c0 41 38 81 85 81zM430 542c33 0 57 -22 57 -53c0 -40 -38 -80 -85 -80c-34 0 -57 22 -57 52c0 40 38 81 85 81zM684 345l-20 -93h-591l20 93h591z" />
<glyph unicode="&#xd7;" horiz-adv-x="581" d="M197 536l137 -174l210 174l57 -66l-213 -177l137 -174l-74 -68l-140 179l-216 -179l-54 68l216 179l-137 176z" />
<glyph unicode="&#x2021;" horiz-adv-x="659" d="M328 -75h-100l51 241h-217l20 93h217l33 158h-217l20 93h217l51 241h100l-51 -241h217l-20 -93h-217l-33 -158h217l-20 -93h-217z" />
<glyph unicode="&#x2020;" horiz-adv-x="660" d="M328 -75h-100l104 492h-217l20 93h217l51 241h100l-51 -241h217l-20 -93h-217z" />
<glyph unicode="&#x192;" horiz-adv-x="423" d="M233 490l4 18c25 119 113 182 196 182c38 0 75 -5 105 -32l-59 -75c-19 14 -41 14 -61 14c-34 0 -64 -26 -81 -88l-4 -19h127l-20 -92h-127l-86 -407c-16 -76 -79 -159 -178 -159c-47 0 -81 21 -106 42l61 74c25 -24 44 -25 63 -25c31 0 55 46 61 75l85 400h-65l20 92h65 z" />
<glyph unicode="&#x2019;" horiz-adv-x="249" d="M188 500h-76c30 52 51 114 65 180h84c-16 -64 -39 -127 -73 -180z" />
<glyph unicode="&#x201c;" horiz-adv-x="388" d="M325 680h75c-30 -53 -51 -115 -65 -180h-83c16 63 39 126 73 180zM185 680h76c-30 -53 -51 -115 -65 -180h-84c16 63 39 126 73 180z" />
<glyph unicode="&#x201d;" horiz-adv-x="388" d="M188 500h-76c30 52 51 114 65 180h84c-16 -64 -39 -127 -73 -180zM327 500h-75c30 52 51 114 65 180h83c-16 -64 -39 -127 -73 -180z" />
<glyph unicode="&#x2018;" horiz-adv-x="249" d="M185 680h76c-30 -53 -51 -115 -65 -180h-84c16 63 39 126 73 180z" />
<glyph unicode="&#x201e;" horiz-adv-x="387" d="M125 -58h-76c30 53 51 116 65 182h84c-16 -64 -39 -128 -73 -182zM264 -58h-75c30 53 51 116 65 182h83c-16 -64 -39 -128 -73 -182z" />
<glyph unicode="&#x201a;" horiz-adv-x="248" d="M125 -57h-76c30 53 51 115 65 181h84c-16 -64 -39 -127 -73 -181z" />
<glyph unicode="&#x2022;" horiz-adv-x="331" d="M219 407c55 0 94 -37 94 -89c0 -68 -68 -129 -140 -129c-57 0 -95 36 -95 85c0 70 66 133 141 133z" />
<glyph unicode="&#x20ac;" horiz-adv-x="692" d="M458 215h-198c13 -85 61 -130 130 -130c45 0 120 46 181 124l65 -74c-88 -97 -174 -145 -266 -145c-115 0 -206 88 -219 225h-71l17 80h55c2 18 5 36 9 55h-52l17 80h58c55 140 171 261 335 261c82 0 160 -42 205 -144l-80 -61c-26 72 -94 110 -145 110 c-74 0 -156 -64 -204 -166h209l-17 -80h-219c-5 -17 -8 -33 -10 -55h217z" />
<glyph unicode="&#x2039;" horiz-adv-x="306" d="M157 85l-64 209l146 182h106l-146 -182l63 -209h-105z" />
<glyph unicode="&#x203a;" horiz-adv-x="309" d="M278 294l-153 -209h-105l153 209l-68 182h106z" />
<glyph unicode="&#x2122;" horiz-adv-x="826" d="M433 592h-106l-66 -313h-90l66 313h-107l19 88h303zM609 279h-61l-28 184l-59 -184h-89l119 401h92l32 -228l130 228h90l-49 -401h-91l20 184z" />
<glyph unicode="&#x165;" horiz-adv-x="355" d="M102 155l51 243h-65l20 92h65l25 120h99l-25 -120h119l-20 -92h-119l-51 -242c-2 -7 -3 -16 -3 -24c0 -25 8 -50 30 -50c20 0 48 14 83 39l30 -91c-35 -23 -87 -40 -133 -40c-81 0 -111 58 -111 120c0 15 2 30 5 45zM398 530h-69c33 56 46 93 58 150h81 c-14 -56 -36 -99 -70 -150z" />
<glyph unicode="&#x2260;" horiz-adv-x="639" d="M169 55h-115l96 96h-98l20 94h173l96 96h-248l20 94h322l96 95h116l-96 -95h97l-20 -94h-172l-96 -96h247l-20 -94h-322z" />
<glyph unicode="&#x2264;" horiz-adv-x="473" d="M406 93l-20 -93h-376l20 93h376zM228 467l225 -155l-23 -103l-327 231l12 56l425 231l-22 -103z" />
<glyph unicode="&#x2265;" horiz-adv-x="475" d="M10 0l20 93h376l-20 -93h-376zM367 473l-225 155l23 103l327 -231l-12 -56l-425 -231l22 103z" />
<glyph unicode="&#x163;" horiz-adv-x="385" d="M138 -98l41 101c-37 21 -52 63 -52 107c0 15 2 30 5 45l51 243h-65l20 92h65l25 120h99l-25 -120h119l-20 -92h-119l-51 -242c-2 -7 -3 -16 -3 -24c0 -25 8 -50 30 -50c20 0 48 14 83 39l30 -91c-32 -21 -79 -37 -122 -39l-15 -36c57 -15 67 -60 67 -85 c0 -53 -59 -110 -127 -110c-56 0 -97 41 -111 70l65 50c16 -26 39 -36 55 -36s26 13 27 25c0 13 -14 32 -72 33z" />
<glyph unicode="&#x162;" horiz-adv-x="522" d="M149 -98l40 98h-11l125 585h-198l20 95h496l-20 -95h-198l-125 -585h-14l-19 -45c57 -15 67 -60 67 -85c0 -53 -59 -110 -127 -110c-56 0 -97 41 -111 70l65 50c16 -26 39 -36 55 -36s26 13 27 25c0 13 -14 32 -72 33z" />
<glyph unicode="&#x21a;" horiz-adv-x="522" d="M601 585h-198l-125 -585h-100l125 585h-198l20 95h496zM189 -230h-83c32 56 56 117 68 175h91c-21 -89 -40 -122 -76 -175z" />
<glyph unicode="&#x21b;" horiz-adv-x="376" d="M123 155l51 243h-65l20 92h65l25 120h99l-25 -120h119l-20 -92h-119l-51 -242c-2 -7 -3 -16 -3 -24c0 -25 8 -50 30 -50c20 0 48 14 83 39l30 -91c-35 -23 -87 -40 -133 -40c-81 0 -111 58 -111 120c0 15 2 30 5 45zM172 -230h-83c32 56 56 117 68 175h91 c-21 -89 -40 -122 -76 -175z" />
<glyph unicode="&#x219;" horiz-adv-x="411" d="M186 82c53 0 91 27 91 61c0 32 -42 56 -80 73c-54 24 -115 52 -115 121c0 93 67 163 206 163c44 0 103 -23 145 -74l-74 -60c-25 31 -62 41 -91 41c-43 0 -83 -18 -83 -53c0 -23 37 -43 74 -61c57 -28 122 -59 122 -133c0 -98 -92 -170 -215 -170c-46 0 -105 23 -147 74 l74 60c25 -31 62 -42 93 -42zM132 -230h-83c32 56 56 117 68 175h91c-21 -89 -40 -122 -76 -175z" />
<glyph unicode="&#x2206;" horiz-adv-x="739" d="M483 715l170 -715h-641zM434 480l-255 -385h346z" />
<glyph unicode="&#x25ca;" horiz-adv-x="590" d="M85 347l320 352l172 -352l-321 -350zM461 347l-90 190l-170 -190l88 -192c58 63 113 127 172 192z" />
<glyph unicode="&#x2211;" horiz-adv-x="556" d="M431 356l-260 -261h320l-21 -95h-458l18 83l276 272l-167 243l18 82h452l-20 -95h-311z" />
<glyph unicode="&#x221a;" horiz-adv-x="642" d="M330 155l307 525h104l-398 -680h-92l-62 367c-40 -39 -62 -60 -74 -73l-64 62l136 134h87z" />
<glyph unicode="&#x221e;" horiz-adv-x="757" d="M280 359c68 0 112 -26 133 -65c40 34 103 65 166 65c103 0 152 -62 152 -131c0 -107 -93 -198 -216 -198c-65 0 -111 28 -134 64c-37 -34 -98 -64 -164 -64c-104 0 -152 62 -152 132c0 117 102 197 215 197zM534 127c43 0 97 26 97 81c0 26 -15 57 -68 57 c-60 0 -101 -46 -119 -73c10 -22 40 -65 90 -65zM263 265c-43 0 -98 -28 -98 -83c0 -26 16 -55 69 -55c59 0 100 43 119 69c-11 24 -40 69 -90 69z" />
<glyph unicode="&#x220f;" horiz-adv-x="578" d="M475 -109h-100l148 694h-280l-148 -694h-99l167 789h480z" />
<glyph unicode="&#x222b;" horiz-adv-x="438" d="M187 250l55 258c25 119 113 182 196 182c38 0 75 -5 105 -32l-59 -75c-19 14 -41 14 -61 14c-34 0 -64 -26 -81 -88l-110 -518c-16 -76 -79 -159 -178 -159c-47 0 -81 21 -106 42l61 74c25 -24 44 -25 63 -25c31 0 55 46 61 75z" />
<glyph unicode="&#x3a9;" horiz-adv-x="749" d="M483 690c147 0 243 -114 243 -267c0 -141 -56 -239 -147 -328h103l-20 -95h-275l19 89c124 47 213 182 213 319c0 109 -60 187 -156 187c-153 0 -263 -176 -263 -320c0 -87 40 -158 107 -186l-19 -89h-276l20 95h104c-28 43 -44 97 -44 158c0 214 170 437 391 437z" />
<glyph unicode="&#x2248;" horiz-adv-x="640" d="M423 136c-72 0 -128 41 -203 41c-28 0 -53 -14 -83 -45l-84 39c58 74 136 101 188 101c72 0 127 -42 202 -42c27 0 53 15 83 46c45 -20 72 -33 83 -40c-58 -73 -134 -100 -186 -100zM463 325c-72 0 -127 42 -202 42c-28 0 -53 -15 -84 -46c-44 20 -74 34 -85 40 c59 73 137 101 189 101c72 0 127 -43 202 -43c27 0 53 15 84 47c45 -20 72 -33 82 -40c-57 -74 -134 -101 -186 -101z" />
<glyph unicode="&#x3c0;" horiz-adv-x="592" d="M384 154l52 242l-162 2l-85 -398h-100l85 398h-61l18 93h490l-19 -93h-68l-52 -241c-1 -7 -2 -15 -2 -23c0 -26 8 -52 54 -52l-19 -92h-24c-82 0 -112 57 -112 120c0 15 2 29 5 44z" />
<glyph unicode="&#x12c;" horiz-adv-x="298" d="M162 0h-100l145 680h100zM336 858h85c-19 -87 -86 -139 -154 -139c-62 0 -126 40 -126 116c0 7 1 15 2 23h85c0 -4 -1 -8 -1 -11c0 -31 21 -49 44 -49c26 0 54 22 65 60z" />
<glyph unicode="&#x12d;" horiz-adv-x="238" d="M46 116l80 374h100l-85 -398c0 -20 12 -26 27 -26c10 0 20 3 29 5v-72c-23 -9 -44 -9 -59 -9c-67 0 -96 34 -96 89c0 10 1 23 4 37zM257 680h85c-19 -87 -86 -139 -154 -139c-62 0 -126 40 -126 116c0 7 1 15 2 23h85c0 -4 -1 -8 -1 -11c0 -31 21 -49 44 -49 c26 0 54 22 65 60z" />
<glyph unicode="&#x17f;" horiz-adv-x="340" d="M166 490l4 18c25 119 113 182 196 182c38 0 75 -5 105 -32l-59 -75c-19 14 -41 14 -61 14c-34 0 -64 -26 -81 -88l-108 -509h-100l84 398h-65l20 92h65z" />
<glyph unicode="&#x166;" horiz-adv-x="522" d="M601 585h-198l-39 -183h77l-17 -80h-77l-69 -322h-100l69 322h-78l17 80h78l39 183h-198l20 95h496z" />
<glyph unicode="&#x167;" horiz-adv-x="355" d="M102 155l19 92h-65l17 80h65l15 71h-65l20 92h65l25 120h99l-25 -120h119l-20 -92h-119l-15 -71h61l-17 -80h-61l-19 -91c-2 -7 -3 -16 -3 -24c0 -25 8 -50 30 -50c20 0 48 14 83 39l30 -91c-35 -23 -87 -40 -133 -40c-81 0 -111 58 -111 120c0 15 2 30 5 45z" />
<glyph unicode="&#x14a;" horiz-adv-x="673" d="M305 -147c95 0 126 118 133 149l2 9l-174 465l-104 -476h-100l145 680h93l178 -480l104 480h100l-144 -678c-24 -112 -103 -242 -253 -242c-25 0 -54 6 -89 19l59 86c20 -7 39 -12 50 -12z" />
<glyph unicode="&#x14b;" horiz-adv-x="545" d="M207 -147c95 0 130 118 137 149l2 12c47 223 71 327 71 334c0 44 -22 61 -49 61c-76 0 -151 -96 -165 -163l-51 -246h-100l104 491h95l-13 -81c44 59 102 90 149 90c72 0 133 -44 133 -122c0 -12 -1 -25 -4 -38l-72 -338c-24 -112 -107 -242 -257 -242 c-25 0 -54 6 -89 19l59 86c20 -7 39 -12 50 -12z" />
<glyph unicode="&#xfb05;" horiz-adv-x="646" d="M426 683l-19 -89c-13 2 -25 3 -36 3c-53 0 -81 -21 -101 -88l-108 -509h-100l84 398h-65l20 92h65l4 18c25 119 113 182 196 182c21 0 41 -1 60 -7zM380 155l51 243h-65l20 92h65l25 120h99l-25 -120h119l-20 -92h-119l-51 -242c-2 -7 -3 -16 -3 -24c0 -25 8 -50 30 -50 c20 0 48 14 83 39l30 -91c-35 -23 -87 -40 -133 -40c-81 0 -111 58 -111 120c0 15 2 30 5 45z" />
<glyph unicode="&#x20a3;" horiz-adv-x="516" d="M555 585h-262l-37 -173h236l-20 -95h-236l-17 -76h123l-17 -80h-123l-34 -161h-100l34 161h-53l17 80h53l94 439h362z" />
<glyph unicode="&#x20a4;" horiz-adv-x="546" d="M418 330h-162l-7 -35h163l-17 -80h-163l-18 -86c-4 -14 -7 -23 -19 -35h258l-20 -94h-411l19 92c46 3 57 10 62 23l21 100h-56l17 80h56l8 35h-57l17 80h57l13 61c24 113 102 219 246 219c64 0 123 -27 163 -49l-58 -84c-11 7 -78 39 -124 39c-75 0 -108 -69 -120 -125 l-13 -61h162z" />
<glyph unicode="&#x20a7;" horiz-adv-x="553" d="M199 680h189c107 0 178 -66 189 -151h59l-17 -80h-48c-30 -95 -133 -162 -247 -162h-109l-61 -287h-100l95 449h-49l17 80h49zM345 382c46 0 96 26 121 67h-216l-14 -67h109zM279 583l-12 -54h210c-10 29 -40 54 -89 54h-109z" />
<glyph unicode="&#x2113;" horiz-adv-x="411" d="M265 524l-53 -242c95 86 185 170 185 303c0 41 -23 58 -48 58c-34 0 -69 -48 -84 -119zM103 170l-47 -27l-15 37l75 54l62 292c23 107 110 164 181 164c53 0 97 -32 97 -99c0 -151 -138 -280 -255 -373c-20 -84 -20 -103 -20 -121c0 -26 7 -49 30 -49c27 0 53 11 79 29 l15 -55c-25 -16 -64 -32 -108 -32c-75 0 -104 54 -104 114c0 15 2 29 10 66z" />
<glyph unicode="&#x212e;" horiz-adv-x="645" d="M305 -11c-165 0 -234 100 -234 225c0 188 140 387 353 387c138 0 217 -75 217 -202c0 -34 -3 -51 -19 -116h-434l-32 -148c33 -62 101 -88 161 -88c68 0 153 30 208 100l45 -42c-74 -77 -162 -116 -265 -116zM225 460l-26 -123h332l27 128c-25 50 -76 78 -146 78 c-72 0 -138 -30 -187 -83z" />
<glyph horiz-adv-x="330" d="M219 478c54 0 94 -35 94 -87c0 -69 -67 -131 -140 -131c-57 0 -96 37 -96 87c0 69 69 131 142 131z" />
<glyph horiz-adv-x="322" d="M186 519h103l-110 -519h-103zM250 570c-29 0 -51 21 -51 48c0 37 37 72 76 72c32 0 52 -20 52 -47c0 -36 -35 -73 -77 -73z" />
<glyph horiz-adv-x="239" d="M164 436c33 0 57 -22 57 -54c0 -42 -41 -80 -86 -80c-35 0 -58 22 -58 52c0 41 40 82 87 82z" />
<glyph horiz-adv-x="425" d="M194 518l-64 68c69 67 135 104 207 104c83 0 151 -66 151 -150c0 -168 -185 -213 -200 -287l-19 -92h-100l19 92c28 129 194 162 194 274c0 52 -36 68 -67 68c-33 0 -74 -38 -121 -77zM210 110c30 0 51 -21 51 -49c0 -38 -37 -71 -77 -71c-31 0 -51 20 -51 47 c0 36 35 73 77 73z" />
<glyph horiz-adv-x="426" d="M303 162l64 -68c-69 -67 -135 -104 -207 -104c-83 0 -151 66 -151 150c0 168 185 213 200 287l19 92h100l-19 -92c-28 -129 -194 -162 -194 -274c0 -52 36 -68 67 -68c33 0 74 38 121 77zM287 570c-30 0 -51 21 -51 49c0 38 37 71 77 71c31 0 51 -20 51 -47 c0 -36 -35 -73 -77 -73z" />
<glyph horiz-adv-x="348" d="M240 369c23 -26 39 -48 39 -78c0 -82 -39 -162 -39 -238c0 -21 7 -43 25 -67l-26 -120c-78 52 -101 104 -101 161c0 75 42 142 42 220c0 48 -25 86 -62 122c63 44 111 91 124 153c9 41 12 82 22 128c17 81 54 153 190 223l-26 -120c-40 -34 -55 -63 -62 -94 c-9 -44 -14 -87 -25 -137c-16 -75 -42 -109 -101 -153z" />
<glyph horiz-adv-x="349" d="M187 370c-23 26 -39 48 -39 78c0 82 39 162 39 238c0 21 -7 43 -25 67l26 120c78 -52 101 -104 101 -161c0 -75 -42 -142 -42 -220c0 -48 25 -86 62 -122c-63 -44 -111 -91 -124 -153c-9 -41 -12 -82 -22 -128c-17 -81 -54 -153 -190 -223l26 120c40 34 55 63 62 94 c9 44 14 87 25 137c16 75 42 109 101 153z" />
<glyph horiz-adv-x="354" d="M34 -103l201 946h213l-21 -95h-114l-160 -757h114l-20 -94h-213z" />
<glyph horiz-adv-x="354" d="M388 842l-201 -946h-212l20 94h113l160 757h-114l21 95h213z" />
<glyph horiz-adv-x="406" d="M474 829l58 -87c-166 -94 -294 -279 -294 -479c0 -114 35 -210 115 -284l-76 -72c-92 83 -145 219 -145 353c0 232 145 461 342 569z" />
<glyph horiz-adv-x="410" d="M19 -93l-66 72c166 94 297 294 297 494c0 114 -35 205 -109 269l70 87c88 -76 145 -219 145 -353c0 -232 -140 -461 -337 -569z" />
<glyph horiz-adv-x="297" d="M147 -71h-99l172 811h99z" />
<glyph horiz-adv-x="993" d="M133 416h907l-20 -95h-907z" />
<glyph horiz-adv-x="618" d="M133 416h532l-20 -95h-532z" />
<glyph horiz-adv-x="457" d="M484 321h-371l20 95h371z" />
<glyph horiz-adv-x="469" d="M177 160l-64 209l146 182h106l-146 -182l63 -209h-105zM345 160l-63 209l144 182h106l-145 -182l63 -209h-105z" />
<glyph horiz-adv-x="478" d="M456 370l-154 -209h-104l152 209l-67 182h105zM287 370l-153 -209h-105l153 209l-68 182h106z" />
<glyph horiz-adv-x="302" d="M177 164l-64 209l146 182h106l-146 -182l63 -209h-105z" />
<glyph horiz-adv-x="309" d="M287 373l-153 -209h-105l153 209l-68 182h106z" />
<glyph horiz-adv-x="896" d="M696 212h-97l-1 36c-41 -47 -99 -67 -132 -67c-95 0 -146 69 -146 138c0 146 146 213 283 213c17 0 37 0 56 -2c1 4 1 7 1 11c0 53 -43 75 -101 75c-162 0 -300 -161 -300 -322c0 -128 83 -214 220 -214c158 0 294 138 332 294h106c-45 -215 -252 -390 -457 -390 c-180 0 -307 127 -307 296c0 207 193 431 421 431c78 0 193 -34 193 -146c0 -14 -2 -29 -5 -45zM623 365l18 88c-66 -3 -215 -23 -215 -117c0 -40 22 -60 61 -60c53 0 123 70 136 89z" />
<glyph d="M364 690c136 0 220 -124 220 -278c0 -223 -179 -422 -368 -422c-135 0 -216 120 -216 273c0 223 175 427 364 427zM345 596c-107 0 -237 -148 -237 -317c0 -111 53 -195 128 -195c112 0 240 145 240 316c0 110 -53 196 -131 196z" />
<glyph d="M474 95l-21 -95h-345l21 95h122l95 451c-35 -21 -76 -43 -110 -64l-47 70l199 128h88l-124 -585h122z" />
<glyph d="M362 596c-63 0 -103 -58 -120 -125h-105c28 130 110 219 246 219c107 0 163 -73 163 -161c0 -225 -298 -270 -387 -434h304l-20 -95h-406l20 94c31 144 381 279 381 418c0 44 -23 84 -76 84z" />
<glyph d="M215 -10c-102 0 -161 73 -161 163c0 15 1 32 5 48h106c-2 -11 -4 -22 -4 -32c0 -57 41 -84 86 -84c61 0 129 45 129 138c0 63 -42 87 -91 87h-76l20 94h74c56 0 118 45 118 118c0 49 -32 74 -71 74c-62 0 -112 -50 -128 -125h-106c25 129 117 219 247 219 c96 0 167 -56 167 -151c0 -73 -32 -138 -110 -176c43 -22 65 -65 65 -121c0 -181 -132 -252 -270 -252z" />
<glyph d="M454 255h79l-20 -93h-79l-35 -162h-100l35 162h-294l17 80l390 438h97zM353 255l54 258c-70 -77 -149 -168 -225 -258h171z" />
<glyph d="M518 585h-235l-54 -139c29 11 61 18 89 18c87 0 170 -58 170 -183s-72 -291 -275 -291c-103 0 -167 71 -167 161c0 15 2 32 5 48h106c-2 -9 -3 -18 -3 -27c0 -49 35 -88 77 -88c106 0 149 101 149 179c0 70 -40 107 -83 107c-51 0 -94 -26 -121 -60h-99l139 370h322z" />
<glyph d="M346 596c-84 0 -136 -87 -165 -170c41 26 88 41 137 41c131 0 175 -96 175 -187c0 -130 -81 -290 -280 -290c-140 0 -178 133 -178 241c0 213 111 459 333 459c79 0 141 -36 180 -99l-92 -70c-22 46 -63 75 -110 75zM297 373c-47 0 -116 -37 -146 -76 c-4 -22 -7 -48 -7 -74c0 -69 21 -139 92 -139c62 0 149 66 149 179c0 64 -33 110 -88 110z" />
<glyph d="M409 585h-295l20 95h411l-17 -78l-380 -602h-109z" />
<glyph d="M226 -10c-108 0 -181 80 -181 163c0 98 72 175 145 207c-30 28 -56 69 -56 119c0 142 120 211 241 211c85 0 163 -50 163 -146c0 -82 -56 -148 -124 -184c36 -27 75 -72 75 -139c0 -128 -103 -231 -263 -231zM246 84c63 0 135 46 135 116c0 58 -61 95 -101 111 c-59 -34 -127 -71 -127 -140c0 -49 30 -87 93 -87zM430 527c0 48 -36 69 -75 69s-112 -29 -112 -100c0 -52 48 -80 75 -91c34 17 112 60 112 122z" />
<glyph d="M237 84c84 0 136 87 165 170c-41 -26 -88 -41 -137 -41c-131 0 -175 96 -175 187c0 130 81 290 280 290c140 0 178 -133 178 -241c0 -213 -111 -459 -333 -459c-79 0 -141 36 -180 99l92 70c22 -46 63 -75 110 -75zM286 307c47 0 116 37 146 76c4 22 7 48 7 74 c0 69 -21 139 -92 139c-62 0 -149 -66 -149 -179c0 -64 33 -110 88 -110z" />
<glyph d="M348 215h-198c13 -85 61 -130 130 -130c45 0 120 46 181 124l65 -74c-88 -97 -174 -145 -266 -145c-115 0 -206 88 -219 225h-71l17 80h55c2 18 5 36 9 55h-52l17 80h58c55 140 171 261 335 261c82 0 160 -42 205 -144l-80 -61c-26 72 -94 110 -145 110 c-74 0 -156 -64 -204 -166h209l-17 -80h-219c-5 -17 -8 -33 -10 -55h217z" />
<glyph d="M285 490l4 18c25 119 113 182 196 182c38 0 75 -5 105 -32l-59 -75c-19 14 -41 14 -61 14c-34 0 -64 -26 -81 -88l-4 -19h127l-20 -92h-127l-86 -407c-16 -76 -79 -159 -178 -159c-47 0 -81 21 -106 42l61 74c25 -24 44 -25 63 -25c31 0 55 46 61 75l85 400h-65l20 92h65 z" />
<glyph d="M259 83c43 0 94 37 136 89l64 -71c-51 -57 -107 -90 -160 -103l-21 -98h-100l21 96c-73 22 -131 103 -131 201c0 146 109 274 237 299l20 94h100l-21 -99c45 -14 84 -47 112 -102l-79 -54c-20 53 -66 72 -109 72c-72 0 -156 -90 -156 -199c0 -72 37 -125 87 -125z" />
<glyph d="M168 334h-114l17 80h58l-130 266h100l133 -263l231 263h122l-244 -266h56l-17 -80h-112l-8 -35h113l-17 -80h-113l-46 -219h-100l46 219h-113l17 80h113z" />
<glyph d="M272 -70h-101l13 62c-76 8 -136 38 -168 61l64 77c53 -32 115 -46 163 -46c63 0 162 47 162 123c0 33 -27 68 -119 106c-97 40 -169 73 -169 152c0 115 99 198 214 219l15 67h101l-14 -64c55 -9 99 -32 134 -52l-59 -81c-40 27 -91 41 -137 41c-57 0 -148 -34 -148 -106 c0 -103 287 -104 287 -262c0 -120 -106 -207 -224 -230z" />
<glyph d="M405 330h-162l-42 -201c-4 -14 -7 -23 -19 -35h258l-20 -94h-411l19 92c46 3 57 10 62 23l46 215h-57l17 80h57l13 61c24 113 102 219 246 219c64 0 123 -27 163 -49l-58 -84c-11 7 -78 39 -124 39c-75 0 -108 -69 -120 -125l-13 -61h162z" />
<glyph d="M535 585h-262l-37 -173h236l-20 -95h-236l-17 -76h123l-17 -80h-123l-34 -161h-100l34 161h-53l17 80h53l94 439h362z" />
<glyph d="M405 330h-162l-7 -35h163l-17 -80h-163l-18 -86c-4 -14 -7 -23 -19 -35h258l-20 -94h-411l19 92c46 3 57 10 62 23l21 100h-56l17 80h56l8 35h-57l17 80h57l13 61c24 113 102 219 246 219c64 0 123 -27 163 -49l-58 -84c-11 7 -78 39 -124 39c-75 0 -108 -69 -120 -125 l-13 -61h162z" />
<glyph d="M146 680h189c107 0 178 -66 189 -151h59l-17 -80h-48c-30 -95 -133 -162 -247 -162h-109l-61 -287h-100l95 449h-49l17 80h49zM292 382c46 0 96 26 121 67h-216l-14 -67h109zM226 583l-12 -54h210c-10 29 -40 54 -89 54h-109z" />
<glyph d="M350 546c118 0 190 -101 190 -225c0 -175 -148 -331 -307 -331c-118 0 -190 98 -190 221c0 176 149 335 307 335zM331 453c-85 0 -182 -106 -182 -227c0 -82 43 -143 103 -143c87 0 184 102 184 225c0 81 -43 145 -105 145z" />
<glyph d="M252 93l67 312l-90 -53l-47 69l176 115h87l-95 -443h107l-20 -93h-311l20 93h106z" />
<glyph d="M423 379c0 37 -23 74 -78 74c-61 0 -100 -56 -114 -108h-103c25 103 116 201 238 201c107 0 163 -76 163 -154c0 -93 -47 -135 -289 -297c38 0 78 -1 118 -1c30 0 89 -1 116 -1l-20 -93h-399l17 82c106 74 351 227 351 297z" />
<glyph d="M229 -90c-95 0 -158 59 -158 144c0 13 2 27 5 41h98c-2 -8 -3 -15 -3 -22c0 -41 29 -70 67 -70c80 0 129 62 129 117c0 41 -26 81 -84 81h-60l19 88h57c65 0 106 52 106 99c0 42 -29 65 -63 65c-42 0 -94 -32 -115 -108h-98c21 98 105 201 219 201c89 0 164 -51 164 -138 c0 -74 -49 -126 -101 -157c37 -21 59 -64 59 -117c0 -151 -125 -224 -241 -224z" />
<glyph d="M448 144h77l-19 -91h-77l-30 -143h-98l30 143h-279l16 76l370 407h94zM349 144l50 231l-217 -231h167z" />
<glyph d="M285 453l-18 -45c-10 -26 -20 -50 -29 -76c25 11 53 18 76 18c82 0 163 -56 163 -172c0 -118 -63 -268 -253 -268c-96 0 -161 70 -161 157c0 8 1 16 2 28h98c0 -3 -1 -7 -1 -10c0 -45 31 -82 70 -82c99 0 139 89 139 159c0 63 -37 96 -76 96c-45 0 -84 -24 -109 -55h-93 l128 343h299l-20 -93h-215z" />
<glyph d="M339 533c-75 0 -118 -75 -142 -142c34 20 77 35 119 35c124 0 168 -84 168 -170c0 -113 -71 -266 -254 -266c-131 0 -177 117 -177 217c0 188 82 418 299 418c70 0 144 -33 179 -93l-79 -59c-31 36 -69 60 -113 60zM296 334c-40 0 -103 -33 -132 -70 c-3 -18 -5 -37 -5 -57c0 -61 19 -124 85 -124c60 0 134 50 134 157c0 57 -30 94 -82 94z" />
<glyph d="M410 453h-301l19 93h403l-19 -93l-352 -543h-107z" />
<glyph d="M242 -10c-110 0 -179 71 -179 147c0 85 61 147 129 182c-29 23 -48 65 -48 110c0 122 112 196 213 196c79 0 163 -47 163 -135c0 -72 -45 -127 -109 -164c35 -24 65 -68 65 -127c0 -107 -95 -209 -234 -209zM251 82c55 0 103 29 116 84c1 5 1 10 1 14c0 52 -50 82 -88 97 c-58 -29 -110 -60 -110 -123c0 -42 34 -72 81 -72zM415 475c0 41 -32 58 -68 58c-35 0 -96 -24 -96 -83c0 -42 39 -75 64 -87c35 17 100 60 100 112z" />
<glyph d="M245 2c75 0 118 75 142 142c-34 -20 -77 -35 -119 -35c-124 0 -168 84 -168 170c0 113 71 266 254 266c131 0 177 -117 177 -217c0 -188 -82 -418 -299 -418c-70 0 -144 33 -179 93l79 59c31 -46 69 -60 113 -60zM288 201c40 0 103 33 132 70c3 18 5 37 5 57 c0 61 -19 124 -85 124c-60 0 -134 -50 -134 -157c0 -57 30 -94 82 -94z" />
<glyph d="M309 155h-104c14 -45 46 -73 89 -73s84 34 126 86l69 -66c-70 -78 -142 -112 -214 -112c-97 0 -165 64 -178 165h-75l17 80h59c1 9 3 19 5 29l3 16h-57l17 80h70c55 110 156 186 257 186c71 0 130 -34 168 -111l-79 -57c-20 43 -65 75 -109 75c-48 0 -97 -38 -131 -93 h111l-17 -80h-129l-4 -16c-2 -10 -4 -20 -5 -29h128z" />
<glyph d="M201 -3l56 260h-64l20 93h64l7 31c16 77 77 165 177 165c47 0 81 -22 106 -43l-56 -77c-24 24 -50 27 -69 27c-30 0 -55 -45 -61 -74l-6 -29h117l-20 -93h-117l-56 -262c-19 -90 -76 -164 -176 -164c-45 0 -77 18 -107 42l61 74c25 -24 44 -25 63 -25c31 0 55 46 61 75z " />
<glyph d="M331 407c-97 0 -165 -115 -165 -206c0 -69 38 -118 96 -118c43 0 86 35 128 87l68 -66c-55 -62 -110 -97 -168 -108l-20 -97h-98l21 98c-78 20 -127 88 -127 184c0 129 93 281 232 313l21 99h98l-21 -98c50 -12 91 -46 122 -106l-78 -58c-28 55 -67 76 -109 76z" />
<glyph d="M387 134h-122l-28 -134h-96l29 134h-121l17 80h121l-12 36h-101l17 80h57l-73 213h116l67 -218l161 218h116l-163 -213h57l-17 -80h-102l-27 -36h121z" />
<glyph d="M421 625l-18 -86c35 -10 67 -32 98 -68l-73 -62c-22 27 -57 41 -98 41c-38 0 -80 -18 -80 -61c0 -31 33 -49 76 -70c56 -28 126 -66 126 -146c0 -77 -73 -150 -164 -174l-17 -80h-99l16 77c-40 8 -74 32 -105 71l74 61c25 -30 58 -45 90 -45c55 0 99 32 99 75 c0 36 -39 56 -81 75c-59 27 -120 59 -120 133c0 78 59 154 159 174l18 85h99z" />
<glyph d="M443 92l-20 -92h-385l20 92c42 0 58 11 64 38l27 128h-56l17 80h56c26 106 104 208 241 208c55 0 86 -20 138 -52l-58 -75c-35 22 -65 34 -100 34c-69 0 -103 -63 -116 -115h127l-17 -80h-127l-27 -127c-3 -14 -6 -26 -19 -39h235z" />
<glyph d="M336 106h-152l-22 -106h-99l22 106h-36l17 79h36l78 361h355l-20 -93h-256l-21 -99h231l-20 -93h-231l-17 -76h152z" />
<glyph d="M443 92l-20 -92h-385l20 92c42 0 58 11 64 38l5 25h-56l17 80h56l10 45h-56l17 80h57c31 98 108 186 235 186c55 0 86 -20 138 -52l-58 -75c-35 22 -65 34 -100 34c-60 0 -93 -47 -109 -93h125l-17 -80h-127l-10 -45h127l-17 -80h-127l-5 -24c-3 -14 -6 -26 -19 -39h235z " />
<glyph d="M152 546h204c109 0 156 -69 156 -142h37l-17 -80h-40c-38 -75 -123 -127 -211 -127h-106l-42 -197h-98l69 324h-35l17 80h35zM230 453l-11 -49h185c-7 26 -29 49 -68 49h-106zM301 290c26 0 56 12 78 34h-177l-7 -34h106z" />
<glyph horiz-adv-x="619" d="M381 546c118 0 190 -101 190 -225c0 -175 -148 -331 -307 -331c-118 0 -190 98 -190 221c0 176 149 335 307 335zM362 453c-85 0 -182 -106 -182 -227c0 -82 43 -143 103 -143c87 0 184 102 184 225c0 81 -43 145 -105 145z" />
<glyph horiz-adv-x="425" d="M158 93l67 312l-90 -53l-47 69l176 115h87l-95 -443h107l-20 -93h-311l20 93h106z" />
<glyph horiz-adv-x="568" d="M400 379c0 37 -23 74 -78 74c-61 0 -100 -56 -114 -108h-103c25 103 116 201 238 201c107 0 163 -76 163 -154c0 -93 -47 -135 -289 -297c38 0 78 -1 118 -1c30 0 89 -1 116 -1l-20 -93h-399l17 82c106 74 351 227 351 297z" />
<glyph horiz-adv-x="535" d="M190 -90c-95 0 -158 59 -158 144c0 13 2 27 5 41h98c-2 -8 -3 -15 -3 -22c0 -41 29 -70 67 -70c80 0 129 62 129 117c0 41 -26 81 -84 81h-60l19 88h57c65 0 106 52 106 99c0 42 -29 65 -63 65c-42 0 -94 -32 -115 -108h-98c21 98 105 201 219 201c89 0 164 -51 164 -138 c0 -74 -49 -126 -101 -157c37 -21 59 -64 59 -117c0 -151 -125 -224 -241 -224z" />
<glyph horiz-adv-x="574" d="M428 144h77l-19 -91h-77l-30 -143h-98l30 143h-279l16 76l370 407h94zM329 144l50 231l-217 -231h167z" />
<glyph horiz-adv-x="551" d="M284 453l-18 -45c-10 -26 -20 -50 -29 -76c25 11 53 18 76 18c82 0 163 -56 163 -172c0 -118 -63 -268 -253 -268c-96 0 -161 70 -161 157c0 8 1 16 2 28h98c0 -3 -1 -7 -1 -10c0 -45 31 -82 70 -82c99 0 139 89 139 159c0 63 -37 96 -76 96c-45 0 -84 -24 -109 -55h-93 l128 343h299l-20 -93h-215z" />
<glyph horiz-adv-x="572" d="M348 533c-75 0 -118 -75 -142 -142c34 20 77 35 119 35c124 0 168 -84 168 -170c0 -113 -71 -266 -254 -266c-131 0 -177 117 -177 217c0 188 82 418 299 418c70 0 144 -33 179 -93l-79 -59c-31 36 -69 60 -113 60zM305 334c-40 0 -103 -33 -132 -70 c-3 -18 -5 -37 -5 -57c0 -61 19 -124 85 -124c60 0 134 50 134 157c0 57 -30 94 -82 94z" />
<glyph horiz-adv-x="522" d="M389 453h-301l19 93h403l-19 -93l-352 -543h-107z" />
<glyph horiz-adv-x="551" d="M241 -10c-110 0 -179 71 -179 147c0 85 61 147 129 182c-29 23 -48 65 -48 110c0 122 112 196 213 196c79 0 163 -47 163 -135c0 -72 -45 -127 -109 -164c35 -24 65 -68 65 -127c0 -107 -95 -209 -234 -209zM250 82c55 0 103 29 116 84c1 5 1 10 1 14c0 52 -50 82 -88 97 c-58 -29 -110 -60 -110 -123c0 -42 34 -72 81 -72zM414 475c0 41 -32 58 -68 58c-35 0 -96 -24 -96 -83c0 -42 39 -75 64 -87c35 17 100 60 100 112z" />
<glyph horiz-adv-x="572" d="M224 2c75 0 118 75 142 142c-34 -20 -77 -35 -119 -35c-124 0 -168 84 -168 170c0 113 71 266 254 266c131 0 177 -117 177 -217c0 -188 -82 -418 -299 -418c-70 0 -144 33 -179 93l79 59c31 -46 69 -60 113 -60zM267 201c40 0 103 33 132 70c3 18 5 37 5 57 c0 61 -19 124 -85 124c-60 0 -134 -50 -134 -157c0 -57 30 -94 82 -94z" />
<glyph horiz-adv-x="576" d="M338 155h-104c14 -45 46 -73 89 -73s84 34 126 86l69 -66c-70 -78 -142 -112 -214 -112c-97 0 -165 64 -178 165h-75l17 80h59c1 9 3 19 5 29l3 16h-57l17 80h70c55 110 156 186 257 186c71 0 130 -34 168 -111l-79 -57c-20 43 -65 75 -109 75c-48 0 -97 -38 -131 -93 h111l-17 -80h-129l-4 -16c-2 -10 -4 -20 -5 -29h128z" />
<glyph horiz-adv-x="411" d="M135 -3l56 260h-64l20 93h64l7 31c16 77 77 165 177 165c47 0 81 -22 106 -43l-56 -77c-24 24 -50 27 -69 27c-30 0 -55 -45 -61 -74l-6 -29h117l-20 -93h-117l-56 -262c-19 -90 -76 -164 -176 -164c-45 0 -77 18 -107 42l61 74c25 -24 44 -25 63 -25c31 0 55 46 61 75z " />
<glyph horiz-adv-x="510" d="M332 407c-97 0 -165 -115 -165 -206c0 -69 38 -118 96 -118c43 0 86 35 128 87l68 -66c-55 -62 -110 -97 -168 -108l-20 -97h-98l21 98c-78 20 -127 88 -127 184c0 129 93 281 232 313l21 99h98l-21 -98c50 -12 91 -46 122 -106l-78 -58c-28 55 -67 76 -109 76z" />
<glyph horiz-adv-x="587" d="M467 134h-122l-28 -134h-96l29 134h-121l17 80h121l-12 36h-101l17 80h57l-73 213h116l67 -218l161 218h116l-163 -213h57l-17 -80h-102l-27 -36h121z" />
<glyph horiz-adv-x="475" d="M387 625l-18 -86c35 -10 67 -32 98 -68l-73 -62c-22 27 -57 41 -98 41c-38 0 -80 -18 -80 -61c0 -31 33 -49 76 -70c56 -28 126 -66 126 -146c0 -77 -73 -150 -164 -174l-17 -80h-99l16 77c-40 8 -74 32 -105 71l74 61c25 -30 58 -45 90 -45c55 0 99 32 99 75 c0 36 -39 56 -81 75c-59 27 -120 59 -120 133c0 78 59 154 159 174l18 85h99z" />
<glyph horiz-adv-x="517" d="M434 92l-20 -92h-385l20 92c42 0 58 11 64 38l27 128h-56l17 80h56c26 106 104 208 241 208c55 0 86 -20 138 -52l-58 -75c-35 22 -65 34 -100 34c-69 0 -103 -63 -116 -115h127l-17 -80h-127l-27 -127c-3 -14 -6 -26 -19 -39h235z" />
<glyph horiz-adv-x="501" d="M330 106h-152l-22 -106h-99l22 106h-36l17 79h36l78 361h355l-20 -93h-256l-21 -99h231l-20 -93h-231l-17 -76h152z" />
<glyph horiz-adv-x="517" d="M434 92l-20 -92h-385l20 92c42 0 58 11 64 38l5 25h-56l17 80h56l10 45h-56l17 80h57c31 98 108 186 235 186c55 0 86 -20 138 -52l-58 -75c-35 22 -65 34 -100 34c-60 0 -93 -47 -109 -93h125l-17 -80h-127l-10 -45h127l-17 -80h-127l-5 -24c-3 -14 -6 -26 -19 -39h235z " />
<glyph horiz-adv-x="531" d="M156 546h204c109 0 156 -69 156 -142h37l-17 -80h-40c-38 -75 -123 -127 -211 -127h-106l-42 -197h-98l69 324h-35l17 80h35zM234 453l-11 -49h185c-7 26 -29 49 -68 49h-106zM305 290c26 0 56 12 78 34h-177l-7 -34h106z" />
<glyph unicode="&#x2070;" horiz-adv-x="411" d="M306 729c80 0 128 -66 128 -153c0 -119 -85 -262 -215 -262c-82 0 -130 66 -130 152c0 118 89 263 217 263zM289 642c-62 0 -106 -101 -106 -157c0 -48 22 -84 54 -84c63 0 103 100 103 157c0 48 -20 84 -51 84z" />
<glyph unicode="&#x2074;" horiz-adv-x="364" d="M334 484h42l-18 -77h-42l-19 -87h-90l19 87h-157l18 77l214 240h82zM243 484l22 113l-92 -113h70z" />
<glyph unicode="&#x2075;" horiz-adv-x="364" d="M234 633l-21 -58c20 16 51 21 68 21c51 0 78 -48 78 -98c0 -93 -60 -184 -171 -184c-64 0 -102 47 -102 107c0 9 1 19 3 28h87c-1 -4 -1 -8 -1 -11c0 -22 15 -36 31 -36c38 0 59 40 59 77c0 25 -9 38 -30 38c-20 0 -40 -13 -52 -31h-87l88 238h207l-19 -91h-138z" />
<glyph unicode="&#x2076;" horiz-adv-x="351" d="M389 654l-67 -45c-12 20 -35 35 -53 35s-51 -15 -65 -65c23 19 48 25 64 25c72 0 93 -55 93 -109c0 -99 -60 -181 -162 -181c-95 0 -113 94 -113 149c0 87 53 266 195 266c46 0 82 -28 108 -75zM240 524c-18 0 -42 -14 -53 -30c-2 -12 -6 -31 -6 -49c0 -26 10 -49 36 -49 c23 0 52 33 52 85c0 25 -11 43 -29 43z" />
<glyph unicode="&#x2077;" horiz-adv-x="348" d="M180 321h-98l207 315h-157l19 88h255l-19 -87z" />
<glyph unicode="&#x2078;" horiz-adv-x="345" d="M185 314c-72 0 -111 52 -111 104c0 50 32 87 64 112c-10 14 -15 36 -15 59c0 99 80 140 151 140c54 0 102 -32 102 -94c0 -43 -30 -80 -54 -102c15 -16 27 -41 27 -72c0 -84 -60 -147 -164 -147zM203 394c26 0 59 17 59 46c0 23 -27 42 -46 50c-22 -10 -52 -35 -52 -60 c0 -21 18 -36 39 -36zM286 620c0 18 -15 26 -30 26c-16 0 -44 -11 -44 -38c0 -18 14 -33 27 -40c24 11 47 34 47 52z" />
<glyph unicode="&#x2079;" horiz-adv-x="352" d="M74 389l67 45c12 -20 35 -35 53 -35s51 15 65 65c-23 -19 -48 -25 -64 -25c-72 0 -93 55 -93 109c0 99 60 181 162 181c95 0 113 -94 113 -149c0 -87 -53 -266 -195 -266c-46 0 -82 28 -108 75zM223 519c18 0 42 14 53 30c2 12 6 31 6 49c0 26 -10 49 -36 49 c-23 0 -52 -33 -52 -85c0 -25 11 -43 29 -43z" />
<glyph unicode="&#x207d;" horiz-adv-x="281" d="M98 458c0 137 97 259 217 333l43 -68c-80 -53 -166 -135 -166 -249c0 -58 25 -117 70 -161l-63 -68c-68 54 -101 135 -101 213z" />
<glyph unicode="&#x207e;" horiz-adv-x="282" d="M295 578c0 -137 -97 -259 -217 -333l-43 68c80 53 166 135 166 249c0 58 -25 117 -70 161l63 68c68 -54 101 -135 101 -213z" />
<glyph unicode="&#x2080;" horiz-adv-x="411" d="M260 297c80 0 128 -66 128 -153c0 -119 -85 -262 -215 -262c-82 0 -130 66 -130 152c0 118 89 263 217 263zM243 210c-62 0 -106 -101 -106 -157c0 -48 22 -84 54 -84c63 0 103 100 103 157c0 48 -20 84 -51 84z" />
<glyph unicode="&#x2081;" horiz-adv-x="313" d="M242 -21l-18 -87h-221l18 87h65l39 183l-40 -38l-46 45l128 124h78l-67 -314h64z" />
<glyph unicode="&#x2082;" horiz-adv-x="352" d="M210 210c-22 0 -42 -24 -52 -54h-83c22 78 80 141 155 141c67 0 101 -43 101 -97c0 -112 -121 -149 -192 -221h151l-19 -87h-253l14 67c19 85 206 150 206 222c0 16 -8 29 -28 29z" />
<glyph unicode="&#x2083;" horiz-adv-x="359" d="M322 32c0 -89 -77 -146 -161 -146c-56 0 -105 32 -105 108c0 12 1 25 4 38h83c-1 -5 -2 -10 -2 -15c0 -31 17 -44 37 -44c24 0 50 20 50 51c0 24 -15 33 -34 33h-33l16 76h32c19 0 46 22 46 46c0 19 -16 31 -33 31c-18 0 -45 -17 -52 -53h-83c18 84 81 140 157 140 c59 0 103 -36 103 -95c0 -43 -27 -80 -57 -103c17 -11 32 -37 32 -67z" />
<glyph unicode="&#x2084;" horiz-adv-x="364" d="M288 52h42l-18 -77h-42l-19 -87h-90l19 87h-157l18 77l214 240h82zM197 52l22 113l-92 -113h70z" />
<glyph unicode="&#x2085;" horiz-adv-x="364" d="M204 196l-21 -58c20 16 51 21 68 21c51 0 78 -48 78 -98c0 -93 -60 -184 -171 -184c-64 0 -102 47 -102 107c0 9 1 19 3 28h87c-1 -4 -1 -8 -1 -11c0 -22 15 -36 31 -36c38 0 59 40 59 77c0 25 -9 38 -30 38c-20 0 -40 -13 -52 -31h-87l88 238h207l-19 -91h-138z" />
<glyph unicode="&#x2086;" horiz-adv-x="350" d="M343 222l-67 -45c-12 20 -35 35 -53 35s-51 -15 -65 -65c23 19 48 25 64 25c72 0 93 -55 93 -109c0 -99 -60 -181 -162 -181c-95 0 -113 94 -113 149c0 87 53 266 195 266c46 0 82 -28 108 -75zM194 92c-18 0 -42 -14 -53 -30c-2 -12 -6 -31 -6 -49c0 -26 10 -49 36 -49 c23 0 52 33 52 85c0 25 -11 43 -29 43z" />
<glyph unicode="&#x2087;" horiz-adv-x="349" d="M150 -114h-98l207 315h-157l19 88h255l-19 -87z" />
<glyph unicode="&#x2088;" horiz-adv-x="345" d="M139 -118c-72 0 -111 52 -111 104c0 50 32 87 64 112c-10 14 -15 36 -15 59c0 99 80 140 151 140c54 0 102 -32 102 -94c0 -43 -30 -80 -54 -102c15 -16 27 -41 27 -72c0 -84 -60 -147 -164 -147zM157 -38c26 0 59 17 59 46c0 23 -27 42 -46 50c-22 -10 -52 -35 -52 -60 c0 -21 18 -36 39 -36zM240 188c0 18 -15 26 -30 26c-16 0 -44 -11 -44 -38c0 -18 14 -33 27 -40c24 11 47 34 47 52z" />
<glyph unicode="&#x2089;" horiz-adv-x="352" d="M28 -43l67 45c12 -20 35 -35 53 -35s51 15 65 65c-23 -19 -48 -25 -64 -25c-72 0 -93 55 -93 109c0 99 60 181 162 181c95 0 113 -94 113 -149c0 -87 -53 -266 -195 -266c-46 0 -82 28 -108 75zM177 87c18 0 42 14 53 30c2 12 6 31 6 49c0 26 -10 49 -36 49 c-23 0 -52 -33 -52 -85c0 -25 11 -43 29 -43z" />
<glyph unicode="&#x208d;" horiz-adv-x="272" d="M52 54c0 137 97 259 217 333l43 -68c-80 -53 -166 -135 -166 -249c0 -58 25 -117 70 -161l-63 -68c-68 54 -101 135 -101 213z" />
<glyph unicode="&#x208e;" horiz-adv-x="281" d="M250 173c0 -137 -97 -259 -217 -333l-43 68c80 53 166 135 166 249c0 58 -25 117 -70 161l63 68c68 -54 101 -135 101 -213z" />
<glyph horiz-adv-x="411" d="M301 690c80 0 128 -66 128 -153c0 -119 -85 -262 -215 -262c-82 0 -130 66 -130 152c0 118 89 263 217 263zM284 603c-62 0 -106 -101 -106 -157c0 -48 22 -84 54 -84c63 0 103 100 103 157c0 48 -20 84 -51 84z" />
<glyph horiz-adv-x="313" d="M298 366l-18 -87h-221l18 87h65l39 183l-40 -38l-46 45l128 124h78l-67 -314h64z" />
<glyph horiz-adv-x="352" d="M252 603c-22 0 -42 -24 -52 -54h-83c22 78 80 141 155 141c67 0 101 -43 101 -97c0 -112 -121 -150 -192 -222h151l-19 -87h-253l14 67c19 85 206 151 206 223c0 16 -8 29 -28 29z" />
<glyph horiz-adv-x="359" d="M364 425c0 -89 -77 -146 -161 -146c-56 0 -105 32 -105 108c0 12 1 25 4 38h83c-1 -5 -2 -10 -2 -15c0 -31 17 -44 37 -44c24 0 50 20 50 51c0 24 -15 33 -34 33h-33l16 76h32c19 0 46 22 46 46c0 19 -16 31 -33 31c-18 0 -45 -17 -52 -53h-83c18 84 81 140 157 140 c59 0 103 -36 103 -95c0 -43 -27 -80 -57 -103c17 -11 32 -37 32 -67z" />
<glyph horiz-adv-x="364" d="M329 441h42l-18 -77h-42l-19 -87h-90l19 87h-157l18 77l214 240h82zM238 441l22 113l-92 -113h70z" />
<glyph horiz-adv-x="364" d="M229 589l-21 -58c20 16 51 21 68 21c51 0 78 -48 78 -98c0 -93 -60 -184 -171 -184c-64 0 -102 47 -102 107c0 9 1 19 3 28h87c-1 -4 -1 -8 -1 -11c0 -22 15 -36 31 -36c38 0 59 40 59 77c0 25 -9 38 -30 38c-20 0 -40 -13 -52 -31h-87l88 238h207l-19 -91h-138z" />
<glyph horiz-adv-x="351" d="M385 615l-67 -45c-12 20 -35 35 -53 35s-51 -15 -65 -65c23 19 48 25 64 25c72 0 93 -55 93 -109c0 -99 -60 -181 -162 -181c-95 0 -113 94 -113 149c0 87 53 266 195 266c46 0 82 -28 108 -75zM236 485c-18 0 -42 -14 -53 -30c-2 -12 -6 -31 -6 -49c0 -26 10 -49 36 -49 c23 0 52 33 52 85c0 25 -11 43 -29 43z" />
<glyph horiz-adv-x="349" d="M191 278h-98l207 315h-157l19 88h255l-19 -87z" />
<glyph horiz-adv-x="345" d="M181 275c-72 0 -111 52 -111 104c0 50 32 87 64 112c-10 14 -15 36 -15 59c0 99 80 140 151 140c54 0 102 -32 102 -94c0 -43 -30 -80 -54 -102c15 -16 27 -41 27 -72c0 -84 -60 -147 -164 -147zM199 355c26 0 59 17 59 46c0 23 -27 42 -46 50c-22 -10 -52 -35 -52 -60 c0 -21 18 -36 39 -36zM282 581c0 18 -15 26 -30 26c-16 0 -44 -11 -44 -38c0 -18 14 -33 27 -40c24 11 47 34 47 52z" />
<glyph horiz-adv-x="351" d="M85 350l67 45c12 -20 35 -35 53 -35s51 15 65 65c-23 -19 -48 -25 -64 -25c-72 0 -93 55 -93 109c0 99 60 181 162 181c95 0 113 -94 113 -149c0 -87 -53 -266 -195 -266c-46 0 -82 28 -108 75zM234 480c18 0 42 14 53 30c2 12 6 31 6 49c0 26 -10 49 -36 49 c-23 0 -52 -33 -52 -85c0 -25 11 -43 29 -43z" />
<glyph horiz-adv-x="411" d="M285 405c80 0 128 -66 128 -153c0 -119 -85 -262 -215 -262c-82 0 -130 66 -130 152c0 118 89 263 217 263zM268 318c-62 0 -106 -101 -106 -157c0 -48 22 -84 54 -84c63 0 103 100 103 157c0 48 -20 84 -51 84z" />
<glyph horiz-adv-x="312" d="M251 87l-18 -87h-221l18 87h65l39 183l-40 -38l-46 45l128 124h78l-67 -314h64z" />
<glyph horiz-adv-x="352" d="M220 319c-22 0 -42 -24 -52 -54h-83c22 78 80 141 155 141c67 0 101 -43 101 -97c0 -112 -121 -150 -192 -222h151l-19 -87h-253l14 67c19 85 206 151 206 223c0 16 -8 29 -28 29z" />
<glyph horiz-adv-x="359" d="M331 136c0 -89 -77 -146 -161 -146c-56 0 -105 32 -105 108c0 12 1 25 4 38h83c-1 -5 -2 -10 -2 -15c0 -31 17 -44 37 -44c24 0 50 20 50 51c0 24 -15 33 -34 33h-33l16 76h32c19 0 46 22 46 46c0 19 -16 31 -33 31c-18 0 -45 -17 -52 -53h-83c18 84 81 140 157 140 c59 0 103 -36 103 -95c0 -43 -27 -80 -57 -103c17 -11 32 -37 32 -67z" />
<glyph horiz-adv-x="364" d="M298 164h42l-18 -77h-42l-19 -87h-90l19 87h-157l18 77l214 240h82zM207 164l22 113l-92 -113h70z" />
<glyph horiz-adv-x="363" d="M213 309l-21 -58c20 16 51 21 68 21c51 0 78 -48 78 -98c0 -93 -60 -184 -171 -184c-64 0 -102 47 -102 107c0 9 1 19 3 28h87c-1 -4 -1 -8 -1 -11c0 -22 15 -36 31 -36c38 0 59 40 59 77c0 25 -9 38 -30 38c-20 0 -40 -13 -52 -31h-87l88 238h207l-19 -91h-138z" />
<glyph horiz-adv-x="350" d="M367 330l-67 -45c-12 20 -35 35 -53 35s-51 -15 -65 -65c23 19 48 25 64 25c72 0 93 -55 93 -109c0 -99 -60 -181 -162 -181c-95 0 -113 94 -113 149c0 87 53 266 195 266c46 0 82 -28 108 -75zM218 200c-18 0 -42 -14 -53 -30c-2 -12 -6 -31 -6 -49c0 -26 10 -49 36 -49 c23 0 52 33 52 85c0 25 -11 43 -29 43z" />
<glyph horiz-adv-x="348" d="M159 0h-98l207 315h-157l19 88h255l-19 -87z" />
<glyph horiz-adv-x="345" d="M164 -10c-72 0 -111 52 -111 104c0 50 32 87 64 112c-10 14 -15 36 -15 59c0 99 80 140 151 140c54 0 102 -32 102 -94c0 -43 -30 -80 -54 -102c15 -16 27 -41 27 -72c0 -84 -60 -147 -164 -147zM182 70c26 0 59 17 59 46c0 23 -27 42 -46 50c-22 -10 -52 -35 -52 -60 c0 -21 18 -36 39 -36zM265 296c0 18 -15 26 -30 26c-16 0 -44 -11 -44 -38c0 -18 14 -33 27 -40c24 11 47 34 47 52z" />
<glyph horiz-adv-x="352" d="M37 65l67 45c12 -20 35 -35 53 -35s51 15 65 65c-23 -19 -48 -25 -64 -25c-72 0 -93 55 -93 109c0 99 60 181 162 181c95 0 113 -94 113 -149c0 -87 -53 -266 -195 -266c-46 0 -82 28 -108 75zM186 195c18 0 42 14 53 30c2 12 6 31 6 49c0 26 -10 49 -36 49 c-23 0 -52 -33 -52 -85c0 -25 11 -43 29 -43z" />
<glyph horiz-adv-x="566" d="M567 490l-104 -488c-24 -112 -107 -242 -257 -242c-25 0 -54 6 -89 19l59 86c20 -7 39 -12 50 -12c95 0 130 118 137 149l84 396h-183l-86 -407c-25 -117 -116 -180 -198 -180c-25 0 -54 6 -89 19l59 86c20 -7 39 -12 53 -12c31 4 59 31 75 88l86 406h-65l20 92h67l8 36 c24 114 124 164 207 164c-3 0 49 -2 49 -6c0 -8 -17 -82 -17 -89c-14 3 -26 4 -34 4c-46 0 -98 -23 -109 -75l-7 -34h284zM485 618c0 34 33 72 74 72c28 0 48 -20 48 -47c0 -34 -33 -73 -73 -73c-30 0 -49 21 -49 48z" />
<glyph horiz-adv-x="297" d="M147 -71h-99l86 403h99zM319 740l-72 -341h-99l72 341h99z" />
<glyph horiz-adv-x="691" d="M439 690c80 0 144 -59 144 -138c0 -28 -8 -54 -19 -81h-106c9 20 21 43 21 68c0 32 -18 60 -58 60c-61 0 -119 -53 -119 -118c0 -18 5 -36 17 -51c50 -64 92 -123 166 -232c23 36 39 69 53 123h103c-21 -83 -59 -149 -99 -200l86 -121h-128l-35 49 c-52 -36 -115 -59 -177 -59c-130 0 -202 86 -202 192c0 94 60 187 134 249c-8 11 -13 36 -13 57c0 115 114 202 232 202zM308 82c36 0 74 15 106 38l-158 225c-36 -38 -64 -89 -64 -147c0 -69 32 -116 116 -116z" />
<glyph unicode="&#x1fb;" horiz-adv-x="488" d="M160 350l-60 73c64 49 149 77 210 77c117 0 153 -79 153 -139c0 -26 -4 -52 -9 -77l-43 -194c1 -19 14 -24 29 -24c10 0 20 3 29 5v-72c-23 -9 -44 -9 -59 -9c-59 0 -88 26 -95 70c-44 -54 -111 -70 -150 -70c-90 0 -128 59 -128 119c0 158 191 187 324 195 c1 9 2 18 2 26c0 55 -18 77 -76 77c-42 0 -91 -35 -127 -57zM342 221c-51 -2 -204 -6 -204 -90c0 -31 26 -48 57 -48c53 0 116 59 127 75c12 21 15 37 20 63zM346 690c48 0 75 -28 75 -67c0 -56 -52 -104 -111 -104c-43 0 -72 29 -72 68c0 53 52 103 108 103zM334 632 c-16 0 -35 -15 -35 -33c0 -13 10 -23 23 -23c16 0 35 15 35 33c0 13 -10 23 -23 23zM399 716h-86l117 142h109z" />
<glyph horiz-adv-x="566" d="M242 -10c-93 0 -175 91 -175 207c0 161 137 303 284 303c41 0 77 -25 105 -60l14 50h95l-84 -398c0 -20 14 -26 29 -26c10 0 20 3 29 5v-72c-23 -9 -44 -9 -59 -9c-53 0 -82 21 -92 56c-42 -34 -92 -56 -146 -56zM262 83c72 0 155 90 155 199c0 72 -36 125 -86 125 c-78 0 -159 -91 -159 -200c0 -71 36 -124 90 -124z" />
<glyph horiz-adv-x="566" d="M242 -10c-93 0 -175 91 -175 207c0 161 137 303 284 303c41 0 77 -25 105 -60l14 50h95l-84 -398c0 -20 14 -26 29 -26c10 0 20 3 29 5v-72c-23 -9 -44 -9 -59 -9c-53 0 -82 21 -92 56c-42 -34 -92 -56 -146 -56zM262 83c72 0 155 90 155 199c0 72 -36 125 -86 125 c-78 0 -159 -91 -159 -200c0 -71 36 -124 90 -124zM391 690c48 0 75 -28 75 -67c0 -56 -52 -104 -111 -104c-43 0 -72 29 -72 68c0 53 52 103 108 103zM379 632c-16 0 -35 -15 -35 -33c0 -13 10 -23 23 -23c16 0 35 15 35 33c0 13 -10 23 -23 23z" />
<glyph horiz-adv-x="566" d="M242 -10c-93 0 -175 91 -175 207c0 161 137 303 284 303c41 0 77 -25 105 -60l14 50h95l-84 -398c0 -20 14 -26 29 -26c10 0 20 3 29 5v-72c-23 -9 -44 -9 -59 -9c-53 0 -82 21 -92 56c-42 -34 -92 -56 -146 -56zM262 83c72 0 155 90 155 199c0 72 -36 125 -86 125 c-78 0 -159 -91 -159 -200c0 -71 36 -124 90 -124zM312 690c30 0 49 -19 49 -46c0 -36 -35 -69 -73 -69c-30 0 -49 20 -49 45c0 37 33 70 73 70zM468 690c28 0 48 -19 48 -46c0 -35 -34 -69 -72 -69c-31 0 -49 20 -49 45c0 37 33 70 73 70z" />
<glyph horiz-adv-x="566" d="M242 -10c-93 0 -175 91 -175 207c0 161 137 303 284 303c41 0 77 -25 105 -60l14 50h95l-84 -398c0 -20 14 -26 29 -26c10 0 20 3 29 5v-72c-23 -9 -44 -9 -59 -9c-53 0 -82 21 -92 56c-42 -34 -92 -56 -146 -56zM262 83c72 0 155 90 155 199c0 72 -36 125 -86 125 c-78 0 -159 -91 -159 -200c0 -71 36 -124 90 -124zM466 681h85c-17 -49 -53 -122 -127 -122c-46 0 -78 50 -106 50c-21 0 -25 -26 -33 -41h-83c19 55 57 122 131 122c40 0 60 -49 99 -49c19 0 25 15 34 40z" />
<glyph horiz-adv-x="566" d="M242 -10c-93 0 -175 91 -175 207c0 161 137 303 284 303c41 0 77 -25 105 -60l14 50h95l-84 -398c0 -20 14 -26 29 -26c10 0 20 3 29 5v-72c-23 -9 -44 -9 -59 -9c-53 0 -82 21 -92 56c-42 -34 -92 -56 -146 -56zM262 83c72 0 155 90 155 199c0 72 -36 125 -86 125 c-78 0 -159 -91 -159 -200c0 -71 36 -124 90 -124zM304 538h-86l117 142h107l56 -142h-85l-40 70z" />
<glyph horiz-adv-x="566" d="M242 -10c-93 0 -175 91 -175 207c0 161 137 303 284 303c41 0 77 -25 105 -60l14 50h95l-84 -398c0 -20 14 -26 29 -26c10 0 20 3 29 5v-72c-23 -9 -44 -9 -59 -9c-53 0 -82 21 -92 56c-42 -34 -92 -56 -146 -56zM262 83c72 0 155 90 155 199c0 72 -36 125 -86 125 c-78 0 -159 -91 -159 -200c0 -71 36 -124 90 -124zM388 538h-86l117 142h109z" />
<glyph horiz-adv-x="566" d="M242 -10c-93 0 -175 91 -175 207c0 161 137 303 284 303c41 0 77 -25 105 -60l14 50h95l-84 -398c0 -20 14 -26 29 -26c10 0 20 3 29 5v-72c-23 -9 -44 -9 -59 -9c-53 0 -82 21 -92 56c-42 -34 -92 -56 -146 -56zM262 83c72 0 155 90 155 199c0 72 -36 125 -86 125 c-78 0 -159 -91 -159 -200c0 -71 36 -124 90 -124zM411 538h-86l-80 142h109z" />
<glyph horiz-adv-x="566" d="M242 -10c-93 0 -175 91 -175 207c0 161 137 303 284 303c41 0 77 -25 105 -60l14 50h95l-84 -398c0 -20 14 -26 29 -26c10 0 20 3 29 5v-72c-23 -9 -44 -9 -59 -9c-53 0 -82 21 -92 56c-42 -34 -92 -56 -146 -56zM262 83c72 0 155 90 155 199c0 72 -36 125 -86 125 c-78 0 -159 -91 -159 -200c0 -71 36 -124 90 -124zM430 680h85c-19 -87 -86 -139 -154 -139c-62 0 -126 40 -126 116c0 7 1 15 2 23h85c0 -4 -1 -8 -1 -11c0 -31 21 -49 44 -49c26 0 54 22 65 60z" />
<glyph horiz-adv-x="566" d="M242 -10c-93 0 -175 91 -175 207c0 161 137 303 284 303c41 0 77 -25 105 -60l14 50h95l-84 -398c0 -20 14 -26 29 -26c10 0 20 3 29 5v-72c-26 -20 -69 -52 -69 -92c0 -26 18 -49 56 -61l-35 -76c-69 21 -108 60 -108 119c0 43 19 80 48 109c-23 9 -37 26 -43 48 c-42 -34 -92 -56 -146 -56zM262 83c72 0 155 90 155 199c0 72 -36 125 -86 125c-78 0 -159 -91 -159 -200c0 -71 36 -124 90 -124z" />
<glyph horiz-adv-x="566" d="M242 -10c-93 0 -175 91 -175 207c0 161 137 303 284 303c41 0 77 -25 105 -60l14 50h95l-84 -398c0 -20 14 -26 29 -26c10 0 20 3 29 5v-72c-23 -9 -44 -9 -59 -9c-53 0 -82 21 -92 56c-42 -34 -92 -56 -146 -56zM262 83c72 0 155 90 155 199c0 72 -36 125 -86 125 c-78 0 -159 -91 -159 -200c0 -71 36 -124 90 -124zM486 603h-254l17 80h254z" />
<glyph horiz-adv-x="566" d="M242 -10c-93 0 -175 91 -175 207c0 161 137 303 284 303c41 0 77 -25 105 -60l14 50h95l-84 -398c0 -20 14 -26 29 -26c10 0 20 3 29 5v-72c-23 -9 -44 -9 -59 -9c-53 0 -82 21 -92 56c-42 -34 -92 -56 -146 -56zM262 83c72 0 155 90 155 199c0 72 -36 125 -86 125 c-78 0 -159 -91 -159 -200c0 -71 36 -124 90 -124zM392 690c48 0 75 -28 75 -67c0 -56 -52 -104 -111 -104c-43 0 -72 29 -72 68c0 53 52 103 108 103zM441 716h-86l117 142h109zM380 632c-16 0 -35 -15 -35 -33c0 -13 10 -23 23 -23c16 0 35 15 35 33c0 13 -10 23 -23 23z " />
<glyph unicode="&#x1fa;" horiz-adv-x="598" d="M432 806c48 0 75 -28 75 -67c0 -38 -24 -72 -57 -90l102 -649h-107l-31 212h-214l-121 -212h-106l377 649c-17 12 -26 31 -26 54c0 53 52 103 108 103zM256 307h144c-23 134 -27 164 -32 192zM491 828h-86l92 113h104zM420 748c-16 0 -35 -15 -35 -33 c0 -13 10 -23 23 -23c16 0 35 15 35 33c0 13 -10 23 -23 23z" />
<glyph unicode="&#x1fc;" horiz-adv-x="832" d="M861 585h-282l-36 -168h258l-20 -95h-258l-48 -227h282l-21 -95h-384l46 213h-153l-160 -213h-112l503 680h405zM321 307h98l41 197c-44 -64 -95 -133 -139 -197zM584 716h-86l117 142h108z" />
<glyph unicode="&#x1fd;" horiz-adv-x="794" d="M160 350l-60 73c64 49 149 77 210 77c74 0 116 -32 136 -70c49 43 111 70 174 70c94 0 173 -57 173 -166c0 -96 -67 -113 -129 -113h-220v-13c0 -72 37 -125 94 -125c47 0 99 25 141 77l59 -66c-66 -72 -144 -104 -220 -104c-60 0 -114 34 -146 88 c-46 -43 -99 -88 -207 -88c-90 0 -128 59 -128 119c0 157 190 187 323 195c0 1 1 2 1 4c1 7 2 15 2 22c0 55 -18 77 -76 77c-42 0 -91 -35 -127 -57zM340 213c0 2 1 5 1 8c-52 -2 -203 -7 -203 -90c0 -31 26 -48 57 -48c53 0 116 59 127 75c10 18 14 33 18 55zM466 304h204 c17 0 19 14 19 29c0 52 -40 74 -89 74s-104 -42 -134 -103zM510 538h-86l117 142h109z" />
<glyph horiz-adv-x="865" d="M691 500c94 0 173 -57 173 -166c0 -96 -67 -113 -129 -113h-220v-13c0 -72 37 -125 94 -125c47 0 99 25 141 77l59 -66c-66 -72 -144 -104 -220 -104c-46 0 -87 20 -119 52l-8 -42h-90l1 35c-39 -28 -83 -45 -131 -45c-93 0 -175 91 -175 207c0 161 137 303 284 303 c41 0 77 -25 105 -60l14 50h90l-7 -33c42 27 89 43 138 43zM262 83c72 0 155 90 155 199c0 72 -36 125 -86 125c-78 0 -159 -91 -159 -200c0 -71 36 -124 90 -124zM537 304h204c17 0 19 14 19 29c0 52 -40 74 -89 74s-104 -42 -134 -103zM564 538h-86l117 142h109z" />
<glyph unicode="&#x1fe;" horiz-adv-x="705" d="M196 -54h-105l65 104c-52 48 -81 121 -81 206c0 203 153 434 387 434c30 0 58 -5 84 -15l29 47h106l-59 -95c50 -48 80 -121 80 -204c0 -220 -155 -433 -388 -433c-30 0 -57 5 -82 13zM442 595c-150 0 -261 -189 -261 -332c0 -50 11 -91 33 -121l277 445 c-15 5 -32 8 -49 8zM596 416c0 46 -12 86 -33 117l-276 -441c15 -4 31 -6 48 -6c152 0 261 187 261 330zM509 716h-86l117 142h108z" />
<glyph unicode="&#x1ff;" horiz-adv-x="541" d="M347 500c20 0 39 -5 57 -12l27 42h84l-52 -83c35 -38 59 -93 59 -154c0 -161 -137 -303 -284 -303c-19 0 -38 4 -56 11l-30 -48h-83l56 89c-36 38 -58 93 -58 155c0 162 135 303 280 303zM417 283c0 26 -5 50 -14 69l-167 -266c7 -2 14 -3 22 -3c78 0 159 91 159 200z M327 407c-72 0 -155 -90 -155 -199c0 -27 5 -50 13 -70l166 265c-7 2 -16 4 -24 4zM399 538h-86l117 142h109z" />
<glyph horiz-adv-x="865" d="M691 500c94 0 173 -57 173 -166c0 -96 -67 -113 -129 -113h-220v-13c0 -72 37 -125 94 -125c47 0 99 25 141 77l59 -66c-66 -72 -144 -104 -220 -104c-46 0 -87 20 -119 52l-8 -42h-90l1 35c-39 -28 -83 -45 -131 -45c-93 0 -175 91 -175 207c0 161 137 303 284 303 c41 0 77 -25 105 -60l14 50h90l-7 -33c42 27 89 43 138 43zM262 83c72 0 155 90 155 199c0 72 -36 125 -86 125c-78 0 -159 -91 -159 -200c0 -71 36 -124 90 -124zM537 304h204c17 0 19 14 19 29c0 52 -40 74 -89 74s-104 -42 -134 -103z" />
<glyph unicode="&#x2153;" horiz-adv-x="804" d="M323 367l-18 -87h-221l18 87h65l39 183l-40 -38l-46 45l128 124h78l-67 -314h64zM248 0h-106l553 681h107zM791 136c0 -89 -77 -146 -161 -146c-56 0 -105 32 -105 108c0 12 1 25 4 38h83c-1 -5 -2 -10 -2 -15c0 -31 17 -44 37 -44c24 0 50 20 50 51c0 24 -15 33 -34 33 h-33l16 76h32c19 0 46 22 46 46c0 19 -16 31 -33 31c-18 0 -45 -17 -52 -53h-83c18 84 81 140 157 140c59 0 103 -36 103 -95c0 -43 -27 -80 -57 -103c17 -11 32 -37 32 -67z" />
<glyph unicode="&#x2154;" horiz-adv-x="840" d="M827 136c0 -89 -77 -146 -161 -146c-56 0 -105 32 -105 108c0 12 1 25 4 38h83c-1 -5 -2 -10 -2 -15c0 -31 17 -44 37 -44c24 0 50 20 50 51c0 24 -15 33 -34 33h-33l16 76h32c19 0 46 22 46 46c0 19 -16 31 -33 31c-18 0 -45 -17 -52 -53h-83c18 84 81 140 157 140 c59 0 103 -36 103 -95c0 -43 -27 -80 -57 -103c17 -11 32 -37 32 -67zM284 0h-106l553 681h107zM268 603c-22 0 -42 -24 -52 -54h-83c22 78 80 141 155 141c67 0 101 -43 101 -97c0 -112 -121 -150 -192 -222h151l-19 -87h-253l14 67c19 85 206 151 206 223 c0 16 -8 29 -28 29z" />
<glyph unicode="&#x215b;" horiz-adv-x="834" d="M248 0h-106l553 681h107zM323 367l-18 -87h-221l18 87h65l39 183l-40 -38l-46 45l128 124h78l-67 -314h64zM635 -11c-72 0 -111 52 -111 104c0 50 32 87 64 112c-10 14 -15 36 -15 59c0 99 80 140 151 140c54 0 102 -32 102 -94c0 -43 -30 -80 -54 -102 c15 -16 27 -41 27 -72c0 -84 -60 -147 -164 -147zM653 69c26 0 59 17 59 46c0 23 -27 42 -46 50c-22 -10 -52 -35 -52 -60c0 -21 18 -36 39 -36zM736 295c0 18 -15 26 -30 26c-16 0 -44 -11 -44 -38c0 -18 14 -33 27 -40c24 11 47 34 47 52z" />
<glyph unicode="&#x215c;" horiz-adv-x="845" d="M646 -11c-72 0 -111 52 -111 104c0 50 32 87 64 112c-10 14 -15 36 -15 59c0 99 80 140 151 140c54 0 102 -32 102 -94c0 -43 -30 -80 -54 -102c15 -16 27 -41 27 -72c0 -84 -60 -147 -164 -147zM664 69c26 0 59 17 59 46c0 23 -27 42 -46 50c-22 -10 -52 -35 -52 -60 c0 -21 18 -36 39 -36zM747 295c0 18 -15 26 -30 26c-16 0 -44 -11 -44 -38c0 -18 14 -33 27 -40c24 11 47 34 47 52zM259 0h-106l553 681h107zM379 427c0 -89 -77 -146 -161 -146c-56 0 -105 32 -105 108c0 12 1 25 4 38h83c-1 -5 -2 -10 -2 -15c0 -31 17 -44 37 -44 c24 0 50 20 50 51c0 24 -15 33 -34 33h-33l16 76h32c19 0 46 22 46 46c0 19 -16 31 -33 31c-18 0 -45 -17 -52 -53h-83c18 84 81 140 157 140c59 0 103 -36 103 -95c0 -43 -27 -80 -57 -103c17 -11 32 -37 32 -67z" />
<glyph unicode="&#x215d;" horiz-adv-x="841" d="M255 0h-106l553 681h107zM642 -11c-72 0 -111 52 -111 104c0 50 32 87 64 112c-10 14 -15 36 -15 59c0 99 80 140 151 140c54 0 102 -32 102 -94c0 -43 -30 -80 -54 -102c15 -16 27 -41 27 -72c0 -84 -60 -147 -164 -147zM660 69c26 0 59 17 59 46c0 23 -27 42 -46 50 c-22 -10 -52 -35 -52 -60c0 -21 18 -36 39 -36zM743 295c0 18 -15 26 -30 26c-16 0 -44 -11 -44 -38c0 -18 14 -33 27 -40c24 11 47 34 47 52zM261 590l-21 -58c20 16 51 21 68 21c51 0 78 -48 78 -98c0 -93 -60 -184 -171 -184c-64 0 -102 47 -102 107c0 9 1 19 3 28h87 c-1 -4 -1 -8 -1 -11c0 -22 15 -36 31 -36c38 0 59 40 59 77c0 25 -9 38 -30 38c-20 0 -40 -13 -52 -31h-87l88 238h207l-19 -91h-138z" />
<glyph unicode="&#x215e;" horiz-adv-x="741" d="M542 -11c-72 0 -111 52 -111 104c0 50 32 87 64 112c-10 14 -15 36 -15 59c0 99 80 140 151 140c54 0 102 -32 102 -94c0 -43 -30 -80 -54 -102c15 -16 27 -41 27 -72c0 -84 -60 -147 -164 -147zM560 69c26 0 59 17 59 46c0 23 -27 42 -46 50c-22 -10 -52 -35 -52 -60 c0 -21 18 -36 39 -36zM643 295c0 18 -15 26 -30 26c-16 0 -44 -11 -44 -38c0 -18 14 -33 27 -40c24 11 47 34 47 52zM155 0h-106l553 681h107zM165 277h-98l207 315h-157l19 88h255l-19 -87z" />
<glyph unicode="A" horiz-adv-x="598" d="M552 0h-107l-31 212h-214l-121 -212h-106l395 680h77zM256 307h144c-23 134 -27 164 -32 192z" />
<glyph unicode="&#x2126;" horiz-adv-x="749" d="M483 690c147 0 243 -114 243 -267c0 -141 -56 -239 -147 -328h103l-20 -95h-275l19 89c124 47 213 182 213 319c0 109 -60 187 -156 187c-153 0 -263 -176 -263 -320c0 -87 40 -158 107 -186l-19 -89h-276l20 95h104c-28 43 -44 97 -44 158c0 214 170 437 391 437z" />
<glyph unicode="&#x394;" horiz-adv-x="739" d="M483 715l170 -715h-641zM434 480l-255 -385h346z" />
<glyph unicode="&#x3bc;" horiz-adv-x="537" d="M-8 -230l153 720h100l-69 -326c-1 -8 -2 -15 -2 -22c0 -44 19 -61 46 -61c76 0 151 96 165 163l51 246h100l-85 -401c1 -18 14 -23 29 -23c10 0 20 3 29 5v-72c-23 -9 -44 -9 -59 -9c-67 0 -96 34 -96 90c-44 -59 -106 -90 -153 -90c-22 0 -42 4 -60 11l-49 -231h-100z " />
<glyph unicode="&#x2215;" horiz-adv-x="276" d="M-14 0h-106l553 681h107z" />
<glyph horiz-adv-x="145" d="M136 530h-69c33 56 46 93 58 150h81c-14 -56 -36 -99 -70 -150z" />
<glyph horiz-adv-x="559" d="M237 -10c-93 0 -175 91 -175 207c0 161 137 303 284 303c41 0 77 -25 105 -60l14 50h95l-99 -471c-28 -134 -106 -250 -260 -258c-95 3 -152 50 -179 151h107c13 -34 35 -58 92 -58c73 0 126 89 138 148l6 31c-38 -27 -82 -43 -128 -43zM257 83c72 0 155 90 155 199 c0 72 -36 125 -86 125c-78 0 -159 -91 -159 -200c0 -71 36 -124 90 -124z" />
<glyph horiz-adv-x="560" d="M237 -10c-93 0 -175 91 -175 207c0 161 137 303 284 303c41 0 77 -25 105 -60l14 50h95l-99 -471c-28 -134 -106 -250 -260 -258c-95 3 -152 50 -179 151h107c13 -34 35 -58 92 -58c73 0 126 89 138 148l6 31c-38 -27 -82 -43 -128 -43zM257 83c72 0 155 90 155 199 c0 72 -36 125 -86 125c-78 0 -159 -91 -159 -200c0 -71 36 -124 90 -124zM390 690c32 0 54 -22 54 -51c0 -40 -39 -77 -82 -77c-35 0 -55 21 -55 50c0 39 37 78 83 78z" />
<glyph horiz-adv-x="560" d="M237 -10c-93 0 -175 91 -175 207c0 161 137 303 284 303c41 0 77 -25 105 -60l14 50h95l-99 -471c-28 -134 -106 -250 -260 -258c-95 3 -152 50 -179 151h107c13 -34 35 -58 92 -58c73 0 126 89 138 148l6 31c-38 -27 -82 -43 -128 -43zM257 83c72 0 155 90 155 199 c0 72 -36 125 -86 125c-78 0 -159 -91 -159 -200c0 -71 36 -124 90 -124zM306 539h-86l117 142h107l56 -142h-85l-40 70z" />
<glyph horiz-adv-x="560" d="M237 -10c-93 0 -175 91 -175 207c0 161 137 303 284 303c41 0 77 -25 105 -60l14 50h95l-99 -472c-28 -134 -106 -249 -260 -257c-95 3 -152 50 -179 151h107c13 -34 35 -58 92 -58c73 0 126 89 138 148l6 31c-38 -27 -82 -43 -128 -43zM257 83c72 0 155 90 155 199 c0 72 -36 125 -86 125c-78 0 -159 -91 -159 -200c0 -71 36 -124 90 -124zM437 680h85c-19 -87 -86 -139 -154 -139c-62 0 -126 40 -126 116c0 7 1 15 2 23h85c0 -4 -1 -8 -1 -11c0 -31 21 -49 44 -49c26 0 54 22 65 60z" />
<glyph horiz-adv-x="559" d="M237 -10c-93 0 -175 91 -175 207c0 161 137 303 284 303c41 0 77 -25 105 -60l14 50h95l-99 -471c-28 -134 -106 -250 -260 -258c-95 3 -152 50 -179 151h107c13 -34 35 -58 92 -58c73 0 126 89 138 148l6 31c-38 -27 -82 -43 -128 -43zM257 83c72 0 155 90 155 199 c0 72 -36 125 -86 125c-78 0 -159 -91 -159 -200c0 -71 36 -124 90 -124zM369 680h69c-33 -56 -46 -93 -58 -150h-81c14 56 36 99 70 150z" />
<glyph unicode="&#x237;" horiz-adv-x="269" d="M270 490l-104 -488c-24 -112 -107 -242 -257 -242c-25 0 -54 6 -89 19l59 86c20 -7 39 -12 50 -12c95 0 130 118 137 149l104 488h100z" />
<glyph unicode="&#xc0;" horiz-adv-x="598" d="M552 0h-107l-31 212h-214l-121 -212h-106l395 680h77zM256 307h144c-23 134 -27 164 -32 192zM450 716h-85l-80 142h109z" />
<glyph unicode="&#xc1;" horiz-adv-x="598" d="M552 0h-107l-31 212h-214l-121 -212h-106l395 680h77zM256 307h144c-23 134 -27 164 -32 192zM453 716h-86l117 142h108z" />
<glyph unicode="&#xc2;" horiz-adv-x="598" d="M552 0h-107l-31 212h-214l-121 -212h-106l395 680h77zM256 307h144c-23 134 -27 164 -32 192zM360 716h-86l117 142h106l57 -142h-86l-39 70z" />
<glyph unicode="&#xc3;" horiz-adv-x="598" d="M552 0h-107l-31 212h-214l-121 -212h-106l395 680h77zM256 307h144c-23 134 -27 164 -32 192zM520 858h85c-17 -49 -53 -122 -127 -122c-46 0 -78 50 -106 50c-21 0 -25 -26 -33 -41h-83c19 55 57 122 131 122c40 0 60 -49 99 -49c19 0 25 15 34 40z" />
<glyph unicode="&#xc4;" horiz-adv-x="598" d="M552 0h-107l-31 212h-214l-121 -212h-106l395 680h77zM256 307h144c-23 134 -27 164 -32 192zM371 870c28 0 47 -19 47 -46c0 -35 -33 -68 -71 -68c-31 0 -49 19 -49 44c0 37 33 70 73 70zM522 870c29 0 48 -19 48 -46c0 -35 -34 -68 -72 -68c-29 0 -47 18 -47 43 c0 36 31 71 71 71z" />
<glyph unicode="&#xc5;" horiz-adv-x="598" d="M552 0h-107l-31 212h-214l-121 -212h-106l377 649c-17 12 -26 31 -26 54c0 53 52 103 108 103c48 0 75 -28 75 -67c0 -38 -24 -72 -57 -90zM256 307h144c-23 134 -27 164 -32 192zM420 748c-16 0 -35 -15 -35 -33c0 -13 10 -23 23 -23c16 0 35 15 35 33 c0 13 -10 23 -23 23z" />
<glyph unicode="&#x100;" horiz-adv-x="598" d="M552 0h-107l-31 212h-214l-121 -212h-106l395 680h77zM256 307h144c-23 134 -27 164 -32 192zM551 779h-249l17 79h249z" />
<glyph unicode="&#x102;" horiz-adv-x="598" d="M552 0h-107l-31 212h-214l-121 -212h-106l395 680h77zM256 307h144c-23 134 -27 164 -32 192zM487 858h85c-19 -87 -86 -139 -154 -139c-62 0 -126 40 -126 116c0 7 1 15 2 23h85c0 -4 -1 -8 -1 -11c0 -31 21 -49 44 -49c26 0 54 22 65 60z" />
<glyph unicode="&#x104;" horiz-adv-x="598" d="M552 0c-26 -19 -69 -52 -69 -93c0 -26 18 -49 56 -61l-35 -76c-69 21 -108 60 -108 119c0 44 20 82 49 111l-31 212h-214l-121 -212h-106l395 680h77zM256 307h144c-23 134 -27 164 -32 192z" />
<glyph unicode="&#xd2;" horiz-adv-x="705" d="M462 690c146 0 240 -117 240 -267c0 -220 -155 -433 -388 -433c-145 0 -239 115 -239 266c0 203 153 434 387 434zM442 595c-150 0 -261 -189 -261 -332c0 -109 56 -177 154 -177c152 0 261 187 261 330c0 104 -60 179 -154 179zM517 716h-85l-80 142h109z" />
<glyph unicode="&#xd3;" horiz-adv-x="705" d="M462 690c146 0 240 -117 240 -267c0 -220 -155 -433 -388 -433c-145 0 -239 115 -239 266c0 203 153 434 387 434zM442 595c-150 0 -261 -189 -261 -332c0 -109 56 -177 154 -177c152 0 261 187 261 330c0 104 -60 179 -154 179zM509 716h-86l117 142h108z" />
<glyph unicode="&#xd4;" horiz-adv-x="705" d="M462 690c146 0 240 -117 240 -267c0 -220 -155 -433 -388 -433c-145 0 -239 115 -239 266c0 203 153 434 387 434zM442 595c-150 0 -261 -189 -261 -332c0 -109 56 -177 154 -177c152 0 261 187 261 330c0 104 -60 179 -154 179zM418 716h-86l117 142h106l57 -142h-86 l-39 70z" />
<glyph unicode="&#xd5;" horiz-adv-x="705" d="M462 690c146 0 240 -117 240 -267c0 -220 -155 -433 -388 -433c-145 0 -239 115 -239 266c0 203 153 434 387 434zM442 595c-150 0 -261 -189 -261 -332c0 -109 56 -177 154 -177c152 0 261 187 261 330c0 104 -60 179 -154 179zM578 858h85c-17 -49 -53 -122 -127 -122 c-46 0 -78 50 -106 50c-21 0 -25 -26 -33 -41h-83c19 55 57 122 131 122c40 0 60 -49 99 -49c19 0 25 15 34 40z" />
<glyph unicode="&#xd6;" horiz-adv-x="705" d="M462 690c146 0 240 -117 240 -267c0 -220 -155 -433 -388 -433c-145 0 -239 115 -239 266c0 203 153 434 387 434zM442 595c-150 0 -261 -189 -261 -332c0 -109 56 -177 154 -177c152 0 261 187 261 330c0 104 -60 179 -154 179zM426 870c28 0 47 -19 47 -46 c0 -35 -33 -68 -71 -68c-31 0 -49 19 -49 44c0 37 33 70 73 70zM577 870c29 0 48 -19 48 -46c0 -35 -34 -68 -72 -68c-29 0 -47 18 -47 43c0 36 31 71 71 71z" />
<glyph unicode="&#xd8;" horiz-adv-x="705" d="M196 -54h-105l65 104c-52 48 -81 121 -81 206c0 203 153 434 387 434c30 0 58 -5 84 -15l29 47h106l-59 -95c50 -48 80 -121 80 -204c0 -220 -155 -433 -388 -433c-30 0 -57 5 -82 13zM442 595c-150 0 -261 -189 -261 -332c0 -50 11 -91 33 -121l277 445 c-15 5 -32 8 -49 8zM596 416c0 46 -12 86 -33 117l-276 -441c15 -4 31 -6 48 -6c152 0 261 187 261 330z" />
<glyph unicode="&#x14c;" horiz-adv-x="705" d="M462 690c146 0 240 -117 240 -267c0 -220 -155 -433 -388 -433c-145 0 -239 115 -239 266c0 203 153 434 387 434zM442 595c-150 0 -261 -189 -261 -332c0 -109 56 -177 154 -177c152 0 261 187 261 330c0 104 -60 179 -154 179zM608 779h-249l17 79h249z" />
<glyph unicode="&#x14e;" horiz-adv-x="705" d="M462 690c146 0 240 -117 240 -267c0 -220 -155 -433 -388 -433c-145 0 -239 115 -239 266c0 203 153 434 387 434zM442 595c-150 0 -261 -189 -261 -332c0 -109 56 -177 154 -177c152 0 261 187 261 330c0 104 -60 179 -154 179zM542 858h85c-19 -87 -86 -139 -154 -139 c-62 0 -126 40 -126 116c0 7 1 15 2 23h85c0 -4 -1 -8 -1 -11c0 -31 21 -49 44 -49c26 0 54 22 65 60z" />
<glyph unicode="&#x150;" horiz-adv-x="705" d="M462 690c146 0 240 -117 240 -267c0 -220 -155 -433 -388 -433c-145 0 -239 115 -239 266c0 203 153 434 387 434zM442 595c-150 0 -261 -189 -261 -332c0 -109 56 -177 154 -177c152 0 261 187 261 330c0 104 -60 179 -154 179zM441 718h-107l124 140h121zM599 718h-106 l133 140h121z" />
<glyph unicode="&#xc7;" horiz-adv-x="652" d="M236 -98l37 92c-122 19 -198 125 -198 262c0 203 153 434 387 434c95 0 178 -45 228 -147l-80 -61c-30 76 -97 113 -168 113c-150 0 -261 -189 -261 -332c0 -109 56 -177 154 -177c66 0 141 52 202 127l66 -76c-81 -90 -170 -136 -255 -145l-16 -37c57 -15 67 -60 67 -85 c0 -53 -59 -110 -127 -110c-56 0 -97 41 -111 70l65 50c16 -26 39 -36 55 -36s26 13 27 25c0 13 -14 32 -72 33z" />
<glyph unicode="&#x106;" horiz-adv-x="652" d="M462 690c95 0 178 -45 228 -147l-80 -61c-30 76 -97 113 -168 113c-150 0 -261 -189 -261 -332c0 -109 56 -177 154 -177c66 0 141 52 202 127l66 -76c-92 -102 -194 -147 -289 -147c-145 0 -239 115 -239 266c0 203 153 434 387 434zM509 716h-86l117 142h108z" />
<glyph unicode="&#x108;" horiz-adv-x="652" d="M462 690c95 0 178 -45 228 -147l-80 -61c-30 76 -97 113 -168 113c-150 0 -261 -189 -261 -332c0 -109 56 -177 154 -177c66 0 141 52 202 127l66 -76c-92 -102 -194 -147 -289 -147c-145 0 -239 115 -239 266c0 203 153 434 387 434zM409 716h-86l117 142h106l57 -142 h-86l-39 70z" />
<glyph unicode="&#x10a;" horiz-adv-x="652" d="M462 690c95 0 178 -45 228 -147l-80 -61c-30 76 -97 113 -168 113c-150 0 -261 -189 -261 -332c0 -109 56 -177 154 -177c66 0 141 52 202 127l66 -76c-92 -102 -194 -147 -289 -147c-145 0 -239 115 -239 266c0 203 153 434 387 434zM493 860c32 0 54 -21 54 -49 c0 -40 -39 -76 -81 -76c-34 0 -53 21 -53 49c0 38 35 76 80 76z" />
<glyph unicode="&#x10c;" horiz-adv-x="652" d="M462 690c95 0 178 -45 228 -147l-80 -61c-30 76 -97 113 -168 113c-150 0 -261 -189 -261 -332c0 -109 56 -177 154 -177c66 0 141 52 202 127l66 -76c-92 -102 -194 -147 -289 -147c-145 0 -239 115 -239 266c0 203 153 434 387 434zM350 858h85l40 -70 c22 22 48 47 70 70h85l-116 -142h-107z" />
<glyph unicode="&#x11c;" horiz-adv-x="692" d="M478 690c93 0 193 -45 243 -147l-81 -59c-30 73 -116 111 -182 111c-124 0 -267 -138 -267 -326c0 -122 63 -182 167 -182c42 0 124 16 169 39l34 151h-181l20 93h282l-65 -300c-86 -55 -199 -80 -278 -80c-138 0 -256 110 -256 274c0 265 201 426 395 426zM420 716h-86 l117 142h106l57 -142h-86l-39 70z" />
<glyph unicode="&#x11e;" horiz-adv-x="692" d="M478 690c93 0 193 -45 243 -147l-81 -59c-30 73 -116 111 -182 111c-124 0 -267 -138 -267 -326c0 -122 63 -182 167 -182c42 0 124 16 169 39l34 151h-181l20 93h282l-65 -300c-86 -55 -199 -80 -278 -80c-138 0 -256 110 -256 274c0 265 201 426 395 426zM553 858h85 c-19 -87 -86 -139 -154 -139c-62 0 -126 40 -126 116c0 7 1 15 2 23h85c0 -4 -1 -8 -1 -11c0 -31 21 -49 44 -49c26 0 54 22 65 60z" />
<glyph unicode="&#x120;" horiz-adv-x="692" d="M478 690c93 0 193 -45 243 -147l-81 -59c-30 73 -116 111 -182 111c-124 0 -267 -138 -267 -326c0 -122 63 -182 167 -182c42 0 124 16 169 39l34 151h-181l20 93h282l-65 -300c-86 -55 -199 -80 -278 -80c-138 0 -256 110 -256 274c0 265 201 426 395 426zM515 860 c32 0 54 -21 54 -49c0 -40 -39 -76 -81 -76c-34 0 -53 21 -53 49c0 38 35 76 80 76z" />
<glyph unicode="&#x122;" horiz-adv-x="692" d="M478 690c93 0 193 -45 243 -147l-81 -59c-30 73 -116 111 -182 111c-124 0 -267 -138 -267 -326c0 -122 63 -182 167 -182c42 0 124 16 169 39l34 151h-181l20 93h282l-65 -300c-86 -55 -199 -80 -278 -80c-138 0 -256 110 -256 274c0 265 201 426 395 426zM313 -230h-83 c32 56 56 117 68 175h91c-21 -89 -40 -122 -76 -175z" />
<glyph unicode="&#x124;" horiz-adv-x="675" d="M539 0h-100l69 322h-277l-69 -322h-100l145 680h100l-56 -263h277l56 263h100zM397 716h-86l117 142h106l57 -142h-86l-39 70z" />
<glyph unicode="&#xcc;" horiz-adv-x="298" d="M162 0h-100l145 680h100zM306 716h-85l-80 142h109z" />
<glyph unicode="&#xcd;" horiz-adv-x="298" d="M162 0h-100l145 680h100zM306 716h-86l117 142h108z" />
<glyph unicode="&#xce;" horiz-adv-x="298" d="M162 0h-100l145 680h100zM209 716h-86l117 142h106l57 -142h-86l-39 70z" />
<glyph unicode="&#xcf;" horiz-adv-x="298" d="M162 0h-100l145 680h100zM220 870c28 0 47 -19 47 -46c0 -35 -33 -68 -71 -68c-31 0 -49 19 -49 44c0 37 33 70 73 70zM371 870c29 0 48 -19 48 -46c0 -35 -34 -68 -72 -68c-29 0 -47 18 -47 43c0 36 31 71 71 71z" />
<glyph unicode="&#x128;" horiz-adv-x="298" d="M162 0h-100l145 680h100zM372 858h85c-17 -49 -53 -122 -127 -122c-46 0 -78 50 -106 50c-21 0 -25 -26 -33 -41h-83c19 55 57 122 131 122c40 0 60 -49 99 -49c19 0 25 15 34 40z" />
<glyph unicode="&#x12a;" horiz-adv-x="298" d="M162 0h-100l145 680h100zM394 778h-254l17 80h254z" />
<glyph unicode="&#x12e;" horiz-adv-x="298" d="M162 0c-26 -19 -69 -52 -69 -93c0 -26 18 -49 56 -61l-35 -76c-69 21 -108 60 -108 119c0 48 23 87 57 117l144 674h100z" />
<glyph unicode="&#x130;" horiz-adv-x="298" d="M162 0h-100l145 680h100zM296 860c32 0 54 -21 54 -49c0 -40 -39 -76 -81 -76c-34 0 -53 21 -53 49c0 38 35 76 80 76z" />
<glyph unicode="&#xc8;" horiz-adv-x="541" d="M570 585h-283l-36 -168h259l-20 -95h-259l-48 -227h283l-21 -95h-383l145 680h383zM455 716h-85l-80 142h109z" />
<glyph unicode="&#xc9;" horiz-adv-x="541" d="M570 585h-283l-36 -168h259l-20 -95h-259l-48 -227h283l-21 -95h-383l145 680h383zM445 716h-86l117 142h108z" />
<glyph unicode="&#xca;" horiz-adv-x="541" d="M570 585h-283l-36 -168h259l-20 -95h-259l-48 -227h283l-21 -95h-383l145 680h383zM352 716h-86l117 142h106l57 -142h-86l-39 70z" />
<glyph unicode="&#xcb;" horiz-adv-x="541" d="M570 585h-283l-36 -168h259l-20 -95h-259l-48 -227h283l-21 -95h-383l145 680h383zM364 870c28 0 47 -19 47 -46c0 -35 -33 -68 -71 -68c-31 0 -49 19 -49 44c0 37 33 70 73 70zM515 870c29 0 48 -19 48 -46c0 -35 -34 -68 -72 -68c-29 0 -47 18 -47 43c0 36 31 71 71 71 z" />
<glyph unicode="&#x112;" horiz-adv-x="541" d="M570 585h-283l-36 -168h259l-20 -95h-259l-48 -227h283l-21 -95h-383l145 680h383zM542 779h-249l17 79h249z" />
<glyph unicode="&#x114;" horiz-adv-x="541" d="M570 585h-283l-36 -168h259l-20 -95h-259l-48 -227h283l-21 -95h-383l145 680h383zM479 858h85c-19 -87 -86 -139 -154 -139c-62 0 -126 40 -126 116c0 7 1 15 2 23h85c0 -4 -1 -8 -1 -11c0 -31 21 -49 44 -49c26 0 54 22 65 60z" />
<glyph unicode="&#x116;" horiz-adv-x="541" d="M570 585h-283l-36 -168h259l-20 -95h-259l-48 -227h283l-21 -95h-383l145 680h383zM434 860c32 0 54 -21 54 -49c0 -40 -39 -76 -81 -76c-34 0 -53 21 -53 49c0 38 35 76 80 76z" />
<glyph unicode="&#x118;" horiz-adv-x="541" d="M570 585h-283l-36 -168h259l-20 -95h-259l-48 -227h283l-21 -95c-26 -19 -69 -53 -69 -94c0 -26 18 -49 56 -61l-35 -76c-69 21 -108 60 -108 119c0 45 20 82 51 112h-278l145 680h383z" />
<glyph unicode="&#x10e;" horiz-adv-x="636" d="M207 680h168c171 0 258 -102 258 -241c0 -236 -146 -439 -403 -439h-168zM287 585l-104 -488h68c169 0 283 149 283 322c0 131 -73 166 -179 166h-68zM276 858h85l40 -70c22 22 48 47 70 70h85l-116 -142h-107z" />
<glyph unicode="&#x134;" horiz-adv-x="545" d="M225 585l20 95h320l-100 -481c-30 -141 -124 -209 -258 -209c-109 0 -170 87 -170 188c0 16 2 32 5 49h100c-4 -20 -5 -41 -5 -49c0 -51 26 -92 90 -92c63 0 119 34 136 113l82 386h-220zM340 716h-86l117 142h106l57 -142h-86l-39 70z" />
<glyph unicode="&#x136;" horiz-adv-x="634" d="M713 680l-412 -315l261 -365h-131l-206 296l-63 -296h-100l145 680h100l-51 -239l301 239h156zM260 -230h-83c32 56 56 117 68 175h91c-21 -89 -40 -122 -76 -175z" />
<glyph unicode="&#xd1;" horiz-adv-x="673" d="M537 0h-93l-178 476l-104 -476h-100l145 680h93l178 -480l104 480h100zM560 858h85c-17 -49 -53 -122 -127 -122c-46 0 -78 50 -106 50c-21 0 -25 -26 -33 -41h-83c19 55 57 122 131 122c40 0 60 -49 99 -49c19 0 25 15 34 40z" />
<glyph unicode="&#x143;" horiz-adv-x="673" d="M537 0h-93l-178 476l-104 -476h-100l145 680h93l178 -480l104 480h100zM440 716h-86l117 142h108z" />
<glyph unicode="&#x145;" horiz-adv-x="673" d="M537 0h-93l-178 476l-104 -476h-100l145 680h93l178 -480l104 480h100zM262 -230h-83c32 56 56 117 68 175h91c-21 -89 -40 -122 -76 -175z" />
<glyph unicode="&#x147;" horiz-adv-x="673" d="M537 0h-93l-178 476l-104 -476h-100l145 680h93l178 -480l104 480h100zM340 858h85l40 -70c22 22 48 47 70 70h85l-116 -142h-107z" />
<glyph unicode="&#x154;" horiz-adv-x="565" d="M207 680h170c127 0 192 -89 192 -174c0 -82 -57 -153 -137 -188l79 -318h-107l-70 297h-108l-63 -297h-101zM288 583l-41 -191h99c63 0 126 41 126 112c0 39 -31 79 -95 79h-89zM407 716h-86l117 142h108z" />
<glyph unicode="&#x156;" horiz-adv-x="565" d="M207 680h170c127 0 192 -89 192 -174c0 -82 -57 -153 -137 -188l79 -318h-107l-70 297h-108l-63 -297h-101zM288 583l-41 -191h99c63 0 126 41 126 112c0 39 -31 79 -95 79h-89zM260 -230h-83c32 56 56 117 68 175h91c-21 -89 -40 -122 -76 -175z" />
<glyph unicode="&#x158;" horiz-adv-x="566" d="M207 680h170c127 0 192 -89 192 -174c0 -82 -57 -153 -137 -188l79 -318h-107l-70 297h-108l-63 -297h-101zM288 583l-41 -191h99c63 0 126 41 126 112c0 39 -31 79 -95 79h-89zM253 858h85l40 -70c22 22 48 47 70 70h85l-116 -142h-107z" />
<glyph unicode="&#x15a;" horiz-adv-x="562" d="M396 690c76 0 133 -30 176 -55l-59 -81c-40 27 -91 41 -137 41c-57 0 -148 -34 -148 -106c0 -103 287 -104 287 -262c0 -141 -146 -237 -287 -237c-95 0 -170 37 -207 63l64 77c53 -32 115 -46 163 -46c63 0 162 47 162 123c0 33 -27 68 -119 106 c-97 40 -169 73 -169 152c0 135 135 225 274 225zM364 716h-86l117 142h108z" />
<glyph unicode="&#x15c;" horiz-adv-x="562" d="M396 690c76 0 133 -30 176 -55l-59 -81c-40 27 -91 41 -137 41c-57 0 -148 -34 -148 -106c0 -103 287 -104 287 -262c0 -141 -146 -237 -287 -237c-95 0 -170 37 -207 63l64 77c53 -32 115 -46 163 -46c63 0 162 47 162 123c0 33 -27 68 -119 106 c-97 40 -169 73 -169 152c0 135 135 225 274 225zM323 716h-86l117 142h106l57 -142h-86l-39 70z" />
<glyph unicode="&#x15e;" horiz-adv-x="562" d="M161 -98l36 89c-80 7 -143 39 -176 62l64 77c53 -32 115 -46 163 -46c63 0 162 47 162 123c0 33 -27 68 -119 106c-97 40 -169 73 -169 152c0 135 135 225 274 225c76 0 133 -30 176 -55l-59 -81c-40 27 -91 41 -137 41c-57 0 -148 -34 -148 -106 c0 -103 287 -104 287 -262c0 -126 -116 -216 -241 -233l-17 -39c57 -15 67 -60 67 -85c0 -53 -59 -110 -127 -110c-56 0 -97 41 -111 70l65 50c16 -26 39 -36 55 -36s26 13 27 25c0 13 -14 32 -72 33z" />
<glyph unicode="&#x160;" horiz-adv-x="562" d="M396 690c76 0 133 -30 176 -55l-59 -81c-40 27 -91 41 -137 41c-57 0 -148 -34 -148 -106c0 -103 287 -104 287 -262c0 -141 -146 -237 -287 -237c-95 0 -170 37 -207 63l64 77c53 -32 115 -46 163 -46c63 0 162 47 162 123c0 33 -27 68 -119 106 c-97 40 -169 73 -169 152c0 135 135 225 274 225zM267 858h85l40 -70c22 22 48 47 70 70h85l-116 -142h-107z" />
<glyph unicode="&#x218;" horiz-adv-x="562" d="M396 690c76 0 133 -30 176 -55l-59 -81c-40 27 -91 41 -137 41c-57 0 -148 -34 -148 -106c0 -103 287 -104 287 -262c0 -141 -146 -237 -287 -237c-95 0 -170 37 -207 63l64 77c53 -32 115 -46 163 -46c63 0 162 47 162 123c0 33 -27 68 -119 106 c-97 40 -169 73 -169 152c0 135 135 225 274 225zM184 -230h-83c32 56 56 117 68 175h91c-21 -89 -40 -122 -76 -175z" />
<glyph unicode="&#x164;" horiz-adv-x="522" d="M601 585h-198l-125 -585h-100l125 585h-198l20 95h496zM265 858h85l40 -70c22 22 48 47 70 70h85l-116 -142h-107z" />
<glyph unicode="&#xd9;" horiz-adv-x="694" d="M714 680l-81 -381c-44 -209 -150 -309 -329 -309c-116 0 -201 73 -201 196c0 33 5 73 94 494h100c-87 -411 -90 -472 -90 -494c0 -75 43 -102 117 -102c28 0 165 10 209 215l81 381h100zM504 716h-85l-80 142h109z" />
<glyph unicode="&#xda;" horiz-adv-x="694" d="M714 680l-81 -381c-44 -209 -150 -309 -329 -309c-116 0 -201 73 -201 196c0 33 5 73 94 494h100c-87 -411 -90 -472 -90 -494c0 -75 43 -102 117 -102c28 0 165 10 209 215l81 381h100zM499 716h-86l117 142h108z" />
<glyph unicode="&#xdb;" horiz-adv-x="694" d="M714 680l-81 -381c-44 -209 -150 -309 -329 -309c-116 0 -201 73 -201 196c0 33 5 73 94 494h100c-87 -411 -90 -472 -90 -494c0 -75 43 -102 117 -102c28 0 165 10 209 215l81 381h100zM406 716h-86l117 142h106l57 -142h-86l-39 70z" />
<glyph unicode="&#xdc;" horiz-adv-x="694" d="M714 680l-81 -381c-44 -209 -150 -309 -329 -309c-116 0 -201 73 -201 196c0 33 5 73 94 494h100c-87 -411 -90 -472 -90 -494c0 -75 43 -102 117 -102c28 0 165 10 209 215l81 381h100zM418 870c28 0 47 -19 47 -46c0 -35 -33 -68 -71 -68c-31 0 -49 19 -49 44 c0 37 33 70 73 70zM569 870c29 0 48 -19 48 -46c0 -35 -34 -68 -72 -68c-29 0 -47 18 -47 43c0 36 31 71 71 71z" />
<glyph unicode="&#x168;" horiz-adv-x="694" d="M714 680l-81 -381c-44 -209 -150 -309 -329 -309c-116 0 -201 73 -201 196c0 33 5 73 94 494h100c-87 -411 -90 -472 -90 -494c0 -75 43 -102 117 -102c28 0 165 10 209 215l81 381h100zM572 858h85c-17 -49 -53 -122 -127 -122c-46 0 -78 50 -106 50 c-21 0 -25 -26 -33 -41h-83c19 55 57 122 131 122c40 0 60 -49 99 -49c19 0 25 15 34 40z" />
<glyph unicode="&#x16a;" horiz-adv-x="694" d="M714 680l-81 -381c-44 -209 -150 -309 -329 -309c-116 0 -201 73 -201 196c0 33 5 73 94 494h100c-87 -411 -90 -472 -90 -494c0 -75 43 -102 117 -102c28 0 165 10 209 215l81 381h100zM601 779h-249l17 79h249z" />
<glyph unicode="&#x16c;" horiz-adv-x="694" d="M714 680l-81 -381c-44 -209 -150 -309 -329 -309c-116 0 -201 73 -201 196c0 33 5 73 94 494h100c-87 -411 -90 -472 -90 -494c0 -75 43 -102 117 -102c28 0 165 10 209 215l81 381h100zM545 858h85c-19 -87 -86 -139 -154 -139c-62 0 -126 40 -126 116c0 7 1 15 2 23h85 c0 -4 -1 -8 -1 -11c0 -31 21 -49 44 -49c26 0 54 22 65 60z" />
<glyph unicode="&#x16e;" horiz-adv-x="694" d="M714 680l-81 -381c-44 -209 -150 -309 -329 -309c-116 0 -201 73 -201 196c0 33 5 73 94 494h100c-87 -411 -90 -472 -90 -494c0 -75 43 -102 117 -102c28 0 165 10 209 215l81 381h100zM487 863c48 0 75 -28 75 -67c0 -56 -52 -104 -111 -104c-43 0 -72 29 -72 68 c0 53 52 103 108 103zM475 805c-16 0 -35 -15 -35 -33c0 -13 10 -23 23 -23c16 0 35 15 35 33c0 13 -10 23 -23 23z" />
<glyph unicode="&#x170;" horiz-adv-x="694" d="M714 680l-81 -381c-44 -209 -150 -309 -329 -309c-116 0 -201 73 -201 196c0 33 5 73 94 494h100c-87 -411 -90 -472 -90 -494c0 -75 43 -102 117 -102c28 0 165 10 209 215l81 381h100zM431 718h-107l124 140h121zM589 718h-106l133 140h121z" />
<glyph unicode="&#x172;" horiz-adv-x="694" d="M714 680l-81 -381c-37 -175 -117 -274 -247 -301c-26 -19 -66 -51 -66 -91c0 -26 18 -49 56 -61l-35 -76c-69 21 -108 60 -108 119c0 40 16 75 42 103c-101 10 -172 81 -172 194c0 33 5 73 94 494h100c-87 -411 -90 -472 -90 -494c0 -75 43 -102 117 -102 c28 0 165 10 209 215l81 381h100z" />
<glyph unicode="&#x174;" horiz-adv-x="865" d="M571 680l11 -509l238 509h104l-335 -680h-88l-14 426l-197 -426h-88l-45 680h104l22 -509l228 509h60zM494 716h-86l117 142h106l57 -142h-86l-39 70z" />
<glyph unicode="&#x1e80;" horiz-adv-x="865" d="M571 680l11 -509l238 509h104l-335 -680h-88l-14 426l-197 -426h-88l-45 680h104l22 -509l228 509h60zM594 716h-85l-80 142h109z" />
<glyph unicode="&#x1e82;" horiz-adv-x="865" d="M571 680l11 -509l238 509h104l-335 -680h-88l-14 426l-197 -426h-88l-45 680h104l22 -509l228 509h60zM591 716h-86l117 142h108z" />
<glyph unicode="&#x1e84;" horiz-adv-x="865" d="M571 680l11 -509l238 509h104l-335 -680h-88l-14 426l-197 -426h-88l-45 680h104l22 -509l228 509h60zM506 870c28 0 47 -19 47 -46c0 -35 -33 -68 -71 -68c-31 0 -49 19 -49 44c0 37 33 70 73 70zM657 870c29 0 48 -19 48 -46c0 -35 -34 -68 -72 -68 c-29 0 -47 18 -47 43c0 36 31 71 71 71z" />
<glyph unicode="&#xdd;" horiz-adv-x="604" d="M286 334l-169 346h100l133 -263l231 263h122l-317 -346l-71 -334h-100zM449 716h-86l117 142h108z" />
<glyph unicode="&#x178;" horiz-adv-x="604" d="M286 334l-169 346h100l133 -263l231 263h122l-317 -346l-71 -334h-100zM368 870c28 0 47 -19 47 -46c0 -35 -33 -68 -71 -68c-31 0 -49 19 -49 44c0 37 33 70 73 70zM519 870c29 0 48 -19 48 -46c0 -35 -34 -68 -72 -68c-29 0 -47 18 -47 43c0 36 31 71 71 71z" />
<glyph unicode="&#x176;" horiz-adv-x="604" d="M286 334l-169 346h100l133 -263l231 263h122l-317 -346l-71 -334h-100zM358 716h-86l117 142h106l57 -142h-86l-39 70z" />
<glyph unicode="&#x179;" horiz-adv-x="593" d="M632 586l-481 -492h376l-20 -94h-495l20 94l481 492h-376l20 94h495zM451 716h-86l117 142h108z" />
<glyph unicode="&#x17b;" horiz-adv-x="593" d="M632 586l-481 -492h376l-20 -94h-495l20 94l481 492h-376l20 94h495zM441 860c32 0 54 -21 54 -49c0 -40 -39 -76 -81 -76c-34 0 -53 21 -53 49c0 38 35 76 80 76z" />
<glyph unicode="&#x17d;" horiz-adv-x="593" d="M632 586l-481 -492h376l-20 -94h-495l20 94l481 492h-376l20 94h495zM302 858h85l40 -70c22 22 48 47 70 70h85l-116 -142h-107z" />
<glyph unicode="&#x151;" horiz-adv-x="541" d="M347 500c93 0 175 -91 175 -207c0 -161 -137 -303 -284 -303c-91 0 -171 92 -171 207c0 162 135 303 280 303zM327 407c-72 0 -155 -90 -155 -199c0 -72 36 -125 86 -125c78 0 159 91 159 200c0 71 -36 124 -90 124zM327 540h-107l124 140h121zM485 540h-106l133 140h121 z" />
<glyph unicode="&#x14f;" horiz-adv-x="541" d="M347 500c93 0 175 -91 175 -207c0 -161 -137 -303 -284 -303c-91 0 -171 92 -171 207c0 162 135 303 280 303zM327 407c-72 0 -155 -90 -155 -199c0 -72 36 -125 86 -125c78 0 159 91 159 200c0 71 -36 124 -90 124zM427 679h85c-19 -87 -86 -139 -154 -139 c-62 0 -126 40 -126 116c0 7 1 15 2 23h85c0 -4 -1 -8 -1 -11c0 -31 21 -49 44 -49c26 0 54 22 65 60z" />
<glyph unicode="&#x14d;" horiz-adv-x="541" d="M347 500c93 0 175 -91 175 -207c0 -161 -137 -303 -284 -303c-91 0 -171 92 -171 207c0 162 135 303 280 303zM327 407c-72 0 -155 -90 -155 -199c0 -72 36 -125 86 -125c78 0 159 91 159 200c0 71 -36 124 -90 124zM488 560h-254l17 80h254z" />
<glyph unicode="&#xf8;" horiz-adv-x="541" d="M347 500c20 0 39 -5 57 -12l27 42h84l-52 -83c35 -38 59 -93 59 -154c0 -161 -137 -303 -284 -303c-19 0 -38 4 -56 11l-30 -48h-83l56 89c-36 38 -58 93 -58 155c0 162 135 303 280 303zM417 283c0 26 -5 50 -14 69l-167 -266c7 -2 14 -3 22 -3c78 0 159 91 159 200z M327 407c-72 0 -155 -90 -155 -199c0 -27 5 -50 13 -70l166 265c-7 2 -16 4 -24 4z" />
<glyph unicode="&#xf2;" horiz-adv-x="511" d="M317 500c93 0 175 -91 175 -207c0 -161 -137 -303 -284 -303c-91 0 -171 92 -171 207c0 162 135 303 280 303zM297 407c-72 0 -155 -90 -155 -199c0 -72 36 -125 86 -125c78 0 159 91 159 200c0 71 -36 124 -90 124zM374 538h-86l-80 142h109z" />
<glyph unicode="&#xf3;" horiz-adv-x="541" d="M347 500c93 0 175 -91 175 -207c0 -161 -137 -303 -284 -303c-91 0 -171 92 -171 207c0 162 135 303 280 303zM327 407c-72 0 -155 -90 -155 -199c0 -72 36 -125 86 -125c78 0 159 91 159 200c0 71 -36 124 -90 124zM397 538h-86l117 142h109z" />
<glyph unicode="&#xf4;" horiz-adv-x="541" d="M347 500c93 0 175 -91 175 -207c0 -161 -137 -303 -284 -303c-91 0 -171 92 -171 207c0 162 135 303 280 303zM327 407c-72 0 -155 -90 -155 -199c0 -72 36 -125 86 -125c78 0 159 91 159 200c0 71 -36 124 -90 124zM304 538h-86l117 142h107l56 -142h-85l-40 70z" />
<glyph unicode="&#xf5;" horiz-adv-x="541" d="M347 500c93 0 175 -91 175 -207c0 -161 -137 -303 -284 -303c-91 0 -171 92 -171 207c0 162 135 303 280 303zM327 407c-72 0 -155 -90 -155 -199c0 -72 36 -125 86 -125c78 0 159 91 159 200c0 71 -36 124 -90 124zM465 680h85c-17 -49 -53 -122 -127 -122 c-46 0 -78 50 -106 50c-21 0 -25 -26 -33 -41h-83c19 55 57 122 131 122c40 0 60 -49 99 -49c19 0 25 15 34 40z" />
<glyph unicode="&#xf6;" horiz-adv-x="541" d="M347 500c93 0 175 -91 175 -207c0 -161 -137 -303 -284 -303c-91 0 -171 92 -171 207c0 162 135 303 280 303zM327 407c-72 0 -155 -90 -155 -199c0 -72 36 -125 86 -125c78 0 159 91 159 200c0 71 -36 124 -90 124zM310 689c30 0 49 -19 49 -46c0 -36 -35 -69 -73 -69 c-30 0 -49 20 -49 45c0 37 33 70 73 70zM466 689c28 0 48 -19 48 -46c0 -35 -34 -69 -72 -69c-31 0 -49 20 -49 45c0 37 33 70 73 70z" />
<glyph unicode="&#xe0;" horiz-adv-x="488" d="M160 350l-60 73c64 49 149 77 210 77c117 0 153 -79 153 -139c0 -26 -4 -52 -9 -77l-43 -194c1 -19 14 -24 29 -24c10 0 20 3 29 5v-72c-23 -9 -44 -9 -59 -9c-59 0 -88 26 -95 70c-44 -54 -111 -70 -150 -70c-90 0 -128 59 -128 119c0 158 191 187 324 195 c1 9 2 18 2 26c0 55 -18 77 -76 77c-42 0 -91 -35 -127 -57zM342 221c-51 -2 -204 -6 -204 -90c0 -31 26 -48 57 -48c53 0 116 59 127 75c12 21 15 37 20 63zM363 538h-86l-80 142h109z" />
<glyph unicode="&#xe1;" horiz-adv-x="488" d="M160 350l-60 73c64 49 149 77 210 77c117 0 153 -79 153 -139c0 -26 -4 -52 -9 -77l-43 -194c1 -19 14 -24 29 -24c10 0 20 3 29 5v-72c-23 -9 -44 -9 -59 -9c-59 0 -88 26 -95 70c-44 -54 -111 -70 -150 -70c-90 0 -128 59 -128 119c0 158 191 187 324 195 c1 9 2 18 2 26c0 55 -18 77 -76 77c-42 0 -91 -35 -127 -57zM342 221c-51 -2 -204 -6 -204 -90c0 -31 26 -48 57 -48c53 0 116 59 127 75c12 21 15 37 20 63zM359 538h-86l117 142h109z" />
<glyph unicode="&#xe2;" horiz-adv-x="488" d="M160 350l-60 73c64 49 149 77 210 77c117 0 153 -79 153 -139c0 -26 -4 -52 -9 -77l-43 -194c1 -19 14 -24 29 -24c10 0 20 3 29 5v-72c-23 -9 -44 -9 -59 -9c-59 0 -88 26 -95 70c-44 -54 -111 -70 -150 -70c-90 0 -128 59 -128 119c0 158 191 187 324 195 c1 9 2 18 2 26c0 55 -18 77 -76 77c-42 0 -91 -35 -127 -57zM342 221c-51 -2 -204 -6 -204 -90c0 -31 26 -48 57 -48c53 0 116 59 127 75c12 21 15 37 20 63zM262 538h-86l117 142h107l56 -142h-85l-40 70z" />
<glyph unicode="&#xe3;" horiz-adv-x="488" d="M160 350l-60 73c64 49 149 77 210 77c117 0 153 -79 153 -139c0 -26 -4 -52 -9 -77l-43 -194c1 -19 14 -24 29 -24c10 0 20 3 29 5v-72c-23 -9 -44 -9 -59 -9c-59 0 -88 26 -95 70c-44 -54 -111 -70 -150 -70c-90 0 -128 59 -128 119c0 158 191 187 324 195 c1 9 2 18 2 26c0 55 -18 77 -76 77c-42 0 -91 -35 -127 -57zM342 221c-51 -2 -204 -6 -204 -90c0 -31 26 -48 57 -48c53 0 116 59 127 75c12 21 15 37 20 63zM424 681h85c-17 -49 -53 -122 -127 -122c-46 0 -78 50 -106 50c-21 0 -25 -26 -33 -41h-83c19 55 57 122 131 122 c40 0 60 -49 99 -49c19 0 25 15 34 40z" />
<glyph unicode="&#xe4;" horiz-adv-x="488" d="M160 350l-60 73c64 49 149 77 210 77c117 0 153 -79 153 -139c0 -26 -4 -52 -9 -77l-43 -194c1 -19 14 -24 29 -24c10 0 20 3 29 5v-72c-23 -9 -44 -9 -59 -9c-59 0 -88 26 -95 70c-44 -54 -111 -70 -150 -70c-90 0 -128 59 -128 119c0 158 191 187 324 195 c1 9 2 18 2 26c0 55 -18 77 -76 77c-42 0 -91 -35 -127 -57zM342 221c-51 -2 -204 -6 -204 -90c0 -31 26 -48 57 -48c53 0 116 59 127 75c12 21 15 37 20 63zM270 689c30 0 49 -19 49 -46c0 -36 -35 -69 -73 -69c-30 0 -49 20 -49 45c0 37 33 70 73 70zM426 689 c28 0 48 -19 48 -46c0 -35 -34 -69 -72 -69c-31 0 -49 20 -49 45c0 37 33 70 73 70z" />
<glyph unicode="&#xe5;" horiz-adv-x="488" d="M160 350l-60 73c64 49 149 77 210 77c117 0 153 -79 153 -139c0 -26 -4 -52 -9 -77l-43 -194c1 -19 14 -24 29 -24c10 0 20 3 29 5v-72c-23 -9 -44 -9 -59 -9c-59 0 -88 26 -95 70c-44 -54 -111 -70 -150 -70c-90 0 -128 59 -128 119c0 158 191 187 324 195 c1 9 2 18 2 26c0 55 -18 77 -76 77c-42 0 -91 -35 -127 -57zM342 221c-51 -2 -204 -6 -204 -90c0 -31 26 -48 57 -48c53 0 116 59 127 75c12 21 15 37 20 63zM346 690c48 0 75 -28 75 -67c0 -56 -52 -104 -111 -104c-43 0 -72 29 -72 68c0 53 52 103 108 103zM334 632 c-16 0 -35 -15 -35 -33c0 -13 10 -23 23 -23c16 0 35 15 35 33c0 13 -10 23 -23 23z" />
<glyph unicode="&#x101;" horiz-adv-x="488" d="M160 350l-60 73c64 49 149 77 210 77c117 0 153 -79 153 -139c0 -26 -4 -52 -9 -77l-43 -194c1 -19 14 -24 29 -24c10 0 20 3 29 5v-72c-23 -9 -44 -9 -59 -9c-59 0 -88 26 -95 70c-44 -54 -111 -70 -150 -70c-90 0 -128 59 -128 119c0 158 191 187 324 195 c1 9 2 18 2 26c0 55 -18 77 -76 77c-42 0 -91 -35 -127 -57zM342 221c-51 -2 -204 -6 -204 -90c0 -31 26 -48 57 -48c53 0 116 59 127 75c12 21 15 37 20 63zM448 600h-254l17 80h254z" />
<glyph unicode="&#x103;" horiz-adv-x="488" d="M160 350l-60 73c64 49 149 77 210 77c117 0 153 -79 153 -139c0 -26 -4 -52 -9 -77l-43 -194c1 -19 14 -24 29 -24c10 0 20 3 29 5v-72c-23 -9 -44 -9 -59 -9c-59 0 -88 26 -95 70c-44 -54 -111 -70 -150 -70c-90 0 -128 59 -128 119c0 158 191 187 324 195 c1 9 2 18 2 26c0 55 -18 77 -76 77c-42 0 -91 -35 -127 -57zM342 221c-51 -2 -204 -6 -204 -90c0 -31 26 -48 57 -48c53 0 116 59 127 75c12 21 15 37 20 63zM386 680h85c-19 -87 -86 -139 -154 -139c-62 0 -126 40 -126 116c0 7 1 15 2 23h85c0 -4 -1 -8 -1 -11 c0 -31 21 -49 44 -49c26 0 54 22 65 60z" />
<glyph unicode="&#x105;" horiz-adv-x="488" d="M160 350l-60 73c64 49 149 77 210 77c117 0 153 -79 153 -139c0 -26 -4 -52 -9 -77l-43 -194c1 -19 14 -24 29 -24c10 0 20 3 29 5v-72c-26 -19 -69 -52 -69 -93c0 -26 18 -49 56 -61l-35 -76c-69 21 -108 60 -108 119c0 44 19 80 49 110c-28 10 -42 32 -47 62 c-44 -54 -111 -70 -150 -70c-90 0 -128 59 -128 119c0 158 191 187 324 195c1 9 2 18 2 26c0 55 -18 77 -76 77c-42 0 -91 -35 -127 -57zM342 221c-51 -2 -204 -6 -204 -90c0 -31 26 -48 57 -48c53 0 116 59 127 75c12 21 15 37 20 63z" />
<glyph unicode="&#xe7;" horiz-adv-x="495" d="M157 -104l41 100c-73 22 -131 103 -131 201c0 162 135 303 280 303c70 0 130 -34 168 -111l-79 -54c-20 53 -66 72 -109 72c-72 0 -156 -90 -156 -199c0 -72 37 -125 87 -125c43 0 94 37 136 89l64 -71c-59 -67 -125 -100 -186 -108l-19 -44c57 -15 67 -60 67 -85 c0 -53 -59 -110 -127 -110c-56 0 -97 41 -111 70l65 50c16 -26 39 -36 55 -36s26 13 27 25c0 13 -14 32 -72 33z" />
<glyph unicode="&#x107;" horiz-adv-x="495" d="M258 83c43 0 94 37 136 89l64 -71c-70 -79 -150 -111 -220 -111c-91 0 -171 92 -171 207c0 162 135 303 280 303c70 0 130 -34 168 -111l-79 -54c-20 53 -66 72 -109 72c-72 0 -156 -90 -156 -199c0 -72 37 -125 87 -125zM388 538h-86l117 142h109z" />
<glyph unicode="&#x109;" horiz-adv-x="495" d="M258 83c43 0 94 37 136 89l64 -71c-70 -79 -150 -111 -220 -111c-91 0 -171 92 -171 207c0 162 135 303 280 303c70 0 130 -34 168 -111l-79 -54c-20 53 -66 72 -109 72c-72 0 -156 -90 -156 -199c0 -72 37 -125 87 -125zM304 538h-86l117 142h107l56 -142h-85l-40 70z " />
<glyph unicode="&#x10b;" horiz-adv-x="495" d="M258 83c43 0 94 37 136 89l64 -71c-70 -79 -150 -111 -220 -111c-91 0 -171 92 -171 207c0 162 135 303 280 303c70 0 130 -34 168 -111l-79 -54c-20 53 -66 72 -109 72c-72 0 -156 -90 -156 -199c0 -72 37 -125 87 -125zM363 689c32 0 54 -22 54 -51 c0 -40 -39 -77 -82 -77c-35 0 -55 21 -55 50c0 39 37 78 83 78z" />
<glyph unicode="&#x10d;" horiz-adv-x="495" d="M258 83c43 0 94 37 136 89l64 -71c-70 -79 -150 -111 -220 -111c-91 0 -171 92 -171 207c0 162 135 303 280 303c70 0 130 -34 168 -111l-79 -54c-20 53 -66 72 -109 72c-72 0 -156 -90 -156 -199c0 -72 37 -125 87 -125zM221 680h85l40 -70c22 22 48 47 70 70h85 l-116 -142h-107z" />
<glyph unicode="&#xe8;" horiz-adv-x="521" d="M193 304h204c17 0 19 14 19 29c0 52 -40 74 -89 74s-104 -42 -134 -103zM347 500c94 0 173 -57 173 -166c0 -96 -67 -113 -129 -113h-220v-13c0 -72 37 -125 94 -125c47 0 99 25 141 77l59 -66c-66 -72 -144 -104 -220 -104c-98 0 -178 92 -178 207 c0 162 135 303 280 303zM404 538h-86l-80 142h109z" />
<glyph unicode="&#xe9;" horiz-adv-x="537" d="M193 304h204c17 0 19 14 19 29c0 52 -40 74 -89 74s-104 -42 -134 -103zM347 500c94 0 173 -57 173 -166c0 -96 -67 -113 -129 -113h-220v-13c0 -72 37 -125 94 -125c47 0 99 25 141 77l59 -66c-66 -72 -144 -104 -220 -104c-98 0 -178 92 -178 207 c0 162 135 303 280 303zM396 538h-86l117 142h109z" />
<glyph unicode="&#xea;" horiz-adv-x="521" d="M193 304h204c17 0 19 14 19 29c0 52 -40 74 -89 74s-104 -42 -134 -103zM347 500c94 0 173 -57 173 -166c0 -96 -67 -113 -129 -113h-220v-13c0 -72 37 -125 94 -125c47 0 99 25 141 77l59 -66c-66 -72 -144 -104 -220 -104c-98 0 -178 92 -178 207 c0 162 135 303 280 303zM301 538h-86l117 142h107l56 -142h-85l-40 70z" />
<glyph unicode="&#xeb;" horiz-adv-x="521" d="M193 304h204c17 0 19 14 19 29c0 52 -40 74 -89 74s-104 -42 -134 -103zM347 500c94 0 173 -57 173 -166c0 -96 -67 -113 -129 -113h-220v-13c0 -72 37 -125 94 -125c47 0 99 25 141 77l59 -66c-66 -72 -144 -104 -220 -104c-98 0 -178 92 -178 207 c0 162 135 303 280 303zM311 689c30 0 49 -19 49 -46c0 -36 -35 -69 -73 -69c-30 0 -49 20 -49 45c0 37 33 70 73 70zM467 689c28 0 48 -19 48 -46c0 -35 -34 -69 -72 -69c-31 0 -49 20 -49 45c0 37 33 70 73 70z" />
<glyph unicode="&#x113;" horiz-adv-x="521" d="M193 304h204c17 0 19 14 19 29c0 52 -40 74 -89 74s-104 -42 -134 -103zM347 500c94 0 173 -57 173 -166c0 -96 -67 -113 -129 -113h-220v-13c0 -72 37 -125 94 -125c47 0 99 25 141 77l59 -66c-66 -72 -144 -104 -220 -104c-98 0 -178 92 -178 207 c0 162 135 303 280 303zM486 600h-254l17 80h254z" />
<glyph unicode="&#x115;" horiz-adv-x="521" d="M193 304h204c17 0 19 14 19 29c0 52 -40 74 -89 74s-104 -42 -134 -103zM347 500c94 0 173 -57 173 -166c0 -96 -67 -113 -129 -113h-220v-13c0 -72 37 -125 94 -125c47 0 99 25 141 77l59 -66c-66 -72 -144 -104 -220 -104c-98 0 -178 92 -178 207 c0 162 135 303 280 303zM426 679h85c-19 -87 -86 -139 -154 -139c-62 0 -126 40 -126 116c0 7 1 15 2 23h85c0 -4 -1 -8 -1 -11c0 -31 21 -49 44 -49c26 0 54 22 65 60z" />
<glyph unicode="&#x117;" horiz-adv-x="521" d="M193 304h204c17 0 19 14 19 29c0 52 -40 74 -89 74s-104 -42 -134 -103zM347 500c94 0 173 -57 173 -166c0 -96 -67 -113 -129 -113h-220v-13c0 -72 37 -125 94 -125c47 0 99 25 141 77l59 -66c-66 -72 -144 -104 -220 -104c-98 0 -178 92 -178 207 c0 162 135 303 280 303zM390 689c32 0 54 -22 54 -51c0 -40 -39 -77 -82 -77c-35 0 -55 21 -55 50c0 39 37 78 83 78z" />
<glyph unicode="&#x119;" horiz-adv-x="521" d="M347 500c94 0 173 -57 173 -166c0 -96 -67 -113 -129 -113h-220v-13c0 -72 37 -125 94 -125c47 0 99 25 141 77l59 -66c-45 -49 -96 -79 -150 -95c-25 -20 -66 -53 -66 -93c0 -26 18 -49 56 -61l-35 -76c-69 21 -108 60 -108 119c0 42 18 78 46 107 c-81 19 -141 102 -141 202c0 162 135 303 280 303zM193 304h204c17 0 19 14 19 29c0 52 -40 74 -89 74s-104 -42 -134 -103z" />
<glyph unicode="&#x11b;" horiz-adv-x="525" d="M193 304h204c17 0 19 14 19 29c0 52 -40 74 -89 74s-104 -42 -134 -103zM347 500c94 0 173 -57 173 -166c0 -96 -67 -113 -129 -113h-220v-13c0 -72 37 -125 94 -125c47 0 99 25 141 77l59 -66c-66 -72 -144 -104 -220 -104c-98 0 -178 92 -178 207 c0 162 135 303 280 303zM244 680h85l40 -70c22 22 48 47 70 70h85l-116 -142h-107z" />
<glyph unicode="&#x11d;" horiz-adv-x="507" d="M8 -121c0 62 51 112 108 144c-25 20 -27 39 -27 57c0 33 22 71 58 90c-33 32 -44 79 -44 118c0 114 105 213 230 213c39 0 81 -14 103 -35c23 40 63 80 103 80c19 0 44 -6 67 -22l-52 -87c-8 4 -21 16 -35 16c-19 0 -39 -9 -56 -27c12 -19 21 -51 21 -73 c0 -117 -105 -225 -231 -225c-19 0 -47 4 -66 11c-7 -9 -17 -26 -17 -40c0 -18 26 -34 81 -41c147 -18 203 -45 203 -134c0 -117 -145 -164 -267 -164c-108 0 -179 47 -179 119zM314 408c-54 0 -110 -53 -110 -114c0 -42 28 -73 70 -73c54 0 109 54 109 114 c0 41 -28 73 -69 73zM207 -147c38 0 141 13 141 71c0 53 -119 58 -179 60c-25 -19 -58 -44 -58 -76c0 -31 30 -55 96 -55zM284 538h-86l117 142h107l56 -142h-85l-40 70z" />
<glyph unicode="&#x11f;" horiz-adv-x="507" d="M8 -121c0 62 51 112 108 144c-25 20 -27 39 -27 57c0 33 22 71 58 90c-33 32 -44 79 -44 118c0 114 105 213 230 213c39 0 81 -14 103 -35c23 40 63 80 103 80c19 0 44 -6 67 -22l-52 -87c-8 4 -21 16 -35 16c-19 0 -39 -9 -56 -27c12 -19 21 -51 21 -73 c0 -117 -105 -225 -231 -225c-19 0 -47 4 -66 11c-7 -9 -17 -26 -17 -40c0 -18 26 -34 81 -41c147 -18 203 -45 203 -134c0 -117 -145 -164 -267 -164c-108 0 -179 47 -179 119zM314 408c-54 0 -110 -53 -110 -114c0 -42 28 -73 70 -73c54 0 109 54 109 114 c0 41 -28 73 -69 73zM207 -147c38 0 141 13 141 71c0 53 -119 58 -179 60c-25 -19 -58 -44 -58 -76c0 -31 30 -55 96 -55zM410 680h85c-19 -87 -86 -139 -154 -139c-62 0 -126 40 -126 116c0 7 1 15 2 23h85c0 -4 -1 -8 -1 -11c0 -31 21 -49 44 -49c26 0 54 22 65 60z" />
<glyph unicode="&#x121;" horiz-adv-x="507" d="M8 -121c0 62 51 112 108 144c-25 20 -27 39 -27 57c0 33 22 71 58 90c-33 32 -44 79 -44 118c0 114 105 213 230 213c39 0 81 -14 103 -35c23 40 63 80 103 80c19 0 44 -6 67 -22l-52 -87c-8 4 -21 16 -35 16c-19 0 -39 -9 -56 -27c12 -19 21 -51 21 -73 c0 -117 -105 -225 -231 -225c-19 0 -47 4 -66 11c-7 -9 -17 -26 -17 -40c0 -18 26 -34 81 -41c147 -18 203 -45 203 -134c0 -117 -145 -164 -267 -164c-108 0 -179 47 -179 119zM314 408c-54 0 -110 -53 -110 -114c0 -42 28 -73 70 -73c54 0 109 54 109 114 c0 41 -28 73 -69 73zM207 -147c38 0 141 13 141 71c0 53 -119 58 -179 60c-25 -19 -58 -44 -58 -76c0 -31 30 -55 96 -55zM373 690c32 0 54 -22 54 -51c0 -40 -39 -77 -82 -77c-35 0 -55 21 -55 50c0 39 37 78 83 78z" />
<glyph unicode="&#x125;" horiz-adv-x="527" d="M355 108l48 218c1 7 1 13 1 19c0 46 -20 64 -47 64c-76 0 -150 -96 -164 -163l-52 -246h-100l145 680h100l-57 -270c45 61 101 90 148 90c72 0 133 -44 133 -122c0 -12 -1 -25 -4 -38l-54 -248c0 -20 12 -26 27 -26c10 0 20 3 29 5v-72c-23 -9 -44 -9 -59 -9 c-67 0 -96 34 -96 89c0 8 0 18 2 29zM297 740h-86l117 142h107l56 -142h-85l-40 70z" />
<glyph unicode="&#x127;" horiz-adv-x="527" d="M355 108l48 218c1 7 1 13 1 19c0 46 -20 64 -47 64c-76 0 -150 -96 -164 -163l-52 -246h-100l110 518h-53l17 80h53l18 82h100l-17 -82h89l-17 -80h-89l-23 -108c45 61 101 90 148 90c72 0 133 -44 133 -122c0 -12 -1 -25 -4 -38l-54 -248c0 -20 12 -26 27 -26 c10 0 20 3 29 5v-72c-23 -9 -44 -9 -59 -9c-67 0 -96 34 -96 89c0 8 0 18 2 29z" />
<glyph unicode="&#x129;" horiz-adv-x="238" d="M46 116l80 374h100l-85 -398c0 -20 12 -26 27 -26c10 0 20 3 29 5v-72c-23 -9 -44 -9 -59 -9c-67 0 -96 34 -96 89c0 10 1 23 4 37zM292 680h85c-17 -49 -53 -122 -127 -122c-46 0 -78 50 -106 50c-21 0 -25 -26 -33 -41h-83c19 55 57 122 131 122c40 0 60 -49 99 -49 c19 0 25 15 34 40z" />
<glyph unicode="&#x12b;" horiz-adv-x="238" d="M46 116l80 374h100l-81 -378v-1l-4 -19c0 -20 12 -26 27 -26c10 0 20 3 29 5v-72c-23 -9 -44 -9 -59 -9c-67 0 -96 34 -96 89c0 10 1 23 4 37zM317 600h-254l17 80h254z" />
<glyph unicode="&#x12f;" horiz-adv-x="236" d="M46 116l79 374h100l-84 -398c0 -20 12 -26 27 -26c10 0 20 3 29 5v-70c-26 -19 -68 -54 -68 -94c0 -26 18 -49 56 -61l-35 -76c-69 21 -108 60 -108 119c0 43 19 80 48 109c-33 13 -48 41 -48 81c0 10 1 23 4 37zM143 617c0 35 31 73 73 73c29 0 49 -21 49 -48 c0 -36 -35 -72 -74 -72c-29 0 -48 20 -48 47z" />
<glyph unicode="&#xef;" horiz-adv-x="238" d="M46 116l80 374h100l-85 -398c0 -20 12 -26 27 -26c10 0 20 3 29 5v-72c-23 -9 -44 -9 -59 -9c-67 0 -96 34 -96 89c0 10 1 23 4 37zM139 689c30 0 49 -19 49 -46c0 -36 -35 -69 -73 -69c-30 0 -49 20 -49 45c0 37 33 70 73 70zM295 689c28 0 48 -19 48 -46 c0 -35 -34 -69 -72 -69c-31 0 -49 20 -49 45c0 37 33 70 73 70z" />
<glyph unicode="&#xee;" horiz-adv-x="238" d="M46 116l80 374h100l-85 -398c0 -20 12 -26 27 -26c10 0 20 3 29 5v-72c-23 -9 -44 -9 -59 -9c-67 0 -96 34 -96 89c0 10 1 23 4 37zM132 538h-86l117 142h107l56 -142h-85l-40 70z" />
<glyph unicode="&#xed;" horiz-adv-x="238" d="M46 116l80 374h100l-85 -398c0 -20 12 -26 27 -26c10 0 20 3 29 5v-72c-23 -9 -44 -9 -59 -9c-67 0 -96 34 -96 89c0 10 1 23 4 37zM226 538h-86l117 142h109z" />
<glyph unicode="&#xec;" horiz-adv-x="238" d="M46 116l80 374h100l-85 -398c0 -20 12 -26 27 -26c10 0 20 3 29 5v-72c-23 -9 -44 -9 -59 -9c-67 0 -96 34 -96 89c0 10 1 23 4 37zM230 537h-86l-80 142h109z" />
<glyph unicode="&#x135;" horiz-adv-x="269" d="M171 537h-86l117 142h107l56 -142h-85l-40 70zM270 490l-104 -488c-24 -112 -107 -242 -257 -242c-25 0 -54 6 -89 19l59 86c20 -7 39 -12 50 -12c95 0 130 118 137 149l104 488h100z" />
<glyph unicode="&#x13a;" horiz-adv-x="237" d="M266 680l-125 -588c0 -20 12 -26 27 -26c10 0 20 3 29 5v-72c-23 -9 -44 -9 -59 -9c-67 0 -96 34 -96 89c0 9 0 20 3 33l121 568h100zM263 716h-86l117 142h109z" />
<glyph unicode="&#xf1;" horiz-adv-x="539" d="M368 116c46 218 49 225 49 232c0 44 -22 61 -49 61c-76 0 -151 -96 -165 -163l-51 -246h-100l104 491h95l-13 -81c44 59 102 90 149 90c72 0 133 -44 133 -122c0 -12 -1 -25 -4 -38l-53 -248c0 -20 12 -26 27 -26c10 0 20 3 29 5v-72c-23 -9 -44 -9 -59 -9 c-67 0 -96 34 -96 89c0 10 1 23 4 37zM450 681h85c-17 -49 -53 -122 -127 -122c-46 0 -78 50 -106 50c-21 0 -25 -26 -33 -41h-83c19 55 57 122 131 122c40 0 60 -49 99 -49c19 0 25 15 34 40z" />
<glyph unicode="&#x144;" horiz-adv-x="539" d="M368 116c46 218 49 225 49 232c0 44 -22 61 -49 61c-76 0 -151 -96 -165 -163l-51 -246h-100l104 491h95l-13 -81c44 59 102 90 149 90c72 0 133 -44 133 -122c0 -12 -1 -25 -4 -38l-53 -248c0 -20 12 -26 27 -26c10 0 20 3 29 5v-72c-23 -9 -44 -9 -59 -9 c-67 0 -96 34 -96 89c0 10 1 23 4 37zM392 538h-86l117 142h109z" />
<glyph unicode="&#x146;" horiz-adv-x="539" d="M368 116c46 218 49 225 49 232c0 44 -22 61 -49 61c-76 0 -151 -96 -165 -163l-51 -246h-100l104 491h95l-13 -81c44 59 102 90 149 90c72 0 133 -44 133 -122c0 -12 -1 -25 -4 -38l-53 -248c0 -20 12 -26 27 -26c10 0 20 3 29 5v-72c-23 -9 -44 -9 -59 -9 c-67 0 -96 34 -96 89c0 10 1 23 4 37zM226 -230h-83c32 56 56 117 68 175h91c-21 -89 -40 -122 -76 -175z" />
<glyph unicode="&#x148;" horiz-adv-x="539" d="M368 116c46 218 49 225 49 232c0 44 -22 61 -49 61c-76 0 -151 -96 -165 -163l-51 -246h-100l104 491h95l-13 -81c44 59 102 90 149 90c72 0 133 -44 133 -122c0 -12 -1 -25 -4 -38l-53 -248c0 -20 12 -26 27 -26c10 0 20 3 29 5v-72c-23 -9 -44 -9 -59 -9 c-67 0 -96 34 -96 89c0 10 1 23 4 37zM238 680h85l40 -70c22 22 48 47 70 70h85l-116 -142h-107z" />
<glyph unicode="&#x155;" horiz-adv-x="400" d="M251 490l-17 -102c48 85 96 112 148 112c25 0 53 -9 84 -31l-61 -89c-23 14 -39 19 -51 19c-61 0 -133 -67 -149 -143l-53 -256h-100l104 490h95zM346 538h-86l117 142h109z" />
<glyph unicode="&#x159;" horiz-adv-x="400" d="M251 490l-17 -102c48 85 96 112 148 112c25 0 53 -9 84 -31l-61 -89c-23 14 -39 19 -51 19c-61 0 -133 -67 -149 -143l-53 -256h-100l104 490h95zM205 679h85l40 -70c22 22 48 47 70 70h85l-116 -142h-107z" />
<glyph unicode="&#x15b;" horiz-adv-x="411" d="M186 82c53 0 91 27 91 61c0 32 -42 56 -80 73c-54 24 -115 52 -115 121c0 93 67 163 206 163c44 0 103 -23 145 -74l-74 -60c-25 31 -62 41 -91 41c-43 0 -83 -18 -83 -53c0 -23 37 -43 74 -61c57 -28 122 -59 122 -133c0 -98 -92 -170 -215 -170c-46 0 -105 23 -147 74 l74 60c25 -31 62 -42 93 -42zM315 538h-86l117 142h109z" />
<glyph unicode="&#x15d;" horiz-adv-x="411" d="M186 82c53 0 91 27 91 61c0 32 -42 56 -80 73c-54 24 -115 52 -115 121c0 93 67 163 206 163c44 0 103 -23 145 -74l-74 -60c-25 31 -62 41 -91 41c-43 0 -83 -18 -83 -53c0 -23 37 -43 74 -61c57 -28 122 -59 122 -133c0 -98 -92 -170 -215 -170c-46 0 -105 23 -147 74 l74 60c25 -31 62 -42 93 -42zM234 538h-86l117 142h107l56 -142h-85l-40 70z" />
<glyph unicode="&#x15f;" horiz-adv-x="411" d="M88 -99l38 94c-37 9 -77 31 -107 69l74 60c25 -31 62 -42 93 -42c53 0 91 27 91 61c0 32 -42 56 -80 73c-54 24 -115 52 -115 121c0 93 67 163 206 163c44 0 103 -23 145 -74l-74 -60c-25 31 -62 41 -91 41c-43 0 -83 -18 -83 -53c0 -23 37 -43 74 -61 c57 -28 122 -59 122 -133c0 -89 -75 -156 -181 -168l-16 -38c57 -15 67 -60 67 -85c0 -53 -59 -110 -127 -110c-56 0 -97 41 -111 70l65 50c16 -26 39 -36 55 -36s26 13 27 25c0 13 -14 32 -72 33z" />
<glyph unicode="&#x161;" horiz-adv-x="411" d="M186 82c53 0 91 27 91 61c0 32 -42 56 -80 73c-54 24 -115 52 -115 121c0 93 67 163 206 163c44 0 103 -23 145 -74l-74 -60c-25 31 -62 41 -91 41c-43 0 -83 -18 -83 -53c0 -23 37 -43 74 -61c57 -28 122 -59 122 -133c0 -98 -92 -170 -215 -170c-46 0 -105 23 -147 74 l74 60c25 -31 62 -42 93 -42zM178 680h85l40 -70c22 22 48 47 70 70h85l-116 -142h-107z" />
<glyph unicode="&#xf9;" horiz-adv-x="537" d="M536 490l-85 -401c1 -18 14 -23 29 -23c10 0 20 3 29 5v-72c-23 -9 -44 -9 -59 -9c-67 0 -96 34 -96 90c-44 -59 -106 -90 -153 -90c-72 0 -132 44 -132 122c0 12 1 25 4 38l72 340h100l-69 -326c-1 -8 -2 -15 -2 -22c0 -44 19 -61 46 -61c76 0 151 96 165 163l51 246 h100zM403 538h-86l-80 142h109z" />
<glyph unicode="&#xfa;" horiz-adv-x="537" d="M536 490l-85 -401c1 -18 14 -23 29 -23c10 0 20 3 29 5v-72c-23 -9 -44 -9 -59 -9c-67 0 -96 34 -96 90c-44 -59 -106 -90 -153 -90c-72 0 -132 44 -132 122c0 12 1 25 4 38l72 340h100l-69 -326c-1 -8 -2 -15 -2 -22c0 -44 19 -61 46 -61c76 0 151 96 165 163l51 246 h100zM382 538h-86l117 142h109z" />
<glyph unicode="&#xfb;" horiz-adv-x="537" d="M536 490l-85 -401c1 -18 14 -23 29 -23c10 0 20 3 29 5v-72c-23 -9 -44 -9 -59 -9c-67 0 -96 34 -96 90c-44 -59 -106 -90 -153 -90c-72 0 -132 44 -132 122c0 12 1 25 4 38l72 340h100l-69 -326c-1 -8 -2 -15 -2 -22c0 -44 19 -61 46 -61c76 0 151 96 165 163l51 246 h100zM297 538h-86l117 142h107l56 -142h-85l-40 70z" />
<glyph unicode="&#xfc;" horiz-adv-x="537" d="M536 490l-85 -401c1 -18 14 -23 29 -23c10 0 20 3 29 5v-72c-23 -9 -44 -9 -59 -9c-67 0 -96 34 -96 90c-44 -59 -106 -90 -153 -90c-72 0 -132 44 -132 122c0 12 1 25 4 38l72 340h100l-69 -326c-1 -8 -2 -15 -2 -22c0 -44 19 -61 46 -61c76 0 151 96 165 163l51 246 h100zM302 690c30 0 49 -19 49 -46c0 -36 -35 -69 -73 -69c-30 0 -49 20 -49 45c0 37 33 70 73 70zM458 690c28 0 48 -19 48 -46c0 -35 -34 -69 -72 -69c-31 0 -49 20 -49 45c0 37 33 70 73 70z" />
<glyph unicode="&#x169;" horiz-adv-x="537" d="M536 490l-85 -401c1 -18 14 -23 29 -23c10 0 20 3 29 5v-72c-23 -9 -44 -9 -59 -9c-67 0 -96 34 -96 90c-44 -59 -106 -90 -153 -90c-72 0 -132 44 -132 122c0 12 1 25 4 38l72 340h100l-69 -326c-1 -8 -2 -15 -2 -22c0 -44 19 -61 46 -61c76 0 151 96 165 163l51 246 h100zM458 680h85c-17 -49 -53 -122 -127 -122c-46 0 -78 50 -106 50c-21 0 -25 -26 -33 -41h-83c19 55 57 122 131 122c40 0 60 -49 99 -49c19 0 25 15 34 40z" />
<glyph unicode="&#x16b;" horiz-adv-x="537" d="M536 490l-85 -401c1 -18 14 -23 29 -23c10 0 20 3 29 5v-72c-23 -9 -44 -9 -59 -9c-67 0 -96 34 -96 90c-44 -59 -106 -90 -153 -90c-72 0 -132 44 -132 122c0 12 1 25 4 38l72 340h100l-69 -326c-1 -8 -2 -15 -2 -22c0 -44 19 -61 46 -61c76 0 151 96 165 163l51 246 h100zM480 560h-254l17 80h254z" />
<glyph unicode="&#x16d;" horiz-adv-x="537" d="M536 490l-85 -401c1 -18 14 -23 29 -23c10 0 20 3 29 5v-72c-23 -9 -44 -9 -59 -9c-67 0 -96 34 -96 90c-44 -59 -106 -90 -153 -90c-72 0 -132 44 -132 122c0 12 1 25 4 38l72 340h100l-69 -326c-1 -8 -2 -15 -2 -22c0 -44 19 -61 46 -61c76 0 151 96 165 163l51 246 h100zM423 680h85c-19 -87 -86 -139 -154 -139c-62 0 -126 40 -126 116c0 7 1 15 2 23h85c0 -4 -1 -8 -1 -11c0 -31 21 -49 44 -49c26 0 54 22 65 60z" />
<glyph unicode="&#x16f;" horiz-adv-x="537" d="M536 490l-85 -401c1 -18 14 -23 29 -23c10 0 20 3 29 5v-72c-23 -9 -44 -9 -59 -9c-67 0 -96 34 -96 90c-44 -59 -106 -90 -153 -90c-72 0 -132 44 -132 122c0 12 1 25 4 38l72 340h100l-69 -326c-1 -8 -2 -15 -2 -22c0 -44 19 -61 46 -61c76 0 151 96 165 163l51 246 h100zM382 690c48 0 75 -28 75 -67c0 -56 -52 -104 -111 -104c-43 0 -72 29 -72 68c0 53 52 103 108 103zM370 632c-16 0 -35 -15 -35 -33c0 -13 10 -23 23 -23c16 0 35 15 35 33c0 13 -10 23 -23 23z" />
<glyph unicode="&#x171;" horiz-adv-x="537" d="M536 490l-85 -401c1 -18 14 -23 29 -23c10 0 20 3 29 5v-72c-23 -9 -44 -9 -59 -9c-67 0 -96 34 -96 90c-44 -59 -106 -90 -153 -90c-72 0 -132 44 -132 122c0 12 1 25 4 38l72 340h100l-69 -326c-1 -8 -2 -15 -2 -22c0 -44 19 -61 46 -61c76 0 151 96 165 163l51 246 h100zM311 540h-107l124 140h121zM469 540h-106l133 140h121z" />
<glyph unicode="&#x173;" horiz-adv-x="537" d="M536 490l-85 -401c1 -18 14 -23 29 -23c10 0 20 3 29 5v-70c-26 -19 -68 -54 -68 -94c0 -26 18 -49 56 -61l-35 -76c-69 21 -108 60 -108 119c0 43 19 80 48 109c-33 13 -48 41 -48 82c-44 -59 -106 -90 -153 -90c-72 0 -132 44 -132 122c0 12 1 25 4 38l72 340h100 l-69 -326c-1 -8 -2 -15 -2 -22c0 -44 19 -61 46 -61c76 0 151 96 165 163l51 246h100z" />
<glyph unicode="&#x175;" horiz-adv-x="644" d="M359 0l-5 279c-41 -89 -83 -190 -124 -279h-92l-31 490h94l13 -345l146 345h79l-2 -346l162 346h94l-241 -490h-93zM353 538h-86l117 142h107l56 -142h-85l-40 70z" />
<glyph unicode="&#x1e81;" horiz-adv-x="644" d="M359 0l-5 279c-41 -89 -83 -190 -124 -279h-92l-31 490h94l13 -345l146 345h79l-2 -346l162 346h94l-241 -490h-93zM451 538h-86l-80 142h109z" />
<glyph unicode="&#x1e83;" horiz-adv-x="644" d="M359 0l-5 279c-41 -89 -83 -190 -124 -279h-92l-31 490h94l13 -345l146 345h79l-2 -346l162 346h94l-241 -490h-93zM446 538h-86l117 142h109z" />
<glyph unicode="&#x1e85;" horiz-adv-x="644" d="M359 0l-5 279c-41 -89 -83 -190 -124 -279h-92l-31 490h94l13 -345l146 345h79l-2 -346l162 346h94l-241 -490h-93zM363 690c30 0 49 -19 49 -46c0 -36 -35 -69 -73 -69c-30 0 -49 20 -49 45c0 37 33 70 73 70zM519 690c28 0 48 -19 48 -46c0 -35 -34 -69 -72 -69 c-31 0 -49 20 -49 45c0 37 33 70 73 70z" />
<glyph unicode="&#xfd;" horiz-adv-x="511" d="M46 -240c-26 0 -42 9 -78 23l54 80c10 -6 28 -9 43 -9c21 0 42 14 56 40l77 126l-77 470h94l59 -345l209 345h94l-371 -617c-47 -78 -107 -113 -160 -113zM399 538h-86l117 142h109z" />
<glyph unicode="&#xff;" horiz-adv-x="511" d="M46 -240c-26 0 -42 9 -78 23l54 80c10 -6 28 -9 43 -9c21 0 42 14 56 40l77 126l-77 470h94l59 -345l209 345h94l-371 -617c-47 -78 -107 -113 -160 -113zM313 690c30 0 49 -19 49 -46c0 -36 -35 -69 -73 -69c-30 0 -49 20 -49 45c0 37 33 70 73 70zM469 690 c28 0 48 -19 48 -46c0 -35 -34 -69 -72 -69c-31 0 -49 20 -49 45c0 37 33 70 73 70z" />
<glyph unicode="&#x177;" horiz-adv-x="511" d="M46 -240c-26 0 -42 9 -78 23l54 80c10 -6 28 -9 43 -9c21 0 42 14 56 40l77 126l-77 470h94l59 -345l209 345h94l-371 -617c-47 -78 -107 -113 -160 -113zM303 539h-86l117 142h107l56 -142h-85l-40 70z" />
<glyph unicode="&#x17a;" horiz-adv-x="438" d="M457 398l-312 -305h247l-20 -93h-360l20 93l314 305h-249l20 93h360zM341 538h-86l117 142h109z" />
<glyph unicode="&#x17c;" horiz-adv-x="438" d="M457 398l-312 -305h247l-20 -93h-360l20 93l314 305h-249l20 93h360zM342 690c32 0 54 -22 54 -51c0 -40 -39 -77 -82 -77c-35 0 -55 21 -55 50c0 39 37 78 83 78z" />
<glyph unicode="&#x17e;" horiz-adv-x="438" d="M457 398l-312 -305h247l-20 -93h-360l20 93l314 305h-249l20 93h360zM195 680h85l40 -70c22 22 48 47 70 70h85l-116 -142h-107z" />
<glyph unicode="&#x11a;" horiz-adv-x="541" d="M570 585h-283l-36 -168h259l-20 -95h-259l-48 -227h283l-21 -95h-383l145 680h383zM296 858h85l40 -70c22 22 48 47 70 70h85l-116 -142h-107z" />
</font>
</defs>
</svg>
