<?xml version="1.0" encoding="UTF-8"?>
<svg xmlns="http://www.w3.org/2000/svg" xmlns:xlink="http://www.w3.org/1999/xlink" version="1.2" >
<font id="Betm SemiBold">
<font-face  font-family="Betm" units-per-em="1000" ascent="750" descent="-250" font-style="normal" font-weight="600" font-stretch="normal" cap-height="568" x-height="405" underline-position="-91" underline-thickness="35" />
<missing-glyph  horiz-adv-x="563" d="M536 0 L536 628 L27 628 L27 0 L536 0 Z M73 46 L65 46 C70 45 73 41 73 35 L73 46 Z M490 582 L498 582 C493 582 490 585 490 590 L490 582 Z M490 46 L490 37 C490 42 493 45 498 46 L490 46 Z M73 582 L73 590 C72 585 69 582 65 582 L73 582 Z M73 582 L490 582 L490 46 L73 46 L73 582 Z " />
<glyph glyph-name="space" unicode="&#x20;" horiz-adv-x="199" d="" />
<glyph glyph-name="exclam" unicode="&#x21;" horiz-adv-x="228" d="M160 174 L173 333 L173 590 L55 590 L55 333 C59 277 64 230 68 174 L160 174 Z M55 53 C55 20 81 -6 114 -6 C147 -6 173 20 173 53 C173 86 147 112 114 112 C81 112 55 86 55 53 L55 53 Z " />
<glyph glyph-name="quotedbl" unicode="&#x22;" horiz-adv-x="397" d="M67 420 L166 420 L178 590 L55 590 L67 420 Z M231 420 L330 420 L342 590 L220 590 L231 420 Z " />
<glyph glyph-name="numbersign" unicode="&#x23;" horiz-adv-x="806" d="M751 369 L751 482 L658 482 L699 590 L573 590 L532 482 L406 482 L449 590 L320 590 L280 482 L126 482 L126 369 L237 369 L204 283 L182 225 L55 225 L55 113 L139 113 L97 0 L224 0 L266 113 L391 113 L349 0 L476 0 L518 113 L674 113 L674 225 L561 225 L615 369 L751 369 Z M434 225 L308 225 L362 369 L489 369 L434 225 Z " />
<glyph glyph-name="dollar" unicode="&#x24;" horiz-adv-x="567" d="M512 165 C512 349 174 344 174 425 C174 474 250 482 299 482 C326 482 366 477 401 470 C421 467 441 463 461 459 L461 566 C442 577 411 589 343 593 L343 717 L224 717 L224 591 C132 580 55 539 55 418 C55 244 394 237 394 164 C394 107 290 107 260 107 C229 107 185 116 146 125 C124 130 101 136 77 143 L77 47 C100 31 148 6 224 -3 L224 -114 L343 -114 L343 -2 C446 13 512 64 512 165 L512 165 Z " />
<glyph glyph-name="percent" unicode="&#x25;" horiz-adv-x="708" d="M182 0 L307 0 C382 205 451 385 528 590 L401 590 L182 0 Z M164 454 C140 454 134 461 134 484 C134 507 140 516 164 516 C189 516 195 507 195 484 C195 461 189 454 164 454 L164 454 Z M164 595 C87 595 55 556 55 484 C55 408 87 369 164 369 C241 369 273 408 273 484 C273 556 241 595 164 595 L164 595 Z M544 79 C520 79 514 86 514 109 C514 132 520 141 544 141 C569 141 575 132 575 109 C575 86 569 79 544 79 L544 79 Z M544 220 C467 220 435 181 435 109 C435 33 467 -6 544 -6 C621 -6 653 33 653 109 C653 181 621 220 544 220 L544 220 Z " />
<glyph glyph-name="ampersand" unicode="&#x26;" horiz-adv-x="607" d="M336 477 C341 514 348 550 353 590 L284 590 C200 590 83 561 83 420 C83 381 101 333 149 302 C96 286 55 237 55 169 C55 105 115 0 271 0 L294 0 C450 0 498 105 498 169 L498 239 L552 239 L552 352 L498 352 L498 425 L380 425 L380 352 L292 352 C259 352 201 354 201 417 C201 466 257 477 292 477 L336 477 Z M270 113 C238 113 173 118 173 180 C173 228 216 239 261 239 L380 239 L380 180 C380 118 328 113 295 113 L270 113 Z " />
<glyph glyph-name="quotesingle" unicode="&#x27;" horiz-adv-x="233" d="M67 420 L166 420 L178 590 L55 590 L67 420 Z " />
<glyph glyph-name="parenleft" unicode="&#x28;" horiz-adv-x="327" d="M55 261 C55 113 85 -53 154 -204 L272 -204 C201 -51 173 118 173 262 C173 407 201 571 272 724 L154 724 C85 572 55 410 55 261 L55 261 Z " />
<glyph glyph-name="parenright" unicode="&#x29;" horiz-adv-x="327" d="M272 261 C272 410 242 572 173 724 L55 724 C126 571 154 407 154 262 C154 118 125 -51 55 -204 L173 -204 C242 -53 272 113 272 261 L272 261 Z " />
<glyph glyph-name="asterisk" unicode="&#x2a;" horiz-adv-x="444" d="M170 590 L179 481 L93 524 L55 433 L156 396 L91 320 L172 258 L222 333 L272 258 L353 320 L288 396 L389 433 L351 524 L265 481 L274 590 L170 590 Z " />
<glyph glyph-name="plus" unicode="&#x2b;" horiz-adv-x="448" d="M283 381 L165 381 L165 267 L55 267 L55 165 L165 165 L165 51 L283 51 L283 165 L393 165 L393 267 L283 267 L283 381 Z " />
<glyph glyph-name="comma" unicode="&#x2c;" horiz-adv-x="215" d="M185 94 L71 94 C55 25 46 -20 30 -90 L123 -90 L185 94 Z " />
<glyph glyph-name="hyphen" unicode="&#x2d;" horiz-adv-x="441" d="M386 163 L386 276 L55 276 L55 163 L386 163 Z " />
<glyph glyph-name="period" unicode="&#x2e;" horiz-adv-x="229" d="M55 -6 L174 -6 L174 94 L55 94 L55 -6 Z " />
<glyph glyph-name="slash" unicode="&#x2f;" horiz-adv-x="587" d="M55 -204 L181 -204 C300 112 413 408 532 724 L406 724 L55 -204 Z " />
<glyph glyph-name="zero" unicode="0" horiz-adv-x="582" d="M290 107 C225 107 163 133 163 301 C163 448 206 482 290 482 C375 482 419 448 419 301 C419 133 357 107 292 107 L290 107 Z M292 -6 C398 -6 537 52 537 304 C537 517 419 595 291 595 C163 595 45 517 45 304 C45 52 184 -6 290 -6 L292 -6 Z " />
<glyph glyph-name="one" unicode="1" horiz-adv-x="347" d="M15 379 L174 463 L174 0 L292 0 L292 590 L165 590 L15 513 L15 379 Z " />
<glyph glyph-name="two" unicode="2" horiz-adv-x="496" d="M40 0 L453 0 L453 113 L164 113 C164 225 456 239 456 418 C456 557 357 595 237 595 C136 595 94 573 66 556 L66 451 C95 459 171 482 228 482 C279 482 338 465 338 414 C338 326 40 314 40 104 L40 0 Z " />
<glyph glyph-name="three" unicode="3" horiz-adv-x="505" d="M170 352 C161 313 152 279 144 239 L266 239 C302 239 347 231 347 180 C347 120 257 107 225 107 C194 107 152 114 113 122 C91 126 68 131 45 137 L45 31 C79 15 129 -6 233 -6 C389 -6 465 90 465 162 C465 238 426 289 371 302 C424 333 437 381 437 420 C437 561 308 595 225 595 C120 595 76 574 45 558 L45 452 C74 460 157 482 216 482 C250 482 319 465 319 417 C319 354 271 352 238 352 L170 352 Z " />
<glyph glyph-name="four" unicode="4" horiz-adv-x="523" d="M299 0 L417 0 L417 163 L498 163 L498 276 L417 276 L417 590 L267 590 L25 283 L25 163 L299 163 L299 0 Z M170 276 L299 440 L299 276 L170 276 Z " />
<glyph glyph-name="five" unicode="5" horiz-adv-x="507" d="M288 376 C269 376 202 371 168 350 L168 477 L431 477 L431 590 L50 590 L50 249 L158 242 C185 261 243 264 266 264 C318 264 359 238 359 191 C359 106 292 107 260 107 C228 107 176 111 168 163 L50 163 C53 11 187 -6 256 -6 L264 -6 C333 -6 477 10 477 194 C477 335 363 376 288 376 L288 376 Z " />
<glyph glyph-name="six" unicode="6" horiz-adv-x="512" d="M282 376 C261 376 214 373 163 344 C166 442 197 482 293 482 C304 482 338 478 370 475 C389 472 409 470 432 468 L432 569 C413 582 355 595 278 595 C127 595 45 512 45 321 L45 189 C45 23 190 -6 261 -6 L269 -6 C338 -6 482 22 482 190 C482 331 366 376 282 376 L282 376 Z M265 107 C233 107 163 116 163 188 C163 258 230 264 265 264 C300 264 364 258 364 188 C364 113 297 107 265 107 L265 107 Z " />
<glyph glyph-name="seven" unicode="7" horiz-adv-x="451" d="M30 477 L306 477 L85 0 L215 0 L436 470 L436 590 L30 590 L30 477 Z " />
<glyph glyph-name="eight" unicode="8" horiz-adv-x="544" d="M272 345 C237 345 184 352 184 416 C184 471 239 482 272 482 C305 482 360 471 360 416 C360 352 307 345 272 345 L272 345 Z M272 107 C242 107 168 120 168 175 C168 236 239 246 272 246 C303 246 376 236 376 175 C376 120 302 107 272 107 L272 107 Z M272 -6 L276 -6 C344 -6 494 20 494 177 C494 229 470 270 421 300 C462 331 478 367 478 414 C478 571 347 595 276 595 L272 595 L268 595 C197 595 66 571 66 414 C66 367 82 331 123 300 C74 270 50 229 50 177 C50 20 200 -6 268 -6 L272 -6 Z " />
<glyph glyph-name="nine" unicode="9" horiz-adv-x="512" d="M230 213 C251 213 298 216 349 245 C344 147 315 107 219 107 C208 107 174 110 142 114 C123 116 103 118 80 121 L80 20 C99 7 157 -6 234 -6 C385 -6 467 77 467 268 L467 400 C467 566 322 595 251 595 L243 595 C174 595 30 567 30 399 C30 258 146 213 230 213 L230 213 Z M247 482 C279 482 349 473 349 401 C349 331 282 325 247 325 C212 325 148 331 148 401 C148 476 215 482 247 482 L247 482 Z " />
<glyph glyph-name="colon" unicode="&#x3a;" horiz-adv-x="229" d="M55 -6 L174 -6 L174 94 L55 94 L55 -6 Z M55 286 L174 286 L174 386 L55 386 L55 286 Z " />
<glyph glyph-name="semicolon" unicode="&#x3b;" horiz-adv-x="265" d="M91 286 L210 286 L210 386 L91 386 L91 286 Z M210 94 L96 94 C80 25 71 -20 55 -90 L148 -90 L210 94 Z " />
<glyph glyph-name="less" unicode="&#x3c;" horiz-adv-x="437" d="M382 -6 L382 132 L182 210 L382 288 L382 426 L55 275 L55 145 L382 -6 Z " />
<glyph glyph-name="equal" unicode="&#x3d;" horiz-adv-x="410" d="M355 206 L355 319 L55 319 L55 206 L355 206 Z M355 26 L355 139 L55 139 L55 26 L355 26 Z " />
<glyph glyph-name="greater" unicode="&#x3e;" horiz-adv-x="437" d="M382 145 L382 275 L55 426 L55 288 L255 210 L55 132 L55 -6 L382 145 Z " />
<glyph glyph-name="question" unicode="&#x3f;" horiz-adv-x="501" d="M151 163 L269 163 L269 243 C423 272 446 356 446 420 C446 560 318 597 234 597 C130 597 86 575 59 562 L55 560 L55 452 C84 460 167 482 226 482 C261 482 328 476 328 417 C328 369 281 358 151 326 L151 163 Z M151 53 C151 20 177 -6 210 -6 C243 -6 269 20 269 53 C269 86 243 112 210 112 C177 112 151 86 151 53 L151 53 Z " />
<glyph glyph-name="at" unicode="&#x40;" horiz-adv-x="693" d="M518 160 C515 149 509 140 502 133 C490 120 471 107 442 107 C420 107 360 126 360 209 C360 280 420 298 442 298 C471 298 490 284 502 271 C509 264 515 255 518 245 L518 160 Z M638 368 C638 583 475 657 346 657 C218 657 55 583 55 368 L55 75 C55 -130 212 -190 337 -198 L337 -87 C259 -84 173 -42 173 97 L173 365 C173 512 265 544 346 544 C426 544 520 517 520 369 C480 412 433 411 405 411 C321 411 242 350 242 209 C242 43 334 -6 405 -6 C431 -6 485 -8 522 39 L531 0 L638 0 L638 368 Z " />
<glyph glyph-name="A" unicode="A" horiz-adv-x="593" d="M361 590 L234 590 L15 0 L144 0 L189 129 L405 129 L451 0 L578 0 L361 590 Z M297 422 L365 240 L230 240 L297 422 Z " />
<glyph glyph-name="B" unicode="B" horiz-adv-x="541" d="M173 349 L173 477 L279 477 C315 477 360 466 360 417 C360 354 312 349 279 349 L173 349 Z M173 113 L173 243 L307 243 C343 243 388 230 388 180 C388 118 340 113 307 113 L173 113 Z M306 0 C461 0 506 105 506 169 C506 237 465 286 412 302 C459 333 478 381 478 420 C478 561 371 590 287 590 L55 590 L55 0 L306 0 Z " />
<glyph glyph-name="C" unicode="C" horiz-adv-x="543" d="M321 482 C366 482 408 478 449 446 C473 475 492 495 516 526 C460 577 390 595 322 595 C192 595 30 517 30 304 C30 52 215 -6 323 -6 C390 -6 462 18 518 66 L450 143 C409 111 366 107 321 107 C256 107 148 133 148 301 C148 448 240 482 321 482 L321 482 Z " />
<glyph glyph-name="D" unicode="D" horiz-adv-x="576" d="M536 304 C536 518 381 590 253 590 L55 590 L55 0 L265 0 C372 0 536 59 536 304 L536 304 Z M173 113 L173 477 L255 477 C337 477 418 446 418 301 C418 132 319 113 252 113 L173 113 Z " />
<glyph glyph-name="E" unicode="E" horiz-adv-x="503" d="M458 477 L458 590 L55 590 L55 0 L458 0 L458 113 L173 113 L173 227 L406 227 L406 340 L173 340 L173 477 L458 477 Z " />
<glyph glyph-name="F" unicode="F" horiz-adv-x="498" d="M55 0 L173 0 L173 227 L406 227 L406 340 L173 340 L173 477 L458 477 L458 591 L55 591 L55 0 Z " />
<glyph glyph-name="G" unicode="G" horiz-adv-x="593" d="M332 322 L332 209 L415 209 L415 131 C384 114 354 107 321 107 C256 107 148 133 148 301 C148 448 240 482 321 482 C366 482 408 478 449 446 C473 475 492 495 516 526 C460 577 390 595 322 595 C192 595 30 517 30 304 C30 52 215 -6 323 -6 C390 -6 476 15 533 77 L533 322 L332 322 Z " />
<glyph glyph-name="H" unicode="H" horiz-adv-x="591" d="M418 590 L418 341 L173 341 L173 590 L55 590 L55 0 L173 0 L173 228 L418 228 L418 0 L536 0 L536 590 L418 590 Z " />
<glyph glyph-name="I" unicode="I" horiz-adv-x="228" d="M55 0 L173 0 L173 590 L55 590 L55 0 Z " />
<glyph glyph-name="J" unicode="J" horiz-adv-x="466" d="M293 206 C293 110 215 107 183 107 C159 107 117 107 62 134 L10 53 C76 -2 153 -6 195 -6 C268 -3 411 25 411 204 L411 590 L293 590 L293 206 Z " />
<glyph glyph-name="K" unicode="K" horiz-adv-x="558" d="M304 299 L563 590 L405 590 L173 328 L173 590 L55 590 L55 0 L173 0 L173 269 L404 0 L557 0 L304 299 Z " />
<glyph glyph-name="L" unicode="L" horiz-adv-x="467" d="M173 590 L55 590 L55 0 L437 0 L437 113 L173 113 L173 590 Z " />
<glyph glyph-name="M" unicode="M" horiz-adv-x="666" d="M379 123 L492 305 L492 0 L611 0 L611 590 L528 590 L333 276 L138 590 L55 590 L55 0 L174 0 L174 305 L287 123 L379 123 Z " />
<glyph glyph-name="N" unicode="N" horiz-adv-x="610" d="M432 0 L555 0 L555 590 L436 590 L436 203 L169 590 L55 590 L55 0 L173 0 L173 380 L432 0 Z " />
<glyph glyph-name="O" unicode="O" horiz-adv-x="646" d="M323 107 C259 107 158 133 158 301 C158 448 242 482 323 482 C404 482 488 448 488 301 C488 133 387 107 323 107 L323 107 Z M323 -6 C431 -6 606 52 606 304 C606 517 452 595 323 595 C194 595 40 517 40 304 C40 52 215 -6 323 -6 L323 -6 Z " />
<glyph glyph-name="P" unicode="P" horiz-adv-x="534" d="M50 0 L168 0 L168 179 L327 179 C410 179 514 222 514 390 C514 531 408 590 324 590 L50 590 L50 0 Z M323 477 C359 477 396 459 396 390 C396 306 358 292 323 292 L168 292 L168 477 L323 477 Z " />
<glyph glyph-name="Q" unicode="Q" horiz-adv-x="646" d="M606 304 C606 517 452 595 323 595 C194 595 40 517 40 304 C40 125 128 44 217 12 L342 -157 L466 -157 L354 -4 C461 7 606 74 606 304 L606 304 Z M323 107 C259 107 158 133 158 301 C158 448 242 482 323 482 C404 482 488 448 488 301 C488 133 387 107 323 107 L323 107 Z " />
<glyph glyph-name="R" unicode="R" horiz-adv-x="546" d="M506 398 C506 540 399 590 315 590 L55 590 L55 0 L173 0 L173 196 L274 196 C309 196 335 172 358 108 L394 0 L519 0 L484 104 C460 174 446 202 403 235 C482 256 506 347 506 398 L506 398 Z M173 309 L173 478 L314 478 C350 478 388 463 388 395 C388 311 348 309 314 309 L173 309 Z " />
<glyph glyph-name="S" unicode="S" horiz-adv-x="517" d="M265 595 C145 595 30 567 30 418 C30 244 369 237 369 164 C369 107 265 107 235 107 C204 107 160 116 121 125 C99 130 76 136 52 143 L52 47 C78 26 149 -6 259 -6 C395 -6 487 46 487 165 C487 349 149 344 149 425 C149 474 225 482 274 482 C301 482 341 477 376 470 C396 467 416 463 436 459 L436 566 C412 577 369 595 265 595 L265 595 Z " />
<glyph glyph-name="T" unicode="T" horiz-adv-x="514" d="M30 477 L198 477 L198 0 L316 0 L316 477 L484 477 L484 590 L30 590 L30 477 Z " />
<glyph glyph-name="U" unicode="U" horiz-adv-x="590" d="M295 -6 C403 -6 535 36 535 269 L535 590 L417 590 L417 274 C417 142 360 107 295 107 C230 107 173 142 173 274 L173 590 L55 590 L55 269 C55 36 187 -6 295 -6 L295 -6 Z " />
<glyph glyph-name="V" unicode="V" horiz-adv-x="593" d="M297 168 L144 590 L15 590 L234 0 L361 0 L578 590 L451 590 L297 168 Z " />
<glyph glyph-name="W" unicode="W" horiz-adv-x="796" d="M455 590 L341 590 L225 197 L143 590 L20 590 L147 0 L292 0 L398 367 L504 0 L649 0 L776 590 L653 590 L571 197 L455 590 Z " />
<glyph glyph-name="X" unicode="X" horiz-adv-x="542" d="M271 180 L390 0 L531 0 C470 95 400 198 339 293 L532 590 L392 590 L271 404 L150 590 L10 590 L203 293 C142 198 72 95 11 0 L152 0 L271 180 Z " />
<glyph glyph-name="Y" unicode="Y" horiz-adv-x="574" d="M286 334 L147 590 L10 590 L228 199 L228 0 L346 0 L346 199 L564 590 L427 590 L286 334 Z " />
<glyph glyph-name="Z" unicode="Z" horiz-adv-x="502" d="M36 477 L312 477 L35 113 L35 0 L467 0 L467 113 L183 113 L467 486 L467 590 L36 590 L36 477 Z " />
<glyph glyph-name="bracketleft" unicode="&#x5b;" horiz-adv-x="340" d="M173 611 L285 611 L285 724 L55 724 L55 -204 L285 -204 L285 -91 L173 -91 L173 611 Z " />
<glyph glyph-name="backslash" unicode="&#x5c;" horiz-adv-x="587" d="M181 724 L55 724 C174 408 287 112 406 -204 L532 -204 L181 724 Z " />
<glyph glyph-name="bracketright" unicode="&#x5d;" horiz-adv-x="340" d="M167 -91 L55 -91 L55 -204 L285 -204 L285 724 L55 724 L55 611 L167 611 L167 -91 Z " />
<glyph glyph-name="asciicircum" unicode="&#x5e;" horiz-adv-x="469" d="M157 590 C122 510 90 441 55 361 L182 361 C193 401 223 458 234 496 L288 361 L414 361 C379 438 346 510 311 590 L157 590 Z " />
<glyph glyph-name="underscore" unicode="&#x5f;" horiz-adv-x="441" d="M386 -105 L386 -6 L55 -6 L55 -105 L386 -105 Z " />
<glyph glyph-name="grave" unicode="&#x60;" horiz-adv-x="277" d="M121 426 L222 426 C206 483 190 534 175 591 L55 591 L121 426 Z " />
<glyph glyph-name="a" unicode="a" horiz-adv-x="454" d="M404 234 C400 345 332 411 208 411 C131 411 103 403 66 390 L66 288 C89 291 139 298 174 298 C266 298 286 273 286 238 L286 224 C235 255 195 257 164 257 C80 257 30 206 30 135 C30 6 147 -6 167 -6 C187 -6 249 -6 286 39 L293 0 L404 0 L404 234 Z M283 127 C280 123 276 120 270 117 C259 112 241 107 209 107 C162 107 148 118 148 133 C148 149 157 163 209 163 C236 163 255 157 267 150 C274 147 280 143 283 138 L283 127 Z " />
<glyph glyph-name="b" unicode="b" horiz-adv-x="481" d="M50 0 L157 0 L166 39 C203 -6 255 -6 283 -6 C354 -6 446 43 446 209 C446 350 367 411 283 411 C255 411 208 412 168 369 L168 590 L50 590 L50 0 Z M170 245 C173 255 179 264 186 271 C198 284 217 298 246 298 C268 298 328 280 328 209 C328 126 268 107 246 107 C217 107 198 120 186 133 C179 140 173 149 170 160 L170 245 Z " />
<glyph glyph-name="c" unicode="c" horiz-adv-x="415" d="M395 54 C379 81 362 106 343 135 C291 108 265 107 241 107 C206 107 148 125 148 208 C148 279 205 298 241 298 C264 298 293 296 342 269 C361 298 377 323 394 352 C329 406 268 411 226 411 C146 411 30 351 30 207 C30 44 155 -3 228 -6 C270 -6 326 -9 395 54 L395 54 Z " />
<glyph glyph-name="d" unicode="d" horiz-adv-x="481" d="M431 590 L313 590 L313 369 C273 412 226 411 198 411 C114 411 35 350 35 209 C35 43 127 -6 198 -6 C225 -6 278 -6 315 39 L324 0 L431 0 L431 590 Z M311 160 C308 149 302 140 295 133 C283 120 264 107 235 107 C213 107 153 126 153 209 C153 280 213 298 235 298 C264 298 283 284 295 271 C302 264 308 255 311 245 L311 160 Z " />
<glyph glyph-name="e" unicode="e" horiz-adv-x="451" d="M411 226 C411 332 342 411 230 411 C114 411 35 318 35 203 C35 87 104 -6 231 -6 C310 -6 366 7 385 20 L385 117 C355 112 286 103 265 103 C173 103 161 130 153 162 L411 162 L411 226 Z M153 246 C154 271 182 298 222 298 C266 298 285 277 293 246 L153 246 Z " />
<glyph glyph-name="f" unicode="f" horiz-adv-x="357" d="M276 496 C284 496 300 494 313 493 C320 492 328 491 337 490 L337 572 C321 583 312 595 242 595 C150 595 90 546 90 410 L90 405 L15 405 L15 298 L90 298 L90 0 L208 0 L208 298 L337 298 L337 405 L208 405 L208 423 C208 479 229 496 276 496 L276 496 Z " />
<glyph glyph-name="g" unicode="g" horiz-adv-x="486" d="M240 298 C296 298 313 250 316 245 L316 160 C313 149 307 140 300 133 C288 120 269 107 240 107 C218 107 158 126 158 209 C158 280 218 298 240 298 L240 298 Z M316 0 C316 -84 257 -85 224 -85 C201 -85 148 -81 105 -59 L71 -154 C111 -187 164 -198 228 -198 C300 -198 436 -174 436 -3 L436 405 L325 405 L317 362 C276 408 230 411 203 411 C119 411 40 350 40 209 C40 43 132 -6 203 -6 C231 -6 279 -6 316 34 L316 0 Z " />
<glyph glyph-name="h" unicode="h" horiz-adv-x="468" d="M168 0 L168 246 C171 251 194 298 250 298 C274 298 305 286 305 247 L305 0 L423 0 L423 282 C423 354 363 411 291 411 C261 411 209 410 168 361 L168 590 L50 590 L50 0 L168 0 Z " />
<glyph glyph-name="i" unicode="i" horiz-adv-x="228" d="M55 0 L173 0 L173 405 L55 405 L55 0 Z M55 458 L173 458 L173 566 L55 566 L55 458 Z " />
<glyph glyph-name="j" unicode="j" horiz-adv-x="228" d="M55 -13 C55 -69 52 -85 11 -85 C-8 -85 -30 -84 -47 -81 C-58 -80 -68 -78 -77 -76 L-77 -175 C-64 -188 -43 -198 25 -198 C155 -198 173 -110 173 -57 L173 405 L55 405 L55 -13 Z M55 458 L173 458 L173 566 L55 566 L55 458 Z " />
<glyph glyph-name="k" unicode="k" horiz-adv-x="457" d="M464 0 L300 224 L448 405 L294 405 L168 248 L168 590 L50 590 L50 0 L168 0 L168 205 L318 0 L464 0 Z " />
<glyph glyph-name="l" unicode="l" horiz-adv-x="249" d="M173 590 L55 590 L55 113 C55 9 103 -6 147 -6 L152 -6 C171 -6 187 -5 198 -2 C205 -1 210 1 214 2 L214 88 L195 88 C178 88 173 99 173 118 L173 590 Z " />
<glyph glyph-name="m" unicode="m" horiz-adv-x="669" d="M496 411 C478 411 414 411 383 353 C351 404 329 411 288 411 C269 411 207 411 168 356 L155 405 L50 405 L50 0 L168 0 L168 235 C168 238 166 298 225 298 C248 298 277 286 277 247 L277 0 L395 0 L395 236 C395 261 410 298 451 298 C474 298 506 290 506 241 L506 0 L624 0 L624 260 C624 350 569 411 496 411 L496 411 Z " />
<glyph glyph-name="n" unicode="n" horiz-adv-x="468" d="M168 0 L168 246 C173 256 180 265 187 272 C200 285 221 298 250 298 C274 298 305 286 305 247 L305 0 L423 0 L423 282 C423 354 363 411 291 411 C263 411 209 410 169 362 L161 405 L50 405 L50 0 L168 0 Z " />
<glyph glyph-name="o" unicode="o" horiz-adv-x="471" d="M240 -6 C312 -6 436 37 436 207 C436 351 322 411 237 411 C150 411 35 351 35 207 C35 37 161 -6 232 -6 L240 -6 Z M236 107 C201 107 153 121 153 205 C153 276 200 298 236 298 C273 298 318 276 318 205 C318 121 271 107 236 107 L236 107 Z " />
<glyph glyph-name="p" unicode="p" horiz-adv-x="481" d="M50 -185 L170 -185 L170 34 C207 -6 255 -6 283 -6 C354 -6 446 43 446 209 C446 350 367 411 283 411 C253 411 210 408 169 362 L161 405 L50 405 L50 -185 Z M246 298 C268 298 328 280 328 209 C328 126 268 107 246 107 C217 107 198 120 186 133 C179 140 173 149 170 160 L170 245 C173 250 190 298 246 298 L246 298 Z " />
<glyph glyph-name="q" unicode="q" horiz-adv-x="481" d="M431 405 L320 405 L312 362 C271 408 225 411 198 411 C114 411 35 350 35 209 C35 43 127 -6 198 -6 C226 -6 274 -6 311 34 L311 -185 L431 -185 L431 405 Z M235 298 C291 298 308 250 311 245 L311 160 C308 149 302 140 295 133 C283 120 264 107 235 107 C213 107 153 126 153 209 C153 280 213 298 235 298 L235 298 Z " />
<glyph glyph-name="r" unicode="r" horiz-adv-x="332" d="M317 407 C309 410 292 411 266 411 C252 411 208 411 166 361 L154 405 L50 405 L50 0 L168 0 L168 228 C169 241 173 252 180 263 C192 280 214 298 261 298 C270 298 297 299 317 296 L317 407 Z " />
<glyph glyph-name="s" unicode="s" horiz-adv-x="401" d="M205 411 C121 411 30 374 30 285 C30 146 258 152 258 119 C258 107 216 107 192 107 L185 107 C162 107 129 111 102 118 C85 121 69 125 53 130 L53 29 C72 16 130 -6 206 -6 C319 -6 379 45 379 129 C379 242 151 261 151 286 C151 297 170 298 222 298 C243 298 272 294 296 291 C310 288 324 286 339 284 L339 386 C320 399 281 411 205 411 L205 411 Z " />
<glyph glyph-name="t" unicode="t" horiz-adv-x="350" d="M75 298 L75 162 C75 78 95 -6 224 -6 C291 -6 308 9 320 21 L320 113 C304 110 282 107 263 107 C218 107 193 110 193 165 L193 298 L320 298 L320 405 L193 405 L193 545 L177 545 C116 484 71 428 10 367 L10 298 L75 298 Z " />
<glyph glyph-name="u" unicode="u" horiz-adv-x="468" d="M300 405 L300 159 C295 149 288 140 281 133 C268 120 247 107 218 107 C194 107 163 119 163 158 L163 405 L45 405 L45 123 C45 51 105 -6 177 -6 C205 -6 259 -5 299 43 L307 0 L418 0 L418 405 L300 405 Z " />
<glyph glyph-name="v" unicode="v" horiz-adv-x="442" d="M285 0 L432 405 L307 405 L221 134 L135 405 L10 405 L157 0 L285 0 Z " />
<glyph glyph-name="w" unicode="w" horiz-adv-x="650" d="M369 405 L281 405 L202 136 L139 405 L15 405 C54 268 90 139 129 0 L268 0 L325 163 L382 0 L521 0 C560 139 596 268 635 405 L511 405 L448 136 L369 405 Z " />
<glyph glyph-name="x" unicode="x" horiz-adv-x="424" d="M212 113 L277 0 L414 0 L283 203 L414 405 L273 405 L212 297 L151 405 L10 405 L141 203 L10 0 L147 0 L212 113 Z " />
<glyph glyph-name="y" unicode="y" horiz-adv-x="442" d="M135 -51 C113 -89 78 -92 66 -92 C63 -92 33 -91 25 -91 L25 -191 C34 -194 59 -198 100 -198 C150 -198 197 -173 237 -79 L437 405 L305 405 L218 158 L145 405 L20 405 C67 276 112 140 159 11 L135 -51 Z " />
<glyph glyph-name="z" unicode="z" horiz-adv-x="418" d="M45 298 L218 298 L45 114 L45 0 L373 0 L373 107 L200 107 L373 291 L373 405 L45 405 L45 298 Z " />
<glyph glyph-name="braceleft" unicode="&#x7b;" horiz-adv-x="483" d="M55 301 L55 194 L102 194 C138 194 182 180 182 132 L182 -66 C182 -117 198 -204 325 -204 C392 -204 414 -193 428 -182 L428 -101 C412 -104 385 -107 368 -107 C321 -107 300 -91 300 -35 L300 110 C300 178 266 228 205 247 C266 264 300 316 300 384 L300 555 C300 611 321 626 368 626 C376 626 391 624 404 623 C411 622 419 621 428 620 L428 701 C415 712 392 724 325 724 C198 724 182 637 182 585 L182 363 C182 312 138 301 102 301 L55 301 Z " />
<glyph glyph-name="bar" unicode="&#x7c;" horiz-adv-x="228" d="M55 -204 L173 -204 L173 724 L55 724 L55 -204 Z " />
<glyph glyph-name="braceright" unicode="&#x7d;" horiz-adv-x="483" d="M381 301 C345 301 301 312 301 363 L301 585 C301 637 285 724 158 724 C90 724 69 712 55 701 L55 620 C64 621 72 622 79 623 C92 624 106 626 115 626 C162 626 183 611 183 555 L183 384 C183 316 217 264 278 247 C217 228 183 178 183 110 L183 -35 C183 -91 162 -107 115 -107 C98 -107 71 -104 55 -101 L55 -182 C68 -193 90 -204 158 -204 C285 -204 301 -117 301 -66 L301 132 C301 180 345 194 381 194 L428 194 L428 301 L381 301 Z " />
<glyph glyph-name="asciitilde" unicode="&#x7e;" horiz-adv-x="399" d="M306 234 C287 222 272 215 252 215 C212 215 182 250 140 250 C109 250 84 238 55 214 L92 130 C107 140 123 145 140 145 C180 145 210 111 250 111 C282 111 315 128 344 151 L306 234 Z " />
<glyph glyph-name="uni00A0" unicode="&#xa0;" horiz-adv-x="199" d="" />
<glyph glyph-name="exclamdown" unicode="&#xa1;" horiz-adv-x="228" d="M68 410 C64 354 59 307 55 251 L55 -6 L173 -6 L173 251 L160 410 L68 410 Z M55 531 C55 498 81 472 114 472 C147 472 173 498 173 531 C173 564 147 590 114 590 C81 590 55 564 55 531 L55 531 Z " />
<glyph glyph-name="cent" unicode="&#xa2;" horiz-adv-x="598" d="M543 66 L475 143 C434 111 391 107 346 107 C281 107 173 133 173 301 C173 448 265 482 346 482 C391 482 433 478 474 446 C498 475 517 495 541 526 C500 562 451 582 402 591 L402 717 L283 717 L283 589 C168 568 55 483 55 304 C55 97 179 21 283 0 L283 -114 L402 -114 L402 -1 C453 10 503 31 543 66 L543 66 Z " />
<glyph glyph-name="sterling" unicode="&#xa3;" horiz-adv-x="568" d="M55 0 L513 0 L513 113 L249 113 L249 227 L402 227 L402 339 L249 339 L249 397 C249 481 310 482 343 482 C366 482 419 478 462 456 L496 551 C456 584 403 595 339 595 C267 595 131 571 131 400 L131 339 L55 339 L55 227 L131 227 L131 113 L55 113 L55 0 Z " />
<glyph glyph-name="currency" unicode="&#xa4;" horiz-adv-x="498" d="M249 68 C276 68 307 77 334 92 L390 42 C409 65 424 79 443 102 C426 118 401 138 384 153 C393 174 397 195 397 214 C397 230 392 254 384 274 L443 326 C424 349 409 363 390 386 L334 335 C306 352 278 360 249 360 C220 360 192 352 164 335 L108 386 C89 363 74 349 55 326 L114 274 C106 254 101 230 101 214 C101 195 105 174 114 153 C97 138 72 118 55 102 C74 79 89 65 108 42 L164 92 C191 77 222 68 249 68 L249 68 Z M249 254 C272 254 291 237 291 214 C291 191 270 175 249 175 C228 175 207 191 207 214 C207 237 226 254 249 254 L249 254 Z " />
<glyph glyph-name="yen" unicode="&#xa5;" horiz-adv-x="664" d="M498 54 L498 154 L391 154 L391 189 L498 189 L498 289 L435 289 L609 590 L472 590 L331 334 L192 590 L55 590 L228 289 L167 289 L167 189 L273 189 L273 154 L167 154 L167 54 L273 54 L273 0 L391 0 L391 54 L498 54 Z " />
<glyph glyph-name="brokenbar" unicode="&#xa6;" horiz-adv-x="228" d="M55 317 L173 317 L173 724 L55 724 L55 317 Z M55 -204 L173 -204 L173 203 L55 203 L55 -204 Z " />
<glyph glyph-name="section" unicode="&#xa7;" horiz-adv-x="461" d="M227 595 C145 595 55 559 55 472 C55 433 69 401 106 377 C75 358 57 328 57 280 C57 211 148 179 212 160 C247 147 285 139 285 122 C285 106 232 107 211 107 C188 107 156 111 129 118 C113 121 97 125 80 130 L80 30 C100 17 159 -6 235 -6 C328 -6 406 32 406 129 C406 160 385 186 350 213 C386 242 404 272 404 313 C404 383 302 420 239 441 C206 452 177 460 177 471 C177 486 208 482 244 482 C264 482 294 478 319 475 C334 472 349 470 364 468 L364 570 C345 583 302 595 227 595 L227 595 Z M284 295 C284 275 258 263 227 263 C195 263 172 271 172 294 C172 317 197 326 228 326 C260 326 284 314 284 295 L284 295 Z " />
<glyph glyph-name="dieresis" unicode="&#xa8;" horiz-adv-x="384" d="M55 490 L174 490 L174 590 L55 590 L55 490 Z M210 490 L329 490 L329 590 L210 590 L210 490 Z " />
<glyph glyph-name="copyright" unicode="&#xa9;" horiz-adv-x="711" d="M354 596 C190 596 55 462 55 294 C55 130 190 -5 354 -5 C522 -5 656 130 656 294 C656 462 522 596 354 596 L354 596 Z M354 69 C237 69 130 176 130 293 C130 415 237 521 354 521 C476 521 582 415 582 293 C582 176 476 69 354 69 L354 69 Z M352 127 C388 127 433 127 489 178 L443 229 C400 206 380 206 363 206 C318 206 285 241 285 298 C285 345 315 378 363 378 C380 378 399 378 443 354 L489 407 C432 459 389 459 351 459 C287 459 195 413 195 297 C195 167 294 130 352 127 L352 127 Z " />
<glyph glyph-name="ordfeminine" unicode="&#xaa;" horiz-adv-x="403" d="M348 453 C345 542 289 595 188 595 C124 595 95 589 83 578 L83 505 C100 508 134 513 161 513 C238 513 248 494 253 467 L253 454 C206 477 177 477 153 477 C81 477 55 423 55 368 C55 263 150 258 166 258 C183 258 221 258 253 285 L268 262 L348 262 L348 453 Z M253 361 C252 356 249 351 245 347 C238 340 225 334 198 334 C159 334 150 353 150 370 C150 385 154 403 198 403 C221 403 235 398 243 391 C248 388 251 384 253 379 L253 361 Z " />
<glyph glyph-name="guillemotleft" unicode="&#xab;" horiz-adv-x="558" d="M134 0 L260 0 L182 203 L259 405 L134 405 C107 337 82 271 55 203 L134 0 Z M377 0 L503 0 L425 203 L502 405 L377 405 C350 337 325 271 298 203 L377 0 Z " />
<glyph glyph-name="logicalnot" unicode="&#xac;" horiz-adv-x="491" d="M318 37 L436 37 L436 258 L55 258 L55 145 L318 145 L318 37 Z " />
<glyph glyph-name="uni00AD" unicode="&#xad;" horiz-adv-x="198" d="" />
<glyph glyph-name="registered" unicode="&#xae;" horiz-adv-x="711" d="M354 596 C190 596 55 462 55 294 C55 130 190 -5 354 -5 C522 -5 656 130 656 294 C656 462 522 596 354 596 L354 596 Z M354 69 C237 69 130 176 130 293 C130 415 237 521 354 521 C476 521 582 415 582 293 C582 176 476 69 354 69 L354 69 Z M487 352 C487 429 428 457 383 457 L244 457 L244 142 L334 142 L334 243 L345 243 C361 243 369 232 378 201 L399 142 L495 142 L476 203 C465 234 459 260 435 275 C468 284 487 317 487 352 L487 352 Z M334 322 L334 377 L362 377 C377 377 395 370 395 351 C395 327 377 322 362 322 L334 322 Z " />
<glyph glyph-name="macron" unicode="&#xaf;" horiz-adv-x="412" d="M357 492 L357 590 L55 590 L55 492 L357 492 Z " />
<glyph glyph-name="degree" unicode="&#xb0;" horiz-adv-x="366" d="M183 415 C163 415 140 429 140 464 C140 493 163 510 183 510 C203 510 226 493 226 464 C226 429 203 415 183 415 L183 415 Z M183 337 C251 337 311 397 311 465 C311 537 251 595 183 595 C115 595 55 537 55 465 C55 397 115 337 183 337 L183 337 Z " />
<glyph glyph-name="plusminus" unicode="&#xb1;" horiz-adv-x="448" d="M283 477 L165 477 L165 363 L55 363 L55 261 L165 261 L165 147 L283 147 L283 261 L393 261 L393 363 L283 363 L283 477 Z M55 0 L393 0 L393 102 L55 102 L55 0 Z " />
<glyph glyph-name="twosuperior" unicode="&#xb2;" horiz-adv-x="358" d="M55 262 L297 262 L297 357 L182 357 C235 394 303 402 303 483 C303 564 241 595 176 595 C119 595 92 579 67 568 L67 470 C78 474 90 477 102 480 C122 485 146 491 165 491 C182 491 208 489 208 477 C208 445 55 424 55 332 L55 262 Z " />
<glyph glyph-name="threesuperior" unicode="&#xb3;" horiz-adv-x="349" d="M116 459 L104 385 L146 385 C168 385 199 389 199 368 C199 350 166 351 145 351 L140 351 C124 351 103 354 86 357 C76 359 66 361 55 364 L55 274 C74 263 98 256 154 256 C242 256 294 302 294 358 C294 397 287 419 250 431 C290 443 294 474 294 495 C294 574 213 595 166 595 C106 595 72 583 55 574 L55 479 C72 483 102 491 135 491 C156 491 199 494 199 470 C199 456 167 459 144 459 L116 459 Z " />
<glyph glyph-name="acute" unicode="&#xb4;" horiz-adv-x="293" d="M238 590 L116 590 L55 447 L158 447 L238 590 Z " />
<glyph glyph-name="mu" unicode="&#xb5;" horiz-adv-x="468" d="M45 -185 L163 -185 L163 -5 C167 -5 172 -6 177 -6 C205 -6 259 -5 299 43 L307 0 L418 0 L418 405 L300 405 L300 159 C295 149 288 140 281 133 C268 120 247 107 218 107 C194 107 163 119 163 158 L163 405 L45 405 L45 -185 Z " />
<glyph glyph-name="paragraph" unicode="&#xb6;" horiz-adv-x="579" d="M524 590 L191 590 C118 574 55 512 55 435 C55 360 113 298 196 282 L196 0 L314 0 L314 477 L406 477 L406 0 L524 0 L524 590 Z " />
<glyph glyph-name="periodcentered" unicode="&#xb7;" horiz-adv-x="229" d="M55 140 L174 140 L174 240 L55 240 L55 140 Z " />
<glyph glyph-name="cedilla" unicode="&#xb8;" horiz-adv-x="293" d="M55 -149 L177 -149 L238 -6 L135 -6 L55 -149 Z " />
<glyph glyph-name="onesuperior" unicode="&#xb9;" horiz-adv-x="305" d="M55 429 L155 483 L155 262 L250 262 L250 590 L148 590 L55 538 L55 429 Z " />
<glyph glyph-name="ordmasculine" unicode="&#xba;" horiz-adv-x="366" d="M183 415 C163 415 140 429 140 464 C140 493 163 510 183 510 C203 510 226 493 226 464 C226 429 203 415 183 415 L183 415 Z M183 337 C251 337 311 397 311 465 C311 537 251 595 183 595 C115 595 55 537 55 465 C55 397 115 337 183 337 L183 337 Z " />
<glyph glyph-name="guillemotright" unicode="&#xbb;" horiz-adv-x="558" d="M503 203 C476 271 451 337 424 405 L299 405 L376 203 L298 0 L424 0 L503 203 Z M260 203 C233 271 208 337 181 405 L56 405 L133 203 L55 0 L181 0 L260 203 Z " />
<glyph glyph-name="onequarter" unicode="&#xbc;" horiz-adv-x="766" d="M55 429 L155 483 L155 262 L250 262 L250 590 L148 590 L55 538 L55 429 Z M207 0 L307 0 L533 590 L432 590 L207 0 Z M576 0 L671 0 L671 75 L712 75 L712 157 L671 157 L671 344 L553 344 C506 283 469 225 421 164 L421 75 L576 75 L576 0 Z M514 157 L576 241 L576 157 L514 157 Z " />
<glyph glyph-name="onehalf" unicode="&#xbd;" horiz-adv-x="770" d="M55 429 L155 483 L155 262 L250 262 L250 590 L148 590 L55 538 L55 429 Z M207 0 L307 0 L533 590 L432 590 L207 0 Z M467 0 L709 0 L709 95 L594 95 C647 132 715 140 715 221 C715 302 653 333 588 333 C531 333 504 317 479 306 L479 208 C490 212 502 215 514 218 C534 223 558 229 577 229 C594 229 620 227 620 215 C620 183 467 162 467 70 L467 0 Z " />
<glyph glyph-name="threequarters" unicode="&#xbe;" horiz-adv-x="806" d="M615 0 L710 0 L710 75 L751 75 L751 157 L710 157 L710 344 L592 344 C545 283 508 225 460 164 L460 75 L615 75 L615 0 Z M553 157 L615 241 L615 157 L553 157 Z M242 0 L342 0 L568 590 L467 590 L242 0 Z M116 459 L104 385 L146 385 C168 385 199 389 199 368 C199 350 166 351 145 351 L140 351 C124 351 103 354 86 357 C76 359 66 361 55 364 L55 274 C74 263 98 256 154 256 C242 256 294 302 294 358 C294 397 287 419 250 431 C290 443 294 474 294 495 C294 574 213 595 166 595 C106 595 72 583 55 574 L55 479 C72 483 102 491 135 491 C156 491 199 494 199 470 C199 456 167 459 144 459 L116 459 Z " />
<glyph glyph-name="questiondown" unicode="&#xbf;" horiz-adv-x="501" d="M350 428 L232 428 L232 348 C77 319 55 235 55 171 C55 31 183 -6 267 -6 C371 -6 415 16 442 29 L446 31 L446 139 C417 131 334 109 275 109 C240 109 173 115 173 174 C173 222 220 233 350 265 L350 428 Z M350 538 C350 571 324 597 291 597 C258 597 232 571 232 538 C232 505 258 479 291 479 C324 479 350 505 350 538 L350 538 Z " />
<glyph glyph-name="Agrave" unicode="&#xc0;" horiz-adv-x="593" d="M361 590 L234 590 L15 0 L144 0 L189 129 L405 129 L451 0 L578 0 L361 590 Z M297 422 L365 240 L230 240 L297 422 Z M162 800 L284 800 L345 657 L242 657 L162 800 Z " />
<glyph glyph-name="Aacute" unicode="&#xc1;" horiz-adv-x="593" d="M361 590 L234 590 L15 0 L144 0 L189 129 L405 129 L451 0 L578 0 L361 590 Z M297 422 L365 240 L230 240 L297 422 Z M352 657 L249 657 L310 800 L432 800 L352 657 Z " />
<glyph glyph-name="Acircumflex" unicode="&#xc2;" horiz-adv-x="593" d="M361 590 L234 590 L15 0 L144 0 L189 129 L405 129 L451 0 L578 0 L361 590 Z M297 422 L365 240 L230 240 L297 422 Z M359 826 L440 657 L332 657 L297 740 L262 657 L154 657 L235 826 L359 826 Z " />
<glyph glyph-name="Atilde" unicode="&#xc3;" horiz-adv-x="593" d="M361 590 L234 590 L15 0 L144 0 L189 129 L405 129 L451 0 L578 0 L361 590 Z M297 422 L365 240 L230 240 L297 422 Z M441 697 C412 674 379 657 347 657 C307 657 277 691 237 691 C220 691 204 686 189 676 L152 760 C181 784 206 796 237 796 C279 796 309 761 349 761 C369 761 384 768 403 780 L441 697 Z " />
<glyph glyph-name="Adieresis" unicode="&#xc4;" horiz-adv-x="593" d="M361 590 L234 590 L15 0 L144 0 L189 129 L405 129 L451 0 L578 0 L361 590 Z M297 422 L365 240 L230 240 L297 422 Z M160 657 L279 657 L279 757 L160 757 L160 657 Z M315 657 L434 657 L434 757 L315 757 L315 657 Z " />
<glyph glyph-name="Aring" unicode="&#xc5;" horiz-adv-x="593" d="M361 590 L234 590 L15 0 L144 0 L189 129 L405 129 L451 0 L578 0 L361 590 Z M297 422 L365 240 L230 240 L297 422 Z M297 735 C277 735 254 749 254 784 C254 813 277 830 297 830 C317 830 340 813 340 784 C340 749 317 735 297 735 L297 735 Z M297 657 C365 657 425 717 425 785 C425 857 365 915 297 915 C229 915 169 857 169 785 C169 717 229 657 297 657 L297 657 Z " />
<glyph glyph-name="AE" unicode="&#xc6;" horiz-adv-x="926" d="M881 477 L881 590 L408 590 L15 0 L158 0 L242 127 L478 127 L478 0 L881 0 L881 113 L596 113 L596 227 L829 227 L829 340 L596 340 L596 477 L881 477 Z M317 240 L478 483 L478 240 L317 240 Z " />
<glyph glyph-name="Ccedilla" unicode="&#xc7;" horiz-adv-x="543" d="M321 482 C366 482 408 478 449 446 C473 475 492 495 516 526 C460 577 390 595 322 595 C192 595 30 517 30 304 C30 52 215 -6 323 -6 C390 -6 462 18 518 66 L450 143 C409 111 366 107 321 107 C256 107 148 133 148 301 C148 448 240 482 321 482 L321 482 Z M171 -207 L293 -207 L354 -64 L251 -64 L171 -207 Z " />
<glyph glyph-name="Egrave" unicode="&#xc8;" horiz-adv-x="503" d="M458 477 L458 590 L55 590 L55 0 L458 0 L458 113 L173 113 L173 227 L406 227 L406 340 L173 340 L173 477 L458 477 Z M145 800 L267 800 L328 657 L225 657 L145 800 Z " />
<glyph glyph-name="Eacute" unicode="&#xc9;" horiz-adv-x="503" d="M458 477 L458 590 L55 590 L55 0 L458 0 L458 113 L173 113 L173 227 L406 227 L406 340 L173 340 L173 477 L458 477 Z M309 657 L206 657 L267 800 L389 800 L309 657 Z " />
<glyph glyph-name="Ecircumflex" unicode="&#xca;" horiz-adv-x="503" d="M458 477 L458 590 L55 590 L55 0 L458 0 L458 113 L173 113 L173 227 L406 227 L406 340 L173 340 L173 477 L458 477 Z M321 826 L402 657 L294 657 L259 740 L224 657 L116 657 L197 826 L321 826 Z " />
<glyph glyph-name="Edieresis" unicode="&#xcb;" horiz-adv-x="503" d="M458 477 L458 590 L55 590 L55 0 L458 0 L458 113 L173 113 L173 227 L406 227 L406 340 L173 340 L173 477 L458 477 Z M122 657 L241 657 L241 757 L122 757 L122 657 Z M277 657 L396 657 L396 757 L277 757 L277 657 Z " />
<glyph glyph-name="Igrave" unicode="&#xcc;" horiz-adv-x="228" d="M55 0 L173 0 L173 590 L55 590 L55 0 Z M-17 800 L105 800 L166 657 L63 657 L-17 800 Z " />
<glyph glyph-name="Iacute" unicode="&#xcd;" horiz-adv-x="228" d="M173 590 L55 590 L55 0 L173 0 L173 590 Z M165 657 L62 657 L123 800 L245 800 L165 657 Z " />
<glyph glyph-name="Icircumflex" unicode="&#xce;" horiz-adv-x="228" d="M173 590 L55 590 L55 0 L173 0 L173 590 Z M176 826 L257 657 L149 657 L114 740 L79 657 L-29 657 L52 826 L176 826 Z " />
<glyph glyph-name="Idieresis" unicode="&#xcf;" horiz-adv-x="228" d="M173 590 L55 590 L55 0 L173 0 L173 590 Z M-23 657 L96 657 L96 757 L-23 757 L-23 657 Z M132 657 L251 657 L251 757 L132 757 L132 657 Z " />
<glyph glyph-name="Eth" unicode="&#xd0;" horiz-adv-x="613" d="M15 242 L92 242 L92 0 L302 0 C409 0 573 59 573 304 C573 518 418 590 290 590 L92 590 L92 341 L15 341 L15 242 Z M210 113 L210 242 L346 242 L346 341 L210 341 L210 477 L292 477 C374 477 455 446 455 301 C455 132 356 113 289 113 L210 113 Z " />
<glyph glyph-name="Ntilde" unicode="&#xd1;" horiz-adv-x="610" d="M432 0 L555 0 L555 590 L436 590 L436 203 L169 590 L55 590 L55 0 L173 0 L173 380 L432 0 Z M442 697 C413 674 380 657 348 657 C308 657 278 691 238 691 C221 691 205 686 190 676 L153 760 C182 784 207 796 238 796 C280 796 310 761 350 761 C370 761 385 768 404 780 L442 697 Z " />
<glyph glyph-name="Ograve" unicode="&#xd2;" horiz-adv-x="646" d="M323 107 C259 107 158 133 158 301 C158 448 242 482 323 482 C404 482 488 448 488 301 C488 133 387 107 323 107 L323 107 Z M323 -6 C431 -6 606 52 606 304 C606 517 452 595 323 595 C194 595 40 517 40 304 C40 52 215 -6 323 -6 L323 -6 Z M188 800 L310 800 L371 657 L268 657 L188 800 Z " />
<glyph glyph-name="Oacute" unicode="&#xd3;" horiz-adv-x="646" d="M323 107 C259 107 158 133 158 301 C158 448 242 482 323 482 C404 482 488 448 488 301 C488 133 387 107 323 107 L323 107 Z M323 -6 C431 -6 606 52 606 304 C606 517 452 595 323 595 C194 595 40 517 40 304 C40 52 215 -6 323 -6 L323 -6 Z M378 657 L275 657 L336 800 L458 800 L378 657 Z " />
<glyph glyph-name="Ocircumflex" unicode="&#xd4;" horiz-adv-x="646" d="M323 107 C259 107 158 133 158 301 C158 448 242 482 323 482 C404 482 488 448 488 301 C488 133 387 107 323 107 L323 107 Z M323 -6 C431 -6 606 52 606 304 C606 517 452 595 323 595 C194 595 40 517 40 304 C40 52 215 -6 323 -6 L323 -6 Z M386 826 L467 657 L359 657 L324 740 L289 657 L181 657 L262 826 L386 826 Z " />
<glyph glyph-name="Otilde" unicode="&#xd5;" horiz-adv-x="646" d="M323 107 C259 107 158 133 158 301 C158 448 242 482 323 482 C404 482 488 448 488 301 C488 133 387 107 323 107 L323 107 Z M323 -6 C431 -6 606 52 606 304 C606 517 452 595 323 595 C194 595 40 517 40 304 C40 52 215 -6 323 -6 L323 -6 Z M466 697 C437 674 404 657 372 657 C332 657 302 691 262 691 C245 691 229 686 214 676 L177 760 C206 784 231 796 262 796 C304 796 334 761 374 761 C394 761 409 768 428 780 L466 697 Z " />
<glyph glyph-name="Odieresis" unicode="&#xd6;" horiz-adv-x="646" d="M323 107 C259 107 158 133 158 301 C158 448 242 482 323 482 C404 482 488 448 488 301 C488 133 387 107 323 107 L323 107 Z M323 -6 C431 -6 606 52 606 304 C606 517 452 595 323 595 C194 595 40 517 40 304 C40 52 215 -6 323 -6 L323 -6 Z M186 657 L305 657 L305 757 L186 757 L186 657 Z M341 657 L460 657 L460 757 L341 757 L341 657 Z " />
<glyph glyph-name="multiply" unicode="&#xd7;" horiz-adv-x="452" d="M226 116 L270 46 L396 46 L296 201 L397 357 L272 357 L226 285 L180 357 L55 357 L156 201 L56 46 L182 46 L226 116 Z " />
<glyph glyph-name="Oslash" unicode="&#xd8;" horiz-adv-x="646" d="M525 661 L400 661 L374 591 C359 594 342 595 323 595 C194 595 40 517 40 304 C40 160 97 79 165 37 L120 -80 L246 -80 L276 -2 C292 -5 308 -6 323 -6 C431 -6 606 52 606 304 C606 428 554 507 485 550 L525 661 Z M323 107 C259 107 158 133 158 301 C158 448 242 482 323 482 C404 482 488 448 488 301 C488 133 387 107 323 107 L323 107 Z " />
<glyph glyph-name="Ugrave" unicode="&#xd9;" horiz-adv-x="590" d="M295 -6 C403 -6 535 36 535 269 L535 590 L417 590 L417 274 C417 142 360 107 295 107 C230 107 173 142 173 274 L173 590 L55 590 L55 269 C55 36 187 -6 295 -6 L295 -6 Z M170 800 L292 800 L353 657 L250 657 L170 800 Z " />
<glyph glyph-name="Uacute" unicode="&#xda;" horiz-adv-x="590" d="M295 -6 C403 -6 535 36 535 269 L535 590 L417 590 L417 274 C417 142 360 107 295 107 C230 107 173 142 173 274 L173 590 L55 590 L55 269 C55 36 187 -6 295 -6 L295 -6 Z M340 657 L237 657 L298 800 L420 800 L340 657 Z " />
<glyph glyph-name="Ucircumflex" unicode="&#xdb;" horiz-adv-x="590" d="M295 -6 C403 -6 535 36 535 269 L535 590 L417 590 L417 274 C417 142 360 107 295 107 C230 107 173 142 173 274 L173 590 L55 590 L55 269 C55 36 187 -6 295 -6 L295 -6 Z M357 826 L438 657 L330 657 L295 740 L260 657 L152 657 L233 826 L357 826 Z " />
<glyph glyph-name="Udieresis" unicode="&#xdc;" horiz-adv-x="590" d="M295 -6 C403 -6 535 36 535 269 L535 590 L417 590 L417 274 C417 142 360 107 295 107 C230 107 173 142 173 274 L173 590 L55 590 L55 269 C55 36 187 -6 295 -6 L295 -6 Z M157 657 L276 657 L276 757 L157 757 L157 657 Z M312 657 L431 657 L431 757 L312 757 L312 657 Z " />
<glyph glyph-name="Yacute" unicode="&#xdd;" horiz-adv-x="574" d="M286 334 L147 590 L10 590 L228 199 L228 0 L346 0 L346 199 L564 590 L427 590 L286 334 Z M340 657 L237 657 L298 800 L420 800 L340 657 Z " />
<glyph glyph-name="Thorn" unicode="&#xde;" horiz-adv-x="534" d="M50 0 L168 0 L168 89 L327 89 C410 89 514 132 514 300 C514 441 408 500 324 500 L168 500 L168 590 L50 590 L50 0 Z M323 387 C359 387 396 369 396 300 C396 216 358 202 323 202 L168 202 L168 387 L323 387 Z " />
<glyph glyph-name="germandbls" unicode="&#xdf;" horiz-adv-x="552" d="M285 595 C177 595 50 578 50 337 L50 0 L168 0 L168 334 C168 467 216 482 283 482 L297 482 C333 482 381 468 381 418 C381 355 330 352 297 352 L283 352 L257 239 L328 239 C364 239 409 231 409 183 C409 120 359 113 325 113 L264 113 L264 0 L324 0 C481 0 527 105 527 171 C527 240 486 285 431 301 C480 333 499 382 499 421 C499 564 389 595 305 595 L285 595 Z " />
<glyph glyph-name="agrave" unicode="&#xe0;" horiz-adv-x="454" d="M90 612 L212 612 L273 469 L170 469 L90 612 Z M404 234 C400 345 332 411 208 411 C131 411 103 403 66 390 L66 288 C89 291 139 298 174 298 C266 298 286 273 286 238 L286 224 C235 255 195 257 164 257 C80 257 30 206 30 135 C30 6 147 -6 167 -6 C187 -6 249 -6 286 39 L293 0 L404 0 L404 234 Z M283 127 C280 123 276 120 270 117 C259 112 241 107 209 107 C162 107 148 118 148 133 C148 149 157 163 209 163 C236 163 255 157 267 150 C274 147 280 143 283 138 L283 127 Z " />
<glyph glyph-name="aacute" unicode="&#xe1;" horiz-adv-x="454" d="M276 469 L173 469 L234 612 L356 612 L276 469 Z M404 234 C400 345 332 411 208 411 C131 411 103 403 66 390 L66 288 C89 291 139 298 174 298 C266 298 286 273 286 238 L286 224 C235 255 195 257 164 257 C80 257 30 206 30 135 C30 6 147 -6 167 -6 C187 -6 249 -6 286 39 L293 0 L404 0 L404 234 Z M283 127 C280 123 276 120 270 117 C259 112 241 107 209 107 C162 107 148 118 148 133 C148 149 157 163 209 163 C236 163 255 157 267 150 C274 147 280 143 283 138 L283 127 Z " />
<glyph glyph-name="acircumflex" unicode="&#xe2;" horiz-adv-x="454" d="M301 638 L382 469 L274 469 L239 552 L204 469 L96 469 L177 638 L301 638 Z M404 234 C400 345 332 411 208 411 C131 411 103 403 66 390 L66 288 C89 291 139 298 174 298 C266 298 286 273 286 238 L286 224 C235 255 195 257 164 257 C80 257 30 206 30 135 C30 6 147 -6 167 -6 C187 -6 249 -6 286 39 L293 0 L404 0 L404 234 Z M283 127 C280 123 276 120 270 117 C259 112 241 107 209 107 C162 107 148 118 148 133 C148 149 157 163 209 163 C236 163 255 157 267 150 C274 147 280 143 283 138 L283 127 Z " />
<glyph glyph-name="atilde" unicode="&#xe3;" horiz-adv-x="454" d="M378 509 C349 486 316 469 284 469 C244 469 214 503 174 503 C157 503 141 498 126 488 L89 572 C118 596 143 608 174 608 C216 608 246 573 286 573 C306 573 321 580 340 592 L378 509 Z M404 234 C400 345 332 411 208 411 C131 411 103 403 66 390 L66 288 C89 291 139 298 174 298 C266 298 286 273 286 238 L286 224 C235 255 195 257 164 257 C80 257 30 206 30 135 C30 6 147 -6 167 -6 C187 -6 249 -6 286 39 L293 0 L404 0 L404 234 Z M283 127 C280 123 276 120 270 117 C259 112 241 107 209 107 C162 107 148 118 148 133 C148 149 157 163 209 163 C236 163 255 157 267 150 C274 147 280 143 283 138 L283 127 Z " />
<glyph glyph-name="adieresis" unicode="&#xe4;" horiz-adv-x="454" d="M102 469 L221 469 L221 569 L102 569 L102 469 Z M257 469 L376 469 L376 569 L257 569 L257 469 Z M404 234 C400 345 332 411 208 411 C131 411 103 403 66 390 L66 288 C89 291 139 298 174 298 C266 298 286 273 286 238 L286 224 C235 255 195 257 164 257 C80 257 30 206 30 135 C30 6 147 -6 167 -6 C187 -6 249 -6 286 39 L293 0 L404 0 L404 234 Z M283 127 C280 123 276 120 270 117 C259 112 241 107 209 107 C162 107 148 118 148 133 C148 149 157 163 209 163 C236 163 255 157 267 150 C274 147 280 143 283 138 L283 127 Z " />
<glyph glyph-name="aring" unicode="&#xe5;" horiz-adv-x="454" d="M240 547 C220 547 197 561 197 596 C197 625 220 642 240 642 C260 642 283 625 283 596 C283 561 260 547 240 547 L240 547 Z M240 469 C308 469 368 529 368 597 C368 669 308 727 240 727 C172 727 112 669 112 597 C112 529 172 469 240 469 L240 469 Z M404 234 C400 345 332 411 208 411 C131 411 103 403 66 390 L66 288 C89 291 139 298 174 298 C266 298 286 273 286 238 L286 224 C235 255 195 257 164 257 C80 257 30 206 30 135 C30 6 147 -6 167 -6 C187 -6 249 -6 286 39 L293 0 L404 0 L404 234 Z M283 127 C280 123 276 120 270 117 C259 112 241 107 209 107 C162 107 148 118 148 133 C148 149 157 163 209 163 C236 163 255 157 267 150 C274 147 280 143 283 138 L283 127 Z " />
<glyph glyph-name="ae" unicode="&#xe6;" horiz-adv-x="702" d="M662 226 C662 332 593 411 481 411 C429 411 385 393 352 362 C318 395 270 411 208 411 C131 411 103 403 66 390 L66 288 C89 291 139 298 174 298 C266 298 286 273 286 238 L286 224 C235 255 195 257 164 257 C80 257 30 206 30 135 C30 6 147 -6 167 -6 C185 -6 283 -7 336 55 C369 16 418 -6 482 -6 C561 -6 617 7 636 20 L636 117 C606 112 537 103 516 103 C424 103 412 130 404 162 L662 162 L662 226 Z M283 127 C280 123 276 120 270 117 C259 112 241 107 209 107 C162 107 148 118 148 133 C148 149 157 163 209 163 C236 163 255 157 267 150 C274 147 280 143 283 138 L283 127 Z M404 246 C405 271 433 298 473 298 C517 298 536 277 544 246 L404 246 Z " />
<glyph glyph-name="ccedilla" unicode="&#xe7;" horiz-adv-x="415" d="M395 54 C379 81 362 106 343 135 C291 108 265 107 241 107 C206 107 148 125 148 208 C148 279 205 298 241 298 C264 298 293 296 342 269 C361 298 377 323 394 352 C329 406 268 411 226 411 C146 411 30 351 30 207 C30 44 155 -3 228 -6 C270 -6 326 -9 395 54 L395 54 Z M111 -207 L233 -207 L294 -64 L191 -64 L111 -207 Z " />
<glyph glyph-name="egrave" unicode="&#xe8;" horiz-adv-x="451" d="M411 226 C411 332 342 411 230 411 C114 411 35 318 35 203 C35 87 104 -6 231 -6 C310 -6 366 7 385 20 L385 117 C355 112 286 103 265 103 C173 103 161 130 153 162 L411 162 L411 226 Z M153 246 C154 271 182 298 222 298 C266 298 285 277 293 246 L153 246 Z M93 612 L215 612 L276 469 L173 469 L93 612 Z " />
<glyph glyph-name="eacute" unicode="&#xe9;" horiz-adv-x="451" d="M411 226 C411 332 342 411 230 411 C114 411 35 318 35 203 C35 87 104 -6 231 -6 C310 -6 366 7 385 20 L385 117 C355 112 286 103 265 103 C173 103 161 130 153 162 L411 162 L411 226 Z M153 246 C154 271 182 298 222 298 C266 298 285 277 293 246 L153 246 Z M274 469 L171 469 L232 612 L354 612 L274 469 Z " />
<glyph glyph-name="ecircumflex" unicode="&#xea;" horiz-adv-x="451" d="M411 226 C411 332 342 411 230 411 C114 411 35 318 35 203 C35 87 104 -6 231 -6 C310 -6 366 7 385 20 L385 117 C355 112 286 103 265 103 C173 103 161 130 153 162 L411 162 L411 226 Z M153 246 C154 271 182 298 222 298 C266 298 285 277 293 246 L153 246 Z M292 638 L373 469 L265 469 L230 552 L195 469 L87 469 L168 638 L292 638 Z " />
<glyph glyph-name="edieresis" unicode="&#xeb;" horiz-adv-x="451" d="M411 226 C411 332 342 411 230 411 C114 411 35 318 35 203 C35 87 104 -6 231 -6 C310 -6 366 7 385 20 L385 117 C355 112 286 103 265 103 C173 103 161 130 153 162 L411 162 L411 226 Z M153 246 C154 271 182 298 222 298 C266 298 285 277 293 246 L153 246 Z M95 469 L214 469 L214 569 L95 569 L95 469 Z M250 469 L369 469 L369 569 L250 569 L250 469 Z " />
<glyph glyph-name="igrave" unicode="&#xec;" horiz-adv-x="228" d="M55 0 L173 0 L173 405 L55 405 L55 0 Z M-22 612 L100 612 L161 469 L58 469 L-22 612 Z " />
<glyph glyph-name="iacute" unicode="&#xed;" horiz-adv-x="228" d="M173 405 L55 405 L55 0 L173 0 L173 405 Z M170 469 L67 469 L128 612 L250 612 L170 469 Z " />
<glyph glyph-name="icircumflex" unicode="&#xee;" horiz-adv-x="228" d="M173 405 L55 405 L55 0 L173 0 L173 405 Z M176 638 L257 469 L149 469 L114 552 L79 469 L-29 469 L52 638 L176 638 Z " />
<glyph glyph-name="idieresis" unicode="&#xef;" horiz-adv-x="228" d="M173 405 L55 405 L55 0 L173 0 L173 405 Z M-23 469 L96 469 L96 569 L-23 569 L-23 469 Z M132 469 L251 469 L251 569 L132 569 L132 469 Z " />
<glyph glyph-name="eth" unicode="&#xf0;" horiz-adv-x="529" d="M426 648 C403 667 380 686 356 705 L311 650 C288 655 266 657 243 657 C164 657 106 643 87 631 L87 529 C104 532 146 539 222 542 L173 485 L243 428 L317 518 C351 484 359 442 359 344 C306 387 262 382 238 382 C154 382 35 336 35 193 C35 22 181 -6 252 -6 L261 -6 C332 -6 479 23 479 191 L479 326 C479 469 450 551 393 608 L426 648 Z M256 107 C224 107 153 115 153 190 C153 262 220 268 256 268 C292 268 359 262 359 190 C359 118 289 107 256 107 L256 107 Z " />
<glyph glyph-name="ntilde" unicode="&#xf1;" horiz-adv-x="468" d="M168 0 L168 246 C173 256 180 265 187 272 C200 285 221 298 250 298 C274 298 305 286 305 247 L305 0 L423 0 L423 282 C423 354 363 411 291 411 C263 411 209 410 169 362 L161 405 L50 405 L50 0 L168 0 Z M378 509 C349 486 316 469 284 469 C244 469 214 503 174 503 C157 503 141 498 126 488 L89 572 C118 596 143 608 174 608 C216 608 246 573 286 573 C306 573 321 580 340 592 L378 509 Z " />
<glyph glyph-name="ograve" unicode="&#xf2;" horiz-adv-x="471" d="M240 -6 C312 -6 436 37 436 207 C436 351 322 411 237 411 C150 411 35 351 35 207 C35 37 161 -6 232 -6 L240 -6 Z M236 107 C201 107 153 121 153 205 C153 276 200 298 236 298 C273 298 318 276 318 205 C318 121 271 107 236 107 L236 107 Z M101 612 L223 612 L284 469 L181 469 L101 612 Z " />
<glyph glyph-name="oacute" unicode="&#xf3;" horiz-adv-x="471" d="M239 -6 C310 -6 436 37 436 207 C436 351 321 411 234 411 C149 411 35 351 35 207 C35 37 159 -6 231 -6 L239 -6 Z M235 107 C200 107 153 121 153 205 C153 276 198 298 235 298 C271 298 318 276 318 205 C318 121 270 107 235 107 L235 107 Z M290 469 L187 469 L248 612 L370 612 L290 469 Z " />
<glyph glyph-name="ocircumflex" unicode="&#xf4;" horiz-adv-x="471" d="M239 -6 C310 -6 436 37 436 207 C436 351 321 411 234 411 C149 411 35 351 35 207 C35 37 159 -6 231 -6 L239 -6 Z M235 107 C200 107 153 121 153 205 C153 276 198 298 235 298 C271 298 318 276 318 205 C318 121 270 107 235 107 L235 107 Z M297 638 L378 469 L270 469 L235 552 L200 469 L92 469 L173 638 L297 638 Z " />
<glyph glyph-name="otilde" unicode="&#xf5;" horiz-adv-x="471" d="M239 -6 C310 -6 436 37 436 207 C436 351 321 411 234 411 C149 411 35 351 35 207 C35 37 159 -6 231 -6 L239 -6 Z M235 107 C200 107 153 121 153 205 C153 276 198 298 235 298 C271 298 318 276 318 205 C318 121 270 107 235 107 L235 107 Z M378 509 C349 486 316 469 284 469 C244 469 214 503 174 503 C157 503 141 498 126 488 L89 572 C118 596 143 608 174 608 C216 608 246 573 286 573 C306 573 321 580 340 592 L378 509 Z " />
<glyph glyph-name="odieresis" unicode="&#xf6;" horiz-adv-x="471" d="M239 -6 C310 -6 436 37 436 207 C436 351 321 411 234 411 C149 411 35 351 35 207 C35 37 159 -6 231 -6 L239 -6 Z M235 107 C200 107 153 121 153 205 C153 276 198 298 235 298 C271 298 318 276 318 205 C318 121 270 107 235 107 L235 107 Z M98 469 L217 469 L217 569 L98 569 L98 469 Z M253 469 L372 469 L372 569 L253 569 L253 469 Z " />
<glyph glyph-name="divide" unicode="&#xf7;" horiz-adv-x="441" d="M386 159 L386 272 L55 272 L55 159 L386 159 Z M161 53 C161 20 187 -6 220 -6 C253 -6 280 20 280 53 C280 86 253 113 220 113 C187 113 161 86 161 53 L161 53 Z M161 378 C161 345 187 318 220 318 C253 318 280 345 280 378 C280 411 253 437 220 437 C187 437 161 411 161 378 L161 378 Z " />
<glyph glyph-name="oslash" unicode="&#xf8;" horiz-adv-x="471" d="M409 499 L284 499 L251 410 C248 411 243 411 237 411 C150 411 35 351 35 207 C35 120 67 68 108 36 L62 -84 L188 -84 L218 -5 C221 -6 226 -6 232 -6 L240 -6 C312 -6 436 37 436 207 C436 283 404 336 361 369 L409 499 Z M236 107 C201 107 153 121 153 205 C153 276 200 298 236 298 C273 298 318 276 318 205 C318 121 271 107 236 107 L236 107 Z " />
<glyph glyph-name="ugrave" unicode="&#xf9;" horiz-adv-x="468" d="M300 405 L300 159 C295 149 288 140 281 133 C268 120 247 107 218 107 C194 107 163 119 163 158 L163 405 L45 405 L45 123 C45 51 105 -6 177 -6 C205 -6 259 -5 299 43 L307 0 L418 0 L418 405 L300 405 Z M101 612 L223 612 L284 469 L181 469 L101 612 Z " />
<glyph glyph-name="uacute" unicode="&#xfa;" horiz-adv-x="468" d="M300 405 L300 159 C295 149 288 140 281 133 C268 120 247 107 218 107 C194 107 163 119 163 158 L163 405 L45 405 L45 123 C45 51 105 -6 177 -6 C205 -6 259 -5 299 43 L307 0 L418 0 L418 405 L300 405 Z M284 469 L181 469 L242 612 L364 612 L284 469 Z " />
<glyph glyph-name="ucircumflex" unicode="&#xfb;" horiz-adv-x="468" d="M300 405 L300 159 C295 149 288 140 281 133 C268 120 247 107 218 107 C194 107 163 119 163 158 L163 405 L45 405 L45 123 C45 51 105 -6 177 -6 C205 -6 259 -5 299 43 L307 0 L418 0 L418 405 L300 405 Z M295 638 L376 469 L268 469 L233 552 L198 469 L90 469 L171 638 L295 638 Z " />
<glyph glyph-name="udieresis" unicode="&#xfc;" horiz-adv-x="468" d="M300 405 L300 159 C295 149 288 140 281 133 C268 120 247 107 218 107 C194 107 163 119 163 158 L163 405 L45 405 L45 123 C45 51 105 -6 177 -6 C205 -6 259 -5 299 43 L307 0 L418 0 L418 405 L300 405 Z M94 469 L213 469 L213 569 L94 569 L94 469 Z M249 469 L368 469 L368 569 L249 569 L249 469 Z " />
<glyph glyph-name="yacute" unicode="&#xfd;" horiz-adv-x="442" d="M135 -51 C113 -89 78 -92 66 -92 C63 -92 33 -91 25 -91 L25 -191 C34 -194 59 -198 100 -198 C150 -198 197 -173 237 -79 L437 405 L305 405 L218 158 L145 405 L20 405 C67 276 112 140 159 11 L135 -51 Z M283 469 L180 469 L241 612 L363 612 L283 469 Z " />
<glyph glyph-name="thorn" unicode="&#xfe;" horiz-adv-x="481" d="M50 -185 L170 -185 L170 34 C207 -6 255 -6 283 -6 C354 -6 446 43 446 209 C446 350 367 411 283 411 C255 411 210 408 170 363 L170 590 L50 590 L50 -185 Z M246 298 C268 298 328 280 328 209 C328 126 268 107 246 107 C217 107 198 120 186 133 C179 140 173 149 170 160 L170 245 C172 252 193 298 246 298 L246 298 Z " />
<glyph glyph-name="ydieresis" unicode="&#xff;" horiz-adv-x="442" d="M135 -51 C113 -89 78 -92 66 -92 C63 -92 33 -91 25 -91 L25 -191 C34 -194 59 -198 100 -198 C150 -198 197 -173 237 -79 L437 405 L305 405 L218 158 L145 405 L20 405 C67 276 112 140 159 11 L135 -51 Z M88 469 L207 469 L207 569 L88 569 L88 469 Z M243 469 L362 469 L362 569 L243 569 L243 469 Z " />
<glyph glyph-name="Amacron" unicode="&#x100;" horiz-adv-x="593" d="M361 590 L234 590 L15 0 L144 0 L189 129 L405 129 L451 0 L578 0 L361 590 Z M297 422 L365 240 L230 240 L297 422 Z M448 657 L448 755 L146 755 L146 657 L448 657 Z " />
<glyph glyph-name="amacron" unicode="&#x101;" horiz-adv-x="454" d="M380 469 L380 567 L78 567 L78 469 L380 469 Z M404 234 C400 345 332 411 208 411 C131 411 103 403 66 390 L66 288 C89 291 139 298 174 298 C266 298 286 273 286 238 L286 224 C235 255 195 257 164 257 C80 257 30 206 30 135 C30 6 147 -6 167 -6 C187 -6 249 -6 286 39 L293 0 L404 0 L404 234 Z M283 127 C280 123 276 120 270 117 C259 112 241 107 209 107 C162 107 148 118 148 133 C148 149 157 163 209 163 C236 163 255 157 267 150 C274 147 280 143 283 138 L283 127 Z " />
<glyph glyph-name="Abreve" unicode="&#x102;" horiz-adv-x="593" d="M297 657 C373 657 448 694 456 792 L367 792 C356 747 321 741 297 741 C273 741 239 747 228 792 L140 792 C148 695 222 657 297 657 L297 657 Z M361 590 L234 590 L15 0 L144 0 L189 129 L405 129 L451 0 L578 0 L361 590 Z M297 422 L365 240 L230 240 L297 422 Z " />
<glyph glyph-name="abreve" unicode="&#x103;" horiz-adv-x="454" d="M236 469 C312 469 387 506 395 604 L306 604 C295 559 260 553 236 553 C212 553 178 559 167 604 L79 604 C87 507 161 469 236 469 L236 469 Z M404 234 C400 345 332 411 208 411 C131 411 103 403 66 390 L66 288 C89 291 139 298 174 298 C266 298 286 273 286 238 L286 224 C235 255 195 257 164 257 C80 257 30 206 30 135 C30 6 147 -6 167 -6 C187 -6 249 -6 286 39 L293 0 L404 0 L404 234 Z M283 127 C280 123 276 120 270 117 C259 112 241 107 209 107 C162 107 148 118 148 133 C148 149 157 163 209 163 C236 163 255 157 267 150 C274 147 280 143 283 138 L283 127 Z " />
<glyph glyph-name="Aogonek" unicode="&#x104;" horiz-adv-x="593" d="M361 590 L234 590 L15 0 L144 0 L189 129 L405 129 L451 0 L578 0 L361 590 Z M297 422 L365 240 L230 240 L297 422 Z M395 -207 L517 -207 L578 -64 L475 -64 L395 -207 Z " />
<glyph glyph-name="aogonek" unicode="&#x105;" horiz-adv-x="454" d="M219 -207 L341 -207 L402 -64 L299 -64 L219 -207 Z M404 234 C400 345 332 411 208 411 C131 411 103 403 66 390 L66 288 C89 291 139 298 174 298 C266 298 286 273 286 238 L286 224 C235 255 195 257 164 257 C80 257 30 206 30 135 C30 6 147 -6 167 -6 C187 -6 249 -6 286 39 L293 0 L404 0 L404 234 Z M283 127 C280 123 276 120 270 117 C259 112 241 107 209 107 C162 107 148 118 148 133 C148 149 157 163 209 163 C236 163 255 157 267 150 C274 147 280 143 283 138 L283 127 Z " />
<glyph glyph-name="Cacute" unicode="&#x106;" horiz-adv-x="543" d="M321 482 C366 482 408 478 449 446 C473 475 492 495 516 526 C460 577 390 595 322 595 C192 595 30 517 30 304 C30 52 215 -6 323 -6 C390 -6 462 18 518 66 L450 143 C409 111 366 107 321 107 C256 107 148 133 148 301 C148 448 240 482 321 482 L321 482 Z M427 800 L305 800 L244 657 L347 657 L427 800 Z " />
<glyph glyph-name="cacute" unicode="&#x107;" horiz-adv-x="415" d="M395 54 C379 81 362 106 343 135 C291 108 265 107 241 107 C206 107 148 125 148 208 C148 279 205 298 241 298 C264 298 293 296 342 269 C361 298 377 323 394 352 C329 406 268 411 226 411 C146 411 30 351 30 207 C30 44 155 -3 228 -6 C270 -6 326 -9 395 54 L395 54 Z M360 612 L238 612 L177 469 L280 469 L360 612 Z " />
<glyph glyph-name="Ccircumflex" unicode="&#x108;" horiz-adv-x="543" d="M321 482 C366 482 408 478 449 446 C473 475 492 495 516 526 C460 577 390 595 322 595 C192 595 30 517 30 304 C30 52 215 -6 323 -6 C390 -6 462 18 518 66 L450 143 C409 111 366 107 321 107 C256 107 148 133 148 301 C148 448 240 482 321 482 L321 482 Z M256 826 L175 657 L283 657 L318 740 L353 657 L461 657 L380 826 L256 826 Z " />
<glyph glyph-name="ccircumflex" unicode="&#x109;" horiz-adv-x="415" d="M395 54 C379 81 362 106 343 135 C291 108 265 107 241 107 C206 107 148 125 148 208 C148 279 205 298 241 298 C264 298 293 296 342 269 C361 298 377 323 394 352 C329 406 268 411 226 411 C146 411 30 351 30 207 C30 44 155 -3 228 -6 C270 -6 326 -9 395 54 L395 54 Z M157 638 L76 469 L184 469 L219 552 L254 469 L362 469 L281 638 L157 638 Z " />
<glyph glyph-name="Cdotaccent" unicode="&#x10a;" horiz-adv-x="543" d="M321 482 C366 482 408 478 449 446 C473 475 492 495 516 526 C460 577 390 595 322 595 C192 595 30 517 30 304 C30 52 215 -6 323 -6 C390 -6 462 18 518 66 L450 143 C409 111 366 107 321 107 C256 107 148 133 148 301 C148 448 240 482 321 482 L321 482 Z M251 657 L370 657 L370 757 L251 757 L251 657 Z " />
<glyph glyph-name="cdotaccent" unicode="&#x10b;" horiz-adv-x="415" d="M395 54 C379 81 362 106 343 135 C291 108 265 107 241 107 C206 107 148 125 148 208 C148 279 205 298 241 298 C264 298 293 296 342 269 C361 298 377 323 394 352 C329 406 268 411 226 411 C146 411 30 351 30 207 C30 44 155 -3 228 -6 C270 -6 326 -9 395 54 L395 54 Z M162 469 L281 469 L281 569 L162 569 L162 469 Z " />
<glyph glyph-name="Ccaron" unicode="&#x10c;" horiz-adv-x="543" d="M321 482 C366 482 408 478 449 446 C473 475 492 495 516 526 C460 577 390 595 322 595 C192 595 30 517 30 304 C30 52 215 -6 323 -6 C390 -6 462 18 518 66 L450 143 C409 111 366 107 321 107 C256 107 148 133 148 301 C148 448 240 482 321 482 L321 482 Z M367 657 L448 826 L340 826 L305 743 L270 826 L162 826 L243 657 L367 657 Z " />
<glyph glyph-name="ccaron" unicode="&#x10d;" horiz-adv-x="415" d="M395 54 C379 81 362 106 343 135 C291 108 265 107 241 107 C206 107 148 125 148 208 C148 279 205 298 241 298 C264 298 293 296 342 269 C361 298 377 323 394 352 C329 406 268 411 226 411 C146 411 30 351 30 207 C30 44 155 -3 228 -6 C270 -6 326 -9 395 54 L395 54 Z M295 469 L376 638 L268 638 L233 555 L198 638 L90 638 L171 469 L295 469 Z " />
<glyph glyph-name="Dcaron" unicode="&#x10e;" horiz-adv-x="576" d="M536 304 C536 518 381 590 253 590 L55 590 L55 0 L265 0 C372 0 536 59 536 304 L536 304 Z M252 113 L173 113 L173 477 L255 477 C337 477 418 446 418 301 C418 132 319 113 252 113 L252 113 Z M204 657 L123 826 L231 826 L266 743 L301 826 L409 826 L328 657 L204 657 Z " />
<glyph glyph-name="dcaron" unicode="&#x10f;" horiz-adv-x="655" d="M431 590 L313 590 L313 369 C273 412 226 411 198 411 C114 411 35 350 35 209 C35 43 127 -6 198 -6 C225 -6 278 -6 315 39 L324 0 L431 0 L431 590 Z M311 160 C308 149 302 140 295 133 C283 120 264 107 235 107 C213 107 153 126 153 209 C153 280 213 298 235 298 C264 298 283 284 295 271 C302 264 308 255 311 245 L311 160 Z M645 590 L523 590 L462 447 L565 447 L645 590 Z " />
<glyph glyph-name="Dcroat" unicode="&#x110;" horiz-adv-x="613" d="M15 242 L92 242 L92 0 L302 0 C409 0 573 59 573 304 C573 518 418 590 290 590 L92 590 L92 341 L15 341 L15 242 Z M210 113 L210 242 L346 242 L346 341 L210 341 L210 477 L292 477 C374 477 455 446 455 301 C455 132 356 113 289 113 L210 113 Z " />
<glyph glyph-name="dcroat" unicode="&#x111;" horiz-adv-x="490" d="M313 452 L313 369 C273 412 226 411 198 411 C114 411 35 350 35 209 C35 43 127 -6 198 -6 C225 -6 278 -6 315 39 L324 0 L431 0 L431 452 L500 452 L500 550 L431 550 L431 590 L313 590 L313 550 L240 550 L240 452 L313 452 Z M311 160 C308 149 302 140 295 133 C283 120 264 107 235 107 C213 107 153 126 153 209 C153 280 213 298 235 298 C264 298 283 284 295 271 C302 264 308 255 311 245 L311 160 Z " />
<glyph glyph-name="Emacron" unicode="&#x112;" horiz-adv-x="503" d="M458 477 L458 590 L55 590 L55 0 L458 0 L458 113 L173 113 L173 227 L406 227 L406 340 L173 340 L173 477 L458 477 Z M407 657 L407 755 L105 755 L105 657 L407 657 Z " />
<glyph glyph-name="emacron" unicode="&#x113;" horiz-adv-x="451" d="M411 226 C411 332 342 411 230 411 C114 411 35 318 35 203 C35 87 104 -6 231 -6 C310 -6 366 7 385 20 L385 117 C355 112 286 103 265 103 C173 103 161 130 153 162 L411 162 L411 226 Z M153 246 C154 271 182 298 222 298 C266 298 285 277 293 246 L153 246 Z M377 469 L377 567 L75 567 L75 469 L377 469 Z " />
<glyph glyph-name="Edotaccent" unicode="&#x116;" horiz-adv-x="503" d="M458 477 L458 590 L55 590 L55 0 L458 0 L458 113 L173 113 L173 227 L406 227 L406 340 L173 340 L173 477 L458 477 Z M210 657 L329 657 L329 757 L210 757 L210 657 Z " />
<glyph glyph-name="edotaccent" unicode="&#x117;" horiz-adv-x="451" d="M411 226 C411 332 342 411 230 411 C114 411 35 318 35 203 C35 87 104 -6 231 -6 C310 -6 366 7 385 20 L385 117 C355 112 286 103 265 103 C173 103 161 130 153 162 L411 162 L411 226 Z M153 246 C154 271 182 298 222 298 C266 298 285 277 293 246 L153 246 Z M166 469 L285 469 L285 569 L166 569 L166 469 Z " />
<glyph glyph-name="Eogonek" unicode="&#x118;" horiz-adv-x="503" d="M458 477 L458 590 L55 590 L55 0 L458 0 L458 113 L173 113 L173 227 L406 227 L406 340 L173 340 L173 477 L458 477 Z M275 -207 L397 -207 L458 -64 L355 -64 L275 -207 Z " />
<glyph glyph-name="eogonek" unicode="&#x119;" horiz-adv-x="451" d="M411 226 C411 332 342 411 230 411 C114 411 35 318 35 203 C35 87 104 -6 231 -6 C310 -6 366 7 385 20 L385 117 C355 112 286 103 265 103 C173 103 161 130 153 162 L411 162 L411 226 Z M153 246 C154 271 182 298 222 298 C266 298 285 277 293 246 L153 246 Z M112 -207 L234 -207 L295 -64 L192 -64 L112 -207 Z " />
<glyph glyph-name="Ecaron" unicode="&#x11a;" horiz-adv-x="503" d="M458 477 L458 590 L55 590 L55 0 L458 0 L458 113 L173 113 L173 227 L406 227 L406 340 L173 340 L173 477 L458 477 Z M203 657 L122 826 L230 826 L265 743 L300 826 L408 826 L327 657 L203 657 Z " />
<glyph glyph-name="ecaron" unicode="&#x11b;" horiz-adv-x="451" d="M411 226 C411 332 342 411 230 411 C114 411 35 318 35 203 C35 87 104 -6 231 -6 C310 -6 366 7 385 20 L385 117 C355 112 286 103 265 103 C173 103 161 130 153 162 L411 162 L411 226 Z M153 246 C154 271 182 298 222 298 C266 298 285 277 293 246 L153 246 Z M171 469 L90 638 L198 638 L233 555 L268 638 L376 638 L295 469 L171 469 Z " />
<glyph glyph-name="Gcircumflex" unicode="&#x11c;" horiz-adv-x="593" d="M332 322 L332 209 L415 209 L415 131 C384 114 354 107 321 107 C256 107 148 133 148 301 C148 448 240 482 321 482 C366 482 408 478 449 446 C473 475 492 495 516 526 C460 577 390 595 322 595 C192 595 30 517 30 304 C30 52 215 -6 323 -6 C390 -6 476 15 533 77 L533 322 L332 322 Z M365 826 L446 657 L338 657 L303 740 L268 657 L160 657 L241 826 L365 826 Z " />
<glyph glyph-name="gcircumflex" unicode="&#x11d;" horiz-adv-x="486" d="M240 298 C296 298 313 250 316 245 L316 160 C313 149 307 140 300 133 C288 120 269 107 240 107 C218 107 158 126 158 209 C158 280 218 298 240 298 L240 298 Z M316 0 C316 -84 257 -85 224 -85 C201 -85 148 -81 105 -59 L71 -154 C111 -187 164 -198 228 -198 C300 -198 436 -174 436 -3 L436 405 L325 405 L317 362 C276 408 230 411 203 411 C119 411 40 350 40 209 C40 43 132 -6 203 -6 C231 -6 279 -6 316 34 L316 0 Z M311 638 L392 469 L284 469 L249 552 L214 469 L106 469 L187 638 L311 638 Z " />
<glyph glyph-name="Gbreve" unicode="&#x11e;" horiz-adv-x="593" d="M332 322 L332 209 L415 209 L415 131 C384 114 354 107 321 107 C256 107 148 133 148 301 C148 448 240 482 321 482 C366 482 408 478 449 446 C473 475 492 495 516 526 C460 577 390 595 322 595 C192 595 30 517 30 304 C30 52 215 -6 323 -6 C390 -6 476 15 533 77 L533 322 L332 322 Z M316 657 C392 657 467 694 475 792 L386 792 C375 747 340 741 316 741 C292 741 258 747 247 792 L159 792 C167 695 241 657 316 657 L316 657 Z " />
<glyph glyph-name="gbreve" unicode="&#x11f;" horiz-adv-x="486" d="M240 298 C296 298 313 250 316 245 L316 160 C313 149 307 140 300 133 C288 120 269 107 240 107 C218 107 158 126 158 209 C158 280 218 298 240 298 L240 298 Z M316 0 C316 -84 257 -85 224 -85 C201 -85 148 -81 105 -59 L71 -154 C111 -187 164 -198 228 -198 C300 -198 436 -174 436 -3 L436 405 L325 405 L317 362 C276 408 230 411 203 411 C119 411 40 350 40 209 C40 43 132 -6 203 -6 C231 -6 279 -6 316 34 L316 0 Z M253 469 C329 469 404 506 412 604 L323 604 C312 559 277 553 253 553 C229 553 195 559 184 604 L96 604 C104 507 178 469 253 469 L253 469 Z " />
<glyph glyph-name="Gdotaccent" unicode="&#x120;" horiz-adv-x="593" d="M332 322 L332 209 L415 209 L415 131 C384 114 354 107 321 107 C256 107 148 133 148 301 C148 448 240 482 321 482 C366 482 408 478 449 446 C473 475 492 495 516 526 C460 577 390 595 322 595 C192 595 30 517 30 304 C30 52 215 -6 323 -6 C390 -6 476 15 533 77 L533 322 L332 322 Z M256 657 L375 657 L375 757 L256 757 L256 657 Z " />
<glyph glyph-name="gdotaccent" unicode="&#x121;" horiz-adv-x="486" d="M240 298 C296 298 313 250 316 245 L316 160 C313 149 307 140 300 133 C288 120 269 107 240 107 C218 107 158 126 158 209 C158 280 218 298 240 298 L240 298 Z M316 0 C316 -84 257 -85 224 -85 C201 -85 148 -81 105 -59 L71 -154 C111 -187 164 -198 228 -198 C300 -198 436 -174 436 -3 L436 405 L325 405 L317 362 C276 408 230 411 203 411 C119 411 40 350 40 209 C40 43 132 -6 203 -6 C231 -6 279 -6 316 34 L316 0 Z M186 469 L305 469 L305 569 L186 569 L186 469 Z " />
<glyph glyph-name="uni0122" unicode="&#x122;" horiz-adv-x="593" d="M332 322 L332 209 L415 209 L415 131 C384 114 354 107 321 107 C256 107 148 133 148 301 C148 448 240 482 321 482 C366 482 408 478 449 446 C473 475 492 495 516 526 C460 577 390 595 322 595 C192 595 30 517 30 304 C30 52 215 -6 323 -6 C390 -6 476 15 533 77 L533 322 L332 322 Z M188 -207 L310 -207 L371 -64 L268 -64 L188 -207 Z " />
<glyph glyph-name="uni0123" unicode="&#x123;" horiz-adv-x="486" d="M240 298 C296 298 313 250 316 245 L316 160 C313 149 307 140 300 133 C288 120 269 107 240 107 C218 107 158 126 158 209 C158 280 218 298 240 298 L240 298 Z M316 0 C316 -84 257 -85 224 -85 C201 -85 148 -81 105 -59 L71 -154 C111 -187 164 -198 228 -198 C300 -198 436 -174 436 -3 L436 405 L325 405 L317 362 C276 408 230 411 203 411 C119 411 40 350 40 209 C40 43 132 -6 203 -6 C231 -6 279 -6 316 34 L316 0 Z M280 469 L177 469 L238 612 L360 612 L280 469 Z " />
<glyph glyph-name="Hcircumflex" unicode="&#x124;" horiz-adv-x="591" d="M418 590 L418 341 L173 341 L173 590 L55 590 L55 0 L173 0 L173 228 L418 228 L418 0 L536 0 L536 590 L418 590 Z M357 826 L438 657 L330 657 L295 740 L260 657 L152 657 L233 826 L357 826 Z " />
<glyph glyph-name="hcircumflex" unicode="&#x125;" horiz-adv-x="468" d="M168 0 L168 246 C171 251 194 298 250 298 C274 298 305 286 305 247 L305 0 L423 0 L423 282 C423 354 363 411 291 411 C261 411 209 410 168 361 L168 590 L50 590 L50 0 L168 0 Z M255 826 L336 657 L228 657 L193 740 L158 657 L50 657 L131 826 L255 826 Z " />
<glyph glyph-name="Hbar" unicode="&#x126;" horiz-adv-x="605" d="M600 439 L600 536 L543 536 L543 590 L425 590 L425 536 L180 536 L180 590 L62 590 L62 536 L5 536 L5 439 L62 439 L62 0 L180 0 L180 228 L425 228 L425 0 L543 0 L543 439 L600 439 Z M180 341 L180 439 L425 439 L425 341 L180 341 Z " />
<glyph glyph-name="hbar" unicode="&#x127;" horiz-adv-x="477" d="M59 465 L59 0 L177 0 L177 246 C180 251 203 298 259 298 C283 298 314 286 314 247 L314 0 L432 0 L432 282 C432 354 372 411 300 411 C270 411 218 410 177 361 L177 465 L250 465 L250 563 L177 563 L177 603 L59 603 L59 563 L-10 563 L-10 465 L59 465 Z " />
<glyph glyph-name="Itilde" unicode="&#x128;" horiz-adv-x="228" d="M173 590 L55 590 L55 0 L173 0 L173 590 Z M259 697 C230 674 197 657 165 657 C125 657 95 691 55 691 C38 691 22 686 7 676 L-30 760 C-1 784 24 796 55 796 C97 796 127 761 167 761 C187 761 202 768 221 780 L259 697 Z " />
<glyph glyph-name="itilde" unicode="&#x129;" horiz-adv-x="228" d="M55 0 L173 0 L173 405 L55 405 L55 0 Z M259 509 C230 486 197 469 165 469 C125 469 95 503 55 503 C38 503 22 498 7 488 L-30 572 C-1 596 24 608 55 608 C97 608 127 573 167 573 C187 573 202 580 221 592 L259 509 Z " />
<glyph glyph-name="Imacron" unicode="&#x12a;" horiz-adv-x="228" d="M173 590 L55 590 L55 0 L173 0 L173 590 Z M225 657 L225 755 L2 755 L2 657 L225 657 Z " />
<glyph glyph-name="imacron" unicode="&#x12b;" horiz-adv-x="228" d="M55 0 L173 0 L173 405 L55 405 L55 0 Z M225 469 L225 567 L2 567 L2 469 L225 469 Z " />
<glyph glyph-name="Iogonek" unicode="&#x12e;" horiz-adv-x="228" d="M173 590 L55 590 L55 0 L173 0 L173 590 Z M-13 -207 L109 -207 L170 -64 L67 -64 L-13 -207 Z " />
<glyph glyph-name="iogonek" unicode="&#x12f;" horiz-adv-x="228" d="M55 0 L173 0 L173 405 L55 405 L55 0 Z M55 458 L173 458 L173 566 L55 566 L55 458 Z M-13 -207 L109 -207 L170 -64 L67 -64 L-13 -207 Z " />
<glyph glyph-name="Idotaccent" unicode="&#x130;" horiz-adv-x="228" d="M55 0 L173 0 L173 590 L55 590 L55 0 Z M55 657 L173 657 L173 765 L55 765 L55 657 Z " />
<glyph glyph-name="dotlessi" unicode="&#x131;" horiz-adv-x="228" d="M55 0 L173 0 L173 405 L55 405 L55 0 Z " />
<glyph glyph-name="Jcircumflex" unicode="&#x134;" horiz-adv-x="466" d="M293 206 C293 110 215 107 183 107 C159 107 117 107 62 134 L10 53 C76 -2 153 -6 195 -6 C268 -3 411 25 411 204 L411 590 L293 590 L293 206 Z M330 826 L411 657 L303 657 L268 740 L233 657 L125 657 L206 826 L330 826 Z " />
<glyph glyph-name="jcircumflex" unicode="&#x135;" horiz-adv-x="228" d="M55 -13 C55 -69 52 -85 11 -85 C-8 -85 -30 -84 -47 -81 C-58 -80 -68 -78 -77 -76 L-77 -175 C-64 -188 -43 -198 25 -198 C155 -198 173 -110 173 -57 L173 405 L55 405 L55 -13 Z M176 638 L257 469 L149 469 L114 552 L79 469 L-29 469 L52 638 L176 638 Z " />
<glyph glyph-name="uni0136" unicode="&#x136;" horiz-adv-x="558" d="M304 299 L563 590 L405 590 L173 328 L173 590 L55 590 L55 0 L173 0 L173 269 L404 0 L557 0 L304 299 Z M166 -207 L288 -207 L349 -64 L246 -64 L166 -207 Z " />
<glyph glyph-name="uni0137" unicode="&#x137;" horiz-adv-x="457" d="M464 0 L300 224 L448 405 L294 405 L168 248 L168 590 L50 590 L50 0 L168 0 L168 205 L318 0 L464 0 Z M115 -207 L237 -207 L298 -64 L195 -64 L115 -207 Z " />
<glyph glyph-name="kgreenlandic" unicode="&#x138;" horiz-adv-x="457" d="M464 0 L300 224 L448 405 L294 405 L168 248 L168 405 L50 405 L50 0 L168 0 L168 205 L318 0 L464 0 Z " />
<glyph glyph-name="Lacute" unicode="&#x139;" horiz-adv-x="467" d="M173 590 L55 590 L55 0 L437 0 L437 113 L173 113 L173 590 Z M158 657 L55 657 L116 800 L238 800 L158 657 Z " />
<glyph glyph-name="lacute" unicode="&#x13a;" horiz-adv-x="228" d="M173 590 L55 590 L55 0 L173 0 L173 590 Z M165 657 L62 657 L123 800 L245 800 L165 657 Z " />
<glyph glyph-name="uni013B" unicode="&#x13b;" horiz-adv-x="467" d="M173 590 L55 590 L55 0 L437 0 L437 113 L173 113 L173 590 Z M122 -207 L244 -207 L305 -64 L202 -64 L122 -207 Z " />
<glyph glyph-name="uni013C" unicode="&#x13c;" horiz-adv-x="228" d="M173 590 L55 590 L55 0 L173 0 L173 590 Z M-13 -207 L109 -207 L170 -64 L67 -64 L-13 -207 Z " />
<glyph glyph-name="Lcaron" unicode="&#x13d;" horiz-adv-x="467" d="M173 590 L55 590 L55 0 L437 0 L437 113 L173 113 L173 590 Z M418 590 L296 590 L235 447 L338 447 L418 590 Z " />
<glyph glyph-name="lcaron" unicode="&#x13e;" horiz-adv-x="397" d="M55 0 L173 0 L173 590 L55 590 L55 0 Z M387 590 L265 590 L204 447 L307 447 L387 590 Z " />
<glyph glyph-name="Lslash" unicode="&#x141;" horiz-adv-x="518" d="M323 328 L323 444 L224 411 L224 590 L106 590 L106 371 L15 341 L15 225 L106 255 L106 0 L488 0 L488 113 L224 113 L224 295 L323 328 Z " />
<glyph glyph-name="lslash" unicode="&#x142;" horiz-adv-x="342" d="M105 258 L107 258 L107 0 L225 0 L225 298 L327 332 L327 450 L225 416 L225 590 L107 590 L107 376 L15 346 L15 228 L105 258 Z " />
<glyph glyph-name="Nacute" unicode="&#x143;" horiz-adv-x="610" d="M432 0 L555 0 L555 590 L436 590 L436 203 L169 590 L55 590 L55 0 L173 0 L173 380 L432 0 Z M353 657 L250 657 L311 800 L433 800 L353 657 Z " />
<glyph glyph-name="nacute" unicode="&#x144;" horiz-adv-x="468" d="M168 0 L168 246 C173 256 180 265 187 272 C200 285 221 298 250 298 C274 298 305 286 305 247 L305 0 L423 0 L423 282 C423 354 363 411 291 411 C263 411 209 410 169 362 L161 405 L50 405 L50 0 L168 0 Z M328 469 L225 469 L286 612 L408 612 L328 469 Z " />
<glyph glyph-name="uni0145" unicode="&#x145;" horiz-adv-x="610" d="M432 0 L555 0 L555 590 L436 590 L436 203 L169 590 L55 590 L55 0 L173 0 L173 380 L432 0 Z M173 -207 L295 -207 L356 -64 L253 -64 L173 -207 Z " />
<glyph glyph-name="uni0146" unicode="&#x146;" horiz-adv-x="468" d="M168 0 L168 246 C173 256 180 265 187 272 C200 285 221 298 250 298 C274 298 305 286 305 247 L305 0 L423 0 L423 282 C423 354 363 411 291 411 C263 411 209 410 169 362 L161 405 L50 405 L50 0 L168 0 Z M105 -207 L227 -207 L288 -64 L185 -64 L105 -207 Z " />
<glyph glyph-name="Ncaron" unicode="&#x147;" horiz-adv-x="610" d="M432 0 L555 0 L555 590 L436 590 L436 203 L169 590 L55 590 L55 0 L173 0 L173 380 L432 0 Z M242 657 L161 826 L269 826 L304 743 L339 826 L447 826 L366 657 L242 657 Z " />
<glyph glyph-name="ncaron" unicode="&#x148;" horiz-adv-x="468" d="M168 0 L168 246 C173 256 180 265 187 272 C200 285 221 298 250 298 C274 298 305 286 305 247 L305 0 L423 0 L423 282 C423 354 363 411 291 411 C263 411 209 410 169 362 L161 405 L50 405 L50 0 L168 0 Z M186 469 L105 638 L213 638 L248 555 L283 638 L391 638 L310 469 L186 469 Z " />
<glyph glyph-name="Eng" unicode="&#x14a;" horiz-adv-x="610" d="M437 0 L437 -13 C437 -69 434 -85 393 -85 C374 -85 352 -84 335 -81 C324 -80 314 -78 305 -76 L305 -175 C318 -188 339 -198 407 -198 C537 -198 555 -110 555 -57 L555 590 L437 590 L437 203 L169 590 L55 590 L55 0 L173 0 L173 380 L437 0 Z " />
<glyph glyph-name="eng" unicode="&#x14b;" horiz-adv-x="468" d="M305 -13 C305 -69 302 -85 261 -85 C242 -85 220 -84 203 -81 C192 -80 182 -78 173 -76 L173 -175 C186 -188 207 -198 275 -198 C405 -198 423 -110 423 -57 L423 282 C423 354 363 411 291 411 C263 411 209 410 169 362 L161 405 L50 405 L50 0 L168 0 L168 246 C173 256 180 265 187 272 C200 285 221 298 250 298 C274 298 305 286 305 247 L305 -13 Z " />
<glyph glyph-name="Omacron" unicode="&#x14c;" horiz-adv-x="646" d="M323 107 C259 107 158 133 158 301 C158 448 242 482 323 482 C404 482 488 448 488 301 C488 133 387 107 323 107 L323 107 Z M323 -6 C431 -6 606 52 606 304 C606 517 452 595 323 595 C194 595 40 517 40 304 C40 52 215 -6 323 -6 L323 -6 Z M474 657 L474 755 L172 755 L172 657 L474 657 Z " />
<glyph glyph-name="omacron" unicode="&#x14d;" horiz-adv-x="471" d="M240 -6 C312 -6 436 37 436 207 C436 351 322 411 237 411 C150 411 35 351 35 207 C35 37 161 -6 232 -6 L240 -6 Z M236 107 C201 107 153 121 153 205 C153 276 200 298 236 298 C273 298 318 276 318 205 C318 121 271 107 236 107 L236 107 Z M388 469 L388 567 L86 567 L86 469 L388 469 Z " />
<glyph glyph-name="Ohungarumlaut" unicode="&#x150;" horiz-adv-x="646" d="M323 107 C259 107 158 133 158 301 C158 448 242 482 323 482 C404 482 488 448 488 301 C488 133 387 107 323 107 L323 107 Z M323 -6 C431 -6 606 52 606 304 C606 517 452 595 323 595 C194 595 40 517 40 304 C40 52 215 -6 323 -6 L323 -6 Z M458 657 L356 657 L397 803 L513 803 L458 657 Z M296 657 L194 657 L235 803 L351 803 L296 657 Z " />
<glyph glyph-name="ohungarumlaut" unicode="&#x151;" horiz-adv-x="471" d="M370 469 L268 469 L309 615 L425 615 L370 469 Z M240 -6 C312 -6 436 37 436 207 C436 351 322 411 237 411 C150 411 35 351 35 207 C35 37 161 -6 232 -6 L240 -6 Z M236 107 C201 107 153 121 153 205 C153 276 200 298 236 298 C273 298 318 276 318 205 C318 121 271 107 236 107 L236 107 Z M208 469 L106 469 L147 615 L263 615 L208 469 Z " />
<glyph glyph-name="OE" unicode="&#x152;" horiz-adv-x="829" d="M784 477 L784 590 L381 590 C361 593 341 595 322 595 C192 595 30 517 30 304 C30 52 215 -6 323 -6 C342 -6 362 -4 381 0 L784 0 L784 113 L499 113 L499 227 L732 227 L732 340 L499 340 L499 477 L784 477 Z M321 107 C256 107 148 133 148 301 C148 448 240 482 321 482 C342 482 361 481 381 477 L381 112 C361 108 341 107 321 107 L321 107 Z " />
<glyph glyph-name="oe" unicode="&#x153;" horiz-adv-x="734" d="M694 226 C694 332 625 411 513 411 C457 411 412 390 377 355 C337 394 282 411 237 411 C150 411 35 351 35 207 C35 37 161 -6 232 -6 L240 -6 C279 -6 333 7 376 47 C409 14 454 -6 514 -6 C593 -6 649 7 668 20 L668 117 C638 112 569 103 548 103 C456 103 444 130 436 162 L694 162 L694 226 Z M236 107 C201 107 153 121 153 205 C153 276 200 298 236 298 C273 298 318 276 318 205 C318 121 271 107 236 107 L236 107 Z M436 246 C437 271 465 298 505 298 C549 298 568 277 576 246 L436 246 Z " />
<glyph glyph-name="Racute" unicode="&#x154;" horiz-adv-x="546" d="M506 398 C506 540 399 590 315 590 L55 590 L55 0 L173 0 L173 196 L274 196 C309 196 335 172 358 108 L394 0 L519 0 L484 104 C460 174 446 202 403 235 C482 256 506 347 506 398 L506 398 Z M173 309 L173 478 L314 478 C350 478 388 463 388 395 C388 311 348 309 314 309 L173 309 Z M306 657 L203 657 L264 800 L386 800 L306 657 Z " />
<glyph glyph-name="racute" unicode="&#x155;" horiz-adv-x="332" d="M317 407 C309 410 292 411 266 411 C252 411 208 411 166 361 L154 405 L50 405 L50 0 L168 0 L168 228 C169 241 173 252 180 263 C192 280 214 298 261 298 C270 298 297 299 317 296 L317 407 Z M153 469 L50 469 L111 612 L233 612 L153 469 Z " />
<glyph glyph-name="uni0156" unicode="&#x156;" horiz-adv-x="546" d="M506 398 C506 540 399 590 315 590 L55 590 L55 0 L173 0 L173 196 L274 196 C309 196 335 172 358 108 L394 0 L519 0 L484 104 C460 174 446 202 403 235 C482 256 506 347 506 398 L506 398 Z M173 309 L173 478 L314 478 C350 478 388 463 388 395 C388 311 348 309 314 309 L173 309 Z M162 -207 L284 -207 L345 -64 L242 -64 L162 -207 Z " />
<glyph glyph-name="uni0157" unicode="&#x157;" horiz-adv-x="332" d="M317 407 C309 410 292 411 266 411 C252 411 208 411 166 361 L154 405 L50 405 L50 0 L168 0 L168 228 C169 241 173 252 180 263 C192 280 214 298 261 298 C270 298 297 299 317 296 L317 407 Z M52 -207 L174 -207 L235 -64 L132 -64 L52 -207 Z " />
<glyph glyph-name="Rcaron" unicode="&#x158;" horiz-adv-x="546" d="M506 398 C506 540 399 590 315 590 L55 590 L55 0 L173 0 L173 196 L274 196 C309 196 335 172 358 108 L394 0 L519 0 L484 104 C460 174 446 202 403 235 C482 256 506 347 506 398 L506 398 Z M173 309 L173 478 L314 478 C350 478 388 463 388 395 C388 311 348 309 314 309 L173 309 Z M192 657 L111 826 L219 826 L254 743 L289 826 L397 826 L316 657 L192 657 Z " />
<glyph glyph-name="rcaron" unicode="&#x159;" horiz-adv-x="332" d="M317 407 C309 410 292 411 266 411 C252 411 208 411 166 361 L154 405 L50 405 L50 0 L168 0 L168 228 C169 241 173 252 180 263 C192 280 214 298 261 298 C270 298 297 299 317 296 L317 407 Z M123 469 L56 638 L164 638 L185 555 L204 638 L312 638 L247 469 L123 469 Z " />
<glyph glyph-name="Sacute" unicode="&#x15a;" horiz-adv-x="517" d="M265 595 C145 595 30 567 30 418 C30 244 369 237 369 164 C369 107 265 107 235 107 C204 107 160 116 121 125 C99 130 76 136 52 143 L52 47 C78 26 149 -6 259 -6 C395 -6 487 46 487 165 C487 349 149 344 149 425 C149 474 225 482 274 482 C301 482 341 477 376 470 C396 467 416 463 436 459 L436 566 C412 577 369 595 265 595 L265 595 Z M306 657 L203 657 L264 800 L386 800 L306 657 Z " />
<glyph glyph-name="sacute" unicode="&#x15b;" horiz-adv-x="401" d="M205 411 C121 411 30 374 30 285 C30 146 258 152 258 119 C258 107 216 107 192 107 L185 107 C162 107 129 111 102 118 C85 121 69 125 53 130 L53 29 C72 16 130 -6 206 -6 C319 -6 379 45 379 129 C379 242 151 261 151 286 C151 297 170 298 222 298 C243 298 272 294 296 291 C310 288 324 286 339 284 L339 386 C320 399 281 411 205 411 L205 411 Z M257 469 L154 469 L215 612 L337 612 L257 469 Z " />
<glyph glyph-name="Scircumflex" unicode="&#x15c;" horiz-adv-x="517" d="M265 595 C145 595 30 567 30 418 C30 244 369 237 369 164 C369 107 265 107 235 107 C204 107 160 116 121 125 C99 130 76 136 52 143 L52 47 C78 26 149 -6 259 -6 C395 -6 487 46 487 165 C487 349 149 344 149 425 C149 474 225 482 274 482 C301 482 341 477 376 470 C396 467 416 463 436 459 L436 566 C412 577 369 595 265 595 L265 595 Z M329 826 L410 657 L302 657 L267 740 L232 657 L124 657 L205 826 L329 826 Z " />
<glyph glyph-name="scircumflex" unicode="&#x15d;" horiz-adv-x="401" d="M205 411 C121 411 30 374 30 285 C30 146 258 152 258 119 C258 107 216 107 192 107 L185 107 C162 107 129 111 102 118 C85 121 69 125 53 130 L53 29 C72 16 130 -6 206 -6 C319 -6 379 45 379 129 C379 242 151 261 151 286 C151 297 170 298 222 298 C243 298 272 294 296 291 C310 288 324 286 339 284 L339 386 C320 399 281 411 205 411 L205 411 Z M261 638 L342 469 L234 469 L199 552 L164 469 L56 469 L137 638 L261 638 Z " />
<glyph glyph-name="Scedilla" unicode="&#x15e;" horiz-adv-x="517" d="M265 595 C145 595 30 567 30 418 C30 244 369 237 369 164 C369 107 265 107 235 107 C204 107 160 116 121 125 C99 130 76 136 52 143 L52 47 C78 26 149 -6 259 -6 C395 -6 487 46 487 165 C487 349 149 344 149 425 C149 474 225 482 274 482 C301 482 341 477 376 470 C396 467 416 463 436 459 L436 566 C412 577 369 595 265 595 L265 595 Z M139 -207 L261 -207 L322 -64 L219 -64 L139 -207 Z " />
<glyph glyph-name="scedilla" unicode="&#x15f;" horiz-adv-x="401" d="M205 411 C121 411 30 374 30 285 C30 146 258 152 258 119 C258 107 216 107 192 107 L185 107 C162 107 129 111 102 118 C85 121 69 125 53 130 L53 29 C72 16 130 -6 206 -6 C319 -6 379 45 379 129 C379 242 151 261 151 286 C151 297 170 298 222 298 C243 298 272 294 296 291 C310 288 324 286 339 284 L339 386 C320 399 281 411 205 411 L205 411 Z M101 -207 L223 -207 L284 -64 L181 -64 L101 -207 Z " />
<glyph glyph-name="Scaron" unicode="&#x160;" horiz-adv-x="517" d="M265 595 C145 595 30 567 30 418 C30 244 369 237 369 164 C369 107 265 107 235 107 C204 107 160 116 121 125 C99 130 76 136 52 143 L52 47 C78 26 149 -6 259 -6 C395 -6 487 46 487 165 C487 349 149 344 149 425 C149 474 225 482 274 482 C301 482 341 477 376 470 C396 467 416 463 436 459 L436 566 C412 577 369 595 265 595 L265 595 Z M186 657 L105 826 L213 826 L248 743 L283 826 L391 826 L310 657 L186 657 Z " />
<glyph glyph-name="scaron" unicode="&#x161;" horiz-adv-x="401" d="M205 411 C121 411 30 374 30 285 C30 146 258 152 258 119 C258 107 216 107 192 107 L185 107 C162 107 129 111 102 118 C85 121 69 125 53 130 L53 29 C72 16 130 -6 206 -6 C319 -6 379 45 379 129 C379 242 151 261 151 286 C151 297 170 298 222 298 C243 298 272 294 296 291 C310 288 324 286 339 284 L339 386 C320 399 281 411 205 411 L205 411 Z M133 469 L52 638 L160 638 L195 555 L230 638 L338 638 L257 469 L133 469 Z " />
<glyph glyph-name="uni0162" unicode="&#x162;" horiz-adv-x="514" d="M30 477 L198 477 L198 0 L316 0 L316 477 L484 477 L484 590 L30 590 L30 477 Z M129 -207 L251 -207 L312 -64 L209 -64 L129 -207 Z " />
<glyph glyph-name="uni0163" unicode="&#x163;" horiz-adv-x="350" d="M75 298 L75 162 C75 78 95 -6 224 -6 C291 -6 308 9 320 21 L320 113 C304 110 282 107 263 107 C218 107 193 110 193 165 L193 298 L320 298 L320 405 L193 405 L193 545 L177 545 C116 484 71 428 10 367 L10 298 L75 298 Z M88 -207 L210 -207 L271 -64 L168 -64 L88 -207 Z " />
<glyph glyph-name="Tcaron" unicode="&#x164;" horiz-adv-x="514" d="M30 477 L198 477 L198 0 L316 0 L316 477 L484 477 L484 590 L30 590 L30 477 Z M195 657 L114 826 L222 826 L257 743 L292 826 L400 826 L319 657 L195 657 Z " />
<glyph glyph-name="tcaron" unicode="&#x165;" horiz-adv-x="427" d="M85 298 L85 162 C85 78 105 -6 234 -6 C301 -6 318 9 330 21 L330 113 C314 110 292 107 273 107 C228 107 203 110 203 165 L203 298 L330 298 L330 405 L203 405 L203 545 L187 545 C126 484 81 428 20 367 L20 298 L85 298 Z M342 447 L239 447 L300 590 L422 590 L342 447 Z " />
<glyph glyph-name="Tbar" unicode="&#x166;" horiz-adv-x="514" d="M421 231 L421 344 L316 344 L316 477 L484 477 L484 590 L30 590 L30 477 L198 477 L198 344 L93 344 L93 231 L198 231 L198 0 L316 0 L316 231 L421 231 Z " />
<glyph glyph-name="tbar" unicode="&#x167;" horiz-adv-x="350" d="M10 159 L75 159 C75 75 96 -6 224 -6 C291 -6 308 9 320 21 L320 113 C304 110 282 107 263 107 C218 107 193 108 193 159 L320 159 L320 266 L193 266 L193 298 L320 298 L320 405 L193 405 L193 545 L177 545 C116 484 71 428 10 367 L10 298 L75 298 L75 266 L10 266 L10 159 Z " />
<glyph glyph-name="Utilde" unicode="&#x168;" horiz-adv-x="590" d="M295 -6 C403 -6 535 36 535 269 L535 590 L417 590 L417 274 C417 142 360 107 295 107 C230 107 173 142 173 274 L173 590 L55 590 L55 269 C55 36 187 -6 295 -6 L295 -6 Z M439 697 C410 674 377 657 345 657 C305 657 275 691 235 691 C218 691 202 686 187 676 L150 760 C179 784 204 796 235 796 C277 796 307 761 347 761 C367 761 382 768 401 780 L439 697 Z " />
<glyph glyph-name="utilde" unicode="&#x169;" horiz-adv-x="468" d="M300 405 L300 159 C295 149 288 140 281 133 C268 120 247 107 218 107 C194 107 163 119 163 158 L163 405 L45 405 L45 123 C45 51 105 -6 177 -6 C205 -6 259 -5 299 43 L307 0 L418 0 L418 405 L300 405 Z M376 509 C347 486 314 469 282 469 C242 469 212 503 172 503 C155 503 139 498 124 488 L87 572 C116 596 141 608 172 608 C214 608 244 573 284 573 C304 573 319 580 338 592 L376 509 Z " />
<glyph glyph-name="Umacron" unicode="&#x16a;" horiz-adv-x="590" d="M295 -6 C403 -6 535 36 535 269 L535 590 L417 590 L417 274 C417 142 360 107 295 107 C230 107 173 142 173 274 L173 590 L55 590 L55 269 C55 36 187 -6 295 -6 L295 -6 Z M446 657 L446 755 L144 755 L144 657 L446 657 Z " />
<glyph glyph-name="umacron" unicode="&#x16b;" horiz-adv-x="468" d="M377 469 L377 567 L75 567 L75 469 L377 469 Z M300 405 L300 159 C295 149 288 140 281 133 C268 120 247 107 218 107 C194 107 163 119 163 158 L163 405 L45 405 L45 123 C45 51 105 -6 177 -6 C205 -6 259 -5 299 43 L307 0 L418 0 L418 405 L300 405 Z " />
<glyph glyph-name="Ubreve" unicode="&#x16c;" horiz-adv-x="590" d="M295 -6 C403 -6 535 36 535 269 L535 590 L417 590 L417 274 C417 142 360 107 295 107 C230 107 173 142 173 274 L173 590 L55 590 L55 269 C55 36 187 -6 295 -6 L295 -6 Z M295 657 C371 657 446 694 454 792 L365 792 C354 747 319 741 295 741 C271 741 237 747 226 792 L138 792 C146 695 220 657 295 657 L295 657 Z " />
<glyph glyph-name="ubreve" unicode="&#x16d;" horiz-adv-x="468" d="M300 405 L300 159 C295 149 288 140 281 133 C268 120 247 107 218 107 C194 107 163 119 163 158 L163 405 L45 405 L45 123 C45 51 105 -6 177 -6 C205 -6 259 -5 299 43 L307 0 L418 0 L418 405 L300 405 Z M229 469 C305 469 380 506 388 604 L299 604 C288 559 253 553 229 553 C205 553 171 559 160 604 L72 604 C80 507 154 469 229 469 L229 469 Z " />
<glyph glyph-name="Uring" unicode="&#x16e;" horiz-adv-x="590" d="M295 -6 C403 -6 535 36 535 269 L535 590 L417 590 L417 274 C417 142 360 107 295 107 C230 107 173 142 173 274 L173 590 L55 590 L55 269 C55 36 187 -6 295 -6 L295 -6 Z M295 735 C275 735 252 749 252 784 C252 813 275 830 295 830 C315 830 338 813 338 784 C338 749 315 735 295 735 L295 735 Z M295 657 C363 657 423 717 423 785 C423 857 363 915 295 915 C227 915 167 857 167 785 C167 717 227 657 295 657 L295 657 Z " />
<glyph glyph-name="uring" unicode="&#x16f;" horiz-adv-x="468" d="M300 405 L300 159 C295 149 288 140 281 133 C268 120 247 107 218 107 C194 107 163 119 163 158 L163 405 L45 405 L45 123 C45 51 105 -6 177 -6 C205 -6 259 -5 299 43 L307 0 L418 0 L418 405 L300 405 Z M231 547 C211 547 188 561 188 596 C188 625 211 642 231 642 C251 642 274 625 274 596 C274 561 251 547 231 547 L231 547 Z M231 469 C299 469 359 529 359 597 C359 669 299 727 231 727 C163 727 103 669 103 597 C103 529 163 469 231 469 L231 469 Z " />
<glyph glyph-name="Uhungarumlaut" unicode="&#x170;" horiz-adv-x="590" d="M295 -6 C403 -6 535 36 535 269 L535 590 L417 590 L417 274 C417 142 360 107 295 107 C230 107 173 142 173 274 L173 590 L55 590 L55 269 C55 36 187 -6 295 -6 L295 -6 Z M428 657 L326 657 L367 803 L483 803 L428 657 Z M266 657 L164 657 L205 803 L321 803 L266 657 Z " />
<glyph glyph-name="uhungarumlaut" unicode="&#x171;" horiz-adv-x="468" d="M300 405 L300 159 C295 149 288 140 281 133 C268 120 247 107 218 107 C194 107 163 119 163 158 L163 405 L45 405 L45 123 C45 51 105 -6 177 -6 C205 -6 259 -5 299 43 L307 0 L418 0 L418 405 L300 405 Z M357 469 L255 469 L296 615 L412 615 L357 469 Z M195 469 L93 469 L134 615 L250 615 L195 469 Z " />
<glyph glyph-name="Uogonek" unicode="&#x172;" horiz-adv-x="590" d="M295 -6 C403 -6 535 36 535 269 L535 590 L417 590 L417 274 C417 142 360 107 295 107 C230 107 173 142 173 274 L173 590 L55 590 L55 269 C55 36 187 -6 295 -6 L295 -6 Z M161 -207 L283 -207 L344 -64 L241 -64 L161 -207 Z " />
<glyph glyph-name="uogonek" unicode="&#x173;" horiz-adv-x="468" d="M300 405 L300 159 C295 149 288 140 281 133 C268 120 247 107 218 107 C194 107 163 119 163 158 L163 405 L45 405 L45 123 C45 51 105 -6 177 -6 C205 -6 259 -5 299 43 L307 0 L418 0 L418 405 L300 405 Z M235 -207 L357 -207 L418 -64 L315 -64 L235 -207 Z " />
<glyph glyph-name="Ydieresis" unicode="&#x178;" horiz-adv-x="574" d="M286 334 L147 590 L10 590 L228 199 L228 0 L346 0 L346 199 L564 590 L427 590 L286 334 Z M151 657 L270 657 L270 757 L151 757 L151 657 Z M306 657 L425 657 L425 757 L306 757 L306 657 Z " />
<glyph glyph-name="Zacute" unicode="&#x179;" horiz-adv-x="502" d="M36 477 L312 477 L35 113 L35 0 L467 0 L467 113 L183 113 L467 486 L467 590 L36 590 L36 477 Z M306 657 L203 657 L264 800 L386 800 L306 657 Z " />
<glyph glyph-name="zacute" unicode="&#x17a;" horiz-adv-x="418" d="M45 298 L218 298 L45 114 L45 0 L373 0 L373 107 L200 107 L373 291 L373 405 L45 405 L45 298 Z M257 469 L154 469 L215 612 L337 612 L257 469 Z " />
<glyph glyph-name="Zdotaccent" unicode="&#x17b;" horiz-adv-x="502" d="M36 477 L312 477 L35 113 L35 0 L467 0 L467 113 L183 113 L467 486 L467 590 L36 590 L36 477 Z M192 657 L311 657 L311 757 L192 757 L192 657 Z " />
<glyph glyph-name="zdotaccent" unicode="&#x17c;" horiz-adv-x="418" d="M45 298 L218 298 L45 114 L45 0 L373 0 L373 107 L200 107 L373 291 L373 405 L45 405 L45 298 Z M150 469 L269 469 L269 569 L150 569 L150 469 Z " />
<glyph glyph-name="Zcaron" unicode="&#x17d;" horiz-adv-x="502" d="M36 477 L312 477 L35 113 L35 0 L467 0 L467 113 L183 113 L467 486 L467 590 L36 590 L36 477 Z M198 657 L117 826 L225 826 L260 743 L295 826 L403 826 L322 657 L198 657 Z " />
<glyph glyph-name="zcaron" unicode="&#x17e;" horiz-adv-x="418" d="M45 298 L218 298 L45 114 L45 0 L373 0 L373 107 L200 107 L373 291 L373 405 L45 405 L45 298 Z M145 469 L64 638 L172 638 L207 555 L242 638 L350 638 L269 469 L145 469 Z " />
<glyph glyph-name="florin" unicode="&#x192;" horiz-adv-x="357" d="M90 -13 C90 -69 87 -85 46 -85 C27 -85 5 -84 -12 -81 C-23 -80 -33 -78 -42 -76 L-42 -175 C-29 -188 -8 -198 60 -198 C190 -198 208 -110 208 -57 L208 298 L337 298 L337 405 L208 405 L208 423 C208 479 229 496 276 496 C284 496 300 494 313 493 C320 492 328 491 337 490 L337 572 C321 583 312 595 242 595 C150 595 90 546 90 410 L90 405 L15 405 L15 298 L90 298 L90 -13 Z " />
<glyph glyph-name="uni0218" unicode="&#x218;" horiz-adv-x="517" d="M265 595 C145 595 30 567 30 418 C30 244 369 237 369 164 C369 107 265 107 235 107 C204 107 160 116 121 125 C99 130 76 136 52 143 L52 47 C78 26 149 -6 259 -6 C395 -6 487 46 487 165 C487 349 149 344 149 425 C149 474 225 482 274 482 C301 482 341 477 376 470 C396 467 416 463 436 459 L436 566 C412 577 369 595 265 595 L265 595 Z M153 -207 L275 -207 L336 -64 L233 -64 L153 -207 Z " />
<glyph glyph-name="uni0219" unicode="&#x219;" horiz-adv-x="401" d="M205 411 C121 411 30 374 30 285 C30 146 258 152 258 119 C258 107 216 107 192 107 L185 107 C162 107 129 111 102 118 C85 121 69 125 53 130 L53 29 C72 16 130 -6 206 -6 C319 -6 379 45 379 129 C379 242 151 261 151 286 C151 297 170 298 222 298 C243 298 272 294 296 291 C310 288 324 286 339 284 L339 386 C320 399 281 411 205 411 L205 411 Z M94 -207 L216 -207 L277 -64 L174 -64 L94 -207 Z " />
<glyph glyph-name="uni021A" unicode="&#x21a;" horiz-adv-x="514" d="M30 477 L198 477 L198 0 L316 0 L316 477 L484 477 L484 590 L30 590 L30 477 Z M129 -207 L251 -207 L312 -64 L209 -64 L129 -207 Z " />
<glyph glyph-name="uni021B" unicode="&#x21b;" horiz-adv-x="350" d="M75 298 L75 162 C75 78 95 -6 224 -6 C291 -6 308 9 320 21 L320 113 C304 110 282 107 263 107 C218 107 193 110 193 165 L193 298 L320 298 L320 405 L193 405 L193 545 L177 545 C116 484 71 428 10 367 L10 298 L75 298 Z M88 -207 L210 -207 L271 -64 L168 -64 L88 -207 Z " />
<glyph glyph-name="circumflex" unicode="&#x2c6;" horiz-adv-x="396" d="M136 590 L55 421 L163 421 L198 504 L233 421 L341 421 L260 590 L136 590 Z " />
<glyph glyph-name="caron" unicode="&#x2c7;" horiz-adv-x="396" d="M260 421 L341 590 L233 590 L198 507 L163 590 L55 590 L136 421 L260 421 Z " />
<glyph glyph-name="breve" unicode="&#x2d8;" horiz-adv-x="426" d="M212 455 C288 455 363 492 371 590 L282 590 C271 545 236 539 212 539 C188 539 154 545 143 590 L55 590 C63 493 137 455 212 455 L212 455 Z " />
<glyph glyph-name="dotaccent" unicode="&#x2d9;" horiz-adv-x="229" d="M55 490 L174 490 L174 590 L55 590 L55 490 Z " />
<glyph glyph-name="ring" unicode="&#x2da;" horiz-adv-x="366" d="M183 415 C163 415 140 429 140 464 C140 493 163 510 183 510 C203 510 226 493 226 464 C226 429 203 415 183 415 L183 415 Z M183 337 C251 337 311 397 311 465 C311 537 251 595 183 595 C115 595 55 537 55 465 C55 397 115 337 183 337 L183 337 Z " />
<glyph glyph-name="ogonek" unicode="&#x2db;" horiz-adv-x="293" d="M55 -149 L177 -149 L238 -6 L135 -6 L55 -149 Z " />
<glyph glyph-name="tilde" unicode="&#x2dc;" horiz-adv-x="399" d="M306 574 C287 562 272 555 252 555 C212 555 182 590 140 590 C109 590 84 578 55 554 L92 470 C107 480 123 485 140 485 C180 485 210 451 250 451 C282 451 315 468 344 491 L306 574 Z " />
<glyph glyph-name="hungarumlaut" unicode="&#x2dd;" horiz-adv-x="429" d="M374 590 L258 590 L217 444 L319 444 L374 590 Z M212 590 L96 590 L55 444 L157 444 L212 590 Z " />
<glyph glyph-name="uni03A9" unicode="&#x3a9;" horiz-adv-x="723" d="M362 595 C234 595 103 517 103 303 L103 219 C103 192 110 153 133 113 L55 113 L55 0 L261 0 L261 112 C229 139 221 166 221 219 L221 300 C221 447 280 482 360 482 L363 482 C443 482 502 447 502 300 L502 219 C502 166 494 139 462 112 L462 0 L668 0 L668 113 L590 113 C613 153 620 192 620 219 L620 303 C620 517 489 595 361 595 L362 595 Z " />
<glyph glyph-name="pi" unicode="&#x3c0;" horiz-adv-x="722" d="M667 411 L55 411 L55 298 L155 298 L155 0 L274 0 L274 298 L448 298 L448 0 L567 0 L567 298 L667 298 L667 411 Z " />
<glyph glyph-name="ZWSP" unicode="&#x200b;" d="" />
<glyph glyph-name="endash" unicode="&#x2013;" horiz-adv-x="441" d="M386 163 L386 276 L55 276 L55 163 L386 163 Z " />
<glyph glyph-name="emdash" unicode="&#x2014;" horiz-adv-x="490" d="M435 163 L435 276 L55 276 L55 163 L435 163 Z " />
<glyph glyph-name="quoteleft" unicode="&#x2018;" horiz-adv-x="296" d="M55 432 L172 432 L241 590 L142 590 L55 432 Z " />
<glyph glyph-name="quoteright" unicode="&#x2019;" horiz-adv-x="296" d="M241 590 L124 590 L55 432 L154 432 L241 590 Z " />
<glyph glyph-name="quotesinglbase" unicode="&#x201a;" horiz-adv-x="296" d="M241 91 L124 91 L55 -67 L154 -67 L241 91 Z " />
<glyph glyph-name="quotedblleft" unicode="&#x201c;" horiz-adv-x="464" d="M55 432 L172 432 L241 590 L142 590 L55 432 Z M223 432 L340 432 L409 590 L310 590 L223 432 Z " />
<glyph glyph-name="quotedblright" unicode="&#x201d;" horiz-adv-x="464" d="M409 590 L292 590 L223 432 L322 432 L409 590 Z M241 590 L124 590 L55 432 L154 432 L241 590 Z " />
<glyph glyph-name="quotedblbase" unicode="&#x201e;" horiz-adv-x="464" d="M409 91 L292 91 L223 -67 L322 -67 L409 91 Z M241 91 L124 91 L55 -67 L154 -67 L241 91 Z " />
<glyph glyph-name="dagger" unicode="&#x2020;" horiz-adv-x="485" d="M55 286 L184 286 L184 -171 L302 -171 L302 286 L430 286 L430 399 L302 399 L302 568 L184 568 L184 399 L55 399 L55 286 Z " />
<glyph glyph-name="daggerdbl" unicode="&#x2021;" horiz-adv-x="485" d="M55 113 L55 0 L184 0 L184 -171 L302 -171 L302 0 L430 0 L430 113 L302 113 L302 286 L430 286 L430 399 L302 399 L302 568 L184 568 L184 399 L55 399 L55 286 L184 286 L184 113 L55 113 Z " />
<glyph glyph-name="bullet" unicode="&#x2022;" horiz-adv-x="235" d="M55 194 C55 161 82 133 117 133 C152 133 180 161 180 194 C180 229 152 257 117 257 C82 257 55 229 55 194 L55 194 Z " />
<glyph glyph-name="ellipsis" unicode="&#x2026;" horiz-adv-x="733" d="M55 -6 L174 -6 L174 94 L55 94 L55 -6 Z M307 -6 L426 -6 L426 94 L307 94 L307 -6 Z M559 -6 L678 -6 L678 94 L559 94 L559 -6 Z " />
<glyph glyph-name="perthousand" unicode="&#x2030;" horiz-adv-x="965" d="M182 0 L307 0 C382 205 451 385 528 590 L401 590 L182 0 Z M164 454 C140 454 134 461 134 484 C134 507 140 516 164 516 C189 516 195 507 195 484 C195 461 189 454 164 454 L164 454 Z M164 595 C87 595 55 556 55 484 C55 408 87 369 164 369 C241 369 273 408 273 484 C273 556 241 595 164 595 L164 595 Z M544 79 C520 79 514 86 514 109 C514 132 520 141 544 141 C569 141 575 132 575 109 C575 86 569 79 544 79 L544 79 Z M544 220 C467 220 435 181 435 109 C435 33 467 -6 544 -6 C621 -6 653 33 653 109 C653 181 621 220 544 220 L544 220 Z M801 79 C777 79 771 86 771 109 C771 132 777 141 801 141 C826 141 832 132 832 109 C832 86 826 79 801 79 L801 79 Z M801 220 C724 220 692 181 692 109 C692 33 724 -6 801 -6 C878 -6 910 33 910 109 C910 181 878 220 801 220 L801 220 Z " />
<glyph glyph-name="guilsinglleft" unicode="&#x2039;" horiz-adv-x="437" d="M382 -6 L382 132 L182 210 L382 288 L382 426 L55 275 L55 145 L382 -6 Z " />
<glyph glyph-name="guilsinglright" unicode="&#x203a;" horiz-adv-x="437" d="M382 145 L382 275 L55 426 L55 288 L255 210 L55 132 L55 -6 L382 145 Z " />
<glyph glyph-name="fraction" unicode="&#x2044;" horiz-adv-x="587" d="M55 -204 L181 -204 C300 112 413 408 532 724 L406 724 L55 -204 Z " />
<glyph glyph-name="Euro" unicode="&#x20ac;" horiz-adv-x="673" d="M550 143 C509 111 466 107 421 107 C378 107 310 119 276 180 L367 180 L367 263 L250 263 C249 275 248 286 248 301 C248 309 248 317 249 325 L367 325 L367 408 L272 408 C304 466 365 482 421 482 C466 482 508 478 549 446 C573 475 592 495 616 526 C560 577 490 595 422 595 C316 595 188 544 145 408 L55 408 L55 325 L131 325 C130 318 130 311 130 304 C130 289 131 276 132 263 L55 263 L55 180 L148 180 C199 31 335 -6 423 -6 C490 -6 562 18 618 66 L550 143 Z " />
<glyph glyph-name="Numero" unicode="&#x2116;" horiz-adv-x="1105" d="M432 0 L555 0 L555 590 L436 590 L436 203 L169 590 L55 590 L55 0 L173 0 L173 380 L432 0 Z M854 154 C926 154 1050 197 1050 367 C1050 511 936 571 851 571 C764 571 649 511 649 367 C649 197 775 154 846 154 L854 154 Z M850 267 C815 267 767 281 767 365 C767 436 814 458 850 458 C887 458 932 436 932 365 C932 281 885 267 850 267 L850 267 Z M1050 0 L1050 99 L649 99 L649 0 L1050 0 Z " />
<glyph glyph-name="trademark" unicode="&#x2122;" horiz-adv-x="773" d="M55 508 L132 508 L132 262 L227 262 L227 508 L305 508 L305 590 L55 590 L55 508 Z M552 311 L622 425 L622 262 L718 262 L718 590 L618 590 L527 432 L436 590 L336 590 L336 262 L432 262 L432 425 L502 311 L552 311 Z " />
<glyph glyph-name="Omega" unicode="&#x2126;" horiz-adv-x="723" d="M362 595 C234 595 103 517 103 303 L103 219 C103 192 110 153 133 113 L55 113 L55 0 L261 0 L261 112 C229 139 221 166 221 219 L221 300 C221 447 280 482 360 482 L363 482 C443 482 502 447 502 300 L502 219 C502 166 494 139 462 112 L462 0 L668 0 L668 113 L590 113 C613 153 620 192 620 219 L620 303 C620 517 489 595 361 595 L362 595 Z " />
<glyph glyph-name="partialdiff" unicode="&#x2202;" horiz-adv-x="506" d="M331 160 C328 149 322 140 315 133 C303 120 284 107 255 107 C233 107 173 126 173 209 C173 280 233 298 255 298 C284 298 303 284 315 271 C322 264 328 255 331 245 L331 160 Z M451 400 C451 571 315 595 243 595 C179 595 126 584 86 551 L120 456 C163 478 216 482 239 482 C272 482 333 481 333 397 L333 369 C293 412 246 411 218 411 C134 411 55 350 55 209 C55 43 147 -6 218 -6 C244 -6 298 -8 335 39 L344 0 L451 0 L451 400 Z " />
<glyph glyph-name="Delta" unicode="&#x2206;" horiz-adv-x="794" d="M399 595 L55 0 L739 0 L399 595 Z M397 353 L536 112 L258 112 L397 353 Z " />
<glyph glyph-name="product" unicode="&#x220f;" horiz-adv-x="722" d="M667 590 L55 590 L55 477 L155 477 L155 0 L274 0 L274 477 L448 477 L448 0 L567 0 L567 477 L667 477 L667 590 Z " />
<glyph glyph-name="summation" unicode="&#x2211;" horiz-adv-x="470" d="M55 65 L55 0 L415 0 L415 113 L204 113 L284 295 L204 477 L415 477 L415 590 L55 590 L55 523 C87 448 124 370 155 295 L55 65 Z " />
<glyph glyph-name="minus" unicode="&#x2212;" horiz-adv-x="441" d="M386 163 L386 276 L55 276 L55 163 L386 163 Z " />
<glyph glyph-name="radical" unicode="&#x221a;" horiz-adv-x="767" d="M330 0 L528 544 L712 544 L712 657 L445 657 L266 134 L180 405 L55 405 L202 0 L330 0 Z " />
<glyph glyph-name="infinity" unicode="&#x221e;" horiz-adv-x="950" d="M474 134 C525 81 592 44 676 44 C785 44 895 104 895 234 C895 355 813 428 676 428 C588 428 540 398 475 323 C410 398 362 428 274 428 C137 428 55 355 55 234 C55 104 165 44 274 44 C358 44 425 81 476 134 L474 134 Z M274 315 C331 315 383 288 430 224 C374 163 333 157 274 157 C222 157 173 185 173 233 C173 300 235 315 274 315 L274 315 Z M676 315 C715 315 777 300 777 233 C777 185 728 157 676 157 C617 157 576 163 520 224 C567 288 619 315 676 315 L676 315 Z " />
<glyph glyph-name="integral" unicode="&#x222b;" horiz-adv-x="492" d="M305 410 C305 466 308 482 349 482 C368 482 387 480 406 477 C416 476 426 474 437 473 L437 572 C423 583 403 595 335 595 C205 595 187 507 187 454 L187 -13 C187 -69 184 -85 143 -85 C124 -85 102 -84 85 -81 C74 -80 64 -78 55 -76 L55 -175 C68 -188 89 -198 157 -198 C287 -198 305 -110 305 -57 L305 410 Z " />
<glyph glyph-name="approxequal" unicode="&#x2248;" horiz-adv-x="399" d="M306 311 C287 299 272 292 252 292 C212 292 182 327 140 327 C109 327 84 315 55 291 L92 207 C107 217 123 222 140 222 C180 222 210 188 250 188 C282 188 315 205 344 228 L306 311 Z M306 153 C287 141 272 134 252 134 C212 134 182 169 140 169 C109 169 84 157 55 133 L92 49 C107 59 123 64 140 64 C180 64 210 30 250 30 C282 30 315 47 344 70 L306 153 Z " />
<glyph glyph-name="notequal" unicode="&#x2260;" horiz-adv-x="410" d="M355 236 L355 349 L308 349 L329 405 L232 405 L211 349 L55 349 L55 236 L169 236 L144 169 L55 169 L55 56 L102 56 L80 0 L177 0 L199 56 L355 56 L355 169 L241 169 L266 236 L355 236 Z " />
<glyph glyph-name="lessequal" unicode="&#x2264;" horiz-adv-x="437" d="M382 0 L382 99 L55 99 L55 0 L382 0 Z M55 268 L382 134 L382 261 L180 331 L382 401 L382 528 L55 394 L55 268 Z " />
<glyph glyph-name="greaterequal" unicode="&#x2265;" horiz-adv-x="437" d="M382 0 L382 99 L55 99 L55 0 L382 0 Z M382 394 L55 528 L55 401 L257 331 L55 261 L55 134 L382 268 L382 394 Z " />
<glyph glyph-name="lozenge" unicode="&#x25ca;" horiz-adv-x="510" d="M263 590 L247 590 L55 299 L55 285 L243 0 L267 0 L455 285 L455 299 L263 590 Z M255 197 L191 293 L255 390 L319 293 L255 197 Z " />
<glyph glyph-name="uni25CC" unicode="&#x25cc;" horiz-adv-x="512" d="" />
<glyph glyph-name="fi" unicode="&#xfb01;" horiz-adv-x="585" d="M276 496 C284 496 300 494 313 493 C320 492 328 491 337 490 L337 572 C321 583 312 595 242 595 C150 595 90 546 90 410 L90 405 L15 405 L15 298 L90 298 L90 0 L208 0 L208 298 L337 298 L337 405 L208 405 L208 423 C208 479 229 496 276 496 L276 496 Z M412 0 L530 0 L530 405 L412 405 L412 0 Z M412 458 L530 458 L530 566 L412 566 L412 458 Z " />
<glyph glyph-name="fl" unicode="&#xfb02;" horiz-adv-x="606" d="M276 496 C284 496 300 494 313 493 C320 492 328 491 337 490 L337 572 C321 583 312 595 242 595 C150 595 90 546 90 410 L90 405 L15 405 L15 298 L90 298 L90 0 L208 0 L208 298 L337 298 L337 405 L208 405 L208 423 C208 479 229 496 276 496 L276 496 Z M530 590 L412 590 L412 113 C412 9 460 -6 504 -6 L509 -6 C528 -6 544 -5 555 -2 C562 -1 567 1 571 2 L571 88 L552 88 C535 88 530 99 530 118 L530 590 Z " />
</font>
</svg>
