<?xml version="1.0" encoding="UTF-8"?>
<svg xmlns="http://www.w3.org/2000/svg" xmlns:xlink="http://www.w3.org/1999/xlink" version="1.2" >
<font id="Betm SemiLight">
<font-face  font-family="Betm" units-per-em="1000" ascent="750" descent="-250" font-style="normal" font-weight="350" font-stretch="normal" cap-height="568" x-height="405" underline-position="-91" underline-thickness="35" />
<missing-glyph  horiz-adv-x="593" d="M551 0 L551 628 L42 628 L42 0 L551 0 Z M88 46 L80 46 C85 45 88 41 88 35 L88 46 Z M505 582 L513 582 C508 582 505 585 505 590 L505 582 Z M505 46 L505 37 C505 42 508 45 513 46 L505 46 Z M88 582 L88 590 C87 585 84 582 80 582 L88 582 Z M88 582 L505 582 L505 46 L88 46 L88 582 Z " />
<glyph glyph-name="space" unicode="&#x20;" horiz-adv-x="199" d="" />
<glyph glyph-name="exclam" unicode="&#x21;" horiz-adv-x="210" d="M78 132 L131 132 L140 227 L140 590 L70 590 L70 227 L78 132 Z M70 29 C70 10 86 -6 105 -6 C124 -6 140 10 140 29 C140 48 124 64 105 64 C86 64 70 48 70 29 L70 29 Z " />
<glyph glyph-name="quotedbl" unicode="&#x22;" horiz-adv-x="319" d="M81 457 L128 457 L139 590 L70 590 L81 457 Z M191 457 L238 457 L249 590 L180 590 L191 457 Z " />
<glyph glyph-name="numbersign" unicode="&#x23;" horiz-adv-x="851" d="M781 410 L781 473 L666 473 L710 590 L635 590 L590 473 L386 473 L430 590 L355 590 L310 473 L150 473 L150 410 L286 410 L201 186 L70 186 L70 123 L176 123 L129 0 L204 0 L252 123 L456 123 L409 0 L485 0 L531 123 L695 123 L695 186 L556 186 L641 410 L781 410 Z M480 186 L276 186 L361 410 L566 410 L480 186 Z " />
<glyph glyph-name="dollar" unicode="&#x24;" horiz-adv-x="584" d="M514 152 C514 329 140 323 140 440 C140 530 241 530 308 530 C327 530 363 525 396 521 C415 518 436 515 457 512 L457 573 C434 584 398 592 326 595 L326 736 L257 736 L257 594 C157 589 70 554 70 440 C70 256 444 271 444 150 C444 77 366 59 289 59 C212 59 131 81 95 92 L95 29 C127 13 184 -1 257 -5 L257 -124 L326 -124 L326 -5 C437 3 514 52 514 152 L514 152 Z " />
<glyph glyph-name="percent" unicode="&#x25;" horiz-adv-x="688" d="M194 0 L270 0 L491 590 L417 590 L194 0 Z M159 465 C140 465 126 475 126 502 C126 529 140 538 159 538 C178 538 192 529 192 502 C192 475 178 465 159 465 L159 465 Z M159 407 C218 407 248 439 248 502 C248 562 215 595 159 595 C103 595 70 562 70 502 C70 439 100 407 159 407 L159 407 Z M529 52 C510 52 496 62 496 89 C496 116 510 125 529 125 C548 125 562 116 562 89 C562 62 548 52 529 52 L529 52 Z M529 -6 C588 -6 618 26 618 89 C618 149 585 182 529 182 C473 182 440 149 440 89 C440 26 470 -6 529 -6 L529 -6 Z " />
<glyph glyph-name="ampersand" unicode="&#x26;" horiz-adv-x="628" d="M323 528 L331 590 L293 590 C212 590 101 567 101 435 C101 399 106 329 162 297 C77 270 70 218 70 157 C70 63 131 -6 283 -6 L299 -6 C448 -6 501 74 501 165 L501 267 L558 267 L558 330 L501 330 L501 409 L431 409 L431 330 L301 330 C253 330 171 330 171 432 C171 511 249 528 301 528 L323 528 Z M280 59 C236 59 140 60 140 160 C140 237 200 267 267 267 L431 267 L431 168 C431 69 351 59 300 59 L280 59 Z " />
<glyph glyph-name="quotesingle" unicode="&#x27;" horiz-adv-x="209" d="M81 457 L128 457 L139 590 L70 590 L81 457 Z " />
<glyph glyph-name="parenleft" unicode="&#x28;" horiz-adv-x="310" d="M70 265 C70 114 105 -49 170 -204 L240 -204 C172 -43 140 115 140 266 C140 418 172 563 240 724 L170 724 C105 567 70 418 70 265 L70 265 Z " />
<glyph glyph-name="parenright" unicode="&#x29;" horiz-adv-x="310" d="M240 265 C240 418 205 567 140 724 L70 724 C138 563 170 418 170 266 C170 115 138 -43 70 -204 L140 -204 C205 -49 240 114 240 265 L240 265 Z " />
<glyph glyph-name="asterisk" unicode="&#x2a;" horiz-adv-x="466" d="M266 590 L200 590 L211 447 L93 503 L70 442 L200 394 L116 298 L166 255 L233 354 L300 255 L350 298 L266 394 L396 442 L373 503 L255 447 L266 590 Z " />
<glyph glyph-name="plus" unicode="&#x2b;" horiz-adv-x="456" d="M263 360 L193 360 L193 240 L70 240 L70 177 L193 177 L193 57 L263 57 L263 177 L386 177 L386 240 L263 240 L263 360 Z " />
<glyph glyph-name="comma" unicode="&#x2c;" horiz-adv-x="136" d="M116 45 L52 45 L20 -95 L69 -95 L116 45 Z " />
<glyph glyph-name="hyphen" unicode="&#x2d;" horiz-adv-x="444" d="M374 179 L374 242 L70 242 L70 179 L374 179 Z " />
<glyph glyph-name="period" unicode="&#x2e;" horiz-adv-x="208" d="M70 -6 L138 -6 L138 59 L70 59 L70 -6 Z " />
<glyph glyph-name="slash" unicode="&#x2f;" horiz-adv-x="564" d="M70 -204 L142 -204 L494 724 L417 724 L70 -204 Z " />
<glyph glyph-name="zero" unicode="0" horiz-adv-x="600" d="M300 59 C213 59 130 100 130 304 C130 471 185 530 300 530 C415 530 470 471 470 304 C470 100 387 59 300 59 L300 59 Z M300 595 C175 595 60 520 60 307 C60 51 197 -6 300 -6 C403 -6 540 51 540 307 C540 520 425 595 300 595 L300 595 Z " />
<glyph glyph-name="one" unicode="1" horiz-adv-x="346" d="M30 447 C85 472 153 500 206 523 L206 0 L276 0 L276 590 L199 590 L30 516 L30 447 Z " />
<glyph glyph-name="two" unicode="2" horiz-adv-x="510" d="M55 0 L452 0 L452 63 L125 63 C125 229 455 275 455 423 C455 563 358 595 242 595 C155 595 111 581 84 566 L84 508 C124 519 188 530 241 530 C313 530 385 509 385 429 C385 332 55 258 55 79 L55 0 Z " />
<glyph glyph-name="three" unicode="3" horiz-adv-x="519" d="M193 330 C188 307 183 292 178 267 L274 267 C326 267 394 250 394 168 C394 75 274 59 230 59 C207 59 165 64 128 71 C106 74 83 78 60 83 L60 23 C95 7 149 -6 238 -6 C388 -6 464 69 464 163 C464 231 452 266 377 298 C429 329 433 401 433 435 C433 567 307 595 230 595 C139 595 92 580 60 567 L60 509 C104 520 167 530 218 530 C266 530 363 509 363 432 C363 330 294 330 243 330 L193 330 Z " />
<glyph glyph-name="four" unicode="4" horiz-adv-x="541" d="M343 0 L413 0 L413 180 L501 180 L501 243 L413 243 L413 590 L300 590 C212 482 124 387 40 279 L40 180 L343 180 L343 0 Z M100 243 L343 530 L343 243 L100 243 Z " />
<glyph glyph-name="five" unicode="5" horiz-adv-x="520" d="M268 359 C248 359 203 360 135 333 L135 527 L424 527 L424 590 L65 590 L65 277 L142 269 C182 290 247 294 273 294 C349 294 405 254 405 182 C405 86 350 59 267 59 C224 59 150 62 136 132 L67 132 C86 11 201 -6 263 -6 L271 -6 C338 -6 475 8 475 184 C475 328 349 359 268 359 L268 359 Z " />
<glyph glyph-name="six" unicode="6" horiz-adv-x="527" d="M280 362 C260 362 181 361 130 313 C130 485 172 530 305 530 C332 530 361 526 385 523 C399 521 413 519 426 517 L426 579 C397 587 347 595 287 595 C140 595 60 524 60 336 L60 177 C60 21 199 -6 267 -6 L278 -6 C345 -6 482 21 482 179 C482 309 383 362 280 362 L280 362 Z M272 57 C228 57 130 68 130 176 C130 272 225 299 272 299 C324 299 412 284 412 176 C412 61 317 57 272 57 L272 57 Z " />
<glyph glyph-name="seven" unicode="7" horiz-adv-x="463" d="M45 526 L358 526 L122 0 L199 0 L433 523 L433 590 L45 590 L45 526 Z " />
<glyph glyph-name="eight" unicode="8" horiz-adv-x="562" d="M281 329 C229 329 154 331 154 431 C154 520 231 530 281 530 C331 530 408 520 408 431 C408 331 333 329 281 329 L281 329 Z M281 59 C239 59 135 71 135 163 C135 262 237 265 281 265 C325 265 427 262 427 163 C427 71 323 59 281 59 L281 59 Z M281 -6 C348 -6 497 17 497 165 C497 214 492 260 428 295 C469 334 478 388 478 431 C478 576 355 595 281 595 C207 595 84 576 84 431 C84 388 92 334 134 295 C70 260 65 214 65 165 C65 17 214 -6 281 -6 L281 -6 Z " />
<glyph glyph-name="nine" unicode="9" horiz-adv-x="527" d="M247 227 C267 227 346 228 397 276 C397 104 355 59 222 59 C195 59 166 62 142 65 C128 67 114 69 101 72 L101 10 C130 2 180 -6 240 -6 C387 -6 467 65 467 253 L467 412 C467 568 328 595 260 595 L249 595 C182 595 45 568 45 410 C45 280 144 227 247 227 L247 227 Z M255 532 C299 532 397 521 397 413 C397 317 302 290 255 290 C203 290 115 305 115 413 C115 528 210 532 255 532 L255 532 Z " />
<glyph glyph-name="colon" unicode="&#x3a;" horiz-adv-x="208" d="M70 -6 L138 -6 L138 59 L70 59 L70 -6 Z M70 300 L138 300 L138 365 L70 365 L70 300 Z " />
<glyph glyph-name="semicolon" unicode="&#x3b;" horiz-adv-x="237" d="M99 300 L167 300 L167 365 L99 365 L99 300 Z M166 45 L102 45 L70 -95 L119 -95 L166 45 Z " />
<glyph glyph-name="less" unicode="&#x3c;" horiz-adv-x="439" d="M369 305 L369 383 L70 244 L70 140 L369 0 L369 77 L125 191 L369 305 Z " />
<glyph glyph-name="equal" unicode="&#x3d;" horiz-adv-x="409" d="M339 219 L339 282 L70 282 L70 219 L339 219 Z M339 59 L339 122 L70 122 L70 59 L339 59 Z " />
<glyph glyph-name="greater" unicode="&#x3e;" horiz-adv-x="439" d="M314 191 L70 77 L70 0 L369 140 L369 244 L70 383 L70 305 L314 191 Z " />
<glyph glyph-name="question" unicode="&#x3f;" horiz-adv-x="510" d="M177 116 L247 116 L247 246 C419 289 440 375 440 435 C440 567 317 595 237 595 C141 595 97 581 70 567 L70 508 C114 519 178 530 229 530 C275 530 370 528 370 432 C370 363 317 331 177 294 L177 116 Z M177 34 C177 15 192 0 211 0 C232 0 247 15 247 34 C247 55 232 70 211 70 C192 70 177 55 177 34 L177 34 Z " />
<glyph glyph-name="at" unicode="&#x40;" horiz-adv-x="726" d="M586 154 C579 136 570 120 558 106 C538 82 507 59 462 59 C426 59 333 60 333 209 C333 335 426 346 462 346 C507 346 538 322 558 298 C570 284 579 268 586 251 L586 154 Z M656 368 C656 585 493 657 361 657 C233 657 70 588 70 371 L70 57 C70 -130 201 -182 320 -198 L320 -135 C227 -124 140 -85 140 82 L140 368 C140 557 257 592 361 592 C462 592 586 552 586 364 L586 347 C533 411 463 411 447 411 C356 411 263 350 263 209 C263 43 361 -6 438 -6 C465 -6 539 -6 585 50 L593 0 L656 0 L656 368 Z " />
<glyph glyph-name="A" unicode="A" horiz-adv-x="598" d="M346 590 L252 590 L30 0 L105 0 L158 144 L440 144 L493 0 L568 0 L346 590 Z M184 208 L299 518 L414 208 L184 208 Z " />
<glyph glyph-name="B" unicode="B" horiz-adv-x="559" d="M140 330 L140 528 L288 528 C340 528 408 511 408 432 C408 332 339 330 288 330 L140 330 Z M140 63 L140 267 L319 267 C371 267 439 250 439 168 C439 69 370 63 319 63 L140 63 Z M318 0 C464 0 509 82 509 157 C509 217 506 270 418 299 C477 339 478 401 478 435 C478 567 377 590 296 590 L70 590 L70 0 L318 0 Z " />
<glyph glyph-name="C" unicode="C" horiz-adv-x="550" d="M339 530 C382 530 431 520 475 497 L510 545 C459 578 397 595 340 595 C193 595 45 525 45 306 C45 51 233 -6 341 -6 C396 -6 458 9 509 45 C498 60 487 77 475 93 C431 69 386 59 339 59 C254 59 115 86 115 303 C115 491 232 530 339 530 L339 530 Z " />
<glyph glyph-name="D" unicode="D" horiz-adv-x="596" d="M541 307 C541 519 385 590 258 590 L70 590 L70 0 L270 0 C377 0 541 59 541 307 L541 307 Z M140 63 L140 528 L260 528 C367 528 471 472 471 304 C471 87 342 63 257 63 L140 63 Z " />
<glyph glyph-name="E" unicode="E" horiz-adv-x="518" d="M458 528 L458 590 L70 590 L70 0 L458 0 L458 63 L140 63 L140 267 L400 267 L400 330 L140 330 L140 528 L458 528 Z " />
<glyph glyph-name="F" unicode="F" horiz-adv-x="513" d="M140 0 L140 267 L400 267 L400 330 L140 330 L140 528 L458 528 L458 590 L70 590 L70 0 L140 0 Z " />
<glyph glyph-name="G" unicode="G" horiz-adv-x="614" d="M339 530 C382 530 431 520 475 497 L510 545 C459 578 397 595 340 595 C193 595 45 525 45 306 C45 51 233 -6 341 -6 C395 -6 490 10 544 64 L544 294 L383 294 L383 229 L474 229 L474 92 C430 69 384 59 339 59 C254 59 115 86 115 303 C115 491 232 530 339 530 L339 530 Z " />
<glyph glyph-name="H" unicode="H" horiz-adv-x="612" d="M472 590 L472 315 L140 315 L140 590 L70 590 L70 0 L140 0 L140 252 L472 252 L472 0 L542 0 L542 590 L472 590 Z " />
<glyph glyph-name="I" unicode="I" horiz-adv-x="210" d="M70 0 L140 0 L140 590 L70 590 L70 0 Z " />
<glyph glyph-name="J" unicode="J" horiz-adv-x="470" d="M330 200 C330 61 220 59 176 59 C145 59 104 59 53 78 L25 29 C76 -6 147 -6 186 -6 C258 -3 400 23 400 195 L400 590 L330 590 L330 200 Z " />
<glyph glyph-name="K" unicode="K" horiz-adv-x="532" d="M227 296 L522 590 L425 590 L140 310 L140 590 L70 590 L70 0 L140 0 L140 285 L425 0 L522 0 L227 296 Z " />
<glyph glyph-name="L" unicode="L" horiz-adv-x="479" d="M140 590 L70 590 L70 0 L434 0 L434 63 L140 63 L140 590 Z " />
<glyph glyph-name="M" unicode="M" horiz-adv-x="694" d="M347 216 L115 590 L70 590 L70 0 L140 0 L140 416 L313 137 L381 137 L554 416 L554 0 L624 0 L624 590 L579 590 L347 216 Z " />
<glyph glyph-name="N" unicode="N" horiz-adv-x="634" d="M473 0 L564 0 L564 590 L494 590 L494 92 L159 590 L70 590 L70 0 L140 0 L140 491 L473 0 Z " />
<glyph glyph-name="O" unicode="O" horiz-adv-x="676" d="M338 59 C254 59 125 88 125 304 C125 492 232 530 338 530 C445 530 552 492 552 304 C552 88 423 59 338 59 L338 59 Z M338 -6 C446 -6 621 51 621 307 C621 520 467 595 338 595 C210 595 55 520 55 307 C55 51 230 -6 338 -6 L338 -6 Z " />
<glyph glyph-name="P" unicode="P" horiz-adv-x="555" d="M65 0 L135 0 L135 199 L345 199 C425 199 520 239 520 401 C520 537 422 590 342 590 L65 590 L65 0 Z M338 526 C393 526 450 504 450 401 C450 282 391 263 338 263 L135 263 L135 526 L338 526 Z " />
<glyph glyph-name="Q" unicode="Q" horiz-adv-x="676" d="M621 307 C621 520 467 595 338 595 C210 595 55 520 55 307 C55 121 149 38 241 9 L379 -175 L455 -175 L330 -6 L338 -6 C446 -6 621 51 621 307 L621 307 Z M125 304 C125 492 232 530 338 530 C445 530 552 492 552 304 C552 88 423 59 338 59 C254 59 125 88 125 304 L125 304 Z " />
<glyph glyph-name="R" unicode="R" horiz-adv-x="558" d="M514 408 C514 544 417 590 338 590 L70 590 L70 0 L140 0 L140 216 L286 216 C339 216 377 183 408 98 L443 0 L516 0 C503 39 496 57 491 74 C470 140 457 181 403 232 C502 259 514 362 514 408 L514 408 Z M140 280 L140 526 L330 526 C386 526 444 511 444 407 C444 283 385 280 330 280 L140 280 Z " />
<glyph glyph-name="S" unicode="S" horiz-adv-x="534" d="M274 595 C158 595 45 570 45 440 C45 256 419 271 419 150 C419 77 341 59 264 59 C187 59 106 81 70 92 L70 29 C107 10 177 -6 268 -6 C396 -6 489 42 489 152 C489 329 115 323 115 440 C115 530 216 530 283 530 C302 530 338 525 371 521 C390 518 411 515 432 512 L432 573 C405 585 363 595 274 595 L274 595 Z " />
<glyph glyph-name="T" unicode="T" horiz-adv-x="532" d="M45 527 L231 527 L231 0 L301 0 L301 527 L487 527 L487 590 L45 590 L45 527 Z " />
<glyph glyph-name="U" unicode="U" horiz-adv-x="614" d="M307 -6 C414 -6 544 35 544 266 L544 590 L474 590 L474 277 C474 104 395 59 307 59 C219 59 140 104 140 277 L140 590 L70 590 L70 266 C70 35 200 -6 307 -6 L307 -6 Z " />
<glyph glyph-name="V" unicode="V" horiz-adv-x="598" d="M299 72 L105 590 L30 590 L252 0 L346 0 L568 590 L493 590 L299 72 Z " />
<glyph glyph-name="W" unicode="W" horiz-adv-x="838" d="M465 590 L373 590 L220 71 L104 590 L35 590 L163 0 L275 0 L419 501 L563 0 L675 0 L803 590 L734 590 L618 71 L465 590 Z " />
<glyph glyph-name="X" unicode="X" horiz-adv-x="516" d="M258 227 L404 0 L489 0 L298 291 L491 590 L405 590 L258 359 L111 590 L25 590 L218 291 L27 0 L112 0 L258 227 Z " />
<glyph glyph-name="Y" unicode="Y" horiz-adv-x="557" d="M313 199 L532 590 L454 590 L278 281 L103 590 L25 590 L244 199 L244 0 L313 0 L313 199 Z " />
<glyph glyph-name="Z" unicode="Z" horiz-adv-x="517" d="M51 525 L391 525 L50 84 L50 0 L467 0 L467 65 L126 65 L467 510 L467 590 L51 590 L51 525 Z " />
<glyph glyph-name="bracketleft" unicode="&#x5b;" horiz-adv-x="332" d="M137 661 L262 661 L262 724 L70 724 L70 -204 L262 -204 L262 -141 L137 -141 L137 661 Z " />
<glyph glyph-name="backslash" unicode="&#x5c;" horiz-adv-x="564" d="M147 724 L70 724 L422 -204 L494 -204 L147 724 Z " />
<glyph glyph-name="bracketright" unicode="&#x5d;" horiz-adv-x="332" d="M195 -141 L70 -141 L70 -204 L262 -204 L262 724 L70 724 L70 661 L195 661 L195 -141 Z " />
<glyph glyph-name="asciicircum" unicode="&#x5e;" horiz-adv-x="437" d="M173 590 C141 525 102 467 70 399 L147 399 L219 534 L293 399 L367 399 C335 466 296 522 264 590 L173 590 Z " />
<glyph glyph-name="underscore" unicode="&#x5f;" horiz-adv-x="444" d="M374 -65 L374 -6 L70 -6 L70 -65 L374 -65 Z " />
<glyph glyph-name="grave" unicode="&#x60;" horiz-adv-x="251" d="M121 459 L181 459 C169 502 158 547 143 590 L70 590 L121 459 Z " />
<glyph glyph-name="a" unicode="a" horiz-adv-x="479" d="M414 247 C410 354 342 411 218 411 C145 411 116 403 87 392 L87 335 C124 342 155 346 178 346 C313 346 344 304 344 244 L344 204 C266 244 228 247 196 247 C83 247 45 189 45 124 C45 4 152 -6 171 -6 L184 -6 C211 -6 296 -5 341 48 L348 0 L414 0 L414 247 Z M344 107 C337 98 328 90 317 83 C297 71 266 59 219 59 C139 59 115 84 115 121 C115 157 130 182 219 182 C258 182 290 171 311 160 C323 153 334 146 344 139 L344 107 Z " />
<glyph glyph-name="b" unicode="b" horiz-adv-x="508" d="M65 0 L128 0 L136 50 C182 -6 255 -6 283 -6 C360 -6 458 43 458 209 C458 350 365 411 274 411 C258 411 188 411 135 347 L135 590 L65 590 L65 0 Z M135 251 C142 268 151 284 163 298 C183 322 214 346 259 346 C295 346 388 335 388 209 C388 60 295 59 259 59 C214 59 183 82 163 106 C151 120 142 136 135 154 L135 251 Z " />
<glyph glyph-name="c" unicode="c" horiz-adv-x="425" d="M360 81 C313 61 282 59 255 59 C203 59 115 85 115 208 C115 318 202 346 255 346 C279 346 313 343 360 324 L390 373 C333 411 280 411 242 411 C162 411 45 351 45 207 C45 40 169 -3 242 -6 C285 -6 338 -6 390 29 L360 81 Z " />
<glyph glyph-name="d" unicode="d" horiz-adv-x="508" d="M443 590 L373 590 L373 347 C320 411 250 411 234 411 C143 411 50 350 50 209 C50 43 148 -6 225 -6 C252 -6 326 -6 372 50 L380 0 L443 0 L443 590 Z M373 154 C366 136 357 120 345 106 C325 82 294 59 249 59 C213 59 120 60 120 209 C120 335 213 346 249 346 C294 346 325 322 345 298 C357 284 366 268 373 251 L373 154 Z " />
<glyph glyph-name="e" unicode="e" horiz-adv-x="475" d="M420 229 C420 332 360 411 236 411 C112 411 50 318 50 203 C50 87 113 -6 252 -6 C316 -6 362 0 391 11 L391 69 C350 64 303 59 283 59 C164 59 138 95 119 176 L420 176 L420 229 Z M120 241 C129 312 164 346 235 346 C296 346 347 326 350 241 L120 241 Z " />
<glyph glyph-name="f" unicode="f" horiz-adv-x="372" d="M337 583 C325 590 303 595 260 595 C172 595 117 540 117 413 L117 405 L30 405 L30 340 L117 340 L117 0 L187 0 L187 340 L336 340 L336 405 L187 405 L187 423 C187 509 216 530 275 530 C296 530 322 529 337 526 L337 583 Z " />
<glyph glyph-name="g" unicode="g" horiz-adv-x="513" d="M448 405 L387 405 L378 346 C325 410 255 411 239 411 C148 411 55 350 55 209 C55 43 153 -6 230 -6 C257 -6 333 -5 378 51 L378 -6 C378 -132 287 -133 235 -133 C208 -133 162 -131 115 -114 C106 -134 103 -147 95 -168 C134 -189 184 -198 240 -198 C312 -198 448 -173 448 -6 L448 405 Z M378 154 C371 136 362 120 350 106 C330 82 299 59 254 59 C218 59 125 60 125 209 C125 335 218 346 254 346 C299 346 330 322 350 298 C362 284 371 268 378 251 L378 154 Z " />
<glyph glyph-name="h" unicode="h" horiz-adv-x="492" d="M135 0 L135 260 C144 276 154 290 167 303 C190 324 221 346 265 346 C306 346 362 325 362 254 L362 0 L432 0 L432 260 C432 353 353 411 286 411 C258 411 186 411 135 344 L135 590 L65 590 L65 0 L135 0 Z " />
<glyph glyph-name="i" unicode="i" horiz-adv-x="210" d="M70 0 L140 0 L140 405 L70 405 L70 0 Z M70 475 L140 475 L140 554 L70 554 L70 475 Z " />
<glyph glyph-name="j" unicode="j" horiz-adv-x="210" d="M70 -10 C70 -101 61 -133 -16 -133 C-25 -133 -42 -132 -57 -131 C-66 -130 -75 -130 -85 -129 L-85 -189 C-70 -194 -50 -198 1 -198 C122 -198 140 -111 140 -60 L140 405 L70 405 L70 -10 Z M70 475 L140 475 L140 554 L70 554 L70 475 Z " />
<glyph glyph-name="k" unicode="k" horiz-adv-x="440" d="M432 0 L220 227 L409 405 L308 405 L135 243 L135 590 L65 590 L65 0 L135 0 L135 217 L337 0 L432 0 Z " />
<glyph glyph-name="l" unicode="l" horiz-adv-x="238" d="M140 590 L70 590 L70 97 C70 4 108 -6 143 -6 L148 -6 C155 -6 163 -6 172 -5 C177 -5 182 -5 188 -4 L188 59 C149 59 140 60 140 102 L140 590 Z " />
<glyph glyph-name="m" unicode="m" horiz-adv-x="721" d="M507 411 C481 411 420 411 374 346 C325 401 289 411 252 411 C234 411 159 411 135 346 L123 405 L65 405 L65 0 L135 0 L135 241 C135 257 137 346 232 346 C272 346 325 325 325 254 L325 0 L395 0 L395 242 C395 284 423 346 495 346 C535 346 591 335 591 247 L591 0 L661 0 L661 254 C661 354 606 411 507 411 L507 411 Z " />
<glyph glyph-name="n" unicode="n" horiz-adv-x="492" d="M135 0 L135 260 C144 276 154 290 167 303 C190 324 221 346 265 346 C306 346 362 325 362 254 L362 0 L432 0 L432 260 C432 353 353 411 286 411 C257 411 187 412 136 345 L126 405 L65 405 L65 0 L135 0 Z " />
<glyph glyph-name="o" unicode="o" horiz-adv-x="502" d="M251 59 C199 59 120 78 120 205 C120 315 195 346 251 346 C307 346 382 315 382 205 C382 78 303 59 251 59 L251 59 Z M251 -6 C326 -6 452 37 452 207 C452 351 339 411 251 411 C163 411 50 351 50 207 C50 37 176 -6 251 -6 L251 -6 Z " />
<glyph glyph-name="p" unicode="p" horiz-adv-x="508" d="M135 51 C180 -5 256 -6 283 -6 C360 -6 458 43 458 209 C458 350 365 411 274 411 C258 411 188 410 135 346 L126 405 L65 405 L65 -198 L135 -198 L135 51 Z M135 251 C142 268 151 284 163 298 C183 322 214 346 259 346 C295 346 388 335 388 209 C388 60 295 59 259 59 C214 59 183 82 163 106 C151 120 142 136 135 154 L135 251 Z " />
<glyph glyph-name="q" unicode="q" horiz-adv-x="508" d="M373 -198 L443 -198 L443 405 L382 405 L373 346 C320 410 250 411 234 411 C143 411 50 350 50 209 C50 43 148 -6 225 -6 C252 -6 328 -5 373 51 L373 -198 Z M373 154 C366 136 357 120 345 106 C325 82 294 59 249 59 C213 59 120 60 120 209 C120 335 213 346 249 346 C294 346 325 322 345 298 C357 284 366 268 373 251 L373 154 Z " />
<glyph glyph-name="r" unicode="r" horiz-adv-x="344" d="M314 411 L285 411 C272 411 176 411 135 346 L126 405 L65 405 L65 0 L135 0 L135 213 C137 238 144 260 155 279 C174 311 210 346 279 346 C287 346 295 346 314 343 L314 411 Z " />
<glyph glyph-name="s" unicode="s" horiz-adv-x="422" d="M214 411 C133 411 45 384 45 303 C45 179 315 179 315 114 C315 70 249 59 207 59 C188 59 152 63 121 70 C103 73 84 76 63 81 L63 21 C91 8 148 -6 212 -6 C325 -6 385 40 385 116 C385 242 115 239 115 304 C115 339 150 346 234 346 C247 346 274 343 297 340 C310 338 324 336 339 335 L339 392 C315 403 274 411 214 411 L214 411 Z " />
<glyph glyph-name="t" unicode="t" horiz-adv-x="364" d="M100 340 L100 156 C100 74 120 -6 240 -6 C288 -6 306 -1 319 7 L319 65 C300 62 283 59 266 59 C194 59 170 66 170 159 L170 340 L319 340 L319 405 L170 405 L170 556 L159 556 L25 368 L25 340 L100 340 Z " />
<glyph glyph-name="u" unicode="u" horiz-adv-x="492" d="M357 405 L357 145 C348 128 338 114 325 102 C302 79 270 59 227 59 C186 59 130 78 130 151 L130 405 L60 405 L60 145 C60 52 139 -6 206 -6 C234 -6 305 -7 356 60 L366 0 L427 0 L427 405 L357 405 Z " />
<glyph glyph-name="v" unicode="v" horiz-adv-x="448" d="M271 0 L423 405 L345 405 L224 59 L103 405 L25 405 L177 0 L271 0 Z " />
<glyph glyph-name="w" unicode="w" horiz-adv-x="656" d="M352 405 L304 405 L197 57 L107 405 L30 405 C69 268 104 137 143 0 L246 0 L328 244 L410 0 L513 0 C552 137 587 268 626 405 L549 405 L459 57 L352 405 Z " />
<glyph glyph-name="x" unicode="x" horiz-adv-x="434" d="M217 149 L317 0 L409 0 L266 203 L409 405 L315 405 L217 261 L119 405 L25 405 L168 203 L25 0 L117 0 L217 149 Z " />
<glyph glyph-name="y" unicode="y" horiz-adv-x="447" d="M156 -73 C135 -132 87 -133 68 -133 C65 -133 52 -132 40 -131 L40 -197 C53 -198 78 -198 94 -198 C135 -198 177 -180 213 -109 L427 405 L341 405 C304 305 258 183 218 84 L115 405 L35 405 C110 185 145 86 180 -13 L156 -73 Z " />
<glyph glyph-name="z" unicode="z" horiz-adv-x="434" d="M60 340 L300 340 L60 85 L60 0 L374 0 L374 65 L138 65 L374 317 L374 405 L60 405 L60 340 Z " />
<glyph glyph-name="braceleft" unicode="&#x7b;" horiz-adv-x="492" d="M214 -64 C214 -109 226 -204 339 -204 C386 -204 407 -199 422 -192 L422 -140 C417 -141 412 -141 407 -141 L386 -141 C313 -141 281 -136 281 -50 L281 90 C281 149 281 226 210 244 C281 268 281 336 281 396 L281 570 C281 656 313 661 386 661 C389 661 399 660 407 660 L422 660 L422 712 C407 719 386 724 339 724 C226 724 214 629 214 584 L214 372 C214 291 143 271 90 271 L70 271 L70 216 L90 216 C143 216 214 196 214 114 L214 -64 Z " />
<glyph glyph-name="bar" unicode="&#x7c;" horiz-adv-x="210" d="M70 -204 L140 -204 L140 725 L70 725 L70 -204 Z " />
<glyph glyph-name="braceright" unicode="&#x7d;" horiz-adv-x="492" d="M278 114 C278 196 349 216 402 216 L422 216 L422 271 L402 271 C349 271 278 291 278 372 L278 584 C278 629 266 724 153 724 C106 724 85 719 70 712 L70 660 L85 660 C93 660 102 661 106 661 C179 661 211 656 211 570 L211 396 C211 336 211 268 282 244 C211 226 211 149 211 90 L211 -50 C211 -136 179 -141 106 -141 L85 -141 C80 -141 75 -141 70 -140 L70 -192 C85 -199 106 -204 153 -204 C266 -204 278 -109 278 -64 L278 114 Z " />
<glyph glyph-name="asciitilde" unicode="&#x7e;" horiz-adv-x="384" d="M295 189 C282 182 267 181 252 181 C206 181 173 218 125 218 C104 218 90 216 70 201 L90 151 C101 155 112 155 125 155 C168 155 204 118 248 118 C268 118 294 124 314 135 L295 189 Z " />
<glyph glyph-name="uni00A0" unicode="&#xa0;" horiz-adv-x="199" d="" />
<glyph glyph-name="exclamdown" unicode="&#xa1;" horiz-adv-x="210" d="M70 357 L70 -6 L140 -6 L140 357 L131 452 L78 452 L70 357 Z M70 555 C70 536 86 520 105 520 C124 520 140 536 140 555 C140 574 124 590 105 590 C86 590 70 574 70 555 L70 555 Z " />
<glyph glyph-name="cent" unicode="&#xa2;" horiz-adv-x="605" d="M500 93 C456 69 411 59 364 59 C279 59 140 86 140 303 C140 491 257 530 364 530 C407 530 456 520 500 497 L535 545 C488 576 435 591 383 594 L383 736 L314 736 L314 592 C186 576 70 500 70 306 C70 90 207 14 314 -2 L314 -124 L383 -124 L383 -6 C434 -3 487 13 534 45 C523 60 512 77 500 93 L500 93 Z " />
<glyph glyph-name="sterling" unicode="&#xa3;" horiz-adv-x="573" d="M209 403 C209 529 300 530 352 530 C379 530 425 528 472 511 C481 531 484 544 492 565 C453 586 403 595 347 595 C275 595 139 570 139 403 L139 312 L70 312 L70 249 L139 249 L139 63 L70 63 L70 0 L503 0 L503 63 L209 63 L209 249 L322 249 L322 312 L209 312 L209 403 Z " />
<glyph glyph-name="currency" unicode="&#xa4;" horiz-adv-x="502" d="M388 208 C388 223 387 247 372 274 L432 328 L398 367 L340 314 C305 338 276 344 251 344 C226 344 197 338 162 314 L104 367 L70 328 L130 274 C115 247 114 223 114 208 C114 193 115 169 130 142 L70 88 L104 49 L162 102 C197 78 226 72 251 72 C276 72 305 78 340 102 L398 49 L432 88 L372 142 C387 169 388 193 388 208 L388 208 Z M172 208 C172 253 208 286 251 286 C294 286 330 253 330 208 C330 163 294 130 251 130 C208 130 172 163 172 208 L172 208 Z " />
<glyph glyph-name="yen" unicode="&#xa5;" horiz-adv-x="647" d="M172 188 L289 188 L289 135 L172 135 L172 72 L289 72 L289 0 L358 0 L358 72 L475 72 L475 135 L358 135 L358 188 L475 188 L475 251 L387 251 L577 590 L499 590 L323 281 L148 590 L70 590 L260 251 L172 251 L172 188 Z " />
<glyph glyph-name="brokenbar" unicode="&#xa6;" horiz-adv-x="210" d="M70 317 L140 317 L140 724 L70 724 L70 317 Z M70 -204 L140 -204 L140 203 L70 203 L70 -204 Z " />
<glyph glyph-name="section" unicode="&#xa7;" horiz-adv-x="499" d="M258 595 C177 595 89 568 89 487 C89 448 115 421 151 398 C104 383 70 354 70 303 C70 179 340 166 340 100 C340 60 274 59 232 59 C213 59 177 63 146 70 C128 73 109 76 88 81 L88 21 C116 8 173 -6 237 -6 C350 -6 410 35 410 112 C410 147 385 171 350 191 C403 209 429 244 429 296 C429 408 159 423 159 488 C159 523 194 530 278 530 C291 530 318 527 341 524 C354 522 368 520 383 519 L383 576 C359 587 318 595 258 595 L258 595 Z M359 284 C359 244 293 243 251 243 C220 243 140 269 140 304 C140 339 198 348 238 348 C274 348 359 330 359 284 L359 284 Z " />
<glyph glyph-name="dieresis" unicode="&#xa8;" horiz-adv-x="349" d="M70 525 L138 525 L138 590 L70 590 L70 525 Z M211 525 L279 525 L279 590 L211 590 L211 525 Z " />
<glyph glyph-name="copyright" unicode="&#xa9;" horiz-adv-x="741" d="M369 596 C205 596 70 462 70 294 C70 130 205 -5 369 -5 C537 -5 671 130 671 294 C671 462 537 596 369 596 L369 596 Z M369 60 C246 60 135 171 135 294 C135 421 246 532 369 532 C496 532 607 421 607 294 C607 171 496 60 369 60 L369 60 Z M467 208 C428 192 405 190 382 190 C339 190 277 202 277 302 C277 392 338 405 382 405 C401 405 430 402 467 387 L492 437 C445 468 402 468 371 468 C306 468 210 418 210 301 C210 165 311 127 371 127 C406 127 449 127 492 156 L467 208 Z " />
<glyph glyph-name="ordfeminine" unicode="&#xaa;" horiz-adv-x="403" d="M333 482 C330 561 279 595 186 595 C139 595 117 591 102 586 L102 540 C119 542 137 543 156 543 C269 543 275 523 275 473 L275 451 C236 470 208 473 171 473 C95 473 70 425 70 379 C70 294 173 286 189 286 C206 286 240 286 275 315 L280 290 L333 290 L333 482 Z M275 383 C275 352 242 339 199 339 C128 339 128 364 128 378 C128 405 139 418 199 418 C272 418 275 396 275 383 L275 383 Z " />
<glyph glyph-name="guillemotleft" unicode="&#xab;" horiz-adv-x="548" d="M144 0 L219 0 L145 193 L218 387 L142 387 C117 319 97 260 70 193 L144 0 Z M403 0 L478 0 L404 193 L477 387 L401 387 C376 319 356 260 329 193 L403 0 Z " />
<glyph glyph-name="logicalnot" unicode="&#xac;" horiz-adv-x="500" d="M360 40 L430 40 L430 221 L70 221 L70 158 L360 158 L360 40 Z " />
<glyph glyph-name="uni00AD" unicode="&#xad;" horiz-adv-x="198" d="" />
<glyph glyph-name="registered" unicode="&#xae;" horiz-adv-x="741" d="M369 596 C205 596 70 462 70 294 C70 130 205 -5 369 -5 C537 -5 671 130 671 294 C671 462 537 596 369 596 L369 596 Z M369 60 C246 60 135 171 135 294 C135 421 246 532 369 532 C496 532 607 421 607 294 C607 171 496 60 369 60 L369 60 Z M491 352 C491 429 432 457 387 457 L248 457 L248 142 L315 142 L315 243 L349 243 C365 243 397 230 408 201 L429 142 L499 142 L478 210 C469 238 462 262 439 275 C472 284 491 317 491 352 L491 352 Z M315 322 L315 394 L391 394 C406 394 424 381 424 360 C424 328 406 322 391 322 L315 322 Z " />
<glyph glyph-name="macron" unicode="&#xaf;" horiz-adv-x="445" d="M375 526 L375 590 L70 590 L70 526 L375 526 Z " />
<glyph glyph-name="degree" unicode="&#xb0;" horiz-adv-x="374" d="M187 420 C159 420 131 440 131 480 C131 519 159 540 187 540 C215 540 243 519 243 480 C243 440 215 420 187 420 L187 420 Z M187 365 C259 365 304 418 304 480 C304 541 259 595 187 595 C115 595 70 541 70 480 C70 418 115 365 187 365 L187 365 Z " />
<glyph glyph-name="plusminus" unicode="&#xb1;" horiz-adv-x="456" d="M263 430 L193 430 L193 310 L70 310 L70 247 L193 247 L193 127 L263 127 L263 247 L386 247 L386 310 L263 310 L263 430 Z M70 0 L386 0 L386 63 L70 63 L70 0 Z " />
<glyph glyph-name="twosuperior" unicode="&#xb2;" horiz-adv-x="352" d="M70 288 L275 288 L275 340 L132 340 C140 361 282 418 282 502 C282 579 229 595 173 595 C133 595 109 592 85 580 L85 531 C108 538 137 543 161 543 C194 543 224 543 224 502 C224 442 70 407 70 335 L70 288 Z " />
<glyph glyph-name="threesuperior" unicode="&#xb3;" horiz-adv-x="342" d="M133 460 C130 443 132 428 129 408 L156 408 C195 408 214 407 214 370 C214 335 183 335 147 335 C112 335 89 338 70 343 L70 291 C90 286 119 283 157 283 C233 283 272 317 272 362 C272 375 272 414 227 433 C268 454 272 483 272 500 C272 584 195 595 154 595 C110 595 87 593 70 586 L70 535 C86 539 105 543 129 543 L137 543 C173 543 214 540 214 500 C214 465 201 460 166 460 L133 460 Z " />
<glyph glyph-name="acute" unicode="&#xb4;" horiz-adv-x="267" d="M197 590 L121 590 L70 470 L137 470 L197 590 Z " />
<glyph glyph-name="mu" unicode="&#xb5;" horiz-adv-x="492" d="M60 -195 L130 -195 L130 17 C153 2 181 -6 206 -6 C234 -6 305 -7 356 60 L366 0 L427 0 L427 405 L357 405 L357 145 C348 128 338 114 325 102 C302 79 270 59 227 59 C186 59 130 78 130 151 L130 405 L60 405 L60 -195 Z " />
<glyph glyph-name="paragraph" unicode="&#xb6;" horiz-adv-x="598" d="M528 590 L212 590 C121 590 70 504 70 440 C70 373 132 304 228 304 L228 0 L298 0 L298 527 L458 527 L458 0 L528 0 L528 590 Z " />
<glyph glyph-name="periodcentered" unicode="&#xb7;" horiz-adv-x="208" d="M70 140 L138 140 L138 205 L70 205 L70 140 Z " />
<glyph glyph-name="cedilla" unicode="&#xb8;" horiz-adv-x="267" d="M70 -126 L146 -126 L197 -6 L130 -6 L70 -126 Z " />
<glyph glyph-name="onesuperior" unicode="&#xb9;" horiz-adv-x="292" d="M70 478 L164 526 L164 290 L222 290 L222 590 L164 590 L70 544 L70 478 Z " />
<glyph glyph-name="ordmasculine" unicode="&#xba;" horiz-adv-x="374" d="M187 420 C159 420 131 440 131 480 C131 519 159 540 187 540 C215 540 243 519 243 480 C243 440 215 420 187 420 L187 420 Z M187 365 C259 365 304 418 304 480 C304 541 259 595 187 595 C115 595 70 541 70 480 C70 418 115 365 187 365 L187 365 Z " />
<glyph glyph-name="guillemotright" unicode="&#xbb;" horiz-adv-x="548" d="M478 193 C451 260 431 319 406 387 L330 387 L403 193 L329 0 L404 0 L478 193 Z M219 193 C192 260 172 319 147 387 L71 387 L144 193 L70 0 L145 0 L219 193 Z " />
<glyph glyph-name="onequarter" unicode="&#xbc;" horiz-adv-x="712" d="M70 478 L164 526 L164 290 L222 290 L222 590 L164 590 L70 544 L70 478 Z M188 0 L245 0 L472 590 L413 590 L188 0 Z M523 0 L581 0 L581 62 L619 62 L619 114 L581 114 L581 319 L490 319 L359 125 L359 62 L523 62 L523 0 Z M421 114 L523 268 L523 114 L421 114 Z " />
<glyph glyph-name="onehalf" unicode="&#xbd;" horiz-adv-x="705" d="M423 0 L628 0 L628 52 L485 52 C493 73 635 130 635 214 C635 291 582 307 526 307 C486 307 462 304 438 292 L438 243 C461 250 490 255 514 255 C547 255 577 255 577 214 C577 154 423 119 423 47 L423 0 Z M70 478 L164 526 L164 290 L222 290 L222 590 L164 590 L70 544 L70 478 Z M188 0 L245 0 L472 590 L413 590 L188 0 Z " />
<glyph glyph-name="threequarters" unicode="&#xbe;" horiz-adv-x="727" d="M133 455 C130 438 132 423 129 403 L156 403 C195 403 214 402 214 365 C214 330 183 330 147 330 C112 330 89 333 70 338 L70 286 C90 281 119 278 157 278 C233 278 272 312 272 357 C272 370 272 409 227 428 C268 449 272 478 272 495 C272 579 195 590 154 590 C110 590 87 588 70 581 L70 530 C86 534 105 538 129 538 L137 538 C173 538 214 535 214 495 C214 460 201 455 166 455 L133 455 Z M212 0 L269 0 L496 590 L437 590 L212 0 Z M561 0 L619 0 L619 62 L657 62 L657 114 L619 114 L619 319 L528 319 L397 125 L397 62 L561 62 L561 0 Z M459 114 L561 268 L561 114 L459 114 Z " />
<glyph glyph-name="questiondown" unicode="&#xbf;" horiz-adv-x="510" d="M333 479 L263 479 L263 349 C91 307 70 219 70 160 C70 28 193 0 273 0 C370 0 411 15 440 28 L440 87 C396 76 332 65 281 65 C235 65 140 67 140 163 C140 232 193 264 333 301 L333 479 Z M333 561 C333 580 318 595 299 595 C278 595 263 580 263 561 C263 540 278 525 299 525 C318 525 333 540 333 561 L333 561 Z " />
<glyph glyph-name="Agrave" unicode="&#xc0;" horiz-adv-x="598" d="M346 590 L252 590 L30 0 L105 0 L158 144 L440 144 L493 0 L568 0 L346 590 Z M184 208 L299 518 L414 208 L184 208 Z M204 777 L280 777 L331 657 L264 657 L204 777 Z " />
<glyph glyph-name="Aacute" unicode="&#xc1;" horiz-adv-x="598" d="M30 0 L105 0 L158 144 L440 144 L493 0 L568 0 L346 590 L252 590 L30 0 Z M184 208 L299 518 L414 208 L184 208 Z M334 657 L267 657 L318 777 L394 777 L334 657 Z " />
<glyph glyph-name="Acircumflex" unicode="&#xc2;" horiz-adv-x="598" d="M30 0 L105 0 L158 144 L440 144 L493 0 L568 0 L346 590 L252 590 L30 0 Z M184 208 L299 518 L414 208 L184 208 Z M333 780 L408 657 L339 657 L299 730 L260 657 L191 657 L266 780 L333 780 Z " />
<glyph glyph-name="Atilde" unicode="&#xc3;" horiz-adv-x="598" d="M30 0 L105 0 L158 144 L440 144 L493 0 L568 0 L346 590 L252 590 L30 0 Z M184 208 L299 518 L414 208 L184 208 Z M421 674 C401 663 375 657 355 657 C311 657 275 694 232 694 C219 694 208 694 197 690 L177 740 C197 755 211 757 232 757 C280 757 313 720 359 720 C374 720 389 721 402 728 L421 674 Z " />
<glyph glyph-name="Adieresis" unicode="&#xc4;" horiz-adv-x="598" d="M30 0 L105 0 L158 144 L440 144 L493 0 L568 0 L346 590 L252 590 L30 0 Z M184 208 L299 518 L414 208 L184 208 Z M195 657 L263 657 L263 722 L195 722 L195 657 Z M336 657 L404 657 L404 722 L336 722 L336 657 Z " />
<glyph glyph-name="Aring" unicode="&#xc5;" horiz-adv-x="598" d="M30 0 L105 0 L158 144 L440 144 L493 0 L568 0 L346 590 L252 590 L30 0 Z M184 208 L299 518 L414 208 L184 208 Z M299 712 C271 712 243 732 243 772 C243 811 271 832 299 832 C327 832 355 811 355 772 C355 732 327 712 299 712 L299 712 Z M299 657 C371 657 416 710 416 772 C416 833 371 887 299 887 C227 887 182 833 182 772 C182 710 227 657 299 657 L299 657 Z " />
<glyph glyph-name="AE" unicode="&#xc6;" horiz-adv-x="992" d="M932 528 L932 590 L502 590 L31 0 L120 0 L235 144 L544 144 L544 0 L932 0 L932 63 L614 63 L614 267 L874 267 L874 330 L614 330 L614 528 L932 528 Z M286 208 L544 530 L544 208 L286 208 Z " />
<glyph glyph-name="Ccedilla" unicode="&#xc7;" horiz-adv-x="550" d="M339 530 C382 530 431 520 475 497 L510 545 C459 578 397 595 340 595 C193 595 45 525 45 306 C45 51 233 -6 341 -6 C396 -6 458 9 509 45 C498 60 487 77 475 93 C431 69 386 59 339 59 C254 59 115 86 115 303 C115 491 232 530 339 530 L339 530 Z M240 -184 L316 -184 L367 -64 L300 -64 L240 -184 Z " />
<glyph glyph-name="Egrave" unicode="&#xc8;" horiz-adv-x="518" d="M458 528 L458 590 L70 590 L70 0 L458 0 L458 63 L140 63 L140 267 L400 267 L400 330 L140 330 L140 528 L458 528 Z M176 777 L252 777 L303 657 L236 657 L176 777 Z " />
<glyph glyph-name="Eacute" unicode="&#xc9;" horiz-adv-x="518" d="M458 528 L458 590 L70 590 L70 0 L458 0 L458 63 L140 63 L140 267 L400 267 L400 330 L140 330 L140 528 L458 528 Z M308 657 L241 657 L292 777 L368 777 L308 657 Z " />
<glyph glyph-name="Ecircumflex" unicode="&#xca;" horiz-adv-x="518" d="M458 528 L458 590 L70 590 L70 0 L458 0 L458 63 L140 63 L140 267 L400 267 L400 330 L140 330 L140 528 L458 528 Z M295 780 L370 657 L301 657 L261 730 L222 657 L153 657 L228 780 L295 780 Z " />
<glyph glyph-name="Edieresis" unicode="&#xcb;" horiz-adv-x="518" d="M458 528 L458 590 L70 590 L70 0 L458 0 L458 63 L140 63 L140 267 L400 267 L400 330 L140 330 L140 528 L458 528 Z M156 657 L224 657 L224 722 L156 722 L156 657 Z M297 657 L365 657 L365 722 L297 722 L297 657 Z " />
<glyph glyph-name="Igrave" unicode="&#xcc;" horiz-adv-x="210" d="M70 0 L140 0 L140 590 L70 590 L70 0 Z M10 777 L86 777 L137 657 L70 657 L10 777 Z " />
<glyph glyph-name="Iacute" unicode="&#xcd;" horiz-adv-x="210" d="M140 590 L70 590 L70 0 L140 0 L140 590 Z M140 657 L73 657 L124 777 L200 777 L140 657 Z " />
<glyph glyph-name="Icircumflex" unicode="&#xce;" horiz-adv-x="210" d="M70 0 L140 0 L140 590 L70 590 L70 0 Z M139 780 L214 657 L145 657 L105 730 L66 657 L-3 657 L72 780 L139 780 Z " />
<glyph glyph-name="Idieresis" unicode="&#xcf;" horiz-adv-x="210" d="M70 0 L140 0 L140 590 L70 590 L70 0 Z M12 657 L80 657 L80 722 L12 722 L12 657 Z M129 657 L197 657 L197 722 L129 722 L129 657 Z " />
<glyph glyph-name="Eth" unicode="&#xd0;" horiz-adv-x="640" d="M585 307 C585 519 429 590 302 590 L114 590 L114 322 L30 322 L30 259 L114 259 L114 0 L314 0 C421 0 585 59 585 307 L585 307 Z M334 259 L334 322 L184 322 L184 528 L304 528 C411 528 515 472 515 304 C515 87 386 63 301 63 L184 63 L184 259 L334 259 Z " />
<glyph glyph-name="Ntilde" unicode="&#xd1;" horiz-adv-x="634" d="M473 0 L564 0 L564 590 L494 590 L494 92 L159 590 L70 590 L70 0 L140 0 L140 491 L473 0 Z M436 674 C416 663 390 657 370 657 C326 657 290 694 247 694 C234 694 223 694 212 690 L192 740 C212 755 226 757 247 757 C295 757 328 720 374 720 C389 720 404 721 417 728 L436 674 Z " />
<glyph glyph-name="Ograve" unicode="&#xd2;" horiz-adv-x="676" d="M338 59 C254 59 125 88 125 304 C125 492 232 530 338 530 C445 530 552 492 552 304 C552 88 423 59 338 59 L338 59 Z M338 -6 C446 -6 621 51 621 307 C621 520 467 595 338 595 C210 595 55 520 55 307 C55 51 230 -6 338 -6 L338 -6 Z M240 777 L316 777 L367 657 L300 657 L240 777 Z " />
<glyph glyph-name="Oacute" unicode="&#xd3;" horiz-adv-x="676" d="M338 59 C253 59 124 88 124 304 C124 492 231 530 338 530 C444 530 551 492 551 304 C551 88 422 59 338 59 L338 59 Z M338 -6 C446 -6 621 51 621 307 C621 520 466 595 338 595 C209 595 55 520 55 307 C55 51 230 -6 338 -6 L338 -6 Z M376 657 L309 657 L360 777 L436 777 L376 657 Z " />
<glyph glyph-name="Ocircumflex" unicode="&#xd4;" horiz-adv-x="676" d="M338 59 C253 59 124 88 124 304 C124 492 231 530 338 530 C444 530 551 492 551 304 C551 88 422 59 338 59 L338 59 Z M338 -6 C446 -6 621 51 621 307 C621 520 466 595 338 595 C209 595 55 520 55 307 C55 51 230 -6 338 -6 L338 -6 Z M372 780 L447 657 L378 657 L338 730 L299 657 L230 657 L305 780 L372 780 Z " />
<glyph glyph-name="Otilde" unicode="&#xd5;" horiz-adv-x="676" d="M338 59 C253 59 124 88 124 304 C124 492 231 530 338 530 C444 530 551 492 551 304 C551 88 422 59 338 59 L338 59 Z M338 -6 C446 -6 621 51 621 307 C621 520 466 595 338 595 C209 595 55 520 55 307 C55 51 230 -6 338 -6 L338 -6 Z M460 674 C440 663 414 657 394 657 C350 657 314 694 271 694 C258 694 247 694 236 690 L216 740 C236 755 250 757 271 757 C319 757 352 720 398 720 C413 720 428 721 441 728 L460 674 Z " />
<glyph glyph-name="Odieresis" unicode="&#xd6;" horiz-adv-x="676" d="M338 59 C253 59 124 88 124 304 C124 492 231 530 338 530 C444 530 551 492 551 304 C551 88 422 59 338 59 L338 59 Z M338 -6 C446 -6 621 51 621 307 C621 520 466 595 338 595 C209 595 55 520 55 307 C55 51 230 -6 338 -6 L338 -6 Z M234 657 L302 657 L302 722 L234 722 L234 657 Z M375 657 L443 657 L443 722 L375 722 L375 657 Z " />
<glyph glyph-name="multiply" unicode="&#xd7;" horiz-adv-x="406" d="M203 130 L253 52 L335 52 L246 192 L336 333 L252 333 L203 254 L154 333 L70 333 L160 192 L71 52 L153 52 L203 130 Z " />
<glyph glyph-name="Oslash" unicode="&#xd8;" horiz-adv-x="676" d="M512 673 L439 673 L407 588 C386 593 363 595 338 595 C210 595 55 520 55 307 C55 145 126 60 206 23 L164 -91 L237 -91 L271 1 C295 -4 318 -6 338 -6 C446 -6 621 51 621 307 C621 447 556 529 473 566 L512 673 Z M338 59 C254 59 125 88 125 304 C125 492 232 530 338 530 C445 530 552 492 552 304 C552 88 423 59 338 59 L338 59 Z " />
<glyph glyph-name="Ugrave" unicode="&#xd9;" horiz-adv-x="614" d="M307 -6 C414 -6 544 35 544 266 L544 590 L474 590 L474 277 C474 104 395 59 307 59 C219 59 140 104 140 277 L140 590 L70 590 L70 266 C70 35 200 -6 307 -6 L307 -6 Z M211 777 L287 777 L338 657 L271 657 L211 777 Z " />
<glyph glyph-name="Uacute" unicode="&#xda;" horiz-adv-x="614" d="M307 -6 C414 -6 544 35 544 266 L544 590 L474 590 L474 277 C474 104 395 59 307 59 C219 59 140 104 140 277 L140 590 L70 590 L70 266 C70 35 200 -6 307 -6 L307 -6 Z M343 657 L276 657 L327 777 L403 777 L343 657 Z " />
<glyph glyph-name="Ucircumflex" unicode="&#xdb;" horiz-adv-x="614" d="M307 -6 C414 -6 544 35 544 266 L544 590 L474 590 L474 277 C474 104 395 59 307 59 C219 59 140 104 140 277 L140 590 L70 590 L70 266 C70 35 200 -6 307 -6 L307 -6 Z M341 780 L416 657 L347 657 L307 730 L268 657 L199 657 L274 780 L341 780 Z " />
<glyph glyph-name="Udieresis" unicode="&#xdc;" horiz-adv-x="614" d="M307 -6 C414 -6 544 35 544 266 L544 590 L474 590 L474 277 C474 104 395 59 307 59 C219 59 140 104 140 277 L140 590 L70 590 L70 266 C70 35 200 -6 307 -6 L307 -6 Z M203 657 L271 657 L271 722 L203 722 L203 657 Z M344 657 L412 657 L412 722 L344 722 L344 657 Z " />
<glyph glyph-name="Yacute" unicode="&#xdd;" horiz-adv-x="557" d="M313 199 L532 590 L454 590 L278 281 L103 590 L25 590 L244 199 L244 0 L313 0 L313 199 Z M186 777 L262 777 L313 657 L246 657 L186 777 Z " />
<glyph glyph-name="Thorn" unicode="&#xde;" horiz-adv-x="555" d="M65 0 L135 0 L135 98 L345 98 C425 98 520 138 520 300 C520 436 422 489 342 489 L135 489 L135 590 L65 590 L65 0 Z M338 425 C393 425 450 403 450 300 C450 181 391 162 338 162 L135 162 L135 425 L338 425 Z " />
<glyph glyph-name="germandbls" unicode="&#xdf;" horiz-adv-x="557" d="M283 595 C175 595 65 585 65 334 L65 0 L135 0 L135 320 C135 504 182 530 281 530 L288 530 C344 530 414 507 414 422 C414 329 339 322 286 322 L236 322 L220 257 L319 257 C372 257 447 257 447 179 C447 75 367 65 315 65 L277 65 L277 0 L313 0 C469 0 517 69 517 165 C517 229 507 271 424 293 C480 347 484 387 484 424 C484 564 384 595 297 595 L283 595 Z " />
<glyph glyph-name="agrave" unicode="&#xe0;" horiz-adv-x="479" d="M414 247 C410 354 342 411 218 411 C145 411 116 403 87 392 L87 335 C124 342 155 346 178 346 C313 346 344 304 344 244 L344 204 C266 244 228 247 196 247 C83 247 45 189 45 124 C45 4 152 -6 171 -6 L184 -6 C211 -6 296 -5 341 48 L348 0 L414 0 L414 247 Z M344 107 C337 98 328 90 317 83 C297 71 266 59 219 59 C139 59 115 84 115 121 C115 157 130 182 219 182 C258 182 290 171 311 160 C323 153 334 146 344 139 L344 107 Z M150 591 L226 591 L277 471 L210 471 L150 591 Z " />
<glyph glyph-name="aacute" unicode="&#xe1;" horiz-adv-x="479" d="M414 247 C410 354 342 411 218 411 C145 411 116 403 87 392 L87 335 C124 342 155 346 178 346 C313 346 344 304 344 244 L344 204 C266 244 228 247 196 247 C83 247 45 189 45 124 C45 4 152 -6 171 -6 L184 -6 C211 -6 296 -5 341 48 L348 0 L414 0 L414 247 Z M344 107 C337 98 328 90 317 83 C297 71 266 59 219 59 C139 59 115 84 115 121 C115 157 130 182 219 182 C258 182 290 171 311 160 C323 153 334 146 344 139 L344 107 Z M258 471 L191 471 L242 591 L318 591 L258 471 Z " />
<glyph glyph-name="acircumflex" unicode="&#xe2;" horiz-adv-x="479" d="M414 247 C410 354 342 411 218 411 C145 411 116 403 87 392 L87 335 C124 342 155 346 178 346 C313 346 344 304 344 244 L344 204 C266 244 228 247 196 247 C83 247 45 189 45 124 C45 4 152 -6 171 -6 L184 -6 C211 -6 296 -5 341 48 L348 0 L414 0 L414 247 Z M344 107 C337 98 328 90 317 83 C297 71 266 59 219 59 C139 59 115 84 115 121 C115 157 130 182 219 182 C258 182 290 171 311 160 C323 153 334 146 344 139 L344 107 Z M279 594 L354 471 L285 471 L245 544 L206 471 L137 471 L212 594 L279 594 Z " />
<glyph glyph-name="atilde" unicode="&#xe3;" horiz-adv-x="479" d="M414 247 C410 354 342 411 218 411 C145 411 116 403 87 392 L87 335 C124 342 155 346 178 346 C313 346 344 304 344 244 L344 204 C266 244 228 247 196 247 C83 247 45 189 45 124 C45 4 152 -6 171 -6 L184 -6 C211 -6 296 -5 341 48 L348 0 L414 0 L414 247 Z M344 107 C337 98 328 90 317 83 C297 71 266 59 219 59 C139 59 115 84 115 121 C115 157 130 182 219 182 C258 182 290 171 311 160 C323 153 334 146 344 139 L344 107 Z M367 488 C347 477 321 471 301 471 C257 471 221 508 178 508 C165 508 154 508 143 504 L123 554 C143 569 157 571 178 571 C226 571 259 534 305 534 C320 534 335 535 348 542 L367 488 Z " />
<glyph glyph-name="adieresis" unicode="&#xe4;" horiz-adv-x="479" d="M414 247 C410 354 342 411 218 411 C145 411 116 403 87 392 L87 335 C124 342 155 346 178 346 C313 346 344 304 344 244 L344 204 C266 244 228 247 196 247 C83 247 45 189 45 124 C45 4 152 -6 171 -6 L184 -6 C211 -6 296 -5 341 48 L348 0 L414 0 L414 247 Z M344 107 C337 98 328 90 317 83 C297 71 266 59 219 59 C139 59 115 84 115 121 C115 157 130 182 219 182 C258 182 290 171 311 160 C323 153 334 146 344 139 L344 107 Z M139 471 L207 471 L207 536 L139 536 L139 471 Z M280 471 L348 471 L348 536 L280 536 L280 471 Z " />
<glyph glyph-name="aring" unicode="&#xe5;" horiz-adv-x="479" d="M414 247 C410 354 342 411 218 411 C145 411 116 403 87 392 L87 335 C124 342 155 346 178 346 C313 346 344 304 344 244 L344 204 C266 244 228 247 196 247 C83 247 45 189 45 124 C45 4 152 -6 171 -6 L184 -6 C211 -6 296 -5 341 48 L348 0 L414 0 L414 247 Z M344 107 C337 98 328 90 317 83 C297 71 266 59 219 59 C139 59 115 84 115 121 C115 157 130 182 219 182 C258 182 290 171 311 160 C323 153 334 146 344 139 L344 107 Z M243 526 C215 526 187 546 187 586 C187 625 215 646 243 646 C271 646 299 625 299 586 C299 546 271 526 243 526 L243 526 Z M243 471 C315 471 360 524 360 586 C360 647 315 701 243 701 C171 701 126 647 126 586 C126 524 171 471 243 471 L243 471 Z " />
<glyph glyph-name="ae" unicode="&#xe6;" horiz-adv-x="769" d="M714 229 C714 332 654 411 530 411 C463 411 415 385 384 342 C352 388 297 411 218 411 C145 411 116 403 87 392 L87 335 C124 342 155 346 178 346 C313 346 344 304 344 244 L344 204 C266 244 228 247 196 247 C83 247 45 189 45 124 C45 -7 168 -6 188 -6 L201 -6 C227 -6 341 -6 384 66 C416 22 470 -6 546 -6 C610 -6 656 0 685 11 L685 69 C644 64 597 59 577 59 C461 59 433 94 414 172 L414 176 L714 176 L714 229 Z M344 107 C337 98 328 90 317 83 C297 71 266 59 219 59 C139 59 115 84 115 121 C115 157 130 182 219 182 C258 182 290 171 311 160 C323 153 334 146 344 139 L344 107 Z M414 241 C423 312 458 346 529 346 C590 346 641 326 644 241 L414 241 Z " />
<glyph glyph-name="ccedilla" unicode="&#xe7;" horiz-adv-x="425" d="M360 81 C313 61 282 59 255 59 C203 59 115 85 115 208 C115 318 202 346 255 346 C279 346 313 343 360 324 L390 373 C333 411 280 411 242 411 C162 411 45 351 45 207 C45 40 169 -3 242 -6 C285 -6 338 -6 390 29 L360 81 Z M158 -184 L234 -184 L285 -64 L218 -64 L158 -184 Z " />
<glyph glyph-name="egrave" unicode="&#xe8;" horiz-adv-x="475" d="M420 229 C420 332 360 411 236 411 C112 411 50 318 50 203 C50 87 113 -6 252 -6 C316 -6 362 0 391 11 L391 69 C350 64 303 59 283 59 C164 59 138 95 119 176 L420 176 L420 229 Z M120 241 C129 312 164 346 235 346 C296 346 347 326 350 241 L120 241 Z M141 591 L217 591 L268 471 L201 471 L141 591 Z " />
<glyph glyph-name="eacute" unicode="&#xe9;" horiz-adv-x="475" d="M420 229 C420 332 360 411 236 411 C112 411 50 318 50 203 C50 87 113 -6 252 -6 C316 -6 362 0 391 11 L391 69 C350 64 303 59 283 59 C164 59 138 95 119 176 L420 176 L420 229 Z M120 241 C129 312 164 346 235 346 C296 346 347 326 350 241 L120 241 Z M272 471 L205 471 L256 591 L332 591 L272 471 Z " />
<glyph glyph-name="ecircumflex" unicode="&#xea;" horiz-adv-x="475" d="M420 229 C420 332 360 411 236 411 C112 411 50 318 50 203 C50 87 113 -6 252 -6 C316 -6 362 0 391 11 L391 69 C350 64 303 59 283 59 C164 59 138 95 119 176 L420 176 L420 229 Z M120 241 C129 312 164 346 235 346 C296 346 347 326 350 241 L120 241 Z M269 594 L344 471 L275 471 L235 544 L196 471 L127 471 L202 594 L269 594 Z " />
<glyph glyph-name="edieresis" unicode="&#xeb;" horiz-adv-x="475" d="M420 229 C420 332 360 411 236 411 C112 411 50 318 50 203 C50 87 113 -6 252 -6 C316 -6 362 0 391 11 L391 69 C350 64 303 59 283 59 C164 59 138 95 119 176 L420 176 L420 229 Z M120 241 C129 312 164 346 235 346 C296 346 347 326 350 241 L120 241 Z M130 471 L198 471 L198 536 L130 536 L130 471 Z M271 471 L339 471 L339 536 L271 536 L271 471 Z " />
<glyph glyph-name="igrave" unicode="&#xec;" horiz-adv-x="210" d="M70 0 L140 0 L140 405 L70 405 L70 0 Z M13 591 L89 591 L140 471 L73 471 L13 591 Z " />
<glyph glyph-name="iacute" unicode="&#xed;" horiz-adv-x="210" d="M140 405 L70 405 L70 0 L140 0 L140 405 Z M137 471 L70 471 L121 591 L197 591 L137 471 Z " />
<glyph glyph-name="icircumflex" unicode="&#xee;" horiz-adv-x="210" d="M70 0 L140 0 L140 405 L70 405 L70 0 Z M139 594 L214 471 L145 471 L105 544 L66 471 L-3 471 L72 594 L139 594 Z " />
<glyph glyph-name="idieresis" unicode="&#xef;" horiz-adv-x="210" d="M70 0 L140 0 L140 405 L70 405 L70 0 Z M12 471 L80 471 L80 536 L12 536 L12 471 Z M129 471 L197 471 L197 536 L129 536 L129 471 Z " />
<glyph glyph-name="eth" unicode="&#xf0;" horiz-adv-x="550" d="M428 669 L383 703 L340 651 C297 656 280 657 257 657 C189 657 160 646 133 635 L133 577 C164 582 191 590 238 590 C253 590 267 591 286 588 L212 501 L254 464 L347 572 C390 545 430 476 430 334 C344 377 288 377 264 377 C172 377 50 333 50 193 C50 22 196 -6 269 -6 L279 -6 C351 -6 500 17 500 188 L500 346 C500 501 448 583 389 623 L428 669 Z M274 59 C227 59 120 70 120 187 C120 302 223 312 274 312 C324 312 430 302 430 187 C430 74 321 59 274 59 L274 59 Z " />
<glyph glyph-name="ntilde" unicode="&#xf1;" horiz-adv-x="492" d="M135 0 L135 260 C144 276 154 290 167 303 C190 324 221 346 265 346 C306 346 362 325 362 254 L362 0 L432 0 L432 260 C432 353 353 411 286 411 C257 411 187 412 136 345 L126 405 L65 405 L65 0 L135 0 Z M376 488 C356 477 330 471 310 471 C266 471 230 508 187 508 C174 508 163 508 152 504 L132 554 C152 569 166 571 187 571 C235 571 268 534 314 534 C329 534 344 535 357 542 L376 488 Z " />
<glyph glyph-name="ograve" unicode="&#xf2;" horiz-adv-x="502" d="M251 59 C199 59 120 78 120 205 C120 315 195 346 251 346 C307 346 382 315 382 205 C382 78 303 59 251 59 L251 59 Z M251 -6 C326 -6 452 37 452 207 C452 351 339 411 251 411 C163 411 50 351 50 207 C50 37 176 -6 251 -6 L251 -6 Z M156 591 L232 591 L283 471 L216 471 L156 591 Z " />
<glyph glyph-name="oacute" unicode="&#xf3;" horiz-adv-x="502" d="M251 59 C199 59 120 78 120 205 C120 315 195 346 251 346 C307 346 382 315 382 205 C382 78 303 59 251 59 L251 59 Z M251 -6 C326 -6 452 37 452 207 C452 351 339 411 251 411 C163 411 50 351 50 207 C50 37 176 -6 251 -6 L251 -6 Z M286 471 L219 471 L270 591 L346 591 L286 471 Z " />
<glyph glyph-name="ocircumflex" unicode="&#xf4;" horiz-adv-x="502" d="M251 59 C199 59 120 78 120 205 C120 315 195 346 251 346 C307 346 382 315 382 205 C382 78 303 59 251 59 L251 59 Z M251 -6 C326 -6 452 37 452 207 C452 351 339 411 251 411 C163 411 50 351 50 207 C50 37 176 -6 251 -6 L251 -6 Z M285 594 L360 471 L291 471 L251 544 L212 471 L143 471 L218 594 L285 594 Z " />
<glyph glyph-name="otilde" unicode="&#xf5;" horiz-adv-x="502" d="M251 59 C199 59 120 78 120 205 C120 315 195 346 251 346 C307 346 382 315 382 205 C382 78 303 59 251 59 L251 59 Z M251 -6 C326 -6 452 37 452 207 C452 351 339 411 251 411 C163 411 50 351 50 207 C50 37 176 -6 251 -6 L251 -6 Z M373 488 C353 477 327 471 307 471 C263 471 227 508 184 508 C171 508 160 508 149 504 L129 554 C149 569 163 571 184 571 C232 571 265 534 311 534 C326 534 341 535 354 542 L373 488 Z " />
<glyph glyph-name="odieresis" unicode="&#xf6;" horiz-adv-x="502" d="M251 59 C199 59 120 78 120 205 C120 315 195 346 251 346 C307 346 382 315 382 205 C382 78 303 59 251 59 L251 59 Z M251 -6 C326 -6 452 37 452 207 C452 351 339 411 251 411 C163 411 50 351 50 207 C50 37 176 -6 251 -6 L251 -6 Z M158 471 L226 471 L226 536 L158 536 L158 471 Z M275 471 L343 471 L343 536 L275 536 L275 471 Z " />
<glyph glyph-name="divide" unicode="&#xf7;" horiz-adv-x="444" d="M374 172 L374 235 L70 235 L70 172 L374 172 Z M184 51 C184 30 200 14 221 14 C242 14 259 30 259 51 C259 72 242 89 221 89 C200 89 184 72 184 51 L184 51 Z M184 356 C184 335 200 318 221 318 C242 318 259 335 259 356 C259 377 242 393 221 393 C200 393 184 377 184 356 L184 356 Z " />
<glyph glyph-name="oslash" unicode="&#xf8;" horiz-adv-x="502" d="M394 497 L321 497 L288 407 C276 410 263 411 251 411 C163 411 50 351 50 207 C50 104 96 48 149 19 L108 -91 L181 -91 L214 -3 C227 -5 239 -6 251 -6 C326 -6 452 37 452 207 C452 298 408 353 353 384 L394 497 Z M251 59 C199 59 120 78 120 205 C120 315 195 346 251 346 C307 346 382 315 382 205 C382 78 303 59 251 59 L251 59 Z " />
<glyph glyph-name="ugrave" unicode="&#xf9;" horiz-adv-x="492" d="M357 405 L357 145 C348 128 338 114 325 102 C302 79 270 59 227 59 C186 59 130 78 130 151 L130 405 L60 405 L60 145 C60 52 139 -6 206 -6 C234 -6 305 -7 356 60 L366 0 L427 0 L427 405 L357 405 Z M156 591 L232 591 L283 471 L216 471 L156 591 Z " />
<glyph glyph-name="uacute" unicode="&#xfa;" horiz-adv-x="492" d="M357 405 L357 145 C348 128 338 114 325 102 C302 79 270 59 227 59 C186 59 130 78 130 151 L130 405 L60 405 L60 145 C60 52 139 -6 206 -6 C234 -6 305 -7 356 60 L366 0 L427 0 L427 405 L357 405 Z M279 471 L212 471 L263 591 L339 591 L279 471 Z " />
<glyph glyph-name="ucircumflex" unicode="&#xfb;" horiz-adv-x="492" d="M357 405 L357 145 C348 128 338 114 325 102 C302 79 270 59 227 59 C186 59 130 78 130 151 L130 405 L60 405 L60 145 C60 52 139 -6 206 -6 C234 -6 305 -7 356 60 L366 0 L427 0 L427 405 L357 405 Z M276 594 L351 471 L282 471 L242 544 L203 471 L134 471 L209 594 L276 594 Z " />
<glyph glyph-name="udieresis" unicode="&#xfc;" horiz-adv-x="492" d="M357 405 L357 145 C348 128 338 114 325 102 C302 79 270 59 227 59 C186 59 130 78 130 151 L130 405 L60 405 L60 145 C60 52 139 -6 206 -6 C234 -6 305 -7 356 60 L366 0 L427 0 L427 405 L357 405 Z M150 471 L218 471 L218 536 L150 536 L150 471 Z M267 471 L335 471 L335 536 L267 536 L267 471 Z " />
<glyph glyph-name="yacute" unicode="&#xfd;" horiz-adv-x="447" d="M156 -73 C135 -132 87 -133 68 -133 C65 -133 52 -132 40 -131 L40 -197 C53 -198 78 -198 94 -198 C135 -198 177 -180 213 -109 L427 405 L341 405 C304 305 258 183 218 84 L115 405 L35 405 C110 185 145 86 180 -13 L156 -73 Z M264 471 L197 471 L248 591 L324 591 L264 471 Z " />
<glyph glyph-name="thorn" unicode="&#xfe;" horiz-adv-x="508" d="M135 51 C180 -5 256 -6 283 -6 C360 -6 458 43 458 209 C458 350 365 411 274 411 C258 411 188 410 135 346 L135 590 L65 590 L65 -198 L135 -198 L135 51 Z M135 251 C142 268 151 284 163 298 C183 322 214 346 259 346 C295 346 388 335 388 209 C388 60 295 59 259 59 C214 59 183 82 163 106 C151 120 142 136 135 154 L135 251 Z " />
<glyph glyph-name="ydieresis" unicode="&#xff;" horiz-adv-x="447" d="M156 -73 C135 -132 87 -133 68 -133 C65 -133 52 -132 40 -131 L40 -197 C53 -198 78 -198 94 -198 C135 -198 177 -180 213 -109 L427 405 L341 405 C304 305 258 183 218 84 L115 405 L35 405 C110 185 145 86 180 -13 L156 -73 Z M135 471 L203 471 L203 536 L135 536 L135 471 Z M252 471 L320 471 L320 536 L252 536 L252 471 Z " />
<glyph glyph-name="Amacron" unicode="&#x100;" horiz-adv-x="598" d="M346 590 L252 590 L30 0 L105 0 L158 144 L440 144 L493 0 L568 0 L346 590 Z M184 208 L299 518 L414 208 L184 208 Z M450 657 L450 721 L145 721 L145 657 L450 657 Z " />
<glyph glyph-name="amacron" unicode="&#x101;" horiz-adv-x="479" d="M414 247 C410 354 342 411 218 411 C145 411 116 403 87 392 L87 335 C124 342 155 346 178 346 C313 346 344 304 344 244 L344 204 C266 244 228 247 196 247 C83 247 45 189 45 124 C45 4 152 -6 171 -6 L184 -6 C211 -6 296 -5 341 48 L348 0 L414 0 L414 247 Z M344 107 C337 98 328 90 317 83 C297 71 266 59 219 59 C139 59 115 84 115 121 C115 157 130 182 219 182 C258 182 290 171 311 160 C323 153 334 146 344 139 L344 107 Z M395 471 L395 535 L90 535 L90 471 L395 471 Z " />
<glyph glyph-name="Abreve" unicode="&#x102;" horiz-adv-x="598" d="M30 0 L105 0 L158 144 L440 144 L493 0 L568 0 L346 590 L252 590 L30 0 Z M184 208 L299 518 L414 208 L184 208 Z M299 657 C354 657 417 678 433 763 L365 763 C352 724 327 716 299 716 C271 716 246 724 233 763 L165 763 C181 678 244 657 299 657 L299 657 Z " />
<glyph glyph-name="abreve" unicode="&#x103;" horiz-adv-x="479" d="M414 247 C410 354 342 411 218 411 C145 411 116 403 87 392 L87 335 C124 342 155 346 178 346 C313 346 344 304 344 244 L344 204 C266 244 228 247 196 247 C83 247 45 189 45 124 C45 4 152 -6 171 -6 L184 -6 C211 -6 296 -5 341 48 L348 0 L414 0 L414 247 Z M344 107 C337 98 328 90 317 83 C297 71 266 59 219 59 C139 59 115 84 115 121 C115 157 130 182 219 182 C258 182 290 171 311 160 C323 153 334 146 344 139 L344 107 Z M250 471 C305 471 368 492 384 577 L316 577 C303 538 278 530 250 530 C222 530 197 538 184 577 L116 577 C132 492 195 471 250 471 L250 471 Z " />
<glyph glyph-name="Aogonek" unicode="&#x104;" horiz-adv-x="598" d="M346 590 L252 590 L30 0 L105 0 L158 144 L440 144 L493 0 L568 0 L346 590 Z M184 208 L299 518 L414 208 L184 208 Z M440 -184 L516 -184 L567 -64 L500 -64 L440 -184 Z " />
<glyph glyph-name="aogonek" unicode="&#x105;" horiz-adv-x="479" d="M414 247 C410 354 342 411 218 411 C145 411 116 403 87 392 L87 335 C124 342 155 346 178 346 C313 346 344 304 344 244 L344 204 C266 244 228 247 196 247 C83 247 45 189 45 124 C45 4 152 -6 171 -6 L184 -6 C211 -6 296 -5 341 48 L348 0 L414 0 L414 247 Z M344 107 C337 98 328 90 317 83 C297 71 266 59 219 59 C139 59 115 84 115 121 C115 157 130 182 219 182 C258 182 290 171 311 160 C323 153 334 146 344 139 L344 107 Z M287 -184 L363 -184 L414 -64 L347 -64 L287 -184 Z " />
<glyph glyph-name="Cacute" unicode="&#x106;" horiz-adv-x="550" d="M339 530 C382 530 431 520 475 497 L510 545 C459 578 397 595 340 595 C193 595 45 525 45 306 C45 51 233 -6 341 -6 C396 -6 458 9 509 45 C498 60 487 77 475 93 C431 69 386 59 339 59 C254 59 115 86 115 303 C115 491 232 530 339 530 L339 530 Z M421 777 L345 777 L294 657 L361 657 L421 777 Z " />
<glyph glyph-name="cacute" unicode="&#x107;" horiz-adv-x="425" d="M360 81 C313 61 282 59 255 59 C203 59 115 85 115 208 C115 318 202 346 255 346 C279 346 313 343 360 324 L390 373 C333 411 280 411 242 411 C162 411 45 351 45 207 C45 40 169 -3 242 -6 C285 -6 338 -6 390 29 L360 81 Z M327 591 L251 591 L200 471 L267 471 L327 591 Z " />
<glyph glyph-name="Ccircumflex" unicode="&#x108;" horiz-adv-x="550" d="M339 530 C382 530 431 520 475 497 L510 545 C459 578 397 595 340 595 C193 595 45 525 45 306 C45 51 233 -6 341 -6 C396 -6 458 9 509 45 C498 60 487 77 475 93 C431 69 386 59 339 59 C254 59 115 86 115 303 C115 491 232 530 339 530 L339 530 Z M303 780 L228 657 L297 657 L336 730 L376 657 L445 657 L370 780 L303 780 Z " />
<glyph glyph-name="ccircumflex" unicode="&#x109;" horiz-adv-x="425" d="M360 81 C313 61 282 59 255 59 C203 59 115 85 115 208 C115 318 202 346 255 346 C279 346 313 343 360 324 L390 373 C333 411 280 411 242 411 C162 411 45 351 45 207 C45 40 169 -3 242 -6 C285 -6 338 -6 390 29 L360 81 Z M208 594 L133 471 L202 471 L241 544 L281 471 L350 471 L275 594 L208 594 Z " />
<glyph glyph-name="Cdotaccent" unicode="&#x10a;" horiz-adv-x="550" d="M339 530 C382 530 431 520 475 497 L510 545 C459 578 397 595 340 595 C193 595 45 525 45 306 C45 51 233 -6 341 -6 C396 -6 458 9 509 45 C498 60 487 77 475 93 C431 69 386 59 339 59 C254 59 115 86 115 303 C115 491 232 530 339 530 L339 530 Z M273 657 L341 657 L341 722 L273 722 L273 657 Z " />
<glyph glyph-name="cdotaccent" unicode="&#x10b;" horiz-adv-x="425" d="M360 81 C313 61 282 59 255 59 C203 59 115 85 115 208 C115 318 202 346 255 346 C279 346 313 343 360 324 L390 373 C333 411 280 411 242 411 C162 411 45 351 45 207 C45 40 169 -3 242 -6 C285 -6 338 -6 390 29 L360 81 Z M206 471 L274 471 L274 536 L206 536 L206 471 Z " />
<glyph glyph-name="Ccaron" unicode="&#x10c;" horiz-adv-x="550" d="M339 530 C382 530 431 520 475 497 L510 545 C459 578 397 595 340 595 C193 595 45 525 45 306 C45 51 233 -6 341 -6 C396 -6 458 9 509 45 C498 60 487 77 475 93 C431 69 386 59 339 59 C254 59 115 86 115 303 C115 491 232 530 339 530 L339 530 Z M366 657 L441 780 L372 780 L332 707 L293 780 L224 780 L299 657 L366 657 Z " />
<glyph glyph-name="ccaron" unicode="&#x10d;" horiz-adv-x="425" d="M360 81 C313 61 282 59 255 59 C203 59 115 85 115 208 C115 318 202 346 255 346 C279 346 313 343 360 324 L390 373 C333 411 280 411 242 411 C162 411 45 351 45 207 C45 40 169 -3 242 -6 C285 -6 338 -6 390 29 L360 81 Z M283 471 L358 594 L289 594 L249 521 L210 594 L141 594 L216 471 L283 471 Z " />
<glyph glyph-name="Dcaron" unicode="&#x10e;" horiz-adv-x="596" d="M541 307 C541 519 385 590 258 590 L70 590 L70 0 L270 0 C377 0 541 59 541 307 L541 307 Z M257 63 L140 63 L140 528 L260 528 C367 528 471 472 471 304 C471 87 342 63 257 63 L257 63 Z M236 657 L161 780 L230 780 L269 707 L309 780 L378 780 L303 657 L236 657 Z " />
<glyph glyph-name="dcaron" unicode="&#x10f;" horiz-adv-x="641" d="M443 590 L373 590 L373 347 C320 411 250 411 234 411 C143 411 50 350 50 209 C50 43 148 -6 225 -6 C252 -6 326 -6 372 50 L380 0 L443 0 L443 590 Z M373 154 C366 136 357 120 345 106 C325 82 294 59 249 59 C213 59 120 60 120 209 C120 335 213 346 249 346 C294 346 325 322 345 298 C357 284 366 268 373 251 L373 154 Z M616 590 L540 590 L489 470 L556 470 L616 590 Z " />
<glyph glyph-name="Dcroat" unicode="&#x110;" horiz-adv-x="640" d="M585 307 C585 519 429 590 302 590 L114 590 L114 322 L30 322 L30 259 L114 259 L114 0 L314 0 C421 0 585 59 585 307 L585 307 Z M334 259 L334 322 L184 322 L184 528 L304 528 C411 528 515 472 515 304 C515 87 386 63 301 63 L184 63 L184 259 L334 259 Z " />
<glyph glyph-name="dcroat" unicode="&#x111;" horiz-adv-x="529" d="M373 481 L373 347 C320 411 250 411 234 411 C143 411 50 350 50 209 C50 43 148 -6 225 -6 C252 -6 326 -6 372 50 L380 0 L443 0 L443 481 L524 481 L524 537 L443 537 L443 590 L373 590 L373 537 L287 537 L287 481 L373 481 Z M373 154 C366 136 357 120 345 106 C325 82 294 59 249 59 C213 59 120 60 120 209 C120 335 213 346 249 346 C294 346 325 322 345 298 C357 284 366 268 373 251 L373 154 Z " />
<glyph glyph-name="Emacron" unicode="&#x112;" horiz-adv-x="518" d="M458 528 L458 590 L70 590 L70 0 L458 0 L458 63 L140 63 L140 267 L400 267 L400 330 L140 330 L140 528 L458 528 Z M415 657 L415 721 L110 721 L110 657 L415 657 Z " />
<glyph glyph-name="emacron" unicode="&#x113;" horiz-adv-x="475" d="M420 229 C420 332 360 411 236 411 C112 411 50 318 50 203 C50 87 113 -6 252 -6 C316 -6 362 0 391 11 L391 69 C350 64 303 59 283 59 C164 59 138 95 119 176 L420 176 L420 229 Z M120 241 C129 312 164 346 235 346 C296 346 347 326 350 241 L120 241 Z M394 471 L394 535 L89 535 L89 471 L394 471 Z " />
<glyph glyph-name="Edotaccent" unicode="&#x116;" horiz-adv-x="518" d="M458 528 L458 590 L70 590 L70 0 L458 0 L458 63 L140 63 L140 267 L400 267 L400 330 L140 330 L140 528 L458 528 Z M237 657 L305 657 L305 722 L237 722 L237 657 Z " />
<glyph glyph-name="edotaccent" unicode="&#x117;" horiz-adv-x="475" d="M420 229 C420 332 360 411 236 411 C112 411 50 318 50 203 C50 87 113 -6 252 -6 C316 -6 362 0 391 11 L391 69 C350 64 303 59 283 59 C164 59 138 95 119 176 L420 176 L420 229 Z M120 241 C129 312 164 346 235 346 C296 346 347 326 350 241 L120 241 Z M200 471 L268 471 L268 536 L200 536 L200 471 Z " />
<glyph glyph-name="Eogonek" unicode="&#x118;" horiz-adv-x="518" d="M458 528 L458 590 L70 590 L70 0 L458 0 L458 63 L140 63 L140 267 L400 267 L400 330 L140 330 L140 528 L458 528 Z M331 -184 L407 -184 L458 -64 L391 -64 L331 -184 Z " />
<glyph glyph-name="eogonek" unicode="&#x119;" horiz-adv-x="475" d="M420 229 C420 332 360 411 236 411 C112 411 50 318 50 203 C50 87 113 -6 252 -6 C316 -6 362 0 391 11 L391 69 C350 64 303 59 283 59 C164 59 138 95 119 176 L420 176 L420 229 Z M120 241 C129 312 164 346 235 346 C296 346 347 326 350 241 L120 241 Z M168 -184 L244 -184 L295 -64 L228 -64 L168 -184 Z " />
<glyph glyph-name="Ecaron" unicode="&#x11a;" horiz-adv-x="518" d="M458 528 L458 590 L70 590 L70 0 L458 0 L458 63 L140 63 L140 267 L400 267 L400 330 L140 330 L140 528 L458 528 Z M235 657 L160 780 L229 780 L268 707 L308 780 L377 780 L302 657 L235 657 Z " />
<glyph glyph-name="ecaron" unicode="&#x11b;" horiz-adv-x="475" d="M420 229 C420 332 360 411 236 411 C112 411 50 318 50 203 C50 87 113 -6 252 -6 C316 -6 362 0 391 11 L391 69 C350 64 303 59 283 59 C164 59 138 95 119 176 L420 176 L420 229 Z M120 241 C129 312 164 346 235 346 C296 346 347 326 350 241 L120 241 Z M205 471 L130 594 L199 594 L238 521 L278 594 L347 594 L272 471 L205 471 Z " />
<glyph glyph-name="Gcircumflex" unicode="&#x11c;" horiz-adv-x="614" d="M339 530 C382 530 431 520 475 497 L510 545 C459 578 397 595 340 595 C193 595 45 525 45 306 C45 51 233 -6 341 -6 C395 -6 490 10 544 64 L544 294 L383 294 L383 229 L474 229 L474 92 C430 69 384 59 339 59 C254 59 115 86 115 303 C115 491 232 530 339 530 L339 530 Z M295 780 L220 657 L289 657 L328 730 L368 657 L437 657 L362 780 L295 780 Z " />
<glyph glyph-name="gcircumflex" unicode="&#x11d;" horiz-adv-x="513" d="M448 405 L387 405 L378 346 C325 410 255 411 239 411 C148 411 55 350 55 209 C55 43 153 -6 230 -6 C257 -6 333 -5 378 51 L378 -6 C378 -132 287 -133 235 -133 C208 -133 162 -131 115 -114 C106 -134 103 -147 95 -168 C134 -189 184 -198 240 -198 C312 -198 448 -173 448 -6 L448 405 Z M378 154 C371 136 362 120 350 106 C330 82 299 59 254 59 C218 59 125 60 125 209 C125 335 218 346 254 346 C299 346 330 322 350 298 C362 284 371 268 378 251 L378 154 Z M291 594 L366 471 L297 471 L257 544 L218 471 L149 471 L224 594 L291 594 Z " />
<glyph glyph-name="Gbreve" unicode="&#x11e;" horiz-adv-x="614" d="M339 530 C382 530 431 520 475 497 L510 545 C459 578 397 595 340 595 C193 595 45 525 45 306 C45 51 233 -6 341 -6 C395 -6 490 10 544 64 L544 294 L383 294 L383 229 L474 229 L474 92 C430 69 384 59 339 59 C254 59 115 86 115 303 C115 491 232 530 339 530 L339 530 Z M328 657 C383 657 446 678 462 763 L394 763 C381 724 356 716 328 716 C300 716 275 724 262 763 L194 763 C210 678 273 657 328 657 L328 657 Z " />
<glyph glyph-name="gbreve" unicode="&#x11f;" horiz-adv-x="513" d="M448 405 L387 405 L378 346 C325 410 255 411 239 411 C148 411 55 350 55 209 C55 43 153 -6 230 -6 C257 -6 333 -5 378 51 L378 -6 C378 -132 287 -133 235 -133 C208 -133 162 -131 115 -114 C106 -134 103 -147 95 -168 C134 -189 184 -198 240 -198 C312 -198 448 -173 448 -6 L448 405 Z M378 154 C371 136 362 120 350 106 C330 82 299 59 254 59 C218 59 125 60 125 209 C125 335 218 346 254 346 C299 346 330 322 350 298 C362 284 371 268 378 251 L378 154 Z M255 471 C310 471 373 492 389 577 L321 577 C308 538 283 530 255 530 C227 530 202 538 189 577 L121 577 C137 492 200 471 255 471 L255 471 Z " />
<glyph glyph-name="Gdotaccent" unicode="&#x120;" horiz-adv-x="614" d="M339 530 C382 530 431 520 475 497 L510 545 C459 578 397 595 340 595 C193 595 45 525 45 306 C45 51 233 -6 341 -6 C395 -6 490 10 544 64 L544 294 L383 294 L383 229 L474 229 L474 92 C430 69 384 59 339 59 C254 59 115 86 115 303 C115 491 232 530 339 530 L339 530 Z M289 657 L357 657 L357 722 L289 722 L289 657 Z " />
<glyph glyph-name="gdotaccent" unicode="&#x121;" horiz-adv-x="513" d="M448 405 L387 405 L378 346 C325 410 255 411 239 411 C148 411 55 350 55 209 C55 43 153 -6 230 -6 C257 -6 333 -5 378 51 L378 -6 C378 -132 287 -133 235 -133 C208 -133 162 -131 115 -114 C106 -134 103 -147 95 -168 C134 -189 184 -198 240 -198 C312 -198 448 -173 448 -6 L448 405 Z M378 154 C371 136 362 120 350 106 C330 82 299 59 254 59 C218 59 125 60 125 209 C125 335 218 346 254 346 C299 346 330 322 350 298 C362 284 371 268 378 251 L378 154 Z M213 471 L281 471 L281 536 L213 536 L213 471 Z " />
<glyph glyph-name="uni0122" unicode="&#x122;" horiz-adv-x="614" d="M339 530 C382 530 431 520 475 497 L510 545 C459 578 397 595 340 595 C193 595 45 525 45 306 C45 51 233 -6 341 -6 C395 -6 490 10 544 64 L544 294 L383 294 L383 229 L474 229 L474 92 C430 69 384 59 339 59 C254 59 115 86 115 303 C115 491 232 530 339 530 L339 530 Z M241 -184 L317 -184 L368 -64 L301 -64 L241 -184 Z " />
<glyph glyph-name="uni0123" unicode="&#x123;" horiz-adv-x="513" d="M448 405 L387 405 L378 346 C325 410 255 411 239 411 C148 411 55 350 55 209 C55 43 153 -6 230 -6 C257 -6 333 -5 378 51 L378 -6 C378 -132 287 -133 235 -133 C208 -133 162 -131 115 -114 C106 -134 103 -147 95 -168 C134 -189 184 -198 240 -198 C312 -198 448 -173 448 -6 L448 405 Z M378 154 C371 136 362 120 350 106 C330 82 299 59 254 59 C218 59 125 60 125 209 C125 335 218 346 254 346 C299 346 330 322 350 298 C362 284 371 268 378 251 L378 154 Z M289 470 L222 470 L273 590 L349 590 L289 470 Z " />
<glyph glyph-name="Hcircumflex" unicode="&#x124;" horiz-adv-x="612" d="M472 590 L472 315 L140 315 L140 590 L70 590 L70 0 L140 0 L140 252 L472 252 L472 0 L542 0 L542 590 L472 590 Z M340 780 L415 657 L346 657 L306 730 L267 657 L198 657 L273 780 L340 780 Z " />
<glyph glyph-name="hcircumflex" unicode="&#x125;" horiz-adv-x="492" d="M135 0 L135 260 C144 276 154 290 167 303 C190 324 221 346 265 346 C306 346 362 325 362 254 L362 0 L432 0 L432 260 C432 353 353 411 286 411 C258 411 186 411 135 344 L135 590 L65 590 L65 0 L135 0 Z M207 780 L282 657 L213 657 L173 730 L134 657 L65 657 L140 780 L207 780 Z " />
<glyph glyph-name="Hbar" unicode="&#x126;" horiz-adv-x="638" d="M618 478 L618 541 L555 541 L555 590 L485 590 L485 541 L153 541 L153 590 L83 590 L83 541 L20 541 L20 478 L83 478 L83 0 L153 0 L153 252 L485 252 L485 0 L555 0 L555 478 L618 478 Z M153 315 L153 478 L485 478 L485 315 L153 315 Z " />
<glyph glyph-name="hbar" unicode="&#x127;" horiz-adv-x="513" d="M156 481 L242 481 L242 537 L156 537 L156 590 L86 590 L86 537 L5 537 L5 481 L86 481 L86 0 L156 0 L156 260 C165 276 175 290 188 303 C211 324 242 346 286 346 C327 346 383 325 383 254 L383 0 L453 0 L453 260 C453 353 374 411 307 411 C279 411 207 411 156 344 L156 481 Z " />
<glyph glyph-name="Itilde" unicode="&#x128;" horiz-adv-x="210" d="M227 674 C207 663 181 657 161 657 C117 657 81 694 38 694 C25 694 14 694 3 690 L-17 740 C3 755 17 757 38 757 C86 757 119 720 165 720 C180 720 195 721 208 728 L227 674 Z M140 590 L70 590 L70 0 L140 0 L140 590 Z " />
<glyph glyph-name="itilde" unicode="&#x129;" horiz-adv-x="210" d="M70 0 L140 0 L140 405 L70 405 L70 0 Z M227 488 C207 477 181 471 161 471 C117 471 81 508 38 508 C25 508 14 508 3 504 L-17 554 C3 569 17 571 38 571 C86 571 119 534 165 534 C180 534 195 535 208 542 L227 488 Z " />
<glyph glyph-name="Imacron" unicode="&#x12a;" horiz-adv-x="210" d="M70 0 L140 0 L140 590 L70 590 L70 0 Z M199 657 L199 721 L12 721 L12 657 L199 657 Z " />
<glyph glyph-name="imacron" unicode="&#x12b;" horiz-adv-x="210" d="M70 0 L140 0 L140 405 L70 405 L70 0 Z M199 471 L199 535 L12 535 L12 471 L199 471 Z " />
<glyph glyph-name="Iogonek" unicode="&#x12e;" horiz-adv-x="210" d="M70 0 L140 0 L140 590 L70 590 L70 0 Z M13 -184 L89 -184 L140 -64 L73 -64 L13 -184 Z " />
<glyph glyph-name="iogonek" unicode="&#x12f;" horiz-adv-x="210" d="M70 0 L140 0 L140 405 L70 405 L70 0 Z M70 475 L140 475 L140 554 L70 554 L70 475 Z M14 -184 L90 -184 L141 -64 L74 -64 L14 -184 Z " />
<glyph glyph-name="Idotaccent" unicode="&#x130;" horiz-adv-x="210" d="M70 0 L140 0 L140 590 L70 590 L70 0 Z M70 657 L140 657 L140 736 L70 736 L70 657 Z " />
<glyph glyph-name="dotlessi" unicode="&#x131;" horiz-adv-x="210" d="M70 0 L140 0 L140 405 L70 405 L70 0 Z " />
<glyph glyph-name="Jcircumflex" unicode="&#x134;" horiz-adv-x="470" d="M330 200 C330 61 220 59 176 59 C145 59 104 59 53 78 L25 29 C76 -6 147 -6 186 -6 C258 -3 400 23 400 195 L400 590 L330 590 L330 200 Z M325 780 L400 657 L331 657 L291 730 L252 657 L183 657 L258 780 L325 780 Z " />
<glyph glyph-name="jcircumflex" unicode="&#x135;" horiz-adv-x="210" d="M70 -10 C70 -101 61 -133 -16 -133 C-25 -133 -42 -132 -57 -131 C-66 -130 -75 -130 -85 -129 L-85 -189 C-70 -194 -50 -198 1 -198 C122 -198 140 -111 140 -60 L140 405 L70 405 L70 -10 Z M139 594 L214 471 L145 471 L105 544 L66 471 L-3 471 L72 594 L139 594 Z " />
<glyph glyph-name="uni0136" unicode="&#x136;" horiz-adv-x="532" d="M227 296 L522 590 L425 590 L140 310 L140 590 L70 590 L70 0 L140 0 L140 285 L425 0 L522 0 L227 296 Z M190 -184 L266 -184 L317 -64 L250 -64 L190 -184 Z " />
<glyph glyph-name="uni0137" unicode="&#x137;" horiz-adv-x="440" d="M432 0 L220 227 L409 405 L308 405 L135 243 L135 590 L65 590 L65 0 L135 0 L135 217 L337 0 L432 0 Z M153 -184 L229 -184 L280 -64 L213 -64 L153 -184 Z " />
<glyph glyph-name="kgreenlandic" unicode="&#x138;" horiz-adv-x="440" d="M432 0 L220 227 L409 405 L308 405 L135 243 L135 405 L65 405 L65 0 L135 0 L135 217 L337 0 L432 0 Z " />
<glyph glyph-name="Lacute" unicode="&#x139;" horiz-adv-x="479" d="M140 590 L70 590 L70 0 L434 0 L434 63 L140 63 L140 590 Z M137 657 L70 657 L121 777 L197 777 L137 657 Z " />
<glyph glyph-name="lacute" unicode="&#x13a;" horiz-adv-x="210" d="M140 590 L70 590 L70 0 L140 0 L140 590 Z M140 657 L73 657 L124 777 L200 777 L140 657 Z " />
<glyph glyph-name="uni013B" unicode="&#x13b;" horiz-adv-x="479" d="M140 590 L70 590 L70 0 L434 0 L434 63 L140 63 L140 590 Z M181 -184 L257 -184 L308 -64 L241 -64 L181 -184 Z " />
<glyph glyph-name="uni013C" unicode="&#x13c;" horiz-adv-x="210" d="M70 0 L140 0 L140 590 L70 590 L70 0 Z M13 -184 L89 -184 L140 -64 L73 -64 L13 -184 Z " />
<glyph glyph-name="Lcaron" unicode="&#x13d;" horiz-adv-x="479" d="M140 590 L70 590 L70 0 L434 0 L434 63 L140 63 L140 590 Z M384 590 L308 590 L257 470 L324 470 L384 590 Z " />
<glyph glyph-name="lcaron" unicode="&#x13e;" horiz-adv-x="338" d="M70 0 L140 0 L140 590 L70 590 L70 0 Z M313 590 L237 590 L186 470 L253 470 L313 590 Z " />
<glyph glyph-name="Lslash" unicode="&#x141;" horiz-adv-x="539" d="M309 348 L309 417 L200 381 L200 590 L130 590 L130 357 L30 324 L30 256 L130 289 L130 0 L494 0 L494 63 L200 63 L200 312 L309 348 Z " />
<glyph glyph-name="lslash" unicode="&#x142;" horiz-adv-x="358" d="M328 373 L328 441 L209 402 L209 590 L139 590 L139 380 L30 345 L30 275 L139 311 L139 0 L209 0 L209 334 L328 373 Z " />
<glyph glyph-name="Nacute" unicode="&#x143;" horiz-adv-x="634" d="M473 0 L564 0 L564 590 L494 590 L494 92 L159 590 L70 590 L70 0 L140 0 L140 491 L473 0 Z M367 657 L300 657 L351 777 L427 777 L367 657 Z " />
<glyph glyph-name="nacute" unicode="&#x144;" horiz-adv-x="492" d="M135 0 L135 260 C144 276 154 290 167 303 C190 324 221 346 265 346 C306 346 362 325 362 254 L362 0 L432 0 L432 260 C432 353 353 411 286 411 C257 411 187 412 136 345 L126 405 L65 405 L65 0 L135 0 Z M288 471 L221 471 L272 591 L348 591 L288 471 Z " />
<glyph glyph-name="uni0145" unicode="&#x145;" horiz-adv-x="634" d="M473 0 L564 0 L564 590 L494 590 L494 92 L159 590 L70 590 L70 0 L140 0 L140 491 L473 0 Z M236 -184 L312 -184 L363 -64 L296 -64 L236 -184 Z " />
<glyph glyph-name="uni0146" unicode="&#x146;" horiz-adv-x="492" d="M135 0 L135 260 C144 276 154 290 167 303 C190 324 221 346 265 346 C306 346 362 325 362 254 L362 0 L432 0 L432 260 C432 353 353 411 286 411 C257 411 187 412 136 345 L126 405 L65 405 L65 0 L135 0 Z M167 -184 L243 -184 L294 -64 L227 -64 L167 -184 Z " />
<glyph glyph-name="Ncaron" unicode="&#x147;" horiz-adv-x="634" d="M473 0 L564 0 L564 590 L494 590 L494 92 L159 590 L70 590 L70 0 L140 0 L140 491 L473 0 Z M287 657 L212 780 L281 780 L320 707 L360 780 L429 780 L354 657 L287 657 Z " />
<glyph glyph-name="ncaron" unicode="&#x148;" horiz-adv-x="492" d="M135 0 L135 260 C144 276 154 290 167 303 C190 324 221 346 265 346 C306 346 362 325 362 254 L362 0 L432 0 L432 260 C432 353 353 411 286 411 C257 411 187 412 136 345 L126 405 L65 405 L65 0 L135 0 Z M226 471 L151 594 L220 594 L259 521 L299 594 L368 594 L293 471 L226 471 Z " />
<glyph glyph-name="Eng" unicode="&#x14a;" horiz-adv-x="634" d="M564 590 L494 590 L494 92 L159 590 L70 590 L70 0 L140 0 L140 491 L494 -31 C491 -106 480 -133 408 -133 C399 -133 382 -132 367 -131 C358 -130 349 -130 339 -129 L339 -189 C354 -194 374 -198 425 -198 C546 -198 564 -111 564 -60 L564 590 Z " />
<glyph glyph-name="eng" unicode="&#x14b;" horiz-adv-x="492" d="M362 -10 C362 -101 353 -133 276 -133 C267 -133 250 -132 235 -131 C226 -130 217 -130 207 -129 L207 -189 C222 -194 242 -198 293 -198 C414 -198 432 -111 432 -60 L432 260 C432 353 353 411 286 411 C257 411 187 412 136 345 L126 405 L65 405 L65 0 L135 0 L135 260 C144 276 154 290 167 303 C190 324 221 346 265 346 C306 346 362 325 362 254 L362 -10 Z " />
<glyph glyph-name="Omacron" unicode="&#x14c;" horiz-adv-x="676" d="M338 59 C254 59 125 88 125 304 C125 492 232 530 338 530 C445 530 552 492 552 304 C552 88 423 59 338 59 L338 59 Z M338 -6 C446 -6 621 51 621 307 C621 520 467 595 338 595 C210 595 55 520 55 307 C55 51 230 -6 338 -6 L338 -6 Z M489 657 L489 721 L184 721 L184 657 L489 657 Z " />
<glyph glyph-name="omacron" unicode="&#x14d;" horiz-adv-x="502" d="M251 59 C199 59 120 78 120 205 C120 315 195 346 251 346 C307 346 382 315 382 205 C382 78 303 59 251 59 L251 59 Z M251 -6 C326 -6 452 37 452 207 C452 351 339 411 251 411 C163 411 50 351 50 207 C50 37 176 -6 251 -6 L251 -6 Z M404 471 L404 535 L99 535 L99 471 L404 471 Z " />
<glyph glyph-name="Ohungarumlaut" unicode="&#x150;" horiz-adv-x="676" d="M338 59 C254 59 125 88 125 304 C125 492 232 530 338 530 C445 530 552 492 552 304 C552 88 423 59 338 59 L338 59 Z M338 -6 C446 -6 621 51 621 307 C621 520 467 595 338 595 C210 595 55 520 55 307 C55 51 230 -6 338 -6 L338 -6 Z M307 657 L246 657 L277 767 L353 767 L307 657 Z M425 657 L364 657 L395 767 L471 767 L425 657 Z " />
<glyph glyph-name="ohungarumlaut" unicode="&#x151;" horiz-adv-x="502" d="M251 59 C199 59 120 78 120 205 C120 315 195 346 251 346 C307 346 382 315 382 205 C382 78 303 59 251 59 L251 59 Z M251 -6 C326 -6 452 37 452 207 C452 351 339 411 251 411 C163 411 50 351 50 207 C50 37 176 -6 251 -6 L251 -6 Z M218 471 L157 471 L188 581 L264 581 L218 471 Z M336 471 L275 471 L306 581 L382 581 L336 471 Z " />
<glyph glyph-name="OE" unicode="&#x152;" horiz-adv-x="841" d="M781 528 L781 590 L393 590 C378 594 363 595 340 595 C193 595 45 525 45 306 C45 51 233 -6 341 -6 C365 -6 386 -5 406 0 L781 0 L781 63 L463 63 L463 267 L723 267 L723 330 L463 330 L463 528 L781 528 Z M339 59 C254 59 115 86 115 303 C115 491 232 530 339 530 C360 530 377 529 393 525 L393 65 C378 60 366 59 339 59 L339 59 Z " />
<glyph glyph-name="oe" unicode="&#x153;" horiz-adv-x="807" d="M752 229 C752 332 692 411 568 411 C496 411 445 379 414 330 C373 386 307 411 251 411 C163 411 50 351 50 207 C50 37 176 -6 251 -6 C299 -6 373 14 416 75 C448 26 503 -6 584 -6 C648 -6 694 0 723 11 L723 69 C682 64 635 59 615 59 C496 59 470 95 451 176 L752 176 L752 229 Z M251 59 C199 59 120 78 120 205 C120 315 195 346 251 346 C307 346 382 315 382 205 L382 195 C377 77 302 59 251 59 L251 59 Z M452 241 C461 312 496 346 567 346 C628 346 679 326 682 241 L452 241 Z " />
<glyph glyph-name="Racute" unicode="&#x154;" horiz-adv-x="558" d="M514 408 C514 544 417 590 338 590 L70 590 L70 0 L140 0 L140 216 L286 216 C339 216 377 183 408 98 L443 0 L516 0 C503 39 496 57 491 74 C470 140 457 181 403 232 C502 259 514 362 514 408 L514 408 Z M140 280 L140 526 L330 526 C386 526 444 511 444 407 C444 283 385 280 330 280 L140 280 Z M293 657 L226 657 L277 777 L353 777 L293 657 Z " />
<glyph glyph-name="racute" unicode="&#x155;" horiz-adv-x="344" d="M314 411 L285 411 C272 411 176 411 135 346 L126 405 L65 405 L65 0 L135 0 L135 213 C137 238 144 260 155 279 C174 311 210 346 279 346 C287 346 295 346 314 343 L314 411 Z M132 471 L65 471 L116 591 L192 591 L132 471 Z " />
<glyph glyph-name="uni0156" unicode="&#x156;" horiz-adv-x="558" d="M514 408 C514 544 417 590 338 590 L70 590 L70 0 L140 0 L140 216 L286 216 C339 216 377 183 408 98 L443 0 L516 0 C503 39 496 57 491 74 C470 140 457 181 403 232 C502 259 514 362 514 408 L514 408 Z M140 280 L140 526 L330 526 C386 526 444 511 444 407 C444 283 385 280 330 280 L140 280 Z M204 -184 L280 -184 L331 -64 L264 -64 L204 -184 Z " />
<glyph glyph-name="uni0157" unicode="&#x157;" horiz-adv-x="344" d="M314 411 L285 411 C272 411 176 411 135 346 L126 405 L65 405 L65 0 L135 0 L135 213 C137 238 144 260 155 279 C174 311 210 346 279 346 C287 346 295 346 314 343 L314 411 Z M65 -184 L141 -184 L192 -64 L125 -64 L65 -184 Z " />
<glyph glyph-name="Rcaron" unicode="&#x158;" horiz-adv-x="558" d="M514 408 C514 544 417 590 338 590 L70 590 L70 0 L140 0 L140 216 L286 216 C339 216 377 183 408 98 L443 0 L516 0 C503 39 496 57 491 74 C470 140 457 181 403 232 C502 259 514 362 514 408 L514 408 Z M140 280 L140 526 L330 526 C386 526 444 511 444 407 C444 283 385 280 330 280 L140 280 Z M217 657 L142 780 L211 780 L250 707 L290 780 L359 780 L284 657 L217 657 Z " />
<glyph glyph-name="rcaron" unicode="&#x159;" horiz-adv-x="344" d="M314 411 L285 411 C272 411 176 411 135 346 L126 405 L65 405 L65 0 L135 0 L135 213 C137 238 144 260 155 279 C174 311 210 346 279 346 C287 346 295 346 314 343 L314 411 Z M140 471 L65 594 L134 594 L173 521 L213 594 L282 594 L207 471 L140 471 Z " />
<glyph glyph-name="Sacute" unicode="&#x15a;" horiz-adv-x="534" d="M274 595 C158 595 45 570 45 440 C45 256 419 271 419 150 C419 77 341 59 264 59 C187 59 106 81 70 92 L70 29 C107 10 177 -6 268 -6 C396 -6 489 42 489 152 C489 329 115 323 115 440 C115 530 216 530 283 530 C302 530 338 525 371 521 C390 518 411 515 432 512 L432 573 C405 585 363 595 274 595 L274 595 Z M286 657 L219 657 L270 777 L346 777 L286 657 Z " />
<glyph glyph-name="sacute" unicode="&#x15b;" horiz-adv-x="422" d="M240 471 L173 471 L224 591 L300 591 L240 471 Z M214 411 C133 411 45 384 45 303 C45 179 315 179 315 114 C315 70 249 59 207 59 C188 59 152 63 121 70 C103 73 84 76 63 81 L63 21 C91 8 148 -6 212 -6 C325 -6 385 40 385 116 C385 242 115 239 115 304 C115 339 150 346 234 346 C247 346 274 343 297 340 C310 338 324 336 339 335 L339 392 C315 403 274 411 214 411 L214 411 Z " />
<glyph glyph-name="Scircumflex" unicode="&#x15c;" horiz-adv-x="534" d="M274 595 C158 595 45 570 45 440 C45 256 419 271 419 150 C419 77 341 59 264 59 C187 59 106 81 70 92 L70 29 C107 10 177 -6 268 -6 C396 -6 489 42 489 152 C489 329 115 323 115 440 C115 530 216 530 283 530 C302 530 338 525 371 521 C390 518 411 515 432 512 L432 573 C405 585 363 595 274 595 L274 595 Z M296 780 L371 657 L302 657 L262 730 L223 657 L154 657 L229 780 L296 780 Z " />
<glyph glyph-name="scircumflex" unicode="&#x15d;" horiz-adv-x="422" d="M261 594 L336 471 L267 471 L227 544 L188 471 L119 471 L194 594 L261 594 Z M214 411 C133 411 45 384 45 303 C45 179 315 179 315 114 C315 70 249 59 207 59 C188 59 152 63 121 70 C103 73 84 76 63 81 L63 21 C91 8 148 -6 212 -6 C325 -6 385 40 385 116 C385 242 115 239 115 304 C115 339 150 346 234 346 C247 346 274 343 297 340 C310 338 324 336 339 335 L339 392 C315 403 274 411 214 411 L214 411 Z " />
<glyph glyph-name="Scedilla" unicode="&#x15e;" horiz-adv-x="534" d="M274 595 C158 595 45 570 45 440 C45 256 419 271 419 150 C419 77 341 59 264 59 C187 59 106 81 70 92 L70 29 C107 10 177 -6 268 -6 C396 -6 489 42 489 152 C489 329 115 323 115 440 C115 530 216 530 283 530 C302 530 338 525 371 521 C390 518 411 515 432 512 L432 573 C405 585 363 595 274 595 L274 595 Z M198 -184 L274 -184 L325 -64 L258 -64 L198 -184 Z " />
<glyph glyph-name="scedilla" unicode="&#x15f;" horiz-adv-x="422" d="M150 -184 L226 -184 L277 -64 L210 -64 L150 -184 Z M214 411 C133 411 45 384 45 303 C45 179 315 179 315 114 C315 70 249 59 207 59 C188 59 152 63 121 70 C103 73 84 76 63 81 L63 21 C91 8 148 -6 212 -6 C325 -6 385 40 385 116 C385 242 115 239 115 304 C115 339 150 346 234 346 C247 346 274 343 297 340 C310 338 324 336 339 335 L339 392 C315 403 274 411 214 411 L214 411 Z " />
<glyph glyph-name="Scaron" unicode="&#x160;" horiz-adv-x="534" d="M274 595 C158 595 45 570 45 440 C45 256 419 271 419 150 C419 77 341 59 264 59 C187 59 106 81 70 92 L70 29 C107 10 177 -6 268 -6 C396 -6 489 42 489 152 C489 329 115 323 115 440 C115 530 216 530 283 530 C302 530 338 525 371 521 C390 518 411 515 432 512 L432 573 C405 585 363 595 274 595 L274 595 Z M229 657 L154 780 L223 780 L262 707 L302 780 L371 780 L296 657 L229 657 Z " />
<glyph glyph-name="scaron" unicode="&#x161;" horiz-adv-x="422" d="M180 471 L105 594 L174 594 L213 521 L253 594 L322 594 L247 471 L180 471 Z M214 411 C133 411 45 384 45 303 C45 179 315 179 315 114 C315 70 249 59 207 59 C188 59 152 63 121 70 C103 73 84 76 63 81 L63 21 C91 8 148 -6 212 -6 C325 -6 385 40 385 116 C385 242 115 239 115 304 C115 339 150 346 234 346 C247 346 274 343 297 340 C310 338 324 336 339 335 L339 392 C315 403 274 411 214 411 L214 411 Z " />
<glyph glyph-name="uni0162" unicode="&#x162;" horiz-adv-x="532" d="M45 527 L231 527 L231 0 L301 0 L301 527 L487 527 L487 590 L45 590 L45 527 Z M174 -184 L250 -184 L301 -64 L234 -64 L174 -184 Z " />
<glyph glyph-name="uni0163" unicode="&#x163;" horiz-adv-x="364" d="M100 340 L100 156 C100 74 120 -6 240 -6 C288 -6 306 -1 319 7 L319 65 C300 62 283 59 266 59 C194 59 170 66 170 159 L170 340 L319 340 L319 405 L170 405 L170 556 L159 556 L25 368 L25 340 L100 340 Z M138 -184 L214 -184 L265 -64 L198 -64 L138 -184 Z " />
<glyph glyph-name="Tcaron" unicode="&#x164;" horiz-adv-x="532" d="M45 527 L231 527 L231 0 L301 0 L301 527 L487 527 L487 590 L45 590 L45 527 Z M233 657 L158 780 L227 780 L266 707 L306 780 L375 780 L300 657 L233 657 Z " />
<glyph glyph-name="tcaron" unicode="&#x165;" horiz-adv-x="404" d="M110 340 L110 156 C110 74 130 -6 250 -6 C298 -6 316 -1 329 7 L329 65 C310 62 293 59 276 59 C204 59 180 66 180 159 L180 340 L329 340 L329 405 L180 405 L180 556 L169 556 L35 368 L35 340 L110 340 Z M324 470 L257 470 L308 590 L384 590 L324 470 Z " />
<glyph glyph-name="Tbar" unicode="&#x166;" horiz-adv-x="532" d="M419 256 L419 320 L301 320 L301 527 L487 527 L487 590 L45 590 L45 527 L231 527 L231 320 L113 320 L113 256 L231 256 L231 0 L301 0 L301 256 L419 256 Z " />
<glyph glyph-name="tbar" unicode="&#x167;" horiz-adv-x="364" d="M25 203 L100 203 L100 156 C100 74 120 -6 240 -6 C288 -6 306 -1 319 7 L319 65 C300 62 283 59 266 59 C194 59 170 66 170 159 L170 203 L319 203 L319 268 L170 268 L170 340 L319 340 L319 405 L170 405 L170 556 L159 556 L25 368 L25 340 L100 340 L100 268 L25 268 L25 203 Z " />
<glyph glyph-name="Utilde" unicode="&#x168;" horiz-adv-x="614" d="M307 -6 C414 -6 544 35 544 266 L544 590 L474 590 L474 277 C474 104 395 59 307 59 C219 59 140 104 140 277 L140 590 L70 590 L70 266 C70 35 200 -6 307 -6 L307 -6 Z M427 674 C407 663 381 657 361 657 C317 657 281 694 238 694 C225 694 214 694 203 690 L183 740 C203 755 217 757 238 757 C286 757 319 720 365 720 C380 720 395 721 408 728 L427 674 Z " />
<glyph glyph-name="utilde" unicode="&#x169;" horiz-adv-x="492" d="M357 405 L357 145 C348 128 338 114 325 102 C302 79 270 59 227 59 C186 59 130 78 130 151 L130 405 L60 405 L60 145 C60 52 139 -6 206 -6 C234 -6 305 -7 356 60 L366 0 L427 0 L427 405 L357 405 Z M365 488 C345 477 319 471 299 471 C255 471 219 508 176 508 C163 508 152 508 141 504 L121 554 C141 569 155 571 176 571 C224 571 257 534 303 534 C318 534 333 535 346 542 L365 488 Z " />
<glyph glyph-name="Umacron" unicode="&#x16a;" horiz-adv-x="614" d="M307 -6 C414 -6 544 35 544 266 L544 590 L474 590 L474 277 C474 104 395 59 307 59 C219 59 140 104 140 277 L140 590 L70 590 L70 266 C70 35 200 -6 307 -6 L307 -6 Z M458 657 L458 721 L153 721 L153 657 L458 657 Z " />
<glyph glyph-name="umacron" unicode="&#x16b;" horiz-adv-x="492" d="M357 405 L357 145 C348 128 338 114 325 102 C302 79 270 59 227 59 C186 59 130 78 130 151 L130 405 L60 405 L60 145 C60 52 139 -6 206 -6 C234 -6 305 -7 356 60 L366 0 L427 0 L427 405 L357 405 Z M395 471 L395 535 L90 535 L90 471 L395 471 Z " />
<glyph glyph-name="Ubreve" unicode="&#x16c;" horiz-adv-x="614" d="M307 -6 C414 -6 544 35 544 266 L544 590 L474 590 L474 277 C474 104 395 59 307 59 C219 59 140 104 140 277 L140 590 L70 590 L70 266 C70 35 200 -6 307 -6 L307 -6 Z M307 657 C362 657 425 678 441 763 L373 763 C360 724 335 716 307 716 C279 716 254 724 241 763 L173 763 C189 678 252 657 307 657 L307 657 Z " />
<glyph glyph-name="ubreve" unicode="&#x16d;" horiz-adv-x="492" d="M357 405 L357 145 C348 128 338 114 325 102 C302 79 270 59 227 59 C186 59 130 78 130 151 L130 405 L60 405 L60 145 C60 52 139 -6 206 -6 C234 -6 305 -7 356 60 L366 0 L427 0 L427 405 L357 405 Z M244 471 C299 471 362 492 378 577 L310 577 C297 538 272 530 244 530 C216 530 191 538 178 577 L110 577 C126 492 189 471 244 471 L244 471 Z " />
<glyph glyph-name="Uring" unicode="&#x16e;" horiz-adv-x="614" d="M307 -6 C414 -6 544 35 544 266 L544 590 L474 590 L474 277 C474 104 395 59 307 59 C219 59 140 104 140 277 L140 590 L70 590 L70 266 C70 35 200 -6 307 -6 L307 -6 Z M307 712 C279 712 251 732 251 772 C251 811 279 832 307 832 C335 832 363 811 363 772 C363 732 335 712 307 712 L307 712 Z M307 657 C379 657 424 710 424 772 C424 833 379 887 307 887 C235 887 190 833 190 772 C190 710 235 657 307 657 L307 657 Z " />
<glyph glyph-name="uring" unicode="&#x16f;" horiz-adv-x="492" d="M357 405 L357 145 C348 128 338 114 325 102 C302 79 270 59 227 59 C186 59 130 78 130 151 L130 405 L60 405 L60 145 C60 52 139 -6 206 -6 C234 -6 305 -7 356 60 L366 0 L427 0 L427 405 L357 405 Z M243 526 C215 526 187 546 187 586 C187 625 215 646 243 646 C271 646 299 625 299 586 C299 546 271 526 243 526 L243 526 Z M243 471 C315 471 360 524 360 586 C360 647 315 701 243 701 C171 701 126 647 126 586 C126 524 171 471 243 471 L243 471 Z " />
<glyph glyph-name="Uhungarumlaut" unicode="&#x170;" horiz-adv-x="614" d="M276 657 L215 657 L246 767 L322 767 L276 657 Z M394 657 L333 657 L364 767 L440 767 L394 657 Z M307 -6 C414 -6 544 35 544 266 L544 590 L474 590 L474 277 C474 104 395 59 307 59 C219 59 140 104 140 277 L140 590 L70 590 L70 266 C70 35 200 -6 307 -6 L307 -6 Z " />
<glyph glyph-name="uhungarumlaut" unicode="&#x171;" horiz-adv-x="492" d="M357 405 L357 145 C348 128 338 114 325 102 C302 79 270 59 227 59 C186 59 130 78 130 151 L130 405 L60 405 L60 145 C60 52 139 -6 206 -6 C234 -6 305 -7 356 60 L366 0 L427 0 L427 405 L357 405 Z M212 471 L151 471 L182 581 L258 581 L212 471 Z M330 471 L269 471 L300 581 L376 581 L330 471 Z " />
<glyph glyph-name="Uogonek" unicode="&#x172;" horiz-adv-x="614" d="M307 -6 C414 -6 544 35 544 266 L544 590 L474 590 L474 277 C474 104 395 59 307 59 C219 59 140 104 140 277 L140 590 L70 590 L70 266 C70 35 200 -6 307 -6 L307 -6 Z M210 -184 L286 -184 L337 -64 L270 -64 L210 -184 Z " />
<glyph glyph-name="uogonek" unicode="&#x173;" horiz-adv-x="492" d="M357 405 L357 145 C348 128 338 114 325 102 C302 79 270 59 227 59 C186 59 130 78 130 151 L130 405 L60 405 L60 145 C60 52 139 -6 206 -6 C234 -6 305 -7 356 60 L366 0 L427 0 L427 405 L357 405 Z M300 -184 L376 -184 L427 -64 L360 -64 L300 -184 Z " />
<glyph glyph-name="Ydieresis" unicode="&#x178;" horiz-adv-x="557" d="M313 199 L532 590 L454 590 L278 281 L103 590 L25 590 L244 199 L244 0 L313 0 L313 199 Z M174 656 L242 656 L242 721 L174 721 L174 656 Z M315 656 L383 656 L383 721 L315 721 L315 656 Z " />
<glyph glyph-name="Zacute" unicode="&#x179;" horiz-adv-x="517" d="M51 525 L391 525 L50 84 L50 0 L467 0 L467 65 L126 65 L467 510 L467 590 L51 590 L51 525 Z M288 657 L221 657 L272 777 L348 777 L288 657 Z " />
<glyph glyph-name="zacute" unicode="&#x17a;" horiz-adv-x="434" d="M60 340 L300 340 L60 85 L60 0 L374 0 L374 65 L138 65 L374 317 L374 405 L60 405 L60 340 Z M255 471 L188 471 L239 591 L315 591 L255 471 Z " />
<glyph glyph-name="Zdotaccent" unicode="&#x17b;" horiz-adv-x="517" d="M51 525 L391 525 L50 84 L50 0 L467 0 L467 65 L126 65 L467 510 L467 590 L51 590 L51 525 Z M223 657 L291 657 L291 722 L223 722 L223 657 Z " />
<glyph glyph-name="zdotaccent" unicode="&#x17c;" horiz-adv-x="434" d="M60 340 L300 340 L60 85 L60 0 L374 0 L374 65 L138 65 L374 317 L374 405 L60 405 L60 340 Z M180 471 L248 471 L248 536 L180 536 L180 471 Z " />
<glyph glyph-name="Zcaron" unicode="&#x17d;" horiz-adv-x="517" d="M51 525 L391 525 L50 84 L50 0 L467 0 L467 65 L126 65 L467 510 L467 590 L51 590 L51 525 Z M225 657 L150 780 L219 780 L258 707 L298 780 L367 780 L292 657 L225 657 Z " />
<glyph glyph-name="zcaron" unicode="&#x17e;" horiz-adv-x="434" d="M60 340 L300 340 L60 85 L60 0 L374 0 L374 65 L138 65 L374 317 L374 405 L60 405 L60 340 Z M191 471 L116 594 L185 594 L224 521 L264 594 L333 594 L258 471 L191 471 Z " />
<glyph glyph-name="florin" unicode="&#x192;" horiz-adv-x="372" d="M117 -10 C117 -101 108 -133 31 -133 C22 -133 5 -132 -10 -131 C-19 -130 -28 -130 -38 -129 L-38 -189 C-23 -194 -3 -198 48 -198 C169 -198 187 -111 187 -60 L187 340 L336 340 L336 405 L187 405 L187 423 C187 509 216 530 275 530 C296 530 322 529 337 526 L337 583 C325 590 303 595 260 595 C172 595 117 540 117 413 L117 405 L30 405 L30 340 L117 340 L117 -10 Z " />
<glyph glyph-name="uni0218" unicode="&#x218;" horiz-adv-x="534" d="M274 595 C158 595 45 570 45 440 C45 256 419 271 419 150 C419 77 341 59 264 59 C187 59 106 81 70 92 L70 29 C107 10 177 -6 268 -6 C396 -6 489 42 489 152 C489 329 115 323 115 440 C115 530 216 530 283 530 C302 530 338 525 371 521 C390 518 411 515 432 512 L432 573 C405 585 363 595 274 595 L274 595 Z M198 -184 L274 -184 L325 -64 L258 -64 L198 -184 Z " />
<glyph glyph-name="uni0219" unicode="&#x219;" horiz-adv-x="422" d="M154 -184 L230 -184 L281 -64 L214 -64 L154 -184 Z M214 411 C133 411 45 384 45 303 C45 179 315 179 315 114 C315 70 249 59 207 59 C188 59 152 63 121 70 C103 73 84 76 63 81 L63 21 C91 8 148 -6 212 -6 C325 -6 385 40 385 116 C385 242 115 239 115 304 C115 339 150 346 234 346 C247 346 274 343 297 340 C310 338 324 336 339 335 L339 392 C315 403 274 411 214 411 L214 411 Z " />
<glyph glyph-name="uni021A" unicode="&#x21a;" horiz-adv-x="532" d="M45 527 L231 527 L231 0 L301 0 L301 527 L487 527 L487 590 L45 590 L45 527 Z M174 -184 L250 -184 L301 -64 L234 -64 L174 -184 Z " />
<glyph glyph-name="uni021B" unicode="&#x21b;" horiz-adv-x="364" d="M100 340 L100 156 C100 74 120 -6 240 -6 C288 -6 306 -1 319 7 L319 65 C300 62 283 59 266 59 C194 59 170 66 170 159 L170 340 L319 340 L319 405 L170 405 L170 556 L159 556 L25 368 L25 340 L100 340 Z M138 -184 L214 -184 L265 -64 L198 -64 L138 -184 Z " />
<glyph glyph-name="circumflex" unicode="&#x2c6;" horiz-adv-x="357" d="M145 590 L70 467 L139 467 L178 540 L218 467 L287 467 L212 590 L145 590 Z " />
<glyph glyph-name="caron" unicode="&#x2c7;" horiz-adv-x="357" d="M212 467 L287 590 L218 590 L178 517 L139 590 L70 590 L145 467 L212 467 Z " />
<glyph glyph-name="breve" unicode="&#x2d8;" horiz-adv-x="408" d="M204 484 C259 484 322 505 338 590 L270 590 C257 551 232 543 204 543 C176 543 151 551 138 590 L70 590 C86 505 149 484 204 484 L204 484 Z " />
<glyph glyph-name="dotaccent" unicode="&#x2d9;" horiz-adv-x="208" d="M70 525 L138 525 L138 590 L70 590 L70 525 Z " />
<glyph glyph-name="ring" unicode="&#x2da;" horiz-adv-x="374" d="M187 420 C159 420 131 440 131 480 C131 519 159 540 187 540 C215 540 243 519 243 480 C243 440 215 420 187 420 L187 420 Z M187 365 C259 365 304 418 304 480 C304 541 259 595 187 595 C115 595 70 541 70 480 C70 418 115 365 187 365 L187 365 Z " />
<glyph glyph-name="ogonek" unicode="&#x2db;" horiz-adv-x="267" d="M70 -126 L146 -126 L197 -6 L130 -6 L70 -126 Z " />
<glyph glyph-name="tilde" unicode="&#x2dc;" horiz-adv-x="384" d="M295 561 C282 554 267 553 252 553 C206 553 173 590 125 590 C104 590 90 588 70 573 L90 523 C101 527 112 527 125 527 C168 527 204 490 248 490 C268 490 294 496 314 507 L295 561 Z " />
<glyph glyph-name="hungarumlaut" unicode="&#x2dd;" horiz-adv-x="365" d="M177 590 L101 590 L70 480 L131 480 L177 590 Z M295 590 L219 590 L188 480 L249 480 L295 590 Z " />
<glyph glyph-name="uni03A9" unicode="&#x3a9;" horiz-adv-x="760" d="M381 530 C493 530 566 476 566 287 L566 212 C566 154 552 109 525 78 L525 0 L690 0 L690 65 L595 65 C632 121 636 187 636 212 L636 305 C636 517 508 595 380 595 C252 595 124 517 124 305 L124 212 C124 187 128 121 165 65 L70 65 L70 0 L235 0 L235 78 C208 109 194 154 194 212 L194 287 C194 476 266 530 381 530 L381 530 Z " />
<glyph glyph-name="pi" unicode="&#x3c0;" horiz-adv-x="773" d="M703 405 L70 405 L70 342 L181 342 L181 0 L251 0 L251 342 L522 342 L522 0 L592 0 L592 342 L703 342 L703 405 Z " />
<glyph glyph-name="ZWSP" unicode="&#x200b;" d="" />
<glyph glyph-name="endash" unicode="&#x2013;" horiz-adv-x="444" d="M374 179 L374 242 L70 242 L70 179 L374 179 Z " />
<glyph glyph-name="emdash" unicode="&#x2014;" horiz-adv-x="502" d="M432 179 L432 242 L70 242 L70 179 L432 179 Z " />
<glyph glyph-name="quoteleft" unicode="&#x2018;" horiz-adv-x="264" d="M70 474 L147 474 L194 590 L128 590 L70 474 Z " />
<glyph glyph-name="quoteright" unicode="&#x2019;" horiz-adv-x="264" d="M194 590 L117 590 L70 474 L136 474 L194 590 Z " />
<glyph glyph-name="quotesinglbase" unicode="&#x201a;" horiz-adv-x="264" d="M194 28 L117 28 L70 -88 L136 -88 L194 28 Z " />
<glyph glyph-name="quotedblleft" unicode="&#x201c;" horiz-adv-x="390" d="M70 474 L147 474 L194 590 L128 590 L70 474 Z M196 474 L273 474 L320 590 L254 590 L196 474 Z " />
<glyph glyph-name="quotedblright" unicode="&#x201d;" horiz-adv-x="390" d="M320 590 L243 590 L196 474 L262 474 L320 590 Z M194 590 L117 590 L70 474 L136 474 L194 590 Z " />
<glyph glyph-name="quotedblbase" unicode="&#x201e;" horiz-adv-x="390" d="M320 28 L243 28 L196 -88 L262 -88 L320 28 Z M194 28 L117 28 L70 -88 L136 -88 L194 28 Z " />
<glyph glyph-name="dagger" unicode="&#x2020;" horiz-adv-x="498" d="M70 342 L214 342 L214 -172 L284 -172 L284 342 L428 342 L428 405 L284 405 L284 590 L214 590 L214 405 L70 405 L70 342 Z " />
<glyph glyph-name="daggerdbl" unicode="&#x2021;" horiz-adv-x="498" d="M70 63 L70 0 L214 0 L214 -172 L284 -172 L284 0 L428 0 L428 63 L284 63 L284 342 L428 342 L428 405 L284 405 L284 590 L214 590 L214 405 L70 405 L70 342 L214 342 L214 63 L70 63 Z " />
<glyph glyph-name="bullet" unicode="&#x2022;" horiz-adv-x="225" d="M70 186 C70 163 89 144 112 144 C136 144 155 163 155 186 C155 210 136 229 112 229 C89 229 70 210 70 186 L70 186 Z " />
<glyph glyph-name="ellipsis" unicode="&#x2026;" horiz-adv-x="703" d="M70 -6 L138 -6 L138 59 L70 59 L70 -6 Z M317 -6 L385 -6 L385 59 L317 59 L317 -6 Z M565 -6 L633 -6 L633 59 L565 59 L565 -6 Z " />
<glyph glyph-name="perthousand" unicode="&#x2030;" horiz-adv-x="932" d="M194 0 L270 0 L491 590 L417 590 L194 0 Z M159 465 C140 465 126 475 126 502 C126 529 140 538 159 538 C178 538 192 529 192 502 C192 475 178 465 159 465 L159 465 Z M159 407 C218 407 248 439 248 502 C248 562 215 595 159 595 C103 595 70 562 70 502 C70 439 100 407 159 407 L159 407 Z M529 52 C510 52 496 62 496 89 C496 116 510 125 529 125 C548 125 562 116 562 89 C562 62 548 52 529 52 L529 52 Z M529 -6 C588 -6 618 26 618 89 C618 149 585 182 529 182 C473 182 440 149 440 89 C440 26 470 -6 529 -6 L529 -6 Z M773 52 C754 52 740 62 740 89 C740 116 754 125 773 125 C792 125 806 116 806 89 C806 62 792 52 773 52 L773 52 Z M773 -6 C832 -6 862 26 862 89 C862 149 829 182 773 182 C717 182 684 149 684 89 C684 26 714 -6 773 -6 L773 -6 Z " />
<glyph glyph-name="guilsinglleft" unicode="&#x2039;" horiz-adv-x="439" d="M369 305 L369 383 L70 244 L70 140 L369 0 L369 77 L125 191 L369 305 Z " />
<glyph glyph-name="guilsinglright" unicode="&#x203a;" horiz-adv-x="439" d="M314 191 L70 77 L70 0 L369 140 L369 244 L70 383 L70 305 L314 191 Z " />
<glyph glyph-name="fraction" unicode="&#x2044;" horiz-adv-x="564" d="M70 -204 L142 -204 L494 724 L417 724 L70 -204 Z " />
<glyph glyph-name="Euro" unicode="&#x20ac;" horiz-adv-x="667" d="M426 59 C357 59 249 78 215 202 L374 202 L374 265 L204 265 C203 277 202 290 202 303 C202 319 203 334 205 348 L374 348 L374 411 L219 411 C256 507 345 530 426 530 C469 530 518 520 562 497 L597 545 C546 578 484 595 427 595 C308 595 186 548 146 411 L70 411 L70 348 L134 348 C133 335 132 321 132 306 C132 291 133 278 134 265 L70 265 L70 202 L144 202 C186 35 338 -6 428 -6 C483 -6 545 9 596 45 C585 60 574 77 562 93 C518 69 473 59 426 59 L426 59 Z " />
<glyph glyph-name="Numero" unicode="&#x2116;" horiz-adv-x="1131" d="M473 0 L564 0 L564 590 L494 590 L494 92 L159 590 L70 590 L70 0 L140 0 L140 491 L473 0 Z M860 217 C808 217 729 236 729 363 C729 473 804 504 860 504 C916 504 991 473 991 363 C991 236 912 217 860 217 L860 217 Z M860 152 C935 152 1061 195 1061 365 C1061 509 948 569 860 569 C772 569 659 509 659 365 C659 195 785 152 860 152 L860 152 Z M1061 0 L1061 63 L661 63 L661 0 L1061 0 Z " />
<glyph glyph-name="trademark" unicode="&#x2122;" horiz-adv-x="733" d="M70 537 L160 537 L160 271 L218 271 L218 537 L309 537 L309 590 L70 590 L70 537 Z M525 349 L606 483 L606 271 L663 271 L663 590 L597 590 L505 434 L413 590 L347 590 L347 271 L404 271 L404 483 L485 349 L525 349 Z " />
<glyph glyph-name="Omega" unicode="&#x2126;" horiz-adv-x="760" d="M381 530 C493 530 566 476 566 287 L566 212 C566 154 552 109 525 78 L525 0 L690 0 L690 65 L595 65 C632 121 636 187 636 212 L636 305 C636 517 508 595 380 595 C252 595 124 517 124 305 L124 212 C124 187 128 121 165 65 L70 65 L70 0 L235 0 L235 78 C208 109 194 154 194 212 L194 287 C194 476 266 530 381 530 L381 530 Z " />
<glyph glyph-name="partialdiff" unicode="&#x2202;" horiz-adv-x="533" d="M393 154 C386 136 377 120 365 106 C345 82 314 59 269 59 C233 59 140 60 140 209 C140 335 233 346 269 346 C314 346 345 322 365 298 C377 284 386 268 393 251 L393 154 Z M463 403 C463 570 327 595 255 595 C199 595 149 586 110 565 C118 544 121 531 130 511 C177 528 223 530 250 530 C302 530 393 529 393 403 L393 347 C340 411 270 411 254 411 C163 411 70 350 70 209 C70 43 168 -6 245 -6 C272 -6 346 -6 392 50 L400 0 L463 0 L463 403 Z " />
<glyph glyph-name="Delta" unicode="&#x2206;" horiz-adv-x="791" d="M185 61 L396 444 L607 61 L185 61 Z M721 0 C609 197 507 391 396 587 C284 390 183 199 70 0 L721 0 Z " />
<glyph glyph-name="product" unicode="&#x220f;" horiz-adv-x="773" d="M703 590 L70 590 L70 527 L181 527 L181 0 L251 0 L251 527 L522 527 L522 0 L592 0 L592 527 L703 527 L703 590 Z " />
<glyph glyph-name="summation" unicode="&#x2211;" horiz-adv-x="476" d="M70 35 L70 0 L406 0 L406 64 L160 64 L264 292 L157 528 L406 528 L406 590 L70 590 L70 552 C145 383 170 332 186 292 L70 35 Z " />
<glyph glyph-name="minus" unicode="&#x2212;" horiz-adv-x="444" d="M374 179 L374 242 L70 242 L70 179 L374 179 Z " />
<glyph glyph-name="radical" unicode="&#x221a;" horiz-adv-x="782" d="M316 0 L535 595 L712 595 L712 657 L480 657 L269 59 L148 405 L70 405 L222 0 L316 0 Z " />
<glyph glyph-name="infinity" unicode="&#x221e;" horiz-adv-x="1028" d="M514 146 C581 67 664 45 748 45 C853 45 958 103 958 223 C958 339 879 407 748 407 C664 407 583 377 514 282 C443 377 364 407 280 407 C149 407 70 339 70 223 C70 103 175 45 280 45 C364 45 447 67 514 146 L514 146 Z M280 344 C356 344 424 305 493 209 C405 116 357 108 280 108 C207 108 140 149 140 222 C140 322 224 344 280 344 L280 344 Z M748 344 C804 344 888 322 888 222 C888 149 821 108 748 108 C671 108 623 116 535 209 C604 305 672 344 748 344 L748 344 Z " />
<glyph glyph-name="integral" unicode="&#x222b;" horiz-adv-x="520" d="M295 407 C295 498 304 530 381 530 C390 530 407 529 422 528 C431 527 440 527 450 526 L450 586 C435 591 415 595 364 595 C243 595 225 508 225 457 L225 -10 C225 -101 216 -133 139 -133 C130 -133 113 -132 98 -131 C89 -130 80 -130 70 -129 L70 -189 C85 -194 105 -198 156 -198 C277 -198 295 -111 295 -60 L295 407 Z " />
<glyph glyph-name="approxequal" unicode="&#x2248;" horiz-adv-x="384" d="M295 130 C282 123 267 122 252 122 C206 122 173 159 125 159 C104 159 90 157 70 142 L90 92 C101 96 112 96 125 96 C168 96 204 59 248 59 C268 59 294 65 314 76 L295 130 Z M295 251 C282 244 267 243 252 243 C206 243 173 280 125 280 C104 280 90 278 70 263 L90 213 C101 217 112 217 125 217 C168 217 204 180 248 180 C268 180 294 186 314 197 L295 251 Z " />
<glyph glyph-name="notequal" unicode="&#x2260;" horiz-adv-x="409" d="M339 250 L339 313 L287 313 L315 387 L241 387 L213 313 L70 313 L70 250 L189 250 L152 153 L70 153 L70 90 L128 90 L94 0 L168 0 L202 90 L339 90 L339 153 L226 153 L263 250 L339 250 Z " />
<glyph glyph-name="lessequal" unicode="&#x2264;" horiz-adv-x="441" d="M70 216 L371 90 L371 165 L138 263 L371 362 L371 438 L70 311 L70 216 Z M371 0 L371 63 L70 63 L70 0 L371 0 Z " />
<glyph glyph-name="greaterequal" unicode="&#x2265;" horiz-adv-x="441" d="M371 311 L70 438 L70 362 L303 263 L70 165 L70 90 L371 216 L371 311 Z M371 0 L371 63 L70 63 L70 0 L371 0 Z " />
<glyph glyph-name="lozenge" unicode="&#x25ca;" horiz-adv-x="526" d="M153 293 L264 461 L373 296 L262 128 L153 293 Z M264 590 C197 490 134 394 70 294 L70 290 L263 0 L456 293 L456 297 L264 590 Z " />
<glyph glyph-name="uni25CC" unicode="&#x25cc;" horiz-adv-x="512" d="" />
<glyph glyph-name="fi" unicode="&#xfb01;" horiz-adv-x="582" d="M337 583 C325 590 303 595 260 595 C172 595 117 540 117 413 L117 405 L30 405 L30 340 L117 340 L117 0 L187 0 L187 340 L336 340 L336 405 L187 405 L187 423 C187 509 216 530 275 530 C296 530 322 529 337 526 L337 583 Z M442 0 L512 0 L512 405 L442 405 L442 0 Z M442 475 L512 475 L512 554 L442 554 L442 475 Z " />
<glyph glyph-name="fl" unicode="&#xfb02;" horiz-adv-x="609" d="M337 583 C325 590 303 595 260 595 C172 595 117 540 117 413 L117 405 L30 405 L30 340 L117 340 L117 0 L187 0 L187 340 L336 340 L336 405 L187 405 L187 423 C187 509 216 530 275 530 C296 530 322 529 337 526 L337 583 Z M511 590 L441 590 L441 97 C441 4 479 -6 514 -6 L519 -6 C526 -6 534 -6 543 -5 C548 -5 553 -5 559 -4 L559 59 C520 59 511 60 511 102 L511 590 Z " />
</font>
</svg>
