<?xml version="1.0" standalone="no"?>
<!DOCTYPE svg PUBLIC "-//W3C//DTD SVG 1.1//EN" "http://www.w3.org/Graphics/SVG/1.1/DTD/svg11.dtd" >
<svg xmlns="http://www.w3.org/2000/svg" xmlns:xlink="http://www.w3.org/1999/xlink" version="1.1">
<metadata></metadata>
<defs>
<font id="mucho_sansthin" horiz-adv-x="1452" >
<font-face units-per-em="2048" ascent="1536" descent="-512" />
<missing-glyph horiz-adv-x="512" />
<glyph unicode="&#xfb01;" horiz-adv-x="1093" d="M72 942v62h155v94q0 78 27.5 139.5t74 99t104 57t120.5 19.5q70 0 156 -16v-58q-51 13 -154 13q-113 0 -186.5 -65t-73.5 -189v-94h625v-1004h-68v942h-557v-942h-68v942h-155zM827 1350q0 26 18 44.5t44 18.5t43.5 -18.5t17.5 -44.5q0 -27 -17.5 -45.5t-43.5 -18.5 t-44 19t-18 45z" />
<glyph unicode="&#xfb02;" horiz-adv-x="1099" d="M72 942v62h155v96q0 78 28 139.5t74.5 98.5t104 56t119.5 19q47 0 94 -6v-57q-54 4 -96 4q-108 0 -182 -67t-74 -187v-96h303v-62h-303l4 -942h-72v942h-155zM858 0v1393h68v-1393h-68z" />
<glyph unicode="&#xfb03;" horiz-adv-x="1728" d="M72 942v62h155v96q0 78 28 139.5t74.5 98.5t104 56t119.5 19q47 0 94 -6v-57q-54 4 -96 4q-108 0 -182 -67t-74 -187v-96h567v94q0 78 27.5 139.5t74 99t104 57t120.5 19.5q69 0 155 -16v-58q-51 13 -153 13q-113 0 -186.5 -65t-73.5 -189v-94h624v-1004h-67v942h-557 v-942h-68v942h-567v-942h-68v942h-155zM1462 1350q0 26 18 44.5t44 18.5t43.5 -18.5t17.5 -44.5q0 -27 -17.5 -45.5t-43.5 -18.5t-44 19t-18 45z" />
<glyph unicode="&#xfb04;" horiz-adv-x="1730" d="M72 942v62h155v94q0 78 27.5 139.5t74 99t104 57t120.5 19.5q34 0 100 -8v-57q-54 4 -98 4q-113 0 -186.5 -65t-73.5 -189v-94h563v96q0 77 30 137.5t78.5 95.5t104 52.5t113.5 17.5q71 0 153 -8v-58q-75 6 -106 6q-61 0 -113 -13t-96.5 -40.5t-70 -77t-25.5 -116.5v-92 h307v-62h-307v-942h-68v942h-563v-942h-68v942h-155zM1489 0v1393h67v-1393h-67z" />
<glyph horiz-adv-x="0" />
<glyph horiz-adv-x="682" />
<glyph unicode=" "  horiz-adv-x="512" />
<glyph unicode="&#x09;" horiz-adv-x="512" />
<glyph unicode="&#xa0;" horiz-adv-x="512" />
<glyph unicode="!" horiz-adv-x="552" d="M215 41q0 22 18.5 39.5t42.5 17.5q23 0 42.5 -17.5t19.5 -39.5q0 -25 -19 -43t-43 -18q-25 0 -43 17.5t-18 43.5zM242 367v1026h71v-1026h-71z" />
<glyph unicode="&#x22;" horiz-adv-x="632" d="M154 1077v316h51v-316h-51zM428 1077v316h51v-316h-51z" />
<glyph unicode="#" horiz-adv-x="1275" d="M113 418v61h202l50 449h-203v61h207l45 404h69l-41 -404h449l43 404h72l-43 -404h200v-61h-207q-33 -266 -49 -449h207v-61h-211l-45 -418h-70l46 418h-453l-43 -418h-72l43 418h-196zM387 479h451l47 449h-449z" />
<glyph unicode="$" horiz-adv-x="1087" d="M113 1065q0 70 25.5 132.5t74.5 112t128 79.5t179 34v111h72v-113q87 -4 150 -22t135 -49l-31 -62q-92 63 -254 72v-612q57 -21 96.5 -38t88 -43t80.5 -55t61 -66.5t43 -86t14 -105.5q0 -134 -107.5 -243.5t-275.5 -133.5v-127h-72v121h-12q-130 0 -232.5 28.5 t-158.5 63.5l39 70q162 -100 352 -100h12v665q-85 31 -141 56t-111 58t-86 68t-50 81.5t-19 103.5zM186 1065q0 -48 19 -88t47 -67.5t76 -54t89 -43t103 -38.5v586q-155 -6 -244.5 -85.5t-89.5 -209.5zM592 41q130 25 219.5 115t89.5 198q0 49 -11.5 86t-43.5 77.5t-95 78.5 t-159 76v-631z" />
<glyph unicode="%" horiz-adv-x="1499" d="M133 1024q0 101 36 190.5t100 145t139 55.5q79 0 145 -56t102.5 -145.5t36.5 -189.5q0 -103 -36.5 -192t-102.5 -143t-145 -54q-114 0 -194.5 116t-80.5 273zM197 1024q0 -142 59.5 -235t151.5 -93t156.5 93t64.5 235q0 137 -64.5 233.5t-156.5 96.5q-90 0 -150.5 -92 t-60.5 -238zM293 0l844 1395h71l-841 -1395h-74zM813 367q0 104 35.5 192.5t99 141.5t139.5 53q118 0 198.5 -114.5t80.5 -272.5t-80.5 -274t-198.5 -116q-115 0 -194.5 116t-79.5 274zM877 367q0 -138 61.5 -233t148.5 -95q91 0 153.5 94t62.5 234t-61.5 232.5t-154.5 92.5 q-86 0 -148 -91.5t-62 -233.5z" />
<glyph unicode="&#x26;" horiz-adv-x="1437" d="M174 377q0 152 90.5 242.5t233.5 117.5q-130 10 -203.5 98t-73.5 228q0 103 54.5 184t142 123.5t188.5 42.5q193 0 299.5 -68.5t106.5 -179.5h-62q0 85 -89 136t-247 51q-137 0 -229 -74.5t-92 -220.5q0 -138 91 -215.5t220 -77.5h533v-62h-121v-507q0 -67 86 -111.5 t223 -44.5l-2 -59q-121 0 -210 32t-132 86q-93 -118 -377 -118q-81 0 -156 24.5t-137 71.5t-99.5 125t-37.5 176zM244 371q0 -89 33.5 -155.5t88.5 -103t115.5 -54t124.5 -17.5q150 0 243.5 42.5t98.5 111.5v507h-348q-70 0 -130 -16.5t-112.5 -53t-83 -103.5t-30.5 -158z " />
<glyph unicode="'" horiz-adv-x="358" d="M154 1077v316h51v-316h-51z" />
<glyph unicode="(" horiz-adv-x="739" d="M152 647q0 182 51 358t154.5 330.5t246.5 253.5l39 -59q-194 -153 -307 -383.5t-113 -499.5q0 -270 113 -501t307 -384l-39 -59q-214 148 -333 406t-119 538z" />
<glyph unicode=")" horiz-adv-x="739" d="M96 -238q194 153 307 384t113 501q0 269 -113 499.5t-307 383.5l39 59q143 -99 246.5 -253.5t155 -330.5t51.5 -358q0 -280 -119.5 -538t-333.5 -406z" />
<glyph unicode="*" horiz-adv-x="770" d="M113 1102l229 76l-141 194l43 33l143 -197l141 197l43 -33l-143 -196l229 -74l-16 -51l-229 75v-241h-54v241l-229 -73z" />
<glyph unicode="+" horiz-adv-x="1415" d="M113 559v62h555v569h67v-569h568v-62h-568v-559h-67v559h-555z" />
<glyph unicode="," horiz-adv-x="493" d="M174 53q0 31 21.5 53.5t52.5 22.5q30 0 50.5 -22.5t20.5 -53.5q0 -54 -33.5 -118t-76.5 -107h-31q78 99 78 145q0 7 -8 7q-30 0 -52 22t-22 51z" />
<glyph unicode="-" horiz-adv-x="837" d="M92 555v61h653v-61h-653z" />
<glyph unicode="." horiz-adv-x="493" d="M174 53q0 31 21.5 53.5t52.5 22.5q30 0 50.5 -22.5t20.5 -53.5q0 -30 -20.5 -51.5t-50.5 -21.5t-52 22t-22 51z" />
<glyph unicode="/" horiz-adv-x="819" d="M47 -184l653 1577h72l-653 -1577h-72z" />
<glyph unicode="0" horiz-adv-x="1425" d="M154 694q0 195 72 359.5t200.5 262t284.5 97.5q157 0 286.5 -98.5t202 -263.5t72.5 -359t-72.5 -357t-201.5 -259t-285 -96q-158 0 -286.5 96t-200.5 259.5t-72 358.5zM223 694q0 -182 68.5 -333.5t181 -235.5t240.5 -84q129 0 241 84t180 235t68 334q0 178 -67.5 330.5 t-180.5 240t-241 87.5t-240.5 -87.5t-181 -240t-68.5 -330.5z" />
<glyph unicode="1" horiz-adv-x="827" d="M51 1171l318 222h69v-1332h277v-61h-615v61h271v1260l-287 -201z" />
<glyph unicode="2" horiz-adv-x="1026" d="M133 0v106q0 46 25.5 99t75.5 111.5t98 106.5t119 112q54 50 87 81.5t81 80t76.5 86t57.5 81.5t42.5 86t13.5 82q0 65 -18 121.5t-54 101.5t-96 71t-137 26q-146 0 -220 -77.5t-79 -197.5h-72q3 143 105.5 239.5t267.5 96.5q167 0 271 -111t104 -262q0 -42 -11.5 -85 t-26 -77.5t-46 -77t-54 -69.5t-67.5 -71t-68.5 -66t-75.5 -68q-66 -59 -114.5 -106t-101.5 -105t-81 -109.5t-28 -90.5v-54h686v-61h-760z" />
<glyph unicode="3" horiz-adv-x="1064" d="M133 1077q0 140 106 238t269 98q157 0 267 -98t110 -254q0 -127 -66.5 -210.5t-191.5 -109.5q127 -24 216 -121t89 -233q0 -81 -25.5 -150t-67 -115t-95 -79t-107.5 -48t-105 -15q-163 0 -267.5 98t-104.5 241h71q0 -114 89 -196t215 -82q81 0 155 42t122 123.5t48 182.5 q0 73 -29.5 134.5t-79 101t-111 61t-126.5 21.5h-84v61h80q127 0 215 78.5t88 216.5q0 132 -89.5 210.5t-213.5 78.5q-125 0 -215 -82.5t-90 -192.5h-72z" />
<glyph unicode="4" horiz-adv-x="1073" d="M82 369v61l670 965h67v-965h172v-61h-172v-369h-65v369h-672zM164 430h588v844z" />
<glyph unicode="5" horiz-adv-x="1048" d="M133 707l107 686h587v-62h-534l-92 -551q127 119 307 119q75 0 145.5 -28.5t130 -82.5t95.5 -144t36 -202q0 -101 -26 -182.5t-67.5 -132.5t-96 -85t-108 -48t-107.5 -14q-163 0 -268 98.5t-105 240.5h72q0 -111 89 -194.5t214 -83.5q61 0 118.5 24.5t106 72t78 126.5 t29.5 178q0 94 -33.5 172.5t-85.5 125.5t-109 72.5t-110 25.5q-99 0 -183 -38t-118 -93h-72z" />
<glyph unicode="6" horiz-adv-x="1146" d="M133 692q0 148 31.5 278t90.5 229t150 156.5t203 57.5q219 0 346 -133l-45 -41q-58 60 -130.5 86.5t-174.5 26.5q-83 0 -152 -44t-113 -113t-75 -159t-44 -178t-13 -172q56 100 161.5 161.5t235.5 61.5q86 0 157 -28.5t117 -74.5t77.5 -107.5t45 -126t13.5 -130.5 q0 -83 -24 -161t-72.5 -147.5t-133.5 -111.5t-196 -42q-107 0 -190 48.5t-131.5 122t-80 172.5t-42.5 188t-11 181zM219 614q1 -63 10 -125.5t26.5 -128.5t48 -122t70.5 -101t99 -70.5t129 -25.5q61 0 120 25.5t109 74t80.5 127.5t30.5 176q0 175 -96 289.5t-252 114.5 q-100 0 -217 -73t-158 -161z" />
<glyph unicode="7" horiz-adv-x="894" d="M61 1331v62h773v-62l-549 -1331h-78l553 1331h-699z" />
<glyph unicode="8" horiz-adv-x="1097" d="M133 336q0 81 27.5 150.5t73.5 117.5t98 80t110 51q-112 45 -190 132t-78 206q0 103 56.5 182.5t141 118.5t177.5 39t177.5 -39t141 -118.5t56.5 -182.5q0 -119 -78.5 -206t-190.5 -132q58 -19 110 -51t98.5 -80t74 -117.5t27.5 -150.5q0 -90 -49.5 -170.5t-146.5 -133 t-220 -52.5t-220 52.5t-146.5 133t-49.5 170.5zM207 348q0 -132 101 -219.5t241 -87.5t241 87.5t101 219.5q0 131 -104.5 234.5t-237.5 128.5q-133 -25 -237.5 -128.5t-104.5 -234.5zM246 1081q0 -55 22.5 -105t56.5 -85.5t76 -63.5t79.5 -43.5t68.5 -21.5q31 6 68.5 21.5 t79.5 43.5t76 63.5t56.5 85.5t22.5 105q0 65 -30.5 118.5t-77.5 85.5t-98 49.5t-97 17.5t-97 -17.5t-98 -49.5t-77.5 -85.5t-30.5 -118.5z" />
<glyph unicode="9" horiz-adv-x="1146" d="M133 950q0 65 14 128.5t47 124.5t81 107.5t121.5 74.5t162.5 28q77 0 142.5 -25.5t111 -67.5t82 -101t58.5 -122t36 -135t19.5 -135.5t5.5 -126.5q0 -199 -53.5 -360t-163 -260.5t-258.5 -99.5q-219 0 -346 133l45 41q58 -60 130.5 -86.5t174.5 -26.5q83 0 152 44 t113 113t75 159t44 178t13 172q-56 -100 -161.5 -162t-235.5 -62q-86 0 -157 28.5t-117 74.5t-77.5 107.5t-45 126t-13.5 130.5zM205 948q0 -175 96 -289t252 -114q100 0 217 72.5t158 160.5q-1 77 -13 151.5t-40 152.5t-70 136.5t-109 96t-151 37.5q-61 0 -120 -26 t-109 -74t-80.5 -127.5t-30.5 -176.5z" />
<glyph unicode=":" horiz-adv-x="493" d="M174 53q0 31 21.5 53.5t52.5 22.5q30 0 50.5 -22.5t20.5 -53.5q0 -30 -20.5 -51.5t-50.5 -21.5t-52 22t-22 51zM174 696q0 31 21.5 53.5t52.5 22.5q30 0 50.5 -22.5t20.5 -53.5q0 -30 -20.5 -51.5t-50.5 -21.5t-52 21.5t-22 51.5z" />
<glyph unicode=";" horiz-adv-x="493" d="M174 53q0 31 21.5 53.5t52.5 22.5q30 0 50.5 -22.5t20.5 -53.5q0 -54 -33.5 -118t-76.5 -107h-31q78 99 78 145q0 7 -8 7q-30 0 -52 22t-22 51zM174 696q0 31 21.5 53.5t52.5 22.5q30 0 50.5 -22.5t20.5 -53.5q0 -30 -20.5 -51.5t-50.5 -21.5t-52 21.5t-22 51.5z" />
<glyph unicode="&#x3c;" horiz-adv-x="989" d="M113 541v106l764 479v-82l-707 -450l707 -449v-82z" />
<glyph unicode="=" horiz-adv-x="1273" d="M113 336v61h1048v-61h-1048zM113 776v62h1048v-62h-1048z" />
<glyph unicode="&#x3e;" horiz-adv-x="989" d="M113 63v82l706 449l-706 450v82l764 -479v-106z" />
<glyph unicode="?" horiz-adv-x="804" d="M31 1264q142 149 311 149q156 0 253 -91.5t97 -252.5q0 -55 -18 -103t-47 -83.5t-63.5 -68.5t-69.5 -66t-64 -67.5t-47 -81t-18 -99.5v-133h-68v133q0 56 18 105t46.5 86t63 71.5t69 67.5t63 67.5t46.5 78.5t18 93q0 63 -19 113.5t-48.5 81t-67.5 51.5t-74 29t-70 8 q-81 0 -138 -33t-120 -98zM276 39q0 22 18.5 39.5t43.5 17.5q22 0 38.5 -17.5t16.5 -39.5q0 -26 -16.5 -42.5t-38.5 -16.5q-25 0 -43.5 16.5t-18.5 42.5z" />
<glyph unicode="@" horiz-adv-x="1792" d="M123 502q0 143 50.5 276t139 234t218 162t278.5 61q200 0 318 -131t118 -354v-713h-63l-6 233q-39 -83 -138 -149t-219 -66q-94 0 -169 45.5t-112.5 113.5t-37.5 142q0 36 6.5 70.5t24.5 74t46.5 73.5t75.5 65.5t108 54t148.5 36t192.5 13.5h76q0 192 -96.5 311.5 t-262.5 119.5q-127 0 -241 -48.5t-198.5 -135t-134.5 -214t-50 -276.5q0 -192 95.5 -354t257 -255.5t349.5 -93.5q134 0 262.5 52t226.5 139.5t158 213.5t60 265h65q0 -200 -104 -368.5t-281 -265.5t-385 -97q-210 0 -388.5 101.5t-283 278t-104.5 386.5zM571 367 q0 -45 15.5 -88t44.5 -80t77.5 -59.5t108.5 -22.5q49 0 91.5 10t90.5 36t94 77.5t85 126.5v315h-86q-72 0 -141 -9t-139.5 -31.5t-122.5 -57t-85 -90.5t-33 -127z" />
<glyph unicode="A" horiz-adv-x="1142" d="M31 0l501 1393h74l506 -1393h-74l-174 485l-585 2l-177 -487h-71zM305 549h541l-277 741z" />
<glyph unicode="B" horiz-adv-x="1173" d="M215 0v1393h377q186 0 285.5 -95.5t99.5 -242.5q0 -100 -55 -186t-127 -113q24 -7 43.5 -14.5t48 -23t51 -33.5t46.5 -47t40 -63t26.5 -82t10.5 -104q0 -122 -56.5 -212t-147 -133.5t-202.5 -43.5h-440zM283 61h372q138 0 236 87t98 243q0 84 -30 149t-79 102t-106 56 t-117 19h-374v-656zM283 778h374q55 0 99.5 20.5t71.5 51t45 69.5t25 73.5t7 64.5q0 26 -7.5 58t-28.5 71t-52.5 70.5t-87 53t-125.5 21.5h-321v-553z" />
<glyph unicode="C" horiz-adv-x="1300" d="M113 696q0 152 48 286t131 228t197.5 148.5t243.5 54.5q138 0 258 -63t207 -183l-45 -45q-73 109 -181.5 169.5t-238.5 60.5q-151 0 -278 -90t-199 -240.5t-72 -325.5q0 -176 72 -326.5t199 -239.5t278 -89q130 0 240.5 62.5t179.5 168.5l45 -47q-86 -123 -205.5 -184 t-259.5 -61q-172 0 -314 92t-224 256.5t-82 367.5z" />
<glyph unicode="D" horiz-adv-x="1288" d="M215 0v1393h303q307 0 482.5 -185t175.5 -514q0 -328 -175 -511t-483 -183h-303zM283 61h235q130 0 234.5 36t184.5 110t123.5 197.5t43.5 289.5q0 165 -43.5 289t-123 199t-184.5 112t-235 37h-235v-1270z" />
<glyph unicode="E" horiz-adv-x="1052" d="M215 0v1393h705v-62h-637v-543h581v-61h-581v-666h637v-61h-705z" />
<glyph unicode="F" horiz-adv-x="983" d="M215 0v1393h655v-62h-587v-553h534v-61h-534v-717h-68z" />
<glyph unicode="G" horiz-adv-x="1359" d="M113 696q0 157 52 293.5t138.5 228t197.5 143.5t228 52q144 0 270.5 -63.5t214.5 -184.5l-53 -43q-75 110 -186 170t-250 60q-105 0 -203.5 -50t-173 -136t-119.5 -212.5t-45 -269.5q0 -150 49 -273.5t131 -203t187.5 -123t220.5 -43.5q86 0 206.5 34t219.5 85l2 471 h-403v61h471l-2 -569q-89 -65 -235 -104t-267 -39q-141 0 -260 47.5t-206 137t-136 226t-49 305.5z" />
<glyph unicode="H" horiz-adv-x="1353" d="M215 0v1393h68v-605h788v605h68v-1393h-68v727h-788v-727h-68z" />
<glyph unicode="I" horiz-adv-x="497" d="M215 0v1393h68v-1393h-68z" />
<glyph unicode="J" horiz-adv-x="1087" d="M92 358h62q0 -141 94 -229t244 -88q67 0 125.5 20t106 60t74.5 108.5t27 157.5v946h-499v60h567v-1004q0 -198 -105.5 -303.5t-291.5 -105.5q-181 0 -290.5 98t-113.5 280z" />
<glyph unicode="K" horiz-adv-x="1126" d="M215 0v1393h70v-598l682 598h82l-711 -629l717 -764h-82l-688 731v-731h-70z" />
<glyph unicode="L" horiz-adv-x="1060" d="M215 0v1393h72v-1332h702v-61h-774z" />
<glyph unicode="M" horiz-adv-x="1765" d="M174 0l141 1393h88l478 -1291l481 1291h88l141 -1393h-67l-138 1288l-468 -1288h-72l-469 1292l-135 -1292h-68z" />
<glyph unicode="N" horiz-adv-x="1349" d="M215 0v1393h88l764 -1291v1291h68v-1393h-88l-764 1292v-1292h-68z" />
<glyph unicode="O" d="M113 696q0 195 81.5 359.5t224.5 261t314 96.5q166 0 305.5 -96t220 -261t80.5 -360q0 -194 -80.5 -358.5t-220 -261t-305.5 -96.5q-128 0 -243.5 57t-197.5 153.5t-130.5 228.5t-48.5 277zM184 696q0 -185 72.5 -335.5t198 -235t278.5 -84.5q109 0 207.5 50t170.5 136 t114.5 208t42.5 261q0 183 -72 334t-194.5 236.5t-268.5 85.5q-152 0 -278 -85.5t-198.5 -236t-72.5 -334.5z" />
<glyph unicode="P" horiz-adv-x="1091" d="M215 0v1393h393q91 0 168.5 -32.5t127.5 -85.5t78 -118.5t28 -132.5q0 -68 -28 -133.5t-78 -119.5t-127.5 -87t-168.5 -33h-325v-651h-68zM283 713h325q69 0 126 20t94 52t62.5 73.5t36.5 83t11 82.5q0 54 -18.5 105.5t-56 98t-103.5 75t-152 28.5h-325v-618z" />
<glyph unicode="Q" d="M113 698q0 195 81.5 359t224.5 260t314 96q166 0 305.5 -95.5t220 -260t80.5 -359.5q0 -257 -136.5 -455t-346.5 -249q232 -74 469 -74v-51q-304 6 -592 111q-128 0 -243.5 57.5t-197.5 154t-130.5 229t-48.5 277.5zM184 698q0 -185 72.5 -336t198 -236t278.5 -85 q146 0 268.5 85t194.5 236t72 336q0 183 -72 333.5t-194.5 235.5t-268.5 85q-153 0 -278.5 -85t-198 -235.5t-72.5 -333.5z" />
<glyph unicode="R" horiz-adv-x="1099" d="M215 0v1393h346q94 0 172.5 -32.5t128 -85.5t76.5 -118t27 -133q0 -109 -66 -198t-186 -126l315 -700h-76l-307 686q-41 -6 -84 -6h-278v-680h-68zM283 741h278q88 0 154.5 24.5t104 66t55.5 90t18 102.5t-18.5 105.5t-55.5 98t-104 75t-154 28.5h-278v-590z" />
<glyph unicode="S" horiz-adv-x="1087" d="M113 1069q0 150 112.5 247t323.5 97q77 0 146.5 -14t99.5 -25.5t82 -34.5l-31 -61q-104 74 -297 74q-169 0 -266 -74.5t-97 -208.5q0 -28 7 -53.5t16.5 -45.5t29.5 -40.5t35 -34t46 -30.5t49.5 -26t57 -24.5t57 -22.5t61.5 -22q42 -15 63.5 -23t61 -24t61 -27.5 t55.5 -29.5t53 -34.5t44 -39.5t39 -47t27.5 -53t19.5 -62.5t6 -71.5q0 -73 -35 -141.5t-95.5 -121t-148.5 -84t-188 -31.5q-130 0 -232.5 28.5t-158.5 63.5l39 69q162 -100 352 -100q157 0 275 95.5t118 221.5q0 42 -8 74.5t-31 68t-63.5 66.5t-108 65t-162.5 68 q-86 31 -143 56t-113 58t-88 68t-51.5 82.5t-19.5 104.5z" />
<glyph unicode="T" horiz-adv-x="1019" d="M31 1331v62h958v-62h-444v-1331h-68v1331h-446z" />
<glyph unicode="U" horiz-adv-x="1402" d="M195 610v783h67v-783q0 -91 13 -168t33 -132t50 -99t59.5 -71.5t66.5 -48t64.5 -30t60.5 -15t48 -6.5t33 -1q20 0 36.5 0.5t51.5 6t64 15t68 30t69 48t62 71.5t52.5 99t34 132.5t13.5 168.5v783h67v-783q0 -310 -135.5 -471.5t-382.5 -161.5q-241 0 -368 162.5 t-127 470.5z" />
<glyph unicode="V" horiz-adv-x="1148" d="M31 1393h78l464 -1291l467 1291h78l-502 -1393h-84z" />
<glyph unicode="W" horiz-adv-x="1777" d="M113 1393h77l351 -1291l295 1291h106l299 -1291q67 254 190.5 712.5t155.5 578.5h78l-381 -1393h-92l-303 1290l-303 -1290h-92z" />
<glyph unicode="X" horiz-adv-x="1261" d="M113 0l475 692l-475 701h88l428 -641l432 641h88l-477 -701l477 -692h-88l-432 625l-428 -625h-88z" />
<glyph unicode="Y" horiz-adv-x="1089" d="M31 1393h88l422 -621l430 621h88l-486 -688v-705h-67v707z" />
<glyph unicode="Z" horiz-adv-x="1183" d="M113 0v61l874 1270h-874v62h958v-62l-872 -1270h872v-61h-958z" />
<glyph unicode="[" horiz-adv-x="665" d="M215 -285v1897h358v-62h-286v-1773h286v-62h-358z" />
<glyph unicode="\" horiz-adv-x="819" d="M47 1393h72l653 -1577h-72z" />
<glyph unicode="]" horiz-adv-x="663" d="M92 -223h287v1773h-287v62h359v-1897h-359v62z" />
<glyph unicode="^" horiz-adv-x="1161" d="M113 709l448 684h39l449 -684h-72l-397 581l-396 -581h-71z" />
<glyph unicode="_" horiz-adv-x="1030" d="M-6 -92h1042v-62h-1042v62z" />
<glyph unicode="`" horiz-adv-x="311" d="M51 1393h82l127 -160h-74z" />
<glyph unicode="a" horiz-adv-x="978" d="M92 252q0 110 81.5 185t228.5 111t356 38q0 35 -1.5 62.5t-8 69t-17.5 72.5t-32.5 65.5t-51.5 56.5t-75.5 36.5t-102.5 14.5q-69 0 -152 -29t-131 -64l-45 48q56 44 140.5 75t187.5 31q356 0 356 -432v-592h-63l-10 193q-16 -23 -32.5 -43.5t-51.5 -53.5t-71 -56.5 t-88.5 -41.5t-107.5 -18q-134 0 -221.5 84.5t-87.5 187.5zM164 260q0 -103 69 -161t168 -58q57 0 115.5 27t101.5 64.5t72 71t39 54.5q27 42 27 139v127q-80 -1 -155 -8.5t-157 -26t-142 -46.5t-99 -75t-39 -108z" />
<glyph unicode="b" horiz-adv-x="1132" d="M174 0v1393h74v-594q54 107 142.5 166t193.5 59q126 0 226.5 -71t155 -192t54.5 -269q0 -217 -123 -364.5t-315 -147.5q-116 0 -199.5 58t-134.5 150l-10 -188h-64zM250 502q0 -204 96 -332.5t248 -128.5q151 0 252.5 129.5t101.5 331.5q0 197 -102 329t-252 132 q-151 0 -247.5 -131t-96.5 -330z" />
<glyph unicode="c" horiz-adv-x="985" d="M113 502q0 221 130.5 371.5t319.5 150.5q97 0 182 -44.5t148 -129.5l-49 -39q-50 68 -121.5 110t-159.5 42q-166 0 -272.5 -132t-106.5 -329q0 -198 106.5 -329.5t272.5 -131.5q89 0 163.5 42.5t121.5 109.5l45 -43q-60 -84 -145.5 -127t-184.5 -43q-191 0 -320.5 148.5 t-129.5 373.5z" />
<glyph unicode="d" horiz-adv-x="1132" d="M113 492q0 148 54.5 269t155 192t226.5 71q105 0 193.5 -59t142.5 -166v594h73v-1393h-63l-10 188q-51 -92 -134.5 -150t-199.5 -58q-192 0 -315 147.5t-123 364.5zM184 502q0 -202 102 -331.5t253 -129.5q152 0 248 128.5t96 332.5q0 199 -96.5 330t-247.5 131 q-150 0 -252.5 -132t-102.5 -329z" />
<glyph unicode="e" horiz-adv-x="1058" d="M113 502q0 102 22.5 187.5t62 147t94.5 104t120.5 63t138.5 20.5q191 0 303.5 -128t112.5 -347v-41h-783q0 -203 104.5 -335t286.5 -132q204 0 306 143l51 -34q-66 -87 -151 -128.5t-206 -41.5q-93 0 -170.5 29t-130.5 78.5t-90 116.5t-54 142t-17 156zM182 569h713 q0 97 -29 174t-78 124t-109.5 71.5t-127.5 24.5q-90 0 -172.5 -47.5t-138 -139.5t-58.5 -207z" />
<glyph unicode="f" horiz-adv-x="657" d="M72 942v62h155v133q0 28 8 62.5t28 72.5t48 69t72.5 51.5t97.5 20.5q89 0 170 -35l-30 -57q-45 31 -142 31q-71 0 -127.5 -62t-56.5 -164v-122h323v-62h-323v-942h-68v942h-155z" />
<glyph unicode="g" horiz-adv-x="1021" d="M113 -209q0 67 40.5 132.5t120.5 119.5q-46 19 -73 56.5t-27 88.5q0 89 100 189q-141 112 -141 280q0 148 98.5 258.5t257.5 110.5q145 0 240 -78q23 69 79.5 111.5t125.5 42.5q44 0 82 -17l-25 -67q-18 10 -49 10q-58 0 -111 -39.5t-57 -93.5q76 -98 76 -238 q0 -159 -104.5 -257.5t-256.5 -98.5q-80 0 -165 37q-46 -46 -62 -76t-16 -74q0 -43 40.5 -66.5t105 -31t142.5 -11.5t156.5 -16t143 -37t105 -82t40.5 -143q0 -126 -122 -209.5t-343 -83.5q-181 0 -291 83t-110 200zM184 -199q0 -96 90 -163.5t240 -67.5q81 0 148.5 15 t111.5 38.5t75 54t44.5 61.5t13.5 60q0 52 -16.5 89t-50 59t-72 35t-94.5 19t-104.5 9t-115 7.5t-114.5 11.5q-77 -48 -116.5 -107.5t-39.5 -120.5zM205 662q0 -126 83 -213t204 -87q122 0 204 86.5t82 213.5t-82 215t-204 88q-121 0 -204 -88t-83 -215z" />
<glyph unicode="h" horiz-adv-x="1077" d="M174 0v1393h68v-660q39 106 154.5 198.5t240.5 92.5q113 0 200 -83.5t87 -219.5v-721h-62v692q0 131 -60.5 201t-154.5 70q-69 0 -141 -36.5t-130.5 -97.5t-96 -149.5t-37.5 -183.5v-496h-68z" />
<glyph unicode="i" horiz-adv-x="415" d="M150 1350q0 26 17.5 44.5t43.5 18.5t43.5 -18.5t17.5 -44.5q0 -27 -17.5 -45.5t-43.5 -18.5t-43.5 18.5t-17.5 45.5zM174 0v1004h68v-1004h-68z" />
<glyph unicode="j" horiz-adv-x="491" d="M-195 -471l29 57q37 -16 84 -16q62 0 113 19.5t84.5 50t59.5 72.5t39.5 82t22 84t11 73t2.5 53v1000h67v-1000q0 -71 -13.5 -139.5t-44.5 -134t-76 -114t-114 -78.5t-153 -30q-73 0 -111 21zM223 1350q0 26 18 44.5t44 18.5t43.5 -18.5t17.5 -44.5q0 -27 -17.5 -45.5 t-43.5 -18.5t-44 19t-18 45z" />
<glyph unicode="k" horiz-adv-x="845" d="M174 0v1393h68v-807l479 418h80l-514 -449l528 -555h-82l-491 522v-522h-68z" />
<glyph unicode="l" horiz-adv-x="415" d="M174 0v1393h68v-1393h-68z" />
<glyph unicode="m" horiz-adv-x="1712" d="M174 0v1004h62l8 -273q37 107 144 200t226 93q109 0 194 -79t89 -187q37 101 143 183.5t230 82.5q108 0 198.5 -82.5t90.5 -202.5l-3 -739h-67v692q0 130 -59.5 200.5t-149.5 70.5q-64 0 -131 -28.5t-123.5 -79.5t-92.5 -131.5t-36 -174.5v-549h-68v692q0 130 -58 197 t-146 67q-63 0 -130 -31.5t-123.5 -86t-93 -138t-36.5 -178.5v-522h-68z" />
<glyph unicode="n" horiz-adv-x="1077" d="M174 0v1004h62l6 -271q39 106 154.5 198.5t240.5 92.5q113 0 200 -83.5t87 -219.5v-721h-68v692q0 125 -58 198t-151 73q-69 0 -141 -35t-130.5 -94.5t-96 -147t-37.5 -182.5v-504h-68z" />
<glyph unicode="o" horiz-adv-x="1101" d="M113 502q0 142 60.5 262.5t162.5 190t219 69.5q111 0 211 -69.5t161.5 -190.5t61.5 -262q0 -143 -61.5 -264t-161 -189.5t-211.5 -68.5q-88 0 -169.5 41t-141 110t-95.5 166t-36 205zM184 502q0 -194 110 -327.5t261 -133.5q147 0 255 133.5t108 327.5q0 192 -108 326.5 t-255 134.5q-151 0 -261 -134t-110 -327z" />
<glyph unicode="p" horiz-adv-x="1132" d="M174 -471v1475h64l10 -195q52 94 135.5 154.5t198.5 60.5q127 0 228 -70t155.5 -188t54.5 -260q0 -148 -54.5 -268.5t-155 -190.5t-226.5 -70q-105 0 -193.5 58t-142.5 164v-670h-74zM250 496q0 -199 96.5 -328t247.5 -129q150 0 252 130t102 327q0 202 -101.5 334.5 t-252.5 132.5q-152 0 -248 -131t-96 -336z" />
<glyph unicode="q" horiz-adv-x="1132" d="M113 506q0 142 54.5 260t155.5 188t228 70q115 0 198.5 -60.5t135.5 -154.5l10 195h63v-1475h-73v670q-54 -106 -142.5 -164t-193.5 -58q-126 0 -226.5 70t-155 190.5t-54.5 268.5zM184 496q0 -197 102.5 -327t252.5 -130q151 0 247.5 129t96.5 328q0 205 -96 336 t-248 131q-151 0 -253 -132.5t-102 -334.5z" />
<glyph unicode="r" horiz-adv-x="751" d="M174 0v1004h57l11 -269q12 35 40 79.5t73 94t112.5 82.5t142.5 33q70 0 111 -27l-27 -61q-11 11 -39.5 19t-54.5 8q-96 0 -180.5 -74t-132 -185.5t-47.5 -224.5l2 -479h-68z" />
<glyph unicode="s" horiz-adv-x="778" d="M72 766q0 107 82.5 182.5t230.5 75.5q159 0 264 -98l-41 -45q-85 82 -223 82q-111 0 -176.5 -53t-65.5 -144q0 -23 5 -43t18.5 -38t25 -31.5t36 -29t38.5 -24.5t47 -23.5t46.5 -20.5t50.5 -21t55.5 -23.5t52 -24t51.5 -27.5t44 -30t39.5 -36t28 -41t20.5 -50t6 -57 q0 -107 -100.5 -186.5t-248.5 -79.5q-161 0 -262 98l45 43q80 -80 217 -80q44 0 89.5 12t89 36t71 68.5t27.5 102.5q0 24 -8.5 46t-19 38t-34 33.5t-39.5 28t-50.5 26t-51.5 22.5t-57 23q-42 17 -63.5 26t-59 27.5t-58.5 33t-47.5 37.5t-40.5 46t-24 53.5t-10 65.5z" />
<glyph unicode="t" horiz-adv-x="684" d="M72 942v62h157v243h68v-243h332v-62h-332v-649q0 -101 47 -176.5t139 -75.5q91 0 144 37l26 -55q-74 -43 -178 -43q-63 0 -112 27.5t-77.5 73.5t-42.5 99t-14 111v651h-157z" />
<glyph unicode="u" horiz-adv-x="1077" d="M154 283v721h67v-693q0 -125 58 -197.5t151 -72.5q69 0 141 35t131 94.5t96.5 147t37.5 182.5v504h67v-1004h-61l-6 270q-24 -66 -82.5 -132t-144 -112t-169.5 -46q-113 0 -199.5 83.5t-86.5 219.5z" />
<glyph unicode="v" horiz-adv-x="964" d="M61 1004h72l346 -912l352 912h72l-377 -1004h-92z" />
<glyph unicode="w" horiz-adv-x="1327" d="M72 1004h71l256 -912l224 912h82l223 -912l256 912h71l-282 -1004h-92q-173 723 -217 901q-74 -299 -218 -901h-92z" />
<glyph unicode="x" horiz-adv-x="917" d="M72 0l342 500l-342 504h78l309 -447l309 447h78l-346 -500l346 -504h-78l-313 446l-305 -446h-78z" />
<glyph unicode="y" horiz-adv-x="964" d="M61 1004h74l336 -912l360 912h72l-504 -1280q-41 -109 -102 -162.5t-133 -53.5q-51 0 -92 13l22 61q35 -12 60 -12q52 0 96 41.5t72 114.5l104 276q-49 136 -174 476t-191 526z" />
<glyph unicode="z" horiz-adv-x="868" d="M92 0v61l604 881h-604v62h684v-62l-602 -881h602v-61h-684z" />
<glyph unicode="{" horiz-adv-x="565" d="M172 649q25 24 47.5 53t49.5 74t43 103.5t16 121.5q0 46 -5.5 143t-5.5 150q0 136 32 225t122 142v-72q-86 -93 -86 -276q0 -45 5 -147.5t5 -164.5q0 -112 -36.5 -193.5t-110.5 -158.5q74 -77 110.5 -158.5t36.5 -193.5q0 -62 -5 -164t-5 -147q0 -184 86 -277v-71 q-90 53 -122 141.5t-32 224.5q0 53 5.5 150t5.5 143q0 63 -16 121.5t-43 103.5t-49.5 74t-47.5 53z" />
<glyph unicode="|" horiz-adv-x="497" d="M215 -217v1659h68v-1659h-68z" />
<glyph unicode="}" horiz-adv-x="565" d="M94 -291q86 93 86 277q0 45 -5 147t-5 164q0 112 36.5 193.5t110.5 158.5q-74 77 -110.5 158.5t-36.5 193.5q0 62 5 164.5t5 147.5q0 183 -86 276v72q90 -53 122 -142t32 -225q0 -53 -5 -150t-5 -143q0 -63 16 -121.5t42.5 -103.5t49.5 -74.5t47 -52.5q-24 -23 -47 -52.5 t-49.5 -74.5t-42.5 -103.5t-16 -121.5q0 -46 5 -143t5 -150q0 -136 -32 -224.5t-122 -141.5v71z" />
<glyph unicode="~" horiz-adv-x="1294" d="M113 440q0 152 75.5 228.5t198.5 76.5q52 0 103 -18t90.5 -45.5t82.5 -59t79 -59t81 -45.5t88 -18q59 0 100.5 18.5t63 53.5t30.5 76t9 95h68q0 -305 -275 -305q-59 0 -113.5 25.5t-99 61.5l-89 72t-100.5 61.5t-116 25.5t-103.5 -21.5t-65.5 -58t-32 -77t-10 -87.5h-65z " />
<glyph unicode="&#xa1;" horiz-adv-x="552" d="M215 963q0 26 18 43.5t43 17.5q24 0 43 -18t19 -43q0 -22 -19.5 -40t-42.5 -18q-24 0 -42.5 18t-18.5 40zM242 -389v1026h71v-1026h-71z" />
<glyph unicode="&#xa2;" horiz-adv-x="1005" d="M113 502q0 203 113 349t284 169v197h68v-193q189 -6 315 -174l-49 -39q-50 68 -121.5 110t-159.5 42q-166 0 -272.5 -132t-106.5 -329q0 -198 106.5 -329.5t272.5 -131.5q89 0 163.5 42.5t121.5 109.5l45 -43q-118 -164 -315 -170v-185h-68v189q-173 22 -285 165.5 t-112 352.5z" />
<glyph unicode="&#xa3;" horiz-adv-x="1056" d="M133 0v66q66 8 99.5 33t33.5 83v547h-133v62h133v206q0 82 20.5 153.5t62.5 132t116.5 95.5t173.5 35q70 0 132 -18t153 -56l-31 -63q-23 18 -102.5 47t-151.5 29q-71 0 -126 -21.5t-88 -56t-54 -82.5t-29 -95.5t-8 -99.5v-206h377v-62h-377v-590q0 -52 -41 -78h610v-61 h-770z" />
<glyph unicode="&#xa4;" horiz-adv-x="1302" d="M113 682q0 92 34.5 185t92.5 165l-119 113l47 51l121 -113q74 67 168.5 102.5t191.5 35.5q96 0 192.5 -35t172.5 -101l116 113l48 -49l-119 -111q60 -73 95.5 -167t35.5 -185t-36 -187t-95 -169l119 -111l-48 -49l-116 113q-76 -66 -172.5 -101t-192.5 -35 q-97 0 -191.5 35.5t-168.5 102.5l-121 -113l-47 51l119 113q-58 72 -92.5 163t-34.5 183zM184 682q0 -129 58 -237t164.5 -172t238.5 -64q203 0 338 135t135 340t-135 340t-338 135q-199 0 -330 -139.5t-131 -337.5z" />
<glyph unicode="&#xa5;" horiz-adv-x="1212" d="M92 1393h88l422 -605l430 605h88l-438 -605h209v-61h-256v-102h256v-62h-256v-563h-68v563h-258v62h258v102h-258v61h211z" />
<glyph unicode="&#xa6;" horiz-adv-x="497" d="M215 -223v753h68v-753h-68zM215 666v778h68v-778h-68z" />
<glyph unicode="&#xa7;" horiz-adv-x="970" d="M133 668q0 38 15 67t48.5 52.5t69 40t94.5 38.5q-94 34 -144 92t-50 123q0 112 112 183t265 71q112 0 215 -39l-29 -67q-47 25 -86.5 35t-99.5 10q-120 0 -212.5 -55.5t-92.5 -131.5q0 -53 33 -89.5t86 -56.5t117 -36t128 -32.5t117 -39t86 -64.5t33 -101 q0 -125 -222 -238q181 -82 181 -203q0 -113 -101 -180t-254 -67q-158 0 -223 36l33 66q2 -1 28.5 -9.5t38.5 -11.5l36 -9t45.5 -8.5t43.5 -2.5q127 0 204 50t77 128q0 50 -32.5 87t-85 59t-115.5 40.5t-126 39t-115.5 46.5t-85 71t-32.5 106zM203 668q0 -29 15 -55 t36.5 -44.5t56.5 -35.5t63.5 -27.5t70 -21t62.5 -15t54 -10.5q94 37 149.5 95t55.5 114q0 36 -17 63.5t-45 45t-73.5 31.5t-93 23.5t-113.5 20.5h-2q-4 -2 -35.5 -16.5t-48.5 -23.5t-46.5 -27.5t-46 -34t-29.5 -38t-13 -44.5z" />
<glyph unicode="&#xa8;" horiz-adv-x="561" d="M51 1356q0 23 16.5 40t38.5 17q23 0 40.5 -17t17.5 -40q0 -22 -17.5 -39t-40.5 -17q-22 0 -38.5 17t-16.5 39zM397 1356q0 23 17 40t39 17q23 0 40 -17t17 -40q0 -22 -17 -39t-40 -17q-22 0 -39 17t-17 39z" />
<glyph unicode="&#xa9;" horiz-adv-x="1687" d="M113 698q0 146 57.5 278t155.5 228t233 152.5t283 56.5q199 0 368 -96t267 -261t98 -358q0 -195 -98 -360.5t-266.5 -261.5t-368.5 -96q-148 0 -283 57t-233 153t-155.5 229t-57.5 279zM184 698q0 -183 85 -333.5t235.5 -237t335.5 -86.5q190 0 342 86.5t236.5 236.5 t84.5 334q0 186 -84.5 335t-236 234t-342.5 85q-139 0 -260.5 -50t-208.5 -136t-137 -208t-50 -260zM489 692q0 165 97 276t235 111q150 0 250 -127l-45 -28q-64 100 -207 100q-113 0 -187.5 -95.5t-74.5 -236.5t74.5 -237.5t187.5 -96.5q142 0 207 101l45 -29 q-98 -127 -250 -127q-138 0 -235 111t-97 278z" />
<glyph unicode="&#xaa;" horiz-adv-x="763" d="M113 461v55h532v-55h-532zM113 860q0 79 66.5 134t171.5 80t241 26q0 55 -7.5 96t-27.5 80.5t-62 60.5t-104 21q-58 0 -98.5 -12.5t-85.5 -38.5l-37 47q125 59 221 59q62 0 110 -20t75.5 -51t45 -74t23.5 -83t6 -85v-426h-55l-4 108q-142 -125 -248 -125q-97 0 -164 64 t-67 139zM170 866q0 -70 53 -111.5t121 -41.5q48 0 102.5 28t82.5 52.5t51 48.5q14 23 14 125v80q-50 -1 -91 -4t-93.5 -9.5t-92 -19.5t-74.5 -31.5t-54 -48.5t-19 -68z" />
<glyph unicode="&#xab;" horiz-adv-x="882" d="M139 584l223 391h68l-221 -391l221 -410h-68zM500 584l221 391h72l-224 -391l226 -410h-72z" />
<glyph unicode="&#xac;" horiz-adv-x="1288" d="M123 557v61h1042v-350h-67v289h-975z" />
<glyph unicode="&#xad;" horiz-adv-x="796" d="M174 555v61h449v-61h-449z" />
<glyph unicode="&#xae;" horiz-adv-x="1687" d="M113 698q0 146 57.5 278t155.5 228t233 152.5t283 56.5q199 0 368 -96t267 -261t98 -358q0 -195 -98 -360.5t-266.5 -261.5t-368.5 -96q-148 0 -283 57t-233 153t-155.5 229t-57.5 279zM184 698q0 -183 85 -333.5t235.5 -237t335.5 -86.5q190 0 342 86.5t236.5 236.5 t84.5 334q0 186 -84.5 335t-236 234t-342.5 85q-139 0 -260.5 -50t-208.5 -136t-137 -208t-50 -260zM604 295v768h225q105 0 162.5 -56.5t57.5 -132.5q0 -69 -50.5 -120t-119.5 -56q12 -26 30 -59.5t37.5 -68.5t63.5 -114.5t88 -160.5h-80l-211 403h-139v-403h-64zM668 754 h137q82 0 129 26.5t47 93.5q0 62 -42.5 98t-133.5 36h-137v-254z" />
<glyph unicode="&#xaf;" horiz-adv-x="516" d="M51 1331v62h414v-62h-414z" />
<glyph unicode="&#xb0;" horiz-adv-x="591" d="M113 1223q0 81 54 135.5t130 54.5t129 -53.5t53 -136.5q0 -79 -53 -133t-129 -54t-130 54t-54 133zM170 1223q0 -55 37 -92t90 -37t89 37t36 92q0 58 -36 95.5t-89 37.5t-90 -38t-37 -95z" />
<glyph unicode="&#xb1;" horiz-adv-x="1415" d="M113 -135h1190v-60h-1190v60zM113 559v62h559v569h63v-569h568v-62h-568v-559h-63v559h-559z" />
<glyph unicode="&#xb2;" horiz-adv-x="651" d="M113 719v88q0 54 37.5 106t90.5 94.5t106 84.5t90.5 92.5t37.5 101.5q0 44 -15 76.5t-39.5 50t-50 25.5t-51.5 8q-57 0 -99 -42.5t-42 -137.5h-65q0 100 56.5 167.5t149.5 67.5q98 0 155.5 -57.5t57.5 -157.5q0 -62 -37.5 -119t-90.5 -100t-106 -83t-90.5 -85t-37.5 -90 v-35h369v-55h-426z" />
<glyph unicode="&#xb3;" horiz-adv-x="671" d="M113 942h63q1 -86 49 -133t113 -47q64 0 114 48t50 122q0 66 -46.5 116t-131.5 56h-105v57h103q71 0 113 43t42 101q0 56 -41 97.5t-112 41.5q-61 0 -102.5 -45t-45.5 -133h-63q0 98 58 166.5t151 68.5q91 0 152 -61.5t61 -139.5q0 -106 -111 -159q64 -28 99.5 -85 t35.5 -122q0 -92 -61.5 -159.5t-163.5 -67.5q-94 0 -157.5 68.5t-63.5 166.5z" />
<glyph unicode="&#xb4;" horiz-adv-x="311" d="M51 1233l127 160h82l-135 -160h-74z" />
<glyph unicode="&#xb5;" horiz-adv-x="1097" d="M174 -471v1475h68v-693q0 -125 58 -197.5t151 -72.5q69 0 141 35t130.5 94.5t96 147t37.5 182.5v504h68v-1004h-62l-6 270q-18 -49 -57 -100t-91 -93.5t-117.5 -69.5t-129.5 -27q-63 0 -120.5 27t-98.5 77v-555h-68z" />
<glyph unicode="&#xb6;" horiz-adv-x="1161" d="M113 1014q0 70 28.5 136.5t81 121t138.5 88t192 33.5h496v-1602h-68v1540h-342v-1540h-68v836q-104 1 -192 34.5t-145 88t-89 123t-32 141.5z" />
<glyph unicode="&#xb7;" horiz-adv-x="487" d="M174 588q0 31 20.5 52.5t49.5 21.5t49 -21.5t20 -52.5q0 -30 -20 -51t-49 -21t-49.5 21.5t-20.5 50.5z" />
<glyph unicode="&#xb8;" horiz-adv-x="434" d="M51 -412l41 41q35 -32 61.5 -45.5t59.5 -13.5q50 0 78 32.5t28 69.5q0 38 -31.5 68t-86.5 31q-26 -2 -74 -15l66 246h61l-43 -174q71 0 121.5 -44t50.5 -112q0 -62 -46 -113t-126 -51q-97 0 -160 80z" />
<glyph unicode="&#xb9;" horiz-adv-x="526" d="M72 717v55h141v612q-11 -11 -39 -44t-47 -52l-41 29l129 164h57v-709h142v-55h-342z" />
<glyph unicode="&#xba;" horiz-adv-x="849" d="M113 1040q0 155 91 264t222 109q127 0 219 -110t92 -263q0 -155 -92.5 -269t-218.5 -114q-131 0 -222 113t-91 270zM131 461v55h576v-55h-576zM170 1040q0 -137 76.5 -232t179.5 -95q104 0 178 94.5t74 232.5q0 133 -74.5 225.5t-177.5 92.5t-179.5 -93t-76.5 -225z" />
<glyph unicode="&#xbb;" horiz-adv-x="882" d="M139 174l226 410l-224 391h72l221 -391l-223 -410h-72zM500 174l225 410l-225 391h71l224 -391l-224 -410h-71z" />
<glyph unicode="&#xbc;" horiz-adv-x="1255" d="M113 629v55h141v612q-11 -11 -39 -44t-47 -52l-41 29l129 164h57v-709h142v-55h-342zM193 0l839 1395h68l-840 -1395h-67zM639 197v57l338 508h70v-510h96v-55h-96v-197h-58v197h-350zM702 252h287v430z" />
<glyph unicode="&#xbd;" horiz-adv-x="1290" d="M113 629v55h141v612q-11 -11 -39 -44t-47 -52l-41 29l129 164h57v-709h142v-55h-342zM193 0l839 1395h68l-840 -1395h-67zM752 0v88q0 54 37.5 106t90.5 94.5t106 84.5t90.5 92.5t37.5 101.5q0 44 -15 76.5t-39.5 50t-50 25.5t-51.5 8q-57 0 -99 -42.5t-42 -137.5h-65 q0 100 56.5 167.5t149.5 67.5q98 0 155.5 -57.5t57.5 -157.5q0 -62 -37.5 -119t-90.5 -100t-106 -83t-90.5 -85t-37.5 -90v-35h369v-55h-426z" />
<glyph unicode="&#xbe;" horiz-adv-x="1323" d="M113 856h63q1 -86 49 -133t113 -47q64 0 114 48t50 122q0 66 -46.5 116t-131.5 56h-105v57h103q71 0 113 43t42 101q0 56 -41 97.5t-112 41.5q-61 0 -102.5 -45t-45.5 -133h-63q0 98 58 166.5t151 68.5q91 0 152 -61.5t61 -139.5q0 -106 -111 -159q64 -28 99.5 -85 t35.5 -122q0 -92 -61.5 -159.5t-163.5 -67.5q-94 0 -157.5 68.5t-63.5 166.5zM260 0l840 1395h67l-839 -1395h-68zM707 197v57l337 508h70v-510h96v-55h-96v-197h-57v197h-350zM770 252h287v430z" />
<glyph unicode="&#xbf;" horiz-adv-x="804" d="M113 -66q0 55 18 103t47 83.5t63.5 69t69.5 66.5t64 67.5t47 81t18 99.5v133h68v-133q0 -64 -24 -120.5t-60 -95.5t-78 -81t-78 -78.5t-60 -87.5t-24 -107q0 -63 19 -113t48.5 -81t68 -51.5t74 -28.5t69.5 -8q81 0 138 33t120 98l53 -43q-143 -150 -311 -150 q-156 0 -253 91.5t-97 252.5zM412 965q0 26 16.5 42.5t38.5 16.5q25 0 43 -16.5t18 -42.5q0 -22 -18.5 -40t-42.5 -18q-21 0 -38 18t-17 40z" />
<glyph unicode="&#xc0;" horiz-adv-x="1142" d="M31 0l501 1393h74l506 -1393h-74l-174 485l-585 2l-177 -487h-71zM305 549h541l-277 741zM399 1753h82l127 -160h-73z" />
<glyph unicode="&#xc1;" horiz-adv-x="1142" d="M31 0l501 1393h74l506 -1393h-74l-174 485l-585 2l-177 -487h-71zM305 549h541l-277 741zM530 1593l127 160h82l-135 -160h-74z" />
<glyph unicode="&#xc2;" horiz-adv-x="1142" d="M31 0l501 1393h74l506 -1393h-74l-174 485l-585 2l-177 -487h-71zM305 549h541l-277 741zM401 1599l136 154h71l137 -154h-61l-113 101l-108 -101h-62z" />
<glyph unicode="&#xc3;" horiz-adv-x="1142" d="M31 0l501 1393h74l506 -1393h-74l-174 485l-585 2l-177 -487h-71zM285 1638q5 26 13.5 46.5t25 42t46.5 33.5t72 12q35 0 70.5 -14t59.5 -31.5t57.5 -31.5t66.5 -14q42 0 68.5 13.5t34.5 58.5h61q-19 -133 -166 -133q-43 0 -91 22.5t-89.5 45t-69.5 22.5q-85 0 -98 -72 h-61zM305 549h541l-277 741z" />
<glyph unicode="&#xc4;" horiz-adv-x="1142" d="M31 0l501 1393h74l506 -1393h-74l-174 485l-585 2l-177 -487h-71zM305 549h541l-277 741zM340 1716q0 23 16.5 40.5t38.5 17.5q23 0 40.5 -17.5t17.5 -40.5q0 -22 -17.5 -38.5t-40.5 -16.5q-22 0 -38.5 16.5t-16.5 38.5zM686 1716q0 23 16.5 40.5t38.5 17.5 q23 0 40.5 -17.5t17.5 -40.5q0 -22 -17.5 -38.5t-40.5 -16.5q-22 0 -38.5 16.5t-16.5 38.5z" />
<glyph unicode="&#xc5;" horiz-adv-x="1142" d="M31 0l501 1393h74l506 -1393h-74l-174 485l-585 2l-177 -487h-71zM305 549h541l-277 741zM428 1630q0 59 42.5 101.5t104.5 42.5q57 0 99.5 -43t42.5 -101q0 -62 -42 -106.5t-100 -44.5q-63 0 -105 44t-42 107zM489 1630q0 -39 23.5 -64.5t60.5 -25.5q33 0 57.5 26 t24.5 64q0 32 -25 57t-57 25q-36 0 -60 -24.5t-24 -57.5z" />
<glyph unicode="&#xc6;" horiz-adv-x="1693" d="M31 0l780 1393h750v-62h-643v-543h585v-61h-585v-666h643v-61h-711v492l-465 2l-276 -494h-78zM414 553h438v780z" />
<glyph unicode="&#xc7;" horiz-adv-x="1300" d="M113 696q0 152 48 286t131 228t197.5 148.5t243.5 54.5q138 0 258 -63t207 -183l-45 -45q-73 109 -181.5 169.5t-238.5 60.5q-151 0 -278 -90t-199 -240.5t-72 -325.5q0 -176 72 -326.5t199 -239.5t278 -89q130 0 240.5 62.5t179.5 168.5l45 -47q-164 -235 -442 -245 l-37 -152q71 0 121.5 -44t50.5 -112q0 -62 -46 -113t-126 -51q-97 0 -160 80l41 41q35 -32 61.5 -45.5t59.5 -13.5q50 0 78 32.5t28 69.5q0 38 -31.5 68t-86.5 31q-26 -2 -74 -15l59 226q-122 7 -229.5 64t-185 150.5t-122 223t-44.5 276.5z" />
<glyph unicode="&#xc8;" horiz-adv-x="1052" d="M215 0v1393h705v-62h-637v-543h581v-61h-581v-666h637v-61h-705zM395 1753h82l127 -160h-74z" />
<glyph unicode="&#xc9;" horiz-adv-x="1052" d="M215 0v1393h705v-62h-637v-543h581v-61h-581v-666h637v-61h-705zM526 1593l127 160h82l-135 -160h-74z" />
<glyph unicode="&#xca;" horiz-adv-x="1052" d="M215 0v1393h705v-62h-637v-543h581v-61h-581v-666h637v-61h-705zM395 1599l135 154h72l137 -154h-61l-113 101l-108 -101h-62z" />
<glyph unicode="&#xcb;" horiz-adv-x="1052" d="M215 0v1393h705v-62h-637v-543h581v-61h-581v-666h637v-61h-705zM338 1716q0 23 16.5 40.5t38.5 17.5q23 0 40.5 -17.5t17.5 -40.5q0 -22 -17.5 -38.5t-40.5 -16.5q-22 0 -38.5 16.5t-16.5 38.5zM684 1716q0 23 16.5 40.5t38.5 17.5q23 0 40.5 -17.5t17.5 -40.5 q0 -22 -17.5 -38.5t-40.5 -16.5q-22 0 -38.5 16.5t-16.5 38.5z" />
<glyph unicode="&#xcc;" horiz-adv-x="497" d="M82 1753h82l127 -160h-74zM215 0v1393h68v-1393h-68z" />
<glyph unicode="&#xcd;" horiz-adv-x="497" d="M213 1593l127 160h82l-135 -160h-74zM215 0v1393h68v-1393h-68z" />
<glyph unicode="&#xce;" horiz-adv-x="497" d="M76 1599l135 154h72l137 -154h-62l-112 101l-109 -101h-61zM215 0v1393h68v-1393h-68z" />
<glyph unicode="&#xcf;" horiz-adv-x="497" d="M18 1716q0 23 17 40.5t39 17.5q23 0 40 -17.5t17 -40.5q0 -22 -17 -38.5t-40 -16.5q-22 0 -39 16.5t-17 38.5zM215 0v1393h68v-1393h-68zM365 1716q0 23 16.5 40.5t38.5 17.5q23 0 40 -17.5t17 -40.5q0 -22 -17 -38.5t-40 -16.5q-22 0 -38.5 16.5t-16.5 38.5z" />
<glyph unicode="&#xd0;" horiz-adv-x="1288" d="M111 727v61h79v605h304q307 0 482 -185t175 -514q0 -328 -174.5 -511t-482.5 -183h-304v727h-79zM258 61h236q130 0 234.5 36t184 110t123 197.5t43.5 289.5q0 165 -43.5 289t-123 199t-184 112t-234.5 37h-236v-543h363v-61h-363v-666z" />
<glyph unicode="&#xd1;" horiz-adv-x="1349" d="M215 0v1393h88l764 -1291v1291h68v-1393h-88l-764 1292v-1292h-68zM387 1638q5 26 13.5 46.5t25.5 42t47 33.5t72 12q35 0 70.5 -14t59.5 -31.5t57.5 -31.5t66.5 -14q42 0 68 13.5t34 58.5h62q-19 -133 -166 -133q-43 0 -91 22.5t-89.5 45t-69.5 22.5q-85 0 -98 -72h-62z " />
<glyph unicode="&#xd2;" d="M113 696q0 195 81.5 359.5t224.5 261t314 96.5q166 0 305.5 -96t220 -261t80.5 -360q0 -194 -80.5 -358.5t-220 -261t-305.5 -96.5q-128 0 -243.5 57t-197.5 153.5t-130.5 228.5t-48.5 277zM184 696q0 -185 72.5 -335.5t198 -235t278.5 -84.5q109 0 207.5 50t170.5 136 t114.5 208t42.5 261q0 183 -72 334t-194.5 236.5t-268.5 85.5q-152 0 -278 -85.5t-198.5 -236t-72.5 -334.5zM563 1753h82l127 -160h-74z" />
<glyph unicode="&#xd3;" d="M113 696q0 195 81.5 359.5t224.5 261t314 96.5q166 0 305.5 -96t220 -261t80.5 -360q0 -194 -80.5 -358.5t-220 -261t-305.5 -96.5q-128 0 -243.5 57t-197.5 153.5t-130.5 228.5t-48.5 277zM184 696q0 -185 72.5 -335.5t198 -235t278.5 -84.5q109 0 207.5 50t170.5 136 t114.5 208t42.5 261q0 183 -72 334t-194.5 236.5t-268.5 85.5q-152 0 -278 -85.5t-198.5 -236t-72.5 -334.5zM700 1593l127 160h82l-135 -160h-74z" />
<glyph unicode="&#xd4;" d="M113 696q0 195 81.5 359.5t224.5 261t314 96.5q166 0 305.5 -96t220 -261t80.5 -360q0 -194 -80.5 -358.5t-220 -261t-305.5 -96.5q-128 0 -243.5 57t-197.5 153.5t-130.5 228.5t-48.5 277zM184 696q0 -185 72.5 -335.5t198 -235t278.5 -84.5q109 0 207.5 50t170.5 136 t114.5 208t42.5 261q0 183 -72 334t-194.5 236.5t-268.5 85.5q-152 0 -278 -85.5t-198.5 -236t-72.5 -334.5zM555 1599l135 154h72l137 -154h-61l-113 101l-109 -101h-61z" />
<glyph unicode="&#xd5;" d="M113 696q0 195 81.5 359.5t224.5 261t314 96.5q166 0 305.5 -96t220 -261t80.5 -360q0 -194 -80.5 -358.5t-220 -261t-305.5 -96.5q-128 0 -243.5 57t-197.5 153.5t-130.5 228.5t-48.5 277zM184 696q0 -185 72.5 -335.5t198 -235t278.5 -84.5q109 0 207.5 50t170.5 136 t114.5 208t42.5 261q0 183 -72 334t-194.5 236.5t-268.5 85.5q-152 0 -278 -85.5t-198.5 -236t-72.5 -334.5zM438 1638q5 26 13.5 46.5t25.5 42t47 33.5t72 12q35 0 70.5 -14t59.5 -31.5t57.5 -31.5t66.5 -14q42 0 68 13.5t34 58.5h62q-19 -133 -166 -133q-43 0 -91 22.5 t-89.5 45t-69.5 22.5q-85 0 -98 -72h-62z" />
<glyph unicode="&#xd6;" d="M113 696q0 195 81.5 359.5t224.5 261t314 96.5q166 0 305.5 -96t220 -261t80.5 -360q0 -194 -80.5 -358.5t-220 -261t-305.5 -96.5q-128 0 -243.5 57t-197.5 153.5t-130.5 228.5t-48.5 277zM184 696q0 -185 72.5 -335.5t198 -235t278.5 -84.5q109 0 207.5 50t170.5 136 t114.5 208t42.5 261q0 183 -72 334t-194.5 236.5t-268.5 85.5q-152 0 -278 -85.5t-198.5 -236t-72.5 -334.5zM496 1716q0 23 16.5 40.5t38.5 17.5q23 0 40 -17.5t17 -40.5q0 -22 -17 -38.5t-40 -16.5q-22 0 -38.5 16.5t-16.5 38.5zM842 1716q0 23 16.5 40.5t38.5 17.5 q23 0 40 -17.5t17 -40.5q0 -22 -17 -38.5t-40 -16.5q-22 0 -38.5 16.5t-16.5 38.5z" />
<glyph unicode="&#xd7;" horiz-adv-x="1116" d="M113 1006l49 43l393 -398l395 398l54 -43l-400 -400l389 -399l-49 -43l-389 393l-387 -393l-49 43l389 399z" />
<glyph unicode="&#xd8;" d="M113 696q0 195 81.5 359.5t224.5 261t314 96.5q123 0 236 -55l41 96h71l-55 -131q143 -92 228 -259.5t85 -367.5q0 -194 -80.5 -358.5t-220 -261t-305.5 -96.5q-125 0 -241 55l-48 -117h-71l61 150q-148 92 -234.5 259.5t-86.5 368.5zM184 696q0 -187 73.5 -337.5 t199.5 -235.5l487 1175q-97 54 -211 54q-152 0 -278 -85.5t-198.5 -236t-72.5 -334.5zM516 90q98 -49 217 -49q109 0 207.5 50t170.5 136t114.5 208t42.5 261q0 183 -72.5 333t-194.5 235z" />
<glyph unicode="&#xd9;" horiz-adv-x="1402" d="M195 610v783h67v-783q0 -91 13 -168t33 -132t50 -99t59.5 -71.5t66.5 -48t64.5 -30t60.5 -15t48 -6.5t33 -1q20 0 36.5 0.5t51.5 6t64 15t68 30t69 48t62 71.5t52.5 99t34 132.5t13.5 168.5v783h67v-783q0 -310 -135.5 -471.5t-382.5 -161.5q-241 0 -368 162.5 t-127 470.5zM541 1753h82l127 -160h-74z" />
<glyph unicode="&#xda;" horiz-adv-x="1402" d="M195 610v783h67v-783q0 -91 13 -168t33 -132t50 -99t59.5 -71.5t66.5 -48t64.5 -30t60.5 -15t48 -6.5t33 -1q20 0 36.5 0.5t51.5 6t64 15t68 30t69 48t62 71.5t52.5 99t34 132.5t13.5 168.5v783h67v-783q0 -310 -135.5 -471.5t-382.5 -161.5q-241 0 -368 162.5 t-127 470.5zM659 1593l127 160h82l-135 -160h-74z" />
<glyph unicode="&#xdb;" horiz-adv-x="1402" d="M195 610v783h67v-783q0 -91 13 -168t33 -132t50 -99t59.5 -71.5t66.5 -48t64.5 -30t60.5 -15t48 -6.5t33 -1q20 0 36.5 0.5t51.5 6t64 15t68 30t69 48t62 71.5t52.5 99t34 132.5t13.5 168.5v783h67v-783q0 -310 -135.5 -471.5t-382.5 -161.5q-241 0 -368 162.5 t-127 470.5zM532 1599l136 154h71l138 -154h-62l-113 101l-108 -101h-62z" />
<glyph unicode="&#xdc;" horiz-adv-x="1402" d="M195 610v783h67v-783q0 -91 13 -168t33 -132t50 -99t59.5 -71.5t66.5 -48t64.5 -30t60.5 -15t48 -6.5t33 -1q20 0 36.5 0.5t51.5 6t64 15t68 30t69 48t62 71.5t52.5 99t34 132.5t13.5 168.5v783h67v-783q0 -310 -135.5 -471.5t-382.5 -161.5q-241 0 -368 162.5 t-127 470.5zM471 1716q0 23 16.5 40.5t38.5 17.5q23 0 40.5 -17.5t17.5 -40.5q0 -22 -17.5 -38.5t-40.5 -16.5q-22 0 -38.5 16.5t-16.5 38.5zM817 1716q0 23 16.5 40.5t38.5 17.5q23 0 40.5 -17.5t17.5 -40.5q0 -22 -17.5 -38.5t-40.5 -16.5q-22 0 -38.5 16.5t-16.5 38.5z " />
<glyph unicode="&#xdd;" horiz-adv-x="1089" d="M31 1393h88l422 -621l430 621h88l-486 -688v-705h-67v707zM496 1593l127 160h82l-136 -160h-73z" />
<glyph unicode="&#xde;" horiz-adv-x="1044" d="M215 0v1393h68v-330h305q121 0 213 -54t137 -136.5t45 -176.5q0 -74 -27.5 -140.5t-77.5 -117t-125 -80.5t-165 -30h-305v-328h-68zM283 389h319q125 0 217 87t92 220q0 130 -89 217.5t-234 87.5h-305v-612z" />
<glyph unicode="&#xdf;" horiz-adv-x="1056" d="M174 0v963q0 94 19 173.5t57 142.5t103 98.5t151 35.5q82 0 141 -28t88.5 -72.5t42 -87.5t12.5 -86q0 -45 -24.5 -96t-54 -88t-54 -81t-24.5 -77q0 -99 145 -213q11 -9 41 -33t43.5 -36t37.5 -34.5t36 -40.5t26 -43t19.5 -52t5.5 -58q0 -135 -90.5 -221t-214.5 -86 q-174 0 -266 118l43 45q26 -39 82.5 -70.5t140.5 -31.5q95 0 164 65t69 170q0 38 -13 72t-43.5 68.5t-56 57.5t-73.5 63q-43 36 -64.5 56t-50 54.5t-41 70.5t-12.5 79q0 36 16.5 73.5t39.5 69.5t46 63.5t39.5 67t16.5 68.5q0 95 -55 154t-158 59q-58 0 -104.5 -22.5 t-75.5 -58.5t-48 -84t-26.5 -94.5t-7.5 -95.5v-997h-68z" />
<glyph unicode="&#xe0;" horiz-adv-x="978" d="M92 252q0 110 81.5 185t228.5 111t356 38q0 35 -1.5 62.5t-8 69t-17.5 72.5t-32.5 65.5t-51.5 56.5t-75.5 36.5t-102.5 14.5q-69 0 -152 -29t-131 -64l-45 48q56 44 140.5 75t187.5 31q356 0 356 -432v-592h-63l-10 193q-16 -23 -32.5 -43.5t-51.5 -53.5t-71 -56.5 t-88.5 -41.5t-107.5 -18q-134 0 -221.5 84.5t-87.5 187.5zM164 260q0 -103 69 -161t168 -58q57 0 115.5 27t101.5 64.5t72 71t39 54.5q27 42 27 139v127q-80 -1 -155 -8.5t-157 -26t-142 -46.5t-99 -75t-39 -108zM354 1393h82l127 -160h-74z" />
<glyph unicode="&#xe1;" horiz-adv-x="978" d="M92 252q0 110 81.5 185t228.5 111t356 38q0 35 -1.5 62.5t-8 69t-17.5 72.5t-32.5 65.5t-51.5 56.5t-75.5 36.5t-102.5 14.5q-69 0 -152 -29t-131 -64l-45 48q56 44 140.5 75t187.5 31q356 0 356 -432v-592h-63l-10 193q-16 -23 -32.5 -43.5t-51.5 -53.5t-71 -56.5 t-88.5 -41.5t-107.5 -18q-134 0 -221.5 84.5t-87.5 187.5zM164 260q0 -103 69 -161t168 -58q57 0 115.5 27t101.5 64.5t72 71t39 54.5q27 42 27 139v127q-80 -1 -155 -8.5t-157 -26t-142 -46.5t-99 -75t-39 -108zM416 1233l127 160h82l-136 -160h-73z" />
<glyph unicode="&#xe2;" horiz-adv-x="978" d="M92 252q0 110 81.5 185t228.5 111t356 38q0 35 -1.5 62.5t-8 69t-17.5 72.5t-32.5 65.5t-51.5 56.5t-75.5 36.5t-102.5 14.5q-69 0 -152 -29t-131 -64l-45 48q56 44 140.5 75t187.5 31q356 0 356 -432v-592h-63l-10 193q-16 -23 -32.5 -43.5t-51.5 -53.5t-71 -56.5 t-88.5 -41.5t-107.5 -18q-134 0 -221.5 84.5t-87.5 187.5zM164 260q0 -103 69 -161t168 -58q57 0 115.5 27t101.5 64.5t72 71t39 54.5q27 42 27 139v127q-80 -1 -155 -8.5t-157 -26t-142 -46.5t-99 -75t-39 -108zM317 1239l136 154h71l138 -154h-62l-113 100l-108 -100h-62z " />
<glyph unicode="&#xe3;" horiz-adv-x="978" d="M92 252q0 110 81.5 185t228.5 111t356 38q0 35 -1.5 62.5t-8 69t-17.5 72.5t-32.5 65.5t-51.5 56.5t-75.5 36.5t-102.5 14.5q-69 0 -152 -29t-131 -64l-45 48q56 44 140.5 75t187.5 31q356 0 356 -432v-592h-63l-10 193q-16 -23 -32.5 -43.5t-51.5 -53.5t-71 -56.5 t-88.5 -41.5t-107.5 -18q-134 0 -221.5 84.5t-87.5 187.5zM164 260q0 -103 69 -161t168 -58q57 0 115.5 27t101.5 64.5t72 71t39 54.5q27 42 27 139v127q-80 -1 -155 -8.5t-157 -26t-142 -46.5t-99 -75t-39 -108zM184 1278q5 26 13.5 46.5t25.5 41.5t47 33t72 12 q44 0 87 -22.5t84.5 -45t82.5 -22.5q42 0 68 13.5t34 58.5h62q-19 -133 -166 -133q-43 0 -91 22.5t-89.5 45t-69.5 22.5q-85 0 -98 -72h-62z" />
<glyph unicode="&#xe4;" horiz-adv-x="978" d="M92 252q0 110 81.5 185t228.5 111t356 38q0 35 -1.5 62.5t-8 69t-17.5 72.5t-32.5 65.5t-51.5 56.5t-75.5 36.5t-102.5 14.5q-69 0 -152 -29t-131 -64l-45 48q56 44 140.5 75t187.5 31q356 0 356 -432v-592h-63l-10 193q-16 -23 -32.5 -43.5t-51.5 -53.5t-71 -56.5 t-88.5 -41.5t-107.5 -18q-134 0 -221.5 84.5t-87.5 187.5zM164 260q0 -103 69 -161t168 -58q57 0 115.5 27t101.5 64.5t72 71t39 54.5q27 42 27 139v127q-80 -1 -155 -8.5t-157 -26t-142 -46.5t-99 -75t-39 -108zM246 1356q0 23 16.5 40t38.5 17q23 0 40 -17t17 -40 q0 -22 -17 -39t-40 -17q-22 0 -38.5 17t-16.5 39zM592 1356q0 23 16.5 40t38.5 17q23 0 40.5 -17t17.5 -40q0 -22 -17.5 -39t-40.5 -17q-22 0 -38.5 17t-16.5 39z" />
<glyph unicode="&#xe5;" horiz-adv-x="999" d="M113 252q0 165 173.5 248t491.5 86q0 35 -1.5 62.5t-8 69t-17.5 72.5t-32.5 65.5t-51.5 56.5t-75.5 36.5t-102.5 14.5q-69 0 -151.5 -29t-130.5 -64l-45 48q56 44 140.5 75t186.5 31q357 0 357 -432v-592h-64l-10 193q-16 -23 -32.5 -43.5t-51 -54t-70.5 -56.5t-88.5 -41 t-107.5 -18q-134 0 -221.5 84.5t-87.5 187.5zM184 260q0 -103 69.5 -161t168.5 -58q57 0 115.5 27t101.5 64.5t72 71t39 54.5q26 41 26 139v127q-80 -1 -155 -8.5t-157 -26t-142 -46.5t-99 -75t-39 -108zM358 1270q0 59 43 101t105 42q57 0 99 -42.5t42 -100.5 q0 -63 -42 -107.5t-99 -44.5q-63 0 -105.5 44.5t-42.5 107.5zM420 1270q0 -39 23.5 -64.5t60.5 -25.5q33 0 57.5 26t24.5 64q0 32 -25 57t-57 25q-36 0 -60 -24.5t-24 -57.5z" />
<glyph unicode="&#xe6;" horiz-adv-x="1718" d="M92 250q0 91 51 154.5t147 98.5t212 50t268 16q0 88 -14.5 156.5t-48 123.5t-93 84.5t-143.5 29.5q-68 0 -148.5 -28.5t-136.5 -64.5l-47 48q59 47 150.5 76.5t181.5 29.5q94 0 172 -39t120 -91t58 -108q18 39 51 78t80 76.5t113 60.5t139 23q85 0 155.5 -25t119 -68.5 t82.5 -103.5t49.5 -129t15.5 -145v-45h-786q0 -214 109.5 -340.5t279.5 -126.5q95 0 182 40t125 109l47 -40q-111 -170 -354 -170q-79 0 -147.5 23.5t-118.5 63.5t-84 81t-60 88q-39 -94 -158 -175t-260 -81q-133 0 -221 85t-88 185zM162 266q0 -106 70.5 -165.5 t168.5 -59.5q64 0 130.5 25t113.5 61t78 72.5t35 60.5q10 59 10 137v111q-61 -1 -109 -2.5t-114 -7.5t-115.5 -16t-102.5 -28t-87 -42.5t-56 -62t-22 -83.5zM846 569h710q0 91 -30 167t-80 125t-112.5 75.5t-129.5 26.5q-139 0 -245.5 -106t-112.5 -288z" />
<glyph unicode="&#xe7;" horiz-adv-x="933" d="M113 502q0 221 130.5 371.5t319.5 150.5q97 0 182 -44.5t148 -129.5l-49 -39q-50 68 -121.5 110t-159.5 42q-166 0 -272.5 -132t-106.5 -329q0 -198 106.5 -329.5t272.5 -131.5q89 0 163.5 42.5t121.5 109.5l45 -43q-111 -155 -299 -168l-37 -154q71 0 121.5 -44 t50.5 -112q0 -62 -46 -113t-126 -51q-97 0 -160 80l41 41q35 -32 61.5 -45.5t59.5 -13.5q50 0 78.5 32.5t28.5 69.5q0 38 -32 68t-87 31q-26 -2 -74 -15l59 226q-180 12 -299.5 158t-119.5 362z" />
<glyph unicode="&#xe8;" horiz-adv-x="1058" d="M113 502q0 102 22.5 187.5t62 147t94.5 104t120.5 63t138.5 20.5q191 0 303.5 -128t112.5 -347v-41h-783q0 -203 104.5 -335t286.5 -132q204 0 306 143l51 -34q-66 -87 -151 -128.5t-206 -41.5q-93 0 -170.5 29t-130.5 78.5t-90 116.5t-54 142t-17 156zM182 569h713 q0 97 -29 174t-78 124t-109.5 71.5t-127.5 24.5q-90 0 -172.5 -47.5t-138 -139.5t-58.5 -207zM375 1393h82l127 -160h-74z" />
<glyph unicode="&#xe9;" horiz-adv-x="1058" d="M113 502q0 102 22.5 187.5t62 147t94.5 104t120.5 63t138.5 20.5q191 0 303.5 -128t112.5 -347v-41h-783q0 -203 104.5 -335t286.5 -132q204 0 306 143l51 -34q-66 -87 -151 -128.5t-206 -41.5q-93 0 -170.5 29t-130.5 78.5t-90 116.5t-54 142t-17 156zM182 569h713 q0 97 -29 174t-78 124t-109.5 71.5t-127.5 24.5q-90 0 -172.5 -47.5t-138 -139.5t-58.5 -207zM510 1233l127 160h82l-135 -160h-74z" />
<glyph unicode="&#xea;" horiz-adv-x="1058" d="M113 502q0 102 22.5 187.5t62 147t94.5 104t120.5 63t138.5 20.5q191 0 303.5 -128t112.5 -347v-41h-783q0 -203 104.5 -335t286.5 -132q204 0 306 143l51 -34q-66 -87 -151 -128.5t-206 -41.5q-93 0 -170.5 29t-130.5 78.5t-90 116.5t-54 142t-17 156zM182 569h713 q0 97 -29 174t-78 124t-109.5 71.5t-127.5 24.5q-90 0 -172.5 -47.5t-138 -139.5t-58.5 -207zM371 1239l135 154h72l137 -154h-62l-112 100l-109 -100h-61z" />
<glyph unicode="&#xeb;" horiz-adv-x="1058" d="M113 502q0 102 22.5 187.5t62 147t94.5 104t120.5 63t138.5 20.5q191 0 303.5 -128t112.5 -347v-41h-783q0 -203 104.5 -335t286.5 -132q204 0 306 143l51 -34q-66 -87 -151 -128.5t-206 -41.5q-93 0 -170.5 29t-130.5 78.5t-90 116.5t-54 142t-17 156zM182 569h713 q0 97 -29 174t-78 124t-109.5 71.5t-127.5 24.5q-90 0 -172.5 -47.5t-138 -139.5t-58.5 -207zM305 1356q0 23 16.5 40t38.5 17q23 0 40.5 -17t17.5 -40q0 -22 -17.5 -39t-40.5 -17q-22 0 -38.5 17t-16.5 39zM651 1356q0 23 17 40t39 17q23 0 40 -17t17 -40q0 -22 -17 -39 t-40 -17q-22 0 -39 17t-17 39z" />
<glyph unicode="&#xec;" horiz-adv-x="415" d="M33 1393h82l127 -160h-74zM174 0v1004h68v-1004h-68z" />
<glyph unicode="&#xed;" horiz-adv-x="415" d="M168 1233l127 160h82l-135 -160h-74zM174 0v1004h68v-1004h-68z" />
<glyph unicode="&#xee;" horiz-adv-x="415" d="M33 1239l135 154h72l137 -154h-62l-112 100l-109 -100h-61zM174 0v1004h68v-1004h-68z" />
<glyph unicode="&#xef;" horiz-adv-x="415" d="M-25 1356q0 23 17 40t39 17q23 0 40 -17t17 -40q0 -22 -17 -39t-40 -17q-22 0 -39 17t-17 39zM174 0v1004h68v-1004h-68zM322 1356q0 23 16.5 40t38.5 17q23 0 40 -17t17 -40q0 -22 -17 -39t-40 -17q-22 0 -38.5 17t-16.5 39z" />
<glyph unicode="&#xf0;" horiz-adv-x="1028" d="M109 426q0 67 12.5 131.5t41.5 126.5t71.5 108t108 74.5t146.5 28.5q92 0 190 -50t171 -128q-12 121 -56.5 258.5t-119.5 234.5l-133 -143h-72l170 182q-100 103 -221 103q-92 0 -154 -41l-53 49q28 24 83.5 38.5t119.5 14.5q158 0 274 -113l82 91h72l-119 -127 q99 -115 148 -291t49 -346q0 -57 -4.5 -114t-17.5 -122.5t-33 -122.5t-53 -111t-75.5 -92.5t-103 -61.5t-133.5 -23q-82 0 -149 27t-111 71.5t-74.5 103t-43.5 120t-13 124.5zM180 432q0 -97 28 -174.5t73.5 -123t99.5 -69.5t111 -24q44 0 87 13.5t91.5 52t85 98.5 t61.5 162.5t27 234.5q-41 86 -151 159t-199 73q-141 0 -227.5 -112t-86.5 -290z" />
<glyph unicode="&#xf1;" horiz-adv-x="1077" d="M174 0v1004h62l6 -271q39 106 154.5 198.5t240.5 92.5q113 0 200 -83.5t87 -219.5v-721h-68v692q0 125 -58 198t-151 73q-69 0 -141 -35t-130.5 -94.5t-96 -147t-37.5 -182.5v-504h-68zM250 1278q5 26 13.5 46.5t25.5 41.5t47 33t72 12q44 0 87 -22.5t84.5 -45 t82.5 -22.5q42 0 68 13.5t34 58.5h61q-19 -133 -166 -133q-43 0 -90.5 22.5t-89 45t-69.5 22.5q-86 0 -99 -72h-61z" />
<glyph unicode="&#xf2;" horiz-adv-x="1101" d="M113 502q0 142 60.5 262.5t162.5 190t219 69.5q111 0 211 -69.5t161.5 -190.5t61.5 -262q0 -143 -61.5 -264t-161 -189.5t-211.5 -68.5q-88 0 -169.5 41t-141 110t-95.5 166t-36 205zM184 502q0 -194 110 -327.5t261 -133.5q147 0 255 133.5t108 327.5q0 192 -108 326.5 t-255 134.5q-151 0 -261 -134t-110 -327zM381 1393h82l127 -160h-74z" />
<glyph unicode="&#xf3;" horiz-adv-x="1101" d="M113 502q0 142 60.5 262.5t162.5 190t219 69.5q111 0 211 -69.5t161.5 -190.5t61.5 -262q0 -143 -61.5 -264t-161 -189.5t-211.5 -68.5q-88 0 -169.5 41t-141 110t-95.5 166t-36 205zM184 502q0 -194 110 -327.5t261 -133.5q147 0 255 133.5t108 327.5q0 192 -108 326.5 t-255 134.5q-151 0 -261 -134t-110 -327zM510 1233l127 160h82l-135 -160h-74z" />
<glyph unicode="&#xf4;" horiz-adv-x="1101" d="M113 502q0 142 60.5 262.5t162.5 190t219 69.5q111 0 211 -69.5t161.5 -190.5t61.5 -262q0 -143 -61.5 -264t-161 -189.5t-211.5 -68.5q-88 0 -169.5 41t-141 110t-95.5 166t-36 205zM184 502q0 -194 110 -327.5t261 -133.5q147 0 255 133.5t108 327.5q0 192 -108 326.5 t-255 134.5q-151 0 -261 -134t-110 -327zM379 1239l135 154h72l137 -154h-61l-113 100l-109 -100h-61z" />
<glyph unicode="&#xf5;" horiz-adv-x="1101" d="M113 502q0 142 60.5 262.5t162.5 190t219 69.5q111 0 211 -69.5t161.5 -190.5t61.5 -262q0 -143 -61.5 -264t-161 -189.5t-211.5 -68.5q-88 0 -169.5 41t-141 110t-95.5 166t-36 205zM184 502q0 -194 110 -327.5t261 -133.5q147 0 255 133.5t108 327.5q0 192 -108 326.5 t-255 134.5q-151 0 -261 -134t-110 -327zM264 1278q5 26 13.5 46.5t25.5 41.5t47 33t72 12q44 0 87 -22.5t84.5 -45t82.5 -22.5q42 0 68 13.5t34 58.5h62q-19 -133 -166 -133q-43 0 -91 22.5t-89.5 45t-69.5 22.5q-85 0 -98 -72h-62z" />
<glyph unicode="&#xf6;" horiz-adv-x="1101" d="M113 502q0 142 60.5 262.5t162.5 190t219 69.5q111 0 211 -69.5t161.5 -190.5t61.5 -262q0 -143 -61.5 -264t-161 -189.5t-211.5 -68.5q-88 0 -169.5 41t-141 110t-95.5 166t-36 205zM184 502q0 -194 110 -327.5t261 -133.5q147 0 255 133.5t108 327.5q0 192 -108 326.5 t-255 134.5q-151 0 -261 -134t-110 -327zM322 1356q0 23 16.5 40t38.5 17q23 0 40 -17t17 -40q0 -22 -17 -39t-40 -17q-22 0 -38.5 17t-16.5 39zM668 1356q0 23 16.5 40t38.5 17q23 0 40 -17t17 -40q0 -22 -17 -39t-40 -17q-22 0 -38.5 17t-16.5 39z" />
<glyph unicode="&#xf7;" horiz-adv-x="1406" d="M113 557v61h1181v-61h-1181zM621 188q0 33 23 56.5t58 23.5q28 0 51 -24t23 -56q0 -26 -23 -47.5t-51 -21.5q-34 0 -57.5 21t-23.5 48zM621 979q0 33 23 55.5t58 22.5q28 0 51 -23t23 -55q0 -28 -23 -50t-51 -22q-34 0 -57.5 21.5t-23.5 50.5z" />
<glyph unicode="&#xf8;" horiz-adv-x="1101" d="M113 502q0 142 60.5 262.5t162.5 190t219 69.5q83 0 164 -43l43 104h72l-58 -139q96 -71 154.5 -189.5t58.5 -254.5q0 -143 -61.5 -264t-161 -189.5t-211.5 -68.5q-86 0 -158 34l-45 -110h-71l57 143q-102 68 -163.5 188.5t-61.5 266.5zM184 502q0 -126 48 -230t130 -166 l334 818q-70 39 -141 39q-151 0 -261 -134t-110 -327zM420 72q67 -31 135 -31q147 0 255 133.5t108 327.5q0 120 -45 221t-121 164z" />
<glyph unicode="&#xf9;" horiz-adv-x="1077" d="M154 283v721h67v-693q0 -125 58 -197.5t151 -72.5q69 0 141 35t131 94.5t96.5 147t37.5 182.5v504h67v-1004h-61l-6 270q-24 -66 -82.5 -132t-144 -112t-169.5 -46q-113 0 -199.5 83.5t-86.5 219.5zM367 1393h82l126 -160h-73z" />
<glyph unicode="&#xfa;" horiz-adv-x="1077" d="M154 283v721h67v-693q0 -125 58 -197.5t151 -72.5q69 0 141 35t131 94.5t96.5 147t37.5 182.5v504h67v-1004h-61l-6 270q-24 -66 -82.5 -132t-144 -112t-169.5 -46q-113 0 -199.5 83.5t-86.5 219.5zM489 1233l127 160h82l-135 -160h-74z" />
<glyph unicode="&#xfb;" horiz-adv-x="1077" d="M154 283v721h67v-693q0 -125 58 -197.5t151 -72.5q69 0 141 35t131 94.5t96.5 147t37.5 182.5v504h67v-1004h-61l-6 270q-24 -66 -82.5 -132t-144 -112t-169.5 -46q-113 0 -199.5 83.5t-86.5 219.5zM358 1239l136 154h71l137 -154h-61l-113 100l-108 -100h-62z" />
<glyph unicode="&#xfc;" horiz-adv-x="1077" d="M154 283v721h67v-693q0 -125 58 -197.5t151 -72.5q69 0 141 35t131 94.5t96.5 147t37.5 182.5v504h67v-1004h-61l-6 270q-24 -66 -82.5 -132t-144 -112t-169.5 -46q-113 0 -199.5 83.5t-86.5 219.5zM299 1356q0 23 16.5 40t38.5 17q23 0 40.5 -17t17.5 -40 q0 -22 -17.5 -39t-40.5 -17q-22 0 -38.5 17t-16.5 39zM645 1356q0 23 16.5 40t38.5 17q23 0 40.5 -17t17.5 -40q0 -22 -17.5 -39t-40.5 -17q-22 0 -38.5 17t-16.5 39z" />
<glyph unicode="&#xfd;" horiz-adv-x="964" d="M61 1004h74l336 -912l360 912h72l-504 -1280q-41 -109 -102 -162.5t-133 -53.5q-51 0 -92 13l22 61q35 -12 60 -12q52 0 96 41.5t72 114.5l104 276q-49 136 -174 476t-191 526zM438 1233l127 160h82l-135 -160h-74z" />
<glyph unicode="&#xfe;" horiz-adv-x="1132" d="M174 -471v1864h76v-594q54 107 142 166t192 59q126 0 226.5 -71t155 -192t54.5 -269q0 -142 -54.5 -260t-155.5 -188.5t-228 -70.5q-115 0 -198.5 60.5t-135.5 154.5l2 -659h-76zM252 502q0 -205 95 -336t247 -131q151 0 252.5 132.5t101.5 334.5q0 197 -102 329 t-252 132q-151 0 -246.5 -130.5t-95.5 -330.5z" />
<glyph unicode="&#xff;" horiz-adv-x="964" d="M61 1004h74l336 -912l360 912h72l-504 -1280q-41 -109 -102 -162.5t-133 -53.5q-51 0 -92 13l22 61q35 -12 60 -12q52 0 96 41.5t72 114.5l104 276q-49 136 -174 476t-191 526zM252 1356q0 23 16.5 40t38.5 17q23 0 40.5 -17t17.5 -40q0 -22 -17.5 -39t-40.5 -17 q-22 0 -38.5 17t-16.5 39zM598 1356q0 23 16.5 40t38.5 17q23 0 40.5 -17t17.5 -40q0 -22 -17.5 -39t-40.5 -17q-22 0 -38.5 17t-16.5 39z" />
<glyph unicode="&#x152;" horiz-adv-x="1662" d="M113 702q0 195 82 358t224.5 258t313.5 95q32 0 98 -20h699v-62h-641v-543h584v-59h-584v-668h641v-61h-692q-62 -20 -105 -20q-128 0 -243.5 58t-197.5 155.5t-130.5 230.5t-48.5 278zM184 702q0 -186 72 -337.5t198 -237.5t279 -86q38 0 88 12v1286q-41 13 -88 13 q-153 0 -279 -84.5t-198 -233.5t-72 -332z" />
<glyph unicode="&#x153;" horiz-adv-x="1863" d="M113 502q0 142 60.5 262.5t162.5 190t219 69.5q122 0 230.5 -84.5t162.5 -220.5q46 148 155.5 226.5t252.5 78.5q191 0 303.5 -128t112.5 -347v-41h-783v-21q0 -194 106 -320t285 -126q204 0 306 143l51 -34q-66 -87 -151 -128.5t-206 -41.5q-165 0 -274 85t-156 224 q-54 -139 -162.5 -224t-232.5 -85q-88 0 -169.5 41t-141 110t-95.5 166t-36 205zM184 502q0 -194 110 -327.5t261 -133.5q69 0 135 33.5t116.5 91.5t81 140.5t30.5 174.5v39q0 88 -30.5 170.5t-81 142t-116.5 95t-135 35.5q-151 0 -261 -134t-110 -327zM987 569h713 q0 97 -29 174t-78 124t-109.5 71.5t-127.5 24.5q-90 0 -172.5 -47.5t-138 -139.5t-58.5 -207z" />
<glyph unicode="&#x178;" horiz-adv-x="1089" d="M31 1393h88l422 -621l430 621h88l-486 -688v-705h-67v707zM311 1716q0 23 17 40.5t39 17.5q23 0 40 -17.5t17 -40.5q0 -22 -17 -38.5t-40 -16.5q-22 0 -39 16.5t-17 38.5zM657 1716q0 23 17 40.5t39 17.5q23 0 40 -17.5t17 -40.5q0 -22 -17 -38.5t-40 -16.5 q-22 0 -39 16.5t-17 38.5z" />
<glyph unicode="&#x2c6;" horiz-adv-x="446" d="M51 1239l135 154h72l137 -154h-61l-113 100l-108 -100h-62z" />
<glyph unicode="&#x2dc;" horiz-adv-x="677" d="M51 1278q5 26 13.5 46.5t25.5 41.5t47 33t72 12q44 0 87 -22.5t84.5 -45t82.5 -22.5q42 0 68 13.5t34 58.5h62q-19 -133 -166 -133q-43 0 -91 22.5t-89.5 45t-69.5 22.5q-85 0 -98 -72h-62z" />
<glyph unicode="&#x2000;" horiz-adv-x="887" />
<glyph unicode="&#x2001;" horiz-adv-x="1774" />
<glyph unicode="&#x2002;" horiz-adv-x="887" />
<glyph unicode="&#x2003;" horiz-adv-x="1774" />
<glyph unicode="&#x2004;" horiz-adv-x="591" />
<glyph unicode="&#x2005;" horiz-adv-x="443" />
<glyph unicode="&#x2006;" horiz-adv-x="295" />
<glyph unicode="&#x2007;" horiz-adv-x="295" />
<glyph unicode="&#x2008;" horiz-adv-x="221" />
<glyph unicode="&#x2009;" horiz-adv-x="354" />
<glyph unicode="&#x200a;" horiz-adv-x="98" />
<glyph unicode="&#x2010;" horiz-adv-x="837" d="M92 555v61h653v-61h-653z" />
<glyph unicode="&#x2011;" horiz-adv-x="837" d="M92 555v61h653v-61h-653z" />
<glyph unicode="&#x2012;" horiz-adv-x="837" d="M92 555v61h653v-61h-653z" />
<glyph unicode="&#x2013;" horiz-adv-x="1226" d="M92 555v61h1043v-61h-1043z" />
<glyph unicode="&#x2014;" horiz-adv-x="2088" d="M92 555v61h1905v-61h-1905z" />
<glyph unicode="&#x2018;" horiz-adv-x="432" d="M154 1024q0 92 20 197t51 172h54q-58 -164 -58 -369h-67z" />
<glyph unicode="&#x2019;" horiz-adv-x="432" d="M154 1024q57 161 57 369h68q0 -92 -20.5 -196.5t-51.5 -172.5h-53z" />
<glyph unicode="&#x201a;" horiz-adv-x="432" d="M154 -240q57 161 57 369h68q0 -92 -20.5 -196.5t-51.5 -172.5h-53z" />
<glyph unicode="&#x201c;" horiz-adv-x="612" d="M154 1024q0 92 20 197t51 172h54q-58 -164 -58 -369h-67zM334 1024q0 92 20.5 196.5t51.5 172.5h53q-58 -164 -58 -369h-67z" />
<glyph unicode="&#x201d;" horiz-adv-x="612" d="M154 1024q57 161 57 369h68q0 -92 -20.5 -196.5t-51.5 -172.5h-53zM334 1024q57 161 57 369h68q0 -92 -20.5 -196.5t-51.5 -172.5h-53z" />
<glyph unicode="&#x201e;" horiz-adv-x="612" d="M154 -240q57 161 57 369h68q0 -92 -20.5 -196.5t-51.5 -172.5h-53zM334 -240q57 161 57 369h68q0 -92 -20.5 -196.5t-51.5 -172.5h-53z" />
<glyph unicode="&#x2022;" horiz-adv-x="452" d="M113 594q0 49 33.5 84t80.5 35t80 -34.5t33 -84.5q0 -48 -33 -82.5t-80 -34.5t-80.5 34.5t-33.5 82.5z" />
<glyph unicode="&#x2026;" horiz-adv-x="1050" d="M102 53q0 31 21.5 53.5t52.5 22.5q30 0 51 -22.5t21 -53.5q0 -30 -21 -51.5t-51 -21.5t-52 22t-22 51zM453 53q0 31 21.5 53.5t51.5 22.5t51 -22.5t21 -53.5q0 -30 -21 -51.5t-51 -21.5t-51.5 21.5t-21.5 51.5zM803 53q0 31 21.5 53.5t52.5 22.5q30 0 50.5 -22.5 t20.5 -53.5q0 -30 -20.5 -51.5t-50.5 -21.5q-31 0 -52.5 22t-21.5 51z" />
<glyph unicode="&#x202f;" horiz-adv-x="354" />
<glyph unicode="&#x2039;" horiz-adv-x="518" d="M139 584l223 391h68l-221 -391l221 -410h-68z" />
<glyph unicode="&#x203a;" horiz-adv-x="522" d="M88 174l225 410l-223 391h72l221 -391l-223 -410h-72z" />
<glyph unicode="&#x205f;" horiz-adv-x="443" />
<glyph unicode="&#x20ac;" horiz-adv-x="1343" d="M162 565v62h110q-2 20 -2 61v37h-108v63h112q12 124 50.5 233t102.5 198.5t163 141.5t221 52q125 0 232 -62.5t186 -183.5l-49 -41q-56 103 -152 164.5t-215 61.5q-102 0 -186.5 -47t-140.5 -127.5t-90.5 -179t-47.5 -210.5h524v-63h-530v-98h530v-62h-526 q8 -72 26 -139.5t54.5 -139t86.5 -124.5t127.5 -87t172.5 -34q120 0 214 60.5t151 166.5l53 -37q-152 -251 -418 -251q-121 0 -219 48t-162.5 131t-103 185.5t-52.5 220.5h-114z" />
<glyph unicode="&#x2122;" horiz-adv-x="1619" d="M113 1343v50h518v-50h-232v-708h-55v708h-231zM707 635l94 758h86l221 -684l231 684h91l77 -758h-55l-70 706l-254 -706h-36l-246 708q-14 -118 -42.5 -354t-41.5 -354h-55z" />
<glyph unicode="&#x25fc;" horiz-adv-x="1003" d="M0 0v1004h1004v-1004h-1004z" />
</font>
</defs>
</svg>
