<?xml version="1.0" encoding="UTF-8"?>
<svg xmlns="http://www.w3.org/2000/svg" xmlns:xlink="http://www.w3.org/1999/xlink" version="1.2" >
<font id="Betm ExtraBlack Italic">
<font-face  font-family="Betm" units-per-em="1000" ascent="750" descent="-250" font-style="italic" font-weight="950" font-stretch="normal" cap-height="568" x-height="405" underline-position="-91" underline-thickness="35" />
<missing-glyph  horiz-adv-x="553" d="M527 0 L637 626 L126 626 L16 0 L527 0 Z M87 43 L91 64 L72 64 L66 44 C67 44 68 44 68 43 L87 43 Z M583 582 C584 582 585 581 585 580 L583 580 L583 582 Z M566 580 L563 562 L580 562 L583 580 L566 580 Z M492 64 L475 64 L471 45 L490 45 L492 64 Z M162 562 L179 562 L182 582 L163 583 C163 582 164 582 165 582 L162 562 Z M179 562 L563 562 L475 64 L91 64 L179 562 Z " />
<glyph glyph-name="space" unicode="&#x20;" horiz-adv-x="199" d="" />
<glyph glyph-name="exclam" unicode="&#x21;" horiz-adv-x="247" d="M53 78 C45 30 73 -6 121 -6 C169 -6 212 30 220 78 C229 126 198 162 151 162 C103 162 62 126 53 78 L53 78 Z M306 590 L149 590 L103 334 L92 194 L223 194 L260 334 L306 590 Z " />
<glyph glyph-name="quotedbl" unicode="&#x22;" horiz-adv-x="434" d="M119 381 L260 381 L307 590 L144 590 L119 381 Z M310 381 L451 381 L498 590 L335 590 L310 381 Z " />
<glyph glyph-name="numbersign" unicode="&#x23;" horiz-adv-x="768" d="M787 338 L814 492 L737 492 L792 590 L624 590 L568 492 L511 492 L567 590 L399 590 L341 492 L194 492 L167 338 L256 338 C240 307 226 286 210 257 L85 257 L58 103 L122 103 L65 0 L233 0 L291 103 L349 103 L291 0 L459 0 L517 103 L678 103 L705 257 L604 257 L650 338 L787 338 Z M435 257 L378 257 C394 288 408 309 424 338 L480 338 L435 257 Z " />
<glyph glyph-name="dollar" unicode="&#x24;" horiz-adv-x="550" d="M541 178 C573 359 269 374 277 419 C280 438 332 442 366 442 C397 442 438 434 473 427 C494 423 515 418 536 413 L562 557 C543 570 518 584 461 591 L480 703 L316 703 L296 587 C207 568 131 520 112 412 C80 228 384 221 376 168 C373 148 302 148 279 148 C244 148 200 158 161 169 C139 176 116 183 93 191 L69 56 C85 40 125 14 193 1 L174 -107 L338 -107 L357 1 C454 20 522 75 541 178 L541 178 Z " />
<glyph glyph-name="percent" unicode="&#x25;" horiz-adv-x="729" d="M168 -6 L335 -6 L664 590 L496 590 L168 -6 Z M243 445 C232 445 227 453 230 468 C233 482 240 489 251 489 C262 489 267 482 264 468 C261 453 254 445 243 445 L243 445 Z M224 339 C313 339 357 385 372 468 C387 549 359 596 270 596 C181 596 137 549 122 468 C107 385 135 339 224 339 L224 339 Z M581 100 C570 100 565 108 568 123 C571 137 578 144 589 144 C600 144 605 137 602 123 C599 108 592 100 581 100 L581 100 Z M562 -6 C651 -6 695 40 710 123 C725 204 697 251 608 251 C519 251 475 204 460 123 C445 40 473 -6 562 -6 L562 -6 Z " />
<glyph glyph-name="ampersand" unicode="&#x26;" horiz-adv-x="584" d="M386 433 L437 590 L379 590 C292 590 163 555 136 407 C131 375 136 335 152 308 C113 285 82 242 71 181 C55 95 114 0 274 0 L273 0 C436 0 514 97 527 181 L533 215 L581 215 L608 365 L560 365 L572 434 L415 434 L403 365 L339 365 C320 365 287 369 292 401 C297 429 330 433 351 433 L386 433 Z M293 153 C273 153 224 156 229 185 C233 208 257 215 284 215 L376 215 L371 182 C366 153 318 153 300 153 L293 153 Z " />
<glyph glyph-name="quotesingle" unicode="&#x27;" horiz-adv-x="243" d="M119 381 L260 381 L307 590 L144 590 L119 381 Z " />
<glyph glyph-name="parenleft" unicode="&#x28;" horiz-adv-x="338" d="M87 270 C63 132 58 -56 103 -204 L262 -204 C217 -48 220 142 244 270 C267 399 324 565 425 724 L266 724 C170 573 111 409 87 270 L87 270 Z " />
<glyph glyph-name="parenright" unicode="&#x29;" horiz-adv-x="338" d="M345 270 C369 409 370 573 326 724 L167 724 C212 567 212 398 188 270 C164 141 103 -46 4 -204 L163 -204 C259 -55 321 132 345 270 L345 270 Z " />
<glyph glyph-name="asterisk" unicode="&#x2a;" horiz-adv-x="454" d="M401 590 L261 590 L250 490 L185 533 L111 407 L203 370 L126 305 L219 216 L277 287 L311 216 L434 305 L381 370 L485 407 L455 533 L376 490 L401 590 Z " />
<glyph glyph-name="plus" unicode="&#x2b;" horiz-adv-x="435" d="M366 400 L209 400 L191 298 L92 298 L65 144 L164 144 L146 45 L303 45 L321 144 L420 144 L447 298 L348 298 L366 400 Z " />
<glyph glyph-name="comma" unicode="&#x2c;" horiz-adv-x="293" d="M273 118 L109 118 L22 -100 L164 -100 L273 118 Z " />
<glyph glyph-name="hyphen" unicode="&#x2d;" horiz-adv-x="434" d="M417 135 L444 289 L90 289 L63 135 L417 135 Z " />
<glyph glyph-name="period" unicode="&#x2e;" horiz-adv-x="243" d="M38 -6 L201 -6 L228 142 L65 142 L38 -6 Z " />
<glyph glyph-name="slash" unicode="&#x2f;" horiz-adv-x="599" d="M4 -204 L173 -204 L686 724 L517 724 L4 -204 Z " />
<glyph glyph-name="zero" unicode="0" horiz-adv-x="562" d="M306 148 C261 148 218 174 239 299 C258 411 301 442 357 442 C417 442 446 411 427 299 C406 174 352 148 308 148 L306 148 Z M280 -6 C388 -6 540 51 585 302 C622 518 517 596 386 596 C256 596 120 518 83 302 C38 51 171 -6 278 -6 L280 -6 Z " />
<glyph glyph-name="one" unicode="1" horiz-adv-x="345" d="M58 333 L219 408 L148 0 L305 0 L409 590 L263 590 L89 509 L58 333 Z " />
<glyph glyph-name="two" unicode="2" horiz-adv-x="481" d="M25 0 L453 0 L480 154 L230 154 C336 237 500 255 527 407 C554 554 463 596 346 596 C240 596 196 576 146 552 L119 400 C142 407 164 414 186 421 C223 432 269 442 300 442 C333 442 375 438 370 407 C362 358 83 331 47 129 L25 0 Z " />
<glyph glyph-name="three" unicode="3" horiz-adv-x="491" d="M211 366 L150 220 L300 220 C321 220 346 214 341 187 C336 151 269 148 247 148 C198 148 153 155 118 163 C98 167 79 172 61 178 L37 40 C71 19 123 -6 225 -6 C389 -6 481 90 497 181 C508 242 494 287 462 310 C489 337 507 376 512 408 C539 556 413 596 326 596 C232 596 185 578 127 554 L102 411 C127 416 152 421 175 426 C215 434 261 442 290 442 C329 442 358 425 354 401 C349 370 316 366 296 366 L211 366 Z " />
<glyph glyph-name="four" unicode="4" horiz-adv-x="503" d="M265 0 L422 0 L448 148 L519 148 L546 302 L475 302 L526 590 L346 590 L63 305 L36 148 L291 148 L265 0 Z M244 302 C272 331 310 366 333 390 L318 302 L244 302 Z " />
<glyph glyph-name="five" unicode="5" horiz-adv-x="493" d="M340 395 C327 395 290 392 259 380 L268 436 L511 436 L539 590 L139 590 L75 232 L213 225 C237 238 266 238 283 238 C334 238 360 224 356 200 C348 152 300 148 280 148 C259 148 229 154 226 191 L68 191 C39 23 175 -6 248 -6 L256 -6 C326 -6 481 14 513 203 C540 352 431 395 340 395 L340 395 Z " />
<glyph glyph-name="six" unicode="6" horiz-adv-x="495" d="M342 395 C325 395 287 394 254 383 C261 430 290 442 358 442 C391 442 430 437 459 433 C476 430 493 427 509 424 L533 559 C516 576 455 596 374 596 C221 596 119 511 86 320 L64 198 C35 23 178 -6 250 -6 L258 -6 C330 -6 483 23 515 199 C542 348 428 395 342 395 L342 395 Z M282 148 C263 148 213 157 221 197 C229 233 276 239 298 239 C318 239 365 233 357 197 C349 155 303 148 282 148 L282 148 Z " />
<glyph glyph-name="seven" unicode="7" horiz-adv-x="438" d="M91 436 L336 436 L55 0 L227 0 L516 448 L542 590 L119 590 L91 436 Z " />
<glyph glyph-name="eight" unicode="8" horiz-adv-x="526" d="M326 367 C306 367 272 372 277 403 C282 435 319 442 339 442 C359 442 396 435 391 403 C386 372 347 367 327 367 L326 367 Z M288 148 C268 148 219 152 224 184 C229 216 280 221 300 221 C324 221 371 216 366 184 C361 152 309 148 290 148 L288 148 Z M265 -6 C336 -6 495 20 524 188 C533 239 524 282 481 301 C517 324 540 362 547 401 C576 568 445 596 371 596 L365 596 C292 596 148 568 119 401 C112 361 119 324 148 301 C95 281 77 240 68 188 C36 20 187 -6 257 -6 L265 -6 Z " />
<glyph glyph-name="nine" unicode="9" horiz-adv-x="495" d="M256 195 C273 195 311 196 344 207 C337 160 308 148 240 148 C205 148 168 152 139 157 C122 160 105 163 89 166 L65 31 C82 14 143 -6 224 -6 C377 -6 479 79 512 270 L534 392 C563 567 420 596 348 596 L340 596 C268 596 115 567 83 391 C56 242 170 195 256 195 L256 195 Z M316 442 C335 442 385 433 377 393 C369 357 322 351 300 351 C280 351 233 357 241 393 C249 435 295 442 316 442 L316 442 Z " />
<glyph glyph-name="colon" unicode="&#x3a;" horiz-adv-x="243" d="M38 -6 L201 -6 L228 142 L65 142 L38 -6 Z M85 257 L248 257 L274 404 L111 404 L85 257 Z " />
<glyph glyph-name="semicolon" unicode="&#x3b;" horiz-adv-x="293" d="M134 257 L298 257 L324 404 L160 404 L134 257 Z M273 118 L109 118 L22 -100 L164 -100 L273 118 Z " />
<glyph glyph-name="less" unicode="&#x3c;" horiz-adv-x="431" d="M389 -6 L420 167 L289 234 L444 301 L474 474 L94 309 L67 158 L389 -6 Z " />
<glyph glyph-name="equal" unicode="&#x3d;" horiz-adv-x="407" d="M402 204 L428 349 L101 349 L75 204 L402 204 Z M370 18 L395 163 L68 163 L43 18 L370 18 Z " />
<glyph glyph-name="greater" unicode="&#x3e;" horiz-adv-x="431" d="M418 158 L445 309 L123 474 L93 301 L224 234 L69 167 L38 -6 L418 158 Z " />
<glyph glyph-name="question" unicode="&#x3f;" horiz-adv-x="490" d="M160 189 L317 189 L324 230 C470 238 514 370 522 409 C549 557 421 596 334 596 C235 596 185 572 137 553 L111 408 C136 414 161 420 184 425 C224 433 271 442 300 442 C321 442 370 438 365 414 C359 381 319 375 188 346 L160 189 Z M134 78 C126 31 156 -6 203 -6 C250 -6 294 31 302 78 C310 125 280 162 233 162 C186 162 142 125 134 78 L134 78 Z " />
<glyph glyph-name="at" unicode="&#x40;" horiz-adv-x="682" d="M554 392 C530 409 497 411 474 411 C394 411 306 350 282 209 C253 43 328 -6 399 -6 C424 -6 465 -6 500 26 L502 0 L642 0 L707 373 C744 586 605 657 456 657 C329 657 140 575 103 362 L54 82 C17 -131 176 -210 313 -210 L341 -55 C272 -55 194 -24 213 85 L262 359 C281 469 369 501 428 501 C497 501 568 477 555 397 L554 392 Z M515 172 C508 164 495 148 472 148 C460 148 431 158 439 209 C447 247 479 257 491 257 C502 257 509 252 516 245 C519 242 523 238 526 233 L515 172 Z " />
<glyph glyph-name="A" unicode="A" horiz-adv-x="584" d="M470 590 L321 590 L0 0 L167 0 L217 92 L397 92 L417 0 L584 0 L471 590 L470 590 Z M298 242 L351 339 L370 242 L298 242 Z " />
<glyph glyph-name="B" unicode="B" horiz-adv-x="518" d="M257 371 L268 436 L348 436 C368 436 391 428 387 405 C380 374 357 371 337 371 L257 371 Z M219 154 L230 218 L335 218 C356 218 378 211 374 188 C367 157 344 154 324 154 L219 154 Z M290 0 C454 0 516 110 529 181 C540 241 525 285 494 308 C521 336 539 376 544 407 C571 555 463 590 377 590 L139 590 L35 0 L290 0 Z " />
<glyph glyph-name="C" unicode="C" horiz-adv-x="537" d="M387 442 C424 442 464 435 503 396 L616 507 C561 570 485 596 416 596 C289 596 104 515 67 299 C23 47 202 -6 310 -6 C379 -6 464 22 540 85 L473 196 C420 157 373 148 336 148 C289 148 207 174 228 299 C247 411 328 442 387 442 L387 442 Z " />
<glyph glyph-name="D" unicode="D" horiz-adv-x="553" d="M581 301 C619 515 479 590 349 590 L144 590 L40 0 L257 0 C364 0 538 58 581 301 L581 301 Z M224 154 L273 436 L327 436 C387 436 442 407 423 298 C402 172 324 154 275 154 L224 154 Z " />
<glyph glyph-name="E" unicode="E" horiz-adv-x="489" d="M535 436 L563 590 L144 590 L40 0 L459 0 L486 154 L224 154 L234 213 L450 213 L477 367 L261 367 L273 436 L535 436 Z " />
<glyph glyph-name="F" unicode="F" horiz-adv-x="484" d="M197 0 L233 206 L449 206 L476 360 L260 360 L273 436 L535 436 L563 590 L144 590 L40 0 L197 0 Z " />
<glyph glyph-name="G" unicode="G" horiz-adv-x="572" d="M387 442 C424 442 464 435 503 396 L616 507 C561 570 485 596 416 596 C289 596 104 515 67 299 C23 47 202 -6 310 -6 C378 -6 477 16 540 85 L588 353 L350 353 L323 199 L404 199 L396 157 C373 150 355 148 336 148 C289 148 207 174 228 299 C247 411 328 442 387 442 L387 442 Z " />
<glyph glyph-name="H" unicode="H" horiz-adv-x="568" d="M475 590 L434 361 L260 361 L301 590 L144 590 L40 0 L197 0 L233 206 L407 206 L371 0 L528 0 L632 590 L475 590 Z " />
<glyph glyph-name="I" unicode="I" horiz-adv-x="237" d="M40 0 L197 0 L301 590 L144 590 L40 0 Z " />
<glyph glyph-name="J" unicode="J" horiz-adv-x="460" d="M300 210 C289 151 232 148 212 148 C192 148 155 147 99 182 L5 60 C72 -7 152 -6 197 -6 C271 -3 425 27 457 213 L524 590 L367 590 L300 210 Z " />
<glyph glyph-name="K" unicode="K" horiz-adv-x="565" d="M403 298 L689 590 L486 590 L260 358 L301 590 L144 590 L40 0 L197 0 L239 242 L378 0 L577 0 L403 298 Z " />
<glyph glyph-name="L" unicode="L" horiz-adv-x="456" d="M301 590 L144 590 L40 0 L441 0 L468 154 L224 154 L301 590 Z " />
<glyph glyph-name="M" unicode="M" horiz-adv-x="638" d="M396 112 L478 211 L441 0 L598 0 L702 590 L598 590 L372 304 L248 590 L144 590 L40 0 L197 0 L234 211 L279 112 L396 112 Z " />
<glyph glyph-name="N" unicode="N" horiz-adv-x="587" d="M408 0 L547 0 L651 590 L494 590 L441 293 L280 590 L144 590 L40 0 L197 0 L248 294 L408 0 Z " />
<glyph glyph-name="O" unicode="O" horiz-adv-x="618" d="M336 148 L334 148 C285 148 213 173 234 300 C253 412 327 442 385 442 C446 442 507 412 488 300 C467 173 384 148 336 148 L336 148 Z M308 -6 C419 -6 601 52 646 303 C683 518 546 596 414 596 C283 596 115 518 78 303 C34 52 198 -6 306 -6 L308 -6 Z " />
<glyph glyph-name="P" unicode="P" horiz-adv-x="514" d="M35 0 L193 0 L221 161 L331 161 C407 161 544 206 576 380 C600 526 492 590 404 590 L139 590 L35 0 Z M378 436 C398 436 425 418 418 378 C409 327 376 315 357 315 L248 315 L269 436 L378 436 Z " />
<glyph glyph-name="Q" unicode="Q" horiz-adv-x="618" d="M646 303 C683 518 546 596 414 596 C283 596 115 518 78 303 C46 127 117 48 199 14 L278 -126 L468 -126 L395 6 C496 33 611 110 646 303 L646 303 Z M334 148 C285 148 213 173 234 300 C253 412 327 442 385 442 C446 442 507 412 488 300 C467 173 384 148 336 148 L334 148 Z " />
<glyph glyph-name="R" unicode="R" horiz-adv-x="537" d="M569 386 C596 534 491 590 405 590 L144 590 L40 0 L197 0 L228 177 L302 177 C321 177 334 165 341 117 L359 0 L525 0 L501 150 C497 183 489 218 473 245 C524 272 558 326 569 386 L569 386 Z M255 332 L273 435 L375 435 C393 435 419 423 411 383 C403 335 375 332 357 332 L255 332 Z " />
<glyph glyph-name="S" unicode="S" horiz-adv-x="500" d="M359 595 C238 595 111 555 87 412 C55 228 359 221 351 168 C348 148 277 148 254 148 C219 148 175 158 136 169 C114 176 91 183 68 191 L44 56 C66 34 134 -6 249 -6 C390 -6 492 49 516 178 C548 359 244 374 252 419 C255 438 307 442 341 442 C372 442 413 434 448 427 C469 423 490 418 511 413 L537 557 C512 574 475 595 359 595 L359 595 Z " />
<glyph glyph-name="T" unicode="T" horiz-adv-x="489" d="M91 436 L242 436 L166 0 L323 0 L399 436 L550 436 L578 590 L119 590 L91 436 Z " />
<glyph glyph-name="U" unicode="U" horiz-adv-x="568" d="M284 -6 C391 -6 535 36 575 270 L632 590 L475 590 L416 257 C400 161 353 148 310 148 C265 148 226 161 242 257 L301 590 L144 590 L87 270 C47 36 172 -6 280 -6 L284 -6 Z " />
<glyph glyph-name="V" unicode="V" horiz-adv-x="584" d="M332 231 L271 590 L104 590 L217 0 L366 0 L367 0 L688 590 L521 590 L332 231 Z " />
<glyph glyph-name="W" unicode="W" horiz-adv-x="760" d="M418 590 L274 257 L271 590 L109 590 L132 0 L312 0 L423 246 L448 0 L628 0 L859 590 L697 590 L576 257 L550 590 L418 590 Z " />
<glyph glyph-name="X" unicode="X" horiz-adv-x="562" d="M309 159 L378 0 L565 0 L426 296 L671 590 L483 590 L358 437 L287 590 L99 590 L240 296 L-3 0 L184 0 L309 159 Z " />
<glyph glyph-name="Y" unicode="Y" horiz-adv-x="585" d="M406 199 L694 590 L512 590 L358 376 L280 590 L99 590 L249 199 L214 0 L371 0 L406 199 Z " />
<glyph glyph-name="Z" unicode="Z" horiz-adv-x="485" d="M97 436 L326 436 L44 138 L20 0 L465 0 L492 154 L256 154 L545 459 L569 590 L125 590 L97 436 Z " />
<glyph glyph-name="bracketleft" unicode="&#x5b;" horiz-adv-x="340" d="M297 570 L400 570 L427 724 L167 724 L4 -204 L264 -204 L291 -50 L188 -50 L297 570 Z " />
<glyph glyph-name="backslash" unicode="&#x5c;" horiz-adv-x="599" d="M336 724 L167 724 L354 -204 L523 -204 L336 724 Z " />
<glyph glyph-name="bracketright" unicode="&#x5d;" horiz-adv-x="340" d="M134 -50 L31 -50 L4 -204 L264 -204 L427 724 L167 724 L140 570 L243 570 L134 -50 Z " />
<glyph glyph-name="asciicircum" unicode="&#x5e;" horiz-adv-x="490" d="M268 590 L97 328 L267 328 C272 336 288 359 317 410 L334 328 L507 328 L430 590 L268 590 Z " />
<glyph glyph-name="underscore" unicode="&#x5f;" horiz-adv-x="434" d="M368 -143 L392 -6 L38 -6 L14 -143 L368 -143 Z " />
<glyph glyph-name="grave" unicode="&#x60;" horiz-adv-x="310" d="M190 385 L337 385 L316 590 L144 590 L190 385 Z " />
<glyph glyph-name="a" unicode="a" horiz-adv-x="429" d="M434 230 C450 342 392 411 269 411 C189 411 152 400 115 389 L92 259 C109 261 126 263 142 266 C169 270 199 274 216 274 C267 274 278 258 279 243 L276 225 C251 238 217 243 197 243 C109 243 52 216 39 137 C15 -2 138 -6 159 -6 C174 -6 211 -4 246 25 L245 0 L394 0 L434 230 Z M258 122 C253 121 249 120 245 119 C237 117 228 116 218 116 C201 116 194 126 195 135 C198 142 205 154 225 154 C248 154 259 150 262 147 L258 122 Z " />
<glyph glyph-name="b" unicode="b" horiz-adv-x="451" d="M35 0 L175 0 L185 26 C206 -6 250 -6 274 -6 C345 -6 438 43 467 209 C491 350 428 411 347 411 C324 411 292 409 261 392 L296 590 L139 590 L35 0 Z M233 233 C238 238 242 242 247 245 C255 252 265 257 276 257 C287 257 318 247 310 209 C302 158 268 148 257 148 C234 148 225 164 222 172 L233 233 Z " />
<glyph glyph-name="c" unicode="c" horiz-adv-x="402" d="M219 -6 C262 -6 318 -6 407 64 L360 166 C300 135 276 135 256 135 C233 135 197 148 207 208 C216 256 255 270 280 270 C300 270 320 270 373 236 L457 341 C392 411 336 411 292 411 C213 411 75 351 51 207 C22 45 146 -3 218 -6 L219 -6 Z " />
<glyph glyph-name="d" unicode="d" horiz-adv-x="451" d="M520 590 L363 590 L328 392 C304 409 271 411 248 411 C168 411 80 350 56 209 C27 43 102 -6 173 -6 C198 -6 239 -6 274 26 L276 0 L416 0 L520 590 Z M289 172 C282 164 269 148 246 148 C234 148 205 158 213 209 C221 247 253 257 265 257 C276 257 283 252 290 245 C293 242 297 238 300 233 L289 172 Z " />
<glyph glyph-name="e" unicode="e" horiz-adv-x="426" d="M440 223 C459 332 401 411 289 411 C172 411 74 314 55 203 C34 87 90 -6 230 -6 C308 -6 332 3 382 24 L404 150 C389 147 373 145 357 142 C330 138 296 135 269 135 C228 135 204 148 207 173 L431 173 L440 223 Z M219 249 C234 280 252 285 267 285 C284 285 301 280 301 249 L219 249 Z " />
<glyph glyph-name="f" unicode="f" horiz-adv-x="340" d="M342 455 C353 455 369 453 385 452 C394 451 403 451 414 450 L434 563 C419 578 396 596 322 596 C230 596 164 525 137 405 L71 405 L45 257 L111 257 L66 0 L223 0 L268 257 L380 257 L406 405 L294 405 L295 412 C300 439 310 455 342 455 L342 455 Z " />
<glyph glyph-name="g" unicode="g" horiz-adv-x="456" d="M492 405 L343 405 L336 379 C313 402 276 411 253 411 C173 411 85 350 61 209 C32 43 107 -6 178 -6 C201 -6 235 -6 266 15 L262 -8 C254 -53 218 -55 198 -55 C179 -55 128 -54 85 -25 L17 -147 C54 -186 114 -198 177 -198 C246 -198 392 -160 421 4 L492 405 Z M294 172 C287 164 274 148 251 148 C239 148 210 158 218 209 C226 247 258 257 270 257 C281 257 288 252 295 245 C298 242 302 238 305 233 L294 172 Z " />
<glyph glyph-name="h" unicode="h" horiz-adv-x="442" d="M192 0 L233 235 C238 239 244 243 249 246 C258 251 269 257 280 257 C288 257 300 253 297 241 L255 0 L412 0 L459 271 C472 350 430 411 350 411 C327 411 290 405 259 384 L296 590 L139 590 L35 0 L192 0 Z " />
<glyph glyph-name="i" unicode="i" horiz-adv-x="237" d="M40 0 L197 0 L268 405 L111 405 L40 0 Z M117 439 L274 439 L299 582 L142 582 L117 439 Z " />
<glyph glyph-name="j" unicode="j" horiz-adv-x="237" d="M36 -22 C31 -49 17 -57 -3 -57 C-14 -57 -33 -54 -50 -51 C-60 -49 -70 -47 -81 -45 L-102 -164 C-86 -180 -68 -198 10 -198 C147 -198 177 -105 188 -48 L268 405 L111 405 L36 -22 Z M117 439 L274 439 L299 582 L142 582 L117 439 Z " />
<glyph glyph-name="k" unicode="k" horiz-adv-x="451" d="M473 0 L373 232 L535 405 L338 405 C310 374 277 340 246 307 L296 590 L139 590 L35 0 L192 0 L219 157 L290 0 L473 0 Z " />
<glyph glyph-name="l" unicode="l" horiz-adv-x="253" d="M301 590 L144 590 L60 117 C41 16 95 -6 145 -6 L150 -6 C179 -6 200 -1 215 6 C223 9 230 13 236 18 L257 139 C246 136 242 135 229 135 C228 135 219 135 222 142 L301 590 Z " />
<glyph glyph-name="m" unicode="m" horiz-adv-x="621" d="M535 411 C518 411 478 410 431 367 C413 396 384 411 343 411 C324 411 287 406 248 379 L247 405 L106 405 L35 0 L192 0 L233 236 C233 237 238 257 261 257 C272 257 284 253 281 241 L239 0 L387 0 L428 237 C431 246 439 257 456 257 C465 257 479 254 476 241 L434 0 L591 0 L638 270 C651 349 616 411 535 411 L535 411 Z " />
<glyph glyph-name="n" unicode="n" horiz-adv-x="442" d="M192 0 L233 235 C238 239 244 243 249 246 C258 251 269 257 280 257 C288 257 300 253 297 241 L255 0 L412 0 L459 271 C472 350 430 411 350 411 C327 411 285 404 252 379 L255 405 L106 405 L35 0 L192 0 Z " />
<glyph glyph-name="o" unicode="o" horiz-adv-x="442" d="M222 -6 C295 -6 429 37 458 207 C482 351 379 411 294 411 C209 411 80 351 56 207 C27 37 142 -6 216 -6 L222 -6 Z M248 148 C229 148 204 156 212 204 C219 243 248 257 267 257 C286 257 307 243 300 204 C292 156 265 148 248 148 L248 148 Z " />
<glyph glyph-name="p" unicode="p" horiz-adv-x="451" d="M194 15 C217 -6 251 -6 274 -6 C345 -6 438 43 467 209 C491 350 428 411 347 411 C324 411 283 402 252 379 L255 405 L106 405 L2 -185 L159 -185 L194 15 Z M233 233 C238 238 242 242 247 245 C255 252 265 257 276 257 C287 257 318 247 310 209 C302 158 268 148 257 148 C234 148 225 164 222 172 L233 233 Z " />
<glyph glyph-name="q" unicode="q" horiz-adv-x="451" d="M226 -185 L383 -185 L487 405 L338 405 L331 379 C308 402 271 411 248 411 C168 411 80 350 56 209 C27 43 102 -6 173 -6 C196 -6 230 -6 261 15 L226 -185 Z M289 172 C282 164 269 148 246 148 C234 148 205 158 213 209 C221 247 253 257 265 257 C276 257 283 252 290 245 C293 242 297 238 300 233 L289 172 Z " />
<glyph glyph-name="r" unicode="r" horiz-adv-x="321" d="M390 394 C371 409 355 411 323 411 C311 411 277 411 249 379 L246 405 L106 405 L35 0 L192 0 L230 219 C232 226 236 232 241 238 C250 247 266 257 297 257 C305 257 328 257 364 245 L390 394 Z " />
<glyph glyph-name="s" unicode="s" horiz-adv-x="380" d="M266 411 C181 411 81 381 65 289 C49 190 229 154 225 139 C224 136 217 135 204 135 C180 135 145 140 116 147 C99 150 81 155 63 160 L40 32 C56 16 118 -6 199 -6 C311 -6 381 46 396 134 C416 239 230 257 234 270 C235 275 251 275 262 275 C281 275 309 271 336 268 C351 266 367 264 383 262 L403 379 C374 400 344 411 266 411 L266 411 Z " />
<glyph glyph-name="t" unicode="t" horiz-adv-x="337" d="M96 257 L77 148 C66 91 67 -2 204 -2 C280 -2 305 17 327 33 L350 159 L317 153 C298 150 279 148 268 148 C245 148 235 155 240 182 L253 257 L363 257 L389 405 L279 405 L300 526 L258 526 L56 351 L40 257 L96 257 Z " />
<glyph glyph-name="u" unicode="u" horiz-adv-x="442" d="M321 405 L279 170 C277 165 274 162 271 159 C264 152 254 148 237 148 C229 148 213 152 216 168 L258 405 L101 405 L53 134 C40 55 82 -6 162 -6 C185 -6 228 1 260 26 L258 0 L407 0 L478 405 L321 405 Z " />
<glyph glyph-name="v" unicode="v" horiz-adv-x="430" d="M305 0 L506 405 L338 405 L247 184 L233 405 L66 405 L124 0 L305 0 Z " />
<glyph glyph-name="w" unicode="w" horiz-adv-x="612" d="M434 405 L320 405 L239 198 L236 405 L71 405 L113 0 L264 0 L325 113 L347 0 L498 0 L683 405 L517 405 C494 342 465 262 442 198 L434 405 Z " />
<glyph glyph-name="x" unicode="x" horiz-adv-x="436" d="M229 67 L257 0 L441 0 L345 202 L511 405 L325 405 L278 343 L253 405 L67 405 L161 202 L-5 0 L179 0 L229 67 Z " />
<glyph glyph-name="y" unicode="y" horiz-adv-x="436" d="M107 -19 C89 -47 55 -50 49 -50 C46 -50 37 -50 2 -43 L-21 -180 C-15 -183 -8 -186 1 -189 C16 -194 38 -198 66 -198 C119 -198 173 -176 232 -79 L517 405 L344 405 L265 249 L245 405 L76 405 L142 43 L107 -19 Z " />
<glyph glyph-name="z" unicode="z" horiz-adv-x="399" d="M75 257 L192 257 L54 137 L30 0 L369 0 L395 148 L282 148 L416 268 L440 405 L101 405 L75 257 Z " />
<glyph glyph-name="braceleft" unicode="&#x7b;" horiz-adv-x="472" d="M99 338 L72 184 L142 184 C163 184 186 179 182 156 L146 -50 C136 -108 135 -204 275 -204 C354 -204 380 -187 402 -168 L425 -37 C413 -40 401 -42 390 -44 C371 -47 350 -50 339 -50 C318 -50 304 -41 309 -13 L335 135 C346 194 332 238 304 261 C339 284 368 328 379 385 L405 533 C410 561 427 570 448 570 C459 570 478 567 497 564 L530 558 L553 688 C536 705 517 724 438 724 C297 724 265 628 255 570 L219 366 C215 343 190 338 169 338 L99 338 Z " />
<glyph glyph-name="bar" unicode="&#x7c;" horiz-adv-x="237" d="M4 -204 L161 -204 L324 723 L167 723 L4 -204 Z " />
<glyph glyph-name="braceright" unicode="&#x7d;" horiz-adv-x="472" d="M421 338 C400 338 377 343 381 366 L417 570 C427 628 428 724 288 724 C208 724 183 705 161 688 L138 558 C150 560 162 562 173 564 C192 567 213 570 224 570 C245 570 258 561 253 533 L227 385 C216 328 233 284 260 261 C221 238 194 194 183 135 L157 -13 C152 -41 136 -50 115 -50 C104 -50 85 -47 66 -44 C55 -42 44 -40 33 -37 L10 -168 C26 -187 46 -204 125 -204 C265 -204 298 -108 308 -50 L344 156 C348 179 373 184 394 184 L464 184 L491 338 L421 338 Z " />
<glyph glyph-name="asciitilde" unicode="&#x7e;" horiz-adv-x="411" d="M361 279 C330 258 308 247 295 247 C261 247 238 278 200 278 C164 278 126 258 79 225 L116 106 C148 129 162 134 174 134 C209 134 232 103 269 103 C308 103 352 128 399 161 L361 279 Z " />
<glyph glyph-name="uni00A0" unicode="&#xa0;" horiz-adv-x="199" d="" />
<glyph glyph-name="exclamdown" unicode="&#xa1;" horiz-adv-x="247" d="M129 506 C120 458 149 422 197 422 C244 422 287 458 296 506 C304 554 274 590 227 590 C179 590 137 554 129 506 L129 506 Z M246 250 L257 390 L126 390 L89 250 L43 -6 L200 -6 L246 250 Z " />
<glyph glyph-name="cent" unicode="&#xa2;" horiz-adv-x="592" d="M498 196 C445 157 398 148 361 148 C314 148 232 174 253 299 C272 411 353 442 412 442 C449 442 489 435 528 396 L641 507 C598 558 539 584 482 593 L501 703 L337 703 L314 572 C215 535 119 448 92 299 C62 130 133 52 216 17 L195 -107 L359 -107 L377 -3 C437 6 505 34 565 85 L498 196 Z " />
<glyph glyph-name="sterling" unicode="&#xa3;" horiz-adv-x="550" d="M425 205 L452 362 L329 362 L337 406 C345 451 381 453 401 453 C420 453 471 450 514 423 L583 545 C544 584 486 596 423 596 C354 596 207 558 178 394 L172 362 L103 362 L76 205 L145 205 L136 154 L67 154 L40 0 L510 0 L537 154 L293 154 L302 205 L425 205 Z " />
<glyph glyph-name="currency" unicode="&#xa4;" horiz-adv-x="508" d="M297 249 C314 249 326 237 323 220 C320 205 306 194 290 194 L288 194 C269 194 258 205 261 220 C264 237 280 249 297 249 L297 249 Z M320 381 C292 381 269 377 245 364 C230 380 208 406 197 418 L96 323 L146 269 C138 253 134 235 131 220 C128 205 127 190 130 175 C107 158 81 137 61 121 L128 26 L196 77 C215 68 238 62 261 62 L267 62 C290 62 315 68 338 77 L388 26 L489 121 C474 137 454 158 438 175 C446 190 451 205 453 220 C456 235 459 253 456 269 L524 323 L457 418 C442 406 411 380 391 364 C371 377 350 381 322 381 L320 381 Z " />
<glyph glyph-name="yen" unicode="&#xa5;" horiz-adv-x="675" d="M739 590 L557 590 L403 376 L325 590 L144 590 L247 321 L216 321 L194 193 L293 193 L288 170 L189 170 L167 42 L266 42 L259 0 L416 0 L423 42 L522 42 L544 170 L445 170 L450 193 L549 193 L571 321 L540 321 L739 590 Z " />
<glyph glyph-name="brokenbar" unicode="&#xa6;" horiz-adv-x="237" d="M95 317 L252 317 L324 724 L167 724 L95 317 Z M4 -204 L161 -204 L232 203 L75 203 L4 -204 Z " />
<glyph glyph-name="section" unicode="&#xa7;" horiz-adv-x="450" d="M329 596 C241 596 136 554 120 455 C113 420 127 394 146 374 C119 355 101 337 94 296 C78 212 274 172 270 148 C267 137 243 135 232 135 C209 135 176 140 145 147 C128 150 110 154 91 159 L68 32 C83 13 149 -6 230 -6 C329 -6 419 52 435 144 C440 175 428 200 409 221 C437 248 455 268 462 307 C478 399 278 428 282 448 C285 455 300 454 320 454 C339 454 372 453 401 450 C418 449 436 448 455 447 L476 565 C460 582 410 596 329 596 L329 596 Z M314 311 C311 300 294 298 277 298 C262 298 244 299 247 310 C250 321 267 322 282 322 C297 322 317 320 314 311 L314 311 Z " />
<glyph glyph-name="dieresis" unicode="&#xa8;" horiz-adv-x="437" d="M117 442 L280 442 L307 590 L144 590 L117 442 Z M311 442 L474 442 L501 590 L338 590 L311 442 Z " />
<glyph glyph-name="copyright" unicode="&#xa9;" horiz-adv-x="680" d="M442 595 C279 595 120 461 91 294 C62 130 174 -5 337 -5 C505 -5 662 130 691 294 C720 461 610 595 442 595 L442 595 Z M355 99 C255 99 176 192 195 294 C214 401 323 493 424 493 C532 493 607 401 588 294 C569 192 463 99 355 99 L355 99 Z M360 132 C394 132 437 132 504 186 L469 264 C422 240 405 240 389 240 C371 240 341 252 349 297 C354 333 389 345 407 345 C422 345 439 344 480 319 L543 399 C496 454 451 454 417 454 C356 454 255 407 237 296 C213 171 305 135 360 132 L360 132 Z " />
<glyph glyph-name="ordfeminine" unicode="&#xaa;" horiz-adv-x="401" d="M438 438 C453 535 402 596 294 596 C223 596 187 583 164 566 L145 459 C154 460 164 462 175 463 C194 466 219 468 247 468 C290 468 305 458 308 447 L305 428 C280 444 251 445 231 445 C151 445 114 420 102 352 C81 229 184 235 200 235 C219 235 251 240 282 261 L279 239 L403 239 L438 438 Z M289 338 C285 337 281 336 276 335 C268 334 257 333 248 333 C235 333 230 343 231 350 C234 358 239 368 254 368 C271 368 287 366 294 363 L289 338 Z " />
<glyph glyph-name="guillemotleft" unicode="&#xab;" horiz-adv-x="573" d="M123 0 L292 0 L246 212 L363 416 L194 416 L77 212 L123 0 Z M364 0 L533 0 L487 212 L604 416 L435 416 L318 212 L364 0 Z " />
<glyph glyph-name="logicalnot" unicode="&#xac;" horiz-adv-x="481" d="M289 34 L446 34 L491 286 L90 286 L63 132 L307 132 L289 34 Z " />
<glyph glyph-name="uni00AD" unicode="&#xad;" horiz-adv-x="198" d="" />
<glyph glyph-name="registered" unicode="&#xae;" horiz-adv-x="680" d="M442 595 C279 595 120 461 91 294 C62 130 174 -5 337 -5 C505 -5 662 130 691 294 C720 461 610 595 442 595 L442 595 Z M355 99 C255 99 176 192 195 294 C214 401 323 493 424 493 C532 493 607 401 588 294 C569 192 463 99 355 99 L355 99 Z M528 324 C541 401 484 431 439 431 L294 431 L247 161 L356 161 L365 212 L370 212 C375 212 376 203 380 180 L383 161 L496 161 L492 187 C485 219 482 236 469 249 C500 264 521 293 528 324 L528 324 Z M380 298 L387 338 L409 338 C420 338 430 330 427 319 C424 304 413 298 402 298 L380 298 Z " />
<glyph glyph-name="macron" unicode="&#xaf;" horiz-adv-x="416" d="M455 449 L480 590 L144 590 L119 449 L455 449 Z " />
<glyph glyph-name="degree" unicode="&#xb0;" horiz-adv-x="368" d="M238 308 C313 308 393 374 407 452 C421 533 364 596 289 596 C213 596 132 533 119 452 C105 374 161 308 238 308 L238 308 Z M258 425 C247 425 234 429 238 452 C241 471 256 476 267 476 C278 476 292 471 289 452 C285 429 269 425 258 425 L258 425 Z " />
<glyph glyph-name="plusminus" unicode="&#xb1;" horiz-adv-x="435" d="M391 543 L234 543 L216 441 L117 441 L90 287 L189 287 L172 188 L329 188 L346 287 L445 287 L472 441 L373 441 L391 543 Z M40 0 L395 0 L422 154 L67 154 L40 0 Z " />
<glyph glyph-name="twosuperior" unicode="&#xb2;" horiz-adv-x="358" d="M78 217 L347 217 L367 329 L256 329 C312 374 384 378 400 466 C416 552 355 596 275 596 C214 596 182 581 153 570 L132 452 C145 456 159 460 172 463 C195 468 222 474 241 474 C262 474 271 471 270 464 C266 439 109 403 93 305 L78 217 Z " />
<glyph glyph-name="threesuperior" unicode="&#xb3;" horiz-adv-x="348" d="M201 445 L167 360 L215 360 C227 360 242 359 239 344 C236 325 220 329 201 329 C184 329 159 334 138 339 C126 342 114 345 101 349 L82 243 C102 231 132 217 195 217 C290 217 356 274 367 337 C374 372 365 399 350 414 C370 431 388 454 391 474 C407 564 318 596 266 596 C199 596 159 578 140 570 L120 458 C133 461 145 463 157 466 C178 470 202 474 221 474 C236 474 263 479 260 460 C257 449 240 445 228 445 L201 445 Z " />
<glyph glyph-name="acute" unicode="&#xb4;" horiz-adv-x="332" d="M396 590 L224 590 L111 405 L259 405 L396 590 Z " />
<glyph glyph-name="mu" unicode="&#xb5;" horiz-adv-x="442" d="M-2 -185 L154 -185 L186 -4 C209 0 237 7 260 26 L258 0 L407 0 L478 405 L321 405 L279 170 C277 165 274 162 271 159 C264 152 254 148 237 148 C229 148 213 152 216 168 L258 405 L101 405 L-2 -185 Z " />
<glyph glyph-name="paragraph" unicode="&#xb6;" horiz-adv-x="560" d="M624 590 L289 590 C204 577 130 509 114 424 C101 350 140 282 212 263 L166 0 L323 0 L399 435 L438 435 L362 0 L520 0 L624 590 Z " />
<glyph glyph-name="periodcentered" unicode="&#xb7;" horiz-adv-x="243" d="M62 127 L225 127 L251 273 L88 273 L62 127 Z " />
<glyph glyph-name="cedilla" unicode="&#xb8;" horiz-adv-x="332" d="M6 -191 L178 -191 L290 -6 L142 -6 L6 -191 Z " />
<glyph glyph-name="onesuperior" unicode="&#xb9;" horiz-adv-x="311" d="M112 412 L222 459 L185 246 L314 246 L375 590 L252 590 L134 534 L112 412 Z " />
<glyph glyph-name="ordmasculine" unicode="&#xba;" horiz-adv-x="368" d="M238 308 C313 308 393 374 407 452 C421 533 364 596 289 596 C213 596 132 533 119 452 C105 374 161 308 238 308 L238 308 Z M258 425 C247 425 234 429 238 452 C241 471 256 476 267 476 C278 476 292 471 289 452 C285 429 269 425 258 425 L258 425 Z " />
<glyph glyph-name="guillemotright" unicode="&#xbb;" horiz-adv-x="573" d="M570 212 L525 416 L356 416 L401 212 L281 0 L450 0 L570 212 Z M329 212 L284 416 L115 416 L160 212 L40 0 L209 0 L329 212 Z " />
<glyph glyph-name="onequarter" unicode="&#xbc;" horiz-adv-x="831" d="M543 590 L686 590 L358 0 L215 0 L543 590 Z M112 412 L222 459 L185 246 L314 246 L375 590 L252 590 L134 534 L112 412 Z M627 0 L756 0 L770 83 L804 83 L824 193 L790 193 L819 361 L666 361 L498 187 L480 83 L641 83 L627 0 Z M622 186 L668 236 L659 186 L622 186 Z " />
<glyph glyph-name="onehalf" unicode="&#xbd;" horiz-adv-x="822" d="M543 590 L686 590 L358 0 L215 0 L543 590 Z M112 412 L222 459 L185 246 L314 246 L375 590 L252 590 L134 534 L112 412 Z M504 0 L773 0 L792 112 L681 112 C737 158 809 161 825 249 C841 335 781 379 700 379 C639 379 608 364 579 353 L558 235 C571 239 585 243 598 246 C621 251 648 257 667 257 C687 257 697 254 696 247 C692 222 535 186 519 88 L504 0 Z " />
<glyph glyph-name="threequarters" unicode="&#xbe;" horiz-adv-x="852" d="M563 590 L706 590 L378 0 L235 0 L563 590 Z M199 435 L165 350 L213 350 C225 350 240 349 237 334 C234 315 218 319 199 319 C182 319 157 324 136 329 C124 332 112 335 99 339 L81 233 C100 221 130 207 193 207 C288 207 354 264 365 327 C372 362 364 389 349 404 C369 421 386 444 389 464 C405 554 316 586 264 586 C197 586 157 568 138 560 L118 448 C131 451 143 453 155 456 C176 460 200 464 219 464 C234 464 261 469 258 450 C255 439 238 435 226 435 L199 435 Z M649 0 L778 0 L792 83 L826 83 L846 193 L812 193 L841 361 L688 361 L520 187 L502 83 L663 83 L649 0 Z M644 186 L690 236 L681 186 L644 186 Z " />
<glyph glyph-name="questiondown" unicode="&#xbf;" horiz-adv-x="490" d="M433 401 L276 401 L269 360 C123 352 79 220 71 181 C45 33 172 -6 259 -6 C357 -6 409 16 456 37 L482 182 C457 175 432 170 409 165 C369 156 321 148 293 148 C272 148 223 152 228 176 C234 209 274 215 406 244 L433 401 Z M459 512 C467 559 437 596 390 596 C343 596 299 559 291 512 C283 465 313 428 360 428 C407 428 451 465 459 512 L459 512 Z " />
<glyph glyph-name="Agrave" unicode="&#xc0;" horiz-adv-x="584" d="M258 842 L430 842 L477 657 L329 657 L258 842 Z M470 590 L321 590 L0 0 L167 0 L217 92 L397 92 L417 0 L584 0 L471 590 L470 590 Z M298 242 L351 339 L370 242 L298 242 Z " />
<glyph glyph-name="Aacute" unicode="&#xc1;" horiz-adv-x="584" d="M485 657 L337 657 L450 842 L622 842 L485 657 Z M321 590 L0 0 L167 0 L219 92 L399 92 L417 0 L584 0 L471 590 L322 590 L321 590 Z M298 242 L351 339 L370 242 L298 242 Z " />
<glyph glyph-name="Acircumflex" unicode="&#xc2;" horiz-adv-x="584" d="M470 590 L321 590 L0 0 L167 0 L217 92 L397 92 L417 0 L584 0 L471 590 L470 590 Z M298 242 L351 339 L370 242 L298 242 Z M503 865 L575 657 L434 657 L418 715 L380 657 L239 657 L384 865 L503 865 Z " />
<glyph glyph-name="Atilde" unicode="&#xc3;" horiz-adv-x="584" d="M470 590 L321 590 L0 0 L167 0 L217 92 L397 92 L417 0 L584 0 L471 590 L470 590 Z M298 242 L351 339 L370 242 L298 242 Z M583 715 C536 682 491 657 452 657 C415 657 392 688 358 688 C346 688 332 683 300 660 L263 779 C310 812 347 832 383 832 C421 832 444 801 479 801 C492 801 513 812 544 833 L583 715 Z " />
<glyph glyph-name="Adieresis" unicode="&#xc4;" horiz-adv-x="584" d="M470 590 L321 590 L0 0 L167 0 L217 92 L397 92 L417 0 L584 0 L471 590 L470 590 Z M298 242 L351 339 L370 242 L298 242 Z M229 657 L392 657 L418 805 L255 805 L229 657 Z M423 657 L586 657 L612 805 L449 805 L423 657 Z " />
<glyph glyph-name="Aring" unicode="&#xc5;" horiz-adv-x="584" d="M470 590 L321 590 L0 0 L167 0 L217 92 L397 92 L417 0 L584 0 L471 590 L470 590 Z M298 242 L351 339 L370 242 L298 242 Z M407 657 C483 657 563 723 577 801 C591 882 535 945 458 945 C381 945 303 882 289 801 C275 723 331 657 407 657 L407 657 Z M428 774 C417 774 404 778 408 801 C411 820 426 825 437 825 C448 825 462 820 459 801 C455 778 439 774 428 774 L428 774 Z " />
<glyph glyph-name="AE" unicode="&#xc6;" horiz-adv-x="888" d="M502 590 L0 0 L189 0 L287 116 L459 116 L439 0 L858 0 L885 154 L623 154 L633 213 L849 213 L876 367 L660 367 L672 436 L934 436 L962 590 L502 590 Z M421 273 L504 371 L487 273 L421 273 Z " />
<glyph glyph-name="Ccedilla" unicode="&#xc7;" horiz-adv-x="537" d="M387 442 C424 442 464 435 503 396 L616 507 C561 570 485 596 416 596 C289 596 104 515 67 299 C23 47 202 -6 310 -6 C379 -6 464 22 540 85 L473 196 C420 157 373 148 336 148 C289 148 207 174 228 299 C247 411 328 442 387 442 L387 442 Z M83 -249 L255 -249 L367 -64 L219 -64 L83 -249 Z " />
<glyph glyph-name="Egrave" unicode="&#xc8;" horiz-adv-x="489" d="M535 436 L563 590 L144 590 L40 0 L459 0 L486 154 L224 154 L234 213 L450 213 L477 367 L261 367 L273 436 L535 436 Z M243 842 L415 842 L462 657 L314 657 L243 842 Z " />
<glyph glyph-name="Eacute" unicode="&#xc9;" horiz-adv-x="489" d="M535 436 L563 590 L144 590 L40 0 L459 0 L486 154 L224 154 L234 213 L450 213 L477 367 L261 367 L273 436 L535 436 Z M427 657 L279 657 L392 842 L564 842 L427 657 Z " />
<glyph glyph-name="Ecircumflex" unicode="&#xca;" horiz-adv-x="489" d="M535 436 L563 590 L144 590 L40 0 L459 0 L486 154 L224 154 L234 213 L450 213 L477 367 L261 367 L273 436 L535 436 Z M467 865 L539 657 L398 657 L382 715 L344 657 L203 657 L348 865 L467 865 Z " />
<glyph glyph-name="Edieresis" unicode="&#xcb;" horiz-adv-x="489" d="M535 436 L563 590 L144 590 L40 0 L459 0 L486 154 L224 154 L234 213 L450 213 L477 367 L261 367 L273 436 L535 436 Z M190 657 L353 657 L379 805 L216 805 L190 657 Z M384 657 L547 657 L573 805 L410 805 L384 657 Z " />
<glyph glyph-name="Igrave" unicode="&#xcc;" horiz-adv-x="237" d="M40 0 L197 0 L301 590 L144 590 L40 0 Z M88 842 L260 842 L307 657 L159 657 L88 842 Z " />
<glyph glyph-name="Iacute" unicode="&#xcd;" horiz-adv-x="237" d="M301 590 L144 590 L40 0 L197 0 L301 590 Z M308 657 L160 657 L273 842 L445 842 L308 657 Z " />
<glyph glyph-name="Icircumflex" unicode="&#xce;" horiz-adv-x="237" d="M40 0 L197 0 L301 590 L144 590 L40 0 Z M329 865 L401 657 L260 657 L244 715 L206 657 L65 657 L210 865 L329 865 Z " />
<glyph glyph-name="Idieresis" unicode="&#xcf;" horiz-adv-x="237" d="M40 0 L197 0 L301 590 L144 590 L40 0 Z M55 657 L218 657 L244 805 L81 805 L55 657 Z M249 657 L412 657 L438 805 L275 805 L249 657 Z " />
<glyph glyph-name="Eth" unicode="&#xd0;" horiz-adv-x="592" d="M620 301 C658 515 518 590 388 590 L183 590 L143 363 L64 363 L38 219 L117 219 L79 0 L296 0 C403 0 577 58 620 301 L620 301 Z M382 219 L408 363 L300 363 L312 436 L366 436 C426 436 481 407 462 298 C441 172 363 154 314 154 L263 154 L274 219 L382 219 Z " />
<glyph glyph-name="Ntilde" unicode="&#xd1;" horiz-adv-x="587" d="M408 0 L547 0 L651 590 L494 590 L441 293 L280 590 L144 590 L40 0 L197 0 L248 294 L408 0 Z M563 715 C516 682 471 657 432 657 C395 657 372 688 338 688 C326 688 312 683 280 660 L243 779 C290 812 327 832 363 832 C401 832 424 801 459 801 C472 801 493 812 524 833 L563 715 Z " />
<glyph glyph-name="Ograve" unicode="&#xd2;" horiz-adv-x="618" d="M336 148 L334 148 C285 148 213 173 234 300 C253 412 327 442 385 442 C446 442 507 412 488 300 C467 173 384 148 336 148 L336 148 Z M308 -6 C419 -6 601 52 646 303 C683 518 546 596 414 596 C283 596 115 518 78 303 C34 52 198 -6 306 -6 L308 -6 Z M277 842 L449 842 L496 657 L348 657 L277 842 Z " />
<glyph glyph-name="Oacute" unicode="&#xd3;" horiz-adv-x="618" d="M336 148 L334 148 C285 148 213 173 234 300 C253 412 327 442 387 442 C447 442 507 412 488 300 C467 173 384 148 336 148 L336 148 Z M308 -6 C419 -6 601 52 646 303 C683 518 546 596 414 596 C283 596 115 518 78 303 C34 52 198 -6 306 -6 L308 -6 Z M500 657 L352 657 L465 842 L637 842 L500 657 Z " />
<glyph glyph-name="Ocircumflex" unicode="&#xd4;" horiz-adv-x="618" d="M336 148 L334 148 C285 148 213 173 234 300 C253 412 327 442 385 442 C446 442 507 412 488 300 C467 173 384 148 336 148 L336 148 Z M308 -6 C419 -6 601 52 646 303 C683 518 546 596 414 596 C283 596 115 518 78 303 C34 52 198 -6 306 -6 L308 -6 Z M521 865 L593 657 L452 657 L436 715 L398 657 L257 657 L402 865 L521 865 Z " />
<glyph glyph-name="Otilde" unicode="&#xd5;" horiz-adv-x="618" d="M336 148 L334 148 C285 148 213 173 234 300 C253 412 327 442 385 442 C446 442 507 412 488 300 C467 173 384 148 336 148 L336 148 Z M308 -6 C419 -6 601 52 646 303 C683 518 546 596 414 596 C283 596 115 518 78 303 C34 52 198 -6 306 -6 L308 -6 Z M599 715 C552 682 507 657 468 657 C431 657 408 688 374 688 C362 688 348 683 316 660 L279 779 C326 812 363 832 399 832 C437 832 460 801 495 801 C508 801 529 812 560 833 L599 715 Z " />
<glyph glyph-name="Odieresis" unicode="&#xd6;" horiz-adv-x="618" d="M336 148 L334 148 C285 148 213 173 234 300 C253 412 327 442 385 442 C446 442 507 412 488 300 C467 173 384 148 336 148 L336 148 Z M308 -6 C419 -6 601 52 646 303 C683 518 546 596 414 596 C283 596 115 518 78 303 C34 52 198 -6 306 -6 L308 -6 Z M245 657 L408 657 L434 805 L271 805 L245 657 Z M439 657 L602 657 L628 805 L465 805 L439 657 Z " />
<glyph glyph-name="multiply" unicode="&#xd7;" horiz-adv-x="498" d="M263 80 L276 42 L460 42 L378 207 L524 378 L340 378 L308 335 L290 378 L106 378 L192 207 L52 42 L236 42 L263 80 Z " />
<glyph glyph-name="Oslash" unicode="&#xd8;" horiz-adv-x="618" d="M648 657 L477 657 L442 595 C433 596 425 596 414 596 C283 596 115 518 78 303 C55 172 88 95 140 50 L71 -74 L242 -74 L283 -5 C290 -6 298 -6 306 -6 L308 -6 C419 -6 601 52 646 303 C666 420 636 495 583 540 L648 657 Z M334 148 C285 148 213 173 234 300 C253 412 327 442 385 442 C446 442 507 412 488 300 C467 173 384 148 336 148 L334 148 Z " />
<glyph glyph-name="Ugrave" unicode="&#xd9;" horiz-adv-x="568" d="M284 -6 C391 -6 535 36 575 270 L632 590 L475 590 L416 257 C400 161 353 148 310 148 C265 148 226 161 242 257 L301 590 L144 590 L87 270 C47 36 172 -6 280 -6 L284 -6 Z M254 842 L426 842 L473 657 L325 657 L254 842 Z " />
<glyph glyph-name="Uacute" unicode="&#xda;" horiz-adv-x="568" d="M284 -6 C391 -6 535 36 575 270 L632 590 L475 590 L416 257 C400 161 353 148 310 148 C265 148 226 161 242 257 L301 590 L144 590 L87 270 C47 36 172 -6 280 -6 L284 -6 Z M473 657 L325 657 L438 842 L610 842 L473 657 Z " />
<glyph glyph-name="Ucircumflex" unicode="&#xdb;" horiz-adv-x="568" d="M284 -6 C391 -6 535 36 575 270 L632 590 L475 590 L416 257 C400 161 353 148 310 148 C265 148 226 161 242 257 L301 590 L144 590 L87 270 C47 36 172 -6 280 -6 L284 -6 Z M495 865 L567 657 L426 657 L410 715 L372 657 L231 657 L376 865 L495 865 Z " />
<glyph glyph-name="Udieresis" unicode="&#xdc;" horiz-adv-x="568" d="M284 -6 C391 -6 535 36 575 270 L632 590 L475 590 L416 257 C400 161 353 148 310 148 C265 148 226 161 242 257 L301 590 L144 590 L87 270 C47 36 172 -6 280 -6 L284 -6 Z M221 657 L384 657 L410 805 L247 805 L221 657 Z M415 657 L578 657 L604 805 L441 805 L415 657 Z " />
<glyph glyph-name="Yacute" unicode="&#xdd;" horiz-adv-x="585" d="M406 199 L694 590 L512 590 L358 376 L280 590 L99 590 L249 199 L214 0 L371 0 L406 199 Z M477 657 L329 657 L442 842 L614 842 L477 657 Z " />
<glyph glyph-name="Thorn" unicode="&#xde;" horiz-adv-x="514" d="M35 0 L193 0 L207 84 L317 84 C393 84 530 129 562 303 C588 449 477 513 390 513 L283 513 L297 590 L139 590 L35 0 Z M365 359 C385 359 412 341 405 301 C397 249 360 238 343 238 L234 238 L256 359 L365 359 Z " />
<glyph glyph-name="germandbls" unicode="&#xdf;" horiz-adv-x="529" d="M382 590 C274 590 135 573 95 341 L35 0 L192 0 L251 338 C267 430 299 437 342 437 L372 437 C391 437 413 433 409 410 C404 381 379 370 360 370 L329 370 L268 221 L362 221 C379 220 398 209 394 186 C389 155 366 153 347 153 L263 153 L237 0 L316 0 C474 0 538 108 549 175 C560 235 547 286 516 309 C543 336 561 384 566 413 C593 560 487 590 404 590 L382 590 Z " />
<glyph glyph-name="agrave" unicode="&#xe0;" horiz-adv-x="429" d="M434 230 C450 342 392 411 269 411 C189 411 152 400 115 389 L92 259 C109 261 126 263 142 266 C169 270 199 274 216 274 C267 274 278 258 279 243 L276 225 C251 238 217 243 197 243 C109 243 52 216 39 137 C15 -2 138 -6 159 -6 C174 -6 211 -4 246 25 L245 0 L394 0 L434 230 Z M258 122 C253 121 249 120 245 119 C237 117 228 116 218 116 C201 116 194 126 195 135 C198 142 205 154 225 154 C248 154 259 150 262 147 L258 122 Z M181 647 L353 647 L400 462 L252 462 L181 647 Z " />
<glyph glyph-name="aacute" unicode="&#xe1;" horiz-adv-x="429" d="M434 230 C450 342 392 411 269 411 C189 411 152 400 115 389 L92 259 C109 261 126 263 142 266 C169 270 199 274 216 274 C267 274 278 258 279 243 L276 225 C251 238 217 243 197 243 C109 243 52 216 39 137 C15 -2 138 -6 159 -6 C174 -6 211 -4 246 25 L245 0 L394 0 L434 230 Z M258 122 C253 121 249 120 245 119 C237 117 228 116 218 116 C201 116 194 126 195 135 C198 142 205 154 225 154 C248 154 259 150 262 147 L258 122 Z M363 462 L215 462 L328 647 L500 647 L363 462 Z " />
<glyph glyph-name="acircumflex" unicode="&#xe2;" horiz-adv-x="429" d="M434 230 C450 342 392 411 269 411 C189 411 152 400 115 389 L92 259 C109 261 126 263 142 266 C169 270 199 274 216 274 C267 274 278 258 279 243 L276 225 C251 238 217 243 197 243 C109 243 52 216 39 137 C15 -2 138 -6 159 -6 C174 -6 211 -4 246 25 L245 0 L394 0 L434 230 Z M258 122 C253 121 249 120 245 119 C237 117 228 116 218 116 C201 116 194 126 195 135 C198 142 205 154 225 154 C248 154 259 150 262 147 L258 122 Z M388 670 L460 462 L319 462 L302 520 L265 462 L124 462 L269 670 L388 670 Z " />
<glyph glyph-name="atilde" unicode="&#xe3;" horiz-adv-x="429" d="M434 230 C450 342 392 411 269 411 C189 411 152 400 115 389 L92 259 C109 261 126 263 142 266 C169 270 199 274 216 274 C267 274 278 258 279 243 L276 225 C251 238 217 243 197 243 C109 243 52 216 39 137 C15 -2 138 -6 159 -6 C174 -6 211 -4 246 25 L245 0 L394 0 L434 230 Z M258 122 C253 121 249 120 245 119 C237 117 228 116 218 116 C201 116 194 126 195 135 C198 142 205 154 225 154 C248 154 259 150 262 147 L258 122 Z M463 520 C416 487 372 462 333 462 C296 462 273 493 238 493 C226 493 212 488 180 465 L143 584 C190 617 228 637 264 637 C302 637 325 606 359 606 C372 606 394 617 425 638 L463 520 Z " />
<glyph glyph-name="adieresis" unicode="&#xe4;" horiz-adv-x="429" d="M434 230 C450 342 392 411 269 411 C189 411 152 400 115 389 L92 259 C109 261 126 263 142 266 C169 270 199 274 216 274 C267 274 278 258 279 243 L276 225 C251 238 217 243 197 243 C109 243 52 216 39 137 C15 -2 138 -6 159 -6 C174 -6 211 -4 246 25 L245 0 L394 0 L434 230 Z M258 122 C253 121 249 120 245 119 C237 117 228 116 218 116 C201 116 194 126 195 135 C198 142 205 154 225 154 C248 154 259 150 262 147 L258 122 Z M114 462 L277 462 L303 610 L140 610 L114 462 Z M308 462 L471 462 L497 610 L334 610 L308 462 Z " />
<glyph glyph-name="aring" unicode="&#xe5;" horiz-adv-x="429" d="M434 230 C450 342 392 411 269 411 C189 411 152 400 115 389 L92 259 C109 261 126 263 142 266 C169 270 199 274 216 274 C267 274 278 258 279 243 L276 225 C251 238 217 243 197 243 C109 243 52 216 39 137 C15 -2 138 -6 159 -6 C174 -6 211 -4 246 25 L245 0 L394 0 L434 230 Z M258 122 C253 121 249 120 245 119 C237 117 228 116 218 116 C201 116 194 126 195 135 C198 142 205 154 225 154 C248 154 259 150 262 147 L258 122 Z M302 462 C378 462 457 528 471 606 C487 687 429 750 353 750 C275 750 199 687 183 606 C169 528 227 462 302 462 L302 462 Z M323 579 C312 579 298 583 302 606 C306 625 321 630 332 630 C343 630 357 625 353 606 C349 583 334 579 323 579 L323 579 Z " />
<glyph glyph-name="ae" unicode="&#xe6;" horiz-adv-x="643" d="M657 223 C676 332 618 411 506 411 C463 411 423 399 388 376 C359 399 320 411 269 411 C189 411 152 400 115 389 L92 259 C109 261 126 263 142 266 C169 270 199 274 216 274 C267 274 278 258 279 243 L276 225 C251 238 217 243 197 243 C109 243 52 216 39 137 C15 -2 138 -6 159 -6 C173 -6 268 -6 317 35 C346 8 390 -6 447 -6 C525 -6 549 3 599 24 L621 150 C606 147 590 145 574 142 C547 138 513 135 486 135 C446 135 421 147 424 171 L424 173 L648 173 L657 223 Z M436 249 C451 280 469 285 484 285 C501 285 518 280 518 249 L436 249 Z M258 122 C253 121 249 120 245 119 C237 117 228 116 218 116 C201 116 194 126 195 135 C198 142 205 154 225 154 C248 154 259 150 262 147 L258 122 Z " />
<glyph glyph-name="ccedilla" unicode="&#xe7;" horiz-adv-x="402" d="M219 -6 C262 -6 318 -6 407 64 L360 166 C300 135 276 135 256 135 C233 135 197 148 207 208 C216 256 255 270 280 270 C300 270 320 270 373 236 L457 341 C392 411 336 411 292 411 C213 411 75 351 51 207 C22 45 146 -3 218 -6 L219 -6 Z M9 -249 L181 -249 L293 -64 L145 -64 L9 -249 Z " />
<glyph glyph-name="egrave" unicode="&#xe8;" horiz-adv-x="426" d="M440 223 C459 332 401 411 289 411 C172 411 74 314 55 203 C34 87 90 -6 230 -6 C308 -6 332 3 382 24 L404 150 C389 147 373 145 357 142 C330 138 296 135 269 135 C228 135 204 148 207 173 L431 173 L440 223 Z M219 249 C234 280 252 285 267 285 C284 285 301 280 301 249 L219 249 Z M181 647 L353 647 L400 462 L252 462 L181 647 Z " />
<glyph glyph-name="eacute" unicode="&#xe9;" horiz-adv-x="426" d="M440 223 C459 332 401 411 289 411 C172 411 74 314 55 203 C34 87 90 -6 230 -6 C308 -6 332 3 382 24 L404 150 C389 147 373 145 357 142 C330 138 296 135 269 135 C228 135 204 148 207 173 L431 173 L440 223 Z M219 249 C234 280 252 285 267 285 C284 285 301 280 301 249 L219 249 Z M352 462 L204 462 L317 647 L489 647 L352 462 Z " />
<glyph glyph-name="ecircumflex" unicode="&#xea;" horiz-adv-x="426" d="M440 223 C459 332 401 411 289 411 C172 411 74 314 55 203 C34 87 90 -6 230 -6 C308 -6 332 3 382 24 L404 150 C389 147 373 145 357 142 C330 138 296 135 269 135 C228 135 204 148 207 173 L431 173 L440 223 Z M219 249 C234 280 252 285 267 285 C284 285 301 280 301 249 L219 249 Z M396 670 L468 462 L327 462 L310 520 L273 462 L132 462 L277 670 L396 670 Z " />
<glyph glyph-name="edieresis" unicode="&#xeb;" horiz-adv-x="426" d="M440 223 C459 332 401 411 289 411 C172 411 74 314 55 203 C34 87 90 -6 230 -6 C308 -6 332 3 382 24 L404 150 C389 147 373 145 357 142 C330 138 296 135 269 135 C228 135 204 148 207 173 L431 173 L440 223 Z M219 249 C234 280 252 285 267 285 C284 285 301 280 301 249 L219 249 Z M114 462 L277 462 L303 610 L140 610 L114 462 Z M308 462 L471 462 L497 610 L334 610 L308 462 Z " />
<glyph glyph-name="igrave" unicode="&#xec;" horiz-adv-x="237" d="M40 0 L197 0 L268 405 L111 405 L40 0 Z M56 647 L228 647 L275 462 L127 462 L56 647 Z " />
<glyph glyph-name="iacute" unicode="&#xed;" horiz-adv-x="237" d="M268 405 L111 405 L40 0 L197 0 L268 405 Z M272 462 L124 462 L237 647 L409 647 L272 462 Z " />
<glyph glyph-name="icircumflex" unicode="&#xee;" horiz-adv-x="237" d="M40 0 L197 0 L268 405 L111 405 L40 0 Z M295 670 L367 462 L226 462 L209 520 L172 462 L31 462 L176 670 L295 670 Z " />
<glyph glyph-name="idieresis" unicode="&#xef;" horiz-adv-x="237" d="M40 0 L197 0 L268 405 L111 405 L40 0 Z M21 462 L184 462 L210 610 L47 610 L21 462 Z M215 462 L378 462 L404 610 L241 610 L215 462 Z " />
<glyph glyph-name="eth" unicode="&#xf0;" horiz-adv-x="494" d="M290 385 C206 385 78 339 54 193 C25 22 163 -6 233 -6 L240 -6 C312 -6 463 23 492 192 L514 316 C537 440 531 523 494 576 L531 612 L445 699 C430 682 406 658 389 641 C374 644 359 645 340 645 C261 645 195 628 172 612 L152 497 C161 499 172 501 183 503 C202 506 227 509 254 510 L226 481 L314 399 L369 453 C374 434 373 406 369 371 C344 382 309 385 290 385 L290 385 Z M264 148 C245 148 202 151 210 192 C218 229 257 231 278 231 C299 231 343 229 335 192 C330 154 284 148 264 148 L264 148 Z " />
<glyph glyph-name="ntilde" unicode="&#xf1;" horiz-adv-x="442" d="M192 0 L233 235 C238 239 244 243 249 246 C258 251 269 257 280 257 C288 257 300 253 297 241 L255 0 L412 0 L459 271 C472 350 430 411 350 411 C327 411 285 404 252 379 L255 405 L106 405 L35 0 L192 0 Z M479 520 C432 487 388 462 349 462 C312 462 289 493 254 493 C242 493 228 488 196 465 L159 584 C206 617 244 637 280 637 C318 637 341 606 375 606 C388 606 410 617 441 638 L479 520 Z " />
<glyph glyph-name="ograve" unicode="&#xf2;" horiz-adv-x="442" d="M222 -6 C295 -6 429 37 458 207 C482 351 379 411 294 411 C209 411 80 351 56 207 C27 37 142 -6 216 -6 L222 -6 Z M248 148 C229 148 204 156 212 204 C219 243 248 257 267 257 C286 257 307 243 300 204 C292 156 265 148 248 148 L248 148 Z M167 647 L339 647 L386 462 L238 462 L167 647 Z " />
<glyph glyph-name="oacute" unicode="&#xf3;" horiz-adv-x="442" d="M222 -6 C295 -6 429 37 458 207 C482 351 378 411 292 411 C209 411 80 351 56 207 C27 37 142 -6 216 -6 L222 -6 Z M246 148 C229 148 204 156 212 204 C219 243 246 257 265 257 C284 257 307 243 300 204 C292 156 264 148 246 148 L246 148 Z M366 462 L218 462 L331 647 L503 647 L366 462 Z " />
<glyph glyph-name="ocircumflex" unicode="&#xf4;" horiz-adv-x="442" d="M222 -6 C295 -6 429 37 458 207 C482 351 379 411 294 411 C209 411 80 351 56 207 C27 37 142 -6 216 -6 L222 -6 Z M248 148 C229 148 204 156 212 204 C219 243 248 257 267 257 C286 257 307 243 300 204 C292 156 265 148 248 148 L248 148 Z M399 670 L471 462 L330 462 L313 520 L276 462 L135 462 L280 670 L399 670 Z " />
<glyph glyph-name="otilde" unicode="&#xf5;" horiz-adv-x="442" d="M222 -6 C295 -6 429 37 458 207 C482 351 379 411 294 411 C209 411 80 351 56 207 C27 37 142 -6 216 -6 L222 -6 Z M248 148 C229 148 204 156 212 204 C219 243 248 257 267 257 C286 257 307 243 300 204 C292 156 265 148 248 148 L248 148 Z M478 520 C431 487 387 462 348 462 C311 462 288 493 253 493 C241 493 227 488 195 465 L158 584 C205 617 243 637 279 637 C317 637 340 606 374 606 C387 606 409 617 440 638 L478 520 Z " />
<glyph glyph-name="odieresis" unicode="&#xf6;" horiz-adv-x="442" d="M222 -6 C295 -6 429 37 458 207 C482 351 379 411 294 411 C209 411 80 351 56 207 C27 37 142 -6 216 -6 L222 -6 Z M248 148 C229 148 204 156 212 204 C219 243 248 257 267 257 C286 257 307 243 300 204 C292 156 265 148 248 148 L248 148 Z M125 462 L288 462 L314 610 L151 610 L125 462 Z M319 462 L482 462 L508 610 L345 610 L319 462 Z " />
<glyph glyph-name="divide" unicode="&#xf7;" horiz-adv-x="434" d="M426 184 L451 328 L97 328 L72 184 L426 184 Z M212 436 C204 389 232 354 279 354 C327 354 368 389 376 436 C385 483 356 519 308 519 C261 519 221 483 212 436 L212 436 Z M149 76 C141 29 168 -6 215 -6 C263 -6 305 29 313 76 C321 123 292 158 244 158 C197 158 157 123 149 76 L149 76 Z " />
<glyph glyph-name="oslash" unicode="&#xf8;" horiz-adv-x="442" d="M502 487 L331 487 L289 411 C204 408 80 348 56 207 C43 135 57 87 81 55 L11 -71 L182 -71 L220 -6 L222 -6 C295 -6 429 37 458 207 C469 271 455 319 428 352 L502 487 Z M248 148 C229 148 204 156 212 204 C219 243 248 257 267 257 C286 257 307 243 300 204 C292 156 265 148 248 148 L248 148 Z " />
<glyph glyph-name="ugrave" unicode="&#xf9;" horiz-adv-x="442" d="M321 405 L279 170 C277 165 274 162 271 159 C264 152 254 148 237 148 C229 148 213 152 216 168 L258 405 L101 405 L53 134 C40 55 82 -6 162 -6 C185 -6 228 1 260 26 L258 0 L407 0 L478 405 L321 405 Z M155 647 L327 647 L374 462 L226 462 L155 647 Z " />
<glyph glyph-name="uacute" unicode="&#xfa;" horiz-adv-x="442" d="M321 405 L279 170 C277 165 274 162 271 159 C264 152 254 148 237 148 C229 148 213 152 216 168 L258 405 L101 405 L53 134 C40 55 82 -6 162 -6 C185 -6 228 1 260 26 L258 0 L407 0 L478 405 L321 405 Z M369 462 L221 462 L334 647 L506 647 L369 462 Z " />
<glyph glyph-name="ucircumflex" unicode="&#xfb;" horiz-adv-x="442" d="M321 405 L279 170 C277 165 274 162 271 159 C264 152 254 148 237 148 C229 148 213 152 216 168 L258 405 L101 405 L53 134 C40 55 82 -6 162 -6 C185 -6 228 1 260 26 L258 0 L407 0 L478 405 L321 405 Z M396 670 L468 462 L327 462 L310 520 L273 462 L132 462 L277 670 L396 670 Z " />
<glyph glyph-name="udieresis" unicode="&#xfc;" horiz-adv-x="442" d="M321 405 L279 170 C277 165 274 162 271 159 C264 152 254 148 237 148 C229 148 213 152 216 168 L258 405 L101 405 L53 134 C40 55 82 -6 162 -6 C185 -6 228 1 260 26 L258 0 L407 0 L478 405 L321 405 Z M123 462 L286 462 L312 610 L149 610 L123 462 Z M317 462 L480 462 L506 610 L343 610 L317 462 Z " />
<glyph glyph-name="yacute" unicode="&#xfd;" horiz-adv-x="436" d="M107 -19 C89 -47 55 -50 49 -50 C46 -50 37 -50 2 -43 L-21 -180 C-15 -183 -8 -186 1 -189 C16 -194 38 -198 66 -198 C119 -198 173 -176 232 -79 L517 405 L344 405 L265 249 L245 405 L76 405 L142 43 L107 -19 Z M382 462 L234 462 L347 647 L519 647 L382 462 Z " />
<glyph glyph-name="thorn" unicode="&#xfe;" horiz-adv-x="451" d="M194 15 C217 -6 251 -6 274 -6 C345 -6 438 43 467 209 C491 350 428 411 347 411 C324 411 283 402 252 379 L290 590 L141 590 L2 -185 L159 -185 L194 15 Z M233 233 C238 238 242 242 247 245 C255 252 265 257 276 257 C287 257 318 247 310 209 C302 158 268 148 257 148 C234 148 225 164 222 172 L233 233 Z " />
<glyph glyph-name="ydieresis" unicode="&#xff;" horiz-adv-x="436" d="M107 -19 C89 -47 55 -50 49 -50 C46 -50 37 -50 2 -43 L-21 -180 C-15 -183 -8 -186 1 -189 C16 -194 38 -198 66 -198 C119 -198 173 -176 232 -79 L517 405 L344 405 L265 249 L245 405 L76 405 L142 43 L107 -19 Z M126 462 L289 462 L315 610 L152 610 L126 462 Z M320 462 L483 462 L509 610 L346 610 L320 462 Z " />
<glyph glyph-name="Amacron" unicode="&#x100;" horiz-adv-x="584" d="M470 590 L321 590 L0 0 L167 0 L217 92 L397 92 L417 0 L584 0 L471 590 L470 590 Z M298 242 L351 339 L370 242 L298 242 Z M574 657 L599 798 L263 798 L238 657 L574 657 Z " />
<glyph glyph-name="amacron" unicode="&#x101;" horiz-adv-x="429" d="M434 230 C450 342 392 411 269 411 C189 411 152 400 115 389 L92 259 C109 261 126 263 142 266 C169 270 199 274 216 274 C267 274 278 258 279 243 L276 225 C251 238 217 243 197 243 C109 243 52 216 39 137 C15 -2 138 -6 159 -6 C174 -6 211 -4 246 25 L245 0 L394 0 L434 230 Z M258 122 C253 121 249 120 245 119 C237 117 228 116 218 116 C201 116 194 126 195 135 C198 142 205 154 225 154 C248 154 259 150 262 147 L258 122 Z M461 462 L486 603 L150 603 L125 462 L461 462 Z " />
<glyph glyph-name="Abreve" unicode="&#x102;" horiz-adv-x="584" d="M321 590 L0 0 L167 0 L219 92 L399 92 L417 0 L584 0 L471 590 L322 590 L321 590 Z M298 242 L351 339 L370 242 L298 242 Z M408 657 C492 657 586 707 612 834 L478 834 C465 793 445 789 432 789 C419 789 400 791 403 834 L270 834 C251 709 325 657 408 657 L408 657 Z " />
<glyph glyph-name="abreve" unicode="&#x103;" horiz-adv-x="429" d="M434 230 C450 342 392 411 269 411 C189 411 152 400 115 389 L92 259 C109 261 126 263 142 266 C169 270 199 274 216 274 C267 274 278 258 279 243 L276 225 C251 238 217 243 197 243 C109 243 52 216 39 137 C15 -2 138 -6 159 -6 C174 -6 211 -4 246 25 L245 0 L394 0 L434 230 Z M258 122 C253 121 249 120 245 119 C237 117 228 116 218 116 C201 116 194 126 195 135 C198 142 205 154 225 154 C248 154 259 150 262 147 L258 122 Z M297 462 C380 462 474 512 500 639 L366 639 C354 598 333 594 320 594 C307 594 288 596 291 639 L158 639 C139 514 215 462 297 462 L297 462 Z " />
<glyph glyph-name="Aogonek" unicode="&#x104;" horiz-adv-x="584" d="M470 590 L321 590 L0 0 L167 0 L217 92 L397 92 L417 0 L584 0 L471 590 L470 590 Z M298 242 L351 339 L370 242 L298 242 Z M286 -249 L458 -249 L570 -64 L422 -64 L286 -249 Z " />
<glyph glyph-name="aogonek" unicode="&#x105;" horiz-adv-x="429" d="M434 230 C450 342 392 411 269 411 C189 411 152 400 115 389 L92 259 C109 261 126 263 142 266 C169 270 199 274 216 274 C267 274 278 258 279 243 L276 225 C251 238 217 243 197 243 C109 243 52 216 39 137 C15 -2 138 -6 159 -6 C174 -6 211 -4 246 25 L245 0 L394 0 L434 230 Z M258 122 C253 121 249 120 245 119 C237 117 228 116 218 116 C201 116 194 126 195 135 C198 142 205 154 225 154 C248 154 259 150 262 147 L258 122 Z M98 -249 L270 -249 L382 -64 L234 -64 L98 -249 Z " />
<glyph glyph-name="Cacute" unicode="&#x106;" horiz-adv-x="537" d="M387 442 C424 442 464 435 503 396 L616 507 C561 570 485 596 416 596 C289 596 104 515 67 299 C23 47 202 -6 310 -6 C379 -6 464 22 540 85 L473 196 C420 157 373 148 336 148 C289 148 207 174 228 299 C247 411 328 442 387 442 L387 442 Z M618 842 L446 842 L333 657 L481 657 L618 842 Z " />
<glyph glyph-name="cacute" unicode="&#x107;" horiz-adv-x="402" d="M219 -6 C262 -6 318 -6 407 64 L360 166 C300 135 276 135 256 135 C233 135 197 148 207 208 C216 256 255 270 280 270 C300 270 320 270 373 236 L457 341 C392 411 336 411 292 411 C213 411 75 351 51 207 C22 45 146 -3 218 -6 L219 -6 Z M491 647 L319 647 L206 462 L354 462 L491 647 Z " />
<glyph glyph-name="Ccircumflex" unicode="&#x108;" horiz-adv-x="537" d="M387 442 C424 442 464 435 503 396 L616 507 C561 570 485 596 416 596 C289 596 104 515 67 299 C23 47 202 -6 310 -6 C379 -6 464 22 540 85 L473 196 C420 157 373 148 336 148 C289 148 207 174 228 299 C247 411 328 442 387 442 L387 442 Z M403 865 L258 657 L399 657 L437 715 L453 657 L594 657 L522 865 L403 865 Z " />
<glyph glyph-name="ccircumflex" unicode="&#x109;" horiz-adv-x="402" d="M219 -6 C262 -6 318 -6 407 64 L360 166 C300 135 276 135 256 135 C233 135 197 148 207 208 C216 256 255 270 280 270 C300 270 320 270 373 236 L457 341 C392 411 336 411 292 411 C213 411 75 351 51 207 C22 45 146 -3 218 -6 L219 -6 Z M269 670 L124 462 L265 462 L302 520 L319 462 L460 462 L388 670 L269 670 Z " />
<glyph glyph-name="Cdotaccent" unicode="&#x10a;" horiz-adv-x="537" d="M387 442 C424 442 464 435 503 396 L616 507 C561 570 485 596 416 596 C289 596 104 515 67 299 C23 47 202 -6 310 -6 C379 -6 464 22 540 85 L473 196 C420 157 373 148 336 148 C289 148 207 174 228 299 C247 411 328 442 387 442 L387 442 Z M330 657 L493 657 L519 805 L356 805 L330 657 Z " />
<glyph glyph-name="cdotaccent" unicode="&#x10b;" horiz-adv-x="402" d="M219 -6 C262 -6 318 -6 407 64 L360 166 C300 135 276 135 256 135 C233 135 197 148 207 208 C216 256 255 270 280 270 C300 270 320 270 373 236 L457 341 C392 411 336 411 292 411 C213 411 75 351 51 207 C22 45 146 -3 218 -6 L219 -6 Z M214 462 L377 462 L403 610 L240 610 L214 462 Z " />
<glyph glyph-name="Ccaron" unicode="&#x10c;" horiz-adv-x="537" d="M387 442 C424 442 464 435 503 396 L616 507 C561 570 485 596 416 596 C289 596 104 515 67 299 C23 47 202 -6 310 -6 C379 -6 464 22 540 85 L473 196 C420 157 373 148 336 148 C289 148 207 174 228 299 C247 411 328 442 387 442 L387 442 Z M472 657 L618 865 L477 865 L440 807 L423 865 L282 865 L353 657 L472 657 Z " />
<glyph glyph-name="ccaron" unicode="&#x10d;" horiz-adv-x="402" d="M355 462 L490 667 L340 667 L313 622 L302 667 L152 667 L215 462 L355 462 Z M219 -6 C262 -6 318 -6 407 64 L360 166 C300 135 276 135 256 135 C233 135 197 148 207 208 C216 256 255 270 280 270 C300 270 320 270 373 236 L457 341 C392 411 336 411 292 411 C213 411 75 351 51 207 C22 45 146 -3 218 -6 L219 -6 Z " />
<glyph glyph-name="Dcaron" unicode="&#x10e;" horiz-adv-x="553" d="M581 301 C619 515 479 590 349 590 L144 590 L40 0 L257 0 C364 0 538 58 581 301 L581 301 Z M275 154 L224 154 L273 436 L327 436 C387 436 442 407 423 298 C402 172 324 154 275 154 L275 154 Z M304 657 L233 865 L374 865 L391 807 L428 865 L569 865 L423 657 L304 657 Z " />
<glyph glyph-name="dcaron" unicode="&#x10f;" horiz-adv-x="697" d="M520 590 L363 590 L328 392 C304 409 271 411 248 411 C168 411 80 350 56 209 C27 43 102 -6 173 -6 C198 -6 239 -6 274 26 L276 0 L416 0 L520 590 Z M289 172 C282 164 269 148 246 148 C234 148 205 158 213 209 C221 247 253 257 265 257 C276 257 283 252 290 245 C293 242 297 238 300 233 L289 172 Z M806 590 L634 590 L521 405 L669 405 L806 590 Z " />
<glyph glyph-name="Dcroat" unicode="&#x110;" horiz-adv-x="592" d="M620 301 C658 515 518 590 388 590 L183 590 L143 363 L64 363 L38 219 L117 219 L79 0 L296 0 C403 0 577 58 620 301 L620 301 Z M382 219 L408 363 L300 363 L312 436 L366 436 C426 436 481 407 462 298 C441 172 363 154 314 154 L263 154 L274 219 L382 219 Z " />
<glyph glyph-name="dcroat" unicode="&#x111;" horiz-adv-x="451" d="M289 172 C282 164 269 148 246 148 C234 148 205 158 213 209 C221 247 253 257 265 257 C276 257 283 252 290 245 C293 242 297 238 300 233 L289 172 Z M493 438 L553 438 L574 556 L514 556 L520 590 L363 590 L357 556 L295 556 L274 438 L336 438 L328 392 C304 409 271 411 248 411 C168 411 80 350 56 209 C27 43 102 -6 173 -6 C198 -6 239 -6 274 26 L276 0 L416 0 L493 438 Z " />
<glyph glyph-name="Emacron" unicode="&#x112;" horiz-adv-x="489" d="M541 657 L567 800 L213 800 L187 657 L541 657 Z M535 436 L563 590 L144 590 L40 0 L459 0 L486 154 L224 154 L234 213 L450 213 L477 367 L261 367 L273 436 L535 436 Z " />
<glyph glyph-name="emacron" unicode="&#x113;" horiz-adv-x="426" d="M440 223 C459 332 401 411 289 411 C172 411 74 314 55 203 C34 87 90 -6 230 -6 C308 -6 332 3 382 24 L404 150 C389 147 373 145 357 142 C330 138 296 135 269 135 C228 135 204 148 207 173 L431 173 L440 223 Z M219 249 C234 280 252 285 267 285 C284 285 301 280 301 249 L219 249 Z M461 462 L486 603 L150 603 L125 462 L461 462 Z " />
<glyph glyph-name="Edotaccent" unicode="&#x116;" horiz-adv-x="489" d="M535 436 L563 590 L144 590 L40 0 L459 0 L486 154 L224 154 L234 213 L450 213 L477 367 L261 367 L273 436 L535 436 Z M280 657 L443 657 L469 805 L306 805 L280 657 Z " />
<glyph glyph-name="edotaccent" unicode="&#x117;" horiz-adv-x="426" d="M440 223 C459 332 401 411 289 411 C172 411 74 314 55 203 C34 87 90 -6 230 -6 C308 -6 332 3 382 24 L404 150 C389 147 373 145 357 142 C330 138 296 135 269 135 C228 135 204 148 207 173 L431 173 L440 223 Z M219 249 C234 280 252 285 267 285 C284 285 301 280 301 249 L219 249 Z M214 462 L377 462 L403 610 L240 610 L214 462 Z " />
<glyph glyph-name="Eogonek" unicode="&#x118;" horiz-adv-x="489" d="M535 436 L563 590 L144 590 L40 0 L459 0 L486 154 L224 154 L234 213 L450 213 L477 367 L261 367 L273 436 L535 436 Z M162 -249 L334 -249 L446 -64 L298 -64 L162 -249 Z " />
<glyph glyph-name="eogonek" unicode="&#x119;" horiz-adv-x="426" d="M440 223 C459 332 401 411 289 411 C172 411 74 314 55 203 C34 87 90 -6 230 -6 C308 -6 332 3 382 24 L404 150 C389 147 373 145 357 142 C330 138 296 135 269 135 C228 135 204 148 207 173 L431 173 L440 223 Z M219 249 C234 280 252 285 267 285 C284 285 301 280 301 249 L219 249 Z M5 -249 L177 -249 L289 -64 L141 -64 L5 -249 Z " />
<glyph glyph-name="Ecaron" unicode="&#x11a;" horiz-adv-x="489" d="M535 436 L563 590 L144 590 L40 0 L459 0 L486 154 L224 154 L234 213 L450 213 L477 367 L261 367 L273 436 L535 436 Z M305 657 L234 865 L375 865 L392 807 L429 865 L570 865 L424 657 L305 657 Z " />
<glyph glyph-name="ecaron" unicode="&#x11b;" horiz-adv-x="426" d="M440 223 C459 332 401 411 289 411 C172 411 74 314 55 203 C34 87 90 -6 230 -6 C308 -6 332 3 382 24 L404 150 C389 147 373 145 357 142 C330 138 296 135 269 135 C228 135 204 148 207 173 L431 173 L440 223 Z M219 249 C234 280 252 285 267 285 C284 285 301 280 301 249 L219 249 Z M237 462 L166 670 L307 670 L323 612 L361 670 L502 670 L356 462 L237 462 Z " />
<glyph glyph-name="Gcircumflex" unicode="&#x11c;" horiz-adv-x="572" d="M387 442 C424 442 464 435 503 396 L616 507 C561 570 485 596 416 596 C289 596 104 515 67 299 C23 47 202 -6 310 -6 C378 -6 477 16 540 85 L588 353 L350 353 L323 199 L404 199 L396 157 C373 150 355 148 336 148 C289 148 207 174 228 299 C247 411 328 442 387 442 L387 442 Z M404 865 L259 657 L400 657 L438 715 L454 657 L595 657 L523 865 L404 865 Z " />
<glyph glyph-name="gcircumflex" unicode="&#x11d;" horiz-adv-x="456" d="M492 405 L343 405 L336 379 C313 402 276 411 253 411 C173 411 85 350 61 209 C32 43 107 -6 178 -6 C201 -6 235 -6 266 15 L262 -8 C254 -53 218 -55 198 -55 C179 -55 128 -54 85 -25 L17 -147 C54 -186 114 -198 177 -198 C246 -198 392 -160 421 4 L492 405 Z M294 172 C287 164 274 148 251 148 C239 148 210 158 218 209 C226 247 258 257 270 257 C281 257 288 252 295 245 C298 242 302 238 305 233 L294 172 Z M399 670 L471 462 L330 462 L313 520 L276 462 L135 462 L280 670 L399 670 Z " />
<glyph glyph-name="Gbreve" unicode="&#x11e;" horiz-adv-x="572" d="M387 442 C424 442 464 435 503 396 L616 507 C561 570 485 596 416 596 C289 596 104 515 67 299 C23 47 202 -6 310 -6 C378 -6 477 16 540 85 L588 353 L350 353 L323 199 L404 199 L396 157 C373 150 355 148 336 148 C289 148 207 174 228 299 C247 411 328 442 387 442 L387 442 Z M424 657 C508 657 602 707 628 834 L494 834 C481 793 461 789 448 789 C435 789 416 791 419 834 L286 834 C267 709 341 657 424 657 L424 657 Z " />
<glyph glyph-name="gbreve" unicode="&#x11f;" horiz-adv-x="456" d="M492 405 L343 405 L336 379 C313 402 276 411 253 411 C173 411 85 350 61 209 C32 43 107 -6 178 -6 C201 -6 235 -6 266 15 L262 -8 C254 -53 218 -55 198 -55 C179 -55 128 -54 85 -25 L17 -147 C54 -186 114 -198 177 -198 C246 -198 392 -160 421 4 L492 405 Z M294 172 C287 164 274 148 251 148 C239 148 210 158 218 209 C226 247 258 257 270 257 C281 257 288 252 295 245 C298 242 302 238 305 233 L294 172 Z M314 462 C397 462 491 512 517 639 L383 639 C371 598 350 594 337 594 C324 594 305 596 308 639 L175 639 C156 514 232 462 314 462 L314 462 Z " />
<glyph glyph-name="Gdotaccent" unicode="&#x120;" horiz-adv-x="572" d="M387 442 C424 442 464 435 503 396 L616 507 C561 570 485 596 416 596 C289 596 104 515 67 299 C23 47 202 -6 310 -6 C378 -6 477 16 540 85 L588 353 L350 353 L323 199 L404 199 L396 157 C373 150 355 148 336 148 C289 148 207 174 228 299 C247 411 328 442 387 442 L387 442 Z M337 657 L500 657 L526 805 L363 805 L337 657 Z " />
<glyph glyph-name="gdotaccent" unicode="&#x121;" horiz-adv-x="456" d="M492 405 L343 405 L336 379 C313 402 276 411 253 411 C173 411 85 350 61 209 C32 43 107 -6 178 -6 C201 -6 235 -6 266 15 L262 -8 C254 -53 218 -55 198 -55 C179 -55 128 -54 85 -25 L17 -147 C54 -186 114 -198 177 -198 C246 -198 392 -160 421 4 L492 405 Z M294 172 C287 164 274 148 251 148 C239 148 210 158 218 209 C226 247 258 257 270 257 C281 257 288 252 295 245 C298 242 302 238 305 233 L294 172 Z M217 462 L380 462 L406 610 L243 610 L217 462 Z " />
<glyph glyph-name="uni0122" unicode="&#x122;" horiz-adv-x="572" d="M387 442 C424 442 464 435 503 396 L616 507 C561 570 485 596 416 596 C289 596 104 515 67 299 C23 47 202 -6 310 -6 C378 -6 477 16 540 85 L588 353 L350 353 L323 199 L404 199 L396 157 C373 150 355 148 336 148 C289 148 207 174 228 299 C247 411 328 442 387 442 L387 442 Z M104 -249 L276 -249 L388 -64 L240 -64 L104 -249 Z " />
<glyph glyph-name="uni0123" unicode="&#x123;" horiz-adv-x="456" d="M492 405 L343 405 L336 379 C313 402 276 411 253 411 C173 411 85 350 61 209 C32 43 107 -6 178 -6 C201 -6 235 -6 266 15 L262 -8 C254 -53 218 -55 198 -55 C179 -55 128 -54 85 -25 L17 -147 C54 -186 114 -198 177 -198 C246 -198 392 -160 421 4 L492 405 Z M294 172 C287 164 274 148 251 148 C239 148 210 158 218 209 C226 247 258 257 270 257 C281 257 288 252 295 245 C298 242 302 238 305 233 L294 172 Z M364 462 L216 462 L329 647 L501 647 L364 462 Z " />
<glyph glyph-name="Hcircumflex" unicode="&#x124;" horiz-adv-x="568" d="M475 590 L434 361 L260 361 L301 590 L144 590 L40 0 L197 0 L233 206 L407 206 L371 0 L528 0 L632 590 L475 590 Z M495 865 L567 657 L426 657 L410 715 L372 657 L231 657 L376 865 L495 865 Z " />
<glyph glyph-name="hcircumflex" unicode="&#x125;" horiz-adv-x="443" d="M193 0 L234 235 C239 239 245 243 250 246 C259 251 270 257 281 257 C289 257 301 253 298 241 L256 0 L413 0 L460 271 C473 350 431 411 351 411 C328 411 291 405 260 384 L297 590 L140 590 L36 0 L193 0 Z M414 865 L486 657 L345 657 L329 715 L291 657 L150 657 L295 865 L414 865 Z " />
<glyph glyph-name="Hbar" unicode="&#x126;" horiz-adv-x="588" d="M668 397 L693 539 L633 539 L642 590 L485 590 L476 539 L302 539 L311 590 L154 590 L145 539 L85 539 L60 397 L120 397 L50 0 L207 0 L243 206 L417 206 L381 0 L538 0 L608 397 L668 397 Z M270 361 L277 397 L451 397 L444 361 L270 361 Z " />
<glyph glyph-name="hbar" unicode="&#x127;" horiz-adv-x="442" d="M112 438 L35 0 L192 0 L233 235 C238 239 244 243 249 246 C258 251 269 257 280 257 C288 257 300 253 297 241 L255 0 L412 0 L459 271 C472 350 430 411 350 411 C327 411 290 405 259 384 L269 438 L331 438 L352 556 L290 556 L296 590 L139 590 L133 556 L73 556 L52 438 L112 438 Z " />
<glyph glyph-name="Itilde" unicode="&#x128;" horiz-adv-x="237" d="M411 715 C364 682 319 657 280 657 C243 657 220 688 186 688 C174 688 160 683 128 660 L91 779 C138 812 175 832 211 832 C249 832 272 801 307 801 C320 801 341 812 372 833 L411 715 Z M40 0 L197 0 L301 590 L144 590 L40 0 Z " />
<glyph glyph-name="itilde" unicode="&#x129;" horiz-adv-x="237" d="M40 0 L197 0 L268 405 L111 405 L40 0 Z M376 520 C329 487 285 462 246 462 C209 462 186 493 151 493 C139 493 125 488 93 465 L56 584 C103 617 141 637 177 637 C215 637 238 606 272 606 C285 606 307 617 338 638 L376 520 Z " />
<glyph glyph-name="Imacron" unicode="&#x12a;" horiz-adv-x="237" d="M40 0 L197 0 L301 590 L144 590 L40 0 Z M360 657 L385 798 L131 798 L106 657 L360 657 Z " />
<glyph glyph-name="imacron" unicode="&#x12b;" horiz-adv-x="237" d="M40 0 L197 0 L268 405 L111 405 L40 0 Z M326 462 L351 603 L97 603 L72 462 L326 462 Z " />
<glyph glyph-name="Iogonek" unicode="&#x12e;" horiz-adv-x="237" d="M301 590 L144 590 L40 0 L197 0 L301 590 Z M-98 -249 L73 -249 L185 -64 L37 -64 L-98 -249 Z " />
<glyph glyph-name="iogonek" unicode="&#x12f;" horiz-adv-x="237" d="M40 0 L197 0 L268 405 L111 405 L40 0 Z M117 439 L274 439 L299 582 L142 582 L117 439 Z M-99 -249 L72 -249 L184 -64 L36 -64 L-99 -249 Z " />
<glyph glyph-name="Idotaccent" unicode="&#x130;" horiz-adv-x="237" d="M40 0 L197 0 L301 590 L144 590 L40 0 Z M155 657 L312 657 L338 800 L181 800 L155 657 Z " />
<glyph glyph-name="dotlessi" unicode="&#x131;" horiz-adv-x="237" d="M40 0 L197 0 L268 405 L111 405 L40 0 Z " />
<glyph glyph-name="Jcircumflex" unicode="&#x134;" horiz-adv-x="460" d="M300 210 C289 151 232 148 212 148 C192 148 155 147 99 182 L5 60 C72 -7 152 -6 197 -6 C271 -3 425 27 457 213 L524 590 L367 590 L300 210 Z M463 865 L535 657 L394 657 L378 715 L340 657 L199 657 L344 865 L463 865 Z " />
<glyph glyph-name="jcircumflex" unicode="&#x135;" horiz-adv-x="237" d="M36 -22 C31 -49 17 -57 -3 -57 C-14 -57 -33 -54 -50 -51 C-60 -49 -70 -47 -81 -45 L-102 -164 C-86 -180 -68 -198 10 -198 C147 -198 177 -105 188 -48 L268 405 L111 405 L36 -22 Z M295 670 L367 462 L226 462 L209 520 L172 462 L31 462 L176 670 L295 670 Z " />
<glyph glyph-name="uni0136" unicode="&#x136;" horiz-adv-x="565" d="M403 298 L689 590 L486 590 L260 358 L301 590 L144 590 L40 0 L197 0 L239 242 L378 0 L577 0 L403 298 Z M70 -249 L242 -249 L354 -64 L206 -64 L70 -249 Z " />
<glyph glyph-name="uni0137" unicode="&#x137;" horiz-adv-x="451" d="M473 0 L373 232 L535 405 L338 405 C310 374 277 340 246 307 L296 590 L139 590 L35 0 L192 0 L219 157 L290 0 L473 0 Z M20 -249 L192 -249 L304 -64 L156 -64 L20 -249 Z " />
<glyph glyph-name="kgreenlandic" unicode="&#x138;" horiz-adv-x="451" d="M473 0 L373 232 L535 405 L338 405 C310 374 277 340 246 307 L263 405 L106 405 L35 0 L192 0 L219 157 L290 0 L473 0 Z " />
<glyph glyph-name="Lacute" unicode="&#x139;" horiz-adv-x="456" d="M301 590 L144 590 L40 0 L441 0 L468 154 L224 154 L301 590 Z M303 657 L155 657 L268 842 L440 842 L303 657 Z " />
<glyph glyph-name="lacute" unicode="&#x13a;" horiz-adv-x="237" d="M301 590 L144 590 L40 0 L197 0 L301 590 Z M308 657 L160 657 L273 842 L445 842 L308 657 Z " />
<glyph glyph-name="uni013B" unicode="&#x13b;" horiz-adv-x="456" d="M301 590 L144 590 L40 0 L441 0 L468 154 L224 154 L301 590 Z M44 -249 L216 -249 L328 -64 L180 -64 L44 -249 Z " />
<glyph glyph-name="uni013C" unicode="&#x13c;" horiz-adv-x="237" d="M301 590 L144 590 L40 0 L197 0 L301 590 Z M-98 -249 L73 -249 L185 -64 L37 -64 L-98 -249 Z " />
<glyph glyph-name="Lcaron" unicode="&#x13d;" horiz-adv-x="456" d="M301 590 L144 590 L40 0 L441 0 L468 154 L224 154 L301 590 Z M545 590 L385 590 L314 405 L450 405 L545 590 Z " />
<glyph glyph-name="lcaron" unicode="&#x13e;" horiz-adv-x="478" d="M40 0 L197 0 L301 590 L144 590 L40 0 Z M587 590 L415 590 L302 405 L450 405 L587 590 Z " />
<glyph glyph-name="Lslash" unicode="&#x141;" horiz-adv-x="489" d="M63 359 L34 194 L111 218 L73 0 L474 0 L501 154 L257 154 L277 269 L387 304 L416 469 L306 434 L334 590 L177 590 L140 383 L63 359 Z " />
<glyph glyph-name="lslash" unicode="&#x142;" horiz-adv-x="325" d="M376 294 L405 456 L310 426 L339 590 L182 590 L143 374 L61 348 L32 187 C41 190 72 199 115 212 L78 0 L235 0 L281 263 L376 294 Z " />
<glyph glyph-name="Nacute" unicode="&#x143;" horiz-adv-x="587" d="M408 0 L547 0 L651 590 L494 590 L441 293 L280 590 L144 590 L40 0 L197 0 L248 294 L408 0 Z M477 657 L329 657 L442 842 L614 842 L477 657 Z " />
<glyph glyph-name="nacute" unicode="&#x144;" horiz-adv-x="442" d="M192 0 L233 235 C238 239 244 243 249 246 C258 251 269 257 280 257 C288 257 300 253 297 241 L255 0 L412 0 L459 271 C472 350 430 411 350 411 C327 411 285 404 252 379 L255 405 L106 405 L35 0 L192 0 Z M367 462 L219 462 L332 647 L504 647 L367 462 Z " />
<glyph glyph-name="uni0145" unicode="&#x145;" horiz-adv-x="587" d="M408 0 L547 0 L651 590 L494 590 L441 293 L280 590 L144 590 L40 0 L197 0 L248 294 L408 0 Z M81 -249 L253 -249 L365 -64 L217 -64 L81 -249 Z " />
<glyph glyph-name="uni0146" unicode="&#x146;" horiz-adv-x="442" d="M192 0 L233 235 C238 239 244 243 249 246 C258 251 269 257 280 257 C288 257 300 253 297 241 L255 0 L412 0 L459 271 C472 350 430 411 350 411 C327 411 285 404 252 379 L255 405 L106 405 L35 0 L192 0 Z M10 -249 L182 -249 L294 -64 L146 -64 L10 -249 Z " />
<glyph glyph-name="Ncaron" unicode="&#x147;" horiz-adv-x="587" d="M408 0 L547 0 L651 590 L494 590 L441 293 L280 590 L144 590 L40 0 L197 0 L248 294 L408 0 Z M349 657 L278 865 L419 865 L436 807 L473 865 L614 865 L468 657 L349 657 Z " />
<glyph glyph-name="ncaron" unicode="&#x148;" horiz-adv-x="442" d="M192 0 L233 235 C238 239 244 243 249 246 C258 251 269 257 280 257 C288 257 300 253 297 241 L255 0 L412 0 L459 271 C472 350 430 411 350 411 C327 411 285 404 252 379 L255 405 L106 405 L35 0 L192 0 Z M237 462 L166 670 L307 670 L323 612 L361 670 L502 670 L356 462 L237 462 Z " />
<glyph glyph-name="Eng" unicode="&#x14a;" horiz-adv-x="587" d="M386 -22 C381 -49 367 -57 346 -57 C335 -57 316 -54 299 -51 C289 -49 279 -47 268 -45 L247 -164 C263 -180 281 -198 360 -198 C497 -198 527 -105 538 -48 L651 590 L494 590 L441 293 L280 590 L144 590 L40 0 L197 0 L248 294 L394 25 L386 -22 Z " />
<glyph glyph-name="eng" unicode="&#x14b;" horiz-adv-x="442" d="M251 -22 C246 -49 232 -57 211 -57 C200 -57 181 -54 164 -51 C154 -49 144 -47 133 -45 L112 -164 C128 -180 146 -198 225 -198 C362 -198 392 -105 403 -48 L459 271 C472 350 430 411 350 411 C327 411 285 404 252 379 L255 405 L106 405 L35 0 L192 0 L233 235 C238 239 244 243 249 246 C258 251 269 257 280 257 C288 257 300 253 297 241 L251 -22 Z " />
<glyph glyph-name="Omacron" unicode="&#x14c;" horiz-adv-x="618" d="M336 148 L334 148 C285 148 213 173 234 300 C253 412 327 442 385 442 C446 442 507 412 488 300 C467 173 384 148 336 148 L336 148 Z M308 -6 C419 -6 601 52 646 303 C683 518 546 596 414 596 C283 596 115 518 78 303 C34 52 198 -6 306 -6 L308 -6 Z M590 657 L615 798 L279 798 L254 657 L590 657 Z " />
<glyph glyph-name="omacron" unicode="&#x14d;" horiz-adv-x="442" d="M222 -6 C295 -6 429 37 458 207 C482 351 379 411 294 411 C209 411 80 351 56 207 C27 37 142 -6 216 -6 L222 -6 Z M248 148 C229 148 204 156 212 204 C219 243 248 257 267 257 C286 257 307 243 300 204 C292 156 265 148 248 148 L248 148 Z M471 462 L496 603 L160 603 L135 462 L471 462 Z " />
<glyph glyph-name="Ohungarumlaut" unicode="&#x150;" horiz-adv-x="618" d="M336 148 L334 148 C285 148 213 173 234 300 C253 412 327 442 385 442 C446 442 507 412 488 300 C467 173 384 148 336 148 L336 148 Z M308 -6 C419 -6 601 52 646 303 C683 518 546 596 414 596 C283 596 115 518 78 303 C34 52 198 -6 306 -6 L308 -6 Z M402 657 L263 657 L308 840 L464 840 L402 657 Z M583 657 L444 657 L489 840 L644 840 L583 657 Z " />
<glyph glyph-name="ohungarumlaut" unicode="&#x151;" horiz-adv-x="442" d="M282 462 L143 462 L187 645 L343 645 L282 462 Z M463 462 L324 462 L368 645 L523 645 L463 462 Z M222 -6 C295 -6 429 37 458 207 C482 351 379 411 294 411 C209 411 80 351 56 207 C27 37 142 -6 216 -6 L222 -6 Z M248 148 C229 148 204 156 212 204 C219 243 248 257 267 257 C286 257 307 243 300 204 C292 156 265 148 248 148 L248 148 Z " />
<glyph glyph-name="OE" unicode="&#x152;" horiz-adv-x="816" d="M862 436 L890 590 L473 590 C453 594 434 596 416 596 C289 596 104 515 67 299 C23 47 202 -6 310 -6 C329 -6 348 -4 368 0 L786 0 L813 154 L551 154 L561 213 L777 213 L804 367 L588 367 L600 436 L862 436 Z M336 148 C289 148 207 174 228 299 C247 411 328 442 387 442 C406 442 424 441 443 434 L394 156 C373 149 353 148 336 148 L336 148 Z " />
<glyph glyph-name="oe" unicode="&#x153;" horiz-adv-x="671" d="M685 223 C704 332 646 411 534 411 C487 411 444 396 408 371 C375 398 333 411 294 411 C209 411 80 351 56 207 C27 37 142 -6 216 -6 L222 -6 C257 -6 305 3 349 32 C380 8 419 -6 475 -6 C553 -6 577 3 627 24 L649 150 C634 147 618 145 602 142 C575 138 541 135 514 135 C473 135 449 148 452 173 L676 173 L685 223 Z M248 148 C229 148 204 156 212 204 C219 243 248 257 267 257 C284 257 305 244 301 209 L300 204 L300 203 L299 197 C288 154 264 148 248 148 L248 148 Z M464 249 C479 280 497 285 512 285 C529 285 546 280 546 249 L464 249 Z " />
<glyph glyph-name="Racute" unicode="&#x154;" horiz-adv-x="537" d="M569 386 C596 534 491 590 405 590 L144 590 L40 0 L197 0 L228 177 L302 177 C321 177 334 165 341 117 L359 0 L525 0 L501 150 C497 183 489 218 473 245 C524 272 558 326 569 386 L569 386 Z M255 332 L273 435 L375 435 C393 435 419 423 411 383 C403 335 375 332 357 332 L255 332 Z M419 657 L271 657 L384 842 L556 842 L419 657 Z " />
<glyph glyph-name="racute" unicode="&#x155;" horiz-adv-x="322" d="M391 394 C372 409 356 411 324 411 C312 411 278 411 250 379 L247 405 L107 405 L36 0 L193 0 L231 219 C233 226 237 232 242 238 C251 247 267 257 298 257 C306 257 329 257 365 245 L391 394 Z M264 462 L116 462 L229 647 L401 647 L264 462 Z " />
<glyph glyph-name="uni0156" unicode="&#x156;" horiz-adv-x="537" d="M569 386 C596 534 491 590 405 590 L144 590 L40 0 L197 0 L228 177 L302 177 C321 177 334 165 341 117 L359 0 L525 0 L501 150 C497 183 489 218 473 245 C524 272 558 326 569 386 L569 386 Z M255 332 L273 435 L375 435 C393 435 419 423 411 383 C403 335 375 332 357 332 L255 332 Z M64 -249 L236 -249 L348 -64 L200 -64 L64 -249 Z " />
<glyph glyph-name="uni0157" unicode="&#x157;" horiz-adv-x="322" d="M391 394 C372 409 356 411 324 411 C312 411 278 411 250 379 L247 405 L107 405 L36 0 L193 0 L231 219 C233 226 237 232 242 238 C251 247 267 257 298 257 C306 257 329 257 365 245 L391 394 Z M-8 -249 L163 -249 L275 -64 L127 -64 L-8 -249 Z " />
<glyph glyph-name="Rcaron" unicode="&#x158;" horiz-adv-x="537" d="M569 386 C596 534 491 590 405 590 L144 590 L40 0 L197 0 L228 177 L302 177 C321 177 334 165 341 117 L359 0 L525 0 L501 150 C497 183 489 218 473 245 C524 272 558 326 569 386 L569 386 Z M255 332 L273 435 L375 435 C393 435 419 423 411 383 C403 335 375 332 357 332 L255 332 Z M300 657 L229 865 L370 865 L387 807 L424 865 L565 865 L419 657 L300 657 Z " />
<glyph glyph-name="rcaron" unicode="&#x159;" horiz-adv-x="321" d="M187 462 L154 667 L273 667 L284 605 L313 667 L433 667 L329 462 L187 462 Z M390 394 C371 409 355 411 323 411 C311 411 277 411 249 379 L246 405 L106 405 L35 0 L192 0 L230 219 C232 226 236 232 241 238 C250 247 266 257 297 257 C305 257 328 257 364 245 L390 394 Z " />
<glyph glyph-name="Sacute" unicode="&#x15a;" horiz-adv-x="500" d="M359 595 C238 595 111 555 87 412 C55 228 359 221 351 168 C348 148 277 148 254 148 C219 148 175 158 136 169 C114 176 91 183 68 191 L44 56 C66 34 134 -6 249 -6 C390 -6 492 49 516 178 C548 359 244 374 252 419 C255 438 307 442 341 442 C372 442 413 434 448 427 C469 423 490 418 511 413 L537 557 C512 574 475 595 359 595 L359 595 Z M422 657 L274 657 L387 842 L559 842 L422 657 Z " />
<glyph glyph-name="sacute" unicode="&#x15b;" horiz-adv-x="380" d="M266 411 C181 411 81 381 65 289 C49 190 229 154 225 139 C224 136 217 135 204 135 C180 135 145 140 116 147 C99 150 81 155 63 160 L40 32 C56 16 118 -6 199 -6 C311 -6 381 46 396 134 C416 239 230 257 234 270 C235 275 251 275 262 275 C281 275 309 271 336 268 C351 266 367 264 383 262 L403 379 C374 400 344 411 266 411 L266 411 Z M340 462 L192 462 L305 647 L477 647 L340 462 Z " />
<glyph glyph-name="Scircumflex" unicode="&#x15c;" horiz-adv-x="500" d="M359 595 C238 595 111 555 87 412 C55 228 359 221 351 168 C348 148 277 148 254 148 C219 148 175 158 136 169 C114 176 91 183 68 191 L44 56 C66 34 134 -6 249 -6 C390 -6 492 49 516 178 C548 359 244 374 252 419 C255 438 307 442 341 442 C372 442 413 434 448 427 C469 423 490 418 511 413 L537 557 C512 574 475 595 359 595 L359 595 Z M466 865 L538 657 L397 657 L381 715 L343 657 L202 657 L347 865 L466 865 Z " />
<glyph glyph-name="scircumflex" unicode="&#x15d;" horiz-adv-x="380" d="M266 411 C181 411 81 381 65 289 C49 190 229 154 225 139 C224 136 217 135 204 135 C180 135 145 140 116 147 C99 150 81 155 63 160 L40 32 C56 16 118 -6 199 -6 C311 -6 381 46 396 134 C416 239 230 257 234 270 C235 275 251 275 262 275 C281 275 309 271 336 268 C351 266 367 264 383 262 L403 379 C374 400 344 411 266 411 L266 411 Z M371 670 L443 462 L302 462 L285 520 L248 462 L107 462 L252 670 L371 670 Z " />
<glyph glyph-name="Scedilla" unicode="&#x15e;" horiz-adv-x="500" d="M359 595 C238 595 111 555 87 412 C55 228 359 221 351 168 C348 148 277 148 254 148 C219 148 175 158 136 169 C114 176 91 183 68 191 L44 56 C66 34 134 -6 249 -6 C390 -6 492 49 516 178 C548 359 244 374 252 419 C255 438 307 442 341 442 C372 442 413 434 448 427 C469 423 490 418 511 413 L537 557 C512 574 475 595 359 595 L359 595 Z M82 -249 L254 -249 L366 -64 L218 -64 L82 -249 Z " />
<glyph glyph-name="scedilla" unicode="&#x15f;" horiz-adv-x="380" d="M266 411 C181 411 81 381 65 289 C49 190 229 154 225 139 C224 136 217 135 204 135 C180 135 145 140 116 147 C99 150 81 155 63 160 L40 32 C56 16 118 -6 199 -6 C311 -6 381 46 396 134 C416 239 230 257 234 270 C235 275 251 275 262 275 C281 275 309 271 336 268 C351 266 367 264 383 262 L403 379 C374 400 344 411 266 411 L266 411 Z M5 -249 L177 -249 L289 -64 L141 -64 L5 -249 Z " />
<glyph glyph-name="Scaron" unicode="&#x160;" horiz-adv-x="500" d="M359 595 C238 595 111 555 87 412 C55 228 359 221 351 168 C348 148 277 148 254 148 C219 148 175 158 136 169 C114 176 91 183 68 191 L44 56 C66 34 134 -6 249 -6 C390 -6 492 49 516 178 C548 359 244 374 252 419 C255 438 307 442 341 442 C372 442 413 434 448 427 C469 423 490 418 511 413 L537 557 C512 574 475 595 359 595 L359 595 Z M294 657 L223 865 L364 865 L381 807 L418 865 L559 865 L413 657 L294 657 Z " />
<glyph glyph-name="scaron" unicode="&#x161;" horiz-adv-x="380" d="M266 411 C181 411 81 381 65 289 C49 190 229 154 225 139 C224 136 217 135 204 135 C180 135 145 140 116 147 C99 150 81 155 63 160 L40 32 C56 16 118 -6 199 -6 C311 -6 381 46 396 134 C416 239 230 257 234 270 C235 275 251 275 262 275 C281 275 309 271 336 268 C351 266 367 264 383 262 L403 379 C374 400 344 411 266 411 L266 411 Z M213 462 L142 670 L283 670 L299 612 L337 670 L478 670 L332 462 L213 462 Z " />
<glyph glyph-name="uni0162" unicode="&#x162;" horiz-adv-x="489" d="M91 436 L242 436 L166 0 L323 0 L399 436 L550 436 L578 590 L119 590 L91 436 Z M27 -249 L199 -249 L311 -64 L163 -64 L27 -249 Z " />
<glyph glyph-name="uni0163" unicode="&#x163;" horiz-adv-x="337" d="M96 257 L77 148 C66 91 67 -2 204 -2 C280 -2 305 17 327 33 L350 159 L317 153 C298 150 279 148 268 148 C245 148 235 155 240 182 L253 257 L363 257 L389 405 L279 405 L300 526 L258 526 L56 351 L40 257 L96 257 Z M-3 -249 L168 -249 L280 -64 L132 -64 L-3 -249 Z " />
<glyph glyph-name="Tcaron" unicode="&#x164;" horiz-adv-x="489" d="M91 436 L242 436 L166 0 L323 0 L399 436 L550 436 L578 590 L119 590 L91 436 Z M300 657 L229 865 L370 865 L387 807 L424 865 L565 865 L419 657 L300 657 Z " />
<glyph glyph-name="tcaron" unicode="&#x165;" horiz-adv-x="468" d="M106 257 L87 148 C76 91 77 -2 214 -2 C290 -2 315 17 337 33 L360 159 L327 153 C308 150 289 148 278 148 C255 148 245 155 250 182 L263 257 L373 257 L399 405 L289 405 L310 526 L268 526 L66 351 L50 257 L106 257 Z M472 444 L324 444 L410 590 L582 590 L472 444 Z " />
<glyph glyph-name="Tbar" unicode="&#x166;" horiz-adv-x="489" d="M455 221 L481 364 L387 364 L399 436 L550 436 L578 590 L119 590 L91 436 L242 436 L230 364 L136 364 L110 221 L204 221 L166 0 L323 0 L361 221 L455 221 Z " />
<glyph glyph-name="tbar" unicode="&#x167;" horiz-adv-x="337" d="M27 184 L83 184 L77 148 C66 91 67 -2 204 -2 C280 -2 305 17 327 33 L350 159 L317 153 C298 150 279 148 268 148 C245 148 235 155 240 182 L240 184 L350 184 L364 264 L254 264 L258 286 L368 286 L389 405 L279 405 L300 526 L258 526 L56 351 L45 286 L101 286 L97 264 L41 264 L27 184 Z " />
<glyph glyph-name="Utilde" unicode="&#x168;" horiz-adv-x="568" d="M284 -6 C391 -6 535 36 575 270 L632 590 L475 590 L416 257 C400 161 353 148 310 148 C265 148 226 161 242 257 L301 590 L144 590 L87 270 C47 36 172 -6 280 -6 L284 -6 Z M575 715 C528 682 483 657 444 657 C407 657 384 688 350 688 C338 688 324 683 292 660 L255 779 C302 812 339 832 375 832 C413 832 436 801 471 801 C484 801 505 812 536 833 L575 715 Z " />
<glyph glyph-name="utilde" unicode="&#x169;" horiz-adv-x="442" d="M321 405 L279 170 C277 165 274 162 271 159 C264 152 254 148 237 148 C229 148 213 152 216 168 L258 405 L101 405 L53 134 C40 55 82 -6 162 -6 C185 -6 228 1 260 26 L258 0 L407 0 L478 405 L321 405 Z M468 520 C421 487 377 462 338 462 C301 462 278 493 243 493 C231 493 217 488 185 465 L148 584 C195 617 233 637 269 637 C307 637 330 606 364 606 C377 606 399 617 430 638 L468 520 Z " />
<glyph glyph-name="Umacron" unicode="&#x16a;" horiz-adv-x="568" d="M284 -6 C391 -6 535 36 575 270 L632 590 L475 590 L416 257 C400 161 353 148 310 148 C265 148 226 161 242 257 L301 590 L144 590 L87 270 C47 36 172 -6 280 -6 L284 -6 Z M566 657 L591 798 L255 798 L230 657 L566 657 Z " />
<glyph glyph-name="umacron" unicode="&#x16b;" horiz-adv-x="442" d="M465 462 L490 603 L154 603 L129 462 L465 462 Z M321 405 L279 170 C277 165 274 162 271 159 C264 152 254 148 237 148 C229 148 213 152 216 168 L258 405 L101 405 L53 134 C40 55 82 -6 162 -6 C185 -6 228 1 260 26 L258 0 L407 0 L478 405 L321 405 Z " />
<glyph glyph-name="Ubreve" unicode="&#x16c;" horiz-adv-x="568" d="M284 -6 C391 -6 535 36 575 270 L632 590 L475 590 L416 257 C400 161 353 148 310 148 C265 148 226 161 242 257 L301 590 L144 590 L87 270 C47 36 172 -6 280 -6 L284 -6 Z M400 657 C484 657 578 707 604 834 L470 834 C457 793 437 789 424 789 C411 789 392 791 395 834 L262 834 C243 709 317 657 400 657 L400 657 Z " />
<glyph glyph-name="ubreve" unicode="&#x16d;" horiz-adv-x="442" d="M321 405 L279 170 C277 165 274 162 271 159 C264 152 254 148 237 148 C229 148 213 152 216 168 L258 405 L101 405 L53 134 C40 55 82 -6 162 -6 C185 -6 228 1 260 26 L258 0 L407 0 L478 405 L321 405 Z M298 462 C381 462 475 512 501 639 L367 639 C355 598 334 594 321 594 C308 594 289 596 292 639 L159 639 C140 514 216 462 298 462 L298 462 Z " />
<glyph glyph-name="Uring" unicode="&#x16e;" horiz-adv-x="568" d="M284 -6 C391 -6 535 36 575 270 L632 590 L475 590 L416 257 C400 161 353 148 310 148 C265 148 226 161 242 257 L301 590 L144 590 L87 270 C47 36 172 -6 280 -6 L284 -6 Z M398 657 C474 657 554 723 568 801 C582 882 526 945 449 945 C372 945 294 882 280 801 C266 723 322 657 398 657 L398 657 Z M419 774 C408 774 395 778 399 801 C402 820 417 825 428 825 C439 825 453 820 450 801 C446 778 430 774 419 774 L419 774 Z " />
<glyph glyph-name="uring" unicode="&#x16f;" horiz-adv-x="442" d="M321 405 L279 170 C277 165 274 162 271 159 C264 152 254 148 237 148 C229 148 213 152 216 168 L258 405 L101 405 L53 134 C40 55 82 -6 162 -6 C185 -6 228 1 260 26 L258 0 L407 0 L478 405 L321 405 Z M300 462 C376 462 455 528 469 606 C485 687 427 750 351 750 C273 750 197 687 181 606 C167 528 225 462 300 462 L300 462 Z M321 579 C310 579 296 583 300 606 C304 625 319 630 330 630 C341 630 355 625 351 606 C347 583 332 579 321 579 L321 579 Z " />
<glyph glyph-name="Uhungarumlaut" unicode="&#x170;" horiz-adv-x="568" d="M284 -6 C391 -6 535 36 575 270 L632 590 L475 590 L416 257 C400 161 353 148 310 148 C265 148 226 161 242 257 L301 590 L144 590 L87 270 C47 36 172 -6 280 -6 L284 -6 Z M383 657 L244 657 L289 840 L445 840 L383 657 Z M564 657 L425 657 L470 840 L625 840 L564 657 Z " />
<glyph glyph-name="uhungarumlaut" unicode="&#x171;" horiz-adv-x="442" d="M321 405 L279 170 C277 165 274 162 271 159 C264 152 254 148 237 148 C229 148 213 152 216 168 L258 405 L101 405 L53 134 C40 55 82 -6 162 -6 C185 -6 228 1 260 26 L258 0 L407 0 L478 405 L321 405 Z M279 462 L140 462 L184 645 L340 645 L279 462 Z M460 462 L321 462 L365 645 L520 645 L460 462 Z " />
<glyph glyph-name="Uogonek" unicode="&#x172;" horiz-adv-x="568" d="M284 -6 C391 -6 535 36 575 270 L632 590 L475 590 L416 257 C400 161 353 148 310 148 C265 148 226 161 242 257 L301 590 L144 590 L87 270 C47 36 172 -6 280 -6 L284 -6 Z M63 -249 L235 -249 L347 -64 L199 -64 L63 -249 Z " />
<glyph glyph-name="uogonek" unicode="&#x173;" horiz-adv-x="442" d="M321 405 L279 170 C277 165 274 162 271 159 C264 152 254 148 237 148 C229 148 213 152 216 168 L258 405 L101 405 L53 134 C40 55 82 -6 162 -6 C185 -6 228 1 260 26 L258 0 L407 0 L478 405 L321 405 Z M111 -249 L283 -249 L395 -64 L247 -64 L111 -249 Z " />
<glyph glyph-name="Ydieresis" unicode="&#x178;" horiz-adv-x="585" d="M406 199 L694 590 L512 590 L358 376 L280 590 L99 590 L249 199 L214 0 L371 0 L406 199 Z M230 657 L393 657 L419 805 L256 805 L230 657 Z M424 657 L587 657 L613 805 L450 805 L424 657 Z " />
<glyph glyph-name="Zacute" unicode="&#x179;" horiz-adv-x="485" d="M97 436 L326 436 L44 138 L20 0 L465 0 L492 154 L256 154 L545 459 L569 590 L125 590 L97 436 Z M437 657 L289 657 L402 842 L574 842 L437 657 Z " />
<glyph glyph-name="zacute" unicode="&#x17a;" horiz-adv-x="399" d="M75 257 L192 257 L54 137 L30 0 L369 0 L395 148 L282 148 L416 268 L440 405 L101 405 L75 257 Z M346 462 L198 462 L311 647 L483 647 L346 462 Z " />
<glyph glyph-name="Zdotaccent" unicode="&#x17b;" horiz-adv-x="485" d="M97 436 L326 436 L44 138 L20 0 L465 0 L492 154 L256 154 L545 459 L569 590 L125 590 L97 436 Z M280 657 L443 657 L469 805 L306 805 L280 657 Z " />
<glyph glyph-name="zdotaccent" unicode="&#x17c;" horiz-adv-x="399" d="M75 257 L192 257 L54 137 L30 0 L369 0 L395 148 L282 148 L416 268 L440 405 L101 405 L75 257 Z M199 462 L362 462 L388 610 L225 610 L199 462 Z " />
<glyph glyph-name="Zcaron" unicode="&#x17d;" horiz-adv-x="485" d="M97 436 L326 436 L44 138 L20 0 L465 0 L492 154 L256 154 L545 459 L569 590 L125 590 L97 436 Z M303 657 L232 865 L373 865 L390 807 L427 865 L568 865 L422 657 L303 657 Z " />
<glyph glyph-name="zcaron" unicode="&#x17e;" horiz-adv-x="399" d="M75 257 L192 257 L54 137 L30 0 L369 0 L395 148 L282 148 L416 268 L440 405 L101 405 L75 257 Z M220 462 L149 670 L290 670 L306 612 L344 670 L485 670 L339 462 L220 462 Z " />
<glyph glyph-name="florin" unicode="&#x192;" horiz-adv-x="340" d="M62 -22 C57 -49 43 -57 22 -57 C11 -57 -7 -54 -24 -51 C-34 -49 -44 -47 -55 -45 L-76 -164 C-60 -180 -42 -198 36 -198 C173 -198 203 -105 214 -48 L268 257 L380 257 L406 405 L294 405 L295 412 C300 439 310 455 342 455 C353 455 369 453 385 452 C394 451 403 451 414 450 L434 563 C419 578 396 596 322 596 C230 596 164 525 137 405 L71 405 L45 257 L111 257 L62 -22 Z " />
<glyph glyph-name="uni0218" unicode="&#x218;" horiz-adv-x="500" d="M359 595 C238 595 111 555 87 412 C55 228 359 221 351 168 C348 148 277 148 254 148 C219 148 175 158 136 169 C114 176 91 183 68 191 L44 56 C66 34 134 -6 249 -6 C390 -6 492 49 516 178 C548 359 244 374 252 419 C255 438 307 442 341 442 C372 442 413 434 448 427 C469 423 490 418 511 413 L537 557 C512 574 475 595 359 595 L359 595 Z M51 -249 L223 -249 L335 -64 L187 -64 L51 -249 Z " />
<glyph glyph-name="uni0219" unicode="&#x219;" horiz-adv-x="380" d="M266 411 C181 411 81 381 65 289 C49 190 229 154 225 139 C224 136 217 135 204 135 C180 135 145 140 116 147 C99 150 81 155 63 160 L40 32 C56 16 118 -6 199 -6 C311 -6 381 46 396 134 C416 239 230 257 234 270 C235 275 251 275 262 275 C281 275 309 271 336 268 C351 266 367 264 383 262 L403 379 C374 400 344 411 266 411 L266 411 Z M5 -249 L177 -249 L289 -64 L141 -64 L5 -249 Z " />
<glyph glyph-name="uni021A" unicode="&#x21a;" horiz-adv-x="489" d="M91 436 L242 436 L166 0 L323 0 L399 436 L550 436 L578 590 L119 590 L91 436 Z M27 -249 L199 -249 L311 -64 L163 -64 L27 -249 Z " />
<glyph glyph-name="uni021B" unicode="&#x21b;" horiz-adv-x="337" d="M96 257 L77 148 C66 91 67 -2 204 -2 C280 -2 305 17 327 33 L350 159 L317 153 C298 150 279 148 268 148 C245 148 235 155 240 182 L253 257 L363 257 L389 405 L279 405 L300 526 L258 526 L56 351 L40 257 L96 257 Z M-3 -249 L168 -249 L280 -64 L132 -64 L-3 -249 Z " />
<glyph glyph-name="circumflex" unicode="&#x2c6;" horiz-adv-x="416" d="M252 590 L107 382 L248 382 L285 440 L302 382 L443 382 L371 590 L252 590 Z " />
<glyph glyph-name="caron" unicode="&#x2c7;" horiz-adv-x="416" d="M334 382 L480 590 L339 590 L301 532 L285 590 L144 590 L215 382 L334 382 Z " />
<glyph glyph-name="breve" unicode="&#x2d8;" horiz-adv-x="422" d="M282 413 C366 413 460 463 486 590 L352 590 C339 549 319 545 306 545 C293 545 274 547 277 590 L144 590 C125 465 199 413 282 413 L282 413 Z " />
<glyph glyph-name="dotaccent" unicode="&#x2d9;" horiz-adv-x="243" d="M117 442 L280 442 L307 590 L144 590 L117 442 Z " />
<glyph glyph-name="ring" unicode="&#x2da;" horiz-adv-x="368" d="M238 308 C313 308 393 374 407 452 C421 533 364 596 289 596 C213 596 132 533 119 452 C105 374 161 308 238 308 L238 308 Z M258 425 C247 425 234 429 238 452 C241 471 256 476 267 476 C278 476 292 471 289 452 C285 429 269 425 258 425 L258 425 Z " />
<glyph glyph-name="ogonek" unicode="&#x2db;" horiz-adv-x="332" d="M6 -191 L178 -191 L290 -6 L142 -6 L6 -191 Z " />
<glyph glyph-name="tilde" unicode="&#x2dc;" horiz-adv-x="411" d="M416 591 C385 570 363 559 350 559 C316 559 293 590 255 590 C219 590 181 570 134 537 L171 418 C203 441 217 446 229 446 C264 446 287 415 324 415 C363 415 407 440 454 473 L416 591 Z " />
<glyph glyph-name="hungarumlaut" unicode="&#x2dd;" horiz-adv-x="428" d="M312 590 L156 590 L111 407 L250 407 L312 590 Z M492 590 L337 590 L292 407 L431 407 L492 590 Z " />
<glyph glyph-name="uni03A9" unicode="&#x3a9;" horiz-adv-x="683" d="M417 441 C474 441 514 413 495 303 L481 223 C474 184 460 164 425 141 L401 0 L643 0 L670 154 L616 154 C628 177 635 204 639 223 L653 304 C691 518 574 596 444 596 C314 596 169 518 131 304 L117 223 C113 204 112 177 116 154 L62 154 L35 0 L277 0 L301 141 C274 164 268 184 275 223 L289 303 C308 413 358 441 415 441 L417 441 Z " />
<glyph glyph-name="pi" unicode="&#x3c0;" horiz-adv-x="681" d="M712 405 L111 405 L84 251 L174 251 L130 0 L287 0 L331 251 L438 251 L394 0 L551 0 L595 251 L685 251 L712 405 Z " />
<glyph glyph-name="ZWSP" unicode="&#x200b;" d="" />
<glyph glyph-name="endash" unicode="&#x2013;" horiz-adv-x="434" d="M417 135 L444 289 L90 289 L63 135 L417 135 Z " />
<glyph glyph-name="emdash" unicode="&#x2014;" horiz-adv-x="482" d="M465 135 L492 289 L90 289 L63 135 L465 135 Z " />
<glyph glyph-name="quoteleft" unicode="&#x2018;" horiz-adv-x="338" d="M109 392 L281 392 L402 590 L254 590 L109 392 Z " />
<glyph glyph-name="quoteright" unicode="&#x2019;" horiz-adv-x="338" d="M402 590 L230 590 L109 392 L257 392 L402 590 Z " />
<glyph glyph-name="quotesinglbase" unicode="&#x201a;" horiz-adv-x="338" d="M317 110 L145 110 L24 -88 L172 -88 L317 110 Z " />
<glyph glyph-name="quotedblleft" unicode="&#x201c;" horiz-adv-x="551" d="M109 392 L281 392 L402 590 L254 590 L109 392 Z M322 392 L494 392 L615 590 L467 590 L322 392 Z " />
<glyph glyph-name="quotedblright" unicode="&#x201d;" horiz-adv-x="551" d="M615 590 L443 590 L322 392 L470 392 L615 590 Z M402 590 L230 590 L109 392 L257 392 L402 590 Z " />
<glyph glyph-name="quotedblbase" unicode="&#x201e;" horiz-adv-x="551" d="M530 110 L358 110 L237 -88 L385 -88 L530 110 Z M317 110 L145 110 L24 -88 L172 -88 L317 110 Z " />
<glyph glyph-name="dagger" unicode="&#x2020;" horiz-adv-x="471" d="M85 257 L203 257 L127 -171 L284 -171 L360 257 L476 257 L503 411 L387 411 L415 568 L257 568 L229 411 L112 411 L85 257 Z " />
<glyph glyph-name="daggerdbl" unicode="&#x2021;" horiz-adv-x="471" d="M67 154 L40 0 L158 0 L127 -171 L284 -171 L315 0 L431 0 L458 154 L342 154 L360 257 L476 257 L503 411 L387 411 L415 568 L257 568 L229 411 L112 411 L85 257 L203 257 L185 154 L67 154 Z " />
<glyph glyph-name="bullet" unicode="&#x2022;" horiz-adv-x="249" d="M75 203 C67 156 100 120 145 120 C193 120 236 156 244 203 C253 251 222 288 174 288 C129 288 84 251 75 203 L75 203 Z " />
<glyph glyph-name="ellipsis" unicode="&#x2026;" horiz-adv-x="735" d="M38 -6 L201 -6 L228 142 L65 142 L38 -6 Z M284 -6 L447 -6 L474 142 L311 142 L284 -6 Z M530 -6 L693 -6 L720 142 L557 142 L530 -6 Z " />
<glyph glyph-name="perthousand" unicode="&#x2030;" horiz-adv-x="1013" d="M168 -6 L335 -6 L664 590 L496 590 L168 -6 Z M243 445 C232 445 227 453 230 468 C233 482 240 489 251 489 C262 489 267 482 264 468 C261 453 254 445 243 445 L243 445 Z M224 339 C313 339 357 385 372 468 C387 549 359 596 270 596 C181 596 137 549 122 468 C107 385 135 339 224 339 L224 339 Z M581 100 C570 100 565 108 568 123 C571 137 578 144 589 144 C600 144 605 137 602 123 C599 108 592 100 581 100 L581 100 Z M562 -6 C651 -6 695 40 710 123 C725 204 697 251 608 251 C519 251 475 204 460 123 C445 40 473 -6 562 -6 L562 -6 Z M865 100 C854 100 849 108 852 123 C855 137 862 144 873 144 C884 144 889 137 886 123 C883 108 876 100 865 100 L865 100 Z M846 -6 C935 -6 979 40 994 123 C1009 204 981 251 892 251 C803 251 759 204 744 123 C729 40 757 -6 846 -6 L846 -6 Z " />
<glyph glyph-name="guilsinglleft" unicode="&#x2039;" horiz-adv-x="431" d="M389 -6 L420 167 L289 234 L444 301 L474 474 L94 309 L67 158 L389 -6 Z " />
<glyph glyph-name="guilsinglright" unicode="&#x203a;" horiz-adv-x="431" d="M418 158 L445 309 L123 474 L93 301 L224 234 L69 167 L38 -6 L418 158 Z " />
<glyph glyph-name="fraction" unicode="&#x2044;" horiz-adv-x="599" d="M4 -204 L173 -204 L686 724 L517 724 L4 -204 Z " />
<glyph glyph-name="Euro" unicode="&#x20ac;" horiz-adv-x="630" d="M399 148 C376 148 347 154 323 173 L409 173 L429 284 L289 284 C289 287 290 292 291 299 C292 300 292 302 292 304 L432 304 L452 415 L360 415 C389 435 422 442 450 442 C487 442 527 435 566 396 L679 507 C624 570 548 596 479 596 C377 596 240 544 170 415 L113 415 L93 304 L131 304 C131 302 131 300 130 299 C129 292 128 287 128 284 L90 284 L70 173 L128 173 C155 29 285 -6 373 -6 C442 -6 527 22 603 85 L536 196 C483 157 436 148 399 148 L399 148 Z " />
<glyph glyph-name="Numero" unicode="&#x2116;" horiz-adv-x="1028" d="M408 0 L547 0 L651 590 L494 590 L441 293 L280 590 L144 590 L40 0 L197 0 L248 294 L408 0 Z M987 0 L1012 142 L630 142 L605 0 L987 0 Z M820 173 C893 173 1027 216 1056 386 C1080 530 977 590 892 590 C807 590 678 530 654 386 C625 216 740 173 814 173 L820 173 Z M845 327 C826 327 802 335 810 383 C817 422 845 436 864 436 C883 436 905 422 898 383 C890 335 861 327 845 327 L845 327 Z " />
<glyph glyph-name="trademark" unicode="&#x2122;" horiz-adv-x="758" d="M123 474 L196 474 L156 246 L287 246 L327 474 L400 474 L421 590 L144 590 L123 474 Z M646 343 L629 246 L761 246 L822 590 L728 590 L608 437 L539 590 L445 590 L384 246 L516 246 L533 342 L552 289 L606 289 L646 343 Z " />
<glyph glyph-name="Omega" unicode="&#x2126;" horiz-adv-x="688" d="M422 441 C479 441 519 413 500 303 L486 223 C479 184 465 164 430 141 L406 0 L648 0 L675 154 L621 154 C633 177 640 204 644 223 L658 304 C696 518 579 596 449 596 C319 596 174 518 136 304 L122 223 C118 204 117 177 121 154 L67 154 L40 0 L282 0 L306 141 C279 164 273 184 280 223 L294 303 C313 413 363 441 420 441 L422 441 Z " />
<glyph glyph-name="partialdiff" unicode="&#x2202;" horiz-adv-x="476" d="M343 363 C319 380 286 382 263 382 C183 382 97 332 73 192 C43 26 122 -6 193 -6 C218 -6 259 -6 294 26 L296 0 L436 0 L503 384 C530 532 427 595 339 595 C291 595 230 594 146 543 L175 412 C224 440 272 440 293 440 C323 440 352 426 347 386 L343 363 Z M309 172 C302 164 289 148 266 148 C254 148 222 142 230 192 C238 229 268 228 280 228 C291 228 297 223 304 216 C307 213 311 209 314 204 L309 172 Z " />
<glyph glyph-name="Delta" unicode="&#x2206;" horiz-adv-x="798" d="M505 596 L40 0 L758 0 L505 596 Z M449 294 L508 156 L344 156 L449 294 Z " />
<glyph glyph-name="product" unicode="&#x220f;" horiz-adv-x="681" d="M745 590 L144 590 L116 436 L206 436 L130 0 L287 0 L363 436 L470 436 L394 0 L551 0 L627 436 L717 436 L745 590 Z " />
<glyph glyph-name="summation" unicode="&#x2211;" horiz-adv-x="459" d="M40 0 L419 0 L446 154 L262 154 L347 296 L314 435 L495 435 L523 590 L144 590 L127 498 L177 295 L56 93 L40 0 Z " />
<glyph glyph-name="minus" unicode="&#x2212;" horiz-adv-x="434" d="M417 135 L444 289 L90 289 L63 135 L417 135 Z " />
<glyph glyph-name="radical" unicode="&#x221a;" horiz-adv-x="730" d="M350 0 L601 503 L778 503 L805 657 L510 657 L292 184 L278 405 L111 405 L169 0 L350 0 Z " />
<glyph glyph-name="infinity" unicode="&#x221e;" horiz-adv-x="852" d="M604 44 C711 44 829 104 853 236 C874 355 807 428 672 428 C592 428 548 413 488 355 C447 407 410 428 332 428 C195 428 102 355 81 236 C57 104 155 44 264 44 C331 44 395 72 446 111 C482 71 533 44 604 44 L604 44 Z M305 273 C337 273 368 258 391 229 C355 202 328 199 292 199 C259 199 234 211 238 235 C243 267 281 273 305 273 L305 273 Z M645 273 C669 273 703 267 698 235 C694 211 665 199 632 199 C595 199 569 200 541 228 C574 259 610 273 645 273 L645 273 Z " />
<glyph glyph-name="integral" unicode="&#x222b;" horiz-adv-x="465" d="M385 420 C389 447 403 455 424 455 C435 455 454 452 471 449 C481 447 492 445 503 443 L524 562 C508 578 490 596 411 596 C274 596 243 503 232 446 L150 -22 C145 -49 131 -57 110 -57 C99 -57 80 -54 63 -51 C53 -49 43 -47 32 -45 L11 -164 C27 -180 45 -198 124 -198 C261 -198 291 -105 302 -48 L385 420 Z " />
<glyph glyph-name="approxequal" unicode="&#x2248;" horiz-adv-x="411" d="M346 194 C315 173 293 162 280 162 C246 162 223 193 185 193 C149 193 111 173 64 140 L101 21 C133 44 147 49 159 49 C194 49 217 18 254 18 C293 18 337 43 384 76 L346 194 Z M379 381 C348 360 326 349 313 349 C279 349 256 380 218 380 C182 380 144 360 97 327 L134 208 C166 231 180 236 192 236 C227 236 250 205 287 205 C326 205 370 230 417 263 L379 381 Z " />
<glyph glyph-name="notequal" unicode="&#x2260;" horiz-adv-x="407" d="M407 231 L433 376 L404 376 L428 421 L283 421 L259 376 L106 376 L80 231 L179 231 L156 190 L73 190 L47 45 L76 45 L52 0 L199 0 L223 45 L374 45 L400 190 L302 190 L325 231 L407 231 Z " />
<glyph glyph-name="lessequal" unicode="&#x2264;" horiz-adv-x="431" d="M418 154 L447 322 L337 369 L464 418 L494 587 L118 445 L90 289 L418 154 Z M40 0 L64 137 L415 137 L391 0 L40 0 Z " />
<glyph glyph-name="greaterequal" unicode="&#x2265;" horiz-adv-x="431" d="M441 289 L469 445 L143 587 L113 418 L224 369 L96 322 L67 154 L441 289 Z M40 0 L64 137 L415 137 L391 0 L40 0 Z " />
<glyph glyph-name="lozenge" unicode="&#x25ca;" horiz-adv-x="496" d="M363 590 L340 590 L93 302 L88 277 L235 0 L263 0 L504 277 L509 302 L364 590 L363 590 Z M290 242 L265 292 L308 339 L333 292 L290 242 Z " />
<glyph glyph-name="uni25CC" unicode="&#x25cc;" horiz-adv-x="512" d="" />
<glyph glyph-name="fi" unicode="&#xfb01;" horiz-adv-x="577" d="M342 455 C353 455 369 453 385 452 C394 451 403 451 414 450 L434 563 C419 578 396 596 322 596 C230 596 164 525 137 405 L71 405 L45 257 L111 257 L66 0 L223 0 L268 257 L380 257 L406 405 L294 405 L295 412 C300 439 310 455 342 455 L342 455 Z M380 0 L537 0 L608 405 L451 405 L380 0 Z M457 439 L614 439 L639 582 L482 582 L457 439 Z " />
<glyph glyph-name="fl" unicode="&#xfb02;" horiz-adv-x="594" d="M342 455 C353 455 369 453 385 452 C394 451 403 451 414 450 L434 563 C419 578 396 596 322 596 C230 596 164 525 137 405 L71 405 L45 257 L111 257 L66 0 L223 0 L268 257 L380 257 L406 405 L294 405 L295 412 C300 439 310 455 342 455 L342 455 Z M641 590 L484 590 L400 117 C381 16 435 -6 485 -6 L490 -6 C519 -6 540 -1 555 6 C563 9 570 13 576 18 L597 139 C586 136 582 135 569 135 C568 135 559 135 562 142 L641 590 Z " />
</font>
</svg>
