<?xml version="1.0" standalone="no"?>
<!DOCTYPE svg PUBLIC "-//W3C//DTD SVG 1.1//EN" "http://www.w3.org/Graphics/SVG/1.1/DTD/svg11.dtd" >
<svg xmlns="http://www.w3.org/2000/svg">
<metadata></metadata>
<defs>
<font id="arquitectabook_italic" horiz-adv-x="447" >
<font-face units-per-em="1000" ascent="750" descent="-250" />
<missing-glyph horiz-adv-x="213" />
<glyph horiz-adv-x="0" />
<glyph horiz-adv-x="333" />
<glyph horiz-adv-x="0" />
<glyph horiz-adv-x="0" />
<glyph unicode="&#xd;" horiz-adv-x="81" />
<glyph unicode=" "  horiz-adv-x="213" />
<glyph unicode="&#x09;" horiz-adv-x="213" />
<glyph unicode="&#xa0;" horiz-adv-x="213" />
<glyph unicode="!" horiz-adv-x="235" d="M236 600l-4 -33l-73 -408h-41l42 408l4 33h72zM79 31q0 19 15 33.5t34 14.5q17 0 27.5 -11t10.5 -27q0 -20 -15 -34.5t-35 -14.5q-16 0 -26.5 11t-10.5 28z" />
<glyph unicode="&#x22;" horiz-adv-x="285" d="M222 661l-67 -198h-35l2 11l44 198h57zM335 661l-66 -198h-35l2 11l44 198h56z" />
<glyph unicode="#" horiz-adv-x="638" d="M599 583l-61 -165h123l-14 -39h-124l-65 -178h117l-13 -38h-118l-60 -163h-41l60 163h-178l-60 -163h-42l60 163h-124l14 38h124l65 178h-118l14 39h119l61 165h41l-61 -165h178l61 165h42zM304 379l-65 -178h178l65 178h-178z" />
<glyph unicode="$" horiz-adv-x="532" d="M54 55l38 44q6 -7 18.5 -16.5t58 -26t98.5 -16.5q94 0 140.5 33.5t46.5 91.5q0 42 -36 67t-121 50q-96 28 -141.5 62.5t-45.5 91.5q0 78 61.5 125t164.5 51l13 90h46l-13 -90q55 -3 98 -17t58 -26l16 -12l-38 -47q-6 5 -18 13.5t-56 22t-96 13.5q-76 0 -126.5 -30.5 t-50.5 -84.5q0 -37 36 -60t122 -48q98 -28 142 -65.5t44 -96.5q0 -77 -55 -128t-164 -59l-12 -89h-46l12 88q-39 1 -73.5 8.5t-55.5 17.5t-36.5 20t-22.5 16z" />
<glyph unicode="%" horiz-adv-x="670" d="M256 613q54 0 83 -36t29 -91q0 -69 -43 -121t-111 -52q-54 0 -83 37t-29 91q0 70 42.5 121t111.5 51zM249 566q-43 0 -69 -35.5t-26 -86.5q0 -37 17 -60.5t49 -23.5q43 0 69 36t26 86q0 38 -17 61t-49 23zM633 602l35 -32l-548 -564l-34 32zM541 292q53 0 83 -36.5 t30 -91.5q0 -69 -43.5 -120.5t-111.5 -51.5q-54 0 -83.5 36.5t-29.5 91.5q0 69 43 120.5t112 51.5zM534 246q-44 0 -70 -35.5t-26 -86.5q0 -37 17.5 -60.5t49.5 -23.5q43 0 68.5 35.5t25.5 86.5q0 38 -16.5 61t-48.5 23z" />
<glyph unicode="&#x26;" horiz-adv-x="610" d="M78 133q0 67 45 112.5t122 82.5l-6 8q-49 56 -49 114q0 73 48.5 118t121.5 45q68 0 103.5 -33t35.5 -84q0 -34 -14 -62.5t-41 -50.5t-52 -36.5t-63 -32.5l154 -175q45 63 61 153l4 21h52l-3 -20q-16 -112 -80 -192l84 -93l-2 -8h-64l-54 62q-83 -75 -203 -75 q-95 0 -147.5 39.5t-52.5 106.5zM285 37q100 0 165 60l-172 194q-66 -32 -102 -65t-36 -83q0 -47 39.5 -76.5t105.5 -29.5zM355 565q-44 0 -77.5 -31.5t-33.5 -77.5q0 -49 51 -106q37 17 57 27.5t44 28t35 38.5t11 47q0 74 -87 74z" />
<glyph unicode="'" horiz-adv-x="171" d="M222 661l-67 -198h-35l2 11l44 198h57z" />
<glyph unicode="(" horiz-adv-x="310" d="M386 639q-260 -160 -260 -440q0 -57 13 -108t30 -84.5t41.5 -63.5t39 -43t29.5 -24l-34 -40q-23 16 -46.5 39t-56.5 66.5t-53.5 110t-20.5 143.5q0 73 17 139.5t46.5 116t60 88t68.5 68.5t59.5 44.5t44.5 27.5z" />
<glyph unicode=")" horiz-adv-x="310" d="M105 639l34 40q23 -16 47 -39t56.5 -66t53 -109.5t20.5 -143.5q0 -87 -25.5 -165t-59.5 -128t-80.5 -94.5t-74.5 -63t-56 -34.5l-22 40q260 160 260 441q0 56 -13 107.5t-30 84.5t-41.5 63t-39 43t-29.5 24z" />
<glyph unicode="*" horiz-adv-x="421" d="M337 700l-25 -77h-26l-2 77l4 29h53zM423 587l-80 -11l-4 25l75 36l28 9l9 -50zM240 576l-75 11l-27 9l24 50l26 -9l65 -36zM184 487l64 57l19 -15l-45 -72l-20 -23l-38 29zM329 543l48 -56l12 -24l-46 -29l-14 23l-23 72z" />
<glyph unicode="+" horiz-adv-x="484" d="M337 490l-24 -166h166l-7 -47h-165l-23 -161h-50l23 161h-167l7 47h166l24 166h50z" />
<glyph unicode="," horiz-adv-x="131" d="M27 28q0 19 14.5 33t34.5 14q16 0 26.5 -10.5t10.5 -27.5q0 -24 -21 -55l-53 -76h-42l47 67l15 16v3q-14 1 -23 11.5t-9 24.5z" />
<glyph unicode="-" horiz-adv-x="397" d="M95 271l7 48h283l-7 -48h-283z" />
<glyph unicode="." horiz-adv-x="132" d="M27 29q0 19 15 33.5t35 14.5q16 0 26 -10.5t10 -27.5q0 -19 -14.5 -33t-33.5 -14q-16 0 -27 11t-11 26z" />
<glyph unicode="/" horiz-adv-x="345" d="M411 703l-345 -879h-58l345 879h58z" />
<glyph unicode="0" horiz-adv-x="620" d="M308 -14q-104 0 -162.5 74t-58.5 189q0 151 87.5 257.5t222.5 106.5q105 0 163 -74t58 -189q0 -151 -87 -257.5t-223 -106.5zM316 40q109 0 176 89.5t67 214.5q0 94 -44 154.5t-126 60.5q-109 0 -176.5 -90t-67.5 -215q0 -93 44.5 -153.5t126.5 -60.5z" />
<glyph unicode="1" horiz-adv-x="314" d="M100 547l7 53h195l-84 -600h-57l76 547h-137z" />
<glyph unicode="2" horiz-adv-x="505" d="M47 0l2 14l314 295q51 48 68 74.5t17 63.5q0 50 -34.5 81t-94.5 31q-45 0 -89.5 -19t-64.5 -35t-24 -21l-27 44q3 3 9.5 9t28 20.5t44.5 26t58.5 20.5t70.5 9q87 0 134 -42.5t47 -112.5q0 -49 -18.5 -83.5t-74.5 -87.5l-247 -234h299l-7 -53h-411z" />
<glyph unicode="3" horiz-adv-x="511" d="M306 299h-89q0 9 3 21l214 227h-296l7 53h393l-2 -14l-227 -240h19q73 0 117 -41t44 -112q0 -90 -67 -148.5t-174 -58.5q-115 0 -200 85q27 33 35 44q7 -8 21 -20.5t58.5 -33.5t91.5 -21q77 0 126.5 41t49.5 105q0 52 -33 82.5t-91 30.5z" />
<glyph unicode="4" horiz-adv-x="536" d="M48 146l6 43l413 411h44l-57 -401h69l-7 -53h-70l-20 -146h-57l20 146h-341zM132 204l-1 -5h266l44 308l-286 -286z" />
<glyph unicode="5" horiz-adv-x="505" d="M510 547h-281l-36 -200q48 11 103 11q94 0 143.5 -42t49.5 -114q0 -100 -65.5 -157.5t-176.5 -57.5q-57 0 -107 21.5t-72 42.5l-21 21l37 44l8 -8t22 -18.5t35.5 -23.5t47.5 -18t58 -8q77 0 126 41.5t49 112.5q0 52 -37.5 82.5t-103.5 30.5q-41 0 -78 -6t-54 -11.5 t-17 -6.5l-13 10l55 307h335z" />
<glyph unicode="6" horiz-adv-x="504" d="M75 148q0 95 80 196l202 256h68l-185 -234q-6 -7 -13 -13.5t-11 -9.5l-4 -3l-1 -5q49 29 103 29q86 0 136 -46t50 -118q0 -95 -68.5 -154t-169.5 -59q-86 0 -136.5 43.5t-50.5 117.5zM307 311q-74 0 -123.5 -44.5t-49.5 -110.5q0 -51 38 -83.5t98 -32.5q73 0 122.5 44 t49.5 110q0 52 -36 84.5t-99 32.5z" />
<glyph unicode="7" horiz-adv-x="452" d="M114 547l7 53h406l-2 -14l-362 -586h-69l340 547h-320z" />
<glyph unicode="8" horiz-adv-x="537" d="M267 -14q-91 0 -141.5 44.5t-50.5 112.5q0 60 35.5 106t96.5 69q-68 38 -68 117q0 75 59.5 126.5t156.5 51.5q80 0 125 -39.5t45 -101.5q0 -50 -28 -91.5t-78 -64.5q88 -39 88 -133q0 -82 -66.5 -139.5t-173.5 -57.5zM275 40q76 0 125 40t49 97q0 52 -38 83.5t-101 31.5 q-76 0 -126 -40t-50 -102q0 -47 38 -78.5t103 -31.5zM317 339q67 0 108.5 36t41.5 90q0 41 -32 67.5t-88 26.5q-67 0 -108.5 -34.5t-41.5 -85.5q0 -45 32 -72.5t88 -27.5z" />
<glyph unicode="9" horiz-adv-x="504" d="M513 451q0 -95 -79 -195l-201 -256h-69l184 233q6 7 13 14t11 10l4 3v4q-48 -29 -101 -29q-86 0 -136.5 46t-50.5 118q0 95 68.5 154.5t170.5 59.5q86 0 136 -43.5t50 -118.5zM282 289q76 0 124 44t49 111q0 51 -38.5 83.5t-97.5 32.5q-73 0 -122.5 -44t-49.5 -109 q0 -52 36.5 -85t98.5 -33z" />
<glyph unicode=":" horiz-adv-x="195" d="M98 304q0 19 14.5 33.5t33.5 14.5q16 0 26.5 -11t10.5 -27q0 -19 -14.5 -33t-33.5 -14q-16 0 -26.5 11t-10.5 26zM59 29q0 19 14.5 33.5t34.5 14.5q16 0 26 -10.5t10 -27.5q0 -19 -14.5 -33t-33.5 -14q-16 0 -26.5 11t-10.5 26z" />
<glyph unicode=";" horiz-adv-x="219" d="M74 28q0 19 14.5 33t34.5 14q17 0 27.5 -10.5t10.5 -27.5q0 -23 -22 -55l-53 -76h-42l47 67q3 5 7 9l6 6l3 1v3q-15 1 -24 11.5t-9 24.5zM114 304q0 19 15 33.5t35 14.5q15 0 25.5 -11.5t10.5 -26.5q0 -19 -14.5 -33t-33.5 -14q-16 0 -27 11t-11 26z" />
<glyph unicode="&#x3c;" horiz-adv-x="372" d="M287 44l-208 232l3 23l274 232l29 -35l-246 -209l187 -208z" />
<glyph unicode="=" horiz-adv-x="501" d="M127 364l6 47h350l-6 -47h-350zM100 173l7 47h350l-7 -47h-350z" />
<glyph unicode="&#x3e;" horiz-adv-x="372" d="M371 276l-274 -232l-29 35l246 208l-187 209l39 35l208 -232z" />
<glyph unicode="?" horiz-adv-x="376" d="M135 533l-15 44q55 36 147 36q62 0 97.5 -32.5t35.5 -84.5q0 -42 -16.5 -75t-42 -56.5t-51.5 -45.5t-48.5 -53.5t-29.5 -70.5l-7 -37h-40l6 43q5 39 25 72t43.5 55t46.5 44t38.5 50t15.5 61q0 36 -24.5 58.5t-65.5 22.5q-33 0 -61.5 -8t-40.5 -16zM126 29q0 19 15 33.5 t35 14.5q16 0 26 -11t10 -27q0 -19 -14.5 -33t-33.5 -14q-16 0 -27 11t-11 26z" />
<glyph unicode="@" horiz-adv-x="920" d="M423 -244q-170 0 -265.5 104t-95.5 263q0 130 60 240t172 177t252 67q87 0 157 -28.5t113.5 -76t66.5 -106.5t23 -124q0 -118 -56.5 -201.5t-153.5 -83.5q-32 0 -55 10.5t-32.5 25.5t-13.5 28t-3 20h-5q-4 -8 -12.5 -18t-26.5 -25.5t-48.5 -25.5t-67.5 -10q-68 0 -111 43 t-43 113q0 91 59.5 148.5t144.5 57.5q103 0 131 -76l20 68h40l-33 -233q-5 -37 11.5 -57.5t53.5 -20.5q69 0 109.5 68t40.5 162q0 125 -84.5 210.5t-230.5 85.5q-182 0 -305.5 -125t-123.5 -306q0 -143 86.5 -235.5t232.5 -92.5q56 0 105 10t70 20l21 11l14 -42 q-8 -5 -24.5 -12.5t-72.5 -20t-120 -12.5zM598 193q0 53 -32 83t-82 30q-61 0 -104.5 -42.5t-43.5 -108.5q0 -52 30.5 -84t79.5 -32q63 0 107.5 42.5t44.5 111.5z" />
<glyph unicode="A" horiz-adv-x="607" d="M5 0l375 600h14l209 -600h-65l-41 114h-355l-73 -114h-64zM473 179l-98 305h-8l-183 -305l-8 -11h302z" />
<glyph unicode="B" horiz-adv-x="634" d="M607 182q0 -91 -67.5 -136.5t-177.5 -45.5h-273l84 600h258q91 0 143 -35.5t52 -104.5q0 -59 -31.5 -98.5t-86.5 -55.5l-1 -6q100 -29 100 -118zM411 275h-227l-31 -222h217q78 0 128.5 31.5t50.5 94.5q0 45 -38 69.5t-100 26.5zM566 451q0 96 -142 96h-202l-30 -218h201 q79 0 126 31.5t47 90.5z" />
<glyph unicode="C" horiz-adv-x="593" d="M547 108l27 -43q-3 -3 -9.5 -8.5t-27.5 -19t-45 -24t-61 -19t-76 -8.5q-122 0 -196.5 77.5t-74.5 195.5q0 148 104.5 251t255.5 103q39 0 73.5 -8t56 -19.5t37.5 -23t23 -19.5l6 -8l-40 -44q-2 3 -6.5 7.5t-19.5 16t-32 20.5t-45.5 16.5t-59.5 7.5q-124 0 -209 -86.5 t-85 -205.5q0 -97 60.5 -162t160.5 -65q49 0 94.5 17t67.5 34z" />
<glyph unicode="D" horiz-adv-x="658" d="M657 341q0 -153 -104.5 -247t-262.5 -94h-201l84 600h201q129 0 206 -70t77 -189zM365 547h-143l-69 -494h142q128 0 215.5 76.5t87.5 203.5q0 99 -65 156.5t-168 57.5z" />
<glyph unicode="E" horiz-adv-x="563" d="M523 322l-7 -53h-333l-30 -216h377l-7 -53h-434l84 600h434l-7 -53h-378l-31 -225h332z" />
<glyph unicode="F" horiz-adv-x="555" d="M89 0l84 600h434l-7 -53h-378l-31 -225h334l-7 -53h-335l-37 -269h-57z" />
<glyph unicode="G" horiz-adv-x="675" d="M375 269l7 53h295l-5 -37q-20 -138 -105.5 -218.5t-214.5 -80.5q-125 0 -197 76t-72 194q0 150 102 253.5t258 103.5q43 0 80 -8t60 -20t39.5 -24t23.5 -20l7 -8l-39 -43q-2 3 -6.5 7.5t-21 16.5t-35.5 21t-50.5 16.5t-65.5 7.5q-129 0 -211 -87t-82 -209q0 -97 57 -160 t160 -63q100 0 170.5 60t81.5 160l1 9h-237z" />
<glyph unicode="H" horiz-adv-x="670" d="M665 600l-84 -600h-57l37 269h-378l-37 -269h-57l84 600h57l-39 -278h378l39 278h57z" />
<glyph unicode="I" horiz-adv-x="236" d="M230 600l-84 -600h-57l84 600h57z" />
<glyph unicode="J" d="M29 32l34 44q40 -35 106 -35q143 0 165 158l57 401h57l-58 -411q-14 -100 -72 -151.5t-151 -51.5q-41 0 -76 12.5t-45.5 20t-16.5 13.5z" />
<glyph unicode="K" horiz-adv-x="586" d="M230 600l-49 -346l402 346h67l-1 -11l-276 -238l195 -340l-2 -11h-64l-177 309l-155 -133l-24 -176h-57l84 600h57z" />
<glyph unicode="L" horiz-adv-x="516" d="M504 0h-415l84 600h57l-77 -547h358z" />
<glyph unicode="M" horiz-adv-x="757" d="M611 0l66 473l-258 -248h-18l-189 246l-66 -471h-57l84 600h18l230 -300l315 300h15l-84 -600h-56z" />
<glyph unicode="N" horiz-adv-x="696" d="M690 600l-84 -600h-18l-375 477l-67 -477h-57l84 600h18l375 -476l67 476h57z" />
<glyph unicode="O" horiz-adv-x="708" d="M352 -14q-124 0 -196.5 76.5t-72.5 194.5q0 150 101.5 253t255.5 103q124 0 195.5 -76t71.5 -195q0 -149 -100.5 -252.5t-254.5 -103.5zM359 40q127 0 209 87t82 207q0 97 -58 161t-160 64q-127 0 -208.5 -87t-81.5 -208q0 -97 57.5 -160.5t159.5 -63.5z" />
<glyph unicode="P" horiz-adv-x="599" d="M89 0l84 600h240q102 0 157 -43.5t55 -125.5q0 -112 -73 -173.5t-198 -61.5h-181l-27 -196h-57zM567 421q0 63 -43 94.5t-119 31.5h-183l-41 -298h182q95 0 149.5 42.5t54.5 129.5z" />
<glyph unicode="Q" horiz-adv-x="708" d="M352 -14q-124 0 -196.5 76.5t-72.5 194.5q0 150 101.5 253t255.5 103q124 0 195.5 -76t71.5 -195q0 -99 -47 -181.5t-129 -128.5l40 -76l-1 -10h-61l-32 61q-63 -21 -125 -21zM379 197l2 11h59l67 -129q66 39 104.5 107.5t38.5 147.5q0 97 -58 161t-160 64 q-127 0 -208.5 -87t-81.5 -208q0 -97 57.5 -160.5t159.5 -63.5q48 0 93 14z" />
<glyph unicode="R" horiz-adv-x="623" d="M89 0l84 600h239q102 0 157.5 -43.5t55.5 -125.5q0 -86 -48 -141t-129 -75v-4l134 -197l-2 -14h-61l-140 204h-205l-28 -204h-57zM566 421q0 63 -42.5 94.5t-118.5 31.5h-183l-40 -290h192q85 0 138.5 41.5t53.5 122.5z" />
<glyph unicode="S" horiz-adv-x="531" d="M54 55l38 44q6 -7 18.5 -16.5t58 -26t98.5 -16.5q94 0 140.5 33.5t46.5 91.5q0 42 -36 67t-121 50q-96 28 -141.5 62.5t-45.5 91.5q0 82 66.5 129.5t176.5 47.5q64 0 114.5 -14t68.5 -28l18 -14l-38 -47q-6 5 -18 13.5t-56 22t-96 13.5q-76 0 -126.5 -30.5t-50.5 -84.5 q0 -37 36 -60t122 -48q98 -28 142 -65.5t44 -96.5q0 -83 -63.5 -135.5t-189.5 -52.5q-41 0 -77.5 7t-59 17t-39 20.5t-23.5 17.5z" />
<glyph unicode="T" horiz-adv-x="518" d="M94 547l7 53h485l-7 -53h-215l-77 -547h-56l77 547h-214z" />
<glyph unicode="U" horiz-adv-x="657" d="M326 -14q-116 0 -172 72t-39 192l49 350h57l-49 -350q-13 -95 28.5 -152.5t133.5 -57.5q93 0 150.5 57.5t70.5 152.5l49 350h56l-49 -350q-17 -121 -92.5 -192.5t-192.5 -71.5z" />
<glyph unicode="V" horiz-adv-x="607" d="M322 110l122 207l178 283h63l-375 -600h-14l-207 600h63l100 -283l63 -207h7z" />
<glyph unicode="W" horiz-adv-x="809" d="M272 138l195 462h44l64 -462l3 -40h3l16 40l221 462h60l-292 -600h-49l-65 460v16h-4l-5 -16l-194 -460h-47l-124 600h60l92 -462l3 -40h4z" />
<glyph unicode="X" horiz-adv-x="544" d="M602 600l-247 -292l173 -308h-69l-131 234l-17 42l-30 -42l-196 -234h-67l256 308l-164 292h69l127 -225l14 -37l26 37l188 225h68z" />
<glyph unicode="Y" horiz-adv-x="540" d="M335 317l216 283h66l-287 -370l-32 -230h-57l32 230l-182 370h67l138 -283l11 -31h7z" />
<glyph unicode="Z" horiz-adv-x="535" d="M31 0l2 14l459 533h-374l7 53h468l-2 -14l-455 -533h370l-7 -53h-468z" />
<glyph unicode="[" horiz-adv-x="314" d="M384 674l-7 -48h-154l-104 -736h155l-7 -48h-209l117 832h209z" />
<glyph unicode="\" horiz-adv-x="345" d="M229 -176l-97 879h58l97 -879h-58z" />
<glyph unicode="]" horiz-adv-x="314" d="M3 -158l7 48h153l103 736h-153l7 48h208l-117 -832h-208z" />
<glyph unicode="^" horiz-adv-x="406" d="M374 488l-82 137l-121 -137h-40l2 12l145 168h38l99 -168l-2 -12h-39z" />
<glyph unicode="_" horiz-adv-x="489" d="M38 -68l7 48h389l-7 -48h-389z" />
<glyph unicode="`" horiz-adv-x="254" d="M205 419l-62 147l2 11h70l27 -147l-2 -11h-35z" />
<glyph unicode="a" horiz-adv-x="422" d="M43 90q0 51 44.5 85t126.5 34q80 0 118 -35h4l4 25q8 52 -17.5 79.5t-90.5 27.5q-29 0 -56 -7t-40 -14l-12 -7l-15 43q47 33 141 33q85 0 119 -44t24 -118l-27 -192h-40v45h-4q-8 -10 -21.5 -20t-47.5 -21.5t-76 -11.5q-66 0 -100 27.5t-34 70.5zM100 96q0 -28 23.5 -45 t70.5 -17q52 0 91.5 25t39.5 51t-32 43t-80 17q-54 0 -83.5 -20.5t-29.5 -53.5z" />
<glyph unicode="b" horiz-adv-x="468" d="M63 0l94 668h56l-54 -381h2l5 7.5t16 16t28 20.5t41 16t56 7q66 0 107.5 -43.5t41.5 -112.5q0 -90 -59 -148t-142 -58q-31 0 -56 7.5t-39 18.5t-23 22t-12 18l-3 8h-2l-17 -66h-40zM139 154q0 -53 32 -83.5t81 -30.5q60 0 104 43.5t44 107.5q0 51 -31 83t-80 32 q-61 0 -105.5 -42t-44.5 -110z" />
<glyph unicode="c" horiz-adv-x="365" d="M224 -8q-74 0 -119.5 43t-45.5 113q0 89 62.5 147.5t153.5 58.5q32 0 59 -7.5t38 -14.5l11 -8l-23 -43q-32 25 -89 25q-62 0 -108 -42.5t-46 -109.5q0 -52 33 -83t84 -31q25 0 49 6t35 12l12 7l10 -43q-43 -30 -116 -30z" />
<glyph unicode="d" horiz-adv-x="468" d="M388 291h2l53 377h56l-94 -668h-39l1 63h-3q-2 -3 -5.5 -7.5t-17 -17t-29.5 -22t-43 -17t-58 -7.5q-67 0 -109.5 43t-42.5 113q0 89 60 147.5t142 58.5q47 0 78.5 -16t40.5 -32zM379 192q0 53 -32.5 83.5t-81.5 30.5q-61 0 -104.5 -43t-43.5 -108q0 -51 30.5 -83 t79.5 -32q62 0 107 41.5t45 110.5z" />
<glyph unicode="e" horiz-adv-x="416" d="M349 69l14 -39q-6 -4 -16.5 -10.5t-45.5 -17.5t-72 -11q-78 0 -124 43t-46 114q0 89 59.5 147.5t146.5 58.5q80 0 119.5 -48.5t25.5 -122.5l-3 -19h-292v-11q0 -54 34 -84.5t87 -30.5q31 0 59 8t41 16zM257 308q-48 0 -84.5 -27t-50.5 -74h235q0 45 -26 73t-74 28z" />
<glyph unicode="f" horiz-adv-x="307" d="M332 301h-135l-42 -301h-56l42 301h-84l6 45h84l22 155q24 165 165 165q34 0 70 -18l-24 -47q-22 13 -46 13q-93 0 -109 -113l-22 -155h135z" />
<glyph unicode="g" horiz-adv-x="404" d="M178 -237q-80 0 -123.5 31.5t-43.5 83.5q0 85 90 117l1 3q-59 19 -59 68q0 59 69 87q-14 25 -14 56q0 61 45 102.5t114 41.5l177 -7l-6 -42h-71v-4q23 -13 23 -61q0 -57 -45.5 -98.5t-113.5 -41.5q-53 0 -84 26q-43 -16 -43 -50q0 -48 121 -48q84 0 126.5 -30t42.5 -83 q0 -65 -56 -108t-150 -43zM209 -19q-65 0 -104 -27.5t-39 -66.5q0 -34 31 -56t88 -22q68 0 105.5 26.5t37.5 67.5q0 35 -30.5 56.5t-88.5 21.5zM251 307q-47 0 -76 -27t-29 -66q0 -32 21.5 -51.5t60.5 -19.5q47 0 76 26.5t29 65.5q0 32 -21.5 52t-60.5 20z" />
<glyph unicode="h" horiz-adv-x="455" d="M63 0l94 668h56l-51 -365h2q56 51 130 51q72 0 106.5 -43.5t24.5 -115.5l-27 -195h-56l26 188q8 53 -16 85.5t-77 32.5q-54 0 -88 -32.5t-39 -68.5l-29 -205h-56z" />
<glyph unicode="i" horiz-adv-x="186" d="M162 490q-14 0 -23.5 9.5t-9.5 23.5q0 18 13 31t31 13q15 0 24.5 -10t9.5 -24q0 -18 -13.5 -30.5t-31.5 -12.5zM65 0l49 346h56l-49 -346h-56z" />
<glyph unicode="j" horiz-adv-x="181" d="M-64 -184l18 43q17 -12 38 -12q25 0 38.5 15t18.5 47l61 437h58l-62 -439q-15 -108 -109 -108q-17 0 -32 4.5t-22 8.5zM160 490q-15 0 -24.5 9.5t-9.5 23.5q0 18 13.5 31t31.5 13q14 0 23 -10t9 -24q0 -18 -13 -30.5t-30 -12.5z" />
<glyph unicode="k" horiz-adv-x="384" d="M332 346h68l-197 -169l175 -177h-79l-156 162h-3l-22 -162h-56l94 668h56l-68 -481h2z" />
<glyph unicode="l" horiz-adv-x="186" d="M65 0l94 668h56l-94 -668h-56z" />
<glyph unicode="m" horiz-adv-x="734" d="M148 205l-29 -205h-56l49 346h39l-1 -56h3q55 64 141 64q97 0 125 -72h3q55 72 152 72q71 0 105.5 -43.5t24.5 -115.5l-27 -195h-56l26 188q8 53 -15.5 85.5t-76.5 32.5q-52 0 -86.5 -30.5t-40.5 -68.5l-30 -207h-56l28 202q6 47 -18 75.5t-77 28.5q-54 0 -88 -32.5 t-39 -68.5z" />
<glyph unicode="n" horiz-adv-x="455" d="M148 205l-29 -205h-56l49 346h39l-1 -56h3q52 64 141 64q72 0 106.5 -43.5t24.5 -115.5l-27 -195h-56l26 188q8 53 -16 85.5t-77 32.5q-54 0 -88 -32.5t-39 -68.5z" />
<glyph unicode="o" d="M436 195q0 -90 -63 -146.5t-151 -56.5q-72 0 -117.5 42.5t-45.5 113.5q0 90 63.5 148t150.5 58q71 0 117 -44t46 -115zM228 38q62 0 107.5 42t45.5 110q0 53 -32.5 85.5t-82.5 32.5q-60 0 -105 -43.5t-45 -111.5q0 -53 31.5 -84t80.5 -31z" />
<glyph unicode="p" horiz-adv-x="468" d="M129 55h-2l-35 -247h-56l76 538h39l-1 -60h5q2 3 5.5 7.5t17 16t29 20.5t42.5 16.5t57 7.5q67 0 109 -43t42 -113q0 -89 -59.5 -147.5t-141.5 -58.5q-30 0 -54 6.5t-37 16t-21.5 18.5t-11.5 15zM139 154q0 -53 32 -83.5t81 -30.5q61 0 104.5 43t43.5 108q0 51 -31 83 t-80 32q-61 0 -105.5 -42t-44.5 -110z" />
<glyph unicode="q" horiz-adv-x="468" d="M453 346l-75 -538h-56l35 251h-2l-5 -7.5t-15.5 -16t-27.5 -20.5t-41 -16t-56 -7q-66 0 -108.5 43.5t-42.5 112.5q0 89 60 147.5t143 58.5q31 0 56 -7.5t38.5 -18.5t22.5 -22t11 -18l3 -8h4l16 66h40zM379 192q0 53 -32.5 83.5t-81.5 30.5q-60 0 -104 -43.5t-44 -107.5 q0 -52 30.5 -83.5t79.5 -31.5q62 0 107 41.5t45 110.5z" />
<glyph unicode="r" horiz-adv-x="280" d="M323 334l-25 -45q-17 11 -45 11q-38 0 -68.5 -25.5t-35.5 -62.5l-30 -212h-56l49 346h39l-1 -56h2q46 58 111 58q17 0 32 -3.5t21 -6.5z" />
<glyph unicode="s" horiz-adv-x="375" d="M39 31l29 40q47 -33 123 -33q52 0 80.5 15.5t28.5 42.5q0 20 -23 33t-56 21t-66.5 17t-56.5 29t-23 50q0 48 41 78t119 30q41 0 75.5 -7t48.5 -14l14 -7l-27 -46q-37 28 -112 28q-105 0 -105 -55q0 -23 35.5 -37t77.5 -20.5t77.5 -29t35.5 -61.5q0 -49 -42 -81t-128 -32 q-46 0 -82.5 9.5t-50.5 19.5z" />
<glyph unicode="t" horiz-adv-x="308" d="M62 346h71l15 104h56l-15 -104h142l-6 -46h-142l-22 -156q-7 -54 10.5 -79t61.5 -25q12 0 25 3.5t20 7.5l7 4l13 -40q-32 -23 -79 -23q-135 0 -114 151l22 157h-71z" />
<glyph unicode="u" horiz-adv-x="451" d="M353 141l29 205h56l-49 -346h-37l-2 55h-3q-7 -10 -18.5 -21.5t-46 -26.5t-76.5 -15q-71 0 -104.5 43.5t-23.5 115.5l27 195h56l-26 -188q-8 -53 14.5 -85.5t75.5 -32.5q54 0 88.5 32.5t39.5 68.5z" />
<glyph unicode="v" horiz-adv-x="405" d="M183 0l-122 346h63l83 -253q4 -11 4 -27h3q2 12 10 24l156 256h62l-220 -346h-39z" />
<glyph unicode="w" horiz-adv-x="579" d="M154 0l-87 346h59l56 -256q3 -12 3 -24h5q4 13 9 24l118 256h47l45 -256q2 -16 2 -24h6q2 11 9 24l129 256h55l-185 -346h-47l-46 256q-2 12 -2 21h-3q-2 -7 -8 -21l-118 -256h-47z" />
<glyph unicode="x" horiz-adv-x="384" d="M16 0l167 180l-108 166h65l81 -131h2l120 131h63l-156 -166l118 -180h-64l-90 146h-2l-133 -146h-63z" />
<glyph unicode="y" horiz-adv-x="405" d="M440 346l-333 -538h-59l131 207l-115 331h62l82 -250q5 -13 5 -30h3q2 11 10 24l156 256h58z" />
<glyph unicode="z" horiz-adv-x="372" d="M36 28l267 271h-228l7 47h306l-4 -26l-267 -273h229l-7 -47h-307z" />
<glyph unicode="{" horiz-adv-x="247" d="M63 281h12q27 0 46.5 21.5t25.5 60.5l34 237q14 96 113 104l2 -48q-28 -4 -40.5 -17t-16.5 -46l-33 -235q-11 -81 -67 -98l-1 -8q50 -17 39 -97l-33 -235q-4 -32 4.5 -45.5t34.5 -17.5l-14 -48q-99 9 -85 104l34 238q5 38 -9 59.5t-41 21.5h-12z" />
<glyph unicode="|" horiz-adv-x="213" d="M228 673l-116 -825h-53l116 825h53z" />
<glyph unicode="}" horiz-adv-x="247" d="M257 232h-13q-26 0 -47 -21.5t-26 -59.5l-33 -238q-14 -96 -114 -104l-1 48q28 4 40.5 17.5t16.5 45.5l33 235q11 81 68 97l1 8q-52 16 -41 98l33 235q4 33 -4 46t-35 17l15 48q98 -9 84 -104l-33 -237q-6 -39 9 -60.5t41 -21.5h13z" />
<glyph unicode="~" horiz-adv-x="452" d="M342 304q22 0 41 5t27 10l8 5l15 -35q-32 -31 -98 -31q-25 0 -69.5 13.5t-73.5 13.5q-22 0 -41 -5.5t-27 -10.5l-8 -5l-14 35q31 31 96 31q25 0 70.5 -13t73.5 -13z" />
<glyph unicode="&#xa1;" horiz-adv-x="233" d="M157 33l-5 -33h-72l5 33l72 408h41zM152 559q0 20 15 34.5t35 14.5q16 0 27.5 -11t11.5 -28q0 -19 -15.5 -33.5t-35.5 -14.5q-16 0 -27 11t-11 27z" />
<glyph unicode="&#xa2;" horiz-adv-x="413" d="M197 -88l11 82q-62 8 -98.5 50t-36.5 105q0 80 52.5 136t131.5 67l12 84h42l-12 -82q30 -1 56 -9t37 -15l11 -7l-26 -44q-35 27 -91 27q-62 0 -108.5 -42.5t-46.5 -109.5q0 -52 33.5 -83t83.5 -31q25 0 49.5 6.5t36.5 13.5l13 6l14 -43q-44 -28 -112 -31l-10 -80h-42z " />
<glyph unicode="&#xa3;" horiz-adv-x="511" d="M459 56l-7 -51h-384l7 51q3 1 7.5 3t16.5 11t22.5 20t20 31.5t13.5 45.5q3 23 -8 73h-64l6 46h47q-11 48 -11 85q0 91 68.5 163t188.5 72q33 0 61 -6.5t45 -15t29 -17.5t17 -15l5 -7l-38 -41q-4 5 -12 13t-39.5 21.5t-71.5 13.5q-91 0 -141 -55t-50 -127q0 -36 11 -84 h250l-6 -46h-232q9 -43 5 -72q-10 -72 -62 -112h306z" />
<glyph unicode="&#xa4;" horiz-adv-x="577" d="M122 79l-33 37l65 59q-28 44 -28 99q0 83 62 148l-48 58l44 37l45 -61q58 41 128 41q67 0 116 -44l67 64l32 -37l-68 -62q28 -44 28 -98q0 -80 -59 -146l48 -58l-43 -37l-46 60q-61 -42 -131 -42q-68 0 -116 43zM181 280q0 -55 36 -93t91 -38q67 0 118 49.5t51 115.5 q0 55 -36 93t-91 38q-67 0 -118 -49t-51 -116z" />
<glyph unicode="&#xa5;" horiz-adv-x="592" d="M361 317l216 283h66l-252 -325h150l-6 -47h-180l-12 -87h179l-6 -46h-179l-13 -95h-57l13 95h-181l6 46h181l12 87h-180l6 47h153l-160 325h67l138 -283l11 -31h7z" />
<glyph unicode="&#xa6;" horiz-adv-x="214" d="M113 -152h-54l116 825h54z" />
<glyph unicode="&#xa7;" horiz-adv-x="529" d="M23 -126l38 44q2 -3 7 -7.5t22 -15.5t36.5 -20t50.5 -16t65 -7q87 0 131.5 36.5t44.5 88.5q0 40 -31.5 66.5t-111.5 58.5q-74 29 -105 55t-31 66q0 63 52 93q-76 46 -76 117q0 78 63 129t180 51q64 0 113 -15.5t67 -31.5l17 -15l-38 -47q-6 6 -17.5 15.5t-54.5 25.5 t-94 16q-83 0 -127 -34t-44 -86q0 -75 121 -117q79 -28 118 -58t39 -74q0 -56 -48 -96q72 -47 72 -116q0 -75 -62 -128t-184 -53q-42 0 -79.5 7.5t-61 18.5t-40.5 22.5t-25 18.5zM276 279q-10 3 -39 15q-41 -15 -41 -61q0 -24 24.5 -43.5t82.5 -41.5q49 -20 61 -26 q35 24 35 63q0 53 -123 94z" />
<glyph unicode="&#xa8;" horiz-adv-x="403" d="M139 479q0 17 13.5 30t30.5 13q15 0 24.5 -10t9.5 -25q0 -17 -14 -30t-31 -13q-14 0 -23.5 10.5t-9.5 24.5zM317 479q0 17 13.5 30t30.5 13q15 0 24.5 -10t9.5 -25q0 -17 -14 -30t-31 -13q-14 0 -23.5 10.5t-9.5 24.5z" />
<glyph unicode="&#xa9;" horiz-adv-x="723" d="M446 604q128 0 201 -75.5t73 -190.5q0 -141 -101 -242t-258 -101q-127 0 -200.5 76t-73.5 190q0 141 101.5 242t257.5 101zM441 568q-137 0 -226 -89t-89 -214q0 -101 64 -167.5t176 -66.5q138 0 226.5 89t88.5 214q0 101 -64 167.5t-176 66.5zM535 425l-27 -29 q-24 27 -80 27q-63 0 -103.5 -40.5t-40.5 -98.5q0 -46 29 -76t80 -30q24 0 46 7t32 13l10 7l19 -29q-4 -4 -12.5 -10t-38 -16.5t-63.5 -10.5q-68 0 -106.5 39.5t-38.5 100.5q0 76 53 129.5t137 53.5q34 0 60 -9t35 -19z" />
<glyph unicode="&#xaa;" horiz-adv-x="410" d="M91 358q0 52 44 83.5t117 31.5q84 0 111 -36l3 20q8 58 -13.5 86.5t-84.5 28.5q-22 0 -49 -6t-43 -12l-17 -5l-9 39q65 26 131 26q84 0 114.5 -41t19.5 -118l-25 -181h-35l-3 37h-6q-36 -45 -133 -45q-56 0 -89 25t-33 67zM139 363q0 -28 24.5 -44t66.5 -16q53 0 89 22 t36 54q0 26 -27.5 43t-71.5 17q-55 0 -86 -20.5t-31 -55.5z" />
<glyph unicode="&#xab;" horiz-adv-x="403" d="M65 162l3 19l127 155h50l-1 -8l-126 -153l-1 -5l83 -155l-1 -8h-50zM228 162l3 19l127 155h49l-1 -8l-126 -153l-1 -5l83 -155l-1 -8h-49z" />
<glyph unicode="&#xac;" horiz-adv-x="547" d="M76 299l7 48h427l-49 -347h-48l42 299h-379z" />
<glyph unicode="&#xad;" horiz-adv-x="397" d="M95 271l7 48h283l-7 -48h-283z" />
<glyph unicode="&#xae;" horiz-adv-x="570" d="M578 410q0 -107 -77 -184.5t-195 -77.5q-97 0 -151.5 58t-54.5 144q0 108 76 185t195 77q97 0 152 -57.5t55 -144.5zM538 406q0 74 -46.5 122t-125.5 48q-99 0 -163 -63.5t-64 -157.5q0 -74 46.5 -122t125.5 -48q98 0 162.5 64t64.5 157zM265 485h92q37 0 59.5 -17 t22.5 -47q0 -54 -51 -74l35 -56l-1 -8h-33l-35 56q-7 -1 -20 -1h-57l-7 -55h-33zM353 455h-59l-13 -88h58q29 0 47.5 12.5t18.5 38.5q0 37 -52 37z" />
<glyph unicode="&#xaf;" horiz-adv-x="472" d="M174 445l5 38h260l-5 -38h-260z" />
<glyph unicode="&#xb0;" horiz-adv-x="316" d="M252 672q47 0 75 -27t28 -68q0 -50 -38 -85t-95 -35q-47 0 -75 26.5t-28 67.5q0 50 38.5 85.5t94.5 35.5zM248 638q-40 0 -66 -24.5t-26 -58.5q0 -27 19 -45t52 -18q39 0 65 23.5t26 57.5q0 28 -19 46.5t-51 18.5z" />
<glyph unicode="&#xb1;" horiz-adv-x="559" d="M329 165h-48l25 177h-188l7 48h187l26 181h48l-26 -181h184l-7 -48h-183zM502 92l-7 -48h-419l7 48h419z" />
<glyph unicode="&#xb2;" horiz-adv-x="316" d="M76 342l2 16l177 141q51 41 51 82q0 56 -72 56q-24 0 -47.5 -8.5t-35.5 -16.5t-13 -10l-18 32q6 5 16.5 12t42.5 19t64 12q55 0 81.5 -24t26.5 -63q0 -59 -65 -111l-125 -99h181l-5 -38h-261z" />
<glyph unicode="&#xb3;" horiz-adv-x="315" d="M127 630l5 38h232l-1 -13l-98 -119q85 -8 85 -82q0 -51 -39.5 -85.5t-108.5 -34.5q-76 0 -122 46l28 31q36 -37 98 -37q48 0 74 21t26 54q0 52 -68 54h-38l2 14l93 113h-168z" />
<glyph unicode="&#xb4;" horiz-adv-x="247" d="M254 566l-104 -147h-35l2 11l68 147h70z" />
<glyph unicode="&#xb5;" horiz-adv-x="496" d="M108 -192h-56l75 538h56l-27 -194q-7 -51 16 -81.5t75 -30.5q54 0 88.5 32.5t39.5 68.5l29 205h56l-49 -346h-37l-2 55h-3q-7 -10 -18.5 -21.5t-46 -26.5t-76.5 -15q-57 0 -90 28z" />
<glyph unicode="&#xb6;" horiz-adv-x="498" d="M321 -175l40 285h-78q-100 0 -155 43.5t-55 126.5q0 108 69.5 166t193.5 58h137l-95 -679h-57z" />
<glyph unicode="&#xb7;" horiz-adv-x="136" d="M73 355q0 19 15.5 33.5t35.5 14.5q16 0 26.5 -11t10.5 -27q0 -19 -15 -34t-35 -15q-16 0 -27 11.5t-11 27.5z" />
<glyph unicode="&#xb8;" horiz-adv-x="216" d="M75 -60l-12 17l30 45h36l-21 -32q27 0 44 -13.5t17 -39.5q0 -34 -24.5 -56t-66.5 -22q-21 0 -37 6.5t-22 12.5l-6 7l18 26q19 -21 52 -21q24 0 37.5 11t13.5 31q0 32 -39 32z" />
<glyph unicode="&#xb9;" horiz-adv-x="191" d="M109 630l5 38h117l-45 -326h-43l40 288h-74z" />
<glyph unicode="&#xba;" horiz-adv-x="427" d="M299 613q68 0 109.5 -40.5t41.5 -108.5q0 -85 -57.5 -139.5t-141.5 -54.5q-68 0 -109 40t-41 107q0 87 57 141.5t141 54.5zM293 570q-62 0 -103 -41.5t-41 -107.5q0 -49 29.5 -79t78.5 -30q63 0 104 41t41 107q0 51 -29.5 80.5t-79.5 29.5z" />
<glyph unicode="&#xbb;" horiz-adv-x="403" d="M224 181l-2 -19l-128 -155h-50l1 8l127 155l1 5l-84 153l1 8h50zM386 181l-2 -19l-128 -155h-49l1 8l126 155l1 5l-83 153l1 8h49z" />
<glyph unicode="&#xbc;" horiz-adv-x="631" d="M335 91l3 26l217 209h31l-28 -198h54l-5 -37h-54l-13 -91h-40l13 91h-178zM435 163l-41 -38l54 3h70l14 100l5 35h-3zM82 8l-27 26l548 564l29 -26zM117 562l6 38h117l-46 -326h-42l40 288h-75z" />
<glyph unicode="&#xbd;" horiz-adv-x="716" d="M421 16l-2 -16h261l5 38h-181l126 99q66 53 66 110q0 39 -26.5 63.5t-82.5 24.5q-32 0 -62.5 -10.5t-45.5 -21.5l-15 -11l17 -32q3 3 14 10t35 16t48 9q36 0 54 -15.5t18 -41.5q0 -39 -51 -81zM105 8l-27 26l548 564l29 -26zM119 562l6 38h117l-46 -326h-42l40 288h-75z " />
<glyph unicode="&#xbe;" horiz-adv-x="737" d="M440 91l4 26l216 209h31l-28 -198h54l-5 -37h-54l-13 -91h-41l13 91h-177zM133 562l5 38h232l-1 -13l-98 -119q85 -8 85 -82q0 -51 -39.5 -85.5t-108.5 -34.5q-76 0 -122 46l28 31q37 -37 98 -37q48 0 74 21t26 54q0 54 -71 54h-35l2 14l94 113h-169zM194 8l-27 26 l548 564l28 -26zM540 163l-40 -38l53 3h69l14 100l5 35h-1z" />
<glyph unicode="&#xbf;" horiz-adv-x="376" d="M327 72l14 -45q-55 -35 -147 -35q-62 0 -97 32t-35 83q0 43 16.5 76.5t41.5 56.5t50.5 45.5t48 54t30.5 70.5l7 37h41l-6 -44q-5 -39 -24.5 -71.5t-43.5 -54.5t-47.5 -44t-39 -50t-15.5 -61q0 -36 24 -58.5t66 -22.5q33 0 62 7.5t41 15.5zM335 576q0 -19 -15 -33.5 t-35 -14.5q-16 0 -26 10.5t-10 27.5q0 19 14.5 33t33.5 14q16 0 27 -11t11 -26z" />
<glyph unicode="&#xc0;" horiz-adv-x="607" d="M5 0l375 600h14l209 -600h-65l-41 114h-355l-73 -114h-64zM473 179l-98 305h-8l-183 -305l-8 -11h302zM369 638l-62 147l2 11h70l27 -147l-2 -11h-35z" />
<glyph unicode="&#xc1;" horiz-adv-x="607" d="M5 0l375 600h14l209 -600h-65l-41 114h-355l-73 -114h-64zM473 179l-98 305h-8l-183 -305l-8 -11h302zM512 785l-104 -147h-35l2 11l68 147h70z" />
<glyph unicode="&#xc2;" horiz-adv-x="607" d="M496 638l-89 111l-122 -111h-36l2 11l130 147h63l90 -147l-2 -11h-36zM5 0l375 600h14l209 -600h-65l-41 114h-355l-73 -114h-64zM473 179l-98 305h-8l-183 -305l-8 -11h302z" />
<glyph unicode="&#xc3;" horiz-adv-x="607" d="M5 0l375 600h14l209 -600h-65l-41 114h-355l-73 -114h-64zM473 179l-98 305h-8l-183 -305l-8 -11h302zM459 651q-29 0 -67 25t-56 25q-33 0 -46 -37l-5 -14l-40 5l8 22q25 68 85 68q28 0 66 -24.5t56 -24.5q32 0 47 37l5 12l39 -4l-7 -21q-23 -69 -85 -69z" />
<glyph unicode="&#xc4;" horiz-adv-x="607" d="M271 711q0 17 13.5 30t30.5 13q15 0 24.5 -10t9.5 -25q0 -17 -14 -30t-31 -13q-14 0 -23.5 10.5t-9.5 24.5zM449 711q0 17 13.5 30t30.5 13q15 0 24.5 -10t9.5 -25q0 -17 -14 -30t-31 -13q-14 0 -23.5 10.5t-9.5 24.5zM5 0l375 600h14l209 -600h-65l-41 114h-355 l-73 -114h-64zM473 179l-98 305h-8l-183 -305l-8 -11h302z" />
<glyph unicode="&#xc5;" horiz-adv-x="608" d="M5 0l367 588q-29 4 -47.5 25t-18.5 51q0 41 30.5 70t72.5 29q35 0 57 -21.5t22 -55.5q0 -38 -25.5 -66t-64.5 -33l205 -587h-65l-41 114h-355l-73 -114h-64zM473 179l-98 305h-8l-183 -305l-8 -11h302zM449 683q0 20 -12 31.5t-33 11.5q-26 0 -42.5 -16.5t-16.5 -41.5 q0 -20 12 -32t33 -12q27 0 43 16.5t16 42.5z" />
<glyph unicode="&#xc6;" horiz-adv-x="906" d="M-10 0l520 600h440l-7 -53h-378l-31 -225h331l-7 -53h-332l-30 -216h377l-7 -53h-434l16 114h-293l-96 -114h-69zM495 508l-295 -340h255l48 340h-8z" />
<glyph unicode="&#xc7;" horiz-adv-x="593" d="M323 -60l-12 17l20 30q-113 8 -180 83.5t-67 188.5q0 148 104.5 251t255.5 103q39 0 73.5 -8t56 -19.5t37.5 -23t23 -19.5l6 -8l-40 -44q-2 3 -6.5 7.5t-19.5 16t-32 20.5t-45.5 16.5t-59.5 7.5q-124 0 -209 -86.5t-85 -205.5q0 -97 60.5 -162t160.5 -65q49 0 94.5 17 t67.5 34l21 17l27 -43q-9 -8 -25 -21t-70 -34.5t-113 -23.5l-10 -16q27 0 44 -13.5t17 -39.5q0 -34 -24.5 -56t-66.5 -22q-21 0 -37 6.5t-22 12.5l-6 7l18 26q19 -21 52 -21q24 0 37.5 11t13.5 31q0 32 -39 32z" />
<glyph unicode="&#xc8;" horiz-adv-x="563" d="M523 322l-7 -53h-333l-30 -216h377l-7 -53h-434l84 600h434l-7 -53h-378l-31 -225h332zM390 637l-62 147l2 11h70l27 -147l-2 -11h-35z" />
<glyph unicode="&#xc9;" horiz-adv-x="563" d="M512 785l-104 -147h-35l2 11l68 147h70zM523 322l-7 -53h-333l-30 -216h377l-7 -53h-434l84 600h434l-7 -53h-378l-31 -225h332z" />
<glyph unicode="&#xca;" horiz-adv-x="563" d="M509 638l-89 111l-122 -111h-36l2 11l130 147h63l90 -147l-2 -11h-36zM523 322l-7 -53h-333l-30 -216h377l-7 -53h-434l84 600h434l-7 -53h-378l-31 -225h332z" />
<glyph unicode="&#xcb;" horiz-adv-x="563" d="M283 701q0 17 13.5 30t30.5 13q15 0 24.5 -10t9.5 -25q0 -17 -14 -30t-31 -13q-14 0 -23.5 10.5t-9.5 24.5zM461 701q0 17 13.5 30t30.5 13q15 0 24.5 -10t9.5 -25q0 -17 -14 -30t-31 -13q-14 0 -23.5 10.5t-9.5 24.5zM523 322l-7 -53h-333l-30 -216h377l-7 -53h-434 l84 600h434l-7 -53h-378l-31 -225h332z" />
<glyph unicode="&#xcc;" horiz-adv-x="236" d="M230 600l-84 -600h-57l84 600h57zM190 637l-62 147l2 11h70l27 -147l-2 -11h-35z" />
<glyph unicode="&#xcd;" horiz-adv-x="236" d="M230 600l-84 -600h-57l84 600h57zM331 785l-104 -147h-35l2 11l68 147h70z" />
<glyph unicode="&#xce;" horiz-adv-x="236" d="M315 638l-89 111l-122 -111h-36l2 11l130 147h63l90 -147l-2 -11h-36zM230 600l-84 -600h-57l84 600h57z" />
<glyph unicode="&#xcf;" horiz-adv-x="236" d="M91 701q0 17 13.5 30t30.5 13q15 0 24.5 -10t9.5 -25q0 -17 -14 -30t-31 -13q-14 0 -23.5 10.5t-9.5 24.5zM269 701q0 17 13.5 30t30.5 13q15 0 24.5 -10t9.5 -25q0 -17 -14 -30t-31 -13q-14 0 -23.5 10.5t-9.5 24.5zM230 600l-84 -600h-57l84 600h57z" />
<glyph unicode="&#xd0;" horiz-adv-x="666" d="M59 277l6 46h77l39 277h201q129 0 206 -70t77 -189q0 -153 -104.5 -247t-262.5 -94h-201l39 277h-77zM373 547h-143l-31 -224h137l-6 -46h-138l-31 -224h142q128 0 215.5 76.5t87.5 203.5q0 99 -65 156.5t-168 57.5z" />
<glyph unicode="&#xd1;" horiz-adv-x="696" d="M690 600l-84 -600h-18l-375 477l-67 -477h-57l84 600h18l375 -476l67 476h57zM508 666q-29 0 -67 25t-56 25q-33 0 -46 -37l-5 -14l-40 5l8 22q25 68 85 68q28 0 66 -24.5t56 -24.5q32 0 47 37l5 12l39 -4l-7 -21q-23 -69 -85 -69z" />
<glyph unicode="&#xd2;" horiz-adv-x="708" d="M419 638l-62 147l2 11h70l27 -147l-2 -11h-35zM352 -14q-124 0 -196.5 76.5t-72.5 194.5q0 150 101.5 253t255.5 103q124 0 195.5 -76t71.5 -195q0 -149 -100.5 -252.5t-254.5 -103.5zM359 40q127 0 209 87t82 207q0 97 -58 161t-160 64q-127 0 -208.5 -87t-81.5 -208 q0 -97 57.5 -160.5t159.5 -63.5z" />
<glyph unicode="&#xd3;" horiz-adv-x="708" d="M561 785l-104 -147h-35l2 11l68 147h70zM352 -14q-124 0 -196.5 76.5t-72.5 194.5q0 150 101.5 253t255.5 103q124 0 195.5 -76t71.5 -195q0 -149 -100.5 -252.5t-254.5 -103.5zM359 40q127 0 209 87t82 207q0 97 -58 161t-160 64q-127 0 -208.5 -87t-81.5 -208 q0 -97 57.5 -160.5t159.5 -63.5z" />
<glyph unicode="&#xd4;" horiz-adv-x="708" d="M547 638l-89 111l-122 -111h-36l2 11l130 147h63l90 -147l-2 -11h-36zM352 -14q-124 0 -196.5 76.5t-72.5 194.5q0 150 101.5 253t255.5 103q124 0 195.5 -76t71.5 -195q0 -149 -100.5 -252.5t-254.5 -103.5zM359 40q127 0 209 87t82 207q0 97 -58 161t-160 64 q-127 0 -208.5 -87t-81.5 -208q0 -97 57.5 -160.5t159.5 -63.5z" />
<glyph unicode="&#xd5;" horiz-adv-x="708" d="M352 -14q-124 0 -196.5 76.5t-72.5 194.5q0 150 101.5 253t255.5 103q124 0 195.5 -76t71.5 -195q0 -149 -100.5 -252.5t-254.5 -103.5zM359 40q127 0 209 87t82 207q0 97 -58 161t-160 64q-127 0 -208.5 -87t-81.5 -208q0 -97 57.5 -160.5t159.5 -63.5zM512 665 q-29 0 -67 25t-56 25q-33 0 -46 -37l-5 -14l-40 5l8 22q25 68 85 68q28 0 66 -24.5t56 -24.5q32 0 47 37l5 12l39 -4l-7 -21q-23 -69 -85 -69z" />
<glyph unicode="&#xd6;" horiz-adv-x="708" d="M321 700q0 17 13.5 30t30.5 13q15 0 24.5 -10t9.5 -25q0 -17 -14 -30t-31 -13q-14 0 -23.5 10.5t-9.5 24.5zM499 700q0 17 13.5 30t30.5 13q15 0 24.5 -10t9.5 -25q0 -17 -14 -30t-31 -13q-14 0 -23.5 10.5t-9.5 24.5zM352 -14q-124 0 -196.5 76.5t-72.5 194.5 q0 150 101.5 253t255.5 103q124 0 195.5 -76t71.5 -195q0 -149 -100.5 -252.5t-254.5 -103.5zM359 40q127 0 209 87t82 207q0 97 -58 161t-160 64q-127 0 -208.5 -87t-81.5 -208q0 -97 57.5 -160.5t159.5 -63.5z" />
<glyph unicode="&#xd7;" horiz-adv-x="517" d="M113 109l-29 34l183 160l-138 161l39 34l138 -161l183 161l29 -34l-183 -161l138 -160l-39 -34l-138 160z" />
<glyph unicode="&#xd8;" horiz-adv-x="706" d="M352 -14q-125 0 -198 78l-73 -63l-28 34l73 63q-43 68 -43 159q0 150 101.5 253t255.5 103q122 0 195 -76l65 55l29 -34l-66 -57q44 -67 44 -159q0 -149 -100.5 -252.5t-254.5 -103.5zM359 40q127 0 209 87t82 207q0 71 -34 127l-417 -358q60 -63 160 -63zM142 264 q0 -71 31 -125l416 358q-60 62 -157 62q-127 0 -208.5 -87t-81.5 -208z" />
<glyph unicode="&#xd9;" horiz-adv-x="657" d="M326 -14q-116 0 -172 72t-39 192l49 350h57l-49 -350q-13 -95 28.5 -152.5t133.5 -57.5q93 0 150.5 57.5t70.5 152.5l49 350h56l-49 -350q-17 -121 -92.5 -192.5t-192.5 -71.5zM408 638l-62 147l2 11h70l27 -147l-2 -11h-35z" />
<glyph unicode="&#xda;" horiz-adv-x="657" d="M540 785l-104 -147h-35l2 11l68 147h70zM326 -14q-116 0 -172 72t-39 192l49 350h57l-49 -350q-13 -95 28.5 -152.5t133.5 -57.5q93 0 150.5 57.5t70.5 152.5l49 350h56l-49 -350q-17 -121 -92.5 -192.5t-192.5 -71.5z" />
<glyph unicode="&#xdb;" horiz-adv-x="657" d="M524 638l-89 111l-122 -111h-36l2 11l130 147h63l90 -147l-2 -11h-36zM326 -14q-116 0 -172 72t-39 192l49 350h57l-49 -350q-13 -95 28.5 -152.5t133.5 -57.5q93 0 150.5 57.5t70.5 152.5l49 350h56l-49 -350q-17 -121 -92.5 -192.5t-192.5 -71.5z" />
<glyph unicode="&#xdc;" horiz-adv-x="657" d="M297 702q0 17 13.5 30t30.5 13q15 0 24.5 -10t9.5 -25q0 -17 -14 -30t-31 -13q-14 0 -23.5 10.5t-9.5 24.5zM475 702q0 17 13.5 30t30.5 13q15 0 24.5 -10t9.5 -25q0 -17 -14 -30t-31 -13q-14 0 -23.5 10.5t-9.5 24.5zM326 -14q-116 0 -172 72t-39 192l49 350h57 l-49 -350q-13 -95 28.5 -152.5t133.5 -57.5q93 0 150.5 57.5t70.5 152.5l49 350h56l-49 -350q-17 -121 -92.5 -192.5t-192.5 -71.5z" />
<glyph unicode="&#xdd;" horiz-adv-x="540" d="M335 317l216 283h66l-287 -370l-32 -230h-57l32 230l-182 370h67l138 -283l11 -31h7zM468 785l-104 -147h-35l2 11l68 147h70z" />
<glyph unicode="&#xde;" horiz-adv-x="597" d="M230 600l-14 -100h183q102 0 157 -43.5t55 -125.5q0 -112 -73 -173.5t-199 -61.5h-180l-13 -96h-57l84 600h57zM552 322q0 62 -42.5 93.5t-118.5 31.5h-183l-41 -297h182q95 0 149 42.5t54 129.5z" />
<glyph unicode="&#xdf;" horiz-adv-x="462" d="M231 162l133 139h-203l-42 -301h-56l65 463q23 168 174 168q17 0 33 -4t24 -8l8 -4l-23 -47q-21 12 -46 12q-97 0 -113 -113l-17 -120h294l-2 -12l-152 -158q58 -4 93 -33.5t35 -83.5q0 -74 -53.5 -119.5t-137.5 -45.5q-32 0 -58 5t-36 10l-10 5l19 41q34 -15 92 -15 q53 0 88.5 32t35.5 81q0 40 -28 62.5t-75 22.5h-45z" />
<glyph unicode="&#xe0;" horiz-adv-x="422" d="M43 90q0 51 44.5 85t126.5 34q80 0 118 -35h4l4 25q8 52 -17.5 79.5t-90.5 27.5q-29 0 -56 -7t-40 -14l-12 -7l-15 43q47 33 141 33q85 0 119 -44t24 -118l-27 -192h-40v45h-4q-8 -10 -21.5 -20t-47.5 -21.5t-76 -11.5q-66 0 -100 27.5t-34 70.5zM100 96q0 -28 23.5 -45 t70.5 -17q52 0 91.5 25t39.5 51t-32 43t-80 17q-54 0 -83.5 -20.5t-29.5 -53.5zM242 419l-62 147l2 11h70l27 -147l-2 -11h-35z" />
<glyph unicode="&#xe1;" horiz-adv-x="422" d="M43 90q0 51 44.5 85t126.5 34q80 0 118 -35h4l4 25q8 52 -17.5 79.5t-90.5 27.5q-29 0 -56 -7t-40 -14l-12 -7l-15 43q47 33 141 33q85 0 119 -44t24 -118l-27 -192h-40v45h-4q-8 -10 -21.5 -20t-47.5 -21.5t-76 -11.5q-66 0 -100 27.5t-34 70.5zM100 96q0 -28 23.5 -45 t70.5 -17q52 0 91.5 25t39.5 51t-32 43t-80 17q-54 0 -83.5 -20.5t-29.5 -53.5zM380 566l-104 -147h-35l2 11l68 147h70z" />
<glyph unicode="&#xe2;" horiz-adv-x="422" d="M43 90q0 51 44.5 85t126.5 34q80 0 118 -35h4l4 25q8 52 -17.5 79.5t-90.5 27.5q-29 0 -56 -7t-40 -14l-12 -7l-15 43q47 33 141 33q85 0 119 -44t24 -118l-27 -192h-40v45h-4q-8 -10 -21.5 -20t-47.5 -21.5t-76 -11.5q-66 0 -100 27.5t-34 70.5zM100 96q0 -28 23.5 -45 t70.5 -17q52 0 91.5 25t39.5 51t-32 43t-80 17q-54 0 -83.5 -20.5t-29.5 -53.5zM368 419l-89 111l-122 -111h-36l2 11l130 147h63l90 -147l-2 -11h-36z" />
<glyph unicode="&#xe3;" horiz-adv-x="422" d="M43 90q0 51 44.5 85t126.5 34q80 0 118 -35h4l4 25q8 52 -17.5 79.5t-90.5 27.5q-29 0 -56 -7t-40 -14l-12 -7l-15 43q47 33 141 33q85 0 119 -44t24 -118l-27 -192h-40v45h-4q-8 -10 -21.5 -20t-47.5 -21.5t-76 -11.5q-66 0 -100 27.5t-34 70.5zM100 96q0 -28 23.5 -45 t70.5 -17q52 0 91.5 25t39.5 51t-32 43t-80 17q-54 0 -83.5 -20.5t-29.5 -53.5zM331 445q-29 0 -67 25t-56 25q-33 0 -46 -37l-5 -14l-40 5l8 22q25 68 85 68q28 0 66 -24.5t56 -24.5q32 0 47 37l5 12l39 -4l-7 -21q-23 -69 -85 -69z" />
<glyph unicode="&#xe4;" horiz-adv-x="422" d="M43 90q0 51 44.5 85t126.5 34q80 0 118 -35h4l4 25q8 52 -17.5 79.5t-90.5 27.5q-29 0 -56 -7t-40 -14l-12 -7l-15 43q47 33 141 33q85 0 119 -44t24 -118l-27 -192h-40v45h-4q-8 -10 -21.5 -20t-47.5 -21.5t-76 -11.5q-66 0 -100 27.5t-34 70.5zM100 96q0 -28 23.5 -45 t70.5 -17q52 0 91.5 25t39.5 51t-32 43t-80 17q-54 0 -83.5 -20.5t-29.5 -53.5zM139 479q0 17 13.5 30t30.5 13q15 0 24.5 -10t9.5 -25q0 -17 -14 -30t-31 -13q-14 0 -23.5 10.5t-9.5 24.5zM317 479q0 17 13.5 30t30.5 13q15 0 24.5 -10t9.5 -25q0 -17 -14 -30t-31 -13 q-14 0 -23.5 10.5t-9.5 24.5z" />
<glyph unicode="&#xe5;" horiz-adv-x="422" d="M43 90q0 51 44.5 85t126.5 34q80 0 118 -35h4l4 25q8 52 -17.5 79.5t-90.5 27.5q-29 0 -56 -7t-40 -14l-12 -7l-15 43q47 33 141 33q85 0 119 -44t24 -118l-27 -192h-40v45h-4q-8 -10 -21.5 -20t-47.5 -21.5t-76 -11.5q-66 0 -100 27.5t-34 70.5zM100 96q0 -28 23.5 -45 t70.5 -17q52 0 91.5 25t39.5 51t-32 43t-80 17q-54 0 -83.5 -20.5t-29.5 -53.5zM264 433q-34 0 -56.5 22t-22.5 55q0 41 30.5 70t72.5 29q36 0 57.5 -21.5t21.5 -55.5q0 -41 -30 -70t-73 -29zM328 529q0 20 -12 31.5t-33 11.5q-26 0 -42.5 -16.5t-16.5 -41.5q0 -20 12 -32 t33 -12q27 0 43 16.5t16 42.5z" />
<glyph unicode="&#xe6;" horiz-adv-x="694" d="M626 67l15 -38q-52 -38 -136 -38q-103 0 -148 75q-60 -74 -176 -74q-69 0 -103.5 28t-34.5 71q0 51 43.5 84t119.5 33q87 0 123 -36h5l3 23q15 113 -105 113q-29 0 -56.5 -7t-41.5 -13l-13 -7l-13 42q56 31 141 31q105 0 135 -70q62 70 157 70q78 0 113.5 -46t31.5 -125 l-2 -18h-292v-12q0 -55 33.5 -85.5t86.5 -30.5q31 0 59.5 7.5t41.5 15.5zM97 95q0 -60 96 -60q51 0 91.5 22.5t40.5 50.5q0 26 -34 43t-80 17q-114 0 -114 -73zM534 308q-49 0 -85.5 -27.5t-50.5 -75.5h236q3 45 -23 74t-77 29z" />
<glyph unicode="&#xe7;" horiz-adv-x="365" d="M183 -60l-12 17l24 37q-62 8 -99 49.5t-37 104.5q0 89 62.5 147.5t153.5 58.5q32 0 59 -7.5t38 -14.5l11 -8l-23 -43q-32 25 -89 25q-62 0 -108 -42.5t-46 -109.5q0 -52 33 -83t84 -31q25 0 49 6t35 12l12 7l10 -43q-41 -28 -110 -30l-14 -22q27 0 44 -13.5t17 -39.5 q0 -34 -24.5 -56t-66.5 -22q-21 0 -37 6.5t-22 12.5l-6 7l18 26q19 -21 52 -21q24 0 37.5 11t13.5 31q0 32 -39 32z" />
<glyph unicode="&#xe8;" horiz-adv-x="416" d="M349 69l14 -39q-6 -4 -16.5 -10.5t-45.5 -17.5t-72 -11q-78 0 -124 43t-46 114q0 89 59.5 147.5t146.5 58.5q80 0 119.5 -48.5t25.5 -122.5l-3 -19h-292v-11q0 -54 34 -84.5t87 -30.5q31 0 59 8t41 16zM257 308q-48 0 -84.5 -27t-50.5 -74h235q0 45 -26 73t-74 28z M255 419l-62 147l2 11h70l27 -147l-2 -11h-35z" />
<glyph unicode="&#xe9;" horiz-adv-x="416" d="M389 566l-104 -147h-35l2 11l68 147h70zM349 69l14 -39q-6 -4 -16.5 -10.5t-45.5 -17.5t-72 -11q-78 0 -124 43t-46 114q0 89 59.5 147.5t146.5 58.5q80 0 119.5 -48.5t25.5 -122.5l-3 -19h-292v-11q0 -54 34 -84.5t87 -30.5q31 0 59 8t41 16zM257 308q-48 0 -84.5 -27 t-50.5 -74h235q0 45 -26 73t-74 28z" />
<glyph unicode="&#xea;" horiz-adv-x="416" d="M382 419l-89 111l-122 -111h-36l2 11l130 147h63l90 -147l-2 -11h-36zM349 69l14 -39q-6 -4 -16.5 -10.5t-45.5 -17.5t-72 -11q-78 0 -124 43t-46 114q0 89 59.5 147.5t146.5 58.5q80 0 119.5 -48.5t25.5 -122.5l-3 -19h-292v-11q0 -54 34 -84.5t87 -30.5q31 0 59 8 t41 16zM257 308q-48 0 -84.5 -27t-50.5 -74h235q0 45 -26 73t-74 28z" />
<glyph unicode="&#xeb;" horiz-adv-x="416" d="M156 479q0 17 13.5 30t30.5 13q15 0 24.5 -10t9.5 -25q0 -17 -14 -30t-31 -13q-14 0 -23.5 10.5t-9.5 24.5zM334 479q0 17 13.5 30t30.5 13q15 0 24.5 -10t9.5 -25q0 -17 -14 -30t-31 -13q-14 0 -23.5 10.5t-9.5 24.5zM349 69l14 -39q-6 -4 -16.5 -10.5t-45.5 -17.5 t-72 -11q-78 0 -124 43t-46 114q0 89 59.5 147.5t146.5 58.5q80 0 119.5 -48.5t25.5 -122.5l-3 -19h-292v-11q0 -54 34 -84.5t87 -30.5q31 0 59 8t41 16zM257 308q-48 0 -84.5 -27t-50.5 -74h235q0 45 -26 73t-74 28z" />
<glyph unicode="&#xec;" horiz-adv-x="186" d="M65 0l49 346h56l-49 -346h-56zM131 419l-62 147l2 11h70l27 -147l-2 -11h-35z" />
<glyph unicode="&#xed;" horiz-adv-x="186" d="M276 566l-104 -147h-35l2 11l68 147h70zM65 0l49 346h56l-49 -346h-56z" />
<glyph unicode="&#xee;" horiz-adv-x="186" d="M258 419l-89 111l-122 -111h-36l2 11l130 147h63l90 -147l-2 -11h-36zM65 0l49 346h56l-49 -346h-56z" />
<glyph unicode="&#xef;" horiz-adv-x="186" d="M35 479q0 17 13.5 30t30.5 13q15 0 24.5 -10t9.5 -25q0 -17 -14 -30t-31 -13q-14 0 -23.5 10.5t-9.5 24.5zM213 479q0 17 13.5 30t30.5 13q15 0 24.5 -10t9.5 -25q0 -17 -14 -30t-31 -13q-14 0 -23.5 10.5t-9.5 24.5zM65 0l49 346h56l-49 -346h-56z" />
<glyph unicode="&#xf0;" horiz-adv-x="473" d="M171 396l-16 34l125 66l-49 95l1 9h53l41 -80l111 59l15 -34l-109 -58l85 -161q35 -70 35 -119q0 -97 -65 -157.5t-164 -60.5q-79 0 -127 43.5t-48 115.5q0 86 64.5 145t164.5 59q41 0 75 -13q-3 3 -28 51l-38 73zM241 37q64 0 113.5 44.5t49.5 110.5q0 52 -35 82t-87 30 q-70 0 -117.5 -43.5t-47.5 -105.5q0 -52 34.5 -85t89.5 -33z" />
<glyph unicode="&#xf1;" horiz-adv-x="455" d="M148 205l-29 -205h-56l49 346h39l-1 -56h3q52 64 141 64q72 0 106.5 -43.5t24.5 -115.5l-27 -195h-56l26 188q8 53 -16 85.5t-77 32.5q-54 0 -88 -32.5t-39 -68.5zM351 445q-29 0 -67 25t-56 25q-33 0 -46 -37l-5 -14l-40 5l8 22q25 68 85 68q28 0 66 -24.5t56 -24.5 q32 0 47 37l5 12l39 -4l-7 -21q-23 -69 -85 -69z" />
<glyph unicode="&#xf2;" d="M436 195q0 -90 -63 -146.5t-151 -56.5q-72 0 -117.5 42.5t-45.5 113.5q0 90 63.5 148t150.5 58q71 0 117 -44t46 -115zM228 38q62 0 107.5 42t45.5 110q0 53 -32.5 85.5t-82.5 32.5q-60 0 -105 -43.5t-45 -111.5q0 -53 31.5 -84t80.5 -31zM272 419l-62 147l2 11h70 l27 -147l-2 -11h-35z" />
<glyph unicode="&#xf3;" d="M397 566l-104 -147h-35l2 11l68 147h70zM436 195q0 -90 -63 -146.5t-151 -56.5q-72 0 -117.5 42.5t-45.5 113.5q0 90 63.5 148t150.5 58q71 0 117 -44t46 -115zM228 38q62 0 107.5 42t45.5 110q0 53 -32.5 85.5t-82.5 32.5q-60 0 -105 -43.5t-45 -111.5q0 -53 31.5 -84 t80.5 -31z" />
<glyph unicode="&#xf4;" d="M387 419l-89 111l-122 -111h-36l2 11l130 147h63l90 -147l-2 -11h-36zM436 195q0 -90 -63 -146.5t-151 -56.5q-72 0 -117.5 42.5t-45.5 113.5q0 90 63.5 148t150.5 58q71 0 117 -44t46 -115zM228 38q62 0 107.5 42t45.5 110q0 53 -32.5 85.5t-82.5 32.5q-60 0 -105 -43.5 t-45 -111.5q0 -53 31.5 -84t80.5 -31z" />
<glyph unicode="&#xf5;" d="M436 195q0 -90 -63 -146.5t-151 -56.5q-72 0 -117.5 42.5t-45.5 113.5q0 90 63.5 148t150.5 58q71 0 117 -44t46 -115zM228 38q62 0 107.5 42t45.5 110q0 53 -32.5 85.5t-82.5 32.5q-60 0 -105 -43.5t-45 -111.5q0 -53 31.5 -84t80.5 -31zM354 445q-29 0 -67 25t-56 25 q-33 0 -46 -37l-5 -14l-40 5l8 22q25 68 85 68q28 0 66 -24.5t56 -24.5q32 0 47 37l5 12l39 -4l-7 -21q-23 -69 -85 -69z" />
<glyph unicode="&#xf6;" d="M160 479q0 17 13.5 30t30.5 13q15 0 24.5 -10t9.5 -25q0 -17 -14 -30t-31 -13q-14 0 -23.5 10.5t-9.5 24.5zM338 479q0 17 13.5 30t30.5 13q15 0 24.5 -10t9.5 -25q0 -17 -14 -30t-31 -13q-14 0 -23.5 10.5t-9.5 24.5zM436 195q0 -90 -63 -146.5t-151 -56.5 q-72 0 -117.5 42.5t-45.5 113.5q0 90 63.5 148t150.5 58q71 0 117 -44t46 -115zM228 38q62 0 107.5 42t45.5 110q0 53 -32.5 85.5t-82.5 32.5q-60 0 -105 -43.5t-45 -111.5q0 -53 31.5 -84t80.5 -31z" />
<glyph unicode="&#xf7;" horiz-adv-x="510" d="M232 150q0 20 15.5 34.5t35.5 14.5q16 0 27 -11t11 -28q0 -19 -15 -33.5t-35 -14.5q-16 0 -27.5 11t-11.5 27zM273 438q0 19 15 33.5t35 14.5q16 0 27 -11t11 -27q0 -20 -15 -34.5t-35 -14.5q-16 0 -27 11t-11 28zM102 272l7 48h382l-7 -48h-382z" />
<glyph unicode="&#xf8;" d="M436 195q0 -90 -63 -146.5t-151 -56.5q-69 0 -114 39l-46 -40l-20 24l45 39q-28 39 -28 94q0 90 63.5 148t150.5 58q64 0 110 -38l49 43l20 -24l-48 -41q32 -42 32 -99zM228 38q62 0 107.5 42t45.5 110q0 38 -19 68l-214 -189q31 -31 80 -31zM116 153q0 -35 14 -61 l214 188q-33 28 -78 28q-60 0 -105 -43.5t-45 -111.5z" />
<glyph unicode="&#xf9;" horiz-adv-x="451" d="M353 141l29 205h56l-49 -346h-37l-2 55h-3q-7 -10 -18.5 -21.5t-46 -26.5t-76.5 -15q-71 0 -104.5 43.5t-23.5 115.5l27 195h56l-26 -188q-8 -53 14.5 -85.5t75.5 -32.5q54 0 88.5 32.5t39.5 68.5zM265 419l-62 147l2 11h70l27 -147l-2 -11h-35z" />
<glyph unicode="&#xfa;" horiz-adv-x="451" d="M399 566l-104 -147h-35l2 11l68 147h70zM353 141l29 205h56l-49 -346h-37l-2 55h-3q-7 -10 -18.5 -21.5t-46 -26.5t-76.5 -15q-71 0 -104.5 43.5t-23.5 115.5l27 195h56l-26 -188q-8 -53 14.5 -85.5t75.5 -32.5q54 0 88.5 32.5t39.5 68.5z" />
<glyph unicode="&#xfb;" horiz-adv-x="451" d="M385 419l-89 111l-122 -111h-36l2 11l130 147h63l90 -147l-2 -11h-36zM353 141l29 205h56l-49 -346h-37l-2 55h-3q-7 -10 -18.5 -21.5t-46 -26.5t-76.5 -15q-71 0 -104.5 43.5t-23.5 115.5l27 195h56l-26 -188q-8 -53 14.5 -85.5t75.5 -32.5q54 0 88.5 32.5t39.5 68.5z " />
<glyph unicode="&#xfc;" horiz-adv-x="451" d="M163 479q0 17 13.5 30t30.5 13q15 0 24.5 -10t9.5 -25q0 -17 -14 -30t-31 -13q-14 0 -23.5 10.5t-9.5 24.5zM341 479q0 17 13.5 30t30.5 13q15 0 24.5 -10t9.5 -25q0 -17 -14 -30t-31 -13q-14 0 -23.5 10.5t-9.5 24.5zM353 141l29 205h56l-49 -346h-37l-2 55h-3 q-7 -10 -18.5 -21.5t-46 -26.5t-76.5 -15q-71 0 -104.5 43.5t-23.5 115.5l27 195h56l-26 -188q-8 -53 14.5 -85.5t75.5 -32.5q54 0 88.5 32.5t39.5 68.5z" />
<glyph unicode="&#xfd;" horiz-adv-x="405" d="M440 346l-333 -538h-59l131 207l-115 331h62l82 -250q5 -13 5 -30h3q2 11 10 24l156 256h58zM377 566l-104 -147h-35l2 11l68 147h70z" />
<glyph unicode="&#xfe;" horiz-adv-x="468" d="M131 71h-3l-37 -263h-56l111 792h56l-45 -323h3q2 3 5.5 8.5t16 18.5t28 23t42 18.5t55.5 8.5q66 0 108 -43t42 -113q0 -89 -59.5 -147.5t-141.5 -58.5q-30 0 -54 8t-36.5 19.5t-21 23.5t-10.5 20zM139 154q0 -53 32 -83.5t81 -30.5q61 0 104.5 43t43.5 108q0 51 -31 83 t-80 32q-61 0 -105.5 -42t-44.5 -110z" />
<glyph unicode="&#xff;" horiz-adv-x="405" d="M440 346l-333 -538h-59l131 207l-115 331h62l82 -250q5 -13 5 -30h3q2 11 10 24l156 256h58zM145 479q0 17 13.5 30t30.5 13q15 0 24.5 -10t9.5 -25q0 -17 -14 -30t-31 -13q-14 0 -23.5 10.5t-9.5 24.5zM323 479q0 17 13.5 30t30.5 13q15 0 24.5 -10t9.5 -25 q0 -17 -14 -30t-31 -13q-14 0 -23.5 10.5t-9.5 24.5z" />
<glyph unicode="&#x152;" horiz-adv-x="1078" d="M349 -14q-124 0 -196.5 76.5t-72.5 194.5q0 150 101.5 253t255.5 103q165 0 234 -131l17 118h434l-7 -53h-378l-31 -225h332l-7 -53h-333l-30 -216h377l-7 -53h-434l15 106q-102 -120 -270 -120zM356 40q127 0 209 87t82 207q0 97 -58 161t-160 64q-127 0 -208.5 -87 t-81.5 -208q0 -97 57.5 -160.5t159.5 -63.5z" />
<glyph unicode="&#x153;" horiz-adv-x="735" d="M667 69l14 -39q-6 -4 -16.5 -10.5t-45.5 -17.5t-72 -11q-114 0 -154 83q-30 -39 -76 -60.5t-98 -21.5q-72 0 -117.5 42.5t-45.5 113.5q0 90 63.5 148t150.5 58q49 0 87.5 -22t58.5 -61q60 83 167 83q80 0 119.5 -48.5t25.5 -122.5l-3 -19h-292v-11q0 -54 34 -84.5 t87 -30.5q31 0 59 8t41 16zM225 38q62 0 107.5 42t45.5 110q0 53 -32.5 85.5t-82.5 32.5q-60 0 -105 -43.5t-45 -111.5q0 -53 31.5 -84t80.5 -31zM575 308q-48 0 -84.5 -27t-50.5 -74h235q0 45 -26 73t-74 28z" />
<glyph unicode="&#x178;" horiz-adv-x="540" d="M233 701q0 17 13.5 30t30.5 13q15 0 24.5 -10t9.5 -25q0 -17 -14 -30t-31 -13q-14 0 -23.5 10.5t-9.5 24.5zM411 701q0 17 13.5 30t30.5 13q15 0 24.5 -10t9.5 -25q0 -17 -14 -30t-31 -13q-14 0 -23.5 10.5t-9.5 24.5zM335 317l216 283h66l-287 -370l-32 -230h-57l32 230 l-182 370h67l138 -283l11 -31h7z" />
<glyph unicode="&#x2c6;" horiz-adv-x="329" d="M333 419l-89 111l-122 -111h-36l2 11l130 147h63l90 -147l-2 -11h-36z" />
<glyph unicode="&#x2dc;" horiz-adv-x="430" d="M340 445q-29 0 -67 25t-56 25q-33 0 -46 -37l-5 -14l-40 5l8 22q25 68 85 68q28 0 66 -24.5t56 -24.5q32 0 47 37l5 12l39 -4l-7 -21q-23 -69 -85 -69z" />
<glyph unicode="&#x2000;" horiz-adv-x="398" />
<glyph unicode="&#x2001;" horiz-adv-x="796" />
<glyph unicode="&#x2002;" horiz-adv-x="398" />
<glyph unicode="&#x2003;" horiz-adv-x="796" />
<glyph unicode="&#x2004;" horiz-adv-x="265" />
<glyph unicode="&#x2005;" horiz-adv-x="199" />
<glyph unicode="&#x2006;" horiz-adv-x="132" />
<glyph unicode="&#x2007;" horiz-adv-x="132" />
<glyph unicode="&#x2008;" horiz-adv-x="99" />
<glyph unicode="&#x2009;" horiz-adv-x="159" />
<glyph unicode="&#x200a;" horiz-adv-x="44" />
<glyph unicode="&#x2010;" horiz-adv-x="397" d="M95 271l7 48h283l-7 -48h-283z" />
<glyph unicode="&#x2011;" horiz-adv-x="397" d="M95 271l7 48h283l-7 -48h-283z" />
<glyph unicode="&#x2012;" horiz-adv-x="397" d="M95 271l7 48h283l-7 -48h-283z" />
<glyph unicode="&#x2013;" horiz-adv-x="457" d="M94 264l7 48h344l-7 -48h-344z" />
<glyph unicode="&#x2014;" horiz-adv-x="729" d="M94 264l7 48h616l-7 -48h-616z" />
<glyph unicode="&#x2018;" horiz-adv-x="184" d="M205 550q0 -19 -14.5 -33t-34.5 -14q-16 0 -26.5 10.5t-10.5 27.5q0 24 21 55l53 76h42l-47 -67l-15 -16v-3q14 -1 23 -11.5t9 -24.5z" />
<glyph unicode="&#x2019;" horiz-adv-x="184" d="M147 609q0 19 14.5 33t34.5 14q16 0 26.5 -10.5t10.5 -27.5q0 -24 -21 -55l-53 -76h-42l47 67l15 16v3q-14 1 -23 11.5t-9 24.5z" />
<glyph unicode="&#x201a;" horiz-adv-x="131" d="M27 28q0 19 14.5 33t34.5 14q16 0 26.5 -10.5t10.5 -27.5q0 -24 -21 -55l-53 -76h-42l47 67l15 16v3q-14 1 -23 11.5t-9 24.5z" />
<glyph unicode="&#x201c;" horiz-adv-x="355" d="M205 550q0 -19 -14.5 -33t-34.5 -14q-16 0 -26.5 10.5t-10.5 27.5q0 24 21 55l53 76h42l-47 -67l-15 -16v-3q14 -1 23 -11.5t9 -24.5zM377 550q0 -19 -14.5 -33t-34.5 -14q-16 0 -26.5 10.5t-10.5 27.5q0 24 21 55l53 76h42l-47 -67l-15 -16v-3q14 -1 23 -11.5t9 -24.5z " />
<glyph unicode="&#x201d;" horiz-adv-x="348" d="M143 609q0 19 14.5 33t34.5 14q16 0 26.5 -10.5t10.5 -27.5q0 -24 -21 -55l-53 -76h-42l47 67l15 16v3q-14 1 -23 11.5t-9 24.5zM307 609q0 19 14.5 33t34.5 14q16 0 26.5 -10.5t10.5 -27.5q0 -24 -21 -55l-53 -76h-42l47 67l15 16v3q-14 1 -23 11.5t-9 24.5z" />
<glyph unicode="&#x201e;" horiz-adv-x="358" d="M27 28q0 19 14.5 33t34.5 14q16 0 26.5 -10.5t10.5 -27.5q0 -24 -21 -55l-53 -76h-42l47 67l15 16v3q-14 1 -23 11.5t-9 24.5zM254 28q0 19 14.5 33t34.5 14q16 0 26.5 -10.5t10.5 -27.5q0 -24 -21 -55l-53 -76h-42l47 67l15 16v3q-14 1 -23 11.5t-9 24.5z" />
<glyph unicode="&#x2022;" horiz-adv-x="295" d="M104 165q0 30 23.5 52.5t54.5 22.5q24 0 40.5 -17.5t16.5 -42.5q0 -30 -23 -52t-53 -22q-26 0 -42.5 17t-16.5 42z" />
<glyph unicode="&#x2026;" horiz-adv-x="435" d="M29 30q0 21 15 35.5t36 14.5q16 0 27.5 -11t11.5 -28q0 -21 -15.5 -35.5t-35.5 -14.5q-18 0 -28.5 11t-10.5 28zM178 30q0 21 15 35.5t35 14.5q18 0 29 -11t11 -28q0 -21 -15.5 -35.5t-36.5 -14.5q-16 0 -27 11t-11 28zM328 30q0 21 15 35.5t35 14.5q18 0 29 -11t11 -28 q0 -21 -15.5 -35.5t-36.5 -14.5q-17 0 -27.5 11t-10.5 28z" />
<glyph unicode="&#x202f;" horiz-adv-x="159" />
<glyph unicode="&#x2039;" horiz-adv-x="241" d="M65 162l3 19l127 155h50l-1 -8l-126 -153l-1 -5l83 -155l-1 -8h-50z" />
<glyph unicode="&#x203a;" horiz-adv-x="241" d="M224 181l-2 -19l-128 -155h-50l1 8l127 155l1 5l-84 153l1 8h50z" />
<glyph unicode="&#x205f;" horiz-adv-x="199" />
<glyph unicode="&#x20ac;" horiz-adv-x="602" d="M456 251l-6 -46h-236q9 -72 53.5 -114.5t123.5 -42.5q40 0 76.5 15t52.5 29l16 15l27 -42q-7 -8 -21 -20t-61 -31.5t-99 -19.5q-104 0 -161 58t-67 153h-81l6 46h74q0 49 13 95h-73l6 47h81q35 96 109 155t179 59q33 0 62 -7.5t46.5 -17.5t30.5 -20.5t19 -17.5l5 -8 l-40 -42q-2 2 -5 6t-14.5 14t-25 17.5t-36.5 14t-48 6.5q-79 0 -135.5 -43t-86.5 -116h236l-6 -47h-246q-13 -46 -13 -95h245z" />
<glyph unicode="&#x2122;" horiz-adv-x="741" d="M434 281h-41l45 319h15l122 -132q42 34 160 132h14l-45 -319h-41l35 243l-123 -103h-13l-93 102zM372 600l-5 -37h-105l-40 -282h-42l40 282h-104l5 37h251z" />
<glyph unicode="&#x25fc;" horiz-adv-x="345" d="M0 345h345v-345h-345v345z" />
<glyph unicode="&#xfb01;" horiz-adv-x="524" d="M500 490q-14 0 -23.5 9.5t-9.5 23.5q0 18 13 31t31 13q15 0 24.5 -10t9.5 -24q0 -18 -13.5 -30.5t-31.5 -12.5zM403 0l49 346h56l-49 -346h-56zM332 301h-135l-42 -301h-56l42 301h-84l6 45h84l22 155q24 165 165 165q34 0 70 -18l-24 -47q-22 13 -46 13q-93 0 -109 -113 l-22 -155h135z" />
<glyph unicode="&#xfb02;" horiz-adv-x="515" d="M394 0l94 668h56l-94 -668h-56zM332 301h-135l-42 -301h-56l42 301h-84l6 45h84l22 155q24 165 165 165q34 0 70 -18l-24 -47q-22 13 -46 13q-93 0 -109 -113l-22 -155h135z" />
<glyph unicode="&#xfb03;" horiz-adv-x="864" d="M839 490q-14 0 -23.5 9.5t-9.5 23.5q0 18 13 31t31 13q15 0 24.5 -10t9.5 -24q0 -18 -13.5 -30.5t-31.5 -12.5zM742 0l49 346h56l-49 -346h-56zM332 301h-135l-42 -301h-56l42 301h-84l6 45h84l22 155q24 165 165 165q34 0 70 -18l-24 -47q-22 13 -46 13q-93 0 -109 -113 l-22 -155h135zM674 301h-135l-42 -301h-56l42 301h-84l6 45h84l22 155q24 165 165 165q34 0 70 -18l-24 -47q-22 13 -46 13q-93 0 -109 -113l-22 -155h135z" />
<glyph unicode="&#xfb04;" horiz-adv-x="853" d="M732 0l94 668h56l-94 -668h-56zM332 301h-135l-42 -301h-56l42 301h-84l6 45h84l22 155q24 165 165 165q34 0 70 -18l-24 -47q-22 13 -46 13q-93 0 -109 -113l-22 -155h135zM674 301h-135l-42 -301h-56l42 301h-84l6 45h84l22 155q24 165 165 165q34 0 70 -18l-24 -47 q-22 13 -46 13q-93 0 -109 -113l-22 -155h135z" />
</font>
</defs>
</svg>
