<?xml version="1.0" standalone="no"?>
<!DOCTYPE svg PUBLIC "-//W3C//DTD SVG 1.1//EN" "http://www.w3.org/Graphics/SVG/1.1/DTD/svg11.dtd" >
<svg xmlns="http://www.w3.org/2000/svg" xmlns:xlink="http://www.w3.org/1999/xlink" version="1.1">
<metadata></metadata>
<defs>
<font id="mucho_sansblack" horiz-adv-x="584" >
<font-face units-per-em="1000" ascent="750" descent="-250" />
<missing-glyph horiz-adv-x="250" />
<glyph unicode="fi" horiz-adv-x="582" d="M515 0h-149v373h-145v-373h-148v373h-57v118h57v26c0 121 101 173 187 173c8 0 19 0 48 -5v-123c-32 0 -87 -1 -87 -45v-26h294v-491zM356 608c0 43 38 82 84 82c47 0 85 -39 85 -82c0 -46 -38 -84 -85 -84c-46 0 -84 38 -84 84z" />
<glyph unicode="ffi" horiz-adv-x="878" d="M811 0h-149v373h-145v-373h-149v373h-145v-373h-150v373h-56v118h56v25c0 121 102 173 188 173c8 0 19 0 48 -5v-123c-32 0 -86 -1 -86 -45v-25h145v25c0 121 102 173 188 173c8 0 19 0 47 -5v-123c-31 0 -86 -1 -86 -45v-25h294v-491zM652 608c0 43 38 82 84 82 c47 0 85 -39 85 -82c0 -46 -38 -84 -85 -84c-46 0 -84 38 -84 84z" />
<glyph unicode="ffl" horiz-adv-x="888" d="M367 491v22c0 123 101 177 198 177c24 0 41 -2 68 -8v-120h-55c-27 0 -60 -19 -60 -49v-22h115v-118h-115v-373h-151v373h-145v-373h-149v373h-57v118h57v26c0 121 101 173 187 173c8 0 19 0 48 -5v-123c-32 0 -86 -1 -86 -35v-36h145zM813 680v-680h-150v680h150z" />
<glyph unicode="ff" horiz-adv-x="599" d="M602 685v-123c-32 0 -86 -1 -86 -45v-26h72v-118h-72v-373h-149v373h-145v-373h-149v373h-56v118h56v26c0 121 102 173 188 173c8 0 18 0 47 -5v-123c-32 0 -86 -1 -86 -45v-26h145v26c0 121 101 173 187 173c8 0 19 0 48 -5z" />
<glyph unicode="fl" horiz-adv-x="583" d="M73 491v22c0 123 101 177 197 177c24 0 42 -4 69 -12v-125c-18 3 -40 9 -55 9c-26 0 -62 -19 -62 -49v-22h117v-118h-117l-1 -373h-148v373h-56v118h56zM516 680v-680h-149v680h149z" />
<glyph unicode="B" horiz-adv-x="609" d="M87 680h216c151 0 234 -75 234 -190c0 -48 -35 -96 -84 -113c55 -9 119 -76 119 -157c0 -124 -102 -220 -229 -220h-256v680zM241 534v-99h88c42 0 55 30 55 52c0 11 -13 47 -55 47h-88zM241 290v-145h102c43 0 76 25 76 76c0 45 -37 69 -75 69h-103z" />
<glyph unicode="C" horiz-adv-x="656" d="M199 340c0 -118 65 -206 148 -206c48 0 115 28 161 106l116 -84c-81 -116 -177 -166 -277 -166c-172 0 -310 148 -310 350s138 350 310 350c100 0 196 -51 277 -166l-116 -84c-47 76 -112 106 -161 106c-83 0 -148 -88 -148 -206z" />
<glyph unicode="D" horiz-adv-x="641" d="M87 680h184c209 0 333 -126 333 -341s-124 -339 -333 -339h-184v680zM243 535v-390h28c98 0 171 56 171 194c0 140 -73 196 -171 196h-28z" />
<glyph unicode="E" horiz-adv-x="549" d="M502 535h-259v-95h236v-145h-236v-150h259v-145h-415v680h415v-145z" />
<glyph unicode="F" horiz-adv-x="520" d="M483 535h-241v-100h216v-145h-216v-290h-155v680h396v-145z" />
<glyph unicode="G" horiz-adv-x="668" d="M641 545l-115 -88c-46 66 -97 80 -153 80c-84 0 -173 -63 -173 -196c0 -130 65 -206 165 -206c31 0 74 4 111 18v98h-165v145h323l-1 -317c-84 -63 -179 -89 -252 -89c-187 0 -344 126 -344 350c0 216 167 350 336 350c97 0 200 -44 268 -145z" />
<glyph unicode="H" horiz-adv-x="673" d="M586 0h-156v295h-187v-295h-156v680h156v-240h187v240h156v-680z" />
<glyph unicode="I" horiz-adv-x="329" d="M242 0h-155v680h155v-680z" />
<glyph unicode="J" horiz-adv-x="560" d="M126 535v145h357v-460c0 -149 -87 -230 -225 -230c-164 0 -231 127 -231 277h157c0 -98 34 -132 72 -132s70 31 70 75v325h-200z" />
<glyph unicode="K" horiz-adv-x="724" d="M244 680v-223l254 223h209l-359 -309l359 -371h-206l-257 273v-273h-157v680h157z" />
<glyph unicode="L" horiz-adv-x="546" d="M243 145h286v-145h-442v680h156v-535z" />
<glyph unicode="M" horiz-adv-x="844" d="M473 0h-101l-116 372l-34 -372h-155l56 680h165l135 -382c43 126 89 256 132 382h166l56 -680h-157l-31 372c-22 -61 -45 -165 -116 -372z" />
<glyph unicode="N" horiz-adv-x="671" d="M584 0h-133l-210 371v-371h-154v680h135l208 -381v381h154v-680z" />
<glyph unicode="O" horiz-adv-x="699" d="M347 690c175 0 315 -157 315 -350c0 -191 -140 -350 -315 -350c-172 0 -310 159 -310 350c0 193 138 350 310 350zM347 543c-83 0 -147 -90 -147 -203c0 -114 64 -203 147 -203c86 0 152 89 152 203c0 113 -66 203 -152 203z" />
<glyph unicode="P" horiz-adv-x="570" d="M87 680h238c145 0 223 -103 223 -209c0 -105 -78 -208 -223 -208h-84v-263h-154v680zM241 535v-128h84c43 0 60 36 60 64c0 27 -17 64 -60 64h-84z" />
<glyph unicode="Q" horiz-adv-x="699" d="M655 67l-3 -131c-109 2 -233 22 -370 64c-140 33 -245 173 -245 340c0 193 138 350 310 350c175 0 315 -157 315 -350c0 -103 -40 -195 -104 -258c26 -5 57 -10 97 -15zM347 545c-83 0 -147 -92 -147 -205c0 -114 64 -202 147 -202c86 0 152 88 152 202 c0 113 -66 205 -152 205z" />
<glyph unicode="R" horiz-adv-x="610" d="M87 680h221c144 0 225 -103 225 -209c0 -64 -30 -124 -85 -161l145 -310h-163l-123 271h-64v-271h-156v680zM243 535v-120h65c44 0 62 31 62 56c0 27 -18 64 -62 64h-65z" />
<glyph unicode="S" horiz-adv-x="569" d="M37 66l76 119c60 -35 130 -50 167 -50c49 0 89 23 89 57c0 25 -13 55 -106 90c-129 48 -207 82 -207 199c0 111 81 209 242 209c79 0 151 -35 209 -67l-63 -129c-32 22 -91 51 -146 51c-41 0 -90 -14 -90 -54c0 -31 36 -46 108 -74c97 -37 216 -86 216 -215 c0 -110 -103 -212 -252 -212c-95 0 -191 44 -243 76z" />
<glyph unicode="T" horiz-adv-x="513" d="M516 535h-181v-535h-156v535h-182v145h519v-145z" />
<glyph unicode="U" horiz-adv-x="691" d="M614 680v-380c0 -205 -106 -310 -274 -310c-175 0 -263 110 -263 310v380h156v-380c0 -161 92 -165 107 -165c21 0 117 3 117 165v380h157z" />
<glyph unicode="V" horiz-adv-x="612" d="M305 263l147 417h163l-257 -680h-107l-254 680h163z" />
<glyph unicode="W" horiz-adv-x="857" d="M390 680h78l92 -417l107 417h153l-193 -680h-112l-87 318l-87 -318h-111l-193 680h152l106 -417z" />
<glyph unicode="X" horiz-adv-x="733" d="M365 222l-156 -222h-172l242 341c-79 112 -162 228 -242 339h174l154 -220l158 220h173l-241 -339l241 -341h-171z" />
<glyph unicode="Y" horiz-adv-x="645" d="M244 324l-250 356h172l156 -225l155 225h171l-247 -356v-324h-157v324z" />
<glyph unicode="Z" horiz-adv-x="591" d="M554 538l-345 -393h345v-145h-517v142l345 393h-345v145h517v-142z" />
<glyph unicode="!" horiz-adv-x="351" d="M256 197h-158v483h158v-483zM176 158c49 0 88 -38 88 -86c0 -46 -39 -82 -88 -82c-51 0 -89 36 -89 82c0 48 38 86 89 86z" />
<glyph unicode="&#x22;" horiz-adv-x="446" d="M206 428h-149v252h149v-252zM389 428h-149v252h149v-252z" />
<glyph unicode="#" horiz-adv-x="629" d="M37 312h86l7 65h-68v144h83c5 52 12 107 17 159h157l-17 -159h58l18 159h155l-17 -159h76v-144h-91l-7 -65h75v-144h-90c-5 -55 -12 -113 -17 -168h-156l18 168h-59l-18 -168h-155l16 168h-71v144zM287 377l-7 -65h58l7 65h-58z" />
<glyph unicode="$" horiz-adv-x="569" d="M37 67l76 119c60 -35 130 -51 167 -51c49 0 89 24 89 58c0 25 -13 55 -106 90c-129 48 -212 82 -212 199c0 90 56 171 163 199v71h130v-65c61 -10 116 -38 163 -63l-63 -129c-32 22 -91 51 -146 51c-41 0 -85 -14 -85 -54c0 -36 29 -46 103 -74c97 -38 216 -86 216 -215 c0 -94 -74 -182 -188 -206v-64h-130v64c-72 13 -137 45 -177 70z" />
<glyph unicode="%" horiz-adv-x="940" d="M222 690c97 0 176 -94 176 -213c0 -116 -79 -213 -176 -213c-100 0 -175 97 -175 213c0 120 75 213 175 213zM222 555c-13 0 -26 -34 -26 -78c0 -43 12 -79 26 -79c15 0 26 35 26 79c0 43 -11 78 -26 78zM717 416c97 0 176 -99 176 -213c0 -119 -79 -213 -176 -213 c-98 0 -176 94 -176 213c0 115 78 213 176 213zM717 282c-14 0 -26 -34 -26 -79c0 -44 11 -78 26 -78c14 0 27 33 27 78c0 43 -12 79 -27 79zM349 0h-167l410 681h167z" />
<glyph unicode="&#x26;" horiz-adv-x="691" d="M652 137l2 -147c-84 0 -152 17 -198 47c-40 -31 -92 -47 -157 -47c-120 0 -232 68 -232 220c0 61 19 113 55 151c-27 38 -40 84 -40 130c0 129 96 199 218 199c147 0 231 -93 231 -219h-163c0 43 -23 72 -65 72c-31 0 -59 -16 -59 -55c0 -37 27 -59 55 -59h280v-146h-48 v-89c2 -33 50 -57 121 -57zM300 137c43 0 68 26 68 60v86h-71c-38 0 -67 -20 -67 -76c0 -53 37 -70 70 -70z" />
<glyph unicode="'" horiz-adv-x="263" d="M206 428h-149v252h149v-252z" />
<glyph unicode="(" horiz-adv-x="438" d="M57 323c0 164 87 383 258 498l96 -115c-121 -89 -192 -253 -192 -383s71 -294 192 -383l-96 -115c-171 115 -258 334 -258 498z" />
<glyph unicode=")" horiz-adv-x="439" d="M381 323c0 -164 -87 -383 -258 -498l-96 115c121 89 192 253 192 383s-71 294 -192 383l96 115c171 -115 258 -334 258 -498z" />
<glyph unicode="*" horiz-adv-x="446" d="M295 356h-149l5 72c-21 -7 -50 -19 -69 -25l-45 139l69 21c-15 19 -33 39 -47 58l121 89l40 -61l41 59l122 -87l-47 -58l73 -22l-42 -139l-77 27c1 -24 4 -50 5 -73z" />
<glyph unicode="+" horiz-adv-x="670" d="M633 369v-145h-215v-224h-157v224h-224v145h224v214h157v-214h215z" />
<glyph unicode="," horiz-adv-x="330" d="M263 80c0 -66 -71 -131 -133 -176l-63 56l34 52c-20 15 -34 44 -34 68c0 49 42 91 99 91c53 0 97 -41 97 -91z" />
<glyph unicode="-" horiz-adv-x="466" d="M439 226h-412v145h412v-145z" />
<glyph unicode="." horiz-adv-x="330" d="M166 171c51 0 97 -41 97 -91c0 -51 -46 -90 -97 -90c-56 0 -99 39 -99 90c0 50 43 91 99 91z" />
<glyph unicode="/" horiz-adv-x="495" d="M169 -92h-164l320 772h165z" />
<glyph unicode="0" horiz-adv-x="694" d="M344 690c167 0 293 -162 293 -352s-126 -348 -293 -348c-166 0 -287 157 -287 349c0 191 121 351 287 351zM344 545c-65 0 -124 -91 -124 -206c0 -113 59 -204 124 -204c71 0 130 91 130 204c0 115 -59 206 -130 206z" />
<glyph unicode="1" horiz-adv-x="472" d="M435 145v-145h-381v145h112v327c-20 -14 -45 -31 -63 -42l-96 106l188 144h128v-535h112z" />
<glyph unicode="2" horiz-adv-x="532" d="M485 492c0 -152 -195 -219 -276 -347h274v-145h-436v128c0 133 274 245 274 360c0 27 -16 55 -49 55c-32 0 -67 -26 -67 -85h-152c0 143 85 232 214 232c121 0 218 -70 218 -198z" />
<glyph unicode="3" horiz-adv-x="549" d="M262 -10c-128 0 -215 79 -215 219h152c2 -50 38 -72 73 -72c44 0 67 36 67 73s-23 73 -69 73h-54v144h52c34 0 53 31 53 61c0 27 -16 55 -49 55c-32 0 -67 -26 -67 -85h-152c0 143 85 232 214 232c121 0 218 -70 218 -198c0 -54 -22 -95 -64 -128c44 -27 81 -86 81 -157 c0 -130 -89 -217 -240 -217z" />
<glyph unicode="4" horiz-adv-x="543" d="M446 291h75v-144h-75v-147h-156v147h-268v142l279 391h145v-389zM289 291v156l-123 -156h123z" />
<glyph unicode="5" horiz-adv-x="552" d="M470 535h-226l-15 -77c16 13 48 22 71 22c105 0 205 -90 205 -241c0 -101 -50 -249 -240 -249c-130 0 -218 93 -218 226h152c2 -58 44 -79 69 -79c47 0 74 54 74 108c0 46 -21 89 -64 89c-36 0 -58 -18 -76 -41h-152l66 387h354v-145z" />
<glyph unicode="6" horiz-adv-x="579" d="M310 544c-68 0 -103 -66 -105 -125c28 34 82 47 127 47c120 0 200 -115 200 -227c0 -110 -65 -249 -236 -249c-208 0 -249 213 -249 348c0 190 69 352 253 352c81 0 151 -34 216 -114l-101 -97c-30 41 -73 65 -105 65zM299 339c-33 0 -72 -19 -88 -45 c1 -61 22 -157 86 -157c32 0 72 34 72 103c0 58 -31 99 -70 99z" />
<glyph unicode="7" horiz-adv-x="463" d="M288 535h-276v145h439v-141l-242 -539h-165z" />
<glyph unicode="8" horiz-adv-x="556" d="M278 -10c-143 0 -231 103 -231 204c0 77 35 138 76 163c-31 29 -56 85 -56 135c0 130 104 198 211 198c104 0 211 -62 211 -189c0 -54 -29 -105 -66 -134c38 -29 86 -93 86 -164c0 -115 -90 -213 -231 -213zM278 137c35 0 68 24 68 63c0 51 -44 73 -66 82 c-25 -9 -71 -30 -71 -82c0 -36 31 -63 69 -63zM331 500c0 41 -20 52 -53 52c-19 0 -54 -9 -54 -52c0 -37 30 -59 55 -71c28 19 52 44 52 71z" />
<glyph unicode="9" horiz-adv-x="579" d="M269 136c68 0 103 66 105 125c-28 -34 -82 -47 -127 -47c-120 0 -200 115 -200 227c0 110 65 249 236 249c208 0 249 -213 249 -348c0 -190 -69 -352 -253 -352c-81 0 -151 34 -216 114l101 97c30 -41 73 -65 105 -65zM280 341c33 0 72 19 88 45c-1 61 -22 157 -86 157 c-32 0 -72 -34 -72 -103c0 -58 31 -99 70 -99z" />
<glyph unicode=":" horiz-adv-x="330" d="M166 170c51 0 97 -39 97 -91c0 -50 -46 -89 -97 -89c-56 0 -99 39 -99 89c0 52 43 91 99 91zM166 435c51 0 97 -38 97 -91c0 -51 -46 -89 -97 -89c-56 0 -99 38 -99 89c0 53 43 91 99 91z" />
<glyph unicode=";" horiz-adv-x="330" d="M166 435c51 0 97 -38 97 -91c0 -51 -46 -89 -97 -89c-56 0 -99 38 -99 89c0 53 43 91 99 91zM263 80c0 -66 -71 -131 -133 -176l-63 56l34 52c-20 15 -34 44 -34 68c0 49 42 91 99 91c53 0 97 -41 97 -91z" />
<glyph unicode="&#x3c;" horiz-adv-x="465" d="M230 298l198 -116v-161l-391 239v68l391 240v-161z" />
<glyph unicode="=" horiz-adv-x="628" d="M591 465v-144h-554v144h554zM591 275v-146h-554v146h554z" />
<glyph unicode="&#x3e;" horiz-adv-x="465" d="M37 182l199 116l-199 109v161l391 -240v-68l-391 -239v161z" />
<glyph unicode="?" horiz-adv-x="448" d="M96 467l-99 100c46 47 121 123 208 123c103 0 206 -59 206 -196c0 -124 -133 -157 -133 -230v-63h-156v63c0 95 127 147 127 230c0 36 -20 49 -45 49c-41 0 -73 -41 -108 -76zM202 158c49 0 91 -37 91 -86c0 -44 -42 -82 -91 -82c-51 0 -89 38 -89 82c0 49 38 86 89 86z " />
<glyph unicode="@" horiz-adv-x="842" d="M595 180h-113l-4 24c-25 -35 -82 -46 -99 -46c-62 0 -124 45 -124 120c0 84 79 123 164 123c13 0 40 -1 53 -3c0 46 -44 83 -85 83c-130 0 -192 -98 -192 -210c0 -123 73 -240 223 -240c148 0 237 149 239 274h143c-2 -226 -179 -411 -381 -411c-204 0 -377 173 -377 377 c0 189 138 347 340 347c111 0 213 -81 213 -216v-222zM472 278v59c-55 -8 -110 -20 -110 -59c0 -28 24 -34 30 -34c36 0 60 18 80 34z" />
<glyph unicode="&#x2212;" horiz-adv-x="677" d="M640 373v-145h-603v145h603z" />
<glyph unicode="&#xb1;" horiz-adv-x="669" d="M632 369v-145h-215v-223h-157v223h-223v145h223v213h157v-213h215zM632 -50v-144h-595v144h595z" />
<glyph unicode="_" horiz-adv-x="545" d="M-3 -39h551v-143h-551v143z" />
<glyph unicode="&#x2030;" horiz-adv-x="1307" d="M223 690c97 0 175 -94 175 -213c0 -116 -78 -213 -175 -213c-100 0 -176 97 -176 213c0 120 76 213 176 213zM223 555c-13 0 -26 -34 -26 -78c0 -43 12 -79 26 -79c15 0 26 35 26 79c0 43 -11 78 -26 78zM718 416c97 0 176 -99 176 -213c0 -119 -79 -213 -176 -213 c-99 0 -176 94 -176 213c0 115 77 213 176 213zM718 282c-14 0 -26 -34 -26 -79c0 -44 11 -78 26 -78c13 0 26 33 26 78c0 43 -12 79 -26 79zM350 0h-167l410 681h167zM1083 416c97 0 177 -99 177 -213c0 -119 -80 -213 -177 -213c-98 0 -175 94 -175 213 c0 115 77 213 175 213zM1083 282c-14 0 -25 -34 -25 -79c0 -44 10 -78 25 -78c14 0 27 33 27 78c0 43 -12 79 -27 79z" />
<glyph unicode="a" horiz-adv-x="487" d="M115 322l-88 92c68 65 151 86 205 86c169 0 198 -123 198 -220v-280h-129l-4 44c-35 -36 -82 -54 -124 -54c-76 0 -146 70 -146 165s94 164 229 164h24c0 42 -36 53 -58 53c-36 0 -74 -19 -107 -50zM201 116c38 0 63 32 81 54v44c-71 -2 -125 -15 -125 -59 c0 -27 25 -39 44 -39z" />
<glyph unicode="b" horiz-adv-x="548" d="M216 680v-222c29 34 80 42 98 42c109 0 197 -119 197 -257c0 -139 -88 -253 -198 -253c-12 0 -74 3 -113 46l-5 -36h-128v680h149zM290 374c-46 0 -82 -59 -82 -131c0 -71 36 -127 82 -127c47 0 78 56 78 127c0 72 -31 131 -78 131z" />
<glyph unicode="c" horiz-adv-x="487" d="M264 -10c-125 0 -227 107 -227 255c0 150 102 255 227 255c69 0 135 -24 196 -102l-96 -84c-26 38 -59 58 -90 58c-47 0 -88 -45 -88 -127s41 -127 88 -127c31 0 64 20 90 58l96 -84c-61 -78 -127 -102 -196 -102z" />
<glyph unicode="d" horiz-adv-x="548" d="M332 458v222h149v-680h-128l-5 36c-39 -43 -101 -46 -113 -46c-110 0 -198 114 -198 253c0 138 88 257 197 257c18 0 69 -8 98 -42zM258 374c-47 0 -78 -59 -78 -131c0 -71 31 -127 78 -127c46 0 82 56 82 127c0 72 -36 131 -82 131z" />
<glyph unicode="e" horiz-adv-x="516" d="M269 -10c-143 0 -232 122 -232 255c0 154 101 255 227 255c128 0 225 -101 225 -222v-64h-316c6 -69 50 -97 110 -97c33 0 80 27 112 66l90 -89c-58 -57 -114 -104 -216 -104zM173 318h183c-9 32 -39 64 -90 64c-52 0 -80 -32 -93 -64z" />
<glyph unicode="f" horiz-adv-x="356" d="M17 373v118h56c4 125 57 199 157 199c50 0 77 -12 141 -48l-48 -101c-22 15 -41 23 -56 23c-27 0 -44 -22 -45 -73h101l-1 -118h-100l1 -373h-150v373h-56z" />
<glyph unicode="g" horiz-adv-x="496" d="M37 -83c0 49 28 90 66 116c-27 24 -31 51 -31 64c0 15 2 39 27 63c-40 42 -54 102 -54 144c0 97 71 196 196 196c49 0 93 -24 93 -22c20 38 53 48 86 48c31 0 61 -8 91 -26l-44 -94c-19 11 -40 18 -58 18c-4 0 -9 -1 -12 -2c26 -37 40 -56 40 -118 c0 -120 -91 -192 -196 -192c-12 0 -29 1 -43 3c3 -10 15 -28 53 -28c151 0 234 -68 234 -154c0 -87 -78 -173 -231 -173c-140 0 -217 70 -217 157zM186 306c0 -35 25 -66 57 -66c27 0 54 31 54 66c0 33 -27 66 -54 66c-32 0 -57 -33 -57 -66zM348 -71c0 33 -119 45 -147 51 c-19 -19 -27 -34 -27 -51c0 -24 25 -40 80 -40c60 0 94 16 94 40z" />
<glyph unicode="h" horiz-adv-x="528" d="M322 0v325c0 31 -16 48 -37 48c-32 0 -71 -37 -71 -98l2 -275h-149v680h149v-225c34 37 78 45 104 45c71 0 151 -62 151 -170v-330h-149z" />
<glyph unicode="i" horiz-adv-x="283" d="M216 0h-149v491h149v-491zM57 608c0 43 38 82 84 82c47 0 85 -39 85 -82c0 -46 -38 -84 -85 -84c-46 0 -84 38 -84 84z" />
<glyph unicode="j" horiz-adv-x="279" d="M215 491v-486c0 -112 -57 -245 -214 -245c-26 0 -56 9 -114 37l52 115c32 -9 58 -13 63 -13c55 0 63 86 63 106v486h150zM55 608c0 43 39 82 85 82s84 -39 84 -82c0 -46 -38 -84 -84 -84s-85 38 -85 84z" />
<glyph unicode="k" horiz-adv-x="545" d="M216 0h-149v680h149v-326l152 137h173l-249 -219l256 -272h-164l-168 176v-176z" />
<glyph unicode="l" horiz-adv-x="283" d="M216 680v-680h-149v680h149z" />
<glyph unicode="m" horiz-adv-x="762" d="M555 0v325c0 31 -16 48 -37 48c-33 0 -58 -35 -58 -103l1 -270h-149v325c0 31 -17 48 -38 48c-33 0 -59 -35 -59 -103l1 -270h-149v491h128l5 -40c35 45 85 49 109 49c23 0 71 -14 110 -85c42 69 106 85 137 85c59 0 149 -64 149 -167l-1 -333h-149z" />
<glyph unicode="n" horiz-adv-x="530" d="M324 0v325c0 31 -16 48 -37 48c-32 0 -73 -37 -73 -98l2 -275h-149v491h129l5 -44c36 42 92 53 118 53c71 0 154 -62 154 -170v-330h-149z" />
<glyph unicode="o" horiz-adv-x="528" d="M260 500c126 0 231 -113 231 -255c0 -136 -105 -255 -231 -255c-120 0 -223 119 -223 255c0 142 103 255 223 255zM341 245c0 73 -39 121 -79 121c-38 0 -76 -47 -76 -121c0 -76 38 -121 76 -121c40 0 79 47 79 121z" />
<glyph unicode="p" horiz-adv-x="548" d="M216 32v-262h-149v721h128l5 -36c39 43 101 46 113 46c110 0 198 -114 198 -253c0 -138 -88 -258 -197 -258c-18 0 -69 8 -98 42zM290 116c47 0 78 60 78 132c0 71 -31 127 -78 127c-46 0 -82 -56 -82 -127c0 -72 36 -132 82 -132z" />
<glyph unicode="q" horiz-adv-x="548" d="M332 -230v262c-29 -34 -80 -42 -98 -42c-109 0 -197 120 -197 258c0 139 88 253 198 253c12 0 74 -3 113 -46l5 36h128v-721h-149zM258 116c46 0 82 60 82 132c0 71 -36 127 -82 127c-47 0 -78 -56 -78 -127c0 -72 31 -132 78 -132z" />
<glyph unicode="r" horiz-adv-x="416" d="M194 491l5 -66c32 53 87 75 115 75c34 0 63 -10 105 -39l-61 -130c-27 20 -49 27 -66 27c-37 0 -77 -30 -77 -82l1 -276h-149v491h127z" />
<glyph unicode="s" horiz-adv-x="406" d="M17 53l65 101c49 -28 97 -40 121 -40c14 0 36 11 36 32c0 13 -2 28 -52 47c-90 34 -152 60 -152 148c0 84 59 159 179 159c57 0 115 -30 162 -54l-55 -111c-25 17 -72 41 -107 41c-21 0 -30 -18 -30 -28c0 -13 3 -20 47 -37c72 -27 158 -62 158 -160 c0 -84 -77 -162 -186 -162c-67 0 -143 38 -186 64z" />
<glyph unicode="t" horiz-adv-x="364" d="M72 165v208h-55v118h55v118h149v-118h97v-118h-97v-208c0 -27 16 -40 28 -40c17 0 39 10 64 26l54 -112c-35 -23 -86 -49 -134 -49c-112 0 -161 95 -161 175z" />
<glyph unicode="u" horiz-adv-x="530" d="M206 491v-323c0 -31 16 -47 37 -47c32 0 73 36 73 97l-2 273h149v-491h-129l-5 44c-36 -44 -92 -54 -118 -54c-71 0 -154 62 -154 170v331h149z" />
<glyph unicode="v" horiz-adv-x="517" d="M258 204l92 287h155l-183 -491h-128l-182 491h155z" />
<glyph unicode="w" horiz-adv-x="634" d="M359 0l-43 174l-43 -174h-120l-136 491h137l71 -286l53 286h75l53 -287l74 287h137l-138 -491h-120z" />
<glyph unicode="x" horiz-adv-x="562" d="M287 152l-114 -152h-156l182 244l-182 247h156l105 -153l111 153h156l-182 -244l182 -247h-156z" />
<glyph unicode="y" horiz-adv-x="524" d="M276 -121c-32 -83 -79 -119 -138 -119c-38 0 -80 16 -126 38l52 115c32 -9 58 -13 63 -13c7 0 12 3 13 8l51 131c-55 147 -117 305 -173 452h155l94 -262l90 262h155z" />
<glyph unicode="z" horiz-adv-x="435" d="M408 355l-227 -216h227v-139h-381v136l227 216h-227v139h381v-136z" />
<glyph unicode="&#xa1;" horiz-adv-x="351" d="M98 293h158v-483h-158v483zM176 332c-51 0 -89 38 -89 86c0 46 38 82 89 82c49 0 88 -36 88 -82c0 -48 -39 -86 -88 -86z" />
<glyph unicode="&#xbf;" horiz-adv-x="448" d="M352 23l99 -100c-46 -47 -121 -123 -208 -123c-103 0 -206 59 -206 196c0 124 133 157 133 230v63h156v-63c0 -95 -127 -147 -127 -230c0 -36 20 -49 45 -49c41 0 73 41 108 76zM246 332c-49 0 -91 37 -91 86c0 44 42 82 91 82c51 0 89 -38 89 -82c0 -49 -38 -86 -89 -86 z" />
<glyph unicode="&#x2013;" horiz-adv-x="605" d="M27 371h551v-145h-551v145z" />
<glyph unicode="&#x2014;" horiz-adv-x="947" d="M27 371h893v-145h-893v145z" />
<glyph unicode="&#xb7;" horiz-adv-x="331" d="M167 387c52 0 97 -39 97 -93c0 -50 -45 -89 -97 -89c-55 0 -100 39 -100 89c0 54 45 93 100 93z" />
<glyph unicode="&#x2219;" horiz-adv-x="268" d="M134 387c52 0 97 -39 97 -93c0 -49 -45 -88 -97 -88c-56 0 -97 39 -97 88c0 54 41 93 97 93z" />
<glyph unicode="&#x2026;" horiz-adv-x="887" d="M149 170c51 0 98 -39 98 -91c0 -50 -47 -89 -98 -89c-57 0 -99 39 -99 89c0 52 42 91 99 91zM444 170c52 0 97 -39 97 -91c0 -50 -45 -89 -97 -89c-55 0 -97 39 -97 89c0 52 42 91 97 91zM740 170c51 0 97 -39 97 -91c0 -50 -46 -89 -97 -89c-58 0 -99 39 -99 89 c0 52 41 91 99 91z" />
<glyph unicode="&#xa9;" horiz-adv-x="791" d="M397 690c195 0 357 -157 357 -349c0 -194 -162 -351 -357 -351c-199 0 -360 157 -360 351c0 193 161 349 360 349zM395 565c-125 0 -217 -99 -217 -223c0 -126 92 -223 217 -223c124 0 216 97 216 223c0 124 -92 223 -216 223zM391 180c-79 0 -143 67 -143 160 c0 94 64 160 143 160c43 0 85 -15 123 -64l-60 -53c-16 24 -37 36 -57 36c-29 0 -55 -28 -55 -79c0 -52 26 -80 55 -80c20 0 41 13 57 36l60 -52c-38 -49 -80 -64 -123 -64z" />
<glyph unicode="&#xae;" horiz-adv-x="791" d="M290 492h110c73 0 108 -46 108 -89c0 -32 -20 -66 -44 -78l59 -107h-108l-34 75v-77h-91v276zM381 424v-41h14c22 0 23 16 23 20c0 9 -7 21 -23 21h-14zM397 690c195 0 357 -157 357 -349c0 -194 -162 -351 -357 -351c-199 0 -360 157 -360 351c0 193 161 349 360 349z M395 565c-125 0 -217 -99 -217 -223c0 -126 92 -223 217 -223c124 0 216 97 216 223c0 124 -92 223 -216 223z" />
<glyph unicode="&#x2117;" horiz-adv-x="791" d="M307 475h114c74 0 104 -45 104 -88c0 -28 -15 -91 -103 -91h-24v-97h-91v276zM398 407v-41h14c22 0 24 17 24 21c0 9 -9 20 -24 20h-14zM397 690c195 0 357 -157 357 -349c0 -194 -162 -351 -357 -351c-199 0 -360 157 -360 351c0 193 161 349 360 349zM395 565 c-125 0 -217 -99 -217 -223c0 -126 92 -223 217 -223c124 0 216 97 216 223c0 124 -92 223 -216 223z" />
<glyph unicode="[" horiz-adv-x="366" d="M87 -154v988h252v-145h-97v-698h97v-145h-252z" />
<glyph unicode="\" horiz-adv-x="519" d="M502 -92h-164l-321 772h165z" />
<glyph unicode="]" horiz-adv-x="367" d="M279 834v-988h-252v145h97v698h-97v145h252z" />
<glyph unicode="^" horiz-adv-x="694" d="M657 284h-171l-141 197c-19 -30 -42 -61 -137 -197h-171l270 396h76z" />
<glyph unicode="`" horiz-adv-x="255" d="M248 535h-129l-112 145h152z" />
<glyph unicode="&#xb4;" horiz-adv-x="255" d="M136 535h-129l89 145h152z" />
<glyph unicode="&#xa8;" horiz-adv-x="381" d="M94 690c49 0 85 -35 85 -81c0 -44 -36 -82 -85 -82c-52 0 -87 38 -87 82c0 46 35 81 87 81zM286 690c48 0 88 -35 88 -81c0 -44 -40 -82 -88 -82c-51 0 -86 38 -86 82c0 46 35 81 86 81z" />
<glyph unicode="{" horiz-adv-x="379" d="M272 324c30 -39 43 -71 43 -139c0 -46 -5 -131 -5 -172c0 -20 11 -45 42 -68v-182c-167 96 -196 175 -196 261c0 44 4 125 4 161c0 47 -30 81 -93 138c63 58 93 92 93 139c0 36 -4 117 -4 161c0 86 29 165 196 261v-182c-31 -23 -42 -48 -42 -68c0 -41 5 -126 5 -172 c0 -68 -13 -100 -43 -138z" />
<glyph unicode="|" horiz-adv-x="330" d="M243 -110h-156v807h156v-807z" />
<glyph unicode="}" horiz-adv-x="378" d="M107 324c-30 38 -43 70 -43 138c0 46 5 131 5 172c0 20 -11 45 -42 68v182c167 -96 196 -175 196 -261c0 -44 -4 -125 -4 -161c0 -47 30 -81 93 -139c-63 -57 -93 -91 -93 -138c0 -36 4 -107 4 -151c0 -86 -29 -175 -196 -271v182c31 23 42 58 42 78c0 41 -5 116 -5 162 c0 68 13 100 43 139z" />
<glyph unicode="~" horiz-adv-x="632" d="M215 421c54 0 84 -30 109 -59c22 -24 47 -50 82 -50c36 0 39 59 39 109h150c0 -171 -83 -247 -177 -247c-65 0 -105 38 -138 71c-21 21 -40 38 -54 38c-37 0 -39 -58 -39 -109h-150c0 172 83 247 178 247z" />
<glyph unicode="&#xa2;" horiz-adv-x="497" d="M337 596v-107c43 -13 84 -41 123 -91l-96 -84c-26 38 -59 58 -90 58c-47 0 -88 -45 -88 -127s41 -127 88 -127h4c30 2 61 22 86 58l96 -84c-39 -50 -80 -78 -122 -92v-99h-155v105c-85 35 -146 125 -146 239c0 115 60 204 145 239v112h155z" />
<glyph unicode="&#xa3;" horiz-adv-x="550" d="M400 329h-146v-160c0 -9 -2 -17 -10 -24h234v-145h-431v145c37 1 50 15 50 32v152h-49v90h49v39c0 121 53 232 208 232c73 0 152 -34 198 -60l-67 -123c-36 19 -85 38 -131 38c-42 0 -51 -45 -51 -85v-41h146v-90z" />
<glyph unicode="&#xa4;" horiz-adv-x="683" d="M469 333c0 71 -59 122 -128 122c-68 0 -127 -53 -127 -124s59 -122 127 -122c69 0 128 53 128 124zM61 331c0 43 9 84 34 126l-58 51l104 107l55 -51c42 24 95 38 144 38c48 0 104 -14 147 -38c18 16 38 36 55 51l104 -107l-58 -51c25 -42 34 -81 34 -124 s-9 -84 -34 -126l58 -50l-104 -107l-56 50c-43 -25 -97 -38 -146 -38s-102 14 -144 38c-18 -16 -38 -36 -55 -50l-104 107l58 50c-25 42 -34 81 -34 124z" />
<glyph unicode="&#xa5;" horiz-adv-x="708" d="M277 324l-32 45h-122v90h59l-155 221h172l156 -225l155 225h171l-154 -221h61v-90h-123l-31 -46h154v-90h-154v-233h-157v233h-154v90z" />
<glyph unicode="&#xa6;" horiz-adv-x="330" d="M243 -107h-156v379h156v-379zM243 698v-382h-156v382h156z" />
<glyph unicode="&#xa7;" horiz-adv-x="509" d="M63 45l66 123c60 -37 78 -38 108 -38c27 0 48 8 48 28c0 26 -39 36 -83 46c-2 0 -4 1 -6 1c-68 16 -149 37 -149 105c0 33 33 75 59 93c-16 16 -43 63 -43 91c0 101 104 159 215 159c61 0 109 -23 167 -45l-62 -124c-35 17 -73 29 -105 29c-29 0 -53 -3 -53 -26 s39 -35 83 -46c71 -18 154 -40 154 -109c0 -37 -34 -70 -61 -89c22 -18 46 -59 46 -91c0 -100 -97 -162 -211 -162c-62 0 -118 29 -173 55zM190 353c0 -49 89 -65 124 -80c1 7 3 15 3 21c0 45 -71 65 -125 80c-1 -7 -2 -15 -2 -21z" />
<glyph unicode="&#xaa;" horiz-adv-x="421" d="M384 160h-347v115h347v-115zM118 553l-71 71c55 50 122 66 166 66c136 0 160 -94 160 -169v-216h-105l-3 34c-28 -28 -66 -42 -100 -42c-62 0 -118 54 -118 127c0 74 76 119 185 119h20c0 40 -30 49 -47 49c-30 0 -60 -15 -87 -39zM188 394c30 0 51 25 65 42v42 c-57 -2 -101 -12 -101 -54c0 -20 20 -30 36 -30z" />
<glyph unicode="&#xba;" horiz-adv-x="425" d="M213 690c94 0 175 -87 175 -197c0 -106 -81 -195 -175 -195c-98 0 -176 89 -176 195c0 110 78 197 176 197zM213 585c-31 0 -55 -42 -55 -92c0 -49 24 -90 55 -90c30 0 55 41 55 90c0 50 -25 92 -55 92zM388 160h-347v115h347v-115z" />
<glyph unicode="&#xab;" horiz-adv-x="599" d="M408 82l-109 216l108 184h166l-108 -184l109 -216h-166zM159 82l-109 216l108 184h166l-108 -184l109 -216h-166z" />
<glyph unicode="&#xbb;" horiz-adv-x="599" d="M300 298l-109 -216h-166l109 216l-108 184h166zM549 298l-109 -216h-166l109 216l-108 184h166z" />
<glyph unicode="&#xac;" horiz-adv-x="637" d="M42 375h553v-260h-156v115h-397v145z" />
<glyph unicode="&#xad;" horiz-adv-x="448" d="M381 230h-314v145h314v-145z" />
<glyph unicode="&#xb0;" horiz-adv-x="343" d="M174 690c92 0 132 -72 132 -136c0 -62 -39 -132 -132 -132c-98 0 -137 70 -137 132c0 65 41 136 137 136zM173 592c-12 0 -28 -12 -28 -39c0 -21 16 -35 28 -35c15 0 31 14 31 35c0 27 -16 39 -31 39z" />
<glyph unicode="&#xb2;" horiz-adv-x="387" d="M151 568h-114c0 96 69 161 164 161c90 0 146 -73 146 -141c0 -84 -109 -135 -167 -187h170v-103h-313v89c6 38 63 80 113 117c37 28 74 58 74 78c0 17 -13 35 -34 35c-20 0 -39 -19 -39 -49z" />
<glyph unicode="&#xb3;" horiz-adv-x="374" d="M176 465v82c34 0 48 17 48 35c0 17 -13 35 -34 35c-20 0 -39 -19 -39 -49h-114c0 96 59 161 154 161c90 0 146 -73 146 -141c0 -22 -14 -63 -42 -85c31 -23 42 -55 42 -74c0 -68 -56 -140 -146 -140c-95 0 -154 64 -154 160l113 -1c0 -30 19 -53 39 -53c21 0 34 17 34 34 s-14 35 -47 36z" />
<glyph unicode="&#xb9;" horiz-adv-x="364" d="M315 401v-103h-266v103h71v144l-33 -36l-76 60l126 154h107v-322h71z" />
<glyph unicode="&#xb5;" horiz-adv-x="540" d="M206 491v-323c0 -31 16 -47 37 -47c32 0 73 36 73 97l-2 273h149v-491h-129l-5 44c-36 -44 -92 -54 -118 -54h-6v-220h-148v721h149z" />
<glyph unicode="&#xb6;" horiz-adv-x="612" d="M575 -100h-156v636h-44v-636h-157v355c-126 23 -181 117 -181 212c0 108 83 214 243 214h295v-781z" />
<glyph unicode="&#xb8;" horiz-adv-x="280" d="M72 -97l32 159h102l-16 -93c58 -19 83 -58 83 -97c0 -56 -50 -112 -130 -112c-72 0 -115 40 -136 70l56 49c8 -9 29 -33 49 -33c19 0 28 13 28 26c0 17 -14 35 -38 35c-10 0 -21 -1 -30 -4z" />
<glyph unicode="&#xbc;" horiz-adv-x="948" d="M871 181h40v-107h-40v-74h-124v74h-164v105l166 249h122v-247zM747 181v96l-68 -96h68zM341 358v-103h-266v103h71v144l-33 -36l-76 60l126 154h107v-322h71zM391 0h-167l410 681h168z" />
<glyph unicode="&#x2044;" horiz-adv-x="316" d="M36 0h-167l410 681h168z" />
<glyph unicode="&#xbe;" horiz-adv-x="867" d="M176 426v82c34 0 48 17 48 35c0 17 -13 35 -34 35c-20 0 -39 -19 -39 -49h-114c0 96 59 161 154 161c90 0 146 -73 146 -141c0 -22 -14 -63 -42 -85c31 -23 42 -55 42 -74c0 -68 -56 -140 -146 -140c-95 0 -154 64 -154 160l113 -1c0 -30 19 -53 39 -53c21 0 34 17 34 34 s-14 35 -47 36zM816 181h40v-107h-40v-74h-124v74h-164v105l166 249h122v-247zM692 181v96l-68 -96h68zM336 0h-167l410 681h168z" />
<glyph unicode="&#xbd;" horiz-adv-x="993" d="M757 268h-114c0 96 69 161 164 161c90 0 146 -73 146 -141c0 -84 -109 -135 -167 -187h170v-103h-313v89c6 38 63 80 113 117c37 28 74 58 74 78c0 17 -13 35 -34 35c-20 0 -39 -19 -39 -49zM391 0h-167l410 681h168zM341 358v-103h-266v103h71v144l-33 -36l-76 60 l126 154h107v-322h71z" />
<glyph unicode="&#x2c6;" horiz-adv-x="342" d="M137 535h-130l89 145h150l89 -145h-130l-35 44z" />
<glyph unicode="&#x2c7;" horiz-adv-x="342" d="M7 680h130l33 -44c12 15 24 29 35 44h130l-89 -145h-150z" />
<glyph unicode="&#x2d8;" horiz-adv-x="339" d="M204 680h128c-1 -87 -80 -139 -160 -139c-78 0 -158 48 -165 139h132c3 -37 19 -57 31 -57s30 20 34 57z" />
<glyph unicode="&#x2d9;" horiz-adv-x="201" d="M102 690c49 0 92 -42 92 -89c0 -50 -43 -89 -92 -89c-57 0 -95 39 -95 89c0 47 38 89 95 89z" />
<glyph unicode="&#x2da;" horiz-adv-x="230" d="M112 691c68 0 111 -44 111 -100c0 -54 -43 -97 -111 -97c-57 0 -105 43 -105 97c0 56 48 100 105 100zM115 620c-9 0 -21 -9 -21 -29c0 -16 12 -26 21 -26c11 0 23 10 23 26c0 20 -12 29 -23 29z" />
<glyph unicode="&#x2db;" horiz-adv-x="221" d="M99 43h58l33 -40c-27 -23 -44 -54 -44 -83c0 -23 23 -52 68 -66l-21 -94c-116 35 -186 89 -186 163c0 44 41 90 92 120z" />
<glyph unicode="&#x2dc;" horiz-adv-x="390" d="M120 690c46 0 98 -47 126 -47c13 0 21 10 22 37h115c-6 -57 -41 -126 -115 -126c-51 0 -91 47 -125 47c-12 0 -20 -9 -21 -37h-115c7 57 38 126 113 126z" />
<glyph unicode="&#x2dd;" horiz-adv-x="468" d="M156 535h-149l93 145h162zM341 535h-149l107 145h162z" />
<glyph unicode="&#x2c9;" horiz-adv-x="320" d="M313 575h-306v105h306v-105z" />
<glyph unicode="&#xc6;" horiz-adv-x="824" d="M777 535h-258v-95h237v-145h-237v-150h258v-145h-415v150c-37 0 -94 -1 -131 -1l-67 -149h-167l349 680h431v-145zM297 295h66v145z" />
<glyph unicode="&#xd8;" horiz-adv-x="699" d="M347 690c27 0 53 -4 78 -11l13 30h116l-32 -78c84 -63 140 -170 140 -291c0 -191 -140 -350 -315 -350c-29 0 -57 5 -84 13l-17 -42h-116l38 93c-79 64 -131 169 -131 286c0 193 138 350 310 350zM499 340c0 53 -15 102 -40 138l-139 -338c8 -2 18 -3 27 -3 c86 0 152 89 152 203zM347 543c-83 0 -147 -90 -147 -203c0 -50 12 -95 32 -130l137 331c-7 1 -15 2 -22 2z" />
<glyph unicode="&#xdf;" horiz-adv-x="562" d="M231 43l81 86c17 -15 24 -24 41 -24c22 0 43 17 43 50c0 82 -128 104 -128 208c0 60 52 109 52 155c0 30 -22 48 -45 48c-28 0 -59 -23 -59 -71v-495h-149v465c0 125 63 225 206 225c138 0 195 -98 195 -152c0 -62 -61 -126 -61 -175c0 -83 138 -111 138 -211 s-84 -162 -192 -162c-56 0 -89 22 -122 53z" />
<glyph unicode="&#xde;" horiz-adv-x="538" d="M300 131h-57v-131h-156v680h156v-131h57c146 0 226 -105 226 -209c0 -107 -84 -209 -226 -209zM243 405v-129h64c47 0 56 46 56 64c0 36 -28 65 -63 65h-57z" />
<glyph unicode="&#x131;" horiz-adv-x="283" d="M216 0h-149v491h149v-491z" />
<glyph unicode="&#xf8;" horiz-adv-x="528" d="M260 500c20 0 41 -4 60 -9l16 38h91l-33 -77c58 -46 97 -121 97 -207c0 -136 -105 -255 -231 -255c-20 0 -39 4 -58 10l-18 -44h-88l35 83c-57 47 -94 123 -94 206c0 142 103 255 223 255zM341 245c0 22 -4 41 -10 58l-76 -179h7c40 0 79 47 79 121zM186 245 c0 -21 3 -40 8 -56l73 176c-2 0 -3 1 -5 1c-38 0 -76 -47 -76 -121z" />
<glyph unicode="&#xaf;" horiz-adv-x="320" d="M313 575h-306v105h306v-105z" />
<glyph unicode="&#x124;" horiz-adv-x="673" d="M586 0h-156v295h-187v-295h-156v680h156v-240h187v240h156v-680zM304 711h-130l89 145h150l89 -145h-130l-35 44z" />
<glyph unicode="&#x125;" horiz-adv-x="528" d="M322 0v325c0 31 -16 48 -37 48c-32 0 -71 -37 -71 -98l2 -275h-149v680h149v-225c34 37 78 45 104 45c71 0 151 -62 151 -170v-330h-149zM235 711h-130l89 145h150l89 -145h-130l-35 44z" />
<glyph unicode="&#x128;" horiz-adv-x="329" d="M242 0h-155v680h155v-680zM90 866c46 0 98 -47 126 -47c13 0 21 10 22 37h115c-6 -57 -41 -126 -115 -126c-51 0 -91 47 -125 47c-12 0 -20 -9 -21 -37h-115c7 57 38 126 113 126z" />
<glyph unicode="&#x12a;" horiz-adv-x="329" d="M242 0h-155v680h155v-680zM319 751h-306v105h306v-105z" />
<glyph unicode="&#x12e;" horiz-adv-x="329" d="M242 0c-33 -22 -48 -52 -48 -80c0 -23 23 -52 68 -66l-21 -94c-116 35 -186 89 -186 163c0 26 14 53 37 77h-5v680h155v-680z" />
<glyph unicode="&#x130;" horiz-adv-x="329" d="M242 0h-155v680h155v-680zM163 885c50 0 91 -40 91 -86s-41 -85 -91 -85c-54 0 -89 39 -89 85s35 86 89 86z" />
<glyph unicode="&#x129;" horiz-adv-x="283" d="M216 0h-149v491h149v-491zM64 690c46 0 98 -47 126 -47c13 0 21 10 22 37h115c-6 -57 -41 -126 -115 -126c-51 0 -91 47 -125 47c-12 0 -20 -9 -21 -37h-115c7 57 38 126 113 126z" />
<glyph unicode="&#x12b;" horiz-adv-x="283" d="M216 0h-149v491h149v-491zM293 575h-306v105h306v-105z" />
<glyph unicode="&#x12f;" horiz-adv-x="283" d="M216 0c-30 -22 -45 -52 -45 -80c0 -23 23 -52 68 -66l-21 -94c-116 35 -186 89 -186 163c0 26 14 53 35 77v491h149v-491zM57 608c0 43 38 82 84 82c47 0 85 -39 85 -82c0 -46 -38 -84 -85 -84c-46 0 -84 38 -84 84z" />
<glyph unicode="&#x134;" horiz-adv-x="560" d="M126 535v145h357v-460c0 -149 -87 -230 -225 -230c-164 0 -231 127 -231 277h157c0 -98 34 -132 72 -132s70 31 70 75v325h-200zM270 711h-130l89 145h150l89 -145h-130l-35 44z" />
<glyph unicode="&#x135;" horiz-adv-x="278" d="M214 491v-486c0 -112 -57 -245 -214 -245c-26 0 -56 9 -114 37l52 115c32 -9 58 -13 63 -13c55 0 64 86 64 106v486h149zM103 535h-130l89 145h150l89 -145h-130l-35 44z" />
<glyph unicode="&#x126;" horiz-adv-x="673" d="M586 0h-156v295h-187v-295h-156v515h-51v105h51v60h156v-60h187v60h156v-60h51v-105h-51v-515zM243 440h187v75h-187v-75z" />
<glyph unicode="&#x127;" horiz-adv-x="528" d="M322 0v325c0 31 -16 48 -37 48c-32 0 -71 -37 -71 -98l2 -275h-149v515h-51v105h51v60h149v-60h99v-105h-99v-60c34 37 78 45 104 45c71 0 151 -62 151 -170v-330h-149z" />
<glyph unicode="&#x111;" horiz-adv-x="548" d="M332 458v57h-117v105h117v60h149v-60h33v-105h-33v-515h-128l-5 36c-39 -43 -101 -46 -113 -46c-110 0 -198 114 -198 253c0 138 88 257 197 257c18 0 69 -8 98 -42zM258 374c-47 0 -78 -59 -78 -131c0 -71 31 -127 78 -127c46 0 82 56 82 127c0 72 -36 131 -82 131z" />
<glyph unicode="&#x110;" horiz-adv-x="641" d="M87 680h184c209 0 333 -126 333 -341s-124 -339 -333 -339h-184v295h-68v145h68v240zM243 535v-95h115v-145h-115v-150h28c98 0 171 56 171 194c0 140 -73 196 -171 196h-28z" />
<glyph unicode="&#xd0;" horiz-adv-x="641" d="M87 680h184c209 0 333 -126 333 -341s-124 -339 -333 -339h-184v295h-68v145h68v240zM243 535v-95h115v-145h-115v-150h28c98 0 171 56 171 194c0 140 -73 196 -171 196h-28z" />
<glyph unicode="&#xe6;" horiz-adv-x="761" d="M115 322l-88 92c68 65 151 86 205 86c66 0 110 -19 140 -47c38 30 85 47 137 47c128 0 225 -101 225 -222v-64h-316c6 -59 50 -97 110 -97c33 0 80 27 112 66l90 -89c-58 -57 -114 -104 -216 -104c-80 0 -143 38 -183 94c-55 -79 -118 -94 -158 -94 c-76 0 -146 70 -146 165s94 164 229 164h24c0 42 -36 53 -58 53c-36 0 -74 -19 -107 -50zM201 116c38 0 63 32 81 54v44c-71 -2 -125 -15 -125 -59c0 -27 25 -39 44 -39zM418 318l183 1c-9 32 -39 63 -90 63c-52 0 -80 -32 -93 -64z" />
<glyph unicode="&#x132;" horiz-adv-x="817" d="M242 0h-155v680h155v-680zM398 535v145h357v-460c0 -149 -87 -230 -225 -230c-164 0 -231 127 -231 277h157c0 -98 34 -132 72 -132s70 31 70 75v325h-200z" />
<glyph unicode="&#x133;" horiz-adv-x="575" d="M216 0h-149v491h149v-491zM57 608c0 43 38 82 84 82c47 0 85 -39 85 -82c0 -46 -38 -84 -85 -84c-46 0 -84 38 -84 84zM511 491v-486c0 -112 -57 -245 -214 -245c-26 0 -56 9 -114 37l52 115c32 -9 58 -13 63 -13c55 0 63 86 63 106v486h150zM351 608c0 43 39 82 85 82 s84 -39 84 -82c0 -46 -38 -84 -84 -84s-85 38 -85 84z" />
<glyph unicode="&#x139;" horiz-adv-x="546" d="M243 145h286v-145h-442v680h156v-535zM229 711h-129l89 145h152z" />
<glyph unicode="&#x13f;" horiz-adv-x="546" d="M243 145h286v-145h-442v680h156v-535zM392 427c52 0 97 -39 97 -93c0 -50 -45 -89 -97 -89c-55 0 -100 39 -100 89c0 54 45 93 100 93z" />
<glyph unicode="&#x140;" horiz-adv-x="445" d="M216 680v-680h-149v680h149zM338 427c52 0 97 -39 97 -93c0 -50 -45 -89 -97 -89c-55 0 -100 39 -100 89c0 54 45 93 100 93z" />
<glyph unicode="&#x13d;" horiz-adv-x="546" d="M243 145h286v-145h-442v680h156v-535zM426 500h-133c21 56 32 121 32 180h143c-2 -84 -15 -122 -42 -180z" />
<glyph unicode="&#x13e;" horiz-adv-x="383" d="M371 500h-133c21 56 32 121 32 180h143c-2 -84 -15 -122 -42 -180zM216 680v-680h-149v680h149z" />
<glyph unicode="&#x136;" horiz-adv-x="724" d="M244 680v-223l254 223h209l-359 -309l359 -371h-206l-257 273v-273h-157v680h157zM384 -230h-133c21 57 32 119 32 178h144c-2 -84 -16 -120 -43 -178z" />
<glyph unicode="&#x122;" horiz-adv-x="668" d="M641 545l-115 -88c-46 66 -97 80 -153 80c-84 0 -173 -63 -173 -196c0 -130 65 -206 165 -206c31 0 74 4 111 18v98h-165v145h323l-1 -317c-84 -63 -179 -89 -252 -89c-187 0 -344 126 -344 350c0 216 167 350 336 350c97 0 200 -44 268 -145zM415 -230h-133 c21 57 32 119 32 178h144c-2 -84 -16 -120 -43 -178z" />
<glyph unicode="&#x123;" horiz-adv-x="496" d="M37 -83c0 49 28 90 66 116c-27 24 -31 51 -31 64c0 15 2 39 27 63c-40 42 -54 102 -54 144c0 97 71 196 196 196c49 0 93 -24 93 -22c20 38 53 48 86 48c31 0 61 -8 91 -26l-44 -94c-19 11 -40 18 -58 18c-4 0 -9 -1 -12 -2c26 -37 40 -56 40 -118 c0 -120 -91 -192 -196 -192c-12 0 -29 1 -43 3c3 -10 15 -28 53 -28c151 0 234 -68 234 -154c0 -87 -78 -173 -231 -173c-140 0 -217 70 -217 157zM186 306c0 -35 25 -66 57 -66c27 0 54 31 54 66c0 33 -27 66 -54 66c-32 0 -57 -33 -57 -66zM348 -71c0 33 -119 45 -147 51 c-19 -19 -27 -34 -27 -51c0 -24 25 -40 80 -40c60 0 94 16 94 40zM203 729h133c-21 -56 -32 -121 -32 -180h-143c2 84 15 122 42 180z" />
<glyph unicode="&#x137;" horiz-adv-x="545" d="M320 -230h-133c21 57 32 119 32 178h144c-2 -84 -16 -120 -43 -178zM216 0h-149v680h149v-326l152 137h173l-249 -219l256 -272h-164l-168 176v-176z" />
<glyph unicode="&#x138;" horiz-adv-x="545" d="M216 0h-149v491h149v-139l155 139h170l-249 -219l256 -272h-164l-168 178v-178z" />
<glyph unicode="&#x13a;" horiz-adv-x="283" d="M216 680v-680h-149v680h149zM204 711h-129l89 145h152z" />
<glyph unicode="&#x13b;" horiz-adv-x="546" d="M341 -230h-133c21 57 32 119 32 178h144c-2 -84 -16 -120 -43 -178zM243 145h286v-145h-442v680h156v-535z" />
<glyph unicode="&#x13c;" horiz-adv-x="283" d="M169 -230h-133c21 57 32 119 32 178h144c-2 -84 -16 -120 -43 -178zM216 680v-680h-149v680h149z" />
<glyph unicode="&#xf0;" horiz-adv-x="503" d="M214 690c40 0 75 -12 105 -33l21 23h122l-80 -87c60 -87 84 -213 84 -298c0 -117 -36 -305 -218 -305c-155 0 -211 126 -211 231c0 106 56 231 189 231c25 0 63 -7 90 -30c-6 25 -15 49 -26 70l-18 -19h-123l74 80c-3 0 -6 1 -9 1c-18 0 -40 -10 -65 -33l-97 95 c47 45 116 74 162 74zM246 318c-34 0 -60 -45 -60 -94c0 -62 33 -99 59 -99c53 0 70 59 70 109c0 15 -1 30 -2 44c-10 24 -39 40 -67 40z" />
<glyph unicode="&#x10f;" horiz-adv-x="671" d="M332 458v222h149v-680h-128l-5 36c-39 -43 -101 -46 -113 -46c-110 0 -198 114 -198 253c0 138 88 257 197 257c18 0 69 -8 98 -42zM258 374c-47 0 -78 -59 -78 -131c0 -71 31 -127 78 -127c46 0 82 56 82 127c0 72 -36 131 -82 131zM635 500h-133c21 56 32 121 32 180 h143c-2 -84 -15 -122 -42 -180z" />
<glyph unicode="&#x143;" horiz-adv-x="671" d="M584 0h-133l-210 371v-371h-154v680h135l208 -381v381h154v-680zM395 711h-129l89 145h152z" />
<glyph unicode="&#x145;" horiz-adv-x="671" d="M584 0h-133l-210 371v-371h-154v680h135l208 -381v381h154v-680zM375 -230h-133c21 57 32 119 32 178h144c-2 -84 -16 -120 -43 -178z" />
<glyph unicode="&#x147;" horiz-adv-x="671" d="M584 0h-133l-210 371v-371h-154v680h135l208 -381v381h154v-680zM167 856h130l33 -44c12 15 24 29 35 44h130l-89 -145h-150z" />
<glyph unicode="&#x144;" horiz-adv-x="530" d="M324 0v325c0 31 -16 48 -37 48c-32 0 -73 -37 -73 -98l2 -275h-149v491h129l5 -44c36 42 92 53 118 53c71 0 154 -62 154 -170v-330h-149zM340 535h-129l89 145h152z" />
<glyph unicode="&#x146;" horiz-adv-x="530" d="M324 0v325c0 31 -16 48 -37 48c-32 0 -73 -37 -73 -98l2 -275h-149v491h129l5 -44c36 42 92 53 118 53c71 0 154 -62 154 -170v-330h-149zM302 -230h-133c21 57 32 119 32 178h144c-2 -84 -16 -120 -43 -178z" />
<glyph unicode="&#x148;" horiz-adv-x="530" d="M324 0v325c0 31 -16 48 -37 48c-32 0 -73 -37 -73 -98l2 -275h-149v491h129l5 -44c36 42 92 53 118 53c71 0 154 -62 154 -170v-330h-149zM107 680h130l33 -44c12 15 24 29 35 44h130l-89 -145h-150z" />
<glyph unicode="&#x149;" horiz-adv-x="530" d="M324 0v325c0 31 -16 48 -37 48c-32 0 -73 -37 -73 -98l2 -275h-149v491h129l5 -44c36 42 92 53 118 53c71 0 154 -62 154 -170v-330h-149zM67 500h-133c21 56 32 121 32 180h143c-2 -84 -15 -122 -42 -180z" />
<glyph unicode="&#x14c;" horiz-adv-x="699" d="M347 690c175 0 315 -157 315 -350c0 -191 -140 -350 -315 -350c-172 0 -310 159 -310 350c0 193 138 350 310 350zM347 543c-83 0 -147 -90 -147 -203c0 -114 64 -203 147 -203c86 0 152 89 152 203c0 113 -66 203 -152 203zM501 751h-306v105h306v-105z" />
<glyph unicode="&#x14e;" horiz-adv-x="684" d="M347 690c175 0 315 -157 315 -350c0 -191 -140 -350 -315 -350c-172 0 -310 159 -310 350c0 193 138 350 310 350zM347 543c-83 0 -147 -90 -147 -203c0 -114 64 -203 147 -203c86 0 152 89 152 203c0 113 -66 203 -152 203zM384 856h128c-1 -87 -80 -139 -160 -139 c-78 0 -158 48 -165 139h132c3 -37 19 -57 31 -57s30 20 34 57z" />
<glyph unicode="&#x14d;" horiz-adv-x="528" d="M260 500c126 0 231 -113 231 -255c0 -136 -105 -255 -231 -255c-120 0 -223 119 -223 255c0 142 103 255 223 255zM341 245c0 73 -39 121 -79 121c-38 0 -76 -47 -76 -121c0 -76 38 -121 76 -121c40 0 79 47 79 121zM416 575h-306v105h306v-105z" />
<glyph unicode="&#x14f;" horiz-adv-x="528" d="M260 500c126 0 231 -113 231 -255c0 -136 -105 -255 -231 -255c-120 0 -223 119 -223 255c0 142 103 255 223 255zM341 245c0 73 -39 121 -79 121c-38 0 -76 -47 -76 -121c0 -76 38 -121 76 -121c40 0 79 47 79 121zM297 679h128c-1 -87 -80 -139 -160 -139 c-78 0 -158 48 -165 139h132c3 -37 19 -57 31 -57s30 20 34 57z" />
<glyph unicode="&#x150;" horiz-adv-x="684" d="M347 690c175 0 315 -157 315 -350c0 -191 -140 -350 -315 -350c-172 0 -310 159 -310 350c0 193 138 350 310 350zM347 543c-83 0 -147 -90 -147 -203c0 -114 64 -203 147 -203c86 0 152 89 152 203c0 113 -66 203 -152 203zM332 711h-149l93 145h162zM517 711h-149 l107 145h162z" />
<glyph unicode="&#x151;" horiz-adv-x="528" d="M260 500c126 0 231 -113 231 -255c0 -136 -105 -255 -231 -255c-120 0 -223 119 -223 255c0 142 103 255 223 255zM341 245c0 73 -39 121 -79 121c-38 0 -76 -47 -76 -121c0 -76 38 -121 76 -121c40 0 79 47 79 121zM241 535h-149l93 145h162zM426 535h-149l107 145h162z " />
<glyph unicode="&#x153;" horiz-adv-x="832" d="M260 500c61 0 117 -27 159 -70c41 44 98 70 161 70c128 0 225 -101 225 -222v-64h-316v-2c7 -58 50 -95 110 -95c33 0 80 27 112 66l90 -89c-58 -57 -114 -104 -216 -104c-69 0 -126 28 -166 73c-41 -45 -98 -73 -159 -73c-120 0 -223 119 -223 255 c0 142 103 255 223 255zM341 245c0 73 -39 121 -79 121c-38 0 -76 -47 -76 -121c0 -76 38 -121 76 -121c40 0 79 47 79 121zM489 318l183 1c-9 32 -39 63 -90 63c-52 0 -80 -32 -93 -64z" />
<glyph unicode="&#x152;" horiz-adv-x="907" d="M860 534h-257v-95h237v-145h-237v-149h257v-145h-414c-31 -10 -65 -10 -99 -10c-172 0 -310 159 -310 350c0 193 138 350 310 350c35 0 68 -1 99 -11h414v-145zM347 137c39 0 72 7 99 36v327c-27 31 -61 43 -99 43c-83 0 -147 -90 -147 -203c0 -114 64 -203 147 -203z " />
<glyph unicode="&#x154;" horiz-adv-x="610" d="M87 680h221c144 0 225 -103 225 -209c0 -64 -30 -124 -85 -161l145 -310h-163l-123 271h-64v-271h-156v680zM243 535v-120h65c44 0 62 31 62 56c0 27 -18 64 -62 64h-65zM347 711h-129l89 145h152z" />
<glyph unicode="&#x156;" horiz-adv-x="610" d="M87 680h221c144 0 225 -103 225 -209c0 -64 -30 -124 -85 -161l145 -310h-163l-123 271h-64v-271h-156v680zM243 535v-120h65c44 0 62 31 62 56c0 27 -18 64 -62 64h-65zM363 -230h-133c21 57 32 119 32 178h144c-2 -84 -16 -120 -43 -178z" />
<glyph unicode="&#x158;" horiz-adv-x="595" d="M87 680h221c144 0 225 -103 225 -209c0 -64 -30 -124 -85 -161l145 -310h-163l-123 271h-64v-271h-156v680zM243 535v-120h65c44 0 62 31 62 56c0 27 -18 64 -62 64h-65zM133 856h130l33 -44c12 15 24 29 35 44h130l-89 -145h-150z" />
<glyph unicode="&#x155;" horiz-adv-x="410" d="M194 491l5 -66c32 53 87 75 115 75c34 0 63 -10 105 -39l-61 -130c-27 20 -49 27 -66 27c-37 0 -77 -30 -77 -82l1 -276h-149v491h127zM310 535h-129l89 145h152z" />
<glyph unicode="&#x157;" horiz-adv-x="416" d="M200 491l5 -66c32 53 87 75 115 75c34 0 63 -10 105 -39l-61 -130c-27 20 -49 27 -66 27c-37 0 -77 -30 -77 -82l1 -276h-149v491h127zM178 -230h-133c21 57 32 119 32 178h144c-2 -84 -16 -120 -43 -178z" />
<glyph unicode="&#x159;" horiz-adv-x="410" d="M194 491l5 -66c32 53 87 75 115 75c34 0 63 -10 105 -39l-61 -130c-27 20 -49 27 -66 27c-37 0 -77 -30 -77 -82l1 -276h-149v491h127zM85 680h130l33 -44c12 15 24 29 35 44h130l-89 -145h-150z" />
<glyph unicode="&#x15a;" horiz-adv-x="569" d="M37 66l76 119c60 -35 130 -50 167 -50c49 0 89 23 89 57c0 25 -13 55 -106 90c-129 48 -207 82 -207 199c0 111 81 209 242 209c79 0 151 -35 209 -67l-63 -129c-32 22 -91 51 -146 51c-41 0 -90 -14 -90 -54c0 -31 36 -46 108 -74c97 -37 216 -86 216 -215 c0 -110 -103 -212 -252 -212c-95 0 -191 44 -243 76zM353 711h-129l89 145h152z" />
<glyph unicode="&#x15b;" horiz-adv-x="406" d="M17 53l65 101c49 -28 97 -40 121 -40c14 0 36 11 36 32c0 13 -2 28 -52 47c-90 34 -152 60 -152 148c0 84 59 159 179 159c57 0 115 -30 162 -54l-55 -111c-25 17 -72 41 -107 41c-21 0 -30 -18 -30 -28c0 -13 3 -20 47 -37c72 -27 158 -62 158 -160 c0 -84 -77 -162 -186 -162c-67 0 -143 38 -186 64zM279 535h-129l89 145h152z" />
<glyph unicode="&#x15c;" horiz-adv-x="569" d="M37 66l76 119c60 -35 130 -50 167 -50c49 0 89 23 89 57c0 25 -13 55 -106 90c-129 48 -207 82 -207 199c0 111 81 209 242 209c79 0 151 -35 209 -67l-63 -129c-32 22 -91 51 -146 51c-41 0 -90 -14 -90 -54c0 -31 36 -46 108 -74c97 -37 216 -86 216 -215 c0 -110 -103 -212 -252 -212c-95 0 -191 44 -243 76zM259 711h-130l89 145h150l89 -145h-130l-35 44z" />
<glyph unicode="&#x15d;" horiz-adv-x="406" d="M17 53l65 101c49 -28 97 -40 121 -40c14 0 36 11 36 32c0 13 -2 28 -52 47c-90 34 -152 60 -152 148c0 84 59 159 179 159c57 0 115 -30 162 -54l-55 -111c-25 17 -72 41 -107 41c-21 0 -30 -18 -30 -28c0 -13 3 -20 47 -37c72 -27 158 -62 158 -160 c0 -84 -77 -162 -186 -162c-67 0 -143 38 -186 64zM176 535h-130l89 145h150l89 -145h-130l-35 44z" />
<glyph unicode="&#x160;" horiz-adv-x="569" d="M37 66l76 119c60 -35 130 -50 167 -50c49 0 89 23 89 57c0 25 -13 55 -106 90c-129 48 -207 82 -207 199c0 111 81 209 242 209c79 0 151 -35 209 -67l-63 -129c-32 22 -91 51 -146 51c-41 0 -90 -14 -90 -54c0 -31 36 -46 108 -74c97 -37 216 -86 216 -215 c0 -110 -103 -212 -252 -212c-95 0 -191 44 -243 76zM128 856h130l33 -44c12 15 24 29 35 44h130l-89 -145h-150z" />
<glyph unicode="&#x161;" horiz-adv-x="406" d="M17 53l65 101c49 -28 97 -40 121 -40c14 0 36 11 36 32c0 13 -2 28 -52 47c-90 34 -152 60 -152 148c0 84 59 159 179 159c57 0 115 -30 162 -54l-55 -111c-25 17 -72 41 -107 41c-21 0 -30 -18 -30 -28c0 -13 3 -20 47 -37c72 -27 158 -62 158 -160 c0 -84 -77 -162 -186 -162c-67 0 -143 38 -186 64zM46 680h130l33 -44c12 15 24 29 35 44h130l-89 -145h-150z" />
<glyph horiz-adv-x="390" d="M120 866c46 0 98 -47 126 -47c13 0 21 10 22 37h115c-6 -57 -41 -126 -115 -126c-51 0 -91 47 -125 47c-12 0 -20 -9 -21 -37h-115c7 57 38 126 113 126z" />
<glyph horiz-adv-x="230" d="M112 866c68 0 111 -44 111 -100c0 -54 -43 -97 -111 -97c-57 0 -105 43 -105 97c0 56 48 100 105 100zM115 795c-9 0 -21 -9 -21 -29c0 -16 12 -26 21 -26c11 0 23 10 23 26c0 20 -12 29 -23 29z" />
<glyph horiz-adv-x="194" d="M96 857c50 0 91 -40 91 -86s-41 -85 -91 -85c-54 0 -89 39 -89 85s35 86 89 86z" />
<glyph horiz-adv-x="338" d="M204 852h127c-1 -87 -80 -139 -159 -139c-78 0 -158 48 -165 139h131c3 -37 20 -58 32 -58s30 21 34 58z" />
<glyph horiz-adv-x="341" d="M7 852h129l34 -44c12 15 24 29 35 44h129l-89 -144h-149z" />
<glyph horiz-adv-x="341" d="M136 708h-129l89 144h149l89 -144h-129l-35 43z" />
<glyph horiz-adv-x="255" d="M136 708h-129l89 144h152z" />
<glyph horiz-adv-x="319" d="M312 751h-305v105h305v-105z" />
<glyph horiz-adv-x="380" d="M94 857c48 0 85 -35 85 -81c0 -44 -37 -81 -85 -81c-51 0 -87 37 -87 81c0 46 36 81 87 81zM286 857c47 0 87 -35 87 -81c0 -44 -40 -81 -87 -81c-52 0 -86 37 -86 81c0 46 34 81 86 81z" />
<glyph horiz-adv-x="255" d="M248 708h-130l-111 144h152z" />
<glyph unicode="&#xf6c3;" horiz-adv-x="190" d="M140 -230h-133c21 57 32 119 32 178h144c-2 -84 -16 -120 -43 -178z" />
<glyph horiz-adv-x="467" d="M157 709h-149l93 145h162zM342 709h-149l107 145h162z" />
<glyph horiz-adv-x="189" d="M140 500h-133c21 56 32 121 32 180h143c-2 -84 -15 -122 -42 -180z" />
<glyph unicode=" "  horiz-adv-x="250" />
<glyph unicode="&#x09;" horiz-adv-x="250" />
<glyph unicode="&#xa0;" horiz-adv-x="250" />
<glyph unicode="&#x2202;" horiz-adv-x="504" d="M214 690c186 0 252 -253 252 -395c0 -117 -36 -305 -218 -305c-155 0 -211 126 -211 231c0 106 56 231 189 231c25 0 63 -7 90 -30c-16 70 -55 132 -102 132c-18 0 -40 -10 -65 -33l-97 95c47 45 116 74 162 74zM246 318c-34 0 -60 -45 -60 -94c0 -62 33 -99 59 -99 c53 0 70 59 70 109c0 15 -1 30 -2 44c-10 24 -39 40 -67 40z" />
<glyph unicode="&#x16e;" horiz-adv-x="691" d="M614 680v-380c0 -205 -106 -310 -274 -310c-175 0 -263 110 -263 310v380h156v-380c0 -161 92 -165 107 -165c21 0 117 3 117 165v380h157zM342 920c68 0 111 -44 111 -100c0 -54 -43 -97 -111 -97c-57 0 -105 43 -105 97c0 56 48 100 105 100zM345 849 c-9 0 -21 -9 -21 -29c0 -16 12 -26 21 -26c11 0 23 10 23 26c0 20 -12 29 -23 29z" />
<glyph unicode="&#x170;" horiz-adv-x="691" d="M614 680v-380c0 -205 -106 -310 -274 -310c-175 0 -263 110 -263 310v380h156v-380c0 -161 92 -165 107 -165c21 0 117 3 117 165v380h157zM321 711h-149l93 145h162zM506 711h-149l107 145h162z" />
<glyph unicode="&#x171;" horiz-adv-x="530" d="M206 491v-323c0 -31 16 -47 37 -47c32 0 73 36 73 97l-2 273h149v-491h-129l-5 44c-36 -44 -92 -54 -118 -54c-71 0 -154 62 -154 170v331h149zM236 535h-149l93 145h162zM421 535h-149l107 145h162z" />
<glyph unicode="&#x16f;" horiz-adv-x="530" d="M206 491v-323c0 -31 16 -47 37 -47c32 0 73 36 73 97l-2 273h149v-491h-129l-5 44c-36 -44 -92 -54 -118 -54c-71 0 -154 62 -154 170v331h149zM259 729c68 0 111 -44 111 -100c0 -54 -43 -97 -111 -97c-57 0 -105 43 -105 97c0 56 48 100 105 100zM262 658 c-9 0 -21 -9 -21 -29c0 -16 12 -26 21 -26c11 0 23 10 23 26c0 20 -12 29 -23 29z" />
<glyph unicode="&#x17d;" horiz-adv-x="591" d="M554 538l-345 -393h345v-145h-517v142l345 393h-345v145h517v-142zM135 856h130l33 -44c12 15 24 29 35 44h130l-89 -145h-150z" />
<glyph unicode="&#x17e;" horiz-adv-x="435" d="M408 355l-227 -216h227v-139h-381v136l227 216h-227v139h381v-136zM57 680h130l33 -44c12 15 24 29 35 44h130l-89 -145h-150z" />
<glyph unicode="&#x142;" horiz-adv-x="283" d="M216 680v-211l69 36v-101l-69 -36v-368h-149v289l-72 -37v101l72 37v290h149z" />
<glyph unicode="&#x141;" horiz-adv-x="546" d="M7 323l80 42v315h156v-234l160 84v-106l-160 -84v-195h286v-145h-442v259l-80 -42v106z" />
<glyph unicode="&#xfe;" horiz-adv-x="548" d="M67 -230v910h150v-209c38 30 85 30 96 30c110 0 198 -114 198 -253c0 -138 -88 -258 -197 -258c-18 0 -69 8 -98 42v-262h-149zM290 116c47 0 78 60 78 132c0 71 -31 127 -78 127c-46 0 -82 -56 -82 -127c0 -72 36 -132 82 -132z" />
<glyph unicode="&#xf7;" horiz-adv-x="669" d="M335 170c53 0 98 -39 98 -91s-45 -90 -98 -90s-97 38 -97 90s44 91 97 91zM335 620c53 0 98 -39 98 -93c0 -50 -45 -89 -98 -89s-97 39 -97 89c0 54 44 93 97 93zM632 373v-145h-595v145h595z" />
<glyph unicode="&#xd7;" horiz-adv-x="605" d="M568 134l-107 -104l-161 161l-158 -161l-105 104l161 163l-159 158l103 103l158 -159l159 159l107 -103l-158 -158z" />
<glyph unicode="&#x2021;" horiz-adv-x="643" d="M400 -72h-157v216h-196v144h196v99h-196v144h196v217h157v-217h196v-144h-196v-99h196v-144h-196v-216z" />
<glyph unicode="&#x2020;" horiz-adv-x="643" d="M400 -72h-157v459h-196v144h196v217h157v-217h196v-144h-196v-459z" />
<glyph unicode="&#x192;" horiz-adv-x="419" d="M80 373v118h56c4 125 57 199 157 199c50 0 77 -12 141 -48l-48 -101c-22 15 -41 23 -56 23c-27 0 -44 -22 -45 -73h101l-1 -118h-100v-242h1v-128c0 -79 -51 -164 -157 -164c-51 0 -103 28 -142 58l68 104c22 -19 42 -34 57 -34c12 0 20 10 24 36v370h-56z" />
<glyph unicode="&#x2019;" horiz-adv-x="279" d="M182 429h-125c21 74 32 159 32 251h133c-6 -91 -12 -163 -40 -251z" />
<glyph unicode="&#x201c;" horiz-adv-x="439" d="M257 680h125c-21 -74 -32 -159 -32 -251h-133c6 91 12 163 40 251zM97 680h124c-20 -74 -31 -159 -31 -251h-133c5 91 12 164 40 251z" />
<glyph unicode="&#x201d;" horiz-adv-x="439" d="M182 429h-125c21 74 32 159 32 251h133c-6 -91 -12 -163 -40 -251zM342 429h-124c20 74 31 159 31 251h133c-5 -91 -12 -164 -40 -251z" />
<glyph unicode="&#x2018;" horiz-adv-x="278" d="M97 680h124c-20 -74 -31 -159 -31 -251h-133c5 91 12 164 40 251z" />
<glyph unicode="&#x201e;" horiz-adv-x="439" d="M182 -90h-125c21 74 32 159 32 251h133c-6 -91 -12 -163 -40 -251zM342 -90h-124c20 74 31 159 31 251h133c-5 -91 -12 -164 -40 -251z" />
<glyph unicode="&#x201a;" horiz-adv-x="279" d="M182 -90h-125c21 74 32 159 32 251h133c-6 -91 -12 -163 -40 -251z" />
<glyph unicode="&#x2022;" horiz-adv-x="416" d="M210 453c85 0 159 -64 159 -152c0 -81 -74 -145 -159 -145c-90 0 -163 64 -163 145c0 88 73 152 163 152z" />
<glyph unicode="&#x20ac;" horiz-adv-x="672" d="M452 231h-183c25 -67 72 -94 113 -94c58 0 95 38 139 104l114 -84c-75 -115 -165 -167 -253 -167c-125 0 -240 96 -279 241h-50v90h36v40h-36v90h50c40 143 154 239 278 239c91 0 177 -48 253 -165l-115 -84c-43 67 -79 102 -137 102c-49 0 -91 -34 -113 -92h183v-90 h-201v-40h201v-90z" />
<glyph unicode="&#x2039;" horiz-adv-x="350" d="M159 82l-109 216l108 184h166l-108 -184l109 -216h-166z" />
<glyph unicode="&#x203a;" horiz-adv-x="350" d="M300 298l-109 -216h-166l109 216l-108 184h166z" />
<glyph unicode="&#x178;" horiz-adv-x="645" d="M244 324l-250 356h172l156 -225l155 225h171l-247 -356v-324h-157v324zM225 862c48 0 85 -35 85 -81c0 -44 -37 -81 -85 -81c-51 0 -87 37 -87 81c0 46 36 81 87 81zM417 862c47 0 87 -35 87 -81c0 -44 -40 -81 -87 -81c-52 0 -86 37 -86 81c0 46 34 81 86 81z" />
<glyph unicode="&#x2122;" horiz-adv-x="848" d="M379 542h-100v-287h-142v287h-100v138h342v-138zM550 255l-26 102l-8 -102h-145l44 425h125l50 -142c18 47 31 95 48 142h123l50 -425h-146l-5 102l-29 -102h-81z" />
<glyph unicode="&#x17b;" horiz-adv-x="591" d="M554 538l-345 -393h345v-145h-517v142l345 393h-345v145h517v-142zM297 886c50 0 91 -40 91 -86s-41 -85 -91 -85c-54 0 -89 39 -89 85s35 86 89 86z" />
<glyph unicode="&#x17c;" horiz-adv-x="435" d="M408 355l-227 -216h227v-139h-381v136l227 216h-227v139h381v-136zM222 690c49 0 92 -42 92 -89c0 -50 -43 -89 -92 -89c-57 0 -95 39 -95 89c0 47 38 89 95 89z" />
<glyph unicode="&#x172;" horiz-adv-x="676" d="M614 680v-380c0 -165 -68 -265 -182 -298c-27 -23 -43 -53 -43 -82c0 -23 23 -52 68 -66l-21 -94c-116 35 -186 89 -186 163c0 24 12 49 32 72c-137 22 -205 128 -205 305v380h156v-380c0 -161 92 -165 107 -165c21 0 117 3 117 165v380h157z" />
<glyph unicode="&#x173;" horiz-adv-x="530" d="M206 491v-323c0 -31 16 -47 37 -47c32 0 73 36 73 97l-2 273h149v-491c-25 -23 -44 -53 -44 -81c0 -23 23 -52 68 -66l-21 -94c-116 35 -186 89 -186 163c0 32 21 65 52 92l-3 30c-36 -44 -92 -54 -118 -54c-71 0 -154 62 -154 170v331h149z" />
<glyph unicode="&#x16a;" horiz-adv-x="691" d="M614 680v-380c0 -205 -106 -310 -274 -310c-175 0 -263 110 -263 310v380h156v-380c0 -161 92 -165 107 -165c21 0 117 3 117 165v380h157zM490 751h-305v105h305v-105z" />
<glyph unicode="&#x16b;" horiz-adv-x="530" d="M206 491v-323c0 -31 16 -47 37 -47c32 0 73 36 73 97l-2 273h149v-491h-129l-5 44c-36 -44 -92 -54 -118 -54c-71 0 -154 62 -154 170v331h149zM415 575h-306v105h306v-105z" />
<glyph unicode="&#x179;" horiz-adv-x="591" d="M554 538l-345 -393h345v-145h-517v142l345 393h-345v145h517v-142zM353 712h-129l89 144h152z" />
<glyph unicode="&#x17a;" horiz-adv-x="435" d="M408 355l-227 -216h227v-139h-381v136l227 216h-227v139h381v-136zM279 535h-129l89 145h152z" />
<glyph unicode="&#x164;" horiz-adv-x="513" d="M516 535h-181v-535h-156v535h-182v145h519v-145zM99 856h130l33 -44c12 15 24 29 35 44h130l-89 -145h-150z" />
<glyph unicode="&#x165;" horiz-adv-x="449" d="M72 165v208h-55v118h55v118h149v-118h97v-118h-97v-208c0 -27 16 -40 28 -40c17 0 39 10 64 26l54 -112c-35 -23 -86 -49 -134 -49c-112 0 -161 95 -161 175zM397 500h-133c21 56 32 121 32 180h143c-2 -84 -15 -122 -42 -180z" />
<glyph unicode="&#x2260;" horiz-adv-x="657" d="M229 26h-179l82 103h-67v146h183l36 46h-219v144h334l56 70h178l-56 -70h42v-144h-156l-36 -46h192v-146h-308z" />
<glyph unicode="&#x2264;" horiz-adv-x="466" d="M428 142v-142h-391v142h391zM230 468l198 -116v-162l-391 239v69l392 239v-160z" />
<glyph unicode="&#x2265;" horiz-adv-x="466" d="M38 0v142h391v-142h-391zM38 352l198 116c-61 36 -125 67 -199 109v160l392 -239v-69l-391 -239v162z" />
<glyph unicode="&#x163;" horiz-adv-x="364" d="M138 -97l21 104c-60 31 -87 98 -87 158v208h-55v118h55v118h149v-118h97v-118h-97v-208c0 -27 16 -40 28 -40c17 0 39 10 64 26l54 -112c-29 -19 -68 -39 -107 -46l-4 -24c58 -19 83 -58 83 -97c0 -56 -50 -112 -130 -112c-72 0 -115 40 -136 70l56 49 c8 -9 29 -33 49 -33c19 0 28 13 28 26c0 17 -14 35 -38 35c-10 0 -21 -1 -30 -4z" />
<glyph unicode="&#x162;" horiz-adv-x="513" d="M185 -97l19 97h-25v535h-182v145h519v-145h-181v-535h-27l-5 -31c58 -19 83 -58 83 -97c0 -56 -50 -112 -130 -112c-72 0 -115 40 -136 70l56 49c8 -9 29 -33 49 -33c19 0 28 13 28 26c0 17 -14 35 -38 35c-10 0 -21 -1 -30 -4z" />
<glyph unicode="&#x15e;" horiz-adv-x="569" d="M211 -97l18 91c-77 11 -150 45 -192 72l76 119c60 -35 130 -50 167 -50c49 0 89 23 89 57c0 25 -13 55 -106 90c-129 48 -207 82 -207 199c0 111 81 209 242 209c79 0 151 -35 209 -67l-63 -129c-32 22 -91 51 -146 51c-41 0 -90 -14 -90 -54c0 -31 36 -46 108 -74 c97 -37 216 -86 216 -215c0 -97 -79 -187 -199 -207l-4 -26c58 -19 83 -58 83 -97c0 -56 -50 -112 -130 -112c-72 0 -115 40 -136 70l56 49c8 -9 29 -33 49 -33c19 0 28 13 28 26c0 17 -14 35 -38 35c-10 0 -21 -1 -30 -4z" />
<glyph unicode="&#x15f;" horiz-adv-x="406" d="M137 -98l18 93c-53 11 -105 38 -138 58l65 101c49 -28 97 -40 121 -40c14 0 36 11 36 32c0 13 -2 28 -52 47c-90 34 -152 60 -152 148c0 84 59 159 179 159c57 0 115 -30 162 -54l-55 -111c-25 17 -72 41 -107 41c-21 0 -30 -18 -30 -28c0 -13 3 -20 47 -37 c72 -27 158 -62 158 -160c0 -69 -51 -133 -129 -154l-5 -29c58 -19 83 -58 83 -97c0 -56 -50 -112 -130 -112c-72 0 -115 40 -136 70l56 49c8 -9 29 -33 49 -33c19 0 28 13 28 26c0 17 -14 35 -38 35c-10 0 -21 -1 -30 -4z" />
<glyph unicode="&#x21a;" horiz-adv-x="513" d="M516 535h-181v-535h-156v535h-182v145h519v-145zM286 -230h-133c21 57 32 119 32 178h144c-2 -84 -16 -120 -43 -178z" />
<glyph unicode="&#x21b;" horiz-adv-x="364" d="M72 165v208h-55v118h55v118h149v-118h97v-118h-97v-208c0 -27 16 -40 28 -40c17 0 39 10 64 26l54 -112c-35 -23 -86 -49 -134 -49c-112 0 -161 95 -161 175zM246 -230h-133c21 57 32 119 32 178h144c-2 -84 -16 -120 -43 -178z" />
<glyph unicode="&#x218;" horiz-adv-x="569" d="M37 66l76 119c60 -35 130 -50 167 -50c49 0 89 23 89 57c0 25 -13 55 -106 90c-129 48 -207 82 -207 199c0 111 81 209 242 209c79 0 151 -35 209 -67l-63 -129c-32 22 -91 51 -146 51c-41 0 -90 -14 -90 -54c0 -31 36 -46 108 -74c97 -37 216 -86 216 -215 c0 -110 -103 -212 -252 -212c-95 0 -191 44 -243 76zM316 -230h-133c21 57 32 119 32 178h144c-2 -84 -16 -120 -43 -178z" />
<glyph unicode="&#x219;" horiz-adv-x="406" d="M17 53l65 101c49 -28 97 -40 121 -40c14 0 36 11 36 32c0 13 -2 28 -52 47c-90 34 -152 60 -152 148c0 84 59 159 179 159c57 0 115 -30 162 -54l-55 -111c-25 17 -72 41 -107 41c-21 0 -30 -18 -30 -28c0 -13 3 -20 47 -37c72 -27 158 -62 158 -160 c0 -84 -77 -162 -186 -162c-67 0 -143 38 -186 64zM235 -230h-133c21 57 32 119 32 178h144c-2 -84 -16 -120 -43 -178z" />
<glyph unicode="&#x2206;" horiz-adv-x="755" d="M377 759l341 -759h-681zM378 394l-115 -249h226z" />
<glyph unicode="&#x25ca;" horiz-adv-x="580" d="M37 339l252 367l254 -367l-254 -364zM369 338l-80 116c-44 -66 -60 -88 -79 -114l80 -118z" />
<glyph unicode="&#x2211;" horiz-adv-x="557" d="M422 357l-167 -212h265v-145h-483v117l190 236l-190 209v118h477v-145h-253z" />
<glyph unicode="&#x221a;" horiz-adv-x="649" d="M333 249l158 431h161l-254 -680h-130l-112 291l-38 -52l-121 93l122 159h120z" />
<glyph unicode="&#x221e;" horiz-adv-x="741" d="M232 387c57 0 100 -12 132 -41c35 23 94 47 146 47c97 0 194 -80 194 -186c0 -87 -61 -180 -192 -180c-54 0 -102 17 -136 42c-34 -22 -84 -42 -137 -42c-132 0 -202 92 -202 181c0 86 65 179 195 179zM237 247c-34 0 -50 -18 -50 -39c0 -20 14 -41 50 -41 c30 0 51 26 61 43c-15 17 -41 37 -61 37zM506 253c-20 0 -46 -24 -62 -43c10 -17 30 -43 62 -43c35 0 49 21 49 41c0 22 -16 45 -49 45z" />
<glyph unicode="&#x220f;" horiz-adv-x="578" d="M541 -105h-156v641h-193v-641h-155v786h504v-786z" />
<glyph unicode="&#x222b;" horiz-adv-x="442" d="M147 491c0 125 57 199 157 199c50 0 77 -12 141 -48l-48 -101c-22 15 -42 23 -57 23c-27 0 -44 -22 -44 -73v-488c0 -79 -51 -164 -157 -164c-51 0 -103 28 -142 58l68 104c22 -19 42 -34 57 -34c14 0 23 13 25 48v476z" />
<glyph unicode="&#x3a9;" horiz-adv-x="733" d="M366 690c177 0 317 -157 317 -350c0 -70 -18 -138 -94 -195h107v-145h-315v129c81 32 139 117 139 211c0 113 -65 203 -154 203c-87 0 -152 -90 -152 -203c0 -92 59 -179 141 -211v-129h-318v145h109c-74 57 -95 127 -95 195c0 193 141 350 315 350z" />
<glyph unicode="&#x2248;" horiz-adv-x="655" d="M479 506l139 -65c-52 -100 -104 -126 -163 -126c-68 0 -131 32 -202 32c-26 0 -52 -12 -76 -49l-140 62c54 100 106 127 166 127c67 0 131 -31 200 -31c26 0 51 13 76 50zM479 297l139 -64c-52 -100 -104 -126 -163 -126c-68 0 -131 32 -202 32c-26 0 -52 -12 -76 -49 l-140 62c54 100 106 127 166 127c67 0 131 -31 200 -31c26 0 51 13 76 49z" />
<glyph unicode="&#x3c0;" horiz-adv-x="571" d="M325 165v187h-83v-352h-149v352h-56v139h497v-139h-60v-187c0 -27 16 -40 28 -40c9 0 20 2 32 8v-135c-16 -5 -32 -8 -48 -8c-112 0 -161 95 -161 175z" />
<glyph unicode="&#x12c;" horiz-adv-x="329" d="M242 0h-155v680h155v-680zM200 856h127c-1 -87 -80 -139 -159 -139c-78 0 -158 48 -165 139h131c3 -37 20 -58 32 -58s30 21 34 58z" />
<glyph unicode="&#x12d;" horiz-adv-x="283" d="M216 0h-149v491h149v-491zM174 680h128c-1 -87 -80 -139 -160 -139c-78 0 -158 48 -165 139h132c3 -37 19 -57 31 -57s30 20 34 57z" />
<glyph unicode="&#x168;" horiz-adv-x="691" d="M614 680v-380c0 -205 -106 -310 -274 -310c-175 0 -263 110 -263 310v380h156v-380c0 -161 92 -165 107 -165c21 0 117 3 117 165v380h157zM268 866c46 0 98 -47 126 -47c13 0 21 10 22 37h115c-6 -57 -41 -126 -115 -126c-51 0 -91 47 -125 47c-12 0 -20 -9 -21 -37 h-115c7 57 38 126 113 126z" />
<glyph unicode="&#x169;" horiz-adv-x="530" d="M206 491v-323c0 -31 16 -47 37 -47c32 0 73 36 73 97l-2 273h149v-491h-129l-5 44c-36 -44 -92 -54 -118 -54c-71 0 -154 62 -154 170v331h149zM186 690c46 0 98 -47 126 -47c13 0 21 10 22 37h115c-6 -57 -41 -126 -115 -126c-51 0 -91 47 -125 47c-12 0 -20 -9 -21 -37 h-115c7 57 38 126 113 126z" />
<glyph unicode="&#x16c;" horiz-adv-x="691" d="M614 680v-380c0 -205 -106 -310 -274 -310c-175 0 -263 110 -263 310v380h156v-380c0 -161 92 -165 107 -165c21 0 117 3 117 165v380h157zM382 856h127c-1 -87 -80 -139 -159 -139c-78 0 -158 48 -165 139h131c3 -37 20 -58 32 -58s30 21 34 58z" />
<glyph unicode="&#x16d;" horiz-adv-x="530" d="M206 491v-323c0 -31 16 -47 37 -47c32 0 73 36 73 97l-2 273h149v-491h-129l-5 44c-36 -44 -92 -54 -118 -54c-71 0 -154 62 -154 170v331h149zM297 680h128c-1 -87 -80 -139 -160 -139c-78 0 -158 48 -165 139h132c3 -37 19 -57 31 -57s30 20 34 57z" />
<glyph unicode="&#x174;" horiz-adv-x="857" d="M390 680h78l92 -417l107 417h153l-193 -680h-112l-87 318l-87 -318h-111l-193 680h152l106 -417zM396 712h-129l89 144h149l89 -144h-129l-35 43z" />
<glyph unicode="&#x175;" horiz-adv-x="634" d="M359 0l-43 174l-43 -174h-120l-136 491h137l71 -286l53 286h75l53 -287l74 287h137l-138 -491h-120zM285 535h-130l89 145h150l89 -145h-130l-35 44z" />
<glyph unicode="&#x176;" horiz-adv-x="645" d="M244 324l-250 356h172l156 -225l155 225h171l-247 -356v-324h-157v324zM289 712h-129l89 144h149l89 -144h-129l-35 43z" />
<glyph unicode="&#x177;" horiz-adv-x="524" d="M276 -121c-32 -83 -79 -119 -138 -119c-38 0 -80 16 -126 38l52 115c32 -9 58 -13 63 -13c7 0 12 3 13 8l51 131c-55 147 -117 305 -173 452h155l94 -262l90 262h155zM243 535h-130l89 145h150l89 -145h-130l-35 44z" />
<glyph unicode="&#x17f;" horiz-adv-x="356" d="M17 373v118h56c4 125 57 199 157 199c50 0 77 -12 141 -48l-48 -101c-22 15 -41 23 -56 23c-27 0 -45 -22 -45 -73v-491h-149v373h-56z" />
<glyph unicode="&#x166;" horiz-adv-x="513" d="M516 538h-181v-138h79v-105h-79v-292h-156v292h-81v105h81v138h-182v145h519v-145z" />
<glyph unicode="&#x167;" horiz-adv-x="364" d="M72 168v47h-55v105h55v56h-55v118h55v118h149v-118h97v-118h-97v-56h58v-105h-58v-47c0 -27 16 -40 28 -40c17 0 39 10 64 26l54 -112c-35 -23 -86 -49 -134 -49c-112 0 -161 95 -161 175z" />
<glyph unicode="&#x14a;" horiz-adv-x="671" d="M584 13c-1 -135 -62 -243 -222 -243c-26 0 -70 9 -129 31l64 133c25 -15 43 -22 57 -22c50 0 84 56 88 98c-43 70 -75 125 -107 181c-34 58 -59 97 -94 156v-347h-154v680h135l208 -354v354h154v-667z" />
<glyph unicode="&#x14b;" horiz-adv-x="530" d="M324 322c0 31 -16 48 -37 48c-32 0 -73 -37 -73 -98l2 -272h-149v491h126l8 -39c36 37 92 48 118 48c71 0 154 -62 154 -170v-327c-4 -112 -58 -233 -210 -233c-27 0 -68 10 -129 30l65 130c34 -13 60 -20 65 -20c54 0 60 81 60 104v308z" />
<glyph unicode="&#x1e80;" horiz-adv-x="857" d="M390 680h78l92 -417l107 417h153l-193 -680h-112l-87 318l-87 -318h-111l-193 680h152l106 -417zM499 712h-130l-111 144h152z" />
<glyph unicode="&#x1e81;" horiz-adv-x="634" d="M359 0l-43 174l-43 -174h-120l-136 491h137l71 -286l53 286h75l53 -287l74 287h137l-138 -491h-120zM385 535h-129l-112 145h152z" />
<glyph unicode="&#x1e82;" horiz-adv-x="857" d="M390 680h78l92 -417l107 417h153l-193 -680h-112l-87 318l-87 -318h-111l-193 680h152l106 -417zM493 712h-129l89 144h152z" />
<glyph unicode="&#x1e83;" horiz-adv-x="634" d="M359 0l-43 174l-43 -174h-120l-136 491h137l71 -286l53 286h75l53 -287l74 287h137l-138 -491h-120zM383 535h-129l89 145h152z" />
<glyph unicode="&#x1e84;" horiz-adv-x="857" d="M390 680h78l92 -417l107 417h153l-193 -680h-112l-87 318l-87 -318h-111l-193 680h152l106 -417zM332 856c48 0 85 -35 85 -81c0 -44 -37 -81 -85 -81c-51 0 -87 37 -87 81c0 46 36 81 87 81zM524 856c47 0 87 -35 87 -81c0 -44 -40 -81 -87 -81c-52 0 -86 37 -86 81 c0 46 34 81 86 81z" />
<glyph unicode="&#x1e85;" horiz-adv-x="634" d="M359 0l-43 174l-43 -174h-120l-136 491h137l71 -286l53 286h75l53 -287l74 287h137l-138 -491h-120zM220 690c49 0 85 -35 85 -81c0 -44 -36 -82 -85 -82c-52 0 -87 38 -87 82c0 46 35 81 87 81zM412 690c48 0 88 -35 88 -81c0 -44 -40 -82 -88 -82c-51 0 -86 38 -86 82 c0 46 35 81 86 81z" />
<glyph unicode="&#xfb05;" horiz-adv-x="659" d="M308 683v-123c-31 0 -86 -1 -86 -45v-515h-149v373h-56v118h56v24c0 121 102 173 188 173c8 0 19 0 47 -5zM367 165v208h-55v118h55v118h149v-118h97v-118h-97v-208c0 -27 16 -40 28 -40c17 0 39 10 64 26l54 -112c-35 -23 -86 -49 -134 -49c-112 0 -161 95 -161 175z " />
<glyph unicode="&#x20a3;" horiz-adv-x="520" d="M483 535h-241v-100h216v-145h-216v-71h126v-90h-126v-129h-155v129h-50v90h50v461h396v-145z" />
<glyph unicode="&#x20a4;" horiz-adv-x="550" d="M47 145c37 1 50 15 50 32v54h-50v90h50v40h-50v90h50v7c0 121 53 232 208 232c73 0 152 -34 198 -60l-67 -123c-36 19 -85 38 -131 38c-42 0 -51 -45 -51 -85v-9h147v-90h-147v-40h147v-90h-147v-62c0 -9 -2 -17 -10 -24h234v-145h-431v145z" />
<glyph unicode="&#x20a7;" horiz-adv-x="539" d="M72 680h238c124 0 199 -76 218 -164h39v-90h-39c-19 -88 -94 -163 -218 -163h-84v-263h-154v426h-35v90h35v164zM310 407c20 0 34 8 44 19h-128v-19h84zM226 535v-19h127c-9 11 -23 19 -43 19h-84z" />
<glyph unicode="&#x2113;" horiz-adv-x="384" d="M177 524c0 -56 -1 -170 -1 -242c82 82 122 146 123 272c0 64 -33 89 -63 89c-34 0 -59 -48 -59 -119zM90 148v22l-41 -27l-23 37l64 54v292c0 107 75 164 146 164c63 0 122 -45 122 -139c0 -143 -77 -235 -182 -333v-68c0 -40 9 -102 48 -102c27 0 51 11 73 29l27 -55 c-22 -16 -57 -32 -101 -32c-94 0 -133 84 -133 158z" />
<glyph unicode="&#x212e;" horiz-adv-x="622" d="M328 -11c-200 0 -290 147 -290 307c0 199 123 305 279 305c164 0 267 -106 267 -281c0 -12 -1 -25 -2 -37h-434v-148c46 -62 120 -88 180 -88c68 0 146 30 186 100l54 -42c-57 -77 -137 -116 -240 -116zM148 460v-123h332v128c-36 50 -93 78 -163 78 c-72 0 -132 -30 -169 -83z" />
<glyph horiz-adv-x="416" d="M210 521c85 0 159 -64 159 -152c0 -81 -74 -145 -159 -145c-90 0 -163 64 -163 145c0 88 73 152 163 152z" />
<glyph horiz-adv-x="351" d="M98 483h158v-483h-158v483zM176 522c-51 0 -89 38 -89 86c0 46 38 82 89 82c49 0 88 -36 88 -82c0 -48 -39 -86 -88 -86z" />
<glyph horiz-adv-x="331" d="M182 464c52 0 97 -39 97 -93c0 -50 -45 -89 -97 -89c-55 0 -100 39 -100 89c0 54 45 93 100 93z" />
<glyph horiz-adv-x="448" d="M96 467l-99 100c46 47 121 123 208 123c103 0 206 -59 206 -196c0 -124 -133 -157 -133 -230v-63h-156v63c0 95 127 147 127 230c0 36 -20 49 -45 49c-41 0 -73 -41 -108 -76zM202 158c49 0 91 -37 91 -86c0 -44 -42 -82 -91 -82c-51 0 -89 38 -89 82c0 49 38 86 89 86z " />
<glyph horiz-adv-x="448" d="M352 213l99 -100c-46 -47 -121 -123 -208 -123c-103 0 -206 59 -206 196c0 124 133 157 133 230v63h156v-63c0 -95 -127 -147 -127 -230c0 -36 20 -49 45 -49c41 0 73 41 108 76zM246 522c-49 0 -91 37 -91 86c0 44 42 82 91 82c51 0 89 -38 89 -82 c0 -49 -38 -86 -89 -86z" />
<glyph horiz-adv-x="379" d="M272 374c30 -39 43 -71 43 -139c0 -46 -5 -131 -5 -172c0 -20 11 -45 42 -68v-182c-167 96 -196 175 -196 261c0 44 4 125 4 161c0 47 -30 81 -93 138c63 58 93 92 93 139c0 36 -4 117 -4 161c0 86 29 165 196 261v-182c-31 -23 -42 -48 -42 -68c0 -41 5 -126 5 -172 c0 -68 -13 -100 -43 -138z" />
<glyph horiz-adv-x="379" d="M107 374c-30 38 -43 70 -43 138c0 46 5 131 5 172c0 20 -11 45 -42 68v182c167 -96 196 -175 196 -261c0 -44 -4 -125 -4 -161c0 -47 30 -81 93 -139c-63 -57 -93 -91 -93 -138c0 -36 4 -117 4 -161c0 -86 -29 -165 -196 -261v182c31 23 42 48 42 68c0 41 -5 126 -5 172 c0 68 13 100 43 139z" />
<glyph horiz-adv-x="366" d="M87 -154v988h252v-145h-97v-698h97v-145h-252z" />
<glyph horiz-adv-x="367" d="M279 834v-988h-252v145h97v698h-97v145h252z" />
<glyph horiz-adv-x="438" d="M57 373c0 164 87 383 258 498l96 -115c-121 -89 -192 -253 -192 -383s71 -294 192 -383l-96 -115c-171 115 -258 334 -258 498z" />
<glyph horiz-adv-x="439" d="M381 373c0 -164 -87 -383 -258 -498l-96 115c121 89 192 253 192 383s-71 294 -192 383l96 115c171 -115 258 -334 258 -498z" />
<glyph horiz-adv-x="325" d="M238 -59h-151v797h151v-797z" />
<glyph horiz-adv-x="947" d="M27 440h893v-145h-893v145z" />
<glyph horiz-adv-x="605" d="M27 440h551v-145h-551v145z" />
<glyph horiz-adv-x="506" d="M439 295h-412v145h412v-145z" />
<glyph horiz-adv-x="599" d="M408 157l-109 216l108 184h166l-108 -184l109 -216h-166zM159 157l-109 216l108 184h166l-108 -184l109 -216h-166z" />
<glyph horiz-adv-x="599" d="M300 373l-109 -216h-166l109 216l-108 184h166zM549 373l-109 -216h-166l109 216l-108 184h166z" />
<glyph horiz-adv-x="350" d="M159 157l-109 216l108 184h166l-108 -184l109 -216h-166z" />
<glyph horiz-adv-x="350" d="M300 373l-109 -216h-166l109 216l-108 184h166z" />
<glyph horiz-adv-x="842" d="M595 280h-113l-4 24c-25 -35 -82 -46 -99 -46c-62 0 -124 45 -124 120c0 84 79 123 164 123c13 0 40 -1 53 -3c0 46 -44 83 -85 83c-130 0 -192 -98 -192 -210c0 -123 73 -240 223 -240c148 0 237 149 239 274h143c-2 -226 -179 -411 -381 -411c-204 0 -377 173 -377 377 c0 189 138 347 340 347c111 0 213 -81 213 -216v-222zM472 378v59c-55 -8 -110 -20 -110 -59c0 -28 24 -34 30 -34c36 0 60 18 80 34z" />
<glyph d="M289 690c167 0 293 -162 293 -352s-126 -348 -293 -348c-166 0 -287 157 -287 349c0 191 121 351 287 351zM289 545c-65 0 -124 -91 -124 -206c0 -113 59 -204 124 -204c71 0 130 91 130 204c0 115 -59 206 -130 206z" />
<glyph d="M506 145v-145h-381v145h112v327c-20 -14 -45 -31 -63 -42l-96 106l188 144h128v-535h112z" />
<glyph d="M511 492c0 -152 -195 -219 -276 -347h274v-145h-436v128c0 133 274 245 274 360c0 27 -16 55 -49 55c-32 0 -67 -26 -67 -85h-152c0 143 85 232 214 232c121 0 218 -70 218 -198z" />
<glyph d="M279 -10c-128 0 -215 79 -215 219h152c2 -50 38 -72 73 -72c44 0 67 36 67 73s-23 73 -69 73h-54v144h52c34 0 53 31 53 61c0 27 -16 55 -49 55c-32 0 -67 -26 -67 -85h-152c0 143 85 232 214 232c121 0 218 -70 218 -198c0 -54 -22 -95 -64 -128c44 -27 81 -86 81 -157 c0 -130 -89 -217 -240 -217z" />
<glyph d="M466 291h75v-144h-75v-147h-156v147h-268v142l279 391h145v-389zM309 291v156l-123 -156h123z" />
<glyph d="M486 535h-226l-15 -77c16 13 48 22 71 22c105 0 205 -90 205 -241c0 -101 -50 -249 -240 -249c-130 0 -218 93 -218 226h152c2 -58 44 -79 69 -79c47 0 74 54 74 108c0 46 -21 89 -64 89c-36 0 -58 -18 -76 -41h-152l66 387h354v-145z" />
<glyph d="M312 544c-68 0 -103 -66 -105 -125c28 34 82 47 127 47c120 0 200 -115 200 -227c0 -110 -65 -249 -236 -249c-208 0 -249 213 -249 348c0 190 69 352 253 352c81 0 151 -34 216 -114l-101 -97c-30 41 -73 65 -105 65zM301 339c-33 0 -72 -19 -88 -45 c1 -61 22 -157 86 -157c32 0 72 34 72 103c0 58 -31 99 -70 99z" />
<glyph d="M348 535h-276v145h439v-141l-242 -539h-165z" />
<glyph d="M292 -10c-143 0 -231 103 -231 204c0 77 35 138 76 163c-31 29 -56 85 -56 135c0 130 104 198 211 198c104 0 211 -62 211 -189c0 -54 -29 -105 -66 -134c38 -29 86 -93 86 -164c0 -115 -90 -213 -231 -213zM292 137c35 0 68 24 68 63c0 51 -44 73 -66 82 c-25 -9 -71 -30 -71 -82c0 -36 31 -63 69 -63zM345 500c0 41 -20 52 -53 52c-19 0 -54 -9 -54 -52c0 -37 30 -59 55 -71c28 19 52 44 52 71z" />
<glyph d="M271 136c68 0 103 66 105 125c-28 -34 -82 -47 -127 -47c-120 0 -200 115 -200 227c0 110 65 249 236 249c208 0 249 -213 249 -348c0 -190 -69 -352 -253 -352c-81 0 -151 34 -216 114l101 97c30 -41 73 -65 105 -65zM282 341c33 0 72 19 88 45c-1 61 -22 157 -86 157 c-32 0 -72 -34 -72 -103c0 -58 31 -99 70 -99z" />
<glyph d="M400 231h-183c25 -67 72 -94 113 -94c58 0 95 38 139 104l114 -84c-75 -115 -165 -167 -253 -167c-125 0 -240 96 -279 241h-50v90h36v40h-36v90h50c40 143 154 239 278 239c91 0 177 -48 253 -165l-115 -84c-43 67 -79 102 -137 102c-49 0 -91 -34 -113 -92h183v-90 h-201v-40h201v-90z" />
<glyph d="M161 373v118h56c4 125 57 199 157 199c50 0 77 -12 141 -48l-48 -101c-22 15 -41 23 -56 23c-27 0 -44 -22 -45 -73h101l-1 -118h-100v-370c0 -79 -50 -164 -156 -164c-51 0 -103 28 -142 58l68 104c22 -19 42 -34 57 -34c12 0 20 10 24 36v370h-56z" />
<glyph d="M396 588v-105c37 -15 73 -41 107 -85l-96 -84c-26 38 -59 58 -90 58c-47 0 -88 -45 -88 -127s41 -127 88 -127c31 0 64 20 90 58l96 -84c-34 -44 -70 -71 -107 -86v-106h-156v101c-93 30 -160 123 -160 244c0 122 67 214 160 244v99h156z" />
<glyph d="M215 324l-32 45h-122v90h59l-155 221h172l156 -225l155 225h171l-154 -221h61v-90h-123l-31 -46h154v-90h-154v-233h-157v233h-154v90z" />
<glyph d="M44 67l76 119c60 -35 130 -51 167 -51c49 0 89 24 89 58c0 25 -13 55 -106 90c-129 48 -212 82 -212 199c0 90 56 171 163 199v71h130v-65c61 -10 116 -38 163 -63l-63 -129c-32 22 -91 51 -146 51c-41 0 -85 -14 -85 -54c0 -36 29 -46 103 -74c97 -38 216 -86 216 -215 c0 -94 -74 -182 -188 -206v-64h-130v64c-72 13 -137 45 -177 70z" />
<glyph d="M417 329h-146v-160c0 -9 -2 -17 -10 -24h234v-145h-431v145c37 1 50 15 50 32v152h-49v90h49v39c0 121 53 232 208 232c73 0 152 -34 198 -60l-67 -123c-36 19 -85 38 -131 38c-42 0 -51 -45 -51 -85v-41h146v-90z" />
<glyph d="M515 535h-241v-100h216v-145h-216v-71h126v-90h-126v-129h-155v129h-50v90h50v461h396v-145z" />
<glyph d="M72 145c37 1 50 15 50 32v54h-50v90h50v40h-50v90h50v7c0 121 53 232 208 232c73 0 152 -34 198 -60l-67 -123c-36 19 -85 38 -131 38c-42 0 -51 -45 -51 -85v-9h147v-90h-147v-40h147v-90h-147v-62c0 -9 -2 -17 -10 -24h234v-145h-431v145z" />
<glyph d="M62 680h238c124 0 199 -76 218 -164h39v-90h-39c-19 -88 -94 -163 -218 -163h-84v-263h-154v426h-35v90h35v164zM300 407c20 0 34 8 44 19h-128v-19h84zM216 535v-19h127c-9 11 -23 19 -43 19h-84z" />
<glyph d="M290 541c141 0 247 -130 247 -278s-106 -273 -246 -273c-141 0 -245 125 -245 274s105 277 244 277zM291 401c-48 0 -91 -63 -91 -137c0 -76 43 -134 91 -134c47 0 92 58 92 134c0 74 -45 137 -92 137z" />
<glyph d="M234 144l1 195l-52 -30l-83 101l163 125h128l-1 -391h93v-144h-342v144h93z" />
<glyph d="M332 353c0 23 -12 44 -40 48c-33 -1 -46 -28 -48 -67h-149c4 111 80 207 198 207c105 0 193 -63 193 -181c0 -89 -93 -161 -200 -216h214v-144h-416v144c57 54 248 157 248 209z" />
<glyph d="M292 -100c-130 2 -209 88 -209 213h149c0 -44 24 -71 56 -72c37 1 58 32 58 62c0 31 -22 64 -62 67h-46v123h43c28 0 50 31 50 60c0 23 -17 48 -48 48s-43 -29 -45 -67h-149c4 111 80 207 198 207c105 0 198 -63 198 -178c0 -42 -32 -106 -64 -128c40 -18 79 -77 79 -138 c0 -132 -106 -197 -208 -197z" />
<glyph d="M456 187h67v-140h-67v-137h-150v137h-246v140l257 348h139v-348zM305 187v146l-113 -146h113z" />
<glyph d="M68 113h154c3 -44 40 -73 69 -73c31 0 72 32 72 86c0 43 -31 85 -72 85c-21 0 -52 -14 -69 -46h-154l66 370h349v-140h-227l-18 -88c31 28 80 43 113 43c100 0 166 -102 166 -208c0 -118 -74 -242 -236 -242c-116 0 -198 97 -213 213z" />
<glyph d="M305 631c69 0 138 -25 199 -105l-96 -83c-22 32 -65 45 -98 45c-32 0 -72 -28 -84 -90c16 19 54 41 89 41c102 0 199 -94 199 -226c0 -102 -59 -223 -220 -223c-188 1 -224 194 -224 311c0 182 71 330 235 330zM299 299c-26 0 -56 -15 -71 -38c1 -53 19 -131 72 -131 c29 0 60 27 60 86c0 49 -26 83 -61 83z" />
<glyph d="M349 394h-268v141h422v-140l-214 -485h-162z" />
<glyph d="M292 -10c-132 0 -216 95 -216 187c0 64 25 112 68 144c-35 34 -49 83 -49 127c0 116 97 183 197 183c96 0 198 -60 198 -176c0 -49 -14 -91 -53 -125c42 -34 71 -84 71 -145c0 -103 -85 -195 -216 -195zM290 128c33 0 64 20 64 53c0 44 -41 62 -62 70 c-24 -8 -66 -26 -66 -70c0 -31 28 -53 64 -53zM341 455c0 32 -19 48 -49 48c-17 0 -50 -10 -50 -48c0 -35 28 -54 51 -65c24 16 48 39 48 65z" />
<glyph d="M279 -100c-69 0 -138 25 -199 105l96 83c22 -32 65 -45 98 -45c32 0 72 28 84 90c-16 -19 -54 -41 -89 -41c-102 0 -199 94 -199 226c0 102 59 223 220 223c188 -1 224 -194 224 -311c0 -182 -71 -330 -235 -330zM285 232c26 0 56 15 71 38c-1 53 -19 131 -72 131 c-29 0 -60 -27 -60 -86c0 -49 26 -83 61 -83z" />
<glyph d="M359 162h-84c16 -20 36 -32 59 -32c27 0 57 18 86 57l106 -94c-61 -78 -129 -103 -198 -103c-101 0 -188 66 -220 172h-50v90h36v29h-36v90h55c36 101 118 170 215 170c69 0 137 -24 198 -102l-106 -94c-28 39 -56 56 -82 56c-22 0 -41 -12 -56 -30h77v-90h-111 c-1 -8 -1 -15 -1 -29h112v-90z" />
<glyph d="M219 12l-2 212h-56v118h56c4 125 57 199 157 199c50 0 77 -12 141 -48l-48 -101c-22 15 -41 23 -56 23c-27 0 -44 -22 -45 -73h101l-1 -118h-100l1 -224c0 -79 -51 -164 -157 -164c-51 0 -103 28 -142 58l68 104c22 -19 42 -34 57 -34c14 0 24 13 26 48z" />
<glyph d="M370 581v-89c46 -12 91 -40 133 -94l-96 -84c-26 38 -59 58 -90 58c-47 0 -88 -45 -88 -127s41 -127 88 -127c31 0 64 20 90 58l96 -84c-42 -54 -87 -83 -133 -94v-88h-153v100c-81 37 -137 125 -137 235c0 111 56 198 137 235v101h153z" />
<glyph d="M485 104h-118v-104h-152v104h-117v90h117v18h-117v90h69l-131 233h174l80 -165l84 165h174l-133 -233h70v-90h-118v-18h118v-90z" />
<glyph d="M377 619v-94c30 -11 60 -26 86 -39l-60 -121c-16 11 -63 35 -98 35c-21 0 -36 -10 -36 -23c0 -14 4 -21 49 -39c75 -30 162 -68 162 -173c0 -65 -40 -126 -103 -156v-99h-154v90c-47 13 -91 36 -120 54l70 111c25 -18 74 -35 110 -35c25 0 43 8 43 29c0 14 -2 31 -53 51 c-94 37 -158 65 -158 160c0 68 35 131 108 157v92h154z" />
<glyph d="M338 541c57 0 115 -30 162 -54l-60 -121c-16 11 -63 35 -98 35c-38 0 -49 -36 -50 -74h111v-90h-111v-65c0 -6 0 -23 -8 -33h203v-139h-404v139c23 0 49 8 49 32v66h-49v90h49c3 110 63 214 206 214z" />
<glyph d="M404 78h-134v-78h-151v78h-32v90h32v367h378v-141h-227v-32h205v-141h-205v-53h134v-90z" />
<glyph d="M338 541c57 0 115 -30 162 -54l-60 -121c-16 11 -63 35 -98 35c-24 0 -38 -15 -44 -35h105v-90h-111v-19h111v-90h-111c0 -6 0 -18 -8 -28h203v-139h-404v139c23 0 49 3 49 28h-49v90h49v19h-49v90h53c15 94 76 175 202 175z" />
<glyph d="M86 535h213c111 0 174 -66 192 -137h41v-90h-42c-19 -72 -82 -138 -191 -138h-63v-170h-150v308h-35v90h35v137zM309 289c20 0 34 8 44 19h-118v-19h74zM235 417v-19h117c-9 11 -23 19 -43 19h-74z" />
<glyph horiz-adv-x="605" d="M308 541c141 0 247 -130 247 -278s-106 -273 -246 -273c-141 0 -245 125 -245 274s105 277 244 277zM309 401c-48 0 -91 -63 -91 -137c0 -76 43 -134 91 -134c47 0 92 58 92 134c0 74 -45 137 -92 137z" />
<glyph horiz-adv-x="444" d="M158 144l1 195l-52 -30l-83 101l163 125h128l-1 -391h93v-144h-342v144h93z" />
<glyph horiz-adv-x="510" d="M310 353c0 23 -12 44 -40 48c-33 -1 -46 -28 -48 -67h-149c4 111 80 207 198 207c105 0 193 -63 193 -181c0 -89 -93 -161 -200 -216h214v-144h-416v144c57 54 248 157 248 209z" />
<glyph horiz-adv-x="511" d="M280 -100c-130 2 -209 88 -209 213h149c0 -44 24 -71 56 -72c37 1 58 32 58 62c0 31 -22 64 -62 67h-46v123h43c28 0 50 31 50 60c0 23 -17 48 -48 48s-43 -29 -45 -67h-149c4 111 80 207 198 207c105 0 198 -63 198 -178c0 -42 -32 -106 -64 -128c40 -18 79 -77 79 -138 c0 -132 -106 -197 -208 -197z" />
<glyph horiz-adv-x="507" d="M427 187h67v-140h-67v-137h-150v137h-246v140l257 348h139v-348zM276 187v146l-113 -146h113z" />
<glyph horiz-adv-x="507" d="M34 113h154c3 -44 40 -73 69 -73c31 0 72 32 72 86c0 43 -31 85 -72 85c-21 0 -52 -14 -69 -46h-154l66 370h349v-140h-227l-18 -88c31 28 80 43 113 43c100 0 166 -102 166 -208c0 -118 -74 -242 -236 -242c-116 0 -198 97 -213 213z" />
<glyph horiz-adv-x="518" d="M272 631c69 0 138 -25 199 -105l-96 -83c-22 32 -65 45 -98 45c-32 0 -72 -28 -84 -90c16 19 54 41 89 41c102 0 199 -94 199 -226c0 -102 -59 -223 -220 -223c-188 1 -224 194 -224 311c0 182 71 330 235 330zM266 299c-26 0 -56 -15 -71 -38c1 -53 19 -131 72 -131 c29 0 60 27 60 86c0 49 -26 83 -61 83z" />
<glyph horiz-adv-x="437" d="M293 394h-268v141h422v-140l-214 -485h-162z" />
<glyph horiz-adv-x="526" d="M283 -10c-132 0 -216 95 -216 187c0 64 25 112 68 144c-35 34 -49 83 -49 127c0 116 97 183 197 183c96 0 198 -60 198 -176c0 -49 -14 -91 -53 -125c42 -34 71 -84 71 -145c0 -103 -85 -195 -216 -195zM281 128c33 0 64 20 64 53c0 44 -41 62 -62 70 c-24 -8 -66 -26 -66 -70c0 -31 28 -53 64 -53zM332 455c0 32 -19 48 -49 48c-17 0 -50 -10 -50 -48c0 -35 28 -54 51 -65c24 16 48 39 48 65z" />
<glyph horiz-adv-x="518" d="M246 -100c-69 0 -138 25 -199 105l96 83c22 -32 65 -45 98 -45c32 0 72 28 84 90c-16 -19 -54 -41 -89 -41c-102 0 -199 94 -199 226c0 102 59 223 220 223c188 -1 224 -194 224 -311c0 -182 -71 -330 -235 -330zM252 232c26 0 56 15 71 38c-1 53 -19 131 -72 131 c-29 0 -60 -27 -60 -86c0 -49 26 -83 61 -83z" />
<glyph horiz-adv-x="539" d="M331 162h-84c16 -20 36 -32 59 -32c27 0 57 18 86 57l106 -94c-61 -78 -129 -103 -198 -103c-101 0 -188 66 -220 172h-50v90h36v29h-36v90h55c36 101 118 170 215 170c69 0 137 -24 198 -102l-106 -94c-28 39 -56 56 -82 56c-22 0 -41 -12 -56 -30h77v-90h-111 c-1 -8 -1 -15 -1 -29h112v-90z" />
<glyph horiz-adv-x="421" d="M138 12l-2 212h-56v118h56c4 125 57 199 157 199c50 0 77 -12 141 -48l-48 -101c-22 15 -41 23 -56 23c-27 0 -44 -22 -45 -73h101l-1 -118h-100l1 -224c0 -79 -51 -164 -157 -164c-51 0 -103 28 -142 58l68 104c22 -19 42 -34 57 -34c14 0 24 13 26 48z" />
<glyph horiz-adv-x="497" d="M327 581v-89c46 -12 91 -40 133 -94l-96 -84c-26 38 -59 58 -90 58c-47 0 -88 -45 -88 -127s41 -127 88 -127c31 0 64 20 90 58l96 -84c-42 -54 -87 -83 -133 -94v-88h-153v100c-81 37 -137 125 -137 235c0 111 56 198 137 235v101h153z" />
<glyph horiz-adv-x="606" d="M496 104h-118v-104h-152v104h-117v90h117v18h-117v90h69l-131 233h174l80 -165l84 165h174l-133 -233h70v-90h-118v-18h118v-90z" />
<glyph horiz-adv-x="471" d="M321 619v-94c30 -11 60 -26 86 -39l-60 -121c-16 11 -63 35 -98 35c-21 0 -36 -10 -36 -23c0 -14 4 -21 49 -39c75 -30 162 -68 162 -173c0 -65 -40 -126 -103 -156v-99h-154v90c-47 13 -91 36 -120 54l70 111c25 -18 74 -35 110 -35c25 0 43 8 43 29c0 14 -2 31 -53 51 c-94 37 -158 65 -158 160c0 68 35 131 108 157v92h154z" />
<glyph horiz-adv-x="511" d="M302 541c57 0 115 -30 162 -54l-60 -121c-16 11 -63 35 -98 35c-38 0 -49 -36 -50 -74h111v-90h-111v-65c0 -6 0 -23 -8 -33h203v-139h-404v139c23 0 49 8 49 32v66h-49v90h49c3 110 63 214 206 214z" />
<glyph horiz-adv-x="493" d="M353 78h-134v-78h-151v78h-32v90h32v367h378v-141h-227v-32h205v-141h-205v-53h134v-90z" />
<glyph horiz-adv-x="511" d="M302 541c57 0 115 -30 162 -54l-60 -121c-16 11 -63 35 -98 35c-24 0 -38 -15 -44 -35h105v-90h-111v-19h111v-90h-111c0 -6 0 -18 -8 -28h203v-139h-404v139c23 0 49 3 49 28h-49v90h49v19h-49v90h53c15 94 76 175 202 175z" />
<glyph horiz-adv-x="525" d="M57 535h213c111 0 174 -66 192 -137h41v-90h-42c-19 -72 -82 -138 -191 -138h-63v-170h-150v308h-35v90h35v137zM280 289c20 0 34 8 44 19h-118v-19h74zM206 417v-19h117c-9 11 -23 19 -43 19h-74z" />
<glyph unicode="&#x2070;" horiz-adv-x="445" d="M221 729c108 -1 197 -99 197 -221c0 -116 -87 -219 -196 -219c-108 0 -195 103 -195 219c0 122 87 221 194 221zM222 609c-45 0 -69 -52 -69 -101c0 -50 25 -99 69 -99c45 0 70 49 70 99c0 49 -26 101 -70 101z" />
<glyph unicode="&#x2074;" horiz-adv-x="372" d="M310 476h40v-107h-40v-74h-124v74h-164v105l166 249h122v-247zM186 476v96l-68 -96h68z" />
<glyph unicode="&#x2075;" horiz-adv-x="373" d="M336 459c0 -106 -74 -170 -152 -170c-69 0 -142 57 -147 159h113c4 -32 22 -52 38 -52c17 0 33 18 33 55c0 31 -15 65 -35 65c-10 0 -21 -9 -33 -31h-116l42 238h247v-107h-161l-8 -40c17 7 45 11 60 11c69 0 119 -57 119 -128z" />
<glyph unicode="&#x2076;" horiz-adv-x="354" d="M332 676l-54 -88c-20 17 -46 27 -70 27c-27 0 -65 -21 -67 -71c22 27 45 37 69 37c57 0 111 -63 111 -135c0 -77 -47 -157 -141 -157c-132 0 -158 134 -158 217c0 136 90 223 177 223c43 0 89 -16 133 -53zM187 491c-15 0 -37 -14 -42 -28c1 -32 10 -79 39 -79 c24 0 34 25 34 50c0 28 -12 57 -31 57z" />
<glyph unicode="&#x2077;" horiz-adv-x="348" d="M181 295h-124l125 323h-155v105h294v-101z" />
<glyph unicode="&#x2078;" horiz-adv-x="362" d="M335 431c0 -93 -77 -142 -154 -142s-154 50 -154 139c0 38 24 77 44 94c-21 14 -34 46 -34 81c0 76 71 126 142 126c73 0 146 -49 146 -124c0 -29 -18 -67 -38 -86c21 -16 48 -51 48 -88zM141 421c0 -25 19 -37 39 -37c19 0 39 12 39 37c0 21 -19 38 -39 47 c-21 -8 -39 -26 -39 -47zM213 605c0 21 -17 32 -34 32s-33 -11 -33 -32c0 -20 19 -43 34 -51c16 8 33 32 33 51z" />
<glyph unicode="&#x2079;" horiz-adv-x="354" d="M22 342l54 88c20 -17 46 -27 70 -27c27 0 65 21 67 71c-22 -27 -45 -37 -69 -37c-57 0 -111 63 -111 135c0 77 47 157 141 157c132 0 158 -134 158 -217c0 -136 -90 -223 -177 -223c-43 0 -89 16 -133 53zM167 527c15 0 37 14 42 28c-1 32 -10 79 -39 79 c-24 0 -34 -25 -34 -50c0 -28 12 -57 31 -57z" />
<glyph unicode="&#x207d;" horiz-adv-x="307" d="M37 504c0 98 60 212 180 290l73 -109c-68 -54 -108 -120 -108 -181c0 -57 39 -127 106 -180l-70 -111c-118 79 -181 197 -181 291z" />
<glyph unicode="&#x207e;" horiz-adv-x="306" d="M269 501c0 -96 -63 -213 -179 -292l-71 112c68 53 106 123 106 180c0 61 -39 127 -108 181l73 109c118 -78 179 -193 179 -290z" />
<glyph unicode="&#x2080;" horiz-adv-x="445" d="M221 304c108 -1 197 -99 197 -221c0 -116 -87 -219 -196 -219c-108 0 -195 103 -195 219c0 122 87 221 194 221zM222 184c-45 0 -69 -52 -69 -101c0 -50 25 -99 69 -99c45 0 70 49 70 99c0 49 -26 101 -70 101z" />
<glyph unicode="&#x2081;" horiz-adv-x="340" d="M303 -26v-103h-266v103h71v144l-33 -36l-76 60l126 154h107v-322h71z" />
<glyph unicode="&#x2082;" horiz-adv-x="387" d="M151 141h-114c0 96 69 161 164 161c90 0 146 -73 146 -141c0 -84 -109 -135 -167 -187h170v-103h-313v89c6 38 63 80 113 117c37 28 74 58 74 78c0 17 -13 35 -34 35c-20 0 -39 -19 -39 -49z" />
<glyph unicode="&#x2083;" horiz-adv-x="374" d="M176 40v82c34 0 48 17 48 35c0 17 -13 35 -34 35c-20 0 -39 -19 -39 -49h-114c0 96 59 161 154 161c90 0 146 -73 146 -141c0 -22 -14 -63 -42 -85c31 -23 42 -55 42 -74c0 -68 -56 -140 -146 -140c-95 0 -154 64 -154 160l113 -1c0 -30 19 -53 39 -53c21 0 34 17 34 34 s-14 35 -47 36z" />
<glyph unicode="&#x2084;" horiz-adv-x="372" d="M310 52h40v-107h-40v-74h-124v74h-164v105l166 249h122v-247zM186 52v96l-68 -96h68z" />
<glyph unicode="&#x2085;" horiz-adv-x="373" d="M336 34c0 -106 -74 -170 -152 -170c-69 0 -142 57 -147 159h113c4 -32 22 -52 38 -52c17 0 33 18 33 55c0 31 -15 65 -35 65c-10 0 -21 -9 -33 -31h-116l42 238h247v-107h-161l-8 -40c17 7 45 11 60 11c69 0 119 -57 119 -128z" />
<glyph unicode="&#x2086;" horiz-adv-x="354" d="M332 251l-54 -88c-20 17 -46 27 -70 27c-27 0 -65 -21 -67 -71c22 27 45 37 69 37c57 0 111 -63 111 -135c0 -77 -47 -157 -141 -157c-132 0 -158 134 -158 217c0 136 90 223 177 223c43 0 89 -16 133 -53zM187 66c-15 0 -37 -14 -42 -28c1 -32 10 -79 39 -79 c24 0 34 25 34 50c0 28 -12 57 -31 57z" />
<glyph unicode="&#x2087;" horiz-adv-x="348" d="M181 -130h-124l125 323h-155v105h294v-101z" />
<glyph unicode="&#x2088;" horiz-adv-x="362" d="M327 6c0 -93 -77 -142 -154 -142s-154 50 -154 139c0 38 24 77 44 94c-21 14 -34 46 -34 81c0 76 71 126 142 126c73 0 146 -49 146 -124c0 -29 -18 -67 -38 -86c21 -16 48 -51 48 -88zM133 -4c0 -25 19 -37 39 -37c19 0 39 12 39 37c0 21 -19 38 -39 47 c-21 -8 -39 -26 -39 -47zM205 180c0 21 -17 32 -34 32s-33 -11 -33 -32c0 -20 19 -43 34 -51c16 8 33 32 33 51z" />
<glyph unicode="&#x2089;" horiz-adv-x="354" d="M22 -83l54 88c20 -17 46 -27 70 -27c27 0 65 21 67 71c-22 -27 -45 -37 -69 -37c-57 0 -111 63 -111 135c0 77 47 157 141 157c132 0 158 -134 158 -217c0 -136 -90 -223 -177 -223c-43 0 -89 16 -133 53zM167 102c15 0 37 14 42 28c-1 32 -10 79 -39 79 c-24 0 -34 -25 -34 -50c0 -28 12 -57 31 -57z" />
<glyph unicode="&#x208d;" horiz-adv-x="307" d="M37 133c0 98 60 212 180 290l73 -109c-68 -53 -108 -120 -108 -181c0 -57 39 -127 106 -180l-70 -111c-118 80 -181 198 -181 291z" />
<glyph unicode="&#x208e;" horiz-adv-x="307" d="M270 133c0 -93 -65 -212 -179 -291l-74 110c69 55 107 125 107 181c0 62 -38 128 -107 181l74 110c116 -79 179 -192 179 -291z" />
<glyph horiz-adv-x="445" d="M221 690c108 -1 197 -99 197 -221c0 -116 -87 -219 -196 -219c-108 0 -195 103 -195 219c0 122 87 221 194 221zM222 570c-45 0 -69 -52 -69 -101c0 -50 25 -99 69 -99c45 0 70 49 70 99c0 49 -26 101 -70 101z" />
<glyph horiz-adv-x="364" d="M315 358v-103h-266v103h71v144l-33 -36l-76 60l126 154h107v-322h71z" />
<glyph horiz-adv-x="387" d="M151 529h-114c0 96 69 161 164 161c90 0 146 -73 146 -141c0 -84 -109 -135 -167 -187h170v-103h-313v89c6 38 63 80 113 117c37 28 74 58 74 78c0 17 -13 35 -34 35c-20 0 -39 -19 -39 -49z" />
<glyph horiz-adv-x="374" d="M176 426v82c34 0 48 17 48 35c0 17 -13 35 -34 35c-20 0 -39 -19 -39 -49h-114c0 96 59 161 154 161c90 0 146 -73 146 -141c0 -22 -14 -63 -42 -85c31 -23 42 -55 42 -74c0 -68 -56 -140 -146 -140c-95 0 -154 64 -154 160l113 -1c0 -30 19 -53 39 -53c21 0 34 17 34 34 s-14 35 -47 36z" />
<glyph horiz-adv-x="372" d="M310 433h40v-107h-40v-74h-124v74h-164v105l166 249h122v-247zM186 433v96l-68 -96h68z" />
<glyph horiz-adv-x="373" d="M336 416c0 -106 -74 -170 -152 -170c-69 0 -142 57 -147 159h113c4 -32 22 -52 38 -52c17 0 33 18 33 55c0 31 -15 65 -35 65c-10 0 -21 -9 -33 -31h-116l42 238h247v-107h-161l-8 -40c17 7 45 11 60 11c69 0 119 -57 119 -128z" />
<glyph horiz-adv-x="354" d="M332 637l-54 -88c-20 17 -46 27 -70 27c-27 0 -65 -21 -67 -71c22 27 45 37 69 37c57 0 111 -63 111 -135c0 -77 -47 -157 -141 -157c-132 0 -158 134 -158 217c0 136 90 223 177 223c43 0 89 -16 133 -53zM187 452c-15 0 -37 -14 -42 -28c1 -32 10 -79 39 -79 c24 0 34 25 34 50c0 28 -12 57 -31 57z" />
<glyph horiz-adv-x="348" d="M181 252h-124l125 323h-155v105h294v-101z" />
<glyph horiz-adv-x="362" d="M327 392c0 -93 -77 -142 -154 -142s-154 50 -154 139c0 38 24 77 44 94c-21 14 -34 46 -34 81c0 76 71 126 142 126c73 0 146 -49 146 -124c0 -29 -18 -67 -38 -86c21 -16 48 -51 48 -88zM133 382c0 -25 19 -37 39 -37c19 0 39 12 39 37c0 21 -19 38 -39 47 c-21 -8 -39 -26 -39 -47zM205 566c0 21 -17 32 -34 32s-33 -11 -33 -32c0 -20 19 -43 34 -51c16 8 33 32 33 51z" />
<glyph horiz-adv-x="354" d="M22 303l54 88c20 -17 46 -27 70 -27c27 0 65 21 67 71c-22 -27 -45 -37 -69 -37c-57 0 -111 63 -111 135c0 77 47 157 141 157c132 0 158 -134 158 -217c0 -136 -90 -223 -177 -223c-43 0 -89 16 -133 53zM167 488c15 0 37 14 42 28c-1 32 -10 79 -39 79 c-24 0 -34 -25 -34 -50c0 -28 12 -57 31 -57z" />
<glyph horiz-adv-x="445" d="M221 430c108 -1 197 -99 197 -221c0 -116 -87 -219 -196 -219c-108 0 -195 103 -195 219c0 122 87 221 194 221zM222 310c-45 0 -69 -52 -69 -101c0 -50 25 -99 69 -99c45 0 70 49 70 99c0 49 -26 101 -70 101z" />
<glyph horiz-adv-x="364" d="M315 103v-103h-266v103h71v144l-33 -36l-76 60l126 154h107v-322h71z" />
<glyph horiz-adv-x="387" d="M151 270h-114c0 96 69 161 164 161c90 0 146 -73 146 -141c0 -84 -109 -135 -167 -187h170v-103h-313v89c6 38 63 80 113 117c37 28 74 58 74 78c0 17 -13 35 -34 35c-20 0 -39 -19 -39 -49z" />
<glyph horiz-adv-x="374" d="M176 166v82c34 0 48 17 48 35c0 17 -13 35 -34 35c-20 0 -39 -19 -39 -49h-114c0 96 59 161 154 161c90 0 146 -73 146 -141c0 -22 -14 -63 -42 -85c31 -23 42 -55 42 -74c0 -68 -56 -140 -146 -140c-95 0 -154 64 -154 160l113 -1c0 -30 19 -53 39 -53c21 0 34 17 34 34 s-14 35 -47 36z" />
<glyph horiz-adv-x="402" d="M325 181h40v-107h-40v-74h-124v74h-164v105l166 249h122v-247zM201 181v96l-68 -96h68z" />
<glyph horiz-adv-x="373" d="M336 160c0 -106 -74 -170 -152 -170c-69 0 -142 57 -147 159h113c4 -32 22 -52 38 -52c17 0 33 18 33 55c0 31 -15 65 -35 65c-10 0 -21 -9 -33 -31h-116l42 238h247v-107h-161l-8 -40c17 7 45 11 60 11c69 0 119 -57 119 -128z" />
<glyph horiz-adv-x="354" d="M332 377l-54 -88c-20 17 -46 27 -70 27c-27 0 -65 -21 -67 -71c22 27 45 37 69 37c57 0 111 -63 111 -135c0 -77 -47 -157 -141 -157c-132 0 -158 134 -158 217c0 136 90 223 177 223c43 0 89 -16 133 -53zM187 192c-15 0 -37 -14 -42 -28c1 -32 10 -79 39 -79 c24 0 34 25 34 50c0 28 -12 57 -31 57z" />
<glyph horiz-adv-x="348" d="M181 0h-124l125 323h-155v105h294v-101z" />
<glyph horiz-adv-x="362" d="M335 132c0 -93 -77 -142 -154 -142s-154 50 -154 139c0 38 24 77 44 94c-21 14 -34 46 -34 81c0 76 71 126 142 126c73 0 146 -49 146 -124c0 -29 -18 -67 -38 -86c21 -16 48 -51 48 -88zM141 122c0 -25 19 -37 39 -37c19 0 39 12 39 37c0 21 -19 38 -39 47 c-21 -8 -39 -26 -39 -47zM213 306c0 21 -17 32 -34 32s-33 -11 -33 -32c0 -20 19 -43 34 -51c16 8 33 32 33 51z" />
<glyph horiz-adv-x="354" d="M22 43l54 88c20 -17 46 -27 70 -27c27 0 65 21 67 71c-22 -27 -45 -37 -69 -37c-57 0 -111 63 -111 135c0 77 47 157 141 157c132 0 158 -134 158 -217c0 -136 -90 -223 -177 -223c-43 0 -89 16 -133 53zM167 228c15 0 37 14 42 28c-1 32 -10 79 -39 79 c-24 0 -34 -25 -34 -50c0 -28 12 -57 31 -57z" />
<glyph horiz-adv-x="581" d="M517 491v-486c0 -112 -57 -245 -214 -245c-26 0 -56 9 -114 37l52 115c32 -9 58 -13 63 -13c55 0 63 86 63 106v367h-145v-372h-149v372h-57v119h57v24c0 121 101 175 187 175c8 0 19 0 48 -5v-123c-32 0 -86 -3 -86 -47v-24h295zM357 608c0 43 39 82 85 82 s84 -39 84 -82c0 -46 -38 -84 -84 -84s-85 38 -85 84z" />
<glyph horiz-adv-x="325" d="M238 -82h-151v407h151v-407zM238 716v-347h-151v347h151z" />
<glyph horiz-adv-x="726" d="M321 690c114 0 194 -91 194 -190c0 -20 -6 -42 -16 -66h-152c12 17 18 51 18 62c-3 26 -17 47 -43 47c-39 0 -55 -25 -55 -48c0 -21 9 -50 24 -65c52 -54 99 -109 150 -166c3 14 3 33 4 64h158c-4 -92 -23 -142 -47 -190l133 -138h-198l-32 33c-35 -23 -97 -43 -140 -43 c-151 0 -254 123 -254 251c0 63 27 128 81 180c-12 19 -25 58 -25 78c0 91 69 191 200 191zM319 137c13 0 28 5 40 10c-58 61 -100 101 -127 134c-4 -15 -4 -30 -4 -43c0 -54 29 -101 91 -101z" />
<glyph unicode="&#x1fb;" horiz-adv-x="487" d="M115 322l-88 92c68 65 151 86 205 86c169 0 198 -123 198 -220v-280h-129l-4 44c-35 -36 -82 -54 -124 -54c-76 0 -146 70 -146 165s94 164 229 164h24c0 42 -36 53 -58 53c-36 0 -74 -19 -107 -50zM201 116c38 0 63 32 81 54v44c-71 -2 -125 -15 -125 -59 c0 -27 25 -39 44 -39zM229 729c68 0 111 -44 111 -100c0 -54 -43 -97 -111 -97c-57 0 -105 43 -105 97c0 56 48 100 105 100zM232 658c-9 0 -21 -9 -21 -29c0 -16 12 -26 21 -26c11 0 23 10 23 26c0 20 -12 29 -23 29zM301 751h-129l89 145h152z" />
<glyph horiz-adv-x="548" d="M258 374c-47 0 -78 -59 -78 -131c0 -71 31 -127 78 -127c46 0 82 56 82 127c0 72 -36 131 -82 131zM481 491v-491h-128l-5 36c-39 -43 -101 -46 -113 -46c-110 0 -198 114 -198 253c0 138 88 257 197 257c12 0 75 -2 114 -45l5 36h128z" />
<glyph horiz-adv-x="548" d="M246 729c68 0 111 -44 111 -100c0 -54 -43 -97 -111 -97c-57 0 -105 43 -105 97c0 56 48 100 105 100zM249 658c-9 0 -21 -9 -21 -29c0 -16 12 -26 21 -26c11 0 23 10 23 26c0 20 -12 29 -23 29zM258 374c-47 0 -78 -59 -78 -131c0 -71 31 -127 78 -127 c46 0 82 56 82 127c0 72 -36 131 -82 131zM481 491v-491h-128l-5 36c-39 -43 -101 -46 -113 -46c-110 0 -198 114 -198 253c0 138 88 257 197 257c12 0 75 -2 114 -45l5 36h128z" />
<glyph horiz-adv-x="548" d="M258 374c-47 0 -78 -59 -78 -131c0 -71 31 -127 78 -127c46 0 82 56 82 127c0 72 -36 131 -82 131zM481 491v-491h-128l-5 36c-39 -43 -101 -46 -113 -46c-110 0 -198 114 -198 253c0 138 88 257 197 257c12 0 75 -2 114 -45l5 36h128zM163 690c49 0 85 -35 85 -81 c0 -44 -36 -82 -85 -82c-52 0 -87 38 -87 82c0 46 35 81 87 81zM355 690c48 0 88 -35 88 -81c0 -44 -40 -82 -88 -82c-51 0 -86 38 -86 82c0 46 35 81 86 81z" />
<glyph horiz-adv-x="548" d="M193 690c46 0 98 -47 126 -47c13 0 21 10 22 37h115c-6 -57 -41 -126 -115 -126c-51 0 -91 47 -125 47c-12 0 -20 -9 -21 -37h-115c7 57 38 126 113 126zM258 374c-47 0 -78 -59 -78 -131c0 -71 31 -127 78 -127c46 0 82 56 82 127c0 72 -36 131 -82 131zM481 491v-491 h-128l-5 36c-39 -43 -101 -46 -113 -46c-110 0 -198 114 -198 253c0 138 88 257 197 257c12 0 75 -2 114 -45l5 36h128z" />
<glyph horiz-adv-x="548" d="M258 374c-47 0 -78 -59 -78 -131c0 -71 31 -127 78 -127c46 0 82 56 82 127c0 72 -36 131 -82 131zM481 491v-491h-128l-5 36c-39 -43 -101 -46 -113 -46c-110 0 -198 114 -198 253c0 138 88 257 197 257c12 0 75 -2 114 -45l5 36h128zM226 535h-130l89 145h150l89 -145 h-130l-35 44z" />
<glyph horiz-adv-x="548" d="M317 535h-129l89 145h152zM258 374c-47 0 -78 -59 -78 -131c0 -71 31 -127 78 -127c46 0 82 56 82 127c0 72 -36 131 -82 131zM481 491v-491h-128l-5 36c-39 -43 -101 -46 -113 -46c-110 0 -198 114 -198 253c0 138 88 257 197 257c12 0 75 -2 114 -45l5 36h128z" />
<glyph horiz-adv-x="548" d="M338 535h-129l-112 145h152zM258 374c-47 0 -78 -59 -78 -131c0 -71 31 -127 78 -127c46 0 82 56 82 127c0 72 -36 131 -82 131zM481 491v-491h-128l-5 36c-39 -43 -101 -46 -113 -46c-110 0 -198 114 -198 253c0 138 88 257 197 257c12 0 75 -2 114 -45l5 36h128z" />
<glyph horiz-adv-x="548" d="M303 680h128c-1 -87 -80 -139 -160 -139c-78 0 -158 48 -165 139h132c3 -37 19 -57 31 -57s30 20 34 57zM258 374c-47 0 -78 -59 -78 -131c0 -71 31 -127 78 -127c46 0 82 56 82 127c0 72 -36 131 -82 131zM481 491v-491h-128l-5 36c-39 -43 -101 -46 -113 -46 c-110 0 -198 114 -198 253c0 138 88 257 197 257c12 0 75 -2 114 -45l5 36h128z" />
<glyph horiz-adv-x="548" d="M481 491v-489c-28 -24 -43 -54 -43 -82c0 -23 23 -52 68 -66l-21 -94c-116 35 -186 89 -186 163c0 32 21 65 52 91l-3 22c-39 -43 -101 -46 -113 -46c-110 0 -198 114 -198 253c0 138 88 257 197 257c12 0 75 -2 114 -45l5 36h128zM258 374c-47 0 -78 -59 -78 -131 c0 -71 31 -127 78 -127c46 0 82 56 82 127c0 72 -36 131 -82 131z" />
<glyph horiz-adv-x="548" d="M258 374c-47 0 -78 -59 -78 -131c0 -71 31 -127 78 -127c46 0 82 56 82 127c0 72 -36 131 -82 131zM481 491v-491h-128l-5 36c-39 -43 -101 -46 -113 -46c-110 0 -198 114 -198 253c0 138 88 257 197 257c12 0 75 -2 114 -45l5 36h128zM415 575h-306v105h306v-105z" />
<glyph horiz-adv-x="548" d="M258 374c-47 0 -78 -59 -78 -131c0 -71 31 -127 78 -127c46 0 82 56 82 127c0 72 -36 131 -82 131zM481 491v-491h-128l-5 36c-39 -43 -101 -46 -113 -46c-110 0 -198 114 -198 253c0 138 88 257 197 257c12 0 75 -2 114 -45l5 36h128zM325 751h-129l89 145h152zM253 729 c68 0 111 -44 111 -100c0 -54 -43 -97 -111 -97c-57 0 -105 43 -105 97c0 56 48 100 105 100zM256 658c-9 0 -21 -9 -21 -29c0 -16 12 -26 21 -26c11 0 23 10 23 26c0 20 -12 29 -23 29z" />
<glyph unicode="&#x1fa;" horiz-adv-x="616" d="M305 806c68 0 111 -44 111 -100c0 -30 -13 -56 -35 -74l238 -632h-167l-48 134c-65 0 -127 -1 -193 -1l-47 -133h-167l237 634c-21 18 -34 43 -34 72c0 56 48 100 105 100zM376 828h-129l72 114h147zM260 279h93l-46 156zM308 735c-9 0 -21 -9 -21 -29 c0 -15 10 -25 18 -26h5c10 1 21 11 21 26c0 20 -12 29 -23 29z" />
<glyph unicode="&#x1fc;" horiz-adv-x="824" d="M777 535h-258v-95h237v-145h-237v-150h258v-145h-415v150c-37 0 -94 -1 -131 -1l-67 -149h-167l349 680h431v-145zM297 295h66v145zM493 708h-129l89 144h152z" />
<glyph unicode="&#x1fd;" horiz-adv-x="761" d="M115 322l-88 92c68 65 151 86 205 86c66 0 110 -19 140 -47c38 30 85 47 137 47c128 0 225 -101 225 -222v-64h-316c6 -59 50 -97 110 -97c33 0 80 27 112 66l90 -89c-58 -57 -114 -104 -216 -104c-80 0 -143 38 -183 94c-55 -79 -118 -94 -158 -94 c-76 0 -146 70 -146 165s94 164 229 164h24c0 42 -36 53 -58 53c-36 0 -74 -19 -107 -50zM201 116c38 0 63 32 81 54v44c-71 -2 -125 -15 -125 -59c0 -27 25 -39 44 -39zM418 318l183 1c-9 32 -39 63 -90 63c-52 0 -80 -32 -93 -64zM448 535h-129l89 145h152z" />
<glyph horiz-adv-x="820" d="M573 -10c-46 0 -86 12 -119 33v-23h-101l-5 36c-39 -43 -101 -46 -113 -46c-110 0 -198 114 -198 253c0 138 88 257 197 257c12 0 75 -2 114 -45l5 36h101v-23c33 21 72 32 114 32c128 0 225 -101 225 -222v-54h-316c6 -69 50 -107 110 -107c33 0 80 27 112 66l90 -89 c-58 -57 -114 -104 -216 -104zM258 374c-47 0 -78 -59 -78 -131c0 -71 31 -127 78 -127c46 0 82 56 82 127c0 72 -36 131 -82 131zM474 536h-130l89 144h152zM477 308l183 1c-9 42 -39 73 -90 73c-52 0 -80 -32 -93 -74z" />
<glyph unicode="&#x1fe;" horiz-adv-x="699" d="M408 708h-129l89 144h152zM347 690c27 0 53 -4 78 -11l13 30h116l-32 -78c84 -63 140 -170 140 -291c0 -191 -140 -350 -315 -350c-29 0 -57 5 -84 13l-17 -42h-116l38 93c-79 64 -131 169 -131 286c0 193 138 350 310 350zM499 340c0 53 -15 102 -40 138l-139 -338 c8 -2 18 -3 27 -3c86 0 152 89 152 203zM347 543c-83 0 -147 -90 -147 -203c0 -50 12 -95 32 -130l137 331c-7 1 -15 2 -22 2z" />
<glyph unicode="&#x1ff;" horiz-adv-x="528" d="M320 535h-129l89 145h152zM260 500c20 0 41 -4 60 -9l16 38h91l-33 -77c58 -46 97 -121 97 -207c0 -136 -105 -255 -231 -255c-20 0 -39 4 -58 10l-18 -44h-88l35 83c-57 47 -94 123 -94 206c0 142 103 255 223 255zM341 245c0 22 -4 41 -10 58l-76 -179h7 c40 0 79 47 79 121zM186 245c0 -21 3 -40 8 -56l73 176c-2 0 -3 1 -5 1c-38 0 -76 -47 -76 -121z" />
<glyph horiz-adv-x="820" d="M573 -10c-46 0 -86 12 -119 33v-23h-101l-5 36c-39 -43 -101 -46 -113 -46c-110 0 -198 114 -198 253c0 138 88 257 197 257c12 0 75 -2 114 -45l5 36h101v-23c33 21 72 32 114 32c128 0 225 -101 225 -222v-54h-316c6 -69 50 -107 110 -107c33 0 80 27 112 66l90 -89 c-58 -57 -114 -104 -216 -104zM258 374c-47 0 -78 -59 -78 -131c0 -71 31 -127 78 -127c46 0 82 56 82 127c0 72 -36 131 -82 131zM477 308l183 1c-9 42 -39 73 -90 73c-52 0 -80 -32 -93 -74z" />
<glyph unicode="&#x2153;" horiz-adv-x="973" d="M775 166v82c34 0 48 17 48 35c0 17 -13 35 -34 35c-20 0 -39 -19 -39 -49h-114c0 96 59 161 154 161c90 0 146 -73 146 -141c0 -22 -14 -63 -42 -85c31 -23 42 -55 42 -74c0 -68 -56 -140 -146 -140c-95 0 -154 64 -154 160l113 -1c0 -30 19 -53 39 -53c21 0 34 17 34 34 s-14 35 -47 36zM341 358v-103h-266v103h71v144l-33 -36l-76 60l126 154h107v-322h71zM391 0h-167l410 681h168z" />
<glyph unicode="&#x2154;" horiz-adv-x="978" d="M151 529h-114c0 96 69 161 164 161c90 0 146 -73 146 -141c0 -84 -109 -135 -167 -187h170v-103h-313v89c6 38 63 80 113 117c37 28 74 58 74 78c0 17 -13 35 -34 35c-20 0 -39 -19 -39 -49zM780 166v82c34 0 48 17 48 35c0 17 -13 35 -34 35c-20 0 -39 -19 -39 -49h-114 c0 96 59 161 154 161c90 0 146 -73 146 -141c0 -22 -14 -63 -42 -85c31 -23 42 -55 42 -74c0 -68 -56 -140 -146 -140c-95 0 -154 64 -154 160l113 -1c0 -30 19 -53 39 -53c21 0 34 17 34 34s-14 35 -47 36zM396 0h-167l410 681h168z" />
<glyph unicode="&#x215b;" horiz-adv-x="969" d="M932 132c0 -93 -77 -142 -154 -142s-154 50 -154 139c0 38 24 77 44 94c-21 14 -34 46 -34 81c0 76 71 126 142 126c73 0 146 -49 146 -124c0 -29 -18 -67 -38 -86c21 -16 48 -51 48 -88zM738 122c0 -25 19 -37 39 -37c19 0 39 12 39 37c0 21 -19 38 -39 47 c-21 -8 -39 -26 -39 -47zM810 306c0 21 -17 32 -34 32s-33 -11 -33 -32c0 -20 19 -43 34 -51c16 8 33 32 33 51zM391 0h-167l410 681h168zM341 358v-103h-266v103h71v144l-33 -36l-76 60l126 154h107v-322h71z" />
<glyph unicode="&#x215c;" horiz-adv-x="914" d="M176 426v82c34 0 48 17 48 35c0 17 -13 35 -34 35c-20 0 -39 -19 -39 -49h-114c0 96 59 161 154 161c90 0 146 -73 146 -141c0 -22 -14 -63 -42 -85c31 -23 42 -55 42 -74c0 -68 -56 -140 -146 -140c-95 0 -154 64 -154 160l113 -1c0 -30 19 -53 39 -53c21 0 34 17 34 34 s-14 35 -47 36zM877 132c0 -93 -77 -142 -154 -142s-154 50 -154 139c0 38 24 77 44 94c-21 14 -34 46 -34 81c0 76 71 126 142 126c73 0 146 -49 146 -124c0 -29 -18 -67 -38 -86c21 -16 48 -51 48 -88zM683 122c0 -25 19 -37 39 -37c19 0 39 12 39 37c0 21 -19 38 -39 47 c-21 -8 -39 -26 -39 -47zM755 306c0 21 -17 32 -34 32s-33 -11 -33 -32c0 -20 19 -43 34 -51c16 8 33 32 33 51zM336 0h-167l410 681h168z" />
<glyph unicode="&#x215d;" horiz-adv-x="903" d="M336 415c0 -106 -74 -170 -152 -170c-69 0 -142 57 -147 159h113c4 -32 22 -52 38 -52c17 0 33 18 33 55c0 31 -15 65 -35 65c-10 0 -21 -9 -33 -31h-116l42 238h247v-107h-161l-8 -40c17 7 45 11 60 11c69 0 119 -57 119 -128zM866 132c0 -93 -77 -142 -154 -142 s-154 50 -154 139c0 38 24 77 44 94c-21 14 -34 46 -34 81c0 76 71 126 142 126c73 0 146 -49 146 -124c0 -29 -18 -67 -38 -86c21 -16 48 -51 48 -88zM672 122c0 -25 19 -37 39 -37c19 0 39 12 39 37c0 21 -19 38 -39 47c-21 -8 -39 -26 -39 -47zM744 306 c0 21 -17 32 -34 32s-33 -11 -33 -32c0 -20 19 -43 34 -51c16 8 33 32 33 51zM325 0h-167l410 681h168z" />
<glyph unicode="&#x215e;" horiz-adv-x="836" d="M191 252h-124l125 323h-155v105h294v-101zM799 132c0 -93 -77 -142 -154 -142s-154 50 -154 139c0 38 24 77 44 94c-21 14 -34 46 -34 81c0 76 71 126 142 126c73 0 146 -49 146 -124c0 -29 -18 -67 -38 -86c21 -16 48 -51 48 -88zM605 122c0 -25 19 -37 39 -37 c19 0 39 12 39 37c0 21 -19 38 -39 47c-21 -8 -39 -26 -39 -47zM677 306c0 21 -17 32 -34 32s-33 -11 -33 -32c0 -20 19 -43 34 -51c16 8 33 32 33 51zM258 0h-167l410 681h168z" />
<glyph unicode="A" horiz-adv-x="616" d="M619 0h-167l-48 134c-65 0 -127 -1 -193 -1l-47 -133h-167l254 680h112zM260 279h93l-46 156z" />
<glyph unicode="&#x2126;" horiz-adv-x="733" d="M366 690c177 0 317 -157 317 -350c0 -70 -18 -138 -94 -195h107v-145h-315v129c81 32 139 117 139 211c0 113 -65 203 -154 203c-87 0 -152 -90 -152 -203c0 -92 59 -179 141 -211v-129h-318v145h109c-74 57 -95 127 -95 195c0 193 141 350 315 350z" />
<glyph unicode="&#x394;" horiz-adv-x="755" d="M377 759l341 -759h-681zM378 394l-115 -249h226z" />
<glyph unicode="&#x3bc;" horiz-adv-x="540" d="M206 491v-323c0 -31 16 -47 37 -47c32 0 73 36 73 97l-2 273h149v-491h-129l-5 44c-36 -44 -92 -54 -118 -54h-6v-220h-148v721h149z" />
<glyph unicode="&#x2215;" horiz-adv-x="314" d="M34 0h-167l410 681h168z" />
<glyph horiz-adv-x="174" d="M125 524h-118c21 55 26 97 26 156h134c-2 -53 -16 -100 -42 -156z" />
<glyph unicode="&#x237;" horiz-adv-x="278" d="M214 491v-486c0 -112 -57 -245 -214 -245c-26 0 -56 9 -114 37l52 115c32 -9 58 -13 63 -13c55 0 64 86 64 106v486h149z" />
<glyph unicode="&#xc0;" horiz-adv-x="616" d="M619 0h-167l-48 134c-65 0 -127 -1 -193 -1l-47 -133h-167l254 680h112zM260 279h93l-46 156zM372 712h-130l-111 144h152z" />
<glyph unicode="&#xc1;" horiz-adv-x="616" d="M619 0h-167l-48 134c-65 0 -127 -1 -193 -1l-47 -133h-167l254 680h112zM260 279h93l-46 156zM372 712h-129l89 144h152z" />
<glyph unicode="&#xc2;" horiz-adv-x="616" d="M619 0h-167l-48 134c-65 0 -127 -1 -193 -1l-47 -133h-167l254 680h112zM260 279h93l-46 156zM276 712h-129l89 144h149l89 -144h-129l-35 43z" />
<glyph unicode="&#xc3;" horiz-adv-x="616" d="M619 0h-167l-48 134c-65 0 -127 -1 -193 -1l-47 -133h-167l254 680h112zM260 279h93l-46 156zM236 866c46 0 98 -47 126 -47c13 0 21 10 22 37h115c-6 -57 -41 -126 -115 -126c-51 0 -91 47 -125 47c-12 0 -20 -9 -21 -37h-115c7 57 38 126 113 126z" />
<glyph unicode="&#xc4;" horiz-adv-x="616" d="M619 0h-167l-48 134c-65 0 -127 -1 -193 -1l-47 -133h-167l254 680h112zM260 279h93l-46 156zM215 862c48 0 85 -35 85 -81c0 -44 -37 -81 -85 -81c-51 0 -87 37 -87 81c0 46 36 81 87 81zM407 862c47 0 87 -35 87 -81c0 -44 -40 -81 -87 -81c-52 0 -86 37 -86 81 c0 46 34 81 86 81z" />
<glyph unicode="&#xc5;" horiz-adv-x="616" d="M308 864c68 0 111 -44 111 -100c0 -38 -21 -69 -56 -86l256 -678h-167l-48 134c-65 0 -127 -1 -193 -1l-47 -133h-167l254 680c-27 16 -48 48 -48 84c0 56 48 100 105 100zM260 279h93l-46 156zM311 793c-9 0 -21 -9 -21 -29c0 -16 12 -26 21 -26c11 0 23 10 23 26 c0 20 -12 29 -23 29z" />
<glyph unicode="&#xc7;" horiz-adv-x="656" d="M248 -98l20 99c-134 37 -231 169 -231 339c0 202 138 350 310 350c100 0 196 -51 277 -166l-116 -84c-47 76 -112 106 -161 106c-83 0 -148 -88 -148 -206s65 -206 148 -206c48 0 115 28 161 106l116 -84c-75 -107 -163 -158 -254 -165l-4 -23c58 -19 83 -58 83 -97 c0 -56 -50 -112 -130 -112c-72 0 -115 40 -136 70l56 49c8 -9 29 -33 49 -33c19 0 28 13 28 26c0 17 -14 35 -38 35c-10 0 -21 -1 -30 -4z" />
<glyph unicode="&#xc8;" horiz-adv-x="549" d="M502 535h-259v-95h236v-145h-236v-150h259v-145h-415v680h415v-145zM375 712h-130l-111 144h152z" />
<glyph unicode="&#xc9;" horiz-adv-x="549" d="M502 535h-259v-95h236v-145h-236v-150h259v-145h-415v680h415v-145zM368 712h-129l89 144h152z" />
<glyph unicode="&#xca;" horiz-adv-x="549" d="M502 535h-259v-95h236v-145h-236v-150h259v-145h-415v680h415v-145zM261 712h-129l89 144h149l89 -144h-129l-35 43z" />
<glyph unicode="&#xcb;" horiz-adv-x="549" d="M502 535h-259v-95h236v-145h-236v-150h259v-145h-415v680h415v-145zM198 862c48 0 85 -35 85 -81c0 -44 -37 -81 -85 -81c-51 0 -87 37 -87 81c0 46 36 81 87 81zM390 862c47 0 87 -35 87 -81c0 -44 -40 -81 -87 -81c-52 0 -86 37 -86 81c0 46 34 81 86 81z" />
<glyph unicode="&#xcc;" horiz-adv-x="329" d="M242 0h-155v680h155v-680zM233 712h-130l-111 144h152z" />
<glyph unicode="&#xcd;" horiz-adv-x="329" d="M242 0h-155v680h155v-680zM226 712h-129l89 144h152z" />
<glyph unicode="&#xce;" horiz-adv-x="329" d="M242 0h-155v680h155v-680zM131 712h-129l89 144h149l89 -144h-129l-35 43z" />
<glyph unicode="&#xcf;" horiz-adv-x="329" d="M242 0h-155v680h155v-680zM69 862c48 0 85 -35 85 -81c0 -44 -37 -81 -85 -81c-51 0 -87 37 -87 81c0 46 36 81 87 81zM261 862c47 0 87 -35 87 -81c0 -44 -40 -81 -87 -81c-52 0 -86 37 -86 81c0 46 34 81 86 81z" />
<glyph unicode="&#xd1;" horiz-adv-x="671" d="M584 0h-133l-210 371v-371h-154v680h135l208 -381v381h154v-680zM262 866c46 0 98 -47 126 -47c13 0 21 10 22 37h115c-6 -57 -41 -126 -115 -126c-51 0 -91 47 -125 47c-12 0 -20 -9 -21 -37h-115c7 57 38 126 113 126z" />
<glyph unicode="&#xd2;" horiz-adv-x="699" d="M347 690c175 0 315 -157 315 -350c0 -191 -140 -350 -315 -350c-172 0 -310 159 -310 350c0 193 138 350 310 350zM347 543c-83 0 -147 -90 -147 -203c0 -114 64 -203 147 -203c86 0 152 89 152 203c0 113 -66 203 -152 203zM427 712h-130l-111 144h152z" />
<glyph unicode="&#xd3;" horiz-adv-x="699" d="M347 690c175 0 315 -157 315 -350c0 -191 -140 -350 -315 -350c-172 0 -310 159 -310 350c0 193 138 350 310 350zM347 543c-83 0 -147 -90 -147 -203c0 -114 64 -203 147 -203c86 0 152 89 152 203c0 113 -66 203 -152 203zM412 712h-129l89 144h152z" />
<glyph unicode="&#xd4;" horiz-adv-x="699" d="M347 690c175 0 315 -157 315 -350c0 -191 -140 -350 -315 -350c-172 0 -310 159 -310 350c0 193 138 350 310 350zM347 543c-83 0 -147 -90 -147 -203c0 -114 64 -203 147 -203c86 0 152 89 152 203c0 113 -66 203 -152 203zM316 712h-129l89 144h149l89 -144h-129 l-35 43z" />
<glyph unicode="&#xd5;" horiz-adv-x="699" d="M347 690c175 0 315 -157 315 -350c0 -191 -140 -350 -315 -350c-172 0 -310 159 -310 350c0 193 138 350 310 350zM347 543c-83 0 -147 -90 -147 -203c0 -114 64 -203 147 -203c86 0 152 89 152 203c0 113 -66 203 -152 203zM274 866c46 0 98 -47 126 -47 c13 0 21 10 22 37h115c-6 -57 -41 -126 -115 -126c-51 0 -91 47 -125 47c-12 0 -20 -9 -21 -37h-115c7 57 38 126 113 126z" />
<glyph unicode="&#xd6;" horiz-adv-x="699" d="M347 690c175 0 315 -157 315 -350c0 -191 -140 -350 -315 -350c-172 0 -310 159 -310 350c0 193 138 350 310 350zM347 543c-83 0 -147 -90 -147 -203c0 -114 64 -203 147 -203c86 0 152 89 152 203c0 113 -66 203 -152 203zM255 863c48 0 85 -35 85 -81 c0 -44 -37 -81 -85 -81c-51 0 -87 37 -87 81c0 46 36 81 87 81zM447 863c47 0 87 -35 87 -81c0 -44 -40 -81 -87 -81c-52 0 -86 37 -86 81c0 46 34 81 86 81z" />
<glyph unicode="&#xd9;" horiz-adv-x="691" d="M614 680v-380c0 -205 -106 -310 -274 -310c-175 0 -263 110 -263 310v380h156v-380c0 -161 92 -165 107 -165c21 0 117 3 117 165v380h157zM420 712h-130l-111 144h152z" />
<glyph unicode="&#xda;" horiz-adv-x="691" d="M614 680v-380c0 -205 -106 -310 -274 -310c-175 0 -263 110 -263 310v380h156v-380c0 -161 92 -165 107 -165c21 0 117 3 117 165v380h157zM414 712h-129l89 144h152z" />
<glyph unicode="&#xdb;" horiz-adv-x="691" d="M614 680v-380c0 -205 -106 -310 -274 -310c-175 0 -263 110 -263 310v380h156v-380c0 -161 92 -165 107 -165c21 0 117 3 117 165v380h157zM312 712h-129l89 144h149l89 -144h-129l-35 43z" />
<glyph unicode="&#xdc;" horiz-adv-x="691" d="M614 680v-380c0 -205 -106 -310 -274 -310c-175 0 -263 110 -263 310v380h156v-380c0 -161 92 -165 107 -165c21 0 117 3 117 165v380h157zM252 862c48 0 85 -35 85 -81c0 -44 -37 -81 -85 -81c-51 0 -87 37 -87 81c0 46 36 81 87 81zM444 862c47 0 87 -35 87 -81 c0 -44 -40 -81 -87 -81c-52 0 -86 37 -86 81c0 46 34 81 86 81z" />
<glyph unicode="&#xdd;" horiz-adv-x="645" d="M244 324l-250 356h172l156 -225l155 225h171l-247 -356v-324h-157v324zM387 712h-129l89 144h152z" />
<glyph unicode="&#xe0;" horiz-adv-x="487" d="M115 322l-88 92c68 65 151 86 205 86c169 0 198 -123 198 -220v-280h-129l-4 44c-35 -36 -82 -54 -124 -54c-76 0 -146 70 -146 165s94 164 229 164h24c0 42 -36 53 -58 53c-36 0 -74 -19 -107 -50zM201 116c38 0 63 32 81 54v44c-71 -2 -125 -15 -125 -59 c0 -27 25 -39 44 -39zM307 535h-129l-112 145h152z" />
<glyph unicode="&#xe1;" horiz-adv-x="487" d="M115 322l-88 92c68 65 151 86 205 86c169 0 198 -123 198 -220v-280h-129l-4 44c-35 -36 -82 -54 -124 -54c-76 0 -146 70 -146 165s94 164 229 164h24c0 42 -36 53 -58 53c-36 0 -74 -19 -107 -50zM201 116c38 0 63 32 81 54v44c-71 -2 -125 -15 -125 -59 c0 -27 25 -39 44 -39zM303 535h-129l89 145h152z" />
<glyph unicode="&#xe2;" horiz-adv-x="487" d="M115 322l-88 92c68 65 151 86 205 86c169 0 198 -123 198 -220v-280h-129l-4 44c-35 -36 -82 -54 -124 -54c-76 0 -146 70 -146 165s94 164 229 164h24c0 42 -36 53 -58 53c-36 0 -74 -19 -107 -50zM201 116c38 0 63 32 81 54v44c-71 -2 -125 -15 -125 -59 c0 -27 25 -39 44 -39zM200 535h-130l89 145h150l89 -145h-130l-35 44z" />
<glyph unicode="&#xe3;" horiz-adv-x="487" d="M115 322l-88 92c68 65 151 86 205 86c169 0 198 -123 198 -220v-280h-129l-4 44c-35 -36 -82 -54 -124 -54c-76 0 -146 70 -146 165s94 164 229 164h24c0 42 -36 53 -58 53c-36 0 -74 -19 -107 -50zM201 116c38 0 63 32 81 54v44c-71 -2 -125 -15 -125 -59 c0 -27 25 -39 44 -39zM154 690c46 0 98 -47 126 -47c13 0 21 10 22 37h115c-6 -57 -41 -126 -115 -126c-51 0 -91 47 -125 47c-12 0 -20 -9 -21 -37h-115c7 57 38 126 113 126z" />
<glyph unicode="&#xe4;" horiz-adv-x="487" d="M115 322l-88 92c68 65 151 86 205 86c169 0 198 -123 198 -220v-280h-129l-4 44c-35 -36 -82 -54 -124 -54c-76 0 -146 70 -146 165s94 164 229 164h24c0 42 -36 53 -58 53c-36 0 -74 -19 -107 -50zM201 116c38 0 63 32 81 54v44c-71 -2 -125 -15 -125 -59 c0 -27 25 -39 44 -39zM136 690c49 0 85 -35 85 -81c0 -44 -36 -82 -85 -82c-52 0 -87 38 -87 82c0 46 35 81 87 81zM328 690c48 0 88 -35 88 -81c0 -44 -40 -82 -88 -82c-51 0 -86 38 -86 82c0 46 35 81 86 81z" />
<glyph unicode="&#xe5;" horiz-adv-x="487" d="M115 322l-88 92c68 65 151 86 205 86c169 0 198 -123 198 -220v-280h-129l-4 44c-35 -36 -82 -54 -124 -54c-76 0 -146 70 -146 165s94 164 229 164h24c0 42 -36 53 -58 53c-36 0 -74 -19 -107 -50zM201 116c38 0 63 32 81 54v44c-71 -2 -125 -15 -125 -59 c0 -27 25 -39 44 -39zM229 723c68 0 111 -44 111 -100c0 -54 -43 -97 -111 -97c-57 0 -105 43 -105 97c0 56 48 100 105 100zM232 652c-9 0 -21 -9 -21 -29c0 -16 12 -26 21 -26c11 0 23 10 23 26c0 20 -12 29 -23 29z" />
<glyph unicode="&#xe7;" horiz-adv-x="487" d="M183 -98l19 97c-95 28 -165 123 -165 246c0 150 102 255 227 255c69 0 135 -24 196 -102l-96 -84c-26 38 -59 58 -90 58c-47 0 -88 -45 -88 -127s41 -127 88 -127c31 0 64 20 90 58l96 -84c-49 -62 -101 -91 -155 -99l-4 -25c58 -19 83 -58 83 -97 c0 -56 -50 -112 -130 -112c-72 0 -115 40 -136 70l56 49c8 -9 29 -33 49 -33c19 0 28 13 28 26c0 17 -14 35 -38 35c-10 0 -21 -1 -30 -4z" />
<glyph unicode="&#xe8;" horiz-adv-x="516" d="M269 -10c-143 0 -232 122 -232 255c0 154 101 255 227 255c128 0 225 -101 225 -222v-64h-316c6 -69 50 -97 110 -97c33 0 80 27 112 66l90 -89c-58 -57 -114 -104 -216 -104zM173 318h183c-9 32 -39 64 -90 64c-52 0 -80 -32 -93 -64zM345 535h-129l-112 145h152z" />
<glyph unicode="&#xe9;" horiz-adv-x="516" d="M269 -10c-143 0 -232 122 -232 255c0 154 101 255 227 255c128 0 225 -101 225 -222v-64h-316c6 -69 50 -97 110 -97c33 0 80 27 112 66l90 -89c-58 -57 -114 -104 -216 -104zM173 318h183c-9 32 -39 64 -90 64c-52 0 -80 -32 -93 -64zM331 535h-129l89 145h152z" />
<glyph unicode="&#xea;" horiz-adv-x="516" d="M269 -10c-143 0 -232 122 -232 255c0 154 101 255 227 255c128 0 225 -101 225 -222v-64h-316c6 -69 50 -97 110 -97c33 0 80 27 112 66l90 -89c-58 -57 -114 -104 -216 -104zM173 318h183c-9 32 -39 64 -90 64c-52 0 -80 -32 -93 -64zM232 535h-130l89 145h150l89 -145 h-130l-35 44z" />
<glyph unicode="&#xeb;" horiz-adv-x="516" d="M269 -10c-143 0 -232 122 -232 255c0 154 101 255 227 255c128 0 225 -101 225 -222v-64h-316c6 -69 50 -97 110 -97c33 0 80 27 112 66l90 -89c-58 -57 -114 -104 -216 -104zM173 318h183c-9 32 -39 64 -90 64c-52 0 -80 -32 -93 -64zM166 690c49 0 85 -35 85 -81 c0 -44 -36 -82 -85 -82c-52 0 -87 38 -87 82c0 46 35 81 87 81zM358 690c48 0 88 -35 88 -81c0 -44 -40 -82 -88 -82c-51 0 -86 38 -86 82c0 46 35 81 86 81z" />
<glyph unicode="&#xec;" horiz-adv-x="283" d="M216 0h-149v491h149v-491zM207 535h-129l-112 145h152z" />
<glyph unicode="&#xed;" horiz-adv-x="283" d="M216 0h-149v491h149v-491zM203 535h-129l89 145h152z" />
<glyph unicode="&#xee;" horiz-adv-x="283" d="M216 0h-149v491h149v-491zM106 535h-130l89 145h150l89 -145h-130l-35 44z" />
<glyph unicode="&#xef;" horiz-adv-x="283" d="M216 0h-149v491h149v-491zM45 690c49 0 85 -35 85 -81c0 -44 -36 -82 -85 -82c-52 0 -87 38 -87 82c0 46 35 81 87 81zM237 690c48 0 88 -35 88 -81c0 -44 -40 -82 -88 -82c-51 0 -86 38 -86 82c0 46 35 81 86 81z" />
<glyph unicode="&#xf1;" horiz-adv-x="530" d="M324 0v325c0 31 -16 48 -37 48c-32 0 -73 -37 -73 -98l2 -275h-149v491h129l5 -44c36 42 92 53 118 53c71 0 154 -62 154 -170v-330h-149zM203 690c46 0 98 -47 126 -47c13 0 21 10 22 37h115c-6 -57 -41 -126 -115 -126c-51 0 -91 47 -125 47c-12 0 -20 -9 -21 -37h-115 c7 57 38 126 113 126z" />
<glyph unicode="&#xf2;" horiz-adv-x="528" d="M260 500c126 0 231 -113 231 -255c0 -136 -105 -255 -231 -255c-120 0 -223 119 -223 255c0 142 103 255 223 255zM341 245c0 73 -39 121 -79 121c-38 0 -76 -47 -76 -121c0 -76 38 -121 76 -121c40 0 79 47 79 121zM323 535h-129l-112 145h152z" />
<glyph unicode="&#xf3;" horiz-adv-x="528" d="M260 500c126 0 231 -113 231 -255c0 -136 -105 -255 -231 -255c-120 0 -223 119 -223 255c0 142 103 255 223 255zM341 245c0 73 -39 121 -79 121c-38 0 -76 -47 -76 -121c0 -76 38 -121 76 -121c40 0 79 47 79 121zM318 535h-129l89 145h152z" />
<glyph unicode="&#xf4;" horiz-adv-x="528" d="M260 500c126 0 231 -113 231 -255c0 -136 -105 -255 -231 -255c-120 0 -223 119 -223 255c0 142 103 255 223 255zM341 245c0 73 -39 121 -79 121c-38 0 -76 -47 -76 -121c0 -76 38 -121 76 -121c40 0 79 47 79 121zM230 535h-130l89 145h150l89 -145h-130l-35 44z" />
<glyph unicode="&#xf5;" horiz-adv-x="528" d="M260 500c126 0 231 -113 231 -255c0 -136 -105 -255 -231 -255c-120 0 -223 119 -223 255c0 142 103 255 223 255zM341 245c0 73 -39 121 -79 121c-38 0 -76 -47 -76 -121c0 -76 38 -121 76 -121c40 0 79 47 79 121zM187 690c46 0 98 -47 126 -47c13 0 21 10 22 37h115 c-6 -57 -41 -126 -115 -126c-51 0 -91 47 -125 47c-12 0 -20 -9 -21 -37h-115c7 57 38 126 113 126z" />
<glyph unicode="&#xf6;" horiz-adv-x="528" d="M260 500c126 0 231 -113 231 -255c0 -136 -105 -255 -231 -255c-120 0 -223 119 -223 255c0 142 103 255 223 255zM341 245c0 73 -39 121 -79 121c-38 0 -76 -47 -76 -121c0 -76 38 -121 76 -121c40 0 79 47 79 121zM164 690c49 0 85 -35 85 -81c0 -44 -36 -82 -85 -82 c-52 0 -87 38 -87 82c0 46 35 81 87 81zM356 690c48 0 88 -35 88 -81c0 -44 -40 -82 -88 -82c-51 0 -86 38 -86 82c0 46 35 81 86 81z" />
<glyph unicode="&#xf9;" horiz-adv-x="530" d="M206 491v-323c0 -31 16 -47 37 -47c32 0 73 36 73 97l-2 273h149v-491h-129l-5 44c-36 -44 -92 -54 -118 -54c-71 0 -154 62 -154 170v331h149zM326 535h-129l-112 145h152z" />
<glyph unicode="&#xfa;" horiz-adv-x="530" d="M206 491v-323c0 -31 16 -47 37 -47c32 0 73 36 73 97l-2 273h149v-491h-129l-5 44c-36 -44 -92 -54 -118 -54c-71 0 -154 62 -154 170v331h149zM324 535h-129l89 145h152z" />
<glyph unicode="&#xfb;" horiz-adv-x="530" d="M206 491v-323c0 -31 16 -47 37 -47c32 0 73 36 73 97l-2 273h149v-491h-129l-5 44c-36 -44 -92 -54 -118 -54c-71 0 -154 62 -154 170v331h149zM226 535h-130l89 145h150l89 -145h-130l-35 44z" />
<glyph unicode="&#xfc;" horiz-adv-x="530" d="M206 491v-323c0 -31 16 -47 37 -47c32 0 73 36 73 97l-2 273h149v-491h-129l-5 44c-36 -44 -92 -54 -118 -54c-71 0 -154 62 -154 170v331h149zM162 690c49 0 85 -35 85 -81c0 -44 -36 -82 -85 -82c-52 0 -87 38 -87 82c0 46 35 81 87 81zM354 690c48 0 88 -35 88 -81 c0 -44 -40 -82 -88 -82c-51 0 -86 38 -86 82c0 46 35 81 86 81z" />
<glyph unicode="&#xfd;" horiz-adv-x="524" d="M276 -121c-32 -83 -79 -119 -138 -119c-38 0 -80 16 -126 38l52 115c32 -9 58 -13 63 -13c7 0 12 3 13 8l51 131c-55 147 -117 305 -173 452h155l94 -262l90 262h155zM333 535h-129l89 145h152z" />
<glyph unicode="&#xff;" horiz-adv-x="524" d="M276 -121c-32 -83 -79 -119 -138 -119c-38 0 -80 16 -126 38l52 115c32 -9 58 -13 63 -13c7 0 12 3 13 8l51 131c-55 147 -117 305 -173 452h155l94 -262l90 262h155zM179 690c49 0 85 -35 85 -81c0 -44 -36 -82 -85 -82c-52 0 -87 38 -87 82c0 46 35 81 87 81zM371 690 c48 0 88 -35 88 -81c0 -44 -40 -82 -88 -82c-51 0 -86 38 -86 82c0 46 35 81 86 81z" />
<glyph unicode="&#x100;" horiz-adv-x="616" d="M619 0h-167l-48 134c-65 0 -127 -1 -193 -1l-47 -133h-167l254 680h112zM260 279h93l-46 156zM460 751h-305v105h305v-105z" />
<glyph unicode="&#x101;" horiz-adv-x="487" d="M115 322l-88 92c68 65 151 86 205 86c169 0 198 -123 198 -220v-280h-129l-4 44c-35 -36 -82 -54 -124 -54c-76 0 -146 70 -146 165s94 164 229 164h24c0 42 -36 53 -58 53c-36 0 -74 -19 -107 -50zM201 116c38 0 63 32 81 54v44c-71 -2 -125 -15 -125 -59 c0 -27 25 -39 44 -39zM390 575h-306v105h306v-105z" />
<glyph unicode="&#x102;" horiz-adv-x="616" d="M619 0h-167l-48 134c-65 0 -127 -1 -193 -1l-47 -133h-167l254 680h112zM260 279h93l-46 156zM346 856h127c-1 -87 -80 -139 -159 -139c-78 0 -158 48 -165 139h131c3 -37 20 -58 32 -58s30 21 34 58z" />
<glyph unicode="&#x103;" horiz-adv-x="487" d="M115 322l-88 92c68 65 151 86 205 86c169 0 198 -123 198 -220v-280h-129l-4 44c-35 -36 -82 -54 -124 -54c-76 0 -146 70 -146 165s94 164 229 164h24c0 42 -36 53 -58 53c-36 0 -74 -19 -107 -50zM201 116c38 0 63 32 81 54v44c-71 -2 -125 -15 -125 -59 c0 -27 25 -39 44 -39zM276 680h128c-1 -87 -80 -139 -160 -139c-78 0 -158 48 -165 139h132c3 -37 19 -57 31 -57s30 20 34 57z" />
<glyph unicode="&#x104;" horiz-adv-x="616" d="M619 0c-29 -23 -45 -53 -45 -81c0 -23 23 -52 68 -66l-21 -94c-116 35 -186 89 -186 163c0 27 15 54 38 78h-21l-48 134c-65 0 -127 -1 -193 -1l-47 -133h-167l254 680h112zM260 279h93l-46 156z" />
<glyph unicode="&#x105;" horiz-adv-x="511" d="M115 322l-88 92c68 65 151 86 205 86c169 0 198 -123 198 -220v-280c-28 -23 -44 -53 -44 -82c0 -23 23 -52 68 -66l-21 -94c-116 35 -186 89 -186 163c0 32 21 65 53 92l-3 31c-35 -36 -82 -54 -124 -54c-76 0 -146 70 -146 165s94 164 229 164h24c0 42 -36 53 -58 53 c-36 0 -74 -19 -107 -50zM201 116c38 0 63 32 81 54v44c-71 -2 -125 -15 -125 -59c0 -27 25 -39 44 -39z" />
<glyph unicode="&#x106;" horiz-adv-x="656" d="M199 340c0 -118 65 -206 148 -206c48 0 115 28 161 106l116 -84c-81 -116 -177 -166 -277 -166c-172 0 -310 148 -310 350s138 350 310 350c100 0 196 -51 277 -166l-116 -84c-47 76 -112 106 -161 106c-83 0 -148 -88 -148 -206zM407 712h-129l89 144h152z" />
<glyph unicode="&#x107;" horiz-adv-x="487" d="M264 -10c-125 0 -227 107 -227 255c0 150 102 255 227 255c69 0 135 -24 196 -102l-96 -84c-26 38 -59 58 -90 58c-47 0 -88 -45 -88 -127s41 -127 88 -127c31 0 64 20 90 58l96 -84c-61 -78 -127 -102 -196 -102zM332 535h-129l89 145h152z" />
<glyph unicode="&#x108;" horiz-adv-x="656" d="M199 340c0 -118 65 -206 148 -206c48 0 115 28 161 106l116 -84c-81 -116 -177 -166 -277 -166c-172 0 -310 148 -310 350s138 350 310 350c100 0 196 -51 277 -166l-116 -84c-47 76 -112 106 -161 106c-83 0 -148 -88 -148 -206zM307 712h-129l89 144h149l89 -144h-129 l-35 43z" />
<glyph unicode="&#x109;" horiz-adv-x="487" d="M264 -10c-125 0 -227 107 -227 255c0 150 102 255 227 255c69 0 135 -24 196 -102l-96 -84c-26 38 -59 58 -90 58c-47 0 -88 -45 -88 -127s41 -127 88 -127c31 0 64 20 90 58l96 -84c-61 -78 -127 -102 -196 -102zM232 535h-130l89 145h150l89 -145h-130l-35 44z" />
<glyph unicode="&#x10a;" horiz-adv-x="656" d="M199 340c0 -118 65 -206 148 -206c48 0 115 28 161 106l116 -84c-81 -116 -177 -166 -277 -166c-172 0 -310 148 -310 350s138 350 310 350c100 0 196 -51 277 -166l-116 -84c-47 76 -112 106 -161 106c-83 0 -148 -88 -148 -206zM330 885c50 0 91 -40 91 -86 s-41 -85 -91 -85c-54 0 -89 39 -89 85s35 86 89 86z" />
<glyph unicode="&#x10b;" horiz-adv-x="487" d="M264 -10c-125 0 -227 107 -227 255c0 150 102 255 227 255c69 0 135 -24 196 -102l-96 -84c-26 38 -59 58 -90 58c-47 0 -88 -45 -88 -127s41 -127 88 -127c31 0 64 20 90 58l96 -84c-61 -78 -127 -102 -196 -102zM263 690c49 0 92 -42 92 -89c0 -50 -43 -89 -92 -89 c-57 0 -95 39 -95 89c0 47 38 89 95 89z" />
<glyph unicode="&#x10c;" horiz-adv-x="656" d="M199 340c0 -118 65 -206 148 -206c48 0 115 28 161 106l116 -84c-81 -116 -177 -166 -277 -166c-172 0 -310 148 -310 350s138 350 310 350c100 0 196 -51 277 -166l-116 -84c-47 76 -112 106 -161 106c-83 0 -148 -88 -148 -206zM175 856h130l33 -44c12 15 24 29 35 44 h130l-89 -145h-150z" />
<glyph unicode="&#x10d;" horiz-adv-x="487" d="M264 -10c-125 0 -227 107 -227 255c0 150 102 255 227 255c69 0 135 -24 196 -102l-96 -84c-26 38 -59 58 -90 58c-47 0 -88 -45 -88 -127s41 -127 88 -127c31 0 64 20 90 58l96 -84c-61 -78 -127 -102 -196 -102zM105 680h130l33 -44c12 15 24 29 35 44h130l-89 -145 h-150z" />
<glyph unicode="&#x10e;" horiz-adv-x="641" d="M87 680h184c209 0 333 -126 333 -341s-124 -339 -333 -339h-184v680zM243 535v-390h28c98 0 171 56 171 194c0 140 -73 196 -171 196h-28zM150 856h130l33 -44c12 15 24 29 35 44h130l-89 -145h-150z" />
<glyph unicode="&#x112;" horiz-adv-x="549" d="M502 535h-259v-95h236v-145h-236v-150h259v-145h-415v680h415v-145zM448 751h-305v105h305v-105z" />
<glyph unicode="&#x113;" horiz-adv-x="516" d="M269 -10c-143 0 -232 122 -232 255c0 154 101 255 227 255c128 0 225 -101 225 -222v-64h-316c6 -69 50 -97 110 -97c33 0 80 27 112 66l90 -89c-58 -57 -114 -104 -216 -104zM173 318h183c-9 32 -39 64 -90 64c-52 0 -80 -32 -93 -64zM418 575h-306v105h306v-105z" />
<glyph unicode="&#x114;" horiz-adv-x="549" d="M502 535h-259v-95h236v-145h-236v-150h259v-145h-415v680h415v-145zM330 856h127c-1 -87 -80 -139 -159 -139c-78 0 -158 48 -165 139h131c3 -37 20 -58 32 -58s30 21 34 58z" />
<glyph unicode="&#x115;" horiz-adv-x="516" d="M269 -10c-143 0 -232 122 -232 255c0 154 101 255 227 255c128 0 225 -101 225 -222v-64h-316c6 -69 50 -97 110 -97c33 0 80 27 112 66l90 -89c-58 -57 -114 -104 -216 -104zM173 318h183c-9 32 -39 64 -90 64c-52 0 -80 -32 -93 -64zM301 679h128 c-1 -87 -80 -139 -160 -139c-78 0 -158 48 -165 139h132c3 -37 19 -57 31 -57s30 20 34 57z" />
<glyph unicode="&#x116;" horiz-adv-x="549" d="M502 535h-259v-95h236v-145h-236v-150h259v-145h-415v680h415v-145zM297 886c50 0 91 -40 91 -86s-41 -85 -91 -85c-54 0 -89 39 -89 85s35 86 89 86z" />
<glyph unicode="&#x117;" horiz-adv-x="516" d="M269 -10c-143 0 -232 122 -232 255c0 154 101 255 227 255c128 0 225 -101 225 -222v-64h-316c6 -69 50 -97 110 -97c33 0 80 27 112 66l90 -89c-58 -57 -114 -104 -216 -104zM173 318h183c-9 32 -39 64 -90 64c-52 0 -80 -32 -93 -64zM269 690c49 0 92 -42 92 -89 c0 -50 -43 -89 -92 -89c-57 0 -95 39 -95 89c0 47 38 89 95 89z" />
<glyph unicode="&#x118;" horiz-adv-x="549" d="M502 535h-259v-95h236v-145h-236v-150h259v-145c-28 -23 -44 -53 -44 -81c0 -23 23 -52 68 -66l-21 -94c-116 35 -186 89 -186 163c0 27 15 54 38 78h-270v680h415v-145z" />
<glyph unicode="&#x119;" horiz-adv-x="516" d="M485 94c-42 -41 -82 -77 -139 -94c-26 -22 -42 -52 -42 -81c0 -23 23 -52 68 -66l-21 -94c-116 35 -186 89 -186 163c0 27 14 54 37 78c-103 30 -165 134 -165 245c0 154 101 255 227 255c128 0 225 -101 225 -222v-64h-316c6 -69 50 -97 110 -97c33 0 80 27 112 66z M173 318h183c-9 32 -39 64 -90 64c-52 0 -80 -32 -93 -64z" />
<glyph unicode="&#x11a;" horiz-adv-x="549" d="M502 535h-259v-95h236v-145h-236v-150h259v-145h-415v680h415v-145zM132 856h130l33 -44c12 15 24 29 35 44h130l-89 -145h-150z" />
<glyph unicode="&#x11b;" horiz-adv-x="516" d="M269 -10c-143 0 -232 122 -232 255c0 154 101 255 227 255c128 0 225 -101 225 -222v-64h-316c6 -69 50 -97 110 -97c33 0 80 27 112 66l90 -89c-58 -57 -114 -104 -216 -104zM173 318h183c-9 32 -39 64 -90 64c-52 0 -80 -32 -93 -64zM101 680h130l33 -44 c12 15 24 29 35 44h130l-89 -145h-150z" />
<glyph unicode="&#x11c;" horiz-adv-x="668" d="M641 545l-115 -88c-46 66 -97 80 -153 80c-84 0 -173 -63 -173 -196c0 -130 65 -206 165 -206c31 0 74 4 111 18v98h-165v145h323l-1 -317c-84 -63 -179 -89 -252 -89c-187 0 -344 126 -344 350c0 216 167 350 336 350c97 0 200 -44 268 -145zM305 712h-129l89 144h149 l89 -144h-129l-35 43z" />
<glyph unicode="&#x11d;" horiz-adv-x="496" d="M37 -83c0 49 28 90 66 116c-27 24 -31 51 -31 64c0 15 2 39 27 63c-40 42 -54 102 -54 144c0 97 71 196 196 196c49 0 93 -24 93 -22c20 38 53 48 86 48c31 0 61 -8 91 -26l-44 -94c-19 11 -40 18 -58 18c-4 0 -9 -1 -12 -2c26 -37 40 -56 40 -118 c0 -120 -91 -192 -196 -192c-12 0 -29 1 -43 3c3 -10 15 -28 53 -28c151 0 234 -68 234 -154c0 -87 -78 -173 -231 -173c-140 0 -217 70 -217 157zM186 306c0 -35 25 -66 57 -66c27 0 54 31 54 66c0 33 -27 66 -54 66c-32 0 -57 -33 -57 -66zM348 -71c0 33 -119 45 -147 51 c-19 -19 -27 -34 -27 -51c0 -24 25 -40 80 -40c60 0 94 16 94 40zM202 535h-130l89 145h150l89 -145h-130l-35 44z" />
<glyph unicode="&#x11e;" horiz-adv-x="668" d="M641 545l-115 -88c-46 66 -97 80 -153 80c-84 0 -173 -63 -173 -196c0 -130 65 -206 165 -206c31 0 74 4 111 18v98h-165v145h323l-1 -317c-84 -63 -179 -89 -252 -89c-187 0 -344 126 -344 350c0 216 167 350 336 350c97 0 200 -44 268 -145zM376 856h127 c-1 -87 -80 -139 -159 -139c-78 0 -158 48 -165 139h131c3 -37 20 -58 32 -58s30 21 34 58z" />
<glyph unicode="&#x11f;" horiz-adv-x="496" d="M37 -83c0 49 28 90 66 116c-27 24 -31 51 -31 64c0 15 2 39 27 63c-40 42 -54 102 -54 144c0 97 71 196 196 196c49 0 93 -24 93 -22c20 38 53 48 86 48c31 0 61 -8 91 -26l-44 -94c-19 11 -40 18 -58 18c-4 0 -9 -1 -12 -2c26 -37 40 -56 40 -118 c0 -120 -91 -192 -196 -192c-12 0 -29 1 -43 3c3 -10 15 -28 53 -28c151 0 234 -68 234 -154c0 -87 -78 -173 -231 -173c-140 0 -217 70 -217 157zM186 306c0 -35 25 -66 57 -66c27 0 54 31 54 66c0 33 -27 66 -54 66c-32 0 -57 -33 -57 -66zM348 -71c0 33 -119 45 -147 51 c-19 -19 -27 -34 -27 -51c0 -24 25 -40 80 -40c60 0 94 16 94 40zM276 680h128c-1 -87 -80 -139 -160 -139c-78 0 -158 48 -165 139h132c3 -37 19 -57 31 -57s30 20 34 57z" />
<glyph unicode="&#x120;" horiz-adv-x="668" d="M641 545l-115 -88c-46 66 -97 80 -153 80c-84 0 -173 -63 -173 -196c0 -130 65 -206 165 -206c31 0 74 4 111 18v98h-165v145h323l-1 -317c-84 -63 -179 -89 -252 -89c-187 0 -344 126 -344 350c0 216 167 350 336 350c97 0 200 -44 268 -145zM367 886 c50 0 91 -40 91 -86s-41 -85 -91 -85c-54 0 -89 39 -89 85s35 86 89 86z" />
<glyph unicode="&#x121;" horiz-adv-x="496" d="M37 -83c0 49 28 90 66 116c-27 24 -31 51 -31 64c0 15 2 39 27 63c-40 42 -54 102 -54 144c0 97 71 196 196 196c49 0 93 -24 93 -22c20 38 53 48 86 48c31 0 61 -8 91 -26l-44 -94c-19 11 -40 18 -58 18c-4 0 -9 -1 -12 -2c26 -37 40 -56 40 -118 c0 -120 -91 -192 -196 -192c-12 0 -29 1 -43 3c3 -10 15 -28 53 -28c151 0 234 -68 234 -154c0 -87 -78 -173 -231 -173c-140 0 -217 70 -217 157zM186 306c0 -35 25 -66 57 -66c27 0 54 31 54 66c0 33 -27 66 -54 66c-32 0 -57 -33 -57 -66zM348 -71c0 33 -119 45 -147 51 c-19 -19 -27 -34 -27 -51c0 -24 25 -40 80 -40c60 0 94 16 94 40zM245 690c49 0 92 -42 92 -89c0 -50 -43 -89 -92 -89c-57 0 -95 39 -95 89c0 47 38 89 95 89z" />
<glyph horiz-adv-x="545" d="M345 31c-28 -30 -67 -41 -110 -41c-110 0 -198 114 -198 253c0 138 88 257 197 257c12 0 75 -2 114 -45l5 36h128v-446c0 -138 -67 -277 -214 -285c-112 3 -193 71 -216 194h145c5 -30 34 -55 61 -55c54 0 83 75 88 132zM258 374c-47 0 -78 -59 -78 -131 c0 -71 31 -127 78 -127c46 0 82 56 82 127c0 72 -36 131 -82 131z" />
<glyph horiz-adv-x="545" d="M345 31c-28 -30 -67 -41 -110 -41c-110 0 -198 114 -198 253c0 138 88 257 197 257c12 0 75 -2 114 -45l5 36h128v-446c0 -138 -67 -277 -214 -285c-112 3 -193 71 -216 194h145c5 -30 34 -55 61 -55c54 0 83 75 88 132zM258 374c-47 0 -78 -59 -78 -131 c0 -71 31 -127 78 -127c46 0 82 56 82 127c0 72 -36 131 -82 131zM247 690c49 0 92 -42 92 -89c0 -50 -43 -89 -92 -89c-57 0 -95 39 -95 89c0 47 38 89 95 89z" />
<glyph horiz-adv-x="545" d="M345 31c-28 -30 -67 -41 -110 -41c-110 0 -198 114 -198 253c0 138 88 257 197 257c12 0 75 -2 114 -45l5 36h128v-446c0 -138 -67 -277 -214 -285c-112 3 -193 71 -216 194h145c5 -30 34 -55 61 -55c54 0 83 75 88 132zM258 374c-47 0 -78 -59 -78 -131 c0 -71 31 -127 78 -127c46 0 82 56 82 127c0 72 -36 131 -82 131zM210 535h-130l89 145h150l89 -145h-130l-35 44z" />
<glyph horiz-adv-x="545" d="M345 31c-28 -30 -67 -41 -110 -41c-110 0 -198 114 -198 253c0 138 88 257 197 257c12 0 75 -2 114 -45l5 36h128v-446c0 -138 -67 -277 -214 -285c-112 3 -193 71 -216 194h145c5 -30 34 -55 61 -55c54 0 83 75 88 132zM258 374c-47 0 -78 -59 -78 -131 c0 -71 31 -127 78 -127c46 0 82 56 82 127c0 72 -36 131 -82 131zM279 680h128c-1 -87 -80 -139 -160 -139c-78 0 -158 48 -165 139h132c3 -37 19 -57 31 -57s30 20 34 57z" />
<glyph horiz-adv-x="545" d="M345 31c-28 -30 -67 -41 -110 -41c-110 0 -198 114 -198 253c0 138 88 257 197 257c12 0 75 -2 114 -45l5 36h128v-446c0 -138 -67 -277 -214 -285c-112 3 -193 71 -216 194h145c5 -30 34 -55 61 -55c54 0 83 75 88 132zM258 374c-47 0 -78 -59 -78 -131 c0 -71 31 -127 78 -127c46 0 82 56 82 127c0 72 -36 131 -82 131zM212 729h133c-21 -56 -32 -121 -32 -180h-143c2 84 15 122 42 180z" />
</font>
</defs>
</svg>
