<?xml version="1.0" standalone="no"?>
<!DOCTYPE svg PUBLIC "-//W3C//DTD SVG 1.1//EN" "http://www.w3.org/Graphics/SVG/1.1/DTD/svg11.dtd" >
<svg xmlns="http://www.w3.org/2000/svg" xmlns:xlink="http://www.w3.org/1999/xlink" version="1.1">
<metadata></metadata>
<defs>
<font id="mucho_sansheavy" horiz-adv-x="1099" >
<font-face units-per-em="2048" ascent="1536" descent="-512" />
<missing-glyph horiz-adv-x="512" />
<glyph unicode="&#xfb01;" horiz-adv-x="1153" d="M53 774v230h125v65q0 86 33.5 154.5t87.5 108.5t116.5 60.5t127.5 20.5q41 0 84 -8v-223q-24 4 -33 4q-68 0 -121 -31.5t-53 -91.5v-59h577v-1004h-241v774h-336v-774h-242v774h-125zM733 1272q0 58 41 99.5t100 41.5q57 0 99.5 -42t42.5 -99q0 -58 -42.5 -101t-99.5 -43 q-59 0 -100 42.5t-41 101.5z" />
<glyph unicode="&#xfb02;" horiz-adv-x="1155" d="M53 774v230h125v65q0 86 33.5 154.5t87.5 108.5t116.5 60.5t127.5 20.5q41 0 84 -8v-223q-24 4 -33 4q-68 0 -121 -31.5t-53 -91.5v-59h207v-230h-207v-774h-242v774h-125zM758 0v1393h241v-1393h-241z" />
<glyph unicode="&#xfb03;" horiz-adv-x="1732" d="M53 774v230h125v65q0 86 33.5 154.5t87.5 108.5t116.5 60.5t127.5 20.5q41 0 84 -8v-223q-24 4 -33 4q-68 0 -121 -31.5t-53 -91.5v-59h338v65q0 69 22 127.5t58.5 97.5t84 66.5t98 40t101.5 12.5q41 0 84 -8v-223q-24 4 -32 4q-68 0 -121.5 -31.5t-53.5 -91.5v-59h578 v-1004h-242v774h-336v-774h-241v774h-338v-774h-242v774h-125zM1313 1272q0 58 41 99.5t100 41.5q57 0 99 -42t42 -99q0 -58 -42 -101t-99 -43q-59 0 -100 42.5t-41 101.5z" />
<glyph unicode="&#xfb04;" horiz-adv-x="1730" d="M53 774v230h125v65q0 86 33.5 154.5t87.5 108.5t116.5 60.5t127.5 20.5q41 0 84 -8v-223q-24 4 -33 4q-68 0 -121 -31.5t-53 -91.5v-59h336v65q0 69 22 127.5t58.5 97.5t84 66.5t98 40t101.5 12.5q41 0 84 -8v-223q-24 4 -33 4q-68 0 -121 -31.5t-53 -91.5v-59h207v-230 h-207v-774h-241v774h-336v-774h-242v774h-125zM1333 0v1393h242v-1393h-242z" />
<glyph horiz-adv-x="0" />
<glyph horiz-adv-x="682" />
<glyph unicode=" "  horiz-adv-x="512" />
<glyph unicode="&#x09;" horiz-adv-x="512" />
<glyph unicode="&#xa0;" horiz-adv-x="512" />
<glyph unicode="!" horiz-adv-x="690" d="M197 119q0 62 42.5 103.5t106.5 41.5q61 0 104.5 -42t43.5 -103q0 -57 -44 -98t-104 -41q-64 0 -106.5 40.5t-42.5 98.5zM225 317v1076h250v-1076h-250z" />
<glyph unicode="&#x22;" horiz-adv-x="843" d="M135 928v465h234v-465h-234zM475 928v465h234v-465h-234z" />
<glyph unicode="#" horiz-adv-x="1300" d="M94 362v236h180l25 207h-154v233h174l39 355h265l-35 -355h184l41 355h260l-35 -355h168v-233h-190l-25 -207h166v-236h-190l-39 -362h-262l41 362h-191l-39 -362h-262l37 362h-158zM543 598h184l27 207h-187z" />
<glyph unicode="$" horiz-adv-x="1157" d="M94 119l125 211q222 -115 344 -115q97 0 167.5 55.5t70.5 128.5q0 29 -8.5 50.5t-35 47.5t-79 52.5t-135.5 58.5q-66 25 -106.5 41t-90.5 40t-79 44.5t-60 49t-47 60t-26.5 72.5t-10.5 89q0 92 36 171t112 138.5t182 83.5v139h249v-131q124 -19 299 -113l-100 -225 q-188 111 -299 111q-40 0 -75.5 -7t-69 -24t-53 -50t-19.5 -79q0 -42 37.5 -77t97 -62t132 -55t145 -64.5t132 -82.5t97 -117.5t37.5 -160.5q0 -137 -99 -251t-259 -152v-141l-252 2v131q-191 25 -359 131z" />
<glyph unicode="%" horiz-adv-x="1914" d="M115 991q0 176 97 299t239 123q139 0 236 -124t97 -298q0 -113 -44 -210t-121 -154.5t-168 -57.5q-141 0 -238.5 124.5t-97.5 297.5zM356 991q0 -87 27 -147t68 -60q40 0 66 59t26 148q0 88 -25.5 147.5t-66.5 59.5q-39 0 -67 -59.5t-28 -147.5zM410 0l837 1393h262 l-837 -1393h-262zM1128 403q0 112 44.5 209t122 155t169.5 58q138 0 237 -126t99 -296q0 -175 -98.5 -299t-237.5 -124q-140 0 -238 124t-98 299zM1370 403q0 -91 26 -149.5t68 -58.5t69.5 59t27.5 149q0 86 -27.5 146.5t-69.5 60.5q-40 0 -67 -59t-27 -148z" />
<glyph unicode="&#x26;" horiz-adv-x="1431" d="M156 418q0 209 143 321q-50 56 -79.5 131t-29.5 152q0 183 120 287t304 104q215 0 337 -109.5t122 -285.5h-262q0 72 -50 116t-138 44q-74 0 -123 -40.5t-49 -121.5q0 -75 47.5 -121.5t113.5 -46.5h564v-236h-103v-262q3 -59 74.5 -97t185.5 -38l4 -235q-242 0 -387 106 q-125 -106 -338 -106q-90 0 -170 27t-145 78.5t-103 137.5t-38 195zM418 412q0 -100 59 -148.5t137 -48.5q88 0 141 37.5t56 97.5v262h-203q-86 0 -138 -47t-52 -153z" />
<glyph unicode="'" horiz-adv-x="505" d="M135 928v465h236v-465h-236z" />
<glyph unicode="(" horiz-adv-x="872" d="M135 657q0 267 133 525.5t375 421.5l154 -193q-188 -142 -294 -340t-106 -414q0 -217 106.5 -416t295.5 -341l-156 -189q-162 107 -278.5 265.5t-173 331.5t-56.5 349z" />
<glyph unicode=")" horiz-adv-x="870" d="M74 -100q187 142 293 341t106 414q0 218 -105 416t-294 340l153 193q242 -163 375 -421.5t133 -525.5q0 -176 -56.5 -349t-173 -331.5t-278.5 -265.5z" />
<glyph unicode="*" horiz-adv-x="884" d="M94 1110l154 49l-98 139l188 140l100 -142l99 140l192 -138l-100 -139l162 -51l-70 -223l-164 53v-166h-238v164l-153 -49z" />
<glyph unicode="+" horiz-adv-x="1386" d="M94 498v235h486v467h245v-467h467v-235h-467v-486h-245v486h-486z" />
<glyph unicode="," horiz-adv-x="645" d="M154 -106l82 104q0 3 -3 6q-36 18 -56.5 53t-20.5 76q0 67 49.5 113.5t118.5 46.5q66 0 115.5 -47t49.5 -113q0 -143 -237 -326z" />
<glyph unicode="-" horiz-adv-x="942" d="M74 498v235h794v-235h-794z" />
<glyph unicode="." horiz-adv-x="645" d="M156 133q0 66 49 113t119 47q66 0 115.5 -47t49.5 -113q0 -63 -49.5 -108t-115.5 -45q-70 0 -119 45t-49 108z" />
<glyph unicode="/" horiz-adv-x="968" d="M29 -193l649 1588h262l-649 -1588h-262z" />
<glyph unicode="0" horiz-adv-x="1435" d="M135 692q0 195 74 360t207 263t295 98q164 0 300 -99t212.5 -264.5t76.5 -359.5q0 -193 -76.5 -356t-211.5 -258.5t-299 -95.5q-123 0 -231 56.5t-183.5 152t-119.5 226.5t-44 277zM397 692q0 -197 95 -337t221 -140q86 0 161 63t119.5 173.5t44.5 240.5 q0 132 -44.5 244.5t-119.5 177t-161 64.5q-126 0 -221 -143t-95 -343z" />
<glyph unicode="1" horiz-adv-x="946" d="M33 1118l325 275h250v-1157h244v-236h-737v236h243v849l-172 -139z" />
<glyph unicode="2" horiz-adv-x="1083" d="M115 0v219q0 71 43 149t107 142.5t139.5 133.5t139.5 125t107 114.5t43 103.5q0 92 -43 141.5t-104 49.5q-59 0 -99.5 -38t-56.5 -92t-16 -120h-260q2 134 53.5 243.5t150.5 175.5t228 66q97 0 175.5 -33.5t129 -90.5t77.5 -132.5t27 -161.5q0 -69 -28.5 -134t-75.5 -119 t-105 -105t-119 -99.5t-114 -95t-94.5 -100t-57.5 -106.5h607v-236h-854z" />
<glyph unicode="3" horiz-adv-x="1120" d="M115 440h260q0 -109 59 -168t137 -59q72 0 122 48.5t50 141.5q0 116 -52.5 162.5t-141.5 46.5h-162v234h158q67 0 115.5 46.5t48.5 121.5q0 80 -43 123t-105 43q-174 0 -174 -252h-262q0 134 49.5 242.5t150 175.5t236.5 67q79 0 152 -26t131 -74.5t92.5 -124 t34.5 -166.5q0 -90 -38 -161.5t-104 -117.5q91 -53 134 -132t43 -199q0 -105 -37 -189t-99 -136t-138.5 -79.5t-160.5 -27.5q-87 0 -167.5 29.5t-145.5 85t-104 145t-39 200.5z" />
<glyph unicode="4" horiz-adv-x="1114" d="M63 315v236l580 844h250v-844h158v-236h-158v-315h-250v315h-580zM330 551h311v448z" />
<glyph unicode="5" horiz-adv-x="1120" d="M115 436h256q0 -89 56.5 -156t117.5 -67q76 0 137 77t61 189t-59.5 182t-140.5 70q-50 0 -99 -30t-84 -89h-245l133 781h682v-236h-467l-47 -250q97 51 182 51q78 0 152 -35.5t130.5 -97t91 -153.5t34.5 -197q0 -142 -66.5 -258t-170.5 -178t-220 -62q-82 0 -159.5 32 t-139 89.5t-98.5 145.5t-37 192z" />
<glyph unicode="6" horiz-adv-x="1189" d="M115 692q0 151 28.5 278t87 228t157 158t228.5 57q125 0 234.5 -58.5t181.5 -164.5l-174 -133q-88 127 -213 127q-102 0 -174.5 -85.5t-75.5 -230.5q49 49 118 77t130 28q123 0 223 -68t154.5 -181t54.5 -245q0 -66 -16.5 -133.5t-53.5 -134t-89.5 -117.5t-132.5 -82.5 t-175 -31.5q-83 0 -153.5 25t-120 67.5t-88.5 101t-63.5 122t-40 135t-21.5 135t-6 126.5zM383 606q0 -65 12 -129.5t36.5 -126t71 -99.5t107.5 -38q77 0 140 73t63 195q0 110 -56.5 182t-142.5 72q-68 0 -135.5 -37.5t-95.5 -91.5z" />
<glyph unicode="7" horiz-adv-x="948" d="M43 1157v236h862v-236l-508 -1157h-266l516 1157h-604z" />
<glyph unicode="8" horiz-adv-x="1138" d="M115 383q0 232 159 342q-118 121 -118 299q0 92 35 167.5t94 123t132 73t152 25.5t151.5 -23.5t132 -68.5t95 -117t35.5 -162q0 -92 -38.5 -175t-106.5 -140q38 -30 67 -59.5t58 -70.5t45 -91.5t16 -106.5q0 -175 -126 -297t-329 -122q-102 0 -189 34.5t-144 91.5 t-89 129t-32 148zM360 395q0 -81 62 -135.5t149 -54.5q81 0 146 54.5t65 129.5q0 48 -19 87t-56 67.5t-72 46.5t-84 37q-4 -2 -38 -21.5t-45 -27t-38 -30t-38 -41t-21.5 -48.5t-10.5 -64zM401 1032q0 -40 14.5 -72.5t42 -55.5t49 -36.5t52.5 -27.5q61 21 121.5 77t60.5 115 q0 68 -48.5 112t-121.5 44q-27 0 -54.5 -8t-54.5 -24.5t-44 -48.5t-17 -75z" />
<glyph unicode="9" horiz-adv-x="1189" d="M115 913q0 66 16.5 134t53.5 134t89.5 117.5t132.5 83t175 31.5q115 0 204.5 -48.5t142.5 -122.5t87.5 -172.5t46.5 -188.5t12 -181q0 -151 -29 -278t-87.5 -227.5t-157 -157.5t-228.5 -57q-125 0 -234 58.5t-181 164.5l174 133q88 -127 213 -127q102 0 174.5 85 t75.5 230q-49 -49 -118 -76.5t-130 -27.5q-123 0 -223 67.5t-154.5 180.5t-54.5 245zM377 911q0 -110 56 -182t142 -72q68 0 136 37.5t96 91.5q0 51 -7 102.5t-24 105t-42 94t-65 66.5t-89 26q-77 0 -140 -73.5t-63 -195.5z" />
<glyph unicode=":" horiz-adv-x="645" d="M156 133q0 66 49 113t119 47q66 0 115.5 -47t49.5 -113q0 -64 -49 -108.5t-116 -44.5q-71 0 -119.5 44.5t-48.5 108.5zM156 705q0 67 48.5 113t119.5 46q67 0 116 -46t49 -113q0 -64 -49 -109t-116 -45q-70 0 -119 44.5t-49 109.5z" />
<glyph unicode=";" horiz-adv-x="645" d="M154 -106l82 104q0 3 -3 6q-36 18 -56.5 53t-20.5 76q0 67 49.5 113.5t118.5 46.5q66 0 115.5 -47t49.5 -113q0 -143 -237 -326zM156 705q0 67 48.5 113t119.5 46q67 0 116 -46t49 -113q0 -64 -49 -109t-116 -45q-70 0 -119 44.5t-49 109.5z" />
<glyph unicode="&#x3c;" horiz-adv-x="958" d="M94 539v110l770 471v-250l-475 -268l475 -283v-253z" />
<glyph unicode="=" horiz-adv-x="1298" d="M94 299v236h1110v-236h-1110zM94 674v233h1110v-233h-1110z" />
<glyph unicode="&#x3e;" horiz-adv-x="958" d="M94 66v253l477 283l-477 268v250l770 -471v-110z" />
<glyph unicode="?" horiz-adv-x="903" d="M12 1182q58 101 163 166t228 65q78 0 149.5 -24.5t129.5 -71.5t92.5 -124t34.5 -175q0 -58 -16 -108.5t-41 -86.5t-55.5 -67.5t-61.5 -58t-56 -52.5t-41 -57t-16 -64v-207h-246v207q0 54 15 100.5t39 79.5t53 63t58.5 57.5t53.5 55.5t39 63.5t15 76.5q0 66 -40.5 112 t-127.5 46q-49 0 -100 -35.5t-93 -108.5zM252 119q0 60 43 102.5t106 42.5q62 0 108 -42.5t46 -102.5q0 -57 -46 -98t-108 -41q-63 0 -106 41t-43 98z" />
<glyph unicode="@" horiz-adv-x="1746" d="M104 526q0 141 49 274.5t132 234t199 161.5t243 61q136 0 248.5 -59t179 -168t66.5 -246v-473h-222l-16 49q-78 -92 -195 -92q-105 0 -181.5 71t-76.5 177q0 60 21.5 110t57.5 83.5t82.5 57t96 34t99.5 10.5h88q0 58 -22.5 101.5t-58.5 66t-73.5 33t-75.5 10.5 q-68 0 -135 -34t-121.5 -95t-88 -156t-33.5 -207q0 -107 34 -201t96.5 -166t159.5 -113.5t215 -41.5q146 0 261.5 85.5t177.5 216.5t69 282h262q0 -166 -62 -318.5t-165.5 -261.5t-245.5 -174t-295 -65q-154 0 -296 59.5t-246 160.5t-166 240.5t-62 292.5zM727 530 q0 -62 31 -89t69 -27q51 0 101 49t55 100v135q-120 -9 -188 -51t-68 -117z" />
<glyph unicode="A" horiz-adv-x="1249" d="M12 0l518 1393h187l520 -1393h-268l-129 354q-54 0 -216 -1t-216 -1q-22 -61 -63.5 -181.5t-59.5 -170.5h-273zM498 594h250q-25 65 -68.5 186t-54.5 150z" />
<glyph unicode="B" horiz-adv-x="1218" d="M197 0v1393h395q219 0 338 -101.5t119 -273.5q0 -75 -32 -136t-112 -116q219 -74 219 -330q0 -184 -130 -310t-318 -126h-479zM446 236h230q78 0 132 52.5t54 149.5q0 88 -57 139.5t-127 51.5h-232v-393zM446 864h232q56 0 82 46.5t26 101.5q0 20 -4.5 40t-17.5 46 t-45 42.5t-78 16.5h-195v-293z" />
<glyph unicode="C" horiz-adv-x="1349" d="M94 696q0 203 84 368t228 257t317 92q324 0 543 -313l-201 -150q-137 228 -342 228q-156 0 -261.5 -138t-105.5 -344t105.5 -343.5t261.5 -137.5q202 0 342 229l201 -149q-220 -315 -543 -315q-130 0 -246 54t-200 148t-133.5 228t-49.5 286z" />
<glyph unicode="D" horiz-adv-x="1320" d="M197 0v1393h356q318 0 496 -184.5t178 -514.5q0 -329 -177.5 -511.5t-496.5 -182.5h-356zM446 236h107q189 0 300.5 112t111.5 346q0 121 -30.5 211t-86.5 144.5t-129.5 81t-165.5 26.5h-107v-921z" />
<glyph unicode="E" horiz-adv-x="1120" d="M197 0v1393h809v-236h-560v-283h512v-235h-512v-403h560v-236h-809z" />
<glyph unicode="F" horiz-adv-x="1058" d="M197 0v1393h768v-236h-519v-293h465v-235h-465v-629h-249z" />
<glyph unicode="G" horiz-adv-x="1400" d="M94 696q0 166 59 304.5t157 227t222.5 137t258.5 48.5q317 0 536 -313l-201 -150q-137 228 -340 228q-81 0 -157 -31.5t-137.5 -89.5t-98.5 -151t-37 -206q0 -225 111 -355t295 -130q162 0 285 55v275h-361v235h610l-2 -626q-116 -86 -251 -130t-255 -44 q-143 0 -268.5 48t-220.5 136.5t-150 226t-55 305.5z" />
<glyph unicode="H" horiz-adv-x="1386" d="M197 0v1393h249v-519h494v519h250v-1393h-250v639h-494v-639h-249z" />
<glyph unicode="I" horiz-adv-x="643" d="M197 0v1393h249v-1393h-249z" />
<glyph unicode="J" horiz-adv-x="1132" d="M74 426v74h248v-68q0 -104 59.5 -160.5t140.5 -56.5t140 55t59 144v743h-436v236h671v-957q0 -221 -113 -338.5t-317 -117.5q-207 0 -329.5 118t-122.5 328z" />
<glyph unicode="K" horiz-adv-x="1280" d="M197 0v1393h235v-453l492 453h303l-697 -645q122 -135 373.5 -409.5t310.5 -338.5h-294l-488 541v-541h-235z" />
<glyph unicode="L" horiz-adv-x="1118" d="M197 0v1393h249v-1157h619v-236h-868z" />
<glyph unicode="M" horiz-adv-x="1751" d="M156 0l116 1393h281l326 -926l319 926h281l116 -1393h-249l-86 840l-306 -840h-157l-303 836l-88 -836h-250z" />
<glyph unicode="N" horiz-adv-x="1382" d="M197 0v1393h221l518 -887v887h250v-1393h-221l-519 874l-2 -874h-247z" />
<glyph unicode="O" horiz-adv-x="1449" d="M94 696q0 146 49.5 278.5t133.5 228.5t200.5 153t245.5 57q130 0 247 -57t201.5 -153t134.5 -228.5t50 -278.5q0 -145 -50 -277.5t-134.5 -228.5t-201.5 -153t-247 -57q-172 0 -317 96.5t-228.5 261t-83.5 358.5zM356 696q0 -132 48 -242.5t132.5 -174.5t186.5 -64 q156 0 263.5 139.5t107.5 341.5t-107.5 342t-263.5 140q-102 0 -186.5 -64t-132.5 -175t-48 -243z" />
<glyph unicode="P" horiz-adv-x="1136" d="M197 0v1393h436q105 0 190 -35t139 -94t82.5 -132t28.5 -153q0 -78 -29 -151t-82 -131.5t-138.5 -94t-190.5 -35.5h-187v-567h-249zM446 803h187q47 0 83 16.5t55.5 43.5t29.5 56.5t10 59.5t-10 60t-29.5 57t-55.5 44t-83 17h-187v-354z" />
<glyph unicode="Q" horiz-adv-x="1449" d="M94 696q0 146 49.5 278.5t133.5 228.5t200.5 153t245.5 57q130 0 247 -57t201.5 -153t134.5 -228.5t50 -278.5q0 -177 -71 -330t-195 -251q99 -20 251 -37v-215q-286 6 -655 123q-164 9 -300 105.5t-214 256.5t-78 348zM356 696q0 -201 106 -339t261 -138q157 0 264 138 t107 339q0 202 -107.5 342t-263.5 140q-102 0 -186.5 -64t-132.5 -175t-48 -243z" />
<glyph unicode="R" horiz-adv-x="1204" d="M197 0v1393h401q103 0 188.5 -35t140 -93.5t84 -132.5t29.5 -153q0 -103 -49.5 -191t-140.5 -141l301 -647h-264l-266 586h-175v-586h-249zM446 821h152q90 0 135 48.5t45 109.5q0 30 -10 60t-30.5 57t-56.5 44t-83 17h-152v-336z" />
<glyph unicode="S" horiz-adv-x="1157" d="M94 119l125 211q222 -115 344 -115q97 0 167.5 55.5t70.5 128.5q0 29 -8.5 50.5t-35 47.5t-79 52.5t-135.5 58.5q-66 25 -106.5 41t-90.5 40t-79 44.5t-60 49t-47 60t-26.5 72.5t-10.5 89q0 83 30.5 156t88.5 130t151 90t209 33q182 0 399 -121l-100 -225 q-188 111 -299 111q-40 0 -75.5 -7t-69 -24t-53 -50t-19.5 -79q0 -42 37.5 -77t97 -62t132 -55t145 -64.5t132 -82.5t97 -117.5t37.5 -160.5q0 -168 -142 -293.5t-358 -125.5q-132 0 -255.5 42t-213.5 97z" />
<glyph unicode="T" horiz-adv-x="1060" d="M12 1157v236h1037v-236h-394v-1157h-249v1157h-394z" />
<glyph unicode="U" horiz-adv-x="1423" d="M176 612v781h250v-781q0 -80 13.5 -145t33 -105t48.5 -70t53 -44t53 -22.5t43 -9.5t28 -1q18 0 33.5 1t48.5 9t58.5 22t57 44t52 70.5t35 105t14.5 145.5v781h250v-781q0 -309 -145 -470.5t-404 -161.5q-258 0 -390 161.5t-132 470.5z" />
<glyph unicode="V" horiz-adv-x="1239" d="M12 1393h256l350 -926l353 926h256l-520 -1393h-177z" />
<glyph unicode="W" horiz-adv-x="1767" d="M94 1393h256l234 -926l233 926h133l240 -926l227 926h256l-391 -1393h-178l-219 776l-221 -776h-179z" />
<glyph unicode="X" horiz-adv-x="1447" d="M94 0l492 698l-492 695h287l340 -496l346 496h287l-490 -695l490 -698h-287l-344 498l-342 -498h-287z" />
<glyph unicode="Y" horiz-adv-x="1275" d="M12 1393h287l340 -486q61 92 196.5 284.5t141.5 201.5h287l-500 -713v-680h-250v676z" />
<glyph unicode="Z" horiz-adv-x="1218" d="M94 0v236l737 921h-737v236h1030v-236l-735 -921h735v-236h-1030z" />
<glyph unicode="[" horiz-adv-x="731" d="M197 -295v1925h460v-235h-211v-1456h211v-234h-460z" />
<glyph unicode="\" horiz-adv-x="1017" d="M53 1395h262l650 -1588h-263z" />
<glyph unicode="]" horiz-adv-x="735" d="M74 -63h211v1456h-211v235h461v-1925h-461v234z" />
<glyph unicode="^" horiz-adv-x="1368" d="M94 614l529 779h116l535 -779h-266l-328 461q-44 -65 -155.5 -223t-164.5 -238h-266z" />
<glyph unicode="_" horiz-adv-x="1091" d="M-6 -92h1104v-234h-1104v234z" />
<glyph unicode="`" horiz-adv-x="497" d="M33 1393h262l170 -285h-203z" />
<glyph unicode="a" horiz-adv-x="1005" d="M74 864q89 75 204 117.5t205 42.5q387 0 387 -446v-578h-235l-8 84q-90 -104 -201 -104q-80 0 -148 28.5t-111 74.5t-67 102t-24 114q0 84 39 144.5t115.5 96.5t173.5 54t227 24q0 104 -35 140.5t-113 36.5q-96 0 -250 -99zM326 307q0 -45 29 -71.5t71 -26.5 q60 0 121.5 51.5t79.5 85.5q2 8 2 74v10q-39 -1 -64.5 -1.5t-60.5 -3.5t-57.5 -8t-47.5 -14t-39.5 -21.5t-24 -31.5t-9.5 -43z" />
<glyph unicode="b" horiz-adv-x="1138" d="M156 0v1393h241v-490q109 121 246 121q103 0 195.5 -69.5t149 -190.5t56.5 -262q0 -130 -57 -251t-152 -196t-198 -75q-134 0 -240 126l-8 -106h-233zM395 502q0 -123 57 -208t140 -85q85 0 144 85t59 208q0 126 -58.5 209.5t-144.5 83.5q-84 0 -140.5 -83t-56.5 -210z " />
<glyph unicode="c" horiz-adv-x="1024" d="M94 502q0 226 133 374t326 148q226 0 397 -229l-170 -148q-45 74 -106.5 111t-120.5 37q-90 0 -149.5 -84t-59.5 -209t59.5 -209t149.5 -84q59 0 121 37t106 110l170 -147q-171 -229 -397 -229q-126 0 -231 66.5t-166.5 187t-61.5 268.5z" />
<glyph unicode="d" horiz-adv-x="1138" d="M94 502q0 141 56.5 262t149.5 190.5t196 69.5q145 0 245 -111v480h242v-1393h-233l-9 96q-98 -116 -239 -116q-103 0 -198 75t-152.5 196t-57.5 251zM344 502q0 -123 59 -208t144 -85q83 0 139.5 85t56.5 208q0 127 -56 210t-140 83q-86 0 -144.5 -83.5t-58.5 -209.5z " />
<glyph unicode="e" horiz-adv-x="1064" d="M94 502q0 245 129.5 383.5t327.5 138.5q130 0 231.5 -66.5t155 -176.5t53.5 -242q0 -41 -10 -109h-635q0 -70 37.5 -122.5t86 -75.5t95.5 -23q59 0 121.5 37t106.5 110l170 -147q-171 -229 -398 -229q-117 0 -209 43t-148 116.5t-85 166t-29 196.5zM356 618h371 q-8 85 -60 131t-116 46q-68 0 -123.5 -43.5t-71.5 -133.5z" />
<glyph unicode="f" horiz-adv-x="731" d="M53 774v230h125q0 200 75 304.5t226 104.5q70 0 140 -27t124 -71l-110 -189q-64 52 -109 52q-51 0 -77 -41t-27 -133h213v-230h-213v-774h-242v774h-125z" />
<glyph unicode="g" horiz-adv-x="1028" d="M94 -184q0 86 35.5 157.5t101.5 102.5q-61 68 -61 131q0 57 74 121q-66 57 -98.5 142.5t-32.5 164.5q0 75 26 144.5t73.5 124.5t122 88.5t163.5 33.5q118 0 192 -45q30 60 81.5 95.5t111.5 35.5q63 0 157 -63l-67 -191q-32 12 -58 12q-29 0 -43 -5t-36 -27 q53 -92 53 -203q0 -174 -113.5 -278.5t-277.5 -104.5q-92 0 -129 18q0 -5 -3.5 -17.5t-3.5 -16.5q0 -32 32 -56t116 -24q112 0 197.5 -16t151 -51t100 -95.5t34.5 -145.5q0 -140 -125 -240t-346 -100q-204 0 -316 82.5t-112 225.5zM348 -152q0 -49 40.5 -81.5t133.5 -32.5 q106 0 160.5 31.5t54.5 70.5q0 99 -338 113q-4 -6 -15 -20.5t-17.5 -24t-12.5 -25t-6 -31.5zM354 639q0 -66 43 -113t103 -47t103.5 47t43.5 113q0 64 -43.5 111t-103.5 47t-103 -46.5t-43 -111.5z" />
<glyph unicode="h" horiz-adv-x="1101" d="M156 0v1393h241v-516q98 147 256 147q126 0 220 -94t94 -242v-688h-242v659q-6 69 -39.5 102.5t-75.5 33.5q-90 0 -152.5 -72.5t-62.5 -185.5l2 -537h-241z" />
<glyph unicode="i" horiz-adv-x="552" d="M133 1272q0 58 41 99.5t100 41.5q57 0 99.5 -42t42.5 -99q0 -58 -42.5 -101t-99.5 -43q-59 0 -100 42.5t-41 101.5zM156 0v1004h241v-1004h-241z" />
<glyph unicode="j" horiz-adv-x="571" d="M-215 -446l92 210q98 -26 119 -26q46 0 81 23t53.5 55t30 72t14.5 67.5t3 48.5v1000h242v-1000q0 -71 -14 -139.5t-46.5 -134t-80.5 -114t-121.5 -78.5t-163.5 -30q-64 0 -209 46zM156 1272q0 57 41.5 99t99.5 42t100.5 -42t42.5 -99q0 -59 -42.5 -101.5t-100.5 -42.5 t-99.5 42.5t-41.5 101.5z" />
<glyph unicode="k" horiz-adv-x="1067" d="M156 0v1393h241v-717l369 328h272l-506 -449l523 -555h-277l-381 412v-412h-241z" />
<glyph unicode="l" horiz-adv-x="552" d="M156 0v1393h241v-1393h-241z" />
<glyph unicode="m" horiz-adv-x="1613" d="M156 0v1004h233l8 -125q42 71 98 108t117 37q79 0 153.5 -50t119.5 -145q51 96 125.5 145.5t154.5 49.5q120 0 213.5 -93.5t100.5 -236.5l-2 -694h-242v659q0 66 -26 101t-60 35q-90 0 -152.5 -72.5t-62.5 -185.5l2 -537h-242v659q0 67 -24.5 101.5t-61.5 34.5 q-90 0 -151.5 -72.5t-61.5 -185.5l2 -537h-241z" />
<glyph unicode="n" d="M156 0v1004h233l8 -127q49 74 115.5 110.5t138.5 36.5q125 0 219.5 -95t94.5 -241v-688h-242v659q0 69 -24.5 102.5t-61.5 33.5q-93 0 -167.5 -73.5t-74.5 -184.5l2 -537h-241z" />
<glyph unicode="o" d="M94 502q0 142 61.5 262.5t165.5 190t224 69.5q92 0 177 -41.5t147.5 -111t99.5 -166.5t37 -203q0 -139 -62.5 -259.5t-169 -191.5t-229.5 -71q-120 0 -224 71t-165.5 191.5t-61.5 259.5zM342 502q0 -122 61.5 -207.5t141.5 -85.5q88 0 149.5 84.5t61.5 208.5t-61.5 208.5 t-149.5 84.5q-80 0 -141.5 -85.5t-61.5 -207.5z" />
<glyph unicode="p" horiz-adv-x="1138" d="M156 -471v1475h233l8 -97q99 117 240 117q103 0 198 -75t152 -196t57 -251q0 -141 -56.5 -262t-149 -190.5t-195.5 -69.5q-146 0 -246 110v-561h-241zM395 502q0 -127 56.5 -210t140.5 -83q86 0 144.5 83.5t58.5 209.5q0 123 -59 208t-144 85q-83 0 -140 -85t-57 -208z " />
<glyph unicode="q" horiz-adv-x="1138" d="M94 502q0 130 57.5 251t152.5 196t198 75q140 0 239 -117l9 97h233v-1475h-242v561q-100 -110 -245 -110q-103 0 -196 69.5t-149.5 190.5t-56.5 262zM344 502q0 -126 58.5 -209.5t144.5 -83.5q84 0 140 83t56 210q0 123 -56.5 208t-139.5 85q-85 0 -144 -85t-59 -208z " />
<glyph unicode="r" horiz-adv-x="835" d="M156 0v1004h233l8 -203q44 114 94.5 168.5t120.5 54.5q83 0 211 -76l-104 -203q-57 43 -123 43q-81 0 -141 -71t-60 -176l2 -541h-241z" />
<glyph unicode="s" horiz-adv-x="835" d="M53 147l166 170q55 -55 103.5 -81.5t101.5 -26.5q39 0 73.5 24.5t34.5 53.5q0 28 -31 55.5t-67 45.5t-94 42q-37 16 -57 24.5t-53.5 26t-52.5 32t-42.5 37.5t-36 46.5t-21.5 55.5t-9 69q0 132 96 217.5t268 85.5q179 0 350 -168l-168 -170q-106 109 -200 109 q-97 0 -97 -74q0 -17 34 -37t104 -51q144 -64 201 -106q126 -91 126 -234q0 -124 -109.5 -218.5t-266.5 -94.5q-180 0 -353 167z" />
<glyph unicode="t" horiz-adv-x="757" d="M53 778v226h125v245h242v-245h217v-226h-217v-448q0 -121 63 -121q66 0 156 76l106 -205q-141 -100 -262 -100q-77 0 -137.5 31t-96 82.5t-53.5 111.5t-18 123v450h-125z" />
<glyph unicode="u" d="M135 315v689h242v-660q0 -69 24.5 -102t61.5 -33q93 0 167.5 73.5t74.5 184.5l-3 537h242v-1004h-233l-9 127q-98 -147 -253 -147q-125 0 -219.5 94.5t-94.5 240.5z" />
<glyph unicode="v" horiz-adv-x="1048" d="M43 1004h240l241 -652l244 652h238l-377 -1004h-211z" />
<glyph unicode="w" horiz-adv-x="1314" d="M53 1004h236l160 -652l124 652h166l123 -656l164 656h236l-281 -1004h-219l-107 461l-106 -461h-215z" />
<glyph unicode="x" horiz-adv-x="1103" d="M53 0l369 500l-369 504h258l234 -330l250 330h256l-369 -498l369 -506h-256l-232 330l-254 -330h-256z" />
<glyph unicode="y" horiz-adv-x="1079" d="M43 -449l92 211q98 -26 121 -26q27 0 47 17.5t27 49.5l104 248l-360 953h235l242 -652l250 652h235l-491 -1264q-91 -229 -293 -232q-73 0 -209 43z" />
<glyph unicode="z" horiz-adv-x="901" d="M74 0v225l471 549h-471v230h753v-230l-473 -549h473v-225h-753z" />
<glyph unicode="{" horiz-adv-x="751" d="M156 657q102 83 149 151.5t47 149.5q0 45 -5 140t-5 133q0 70 13 127t48 119.5t103.5 122.5t171.5 118v-297q-49 -52 -67.5 -89.5t-18.5 -80.5q0 -38 5 -137.5t5 -155.5q0 -120 -15.5 -179t-70.5 -122q56 -64 71 -122t15 -181q0 -37 -5 -137.5t-5 -155.5 q0 -43 18.5 -78.5t67.5 -86.5v-295q-104 59 -173 119.5t-103.5 121.5t-47 115.5t-12.5 122.5q0 40 5 136t5 138q0 82 -48 153.5t-148 149.5z" />
<glyph unicode="|" horiz-adv-x="643" d="M197 -231v1663h249v-1663h-249z" />
<glyph unicode="}" horiz-adv-x="747" d="M74 -104q50 50 68 85.5t18 79.5q0 41 -5 142t-5 151q0 119 16.5 178t71.5 125q-54 65 -71 124.5t-17 176.5q0 43 5 143t5 150q0 44 -18.5 81.5t-67.5 88.5v297q75 -43 131 -88t106 -103.5t76.5 -132.5t26.5 -159q0 -40 -7.5 -136t-7.5 -141q0 -80 47 -149.5t146 -151.5 q-98 -79 -145.5 -150.5t-47.5 -152.5q0 -42 5.5 -137.5t5.5 -136.5q0 -67 -13 -122t-47 -116.5t-103 -121.5t-173 -119v295z" />
<glyph unicode="~" horiz-adv-x="1306" d="M94 379q0 223 93.5 339t246.5 116q58 0 110.5 -23.5t90.5 -57.5t72.5 -68t71 -57.5t71.5 -23.5q31 0 53 14t33.5 34.5t18.5 53.5t8.5 60t1.5 65h247q0 -224 -96.5 -339t-241.5 -115q-73 0 -131.5 23t-95.5 55.5t-68.5 64.5t-67.5 55t-75 23q-20 0 -35 -6.5t-25 -15.5 t-16.5 -27.5t-10 -32.5t-5.5 -42t-2 -44.5v-50.5h-248z" />
<glyph unicode="&#xa1;" horiz-adv-x="690" d="M197 885q0 58 42.5 98.5t106.5 40.5q60 0 104 -41t44 -98q0 -61 -43.5 -103.5t-104.5 -42.5q-64 0 -106.5 42t-42.5 104zM225 -389v1075h250v-1075h-250z" />
<glyph unicode="&#xa2;" horiz-adv-x="1044" d="M94 502q0 190 97.5 329t250.5 179v198h250v-209q141 -48 258 -204l-170 -148q-45 74 -106.5 111t-120.5 37q-90 0 -149.5 -84t-59.5 -209t59.5 -209t149.5 -84q59 0 121 37t106 110l170 -147q-113 -154 -258 -207v-205h-250v197q-153 40 -250.5 179t-97.5 329z" />
<glyph unicode="&#xa3;" horiz-adv-x="1138" d="M115 0v227q63 0 86.5 26.5t23.5 61.5v365h-110v174h110v98q0 93 24.5 173.5t73 146t132 103.5t192.5 38q170 0 377 -106l-109 -201q-140 74 -233 74q-88 0 -147.5 -56.5t-59.5 -171.5v-98h320v-174h-320v-369q0 -41 -20 -75h524v-236h-864z" />
<glyph unicode="&#xa4;" horiz-adv-x="1386" d="M94 1061l170 176l115 -107q155 97 311 97q165 0 285 -76l92 100l168 -151l-92 -99q112 -145 112 -323q0 -164 -81 -279l118 -123l-178 -167l-123 116q-136 -92 -303 -92q-156 0 -295 82l-96 -109l-166 154l100 107q-53 70 -80.5 153t-27.5 162q0 147 82 276zM373 680 q0 -133 97.5 -222t223.5 -89q130 0 221 89.5t91 217.5q0 132 -92.5 223.5t-219.5 91.5q-132 0 -226.5 -90t-94.5 -221z" />
<glyph unicode="&#xa5;" horiz-adv-x="1398" d="M74 1393h286l340 -486q61 92 196.5 284.5t141.5 201.5h287l-379 -539h105v-174h-226v-84h226v-174h-226v-422h-250v422h-221v174h221v84h-221v174h97z" />
<glyph unicode="&#xa6;" horiz-adv-x="643" d="M197 -225v749h249v-749h-249zM197 672v762h249v-762h-249z" />
<glyph unicode="&#xa7;" horiz-adv-x="1042" d="M115 657q0 98 106 195q-71 80 -71 178q0 94 60.5 165t154.5 105.5t204 34.5q170 0 308 -80l-99 -211q-119 56 -221 56q-62 0 -103.5 -18t-41.5 -52q0 -16 14 -28.5t41.5 -21.5t56.5 -15.5t70.5 -16.5t71.5 -20q118 -36 190 -104t72 -152q0 -104 -115 -205 q45 -39 62.5 -80t17.5 -98q0 -92 -56.5 -163.5t-150 -108.5t-205.5 -37q-186 0 -325 83l112 213q109 -61 215 -61q148 0 148 74q0 15 -12 27.5t-38.5 22.5t-51 17.5t-66 19t-68.5 19.5q-124 37 -202 106.5t-78 155.5zM377 674q0 -18 23.5 -34.5t61 -28.5t71.5 -20t67 -13 q38 20 52 35.5t14 35.5q0 54 -236 103q-53 -29 -53 -78z" />
<glyph unicode="&#xa8;" horiz-adv-x="722" d="M33 1274q0 59 40.5 99t102.5 40q60 0 101.5 -40.5t41.5 -98.5q0 -55 -42 -95t-101 -40q-62 0 -102.5 40t-40.5 95zM403 1274q0 60 40.5 99.5t105.5 39.5q58 0 99.5 -40.5t41.5 -98.5q0 -54 -42 -94.5t-99 -40.5q-64 0 -105 39.5t-41 95.5z" />
<glyph unicode="&#xa9;" horiz-adv-x="1650" d="M94 698q0 146 58 278t156 228t234.5 152.5t286.5 56.5q146 0 280.5 -57t232.5 -152.5t156 -228t58 -277.5q0 -195 -98.5 -360.5t-265.5 -261.5t-363 -96q-201 0 -370 96t-267 261.5t-98 360.5zM356 698q0 -206 134.5 -344.5t336.5 -138.5q198 0 332.5 139t134.5 344 q0 203 -134.5 341.5t-332.5 138.5q-202 0 -336.5 -138.5t-134.5 -341.5zM487 692q0 161 97.5 268t238.5 107q173 0 297 -182l-155 -115q-32 56 -70 82.5t-74 26.5q-53 0 -87 -55t-34 -132q0 -76 34 -129t87 -53q85 0 144 108l155 -114q-125 -182 -297 -182 q-141 0 -238.5 104.5t-97.5 265.5z" />
<glyph unicode="&#xaa;" horiz-adv-x="813" d="M94 319v209h625v-209h-625zM102 1292q68 58 157 90.5t159 32.5q299 0 299 -344v-446h-182l-7 65q-69 -82 -155 -82q-122 0 -195.5 76.5t-73.5 171.5q0 245 428 262q-7 67 -32.5 94t-81.5 27q-78 0 -193 -76zM297 862q0 -35 22 -55.5t54 -20.5q47 0 94.5 40.5t60.5 66.5 q2 6 2 63q-37 -1 -58.5 -2t-53 -4t-49.5 -9t-36.5 -16t-27 -26t-8.5 -37z" />
<glyph unicode="&#xab;" horiz-adv-x="1105" d="M121 606l215 367h260l-211 -367l215 -432h-262zM557 606l215 367h260l-211 -367l215 -432h-262z" />
<glyph unicode="&#xac;" horiz-adv-x="1312" d="M104 498v235h1104v-485h-252v250h-852z" />
<glyph unicode="&#xad;" horiz-adv-x="901" d="M156 498v235h589v-235h-589z" />
<glyph unicode="&#xae;" horiz-adv-x="1650" d="M94 698q0 146 58 278t156 228t234.5 152.5t286.5 56.5q146 0 280.5 -57t232.5 -152.5t156 -228t58 -277.5q0 -195 -98.5 -360.5t-265.5 -261.5t-363 -96q-201 0 -370 96t-267 261.5t-98 360.5zM356 698q0 -206 134.5 -344.5t336.5 -138.5q198 0 332.5 139t134.5 344 q0 203 -134.5 341.5t-332.5 138.5q-202 0 -336.5 -138.5t-134.5 -341.5zM565 379v653h262q111 0 184.5 -66.5t73.5 -158.5q0 -46 -20 -93t-59 -79l129 -254h-248l-88 205h-19v-207h-215zM780 768h25q35 0 49 9.5t14 29.5q0 41 -63 41h-25v-80z" />
<glyph unicode="&#xaf;" horiz-adv-x="616" d="M33 1204v189h551v-189h-551z" />
<glyph unicode="&#xb0;" horiz-adv-x="681" d="M94 1159q0 48 15.5 92t45 81t78.5 59t111 22q80 0 137 -39t82 -95t25 -120q0 -98 -62 -172t-178 -74q-124 0 -189 74t-65 172zM272 1161q0 -28 19 -46.5t47 -18.5t46.5 18.5t18.5 46.5t-18.5 47t-46.5 19t-47 -19t-19 -47z" />
<glyph unicode="&#xb1;" horiz-adv-x="1388" d="M94 -156h1200v-235h-1200v235zM94 498v235h484v463h249v-463h467v-235h-467v-484h-249v484h-484z" />
<glyph unicode="&#xb2;" horiz-adv-x="739" d="M94 653v144q0 32 14 64t46 68t54 56.5t68 61.5q35 31 53.5 48t42 42.5t34 47.5t10.5 42q0 31 -12.5 52t-38.5 21q-24 0 -41 -31t-23 -79h-207q8 130 80.5 215.5t192.5 85.5q123 0 197.5 -76.5t74.5 -183.5q0 -45 -14 -84.5t-42.5 -74.5t-54.5 -59t-67 -57 q-5 -4 -27.5 -22.5t-33 -27.5t-27.5 -26.5t-29 -33.5h301v-193h-551z" />
<glyph unicode="&#xb3;" horiz-adv-x="757" d="M94 958h205q0 -57 20.5 -88.5t51.5 -31.5q26 0 47.5 20.5t21.5 56.5q0 38 -20 57t-49 19h-47v170h45q23 0 36 23t13 53q0 25 -16.5 45.5t-39.5 20.5q-26 0 -44 -29t-19 -80h-205q0 135 75.5 217t199.5 82q118 0 195 -66t77 -180q0 -96 -72 -162q39 -28 67 -72.5t28 -92.5 q0 -91 -44 -155.5t-109 -93t-142 -28.5q-122 0 -198.5 91t-76.5 224z" />
<glyph unicode="&#xb4;" horiz-adv-x="497" d="M33 1106l170 287h262l-229 -287h-203z" />
<glyph unicode="&#xb5;" horiz-adv-x="1120" d="M156 -471v1475h241v-660q0 -69 24.5 -102t61.5 -33q93 0 167.5 73.5t74.5 184.5l-2 537h242v-1004h-234l-8 127q-49 -74 -115.5 -110.5t-138.5 -36.5q-36 0 -74 10v-461h-239z" />
<glyph unicode="&#xb6;" horiz-adv-x="1196" d="M94 971q0 81 31.5 156t89.5 135.5t151.5 96.5t208.5 36h527v-1604h-250v1354h-117v-1354h-250v758q-97 11 -173.5 50.5t-123 98t-70.5 128t-24 145.5z" />
<glyph unicode="&#xb7;" horiz-adv-x="647" d="M156 598q0 69 48.5 114.5t119.5 45.5q69 0 118.5 -46t49.5 -114q0 -64 -50 -109t-118 -45q-70 0 -119 44.5t-49 109.5z" />
<glyph unicode="&#xb8;" horiz-adv-x="573" d="M33 -326l131 109q13 -19 51 -47.5t66 -28.5q16 0 30.5 8.5t14.5 26.5q0 32 -55 57t-95 25l60 334h184l-29 -197q39 -11 68.5 -32.5t44.5 -43.5t24 -48t11 -41t2 -27q0 -40 -17 -85t-47 -84.5t-78 -65.5t-104 -26q-82 0 -149 48.5t-113 117.5z" />
<glyph unicode="&#xb9;" horiz-adv-x="679" d="M53 1225l211 258h191v-635h131v-193h-488v193h131v311l-41 -45z" />
<glyph unicode="&#xba;" horiz-adv-x="892" d="M94 1014q0 167 103 283t245 116q147 0 249 -115.5t102 -283.5q0 -164 -102.5 -280t-248.5 -116q-142 0 -245 116.5t-103 279.5zM115 319v209h684v-209h-684zM319 1014q0 -77 36.5 -128.5t86.5 -51.5q54 0 89.5 51t35.5 129q0 81 -35.5 132.5t-89.5 51.5q-51 0 -87 -52 t-36 -132z" />
<glyph unicode="&#xbb;" horiz-adv-x="1105" d="M70 174l215 432l-211 367h260l215 -367l-217 -432h-262zM506 174l215 432l-211 367h260l215 -367l-217 -432h-262z" />
<glyph unicode="&#xbc;" horiz-adv-x="1751" d="M80 1135l211 258h190v-635h131v-193h-487v193h131v311l-41 -45zM395 0l840 1395h262l-840 -1395h-262zM1022 176v182l340 476h201v-465h84v-193h-84v-176h-224v176h-317zM1219 369h118v161z" />
<glyph unicode="&#xbd;" horiz-adv-x="1820" d="M80 1135l211 258h190v-635h131v-193h-487v193h131v311l-41 -45zM395 0l840 1395h262l-840 -1395h-262zM1167 0v143q0 32 14 63.5t47 68t54 56.5t68 62q46 40 70 63.5t46.5 56.5t22.5 60q0 31 -12.5 52.5t-38.5 21.5q-24 0 -41 -31t-23 -79h-207q8 130 80.5 215.5 t192.5 85.5q123 0 197.5 -76.5t74.5 -183.5q0 -45 -14 -84.5t-42.5 -74.5t-54.5 -59t-67 -57q-5 -4 -27.5 -22.5t-33 -27.5t-27.5 -26.5t-29 -33.5h301v-193h-551z" />
<glyph unicode="&#xbe;" horiz-adv-x="1669" d="M80 879h205q0 -58 20 -89.5t51 -31.5q26 0 48 21t22 57q0 38 -20.5 56.5t-49.5 18.5h-47v170h45q23 0 36 23t13 53q0 25 -16 45.5t-39 20.5q-26 0 -44 -29t-19 -80h-205q0 135 75 217t199 82q118 0 195.5 -66t77.5 -180q0 -95 -72 -161q38 -28 66 -72.5t28 -93.5 q0 -91 -44 -155.5t-109 -93t-142 -28.5q-122 0 -198 91t-76 225zM313 0l840 1395h262l-840 -1395h-262zM940 176v182l340 476h201v-465h84v-193h-84v-176h-224v176h-317zM1137 369h118v161z" />
<glyph unicode="&#xbf;" horiz-adv-x="903" d="M94 -14q0 80 29.5 144.5t72 106.5t84.5 78.5t71.5 77.5t29.5 86v207h246v-207q0 -62 -20 -115t-50.5 -87t-66 -69.5t-66 -65t-50.5 -70.5t-20 -88q0 -66 40.5 -112t127.5 -46q49 0 100 35t93 108l176 -147q-58 -101 -163 -166.5t-228 -65.5q-78 0 -149.5 24.5 t-129.5 71.5t-92.5 124.5t-34.5 175.5zM348 885q0 57 46 98t108 41q63 0 106 -41t43 -98q0 -60 -43 -103t-106 -43q-62 0 -108 43t-46 103z" />
<glyph unicode="&#xc0;" horiz-adv-x="1249" d="M12 0l518 1393h187l520 -1393h-268l-129 354q-54 0 -216 -1t-216 -1q-22 -61 -63.5 -181.5t-59.5 -170.5h-273zM293 1753h262l170 -285h-203zM498 594h250q-25 65 -68.5 186t-54.5 150z" />
<glyph unicode="&#xc1;" horiz-adv-x="1249" d="M12 0l518 1393h187l520 -1393h-268l-129 354q-54 0 -216 -1t-216 -1q-22 -61 -63.5 -181.5t-59.5 -170.5h-273zM498 594h250q-25 65 -68.5 186t-54.5 150zM528 1466l170 287h263l-230 -287h-203z" />
<glyph unicode="&#xc2;" horiz-adv-x="1249" d="M12 0l518 1393h187l520 -1393h-268l-129 354q-54 0 -216 -1t-216 -1q-22 -61 -63.5 -181.5t-59.5 -170.5h-273zM324 1466l170 287h264l170 -287h-203l-100 123l-99 -123h-202zM498 594h250q-25 65 -68.5 186t-54.5 150z" />
<glyph unicode="&#xc3;" horiz-adv-x="1249" d="M12 0l518 1393h187l520 -1393h-268l-129 354q-54 0 -216 -1t-216 -1q-22 -61 -63.5 -181.5t-59.5 -170.5h-273zM279 1485q0 135 55.5 211t146.5 76q31 0 68 -16t64.5 -34.5t57 -34.5t46.5 -16q39 0 45 82h211q0 -145 -48.5 -216t-164.5 -71q-38 0 -85.5 24t-88.5 47.5 t-62 23.5q-40 0 -43 -76h-202zM498 594h250q-25 65 -68.5 186t-54.5 150z" />
<glyph unicode="&#xc4;" horiz-adv-x="1249" d="M12 0l518 1393h187l520 -1393h-268l-129 354q-54 0 -216 -1t-216 -1q-22 -61 -63.5 -181.5t-59.5 -170.5h-273zM297 1636q0 59 40.5 99.5t102.5 40.5q60 0 102 -41t42 -99q0 -55 -42.5 -95t-101.5 -40q-62 0 -102.5 40t-40.5 95zM498 594h250q-25 65 -68.5 186t-54.5 150 zM668 1636q0 60 40 100t105 40q57 0 99 -41t42 -99q0 -54 -42 -94.5t-99 -40.5q-64 0 -104.5 39.5t-40.5 95.5z" />
<glyph unicode="&#xc5;" horiz-adv-x="1249" d="M12 0l486 1307q-66 56 -66 137q0 76 56 130t133 54q90 0 144 -52.5t54 -131.5q0 -90 -69 -141l487 -1303h-268l-129 354q-54 0 -216 -1t-216 -1q-22 -61 -63.5 -181.5t-59.5 -170.5h-273zM498 594h250q-25 65 -68.5 186t-54.5 150zM573 1446q0 -20 14 -36t34 -17h12 q19 2 33 17.5t14 35.5q0 22 -15.5 37.5t-37.5 15.5t-38 -15.5t-16 -37.5z" />
<glyph unicode="&#xc6;" horiz-adv-x="1703" d="M12 0l719 1393h858v-236h-559v-283h512v-235h-512v-403h559v-236h-811v358h-299l-184 -358h-283zM614 592h166v348z" />
<glyph unicode="&#xc7;" horiz-adv-x="1349" d="M94 696q0 203 84 368t228 257t317 92q324 0 543 -313l-201 -150q-137 228 -342 228q-156 0 -261.5 -138t-105.5 -344t105.5 -343.5t261.5 -137.5q202 0 342 229l201 -149q-182 -262 -437 -305l-4 -29q39 -11 68.5 -32.5t44.5 -43.5t24 -48t11 -41t2 -27q0 -40 -17 -85 t-47 -84.5t-78 -65.5t-104 -26q-82 0 -149 48.5t-113 117.5l131 109q13 -19 51 -47.5t66 -28.5q16 0 30.5 8.5t14.5 26.5q0 32 -55 57t-95 25l29 162q-236 33 -390.5 230.5t-154.5 479.5z" />
<glyph unicode="&#xc8;" horiz-adv-x="1120" d="M197 0v1393h809v-236h-560v-283h512v-235h-512v-403h560v-236h-809zM344 1753h262l170 -285h-203z" />
<glyph unicode="&#xc9;" horiz-adv-x="1120" d="M197 0v1393h809v-236h-560v-283h512v-235h-512v-403h560v-236h-809zM463 1466l170 287h262l-229 -287h-203z" />
<glyph unicode="&#xca;" horiz-adv-x="1120" d="M197 0v1393h809v-236h-560v-283h512v-235h-512v-403h560v-236h-809zM305 1466l170 287h264l170 -287h-202l-101 123l-98 -123h-203z" />
<glyph unicode="&#xcb;" horiz-adv-x="1120" d="M197 0v1393h809v-236h-560v-283h512v-235h-512v-403h560v-236h-809zM270 1636q0 59 41 99.5t103 40.5q60 0 101.5 -40.5t41.5 -99.5q0 -55 -42 -95t-101 -40q-62 0 -103 40t-41 95zM641 1636q0 60 40 100t105 40q58 0 100 -41t42 -99q0 -54 -42.5 -94.5t-99.5 -40.5 q-64 0 -104.5 39.5t-40.5 95.5z" />
<glyph unicode="&#xcc;" horiz-adv-x="643" d="M-4 1753h262l170 -285h-203zM197 0v1393h249v-1393h-249z" />
<glyph unicode="&#xcd;" horiz-adv-x="643" d="M197 0v1393h249v-1393h-249zM215 1466l170 287h262l-229 -287h-203z" />
<glyph unicode="&#xce;" horiz-adv-x="643" d="M20 1466l170 287h265l170 -287h-203l-100 123l-99 -123h-203zM197 0v1393h249v-1393h-249z" />
<glyph unicode="&#xcf;" horiz-adv-x="643" d="M-6 1636q0 59 40.5 99.5t102.5 40.5q60 0 102 -41t42 -99q0 -55 -42.5 -95t-101.5 -40q-62 0 -102.5 40t-40.5 95zM197 0v1393h249v-1393h-249zM365 1636q0 60 40 100t105 40q57 0 99 -41t42 -99q0 -54 -42 -94.5t-99 -40.5q-64 0 -104.5 39.5t-40.5 95.5z" />
<glyph unicode="&#xd0;" horiz-adv-x="1320" d="M33 639v235h164v519h356q318 0 496 -184.5t178 -514.5q0 -329 -177.5 -511.5t-496.5 -182.5h-356v639h-164zM446 236h107q189 0 300.5 112t111.5 346q0 121 -30.5 211t-86.5 144.5t-129.5 81t-165.5 26.5h-107v-283h230v-235h-230v-403z" />
<glyph unicode="&#xd1;" horiz-adv-x="1382" d="M197 0v1393h221l518 -887v887h250v-1393h-221l-519 874l-2 -874h-247zM344 1485q0 135 56 211t147 76q39 0 86.5 -25t87.5 -50.5t61 -25.5q39 0 45 82h211q0 -145 -48.5 -216t-164.5 -71q-38 0 -85.5 24t-88 47.5t-61.5 23.5q-40 0 -43 -76h-203z" />
<glyph unicode="&#xd2;" horiz-adv-x="1449" d="M94 696q0 146 49.5 278.5t133.5 228.5t200.5 153t245.5 57q130 0 247 -57t201.5 -153t134.5 -228.5t50 -278.5q0 -145 -50 -277.5t-134.5 -228.5t-201.5 -153t-247 -57q-172 0 -317 96.5t-228.5 261t-83.5 358.5zM356 696q0 -132 48 -242.5t132.5 -174.5t186.5 -64 q156 0 263.5 139.5t107.5 341.5t-107.5 342t-263.5 140q-102 0 -186.5 -64t-132.5 -175t-48 -243zM387 1753h262l170 -285h-203z" />
<glyph unicode="&#xd3;" horiz-adv-x="1449" d="M94 696q0 146 49.5 278.5t133.5 228.5t200.5 153t245.5 57q130 0 247 -57t201.5 -153t134.5 -228.5t50 -278.5q0 -145 -50 -277.5t-134.5 -228.5t-201.5 -153t-247 -57q-172 0 -317 96.5t-228.5 261t-83.5 358.5zM356 696q0 -132 48 -242.5t132.5 -174.5t186.5 -64 q156 0 263.5 139.5t107.5 341.5t-107.5 342t-263.5 140q-102 0 -186.5 -64t-132.5 -175t-48 -243zM643 1466l170 287h262l-229 -287h-203z" />
<glyph unicode="&#xd4;" horiz-adv-x="1449" d="M94 696q0 146 49.5 278.5t133.5 228.5t200.5 153t245.5 57q130 0 247 -57t201.5 -153t134.5 -228.5t50 -278.5q0 -145 -50 -277.5t-134.5 -228.5t-201.5 -153t-247 -57q-172 0 -317 96.5t-228.5 261t-83.5 358.5zM356 696q0 -132 48 -242.5t132.5 -174.5t186.5 -64 q156 0 263.5 139.5t107.5 341.5t-107.5 342t-263.5 140q-102 0 -186.5 -64t-132.5 -175t-48 -243zM422 1466l170 287h264l170 -287h-203l-100 123l-98 -123h-203z" />
<glyph unicode="&#xd5;" horiz-adv-x="1449" d="M94 696q0 146 49.5 278.5t133.5 228.5t200.5 153t245.5 57q130 0 247 -57t201.5 -153t134.5 -228.5t50 -278.5q0 -145 -50 -277.5t-134.5 -228.5t-201.5 -153t-247 -57q-172 0 -317 96.5t-228.5 261t-83.5 358.5zM356 696q0 -132 48 -242.5t132.5 -174.5t186.5 -64 q156 0 263.5 139.5t107.5 341.5t-107.5 342t-263.5 140q-102 0 -186.5 -64t-132.5 -175t-48 -243zM377 1485q0 135 56 211t147 76q39 0 86.5 -25t87.5 -50.5t61 -25.5q39 0 45 82h211q0 -145 -48.5 -216t-164.5 -71q-38 0 -85.5 24t-88 47.5t-61.5 23.5q-40 0 -43 -76h-203z " />
<glyph unicode="&#xd6;" horiz-adv-x="1449" d="M94 696q0 146 49.5 278.5t133.5 228.5t200.5 153t245.5 57q130 0 247 -57t201.5 -153t134.5 -228.5t50 -278.5q0 -145 -50 -277.5t-134.5 -228.5t-201.5 -153t-247 -57q-172 0 -317 96.5t-228.5 261t-83.5 358.5zM356 696q0 -132 48 -242.5t132.5 -174.5t186.5 -64 q156 0 263.5 139.5t107.5 341.5t-107.5 342t-263.5 140q-102 0 -186.5 -64t-132.5 -175t-48 -243zM395 1636q0 59 41 99.5t103 40.5q60 0 101.5 -40.5t41.5 -99.5q0 -55 -42 -95t-101 -40q-62 0 -103 40t-41 95zM766 1636q0 60 40 100t105 40q58 0 100 -41t42 -99 q0 -54 -42.5 -94.5t-99.5 -40.5q-64 0 -104.5 39.5t-40.5 95.5z" />
<glyph unicode="&#xd7;" horiz-adv-x="1216" d="M94 254l344 352l-342 342l166 164l340 -342l346 342l172 -164l-344 -342l346 -352l-172 -168l-348 350l-340 -350z" />
<glyph unicode="&#xd8;" horiz-adv-x="1449" d="M94 696q0 146 49.5 278.5t133.5 228.5t200.5 153t245.5 57q92 0 180 -31l29 72h207l-66 -160q130 -99 206.5 -256.5t76.5 -341.5q0 -145 -50 -277.5t-134.5 -228.5t-201.5 -153t-247 -57q-82 0 -178 28l-37 -90h-207l74 180q-130 98 -205.5 256.5t-75.5 341.5zM356 696 q0 -213 117 -356l340 823q-43 15 -90 15q-102 0 -186.5 -64t-132.5 -175t-48 -243zM635 227q44 -12 88 -12q156 0 263.5 139.5t107.5 341.5q0 105 -32 197.5t-89 159.5z" />
<glyph unicode="&#xd9;" horiz-adv-x="1423" d="M176 612v781h250v-781q0 -80 13.5 -145t33 -105t48.5 -70t53 -44t53 -22.5t43 -9.5t28 -1q18 0 33.5 1t48.5 9t58.5 22t57 44t52 70.5t35 105t14.5 145.5v781h250v-781q0 -309 -145 -470.5t-404 -161.5q-258 0 -390 161.5t-132 470.5zM393 1753h262l170 -285h-202z" />
<glyph unicode="&#xda;" horiz-adv-x="1423" d="M176 612v781h250v-781q0 -80 13.5 -145t33 -105t48.5 -70t53 -44t53 -22.5t43 -9.5t28 -1q18 0 33.5 1t48.5 9t58.5 22t57 44t52 70.5t35 105t14.5 145.5v781h250v-781q0 -309 -145 -470.5t-404 -161.5q-258 0 -390 161.5t-132 470.5zM625 1466l170 287h262l-230 -287 h-202z" />
<glyph unicode="&#xdb;" horiz-adv-x="1423" d="M176 612v781h250v-781q0 -80 13.5 -145t33 -105t48.5 -70t53 -44t53 -22.5t43 -9.5t28 -1q18 0 33.5 1t48.5 9t58.5 22t57 44t52 70.5t35 105t14.5 145.5v781h250v-781q0 -309 -145 -470.5t-404 -161.5q-258 0 -390 161.5t-132 470.5zM410 1466l170 287h264l170 -287 h-203l-100 123l-99 -123h-202z" />
<glyph unicode="&#xdc;" horiz-adv-x="1423" d="M176 612v781h250v-781q0 -80 13.5 -145t33 -105t48.5 -70t53 -44t53 -22.5t43 -9.5t28 -1q18 0 33.5 1t48.5 9t58.5 22t57 44t52 70.5t35 105t14.5 145.5v781h250v-781q0 -309 -145 -470.5t-404 -161.5q-258 0 -390 161.5t-132 470.5zM381 1636q0 59 40.5 99.5 t102.5 40.5q60 0 102 -41t42 -99q0 -55 -42.5 -95t-101.5 -40q-62 0 -102.5 40t-40.5 95zM752 1636q0 60 40 100t105 40q57 0 99 -41t42 -99q0 -54 -42 -94.5t-99 -40.5q-64 0 -104.5 39.5t-40.5 95.5z" />
<glyph unicode="&#xdd;" horiz-adv-x="1275" d="M12 1393h287l340 -486q61 92 196.5 284.5t141.5 201.5h287l-500 -713v-680h-250v676zM541 1466l170 287h262l-230 -287h-202z" />
<glyph unicode="&#xde;" horiz-adv-x="1101" d="M197 0v1393h249v-283h166q105 0 191.5 -35.5t141 -94t84.5 -132t30 -152.5q0 -80 -30.5 -154t-86 -131.5t-141.5 -92.5t-189 -35h-166v-283h-249zM446 518h181q47 0 82 18.5t53 48t26.5 57.5t8.5 54q0 74 -53 126t-132 52h-166v-356z" />
<glyph unicode="&#xdf;" horiz-adv-x="1071" d="M156 0v956q0 99 21 180.5t64.5 145.5t117.5 99.5t173 35.5q75 0 134.5 -22t94.5 -55.5t58.5 -76.5t32 -81.5t8.5 -75.5q0 -43 -20 -95.5t-44.5 -93.5t-44.5 -88.5t-20 -80.5q0 -47 29.5 -90t71.5 -79t84.5 -73.5t72 -87.5t29.5 -107q0 -99 -48 -176t-125.5 -116 t-168.5 -39q-80 0 -136 27t-114 81l166 176q5 -4 16 -14t14 -13t11.5 -9t13.5 -7.5t12.5 -3.5t16.5 -2q37 0 64.5 27t27.5 75q0 39 -21.5 75.5t-53 63.5t-69 59.5t-69 63t-53 75t-21.5 94.5q0 41 20 91t43.5 87.5t43.5 81.5t20 75q0 44 -27.5 71.5t-64.5 27.5 q-47 0 -84 -38.5t-37 -107.5v-1036h-239z" />
<glyph unicode="&#xe0;" horiz-adv-x="1017" d="M86 864q89 75 204.5 117.5t205.5 42.5q387 0 387 -446v-578h-236l-8 84q-90 -104 -201 -104q-80 0 -148 28.5t-111 74.5t-67 102t-24 114q0 84 39 144.5t115.5 96.5t173.5 54t227 24q0 104 -34.5 140.5t-112.5 36.5q-96 0 -250 -99zM170 1393h262l170 -285h-203zM338 307 q0 -45 29 -71.5t71 -26.5q60 0 121.5 51.5t79.5 85.5q2 8 2 74v10q-39 -1 -64.5 -1.5t-60.5 -3.5t-57.5 -8t-47.5 -14t-39.5 -21.5t-24 -31.5t-9.5 -43z" />
<glyph unicode="&#xe1;" horiz-adv-x="1017" d="M86 864q89 75 204.5 117.5t205.5 42.5q387 0 387 -446v-578h-236l-8 84q-90 -104 -201 -104q-80 0 -148 28.5t-111 74.5t-67 102t-24 114q0 84 39 144.5t115.5 96.5t173.5 54t227 24q0 104 -34.5 140.5t-112.5 36.5q-96 0 -250 -99zM338 307q0 -45 29 -71.5t71 -26.5 q60 0 121.5 51.5t79.5 85.5q2 8 2 74v10q-39 -1 -64.5 -1.5t-60.5 -3.5t-57.5 -8t-47.5 -14t-39.5 -21.5t-24 -31.5t-9.5 -43zM401 1106l170 287h263l-230 -287h-203z" />
<glyph unicode="&#xe2;" horiz-adv-x="1017" d="M86 864q89 75 204.5 117.5t205.5 42.5q387 0 387 -446v-578h-236l-8 84q-90 -104 -201 -104q-80 0 -148 28.5t-111 74.5t-67 102t-24 114q0 84 39 144.5t115.5 96.5t173.5 54t227 24q0 104 -34.5 140.5t-112.5 36.5q-96 0 -250 -99zM205 1106l170 287h264l170 -287h-203 l-100 123l-98 -123h-203zM338 307q0 -45 29 -71.5t71 -26.5q60 0 121.5 51.5t79.5 85.5q2 8 2 74v10q-39 -1 -64.5 -1.5t-60.5 -3.5t-57.5 -8t-47.5 -14t-39.5 -21.5t-24 -31.5t-9.5 -43z" />
<glyph unicode="&#xe3;" horiz-adv-x="1017" d="M86 864q89 75 204.5 117.5t205.5 42.5q387 0 387 -446v-578h-236l-8 84q-90 -104 -201 -104q-80 0 -148 28.5t-111 74.5t-67 102t-24 114q0 84 39 144.5t115.5 96.5t173.5 54t227 24q0 104 -34.5 140.5t-112.5 36.5q-96 0 -250 -99zM145 1124q0 135 56 211t147 76 q39 0 87 -25t88 -50t61 -25q39 0 45 82h211q0 -145 -48.5 -216t-164.5 -71q-38 0 -85.5 23.5t-88.5 47t-62 23.5q-40 0 -43 -76h-203zM338 307q0 -45 29 -71.5t71 -26.5q60 0 121.5 51.5t79.5 85.5q2 8 2 74v10q-39 -1 -64.5 -1.5t-60.5 -3.5t-57.5 -8t-47.5 -14 t-39.5 -21.5t-24 -31.5t-9.5 -43z" />
<glyph unicode="&#xe4;" horiz-adv-x="1017" d="M86 864q89 75 204.5 117.5t205.5 42.5q387 0 387 -446v-578h-236l-8 84q-90 -104 -201 -104q-80 0 -148 28.5t-111 74.5t-67 102t-24 114q0 84 39 144.5t115.5 96.5t173.5 54t227 24q0 104 -34.5 140.5t-112.5 36.5q-96 0 -250 -99zM172 1274q0 59 40.5 99t102.5 40 q60 0 102 -40.5t42 -98.5q0 -55 -42.5 -95t-101.5 -40q-62 0 -102.5 40t-40.5 95zM338 307q0 -45 29 -71.5t71 -26.5q60 0 121.5 51.5t79.5 85.5q2 8 2 74v10q-39 -1 -64.5 -1.5t-60.5 -3.5t-57.5 -8t-47.5 -14t-39.5 -21.5t-24 -31.5t-9.5 -43zM543 1274q0 60 40 99.5 t105 39.5q58 0 99.5 -40.5t41.5 -98.5q0 -54 -42 -94.5t-99 -40.5q-64 0 -104.5 39.5t-40.5 95.5z" />
<glyph unicode="&#xe5;" horiz-adv-x="1017" d="M86 864q89 75 204.5 117.5t205.5 42.5q387 0 387 -446v-578h-236l-8 84q-90 -104 -201 -104q-80 0 -148 28.5t-111 74.5t-67 102t-24 114q0 84 39 144.5t115.5 96.5t173.5 54t227 24q0 104 -34.5 140.5t-112.5 36.5q-96 0 -250 -99zM319 1229q0 76 56 130t133 54 q90 0 144.5 -52.5t54.5 -131.5q0 -76 -54.5 -128t-144.5 -52q-77 0 -133 53.5t-56 126.5zM338 307q0 -45 29 -71.5t71 -26.5q60 0 121.5 51.5t79.5 85.5q2 8 2 74v10q-39 -1 -64.5 -1.5t-60.5 -3.5t-57.5 -8t-47.5 -14t-39.5 -21.5t-24 -31.5t-9.5 -43zM461 1231 q0 -22 15.5 -37.5t37.5 -15.5t37.5 15.5t15.5 37.5t-15.5 37.5t-37.5 15.5t-37.5 -15.5t-15.5 -37.5z" />
<glyph unicode="&#xe6;" horiz-adv-x="1597" d="M74 864q89 75 204 117.5t205 42.5q200 0 295 -117q123 117 305 117q130 0 232 -66.5t155.5 -176.5t53.5 -242q0 -34 -11 -109h-634q0 -70 37.5 -122.5t86 -75.5t95.5 -23q59 0 121 37t106 110l170 -147q-171 -229 -397 -229q-229 0 -357 157q-88 -74 -145.5 -109 t-87.5 -41.5t-82 -6.5q-80 0 -148 28.5t-111 74.5t-67 102t-24 114q0 84 39 144.5t115.5 96.5t173.5 54t227 24q0 99 -36 138t-112 39q-96 0 -250 -99zM326 307q0 -45 29 -71.5t71 -26.5q60 0 121.5 51.5t79.5 85.5q2 8 2 74v10q-39 -1 -64.5 -1.5t-60.5 -3.5t-57.5 -8 t-47.5 -14t-39.5 -21.5t-24 -31.5t-9.5 -43zM889 618h371q-8 85 -60.5 131t-116.5 46q-68 0 -123 -43.5t-71 -133.5z" />
<glyph unicode="&#xe7;" horiz-adv-x="1034" d="M94 502q0 226 133 374t326 148q226 0 397 -229l-170 -148q-45 74 -106.5 111t-120.5 37q-90 0 -149.5 -84t-59.5 -209t59.5 -209t149.5 -84q59 0 121 37t106 110l170 -147q-150 -200 -338 -225l-2 -23q39 -11 68.5 -32.5t44.5 -43.5t24 -48t11 -41t2 -27q0 -40 -17 -85 t-47 -84.5t-78 -65.5t-104 -26q-82 0 -149 48.5t-113 117.5l131 109q13 -19 51 -47.5t66 -28.5q16 0 30.5 8.5t14.5 26.5q0 32 -55 57t-95 25l31 176q-147 44 -239.5 180t-92.5 322z" />
<glyph unicode="&#xe8;" horiz-adv-x="1064" d="M94 502q0 245 129.5 383.5t327.5 138.5q130 0 231.5 -66.5t155 -176.5t53.5 -242q0 -41 -10 -109h-635q0 -70 37.5 -122.5t86 -75.5t95.5 -23q59 0 121.5 37t106.5 110l170 -147q-171 -229 -398 -229q-117 0 -209 43t-148 116.5t-85 166t-29 196.5zM229 1393h263 l170 -285h-203zM356 618h371q-8 85 -60 131t-116 46q-68 0 -123.5 -43.5t-71.5 -133.5z" />
<glyph unicode="&#xe9;" horiz-adv-x="1064" d="M94 502q0 245 129.5 383.5t327.5 138.5q130 0 231.5 -66.5t155 -176.5t53.5 -242q0 -41 -10 -109h-635q0 -70 37.5 -122.5t86 -75.5t95.5 -23q59 0 121.5 37t106.5 110l170 -147q-171 -229 -398 -229q-117 0 -209 43t-148 116.5t-85 166t-29 196.5zM356 618h371 q-8 85 -60 131t-116 46q-68 0 -123.5 -43.5t-71.5 -133.5zM463 1106l170 287h262l-229 -287h-203z" />
<glyph unicode="&#xea;" horiz-adv-x="1064" d="M94 502q0 245 129.5 383.5t327.5 138.5q130 0 231.5 -66.5t155 -176.5t53.5 -242q0 -41 -10 -109h-635q0 -70 37.5 -122.5t86 -75.5t95.5 -23q59 0 121.5 37t106.5 110l170 -147q-171 -229 -398 -229q-117 0 -209 43t-148 116.5t-85 166t-29 196.5zM256 1106l170 287h264 l170 -287h-203l-100 123l-98 -123h-203zM356 618h371q-8 85 -60 131t-116 46q-68 0 -123.5 -43.5t-71.5 -133.5z" />
<glyph unicode="&#xeb;" horiz-adv-x="1064" d="M94 502q0 245 129.5 383.5t327.5 138.5q130 0 231.5 -66.5t155 -176.5t53.5 -242q0 -41 -10 -109h-635q0 -70 37.5 -122.5t86 -75.5t95.5 -23q59 0 121.5 37t106.5 110l170 -147q-171 -229 -398 -229q-117 0 -209 43t-148 116.5t-85 166t-29 196.5zM231 1274q0 59 41 99 t103 40q60 0 101.5 -40.5t41.5 -98.5q0 -55 -42 -95t-101 -40q-62 0 -103 40t-41 95zM356 618h371q-8 85 -60 131t-116 46q-68 0 -123.5 -43.5t-71.5 -133.5zM602 1274q0 60 40.5 99.5t105.5 39.5q58 0 99.5 -40.5t41.5 -98.5q0 -54 -42 -94.5t-99 -40.5q-64 0 -105 39.5 t-41 95.5z" />
<glyph unicode="&#xec;" horiz-adv-x="555" d="M-53 1393h262l170 -285h-203zM156 0v1004h243v-1004h-243z" />
<glyph unicode="&#xed;" horiz-adv-x="555" d="M156 0v1004h243v-1004h-243zM176 1106l170 287h262l-229 -287h-203z" />
<glyph unicode="&#xee;" horiz-adv-x="555" d="M-23 1106l170 287h265l170 -287h-203l-100 123l-99 -123h-203zM156 0v1004h243v-1004h-243z" />
<glyph unicode="&#xef;" horiz-adv-x="555" d="M-49 1276q0 59 40.5 99t102.5 40q60 0 102 -40.5t42 -98.5q0 -55 -42.5 -95t-101.5 -40q-62 0 -102.5 40t-40.5 95zM156 0v1004h243v-1004h-243zM322 1276q0 60 40 99.5t105 39.5q58 0 99.5 -40.5t41.5 -98.5q0 -54 -42 -94.5t-99 -40.5q-64 0 -104.5 39.5t-40.5 95.5z " />
<glyph unicode="&#xf0;" horiz-adv-x="1062" d="M94 449q0 85 22.5 164.5t69 149.5t129 112.5t191.5 42.5q39 0 92 -24.5t88 -78.5q0 126 -53 227l-92 -96h-213l196 215q-38 23 -71 23q-29 0 -58 -12t-90 -52l-160 160q62 59 144 96t151 37q136 0 244 -78l55 62h230l-172 -180q79 -114 117 -274t38 -331q0 -56 -5 -112 t-18.5 -120t-34 -119.5t-55 -108t-78.5 -90t-107 -60t-138 -22.5q-110 0 -194.5 42.5t-132.5 112.5t-71.5 149.5t-23.5 164.5zM344 455q0 -116 50 -181t114 -65q186 0 186 291v69q-23 53 -75 87t-109 34q-75 0 -120.5 -66.5t-45.5 -168.5z" />
<glyph unicode="&#xf1;" d="M156 0v1004h233l8 -127q49 74 115.5 110.5t138.5 36.5q125 0 219.5 -95t94.5 -241v-688h-242v659q0 69 -24.5 102.5t-61.5 33.5q-93 0 -167.5 -73.5t-74.5 -184.5l2 -537h-241zM242 1124q0 135 55.5 211t146.5 76q39 0 87 -25t88 -50t61 -25q39 0 45 82h211 q0 -145 -48.5 -216t-164.5 -71q-38 0 -85.5 23.5t-88.5 47t-62 23.5q-40 0 -43 -76h-202z" />
<glyph unicode="&#xf2;" d="M94 502q0 142 61.5 262.5t165.5 190t224 69.5q92 0 177 -41.5t147.5 -111t99.5 -166.5t37 -203q0 -139 -62.5 -259.5t-169 -191.5t-229.5 -71q-120 0 -224 71t-165.5 191.5t-61.5 259.5zM209 1393h262l170 -285h-203zM342 502q0 -122 61.5 -207.5t141.5 -85.5 q88 0 149.5 84.5t61.5 208.5t-61.5 208.5t-149.5 84.5q-80 0 -141.5 -85.5t-61.5 -207.5z" />
<glyph unicode="&#xf3;" d="M94 502q0 142 61.5 262.5t165.5 190t224 69.5q92 0 177 -41.5t147.5 -111t99.5 -166.5t37 -203q0 -139 -62.5 -259.5t-169 -191.5t-229.5 -71q-120 0 -224 71t-165.5 191.5t-61.5 259.5zM342 502q0 -122 61.5 -207.5t141.5 -85.5q88 0 149.5 84.5t61.5 208.5t-61.5 208.5 t-149.5 84.5q-80 0 -141.5 -85.5t-61.5 -207.5zM449 1106l169 287h263l-230 -287h-202z" />
<glyph unicode="&#xf4;" d="M94 502q0 142 61.5 262.5t165.5 190t224 69.5q92 0 177 -41.5t147.5 -111t99.5 -166.5t37 -203q0 -139 -62.5 -259.5t-169 -191.5t-229.5 -71q-120 0 -224 71t-165.5 191.5t-61.5 259.5zM248 1106l170 287h264l170 -287h-203l-100 123l-98 -123h-203zM342 502 q0 -122 61.5 -207.5t141.5 -85.5q88 0 149.5 84.5t61.5 208.5t-61.5 208.5t-149.5 84.5q-80 0 -141.5 -85.5t-61.5 -207.5z" />
<glyph unicode="&#xf5;" d="M94 502q0 142 61.5 262.5t165.5 190t224 69.5q92 0 177 -41.5t147.5 -111t99.5 -166.5t37 -203q0 -139 -62.5 -259.5t-169 -191.5t-229.5 -71q-120 0 -224 71t-165.5 191.5t-61.5 259.5zM207 1126q0 135 56 211t147 76q39 0 86.5 -25t87.5 -50t61 -25q39 0 45 82h211 q0 -145 -48.5 -216t-164.5 -71q-38 0 -85.5 23.5t-88 47t-61.5 23.5q-40 0 -43 -76h-203zM342 502q0 -122 61.5 -207.5t141.5 -85.5q88 0 149.5 84.5t61.5 208.5t-61.5 208.5t-149.5 84.5q-80 0 -141.5 -85.5t-61.5 -207.5z" />
<glyph unicode="&#xf6;" d="M94 502q0 142 61.5 262.5t165.5 190t224 69.5q92 0 177 -41.5t147.5 -111t99.5 -166.5t37 -203q0 -139 -62.5 -259.5t-169 -191.5t-229.5 -71q-120 0 -224 71t-165.5 191.5t-61.5 259.5zM223 1274q0 59 41 99t103 40q60 0 101.5 -40.5t41.5 -98.5q0 -55 -42 -95t-101 -40 q-62 0 -103 40t-41 95zM342 502q0 -122 61.5 -207.5t141.5 -85.5q88 0 149.5 84.5t61.5 208.5t-61.5 208.5t-149.5 84.5q-80 0 -141.5 -85.5t-61.5 -207.5zM594 1274q0 60 40 99.5t105 39.5q58 0 100 -40.5t42 -98.5q0 -54 -42.5 -94.5t-99.5 -40.5q-64 0 -104.5 39.5 t-40.5 95.5z" />
<glyph unicode="&#xf7;" horiz-adv-x="1404" d="M94 498v235h1217v-235h-1217zM539 258q0 67 47.5 112.5t115.5 45.5t117 -45.5t49 -112.5q0 -65 -49 -110.5t-117 -45.5t-115.5 45t-47.5 111zM539 971q0 67 47.5 112t115.5 45t117 -45t49 -112q0 -64 -49 -110t-117 -46q-67 0 -115 45.5t-48 110.5z" />
<glyph unicode="&#xf8;" d="M94 502q0 142 61.5 262.5t165.5 190t224 69.5q53 0 112 -16l33 77h201l-72 -167q86 -72 136.5 -181.5t50.5 -234.5q0 -139 -62.5 -259.5t-169 -191.5t-229.5 -71q-60 0 -113 18l-39 -94h-198l77 184q-83 73 -130.5 182t-47.5 232zM342 502q0 -92 35 -164l190 455 q-4 0 -11.5 1t-10.5 1q-80 0 -141.5 -85.5t-61.5 -207.5zM522 211q6 -2 23 -2q88 0 149.5 84.5t61.5 208.5q0 97 -39 170z" />
<glyph unicode="&#xf9;" horiz-adv-x="1101" d="M135 315v689h242v-660q0 -69 24.5 -102t61.5 -33q93 0 167.5 73.5t74.5 184.5l-3 537h242v-1004h-233l-9 127q-98 -147 -253 -147q-125 0 -219.5 94.5t-94.5 240.5zM215 1393h262l170 -285h-203z" />
<glyph unicode="&#xfa;" horiz-adv-x="1101" d="M135 315v689h242v-660q0 -69 24.5 -102t61.5 -33q93 0 167.5 73.5t74.5 184.5l-3 537h242v-1004h-233l-9 127q-98 -147 -253 -147q-125 0 -219.5 94.5t-94.5 240.5zM446 1106l170 287h263l-230 -287h-203z" />
<glyph unicode="&#xfb;" horiz-adv-x="1101" d="M135 315v689h242v-660q0 -69 24.5 -102t61.5 -33q93 0 167.5 73.5t74.5 184.5l-3 537h242v-1004h-233l-9 127q-98 -147 -253 -147q-125 0 -219.5 94.5t-94.5 240.5zM236 1106l170 287h264l170 -287h-203l-100 123l-99 -123h-202z" />
<glyph unicode="&#xfc;" horiz-adv-x="1101" d="M135 315v689h242v-660q0 -69 24.5 -102t61.5 -33q93 0 167.5 73.5t74.5 184.5l-3 537h242v-1004h-233l-9 127q-98 -147 -253 -147q-125 0 -219.5 94.5t-94.5 240.5zM203 1274q0 59 40.5 99t102.5 40q60 0 101.5 -40.5t41.5 -98.5q0 -55 -42 -95t-101 -40q-62 0 -102.5 40 t-40.5 95zM573 1274q0 60 40.5 99.5t105.5 39.5q58 0 99.5 -40.5t41.5 -98.5q0 -54 -42 -94.5t-99 -40.5q-64 0 -105 39.5t-41 95.5z" />
<glyph unicode="&#xfd;" horiz-adv-x="1075" d="M39 -449l92 211q98 -26 121 -26q27 0 47 17.5t27 49.5l104 248l-360 953h235l242 -652l250 652h235l-491 -1264q-91 -229 -293 -232q-73 0 -209 43zM471 1106l170 287h262l-229 -287h-203z" />
<glyph unicode="&#xfe;" horiz-adv-x="1138" d="M156 -471v1864h241v-486q99 117 240 117q103 0 198 -75t152 -196t57 -251q0 -141 -56.5 -262t-149 -190.5t-195.5 -69.5q-146 0 -246 110v-561h-241zM395 502q0 -127 56.5 -210t140.5 -83q86 0 144.5 83.5t58.5 209.5q0 123 -59 208t-144 85q-83 0 -140 -85t-57 -208z " />
<glyph unicode="&#xff;" horiz-adv-x="1075" d="M39 -449l92 211q98 -26 121 -26q27 0 47 17.5t27 49.5l104 248l-360 953h235l242 -652l250 652h235l-491 -1264q-91 -229 -293 -232q-73 0 -209 43zM219 1274q0 59 40.5 99t102.5 40q60 0 102 -40.5t42 -98.5q0 -55 -42.5 -95t-101.5 -40q-62 0 -102.5 40t-40.5 95z M590 1274q0 60 40 99.5t105 39.5q58 0 100 -40.5t42 -98.5q0 -54 -42.5 -94.5t-99.5 -40.5q-64 0 -104.5 39.5t-40.5 95.5z" />
<glyph unicode="&#x152;" horiz-adv-x="1871" d="M94 692q0 195 83.5 360.5t228.5 263t317 97.5q155 0 225 -20h809v-236h-557v-285h510v-235h-510v-401h557v-236h-805q-67 -20 -229 -20q-172 0 -317 95.5t-228.5 259t-83.5 357.5zM356 692q0 -203 105.5 -343t261.5 -140q112 0 225 51v866q-122 54 -225 54 q-155 0 -261 -142.5t-106 -345.5z" />
<glyph unicode="&#x153;" horiz-adv-x="1726" d="M94 502q0 142 61.5 262.5t165.5 190t224 69.5q92 0 176.5 -41.5t148.5 -114.5q63 76 151 116t191 40q130 0 232 -66.5t155.5 -176.5t53.5 -242q0 -34 -11 -109h-634q0 -70 37.5 -122.5t86 -75.5t95.5 -23q59 0 121 37t106 110l170 -147q-171 -229 -397 -229 q-229 0 -357 157q-64 -74 -148.5 -115.5t-176.5 -41.5q-120 0 -224 71t-165.5 191.5t-61.5 259.5zM342 502q0 -122 61.5 -207.5t141.5 -85.5q85 0 146.5 80.5t64.5 199.5v13q0 124 -61.5 208.5t-149.5 84.5q-80 0 -141.5 -85.5t-61.5 -207.5zM1018 618h371q-8 85 -60.5 131 t-116.5 46q-68 0 -123 -43.5t-71 -133.5z" />
<glyph unicode="&#x178;" horiz-adv-x="1275" d="M12 1393h287l340 -486q61 92 196.5 284.5t141.5 201.5h287l-500 -713v-680h-250v676zM311 1636q0 59 41 99.5t103 40.5q60 0 101.5 -40.5t41.5 -99.5q0 -55 -42 -95t-101 -40q-62 0 -103 40t-41 95zM682 1636q0 60 40 100t105 40q58 0 100 -41t42 -99q0 -54 -42.5 -94.5 t-99.5 -40.5q-64 0 -104.5 39.5t-40.5 95.5z" />
<glyph unicode="&#x2c6;" horiz-adv-x="669" d="M33 1108l170 287h264l170 -287h-203l-100 123l-98 -123h-203z" />
<glyph unicode="&#x2dc;" horiz-adv-x="759" d="M33 1124q0 135 56 211t147 76q39 0 86.5 -25t87.5 -50t61 -25q39 0 45 82h211q0 -145 -48.5 -216t-164.5 -71q-38 0 -85.5 23.5t-88 47t-61.5 23.5q-40 0 -43 -76h-203z" />
<glyph unicode="&#x2000;" horiz-adv-x="888" />
<glyph unicode="&#x2001;" horiz-adv-x="1776" />
<glyph unicode="&#x2002;" horiz-adv-x="888" />
<glyph unicode="&#x2003;" horiz-adv-x="1776" />
<glyph unicode="&#x2004;" horiz-adv-x="592" />
<glyph unicode="&#x2005;" horiz-adv-x="444" />
<glyph unicode="&#x2006;" horiz-adv-x="296" />
<glyph unicode="&#x2007;" horiz-adv-x="296" />
<glyph unicode="&#x2008;" horiz-adv-x="222" />
<glyph unicode="&#x2009;" horiz-adv-x="355" />
<glyph unicode="&#x200a;" horiz-adv-x="98" />
<glyph unicode="&#x2010;" horiz-adv-x="942" d="M74 498v235h794v-235h-794z" />
<glyph unicode="&#x2011;" horiz-adv-x="942" d="M74 498v235h794v-235h-794z" />
<glyph unicode="&#x2012;" horiz-adv-x="942" d="M74 498v235h794v-235h-794z" />
<glyph unicode="&#x2013;" horiz-adv-x="1251" d="M74 498v235h1104v-235h-1104z" />
<glyph unicode="&#x2014;" horiz-adv-x="1990" d="M74 498v235h1843v-235h-1843z" />
<glyph unicode="&#x2018;" horiz-adv-x="528" d="M135 930q14 285 72 463h186q-55 -189 -55 -463h-203z" />
<glyph unicode="&#x2019;" horiz-adv-x="528" d="M135 930q55 189 55 463h203q-14 -288 -71 -463h-187z" />
<glyph unicode="&#x201a;" horiz-adv-x="528" d="M135 -170q55 189 55 463h203q-14 -288 -71 -463h-187z" />
<glyph unicode="&#x201c;" horiz-adv-x="851" d="M135 930q14 285 72 463h186q-55 -189 -55 -463h-203zM459 930q14 288 71 463h187q-55 -189 -55 -463h-203z" />
<glyph unicode="&#x201d;" horiz-adv-x="851" d="M135 930q55 189 55 463h203q-14 -288 -71 -463h-187zM459 930q55 189 55 463h203q-14 -285 -72 -463h-186z" />
<glyph unicode="&#x201e;" horiz-adv-x="851" d="M135 -170q55 189 55 463h203q-14 -288 -71 -463h-187zM459 -170q55 189 55 463h203q-14 -285 -72 -463h-186z" />
<glyph unicode="&#x2022;" horiz-adv-x="739" d="M94 610q0 112 79.5 186t195.5 74q112 0 194 -74.5t82 -185.5q0 -104 -82 -177t-194 -73q-116 0 -195.5 72t-79.5 178z" />
<glyph unicode="&#x2026;" horiz-adv-x="1611" d="M102 133q0 67 48.5 113.5t119.5 46.5q67 0 116.5 -47.5t49.5 -112.5q0 -64 -49.5 -108.5t-116.5 -44.5q-72 0 -120 44t-48 109zM641 133q0 66 47.5 113t116.5 47q67 0 116.5 -47.5t49.5 -112.5q0 -64 -49.5 -108.5t-116.5 -44.5q-69 0 -116.5 44.5t-47.5 108.5zM1176 133 q0 67 48 113.5t119 46.5q67 0 116.5 -47.5t49.5 -112.5q0 -64 -49.5 -108.5t-116.5 -44.5q-72 0 -119.5 44t-47.5 109z" />
<glyph unicode="&#x202f;" horiz-adv-x="355" />
<glyph unicode="&#x2039;" horiz-adv-x="669" d="M121 606l215 367h260l-211 -367l215 -432h-262z" />
<glyph unicode="&#x203a;" horiz-adv-x="669" d="M70 174l215 432l-211 367h260l215 -367l-217 -432h-262z" />
<glyph unicode="&#x205f;" horiz-adv-x="444" />
<glyph unicode="&#x20ac;" horiz-adv-x="1386" d="M115 422v174h102q-4 33 -4 100v21h-98v174h118q53 230 210.5 376t355.5 146q286 0 491 -315l-184 -158q-56 115 -136 176.5t-165 61.5q-99 0 -183 -77.5t-122 -209.5h407v-174h-432v-12q0 -59 6 -109h426v-174h-379q43 -99 115.5 -153t153.5 -54q88 0 172 63t141 179 l182 -156q-104 -162 -230 -241.5t-261 -79.5q-182 0 -330.5 121t-214.5 321h-141z" />
<glyph unicode="&#x2122;" horiz-adv-x="1693" d="M92 1171v222h651v-222h-213v-620h-223v620h-215zM735 551l64 842h219l147 -398q13 35 67.5 179t80.5 219h215l71 -842h-229l-37 274l-92 -274h-151l-91 272l-38 -272h-226z" />
<glyph unicode="&#x25fc;" horiz-adv-x="1003" d="M0 0v1004h1004v-1004h-1004z" />
</font>
</defs>
</svg>
