<?xml version="1.0" standalone="no"?>
<!DOCTYPE svg PUBLIC "-//W3C//DTD SVG 1.1//EN" "http://www.w3.org/Graphics/SVG/1.1/DTD/svg11.dtd" >
<svg xmlns="http://www.w3.org/2000/svg">
<metadata></metadata>
<defs>
<font id="arquitecta_mediumMdIt" horiz-adv-x="424" >
<font-face units-per-em="1000" ascent="750" descent="-250" />
<missing-glyph horiz-adv-x="196" />
<glyph horiz-adv-x="0" />
<glyph horiz-adv-x="333" />
<glyph horiz-adv-x="0" />
<glyph horiz-adv-x="0" />
<glyph unicode="&#xd;" horiz-adv-x="139" />
<glyph unicode=" "  horiz-adv-x="196" />
<glyph unicode="&#x09;" horiz-adv-x="196" />
<glyph unicode="&#xa0;" horiz-adv-x="196" />
<glyph unicode="!" horiz-adv-x="242" d="M253 600l-5 -37l-74 -388h-57l32 388l5 37h99zM72 41q0 25 18.5 43.5t44.5 18.5q21 0 35 -14.5t14 -34.5q0 -25 -19 -43.5t-45 -18.5q-21 0 -34.5 14t-13.5 35z" />
<glyph unicode="&#x22;" horiz-adv-x="310" d="M233 657l-68 -194h-52l2 15l45 194h75zM365 657l-67 -194h-52l2 15l46 194h73z" />
<glyph unicode="#" horiz-adv-x="648" d="M609 583l-58 -159h123l-20 -51h-122l-60 -164h118l-18 -52h-119l-57 -157h-55l57 157h-165l-57 -157h-55l57 157h-122l18 52h123l60 164h-118l18 51h119l58 159h55l-58 -159h165l58 159h55zM312 373l-60 -164h165l60 164h-165z" />
<glyph unicode="$" horiz-adv-x="540" d="M50 59l54 62q7 -6 19.5 -16t57 -26t95.5 -16q80 0 119 29t39 77q0 33 -31 55t-112 46q-98 29 -142 64.5t-44 93.5q0 80 60 129.5t164 54.5l12 82h63l-12 -82q55 -4 97.5 -18t58.5 -26l15 -13l-55 -68q-6 5 -18 13.5t-54.5 22t-91.5 13.5q-67 0 -109 -25.5t-42 -69.5 q0 -30 32 -50t113 -43q99 -28 142 -67t43 -97q0 -80 -55 -133.5t-164 -62.5l-11 -82h-63l11 81q-61 3 -108.5 21t-64.5 34z" />
<glyph unicode="%" horiz-adv-x="672" d="M258 613q55 0 85.5 -36.5t30.5 -91.5q0 -69 -44.5 -121t-113.5 -52q-56 0 -86.5 37t-30.5 92q0 70 44 121t115 51zM250 553q-39 0 -60 -30.5t-21 -77.5q0 -72 56 -72q36 0 58 31t22 77q0 33 -14.5 52.5t-40.5 19.5zM629 606l46 -41l-549 -564l-44 41zM541 293 q55 0 86 -37t31 -92q0 -68 -44.5 -120t-114.5 -52q-55 0 -86 37.5t-31 91.5q0 69 44.5 120.5t114.5 51.5zM533 233q-37 0 -59 -30.5t-22 -77.5q0 -32 14.5 -52t41.5 -20q38 0 59 31t21 77q0 72 -55 72z" />
<glyph unicode="&#x26;" horiz-adv-x="626" d="M75 140q0 70 42 112.5t116 74.5l-6 8q-46 53 -46 116q0 71 52 116.5t132 45.5q71 0 110.5 -35.5t39.5 -89.5q0 -67 -42.5 -107.5t-119.5 -74.5l132 -146q41 60 51 134l3 21h80l-3 -20q-17 -106 -83 -188l89 -99l-1 -8h-95l-48 53q-84 -66 -195 -66q-100 0 -154 41.5 t-54 111.5zM293 59q79 0 139 45l-151 170q-56 -25 -85.5 -52.5t-29.5 -68.5t34 -67.5t93 -26.5zM259 452q0 -46 47 -95q64 26 96.5 52.5t32.5 67.5q0 29 -19 48t-59 19q-42 0 -70 -25.5t-28 -66.5z" />
<glyph unicode="'" horiz-adv-x="177" d="M233 657l-68 -194h-52l2 15l45 194h75z" />
<glyph unicode="(" horiz-adv-x="327" d="M403 621q-27 -15 -51 -31.5t-64.5 -55t-69 -81.5t-50 -109.5t-21.5 -140.5q0 -65 17 -121.5t45 -94t49 -58t43 -35.5l-49 -58q-25 15 -53 40.5t-61 69t-54.5 110t-21.5 142.5q0 84 25.5 160.5t61 127t82 94t78.5 64t61 35.5z" />
<glyph unicode=")" horiz-adv-x="327" d="M98 621l50 58q25 -15 52.5 -40.5t61 -69t55 -110t21.5 -142.5q0 -84 -25.5 -160.5t-61 -127t-82.5 -94t-78.5 -64t-60.5 -35.5l-34 58q27 15 52 32t65 55t68.5 81t50 109.5t21.5 140.5q0 65 -17 121.5t-45 93.5t-49.5 58t-43.5 36z" />
<glyph unicode="*" horiz-adv-x="411" d="M336 700l-25 -77h-36l-2 77l4 29h63zM418 583l-80 -11l-5 33l75 38l28 9l10 -61zM233 572l-76 11l-26 8l28 61l25 -9l65 -38zM174 491l65 55l25 -20l-44 -73l-21 -23l-44 37zM327 545l49 -54l14 -24l-58 -37l-12 23l-25 73z" />
<glyph unicode="+" horiz-adv-x="484" d="M347 494l-23 -161h161l-9 -67h-161l-22 -156h-70l22 156h-163l9 67h163l23 161h70z" />
<glyph unicode="," horiz-adv-x="156" d="M31 38q0 25 17.5 42.5t42.5 17.5q20 0 33.5 -13.5t13.5 -33.5q0 -32 -29 -75l-50 -71h-56l45 64l19 20v4q-16 2 -26 14.5t-10 30.5z" />
<glyph unicode="-" horiz-adv-x="389" d="M87 259l10 68h287l-10 -68h-287z" />
<glyph unicode="." horiz-adv-x="156" d="M31 38q0 25 18 43t43 18q20 0 33 -13.5t13 -33.5q0 -25 -18 -42.5t-43 -17.5q-20 0 -33 13t-13 33z" />
<glyph unicode="/" horiz-adv-x="361" d="M431 703l-345 -879h-82l345 879h82z" />
<glyph unicode="0" horiz-adv-x="622" d="M309 -14q-108 0 -167 74.5t-59 189.5q0 149 87 256t227 107q109 0 168 -74t59 -189q0 -150 -87.5 -257t-227.5 -107zM320 65q99 0 159 81t60 196q0 85 -39 139t-113 54q-100 0 -159.5 -81.5t-59.5 -196.5q0 -85 39 -138.5t113 -53.5z" />
<glyph unicode="1" horiz-adv-x="326" d="M95 525l11 75h214l-85 -600h-82l74 525h-132z" />
<glyph unicode="2" horiz-adv-x="511" d="M43 0l3 18l300 289q48 46 63.5 70t15.5 58q0 43 -31 71t-84 28q-40 0 -81.5 -18t-58 -30.5t-25.5 -21.5l-37 66q4 3 10.5 9t28.5 20t45.5 25t59.5 20t72 9q93 0 142.5 -44t49.5 -115q0 -48 -20 -86.5t-71 -86.5l-213 -206h267l-11 -75h-425z" />
<glyph unicode="3" horiz-adv-x="517" d="M299 290h-84q3 15 3 24l182 211h-265l11 75h399l-3 -18l-197 -228q74 -3 114.5 -44t40.5 -110q0 -92 -69 -153t-185 -61q-21 0 -41.5 3t-37 7.5t-32 10.5t-28 13t-22.5 13.5t-18 13t-13 11t-8 8.5l-4 3q9 11 28 35.5t22 28.5l7.5 -7.5t21 -16.5t34.5 -21t45 -16.5 t55 -7.5q72 0 115.5 35.5t43.5 91.5q0 46 -30.5 72.5t-84.5 26.5z" />
<glyph unicode="4" horiz-adv-x="549" d="M45 139l8 60l410 401h62l-56 -386h73l-11 -75h-72l-20 -139h-82l19 139h-331zM167 222l-2 -8h222l36 254l-238 -235z" />
<glyph unicode="5" horiz-adv-x="511" d="M515 525h-271l-29 -165q42 7 80 7q102 0 153.5 -43t51.5 -116q0 -100 -67.5 -161t-187.5 -61q-58 0 -109 21t-73 42l-22 21l52 64q7 -8 20.5 -19.5t56 -31t86.5 -19.5q71 0 114.5 36t43.5 97q0 44 -36 70.5t-102 26.5q-40 0 -75.5 -5.5t-49 -10t-17.5 -6.5l-12 11l54 317 h349z" />
<glyph unicode="6" horiz-adv-x="514" d="M70 154q0 97 83 206l183 240h101l-165 -213q-6 -8 -14 -15.5t-13 -10.5l-5 -3l-1 -6q40 21 84 21q89 0 140.5 -46t51.5 -120q0 -99 -72 -160t-177 -61q-90 0 -143 45t-53 123zM310 299q-69 0 -111.5 -38.5t-42.5 -97.5q0 -45 34 -73t87 -28q66 0 108.5 38.5t42.5 96.5 q0 45 -31 73.5t-87 28.5z" />
<glyph unicode="7" horiz-adv-x="462" d="M111 525l10 75h418l-2 -20l-356 -580h-100l327 525h-297z" />
<glyph unicode="8" horiz-adv-x="541" d="M270 -14q-95 0 -147.5 45.5t-52.5 114.5q0 57 32.5 102t89.5 70q-59 39 -59 112q0 77 62.5 130t162.5 53q82 0 129.5 -41t47.5 -105q0 -47 -25.5 -87t-70.5 -64q79 -44 79 -131q0 -83 -68.5 -141t-179.5 -58zM280 62q66 0 109.5 35t43.5 84q0 45 -34 73t-88 28 q-66 0 -110.5 -35.5t-44.5 -88.5q0 -41 33.5 -68.5t90.5 -27.5zM320 346q58 0 94 31t36 78q0 36 -28 59t-75 23q-58 0 -94 -30t-36 -74q0 -39 27.5 -63t75.5 -24z" />
<glyph unicode="9" horiz-adv-x="515" d="M529 445q0 -100 -82 -206l-183 -239h-102l164 212q6 8 14 15t13 11l5 3v4q-38 -20 -83 -20q-88 0 -139.5 46.5t-51.5 120.5q0 99 72 160t176 61q90 0 143.5 -45.5t53.5 -122.5zM290 301q67 0 109.5 36.5t42.5 90.5q0 51 -33 79.5t-86 28.5q-66 0 -108.5 -38t-42.5 -96 q0 -45 31 -73t87 -28z" />
<glyph unicode=":" horiz-adv-x="203" d="M88 291q0 24 19 41.5t43 17.5q21 0 33.5 -13.5t12.5 -33.5q0 -25 -18 -42.5t-43 -17.5q-20 0 -33.5 14t-13.5 34zM53 39q0 25 18.5 42.5t43.5 17.5q20 0 33 -13.5t13 -33.5q0 -25 -18 -42.5t-43 -17.5q-21 0 -34 13.5t-13 33.5z" />
<glyph unicode=";" horiz-adv-x="220" d="M64 39q0 24 18.5 41.5t43.5 17.5q20 0 33.5 -13.5t13.5 -33.5q0 -32 -26 -69l-54 -77h-55l45 64l18 20v4q-37 7 -37 46zM101 290q0 25 18 42.5t43 17.5q21 0 34 -13.5t13 -33.5q0 -24 -18.5 -42t-43.5 -18q-21 0 -33.5 13.5t-12.5 33.5z" />
<glyph unicode="&#x3c;" horiz-adv-x="378" d="M283 44l-208 232l3 23l274 232l41 -50l-229 -194l174 -193z" />
<glyph unicode="=" horiz-adv-x="528" d="M130 354l9 68h368l-9 -68h-368zM103 164l9 67h368l-9 -67h-368z" />
<glyph unicode="&#x3e;" horiz-adv-x="378" d="M381 276l-274 -232l-41 50l229 193l-175 194l55 50l209 -232z" />
<glyph unicode="?" horiz-adv-x="384" d="M136 515l-20 64q58 34 152 34q67 0 104 -34.5t37 -87.5q0 -43 -15.5 -76t-39.5 -55t-49.5 -43t-47.5 -49.5t-31 -63.5l-7 -32h-55l5 39q5 36 22.5 66t39 51t43 41t35.5 45.5t14 55.5q0 33 -22 53.5t-60 20.5q-28 0 -54.5 -7t-38.5 -15zM122 38q0 25 18 43t43 18 q20 0 33.5 -14t13.5 -34q0 -24 -18.5 -41.5t-43.5 -17.5q-20 0 -33 13t-13 33z" />
<glyph unicode="@" horiz-adv-x="914" d="M421 -244q-174 0 -268.5 104t-94.5 262q0 96 34 183.5t95.5 154.5t154 107t202.5 40q90 0 161 -28.5t113.5 -76.5t64.5 -105t22 -119q0 -124 -59 -207.5t-159 -83.5q-28 0 -50 7.5t-32.5 18.5t-17.5 22t-9 19l-1 7h-6q-7 -12 -19.5 -25t-47.5 -28.5t-78 -15.5 q-68 0 -110 42.5t-42 113.5q0 92 59 149t144 57q94 0 121 -62l20 54h56l-31 -218q-10 -73 58 -73q60 0 97 60.5t37 151.5q0 119 -79 197t-221 78q-176 0 -292 -117.5t-116 -293.5q0 -137 81.5 -223.5t222.5 -86.5q53 0 99.5 9.5t66.5 19.5l20 9l19 -58q-8 -5 -23.5 -12.5 t-71.5 -20t-120 -12.5zM577 191q0 45 -26.5 70.5t-69.5 25.5q-52 0 -89 -36.5t-37 -92.5q0 -44 26 -71.5t68 -27.5q54 0 91 36.5t37 95.5z" />
<glyph unicode="A" horiz-adv-x="611" d="M-1 0l382 600h17l215 -600h-94l-35 98h-330l-62 -98h-93zM453 181l-82 258h-9l-154 -258l-8 -10h258z" />
<glyph unicode="B" horiz-adv-x="635" d="M613 186q0 -90 -68.5 -138t-180.5 -48h-281l84 600h270q93 0 143.5 -36t50.5 -105q0 -55 -29 -93t-79 -55l-1 -8q42 -13 66.5 -43.5t24.5 -73.5zM412 267h-210l-27 -192h203q64 0 106.5 28.5t42.5 79.5q0 38 -32.5 61t-82.5 23zM544 445q0 80 -119 80h-187l-26 -186h187 q66 0 105.5 28.5t39.5 77.5z" />
<glyph unicode="C" horiz-adv-x="589" d="M535 126l38 -64q-3 -3 -9 -8t-27.5 -18.5t-45 -23.5t-61 -18t-77.5 -8q-125 0 -199 77.5t-74 195.5q0 147 104 250.5t258 103.5q40 0 75 -8t56.5 -19t37.5 -22t23 -19l6 -8l-56 -64q-2 3 -6.5 7t-19 14.5t-31 19t-42.5 15t-53 6.5q-111 0 -189 -78.5t-78 -187.5 q0 -88 55 -146.5t145 -58.5q45 0 87.5 15.5t62.5 30.5z" />
<glyph unicode="D" horiz-adv-x="660" d="M663 341q0 -151 -103 -246t-262 -95h-215l84 600h215q129 0 205 -70.5t76 -188.5zM366 525h-128l-63 -450h128q117 0 196 69.5t79 186.5q0 91 -58.5 142.5t-153.5 51.5z" />
<glyph unicode="E" horiz-adv-x="567" d="M528 333l-10 -73h-317l-26 -185h365l-11 -75h-446l84 600h446l-10 -75h-365l-27 -192h317z" />
<glyph unicode="F" horiz-adv-x="557" d="M613 600l-10 -75h-365l-27 -192h320l-10 -73h-320l-36 -260h-82l84 600h446z" />
<glyph unicode="G" horiz-adv-x="673" d="M373 260l10 73h297l-6 -46q-19 -138 -105 -219.5t-219 -81.5q-127 0 -199 76.5t-72 194.5q0 149 102.5 252.5t259.5 103.5q43 0 81 -8t61 -19.5t39.5 -23t23.5 -19.5l7 -8l-58 -63q-6 7 -18 17.5t-55 28t-92 17.5q-115 0 -190.5 -78.5t-75.5 -190.5q0 -88 52 -145 t144 -57q87 0 149 52t75 136l1 8h-212z" />
<glyph unicode="H" horiz-adv-x="675" d="M677 600l-84 -600h-83l36 258h-345l-36 -258h-82l84 600h82l-38 -268h345l38 268h83z" />
<glyph unicode="I" horiz-adv-x="248" d="M249 600l-84 -600h-82l84 600h82z" />
<glyph unicode="J" horiz-adv-x="459" d="M27 35l48 65q42 -34 103 -34q130 0 151 146l54 388h83l-57 -405q-14 -99 -74 -154t-161 -55q-44 0 -81 13t-48 21t-18 15z" />
<glyph unicode="K" horiz-adv-x="601" d="M249 600l-45 -321l366 321h100l-1 -12l-273 -241l192 -335l-2 -12h-97l-162 287l-139 -123l-23 -164h-82l84 600h82z" />
<glyph unicode="L" horiz-adv-x="520" d="M508 0h-425l84 600h82l-74 -525h344z" />
<glyph unicode="M" horiz-adv-x="757" d="M593 0l59 421l-233 -217h-22l-173 216l-59 -420h-82l84 600h23l233 -288l314 288h22l-84 -600h-82z" />
<glyph unicode="N" horiz-adv-x="696" d="M698 600l-84 -600h-23l-366 430l-60 -430h-82l84 600h23l365 -426l60 426h83z" />
<glyph unicode="O" horiz-adv-x="706" d="M350 -14q-126 0 -198.5 77t-72.5 195q0 148 102 251.5t257 103.5q126 0 199 -76.5t73 -195.5q0 -147 -102 -251t-258 -104zM361 65q114 0 189 77.5t75 188.5q0 88 -53 146t-145 58q-113 0 -188 -78.5t-75 -188.5q0 -88 53 -145.5t144 -57.5z" />
<glyph unicode="P" horiz-adv-x="604" d="M83 0l84 600h252q103 0 159.5 -45t56.5 -128q0 -112 -76.5 -175t-201.5 -63h-166l-26 -189h-82zM548 414q0 54 -37.5 82.5t-104.5 28.5h-168l-36 -262h167q84 0 131.5 38t47.5 113z" />
<glyph unicode="Q" horiz-adv-x="706" d="M350 -14q-126 0 -198.5 77t-72.5 195q0 148 102 251.5t257 103.5q126 0 199 -76.5t73 -195.5q0 -94 -44.5 -174.5t-121.5 -127.5l44 -80l-2 -13h-90l-30 57q-56 -17 -116 -17zM359 208l1 12h87l60 -112q55 36 86.5 95t31.5 128q0 88 -53 146t-145 58q-113 0 -188 -78.5 t-75 -188.5q0 -88 53 -145.5t144 -57.5q34 0 68 8z" />
<glyph unicode="R" horiz-adv-x="631" d="M418 600q103 0 159.5 -45t56.5 -128q0 -82 -44 -137.5t-120 -78.5v-4l128 -191l-2 -16h-91l-129 195h-184l-27 -195h-82l84 600h251zM547 415q0 54 -37 82t-104 28h-168l-35 -256h175q76 0 122.5 37t46.5 109z" />
<glyph unicode="S" horiz-adv-x="537" d="M50 59l54 62q7 -6 19.5 -16t57 -26t95.5 -16q80 0 119 29t39 77q0 33 -31 55t-112 46q-98 29 -142 64.5t-44 93.5q0 85 67 135t183 50q67 0 119 -14.5t70 -28.5l19 -15l-55 -68q-6 5 -18 13.5t-54.5 22t-91.5 13.5q-67 0 -109 -25.5t-42 -69.5q0 -30 32 -50t113 -43 q99 -28 142 -67t43 -97q0 -87 -65 -142.5t-192 -55.5q-43 0 -81.5 7.5t-62 18t-41 21.5t-24.5 19z" />
<glyph unicode="T" horiz-adv-x="526" d="M89 525l11 75h497l-11 -75h-208l-74 -525h-82l74 525h-207z" />
<glyph unicode="U" horiz-adv-x="659" d="M328 -14q-119 0 -177.5 73.5t-41.5 192.5l49 348h82l-49 -348q-12 -84 26 -135.5t122 -51.5t135.5 51.5t63.5 135.5l49 348h83l-49 -348q-17 -120 -95 -193t-198 -73z" />
<glyph unicode="V" horiz-adv-x="611" d="M323 157h9l79 136l192 307h92l-381 -600h-18l-213 600h92l109 -307z" />
<glyph unicode="W" horiz-adv-x="817" d="M294 203l174 397h49l61 -397l6 -52h8l22 55l190 394h87l-301 -600h-56l-62 394l-3 25h-7l-10 -25l-174 -394h-53l-133 600h86l82 -394l6 -55h8z" />
<glyph unicode="X" horiz-adv-x="561" d="M624 600l-240 -292l164 -308h-100l-114 216l-16 46l-32 -46l-173 -216h-98l247 308l-156 292h99l110 -207l15 -43l28 43l167 207h99z" />
<glyph unicode="Y" horiz-adv-x="550" d="M345 346l191 254h95l-283 -370l-32 -230h-83l32 229l-178 371h96l121 -254l13 -38h4z" />
<glyph unicode="Z" horiz-adv-x="543" d="M30 0l3 21l423 504h-340l10 75h473l-3 -21l-415 -504h339l-11 -75h-479z" />
<glyph unicode="[" horiz-adv-x="324" d="M396 674l-10 -68h-149l-98 -696h150l-10 -68h-227l117 832h227z" />
<glyph unicode="\" horiz-adv-x="361" d="M225 -176l-97 879h82l97 -879h-82z" />
<glyph unicode="]" horiz-adv-x="324" d="M1 -158l10 68h148l98 696h-149l10 68h227l-117 -832h-227z" />
<glyph unicode="^" horiz-adv-x="402" d="M356 489l-70 118l-102 -118h-59l2 15l143 164h49l98 -164l-2 -15h-59z" />
<glyph unicode="_" horiz-adv-x="495" d="M32 -88l10 68h403l-10 -68h-403z" />
<glyph unicode="`" horiz-adv-x="254" d="M199 419l-67 143l2 15h97l22 -143l-2 -15h-52z" />
<glyph unicode="a" d="M41 90q0 53 44.5 86t126.5 33q66 0 102 -27h6l2 17q5 44 -18 66t-79 22q-27 0 -53 -6.5t-38 -13.5l-12 -7l-19 61q52 33 147 33q89 0 124.5 -43.5t25.5 -119.5l-27 -191h-58l-2 40h-6q-41 -48 -134 -48q-65 0 -98.5 27.5t-33.5 70.5zM122 99q0 -22 19.5 -36t57.5 -14 q43 0 75.5 21t32.5 41q0 22 -25.5 35.5t-67.5 13.5q-43 0 -67.5 -16.5t-24.5 -44.5z" />
<glyph unicode="b" horiz-adv-x="468" d="M57 0l94 668h82l-52 -366h3q4 6 12.5 14.5t41.5 23t75 14.5q65 0 106.5 -43t41.5 -113q0 -91 -59.5 -148.5t-142.5 -57.5q-28 0 -51 6.5t-36 15.5t-21.5 18t-11.5 16l-3 6h-3l-19 -54h-57zM157 157q0 -44 26.5 -70.5t68.5 -26.5q52 0 88.5 37t36.5 92q0 44 -25.5 70.5 t-67.5 26.5q-53 0 -90 -35.5t-37 -93.5z" />
<glyph unicode="c" horiz-adv-x="363" d="M224 -8q-76 0 -122.5 44t-46.5 113q0 87 63.5 146t156.5 59q33 0 60.5 -7.5t38.5 -14.5l10 -8l-32 -61q-29 23 -80 23q-55 0 -94.5 -36t-39.5 -93q0 -44 28.5 -70.5t73.5 -26.5q23 0 44.5 6t31.5 12l10 5l14 -61q-41 -30 -116 -30z" />
<glyph unicode="d" horiz-adv-x="468" d="M369 306h3l51 362h82l-94 -668h-56l-5 51h-4q-5 -7 -14 -16.5t-45 -26t-80 -16.5q-67 0 -109.5 42t-42.5 113q0 90 59 148.5t141 58.5q41 0 69.5 -12t36.5 -24zM360 189q0 44 -27 70.5t-69 26.5q-52 0 -88.5 -36.5t-36.5 -91.5q0 -44 25.5 -71t67.5 -27q53 0 90.5 36 t37.5 93z" />
<glyph unicode="e" horiz-adv-x="416" d="M345 85l20 -54l-16.5 -11t-45.5 -18t-74 -11q-80 0 -127 44t-47 114q0 87 61 146t150 59q70 0 109.5 -41.5t39.5 -107.5l-6 -49h-274q0 -49 28.5 -74.5t76.5 -25.5q29 0 55 7t38 15zM256 290q-40 0 -70 -21.5t-43 -59.5h194q-1 36 -22 58.5t-59 22.5z" />
<glyph unicode="f" horiz-adv-x="319" d="M340 282h-122l-39 -282h-81l39 282h-80l9 64h80l21 147q12 87 57.5 130t116.5 43q21 0 39.5 -4.5t26 -8t9.5 -5.5l-30 -70q-23 12 -45 12q-80 0 -93 -97l-21 -147h122z" />
<glyph unicode="g" horiz-adv-x="406" d="M177 -237q-83 0 -127.5 31t-44.5 82q0 79 79 113l1 3q-50 22 -50 67q0 59 70 90q-16 25 -16 59q0 62 46 103.5t120 41.5l180 -8l-8 -58h-61v-5q15 -15 15 -48q0 -57 -46.5 -98t-117.5 -41q-44 0 -74 18q-34 -16 -34 -41q0 -38 106 -38q173 0 173 -115q0 -68 -56.5 -112 t-154.5 -44zM206 -31q-58 0 -89.5 -23t-31.5 -56q0 -29 25.5 -47t75.5 -18q59 0 90 22.5t31 56.5q0 29 -25.5 47t-75.5 18zM245 291q-39 0 -63.5 -22.5t-24.5 -54.5q0 -26 18 -42.5t50 -16.5q40 0 64 22t24 54q0 26 -18 43t-50 17z" />
<glyph unicode="h" horiz-adv-x="459" d="M57 0l94 668h82l-50 -354h3q48 40 118 40q71 0 105.5 -42t24.5 -113l-28 -199h-81l26 188q6 44 -14 71t-63 27q-46 0 -74.5 -27t-32.5 -60v1l-28 -200h-82z" />
<glyph unicode="i" horiz-adv-x="198" d="M166 478q-19 0 -31 12.5t-12 31.5q0 23 17 40t40 17q19 0 32 -13t13 -32q0 -23 -17.5 -39.5t-41.5 -16.5zM58 0l49 346h82l-49 -346h-82z" />
<glyph unicode="j" horiz-adv-x="195" d="M-58 -184l23 61q14 -9 32 -9q40 0 47 50l60 428h84l-61 -431q-16 -116 -120 -116q-19 0 -35 4.5t-23 8.5zM164 478q-19 0 -31.5 12.5t-12.5 31.5q0 23 17.5 40t40.5 17q20 0 32 -13t12 -32q0 -23 -17 -39.5t-41 -16.5z" />
<glyph unicode="k" horiz-adv-x="401" d="M327 346h96l-178 -169l151 -177h-109l-125 153h-3l-21 -153h-82l94 668h82l-67 -476h2z" />
<glyph unicode="l" horiz-adv-x="198" d="M58 0l94 668h82l-94 -668h-82z" />
<glyph unicode="m" horiz-adv-x="726" d="M167 201l-28 -201h-82l49 346h54l3 -49h5q51 57 134 57q92 0 122 -62h5q48 62 141 62q72 0 107 -42t25 -113l-28 -199h-82l26 188q6 44 -13 71t-63 27q-46 0 -75 -26.5t-33 -59.5l-28 -200h-81l28 198q5 39 -15.5 63.5t-63.5 24.5q-45 0 -74 -27t-33 -58z" />
<glyph unicode="n" horiz-adv-x="457" d="M167 199l-28 -199h-82l49 346h54l3 -49h5q47 57 134 57q72 0 107 -42t25 -113l-28 -199h-81l26 188q6 43 -14 70.5t-63 27.5q-46 0 -74.5 -27t-32.5 -60z" />
<glyph unicode="o" horiz-adv-x="446" d="M440 194q0 -89 -64.5 -145.5t-153.5 -56.5q-73 0 -120 42.5t-47 113.5q0 90 64.5 148t153.5 58q73 0 120 -44t47 -116zM231 58q52 0 90.5 36t38.5 94q0 45 -27 72.5t-70 27.5q-52 0 -89.5 -37t-37.5 -95q0 -45 26.5 -71.5t68.5 -26.5z" />
<glyph unicode="p" horiz-adv-x="468" d="M148 40h-3l-33 -232h-82l76 538h55l4 -49h6q5 6 14.5 15.5t45.5 25.5t79 16q67 0 109 -42.5t42 -112.5q0 -89 -58.5 -148t-140.5 -59q-26 0 -47.5 5t-33.5 12t-20 14t-11 12zM157 157q0 -45 26.5 -71t68.5 -26q52 0 88.5 36.5t36.5 92.5q0 43 -25.5 70t-67.5 27 q-53 0 -90 -35.5t-37 -93.5z" />
<glyph unicode="q" horiz-adv-x="468" d="M460 346l-76 -538h-82l33 236h-3q-4 -6 -12 -14.5t-41 -23t-75 -14.5q-66 0 -107.5 43t-41.5 113q0 91 59 148.5t144 57.5q28 0 51 -6.5t35.5 -16t21 -18.5t11.5 -15l3 -7h4l20 55h56zM360 189q0 44 -27 70.5t-69 26.5q-52 0 -88.5 -37t-36.5 -92q0 -44 25.5 -70.5 t67.5 -26.5q52 0 90 36t38 93z" />
<glyph unicode="r" horiz-adv-x="297" d="M341 329l-38 -64q-14 11 -44 11q-32 0 -60 -20t-32 -51l-28 -205h-82l49 346h54l3 -49h4q39 50 108 50q20 0 36.5 -4.5t22.5 -8.5z" />
<glyph unicode="s" horiz-adv-x="378" d="M35 32l37 57q49 -34 119 -34q85 0 85 45q0 20 -32 32.5t-70.5 20t-70.5 29.5t-32 59q0 50 41.5 81.5t122.5 31.5q44 0 80.5 -7t50.5 -14l15 -7l-37 -64q-36 29 -109 29q-82 0 -82 -42q0 -19 32.5 -31t71 -18.5t71 -29.5t32.5 -61q0 -50 -44 -83.5t-131 -33.5 q-48 0 -85.5 10t-51.5 20z" />
<glyph unicode="t" horiz-adv-x="320" d="M64 346h67l15 104h81l-15 -104h129l-9 -66h-129l-19 -136q-11 -83 58 -83q12 0 24 3.5t18 7.5l7 3l19 -56q-34 -27 -89 -27q-67 0 -98 38.5t-21 110.5l20 139h-67z" />
<glyph unicode="u" horiz-adv-x="455" d="M337 147l28 199h82l-48 -346h-54l-8 48h-4q-13 -19 -46 -37.5t-86 -18.5q-72 0 -106 42t-24 113l28 199h82l-26 -188q-6 -44 12.5 -71t61.5 -27q46 0 75 27t33 60z" />
<glyph unicode="v" horiz-adv-x="411" d="M177 0l-120 346h90l67 -223q4 -17 3 -26h5q1 11 11 26l129 223h90l-218 -346h-57z" />
<glyph unicode="w" horiz-adv-x="589" d="M154 0l-93 346h87l47 -223q3 -14 2 -26h7q2 8 10 26l100 223h62l38 -223q2 -17 1 -26h7q2 9 11 26l109 223h83l-190 -346h-62l-40 217q-3 13 -1 28h-5q-3 -14 -9 -28l-103 -217h-61z" />
<glyph unicode="x" horiz-adv-x="400" d="M12 0l164 178l-107 168h92l69 -117h3l104 117h92l-156 -168l114 -178h-92l-76 128h-3l-112 -128h-92z" />
<glyph unicode="y" horiz-adv-x="409" d="M448 346l-328 -538h-86l136 216l-110 322h89l68 -223q4 -17 3 -26h5q2 15 11 29l128 220h84z" />
<glyph unicode="z" horiz-adv-x="381" d="M349 0h-317l5 37l236 242h-201l10 67h316l-5 -34l-237 -245h202z" />
<glyph unicode="{" horiz-adv-x="267" d="M57 290h16q27 0 46 19.5t24 57.5l30 215q15 113 143 122l3 -69q-30 -4 -43.5 -16t-17.5 -44l-30 -217q-11 -80 -70 -98l-1 -8q54 -17 43 -95l-31 -219q-4 -31 5.5 -43t38.5 -16l-22 -69q-125 7 -109 121l30 216q5 37 -8 57t-40 20h-16z" />
<glyph unicode="|" horiz-adv-x="223" d="M244 673l-116 -825h-75l116 825h75z" />
<glyph unicode="}" horiz-adv-x="267" d="M280 224h-16q-27 0 -45.5 -20t-23.5 -57l-31 -216q-16 -114 -144 -121l-1 69q29 4 42 16t17 43l31 219q11 78 71 95l2 8q-56 18 -45 98l31 217q4 32 -5 44t-38 16l21 69q126 -9 110 -122l-30 -215q-10 -77 48 -77h16z" />
<glyph unicode="~" horiz-adv-x="454" d="M343 314q22 0 41.5 5t27.5 11l9 5l19 -51q-36 -34 -104 -34q-26 0 -70.5 12.5t-72.5 12.5q-22 0 -41.5 -5.5t-27.5 -10.5l-9 -5l-18 51q36 34 103 34q26 0 70.5 -12.5t72.5 -12.5z" />
<glyph unicode="&#xa1;" horiz-adv-x="241" d="M174 37l-5 -37h-99l5 37l76 388h57zM142 546q0 25 19 43.5t45 18.5q21 0 35 -14.5t14 -35.5q0 -24 -20 -42.5t-44 -18.5q-21 0 -35 14t-14 35z" />
<glyph unicode="&#xa2;" horiz-adv-x="409" d="M188 -94l12 89q-61 11 -97 52.5t-36 102.5q0 77 51.5 133t130.5 68l13 91h58l-13 -89q29 -2 54 -9.5t35 -13.5l11 -7l-38 -64q-34 27 -84 27q-54 0 -94 -36t-40 -92q0 -45 29 -71.5t73 -26.5q22 0 45 6t35 12l12 7l20 -62q-42 -25 -107 -30l-12 -87h-58z" />
<glyph unicode="&#xa3;" horiz-adv-x="516" d="M469 76l-10 -73h-394l10 73q3 1 7 3t16 10t21.5 18.5t19 30t12.5 43.5q3 25 -6 64h-66l9 62h43q-7 35 -7 66q0 92 70.5 163.5t192.5 71.5q34 0 63 -6.5t46.5 -16t30 -19.5t17.5 -16l4 -7l-55 -60q-3 5 -10.5 12.5t-37 20.5t-65.5 13q-78 0 -122 -47t-44 -111q0 -32 8 -64 h225l-9 -62h-202q7 -35 3 -62q-9 -65 -57 -107h287z" />
<glyph unicode="&#xa4;" horiz-adv-x="577" d="M128 71l-47 53l66 58q-24 40 -24 92q0 78 55 141l-48 57l61 53l45 -61q57 35 121 35t110 -38l65 64l47 -53l-69 -62q23 -40 23 -90q0 -75 -52 -138l49 -58l-61 -53l-46 61q-58 -37 -123 -37q-63 0 -110 37zM201 283q0 -47 31 -80t78 -33q57 0 101.5 42.5t44.5 99.5 q0 47 -31.5 79.5t-78.5 32.5q-57 0 -101 -42.5t-44 -98.5z" />
<glyph unicode="&#xa5;" horiz-adv-x="606" d="M373 346l191 254h95l-237 -309h135l-9 -63h-173l-11 -79h173l-9 -62h-172l-12 -87h-83l12 87h-173l9 62h172l12 79h-173l9 63h134l-148 309h96l121 -254l13 -38h4z" />
<glyph unicode="&#xa6;" horiz-adv-x="223" d="M129 -152h-76l116 825h76z" />
<glyph unicode="&#xa7;" horiz-adv-x="535" d="M20 -124l55 63q7 -7 20.5 -17.5t59 -28.5t93.5 -18q74 0 111 30.5t37 73.5q0 35 -28.5 58.5t-97.5 50.5q-75 29 -111 57.5t-36 76.5q0 65 53 99q-61 42 -61 106q0 81 63.5 133.5t182.5 52.5q65 0 115.5 -15.5t67.5 -31.5l18 -15l-56 -68q-6 6 -17 15t-51.5 24.5 t-87.5 15.5q-69 0 -104 -28t-35 -71q0 -63 105 -100q81 -29 124 -60.5t43 -82.5q0 -64 -50 -106q58 -45 58 -106q0 -76 -64 -130.5t-188 -54.5q-69 0 -123.5 19.5t-75.5 38.5zM278 274q-10 3 -39 14q-32 -12 -32 -52q0 -24 24.5 -43.5t76.5 -38.5q52 -21 62 -26q28 24 28 55 q0 28 -29.5 49t-90.5 42z" />
<glyph unicode="&#xa8;" horiz-adv-x="403" d="M130 478q0 20 17 36t37 16q17 0 29 -12.5t12 -29.5q0 -20 -17 -36t-37 -16q-17 0 -29 12.5t-12 29.5zM312 478q0 20 17 36t37 16q17 0 29 -12.5t12 -29.5q0 -20 -17 -36t-37 -16q-17 0 -29 12.5t-12 29.5z" />
<glyph unicode="&#xa9;" horiz-adv-x="719" d="M445 606q129 0 202 -75.5t73 -191.5q0 -143 -101.5 -244.5t-260.5 -101.5q-129 0 -202 76t-73 191q0 143 102 244.5t260 101.5zM438 559q-133 0 -218 -86t-85 -207q0 -97 61.5 -161t168.5 -64q133 0 218.5 86t85.5 206q0 98 -61.5 162t-169.5 64zM531 423l-35 -39 q-23 23 -72 23q-54 0 -89 -35t-35 -86q0 -41 25 -66.5t69 -25.5q22 0 41.5 6t28.5 12l9 5l23 -39q-4 -4 -12.5 -10t-37.5 -16.5t-62 -10.5q-67 0 -105 39t-38 99q0 76 52.5 128.5t135.5 52.5q33 0 58.5 -9t34.5 -19z" />
<glyph unicode="&#xaa;" horiz-adv-x="404" d="M85 356q0 52 43.5 83.5t113.5 31.5q75 0 103 -30l3 18q6 49 -15 73t-77 24q-14 0 -28.5 -2t-26.5 -5t-21 -6t-16.5 -6t-8.5 -3l-13 54q69 26 135 26q161 0 138 -158l-25 -182h-50l-7 33h-5q-36 -41 -125 -41q-53 0 -85.5 25t-32.5 65zM153 365q0 -23 20 -37t56 -14 q43 0 75 17.5t32 43.5q0 25 -23.5 39t-62.5 14q-46 0 -71.5 -17t-25.5 -46z" />
<glyph unicode="&#xab;" d="M59 162l3 19l127 155h70l-1 -8l-125 -153l-1 -5l82 -155l-1 -8h-70zM236 162l3 19l127 155h69l-1 -8l-125 -153l-1 -5l82 -155l-1 -8h-69z" />
<glyph unicode="&#xac;" horiz-adv-x="553" d="M71 279l10 68h441l-49 -347h-69l39 279h-372z" />
<glyph unicode="&#xad;" horiz-adv-x="389" d="M87 259l10 68h287l-10 -68h-287z" />
<glyph unicode="&#xae;" horiz-adv-x="568" d="M578 410q0 -108 -77 -186t-197 -78q-97 0 -151.5 58t-54.5 146q0 108 76.5 186t195.5 78q98 0 153 -58t55 -146zM526 404q0 71 -44 116t-119 45q-92 0 -152.5 -59t-60.5 -150q0 -70 43.5 -115.5t117.5 -45.5q92 0 153.5 60.5t61.5 148.5zM263 485h94q37 0 59.5 -17.5 t22.5 -47.5q0 -51 -49 -73l33 -54l-1 -10h-42l-33 53h-64l-7 -53h-41zM352 447h-54l-10 -74h52q55 0 55 42q0 32 -43 32z" />
<glyph unicode="&#xaf;" horiz-adv-x="444" d="M156 443l7 52h267l-7 -52h-267z" />
<glyph unicode="&#xb0;" horiz-adv-x="304" d="M246 672q47 0 75 -27t28 -68q0 -50 -38 -85t-95 -35q-47 0 -75 26.5t-28 67.5q0 50 38.5 85.5t94.5 35.5zM240 628q-33 0 -55.5 -21t-22.5 -50q0 -24 16.5 -39.5t43.5 -15.5q34 0 56 20.5t22 49.5q0 24 -16 40t-44 16z" />
<glyph unicode="&#xb1;" horiz-adv-x="547" d="M334 173h-69l23 167h-176l9 67h177l24 172h69l-24 -172h173l-9 -67h-174zM498 104l-10 -68h-419l10 68h419z" />
<glyph unicode="&#xb2;" horiz-adv-x="312" d="M74 342l3 18l166 141q44 38 44 73q0 48 -60 48q-38 0 -89 -34l-24 44q6 5 17 12.5t44 20t65 12.5q57 0 84 -25t27 -65q0 -57 -61 -108l-103 -87h155l-7 -50h-261z" />
<glyph unicode="&#xb3;" horiz-adv-x="313" d="M122 618l7 50h236l-2 -15l-89 -114q76 -11 76 -81q0 -53 -40 -88.5t-112 -35.5q-34 0 -64 11t-42 20t-16 15l37 43q35 -35 91 -35q42 0 64.5 18t22.5 45q0 20 -15 33t-43 13h-44l3 16l83 105h-153z" />
<glyph unicode="&#xb4;" horiz-adv-x="247" d="M267 562l-107 -143h-52l2 15l63 143h96z" />
<glyph unicode="&#xb5;" horiz-adv-x="502" d="M128 -192h-81l75 538h82l-26 -188q-6 -44 12.5 -71t61.5 -27q46 0 75 27t33 60l28 199h82l-48 -346h-54l-8 48h-4q-13 -19 -46 -37.5t-86 -18.5q-39 0 -68 13z" />
<glyph unicode="&#xb6;" horiz-adv-x="500" d="M303 -163l38 271h-59q-99 0 -155 44.5t-56 128.5q0 106 70.5 164.5t192.5 58.5h145l-94 -667h-82z" />
<glyph unicode="&#xb7;" horiz-adv-x="161" d="M75 352q0 25 19 44t43 19q21 0 35 -14t14 -35q0 -26 -19 -44t-45 -18q-20 0 -33.5 14t-13.5 34z" />
<glyph unicode="&#xb8;" horiz-adv-x="216" d="M72 -66l-13 20l30 48h44l-19 -32q26 0 42.5 -14t16.5 -40q0 -35 -25 -58t-68 -23q-24 0 -42 7.5t-24 15.5l-7 7l22 32q20 -21 55 -21q45 0 45 36q0 28 -34 28q-6 0 -12 -1.5t-9 -2.5z" />
<glyph unicode="&#xb9;" horiz-adv-x="199" d="M105 618l7 50h129l-46 -326h-57l39 276h-72z" />
<glyph unicode="&#xba;" horiz-adv-x="417" d="M296 613q68 0 109 -40t41 -109q0 -86 -57.5 -141t-141.5 -55q-68 0 -110 40.5t-42 107.5q0 87 58 142t143 55zM287 554q-54 0 -89 -37t-35 -94q0 -43 25 -69t67 -26q54 0 89 36.5t35 93.5q0 44 -25 70t-67 26z" />
<glyph unicode="&#xbb;" d="M238 181l-2 -19l-128 -155h-70l1 8l125 155l1 5l-82 153l1 8h70zM413 181l-2 -19l-128 -155h-69l1 8l125 155l1 5l-82 153l1 8h69z" />
<glyph unicode="&#xbc;" horiz-adv-x="637" d="M332 84l5 36l216 206h43l-28 -194h52l-6 -48h-52l-12 -84h-56l11 84h-173zM443 161l-13 -13t-13 -12.5t-7 -6.5l44 3h58l12 84q0 5 4 29h-1zM93 4l-37 34l548 564l38 -34zM116 550l7 50h129l-46 -326h-58l39 276h-71z" />
<glyph unicode="&#xbd;" horiz-adv-x="718" d="M93 4l-37 34l548 564l38 -34zM425 18l-2 -18h261l7 50h-156l103 87q61 51 61 109q0 39 -27 64t-83 25q-33 0 -64.5 -11.5t-46.5 -22.5l-16 -11l24 -44q51 34 90 34q61 0 61 -49q0 -31 -46 -72zM116 550l7 50h129l-46 -326h-58l39 276h-71z" />
<glyph unicode="&#xbe;" horiz-adv-x="735" d="M429 83l5 36l216 206h43l-28 -194h53l-7 -48h-53l-11 -83h-55l11 83h-174zM196 4l-39 34l549 564l38 -34zM129 550l7 50h236l-2 -15l-89 -114q75 -12 75 -81q0 -52 -40 -88t-111 -36q-34 0 -64 11t-42.5 20.5t-16.5 14.5l38 43q35 -35 90 -35q42 0 64.5 18t22.5 45 q0 46 -63 46h-39l3 16l83 105h-152zM541 159q-8 -8 -20.5 -19t-13.5 -12l45 3h58l12 84l5 29h-2z" />
<glyph unicode="&#xbf;" horiz-adv-x="383" d="M332 90l20 -65q-58 -33 -152 -33q-66 0 -103.5 34t-37.5 87q0 43 16 76t40 55.5t49 43.5t47.5 49.5t30.5 63.5l6 32h57l-6 -40q-5 -35 -23 -65t-39.5 -51t-42.5 -41t-35 -45.5t-14 -55.5q0 -33 22 -53.5t59 -20.5q29 0 55.5 7.5t38.5 14.5zM347 565q0 -24 -19 -41.5 t-44 -17.5q-20 0 -33 13t-13 33q0 25 18.5 43t42.5 18q21 0 34.5 -14t13.5 -34z" />
<glyph unicode="&#xc0;" horiz-adv-x="611" d="M-1 0l382 600h17l215 -600h-94l-35 98h-330l-62 -98h-93zM453 181l-82 258h-9l-154 -258l-8 -10h258zM366 638l-67 143l2 15h97l22 -143l-2 -15h-52z" />
<glyph unicode="&#xc1;" horiz-adv-x="611" d="M-1 0l382 600h17l215 -600h-94l-35 98h-330l-62 -98h-93zM453 181l-82 258h-9l-154 -258l-8 -10h258zM528 781l-107 -143h-52l2 15l63 143h96z" />
<glyph unicode="&#xc2;" horiz-adv-x="611" d="M490 638l-78 99l-107 -99h-52l2 15l120 143h89l80 -143l-2 -15h-52zM-1 0l382 600h17l215 -600h-94l-35 98h-330l-62 -98h-93zM453 181l-82 258h-9l-154 -258l-8 -10h258z" />
<glyph unicode="&#xc3;" horiz-adv-x="611" d="M-1 0l382 600h17l215 -600h-94l-35 98h-330l-62 -98h-93zM453 181l-82 258h-9l-154 -258l-8 -10h258zM460 645q-30 0 -67.5 22.5t-53.5 22.5q-28 0 -42 -34l-5 -13l-58 6l9 26q27 78 96 78q30 0 66.5 -22.5t53.5 -22.5q32 0 43 33l4 13l58 -5l-8 -26q-24 -78 -96 -78z " />
<glyph unicode="&#xc4;" horiz-adv-x="611" d="M267 716q0 20 17 36t37 16q17 0 29 -12.5t12 -29.5q0 -20 -17 -36t-37 -16q-17 0 -29 12.5t-12 29.5zM449 716q0 20 17 36t37 16q17 0 29 -12.5t12 -29.5q0 -20 -17 -36t-37 -16q-17 0 -29 12.5t-12 29.5zM-1 0l382 600h17l215 -600h-94l-35 98h-330l-62 -98h-93z M453 181l-82 258h-9l-154 -258l-8 -10h258z" />
<glyph unicode="&#xc5;" horiz-adv-x="612" d="M-1 0l364 572q-29 6 -46.5 28t-17.5 53q0 44 33 74.5t79 30.5q37 0 60.5 -23t23.5 -59q0 -38 -25 -67t-62 -37l205 -572h-94l-35 98h-330l-62 -98h-93zM453 181l-82 258h-9l-154 -258l-8 -10h258zM442 671q0 37 -38 37q-23 0 -37.5 -14t-14.5 -36q0 -17 11 -27t29 -10 q22 0 36 13.5t14 36.5z" />
<glyph unicode="&#xc6;" horiz-adv-x="912" d="M-14 0l515 600h457l-10 -75h-364l-27 -193h316l-11 -73h-315l-26 -184h364l-11 -75h-447l15 98h-274l-80 -98h-102zM485 472l-257 -301h224l42 301h-9z" />
<glyph unicode="&#xc7;" horiz-adv-x="589" d="M316 -66l-13 20l21 34q-112 9 -178 84.5t-66 186.5q0 147 104 250.5t258 103.5q40 0 75 -8t56.5 -19t37.5 -22t23 -19l6 -8l-56 -64q-2 3 -6.5 7t-19 14.5t-31 19t-42.5 15t-53 6.5q-111 0 -189 -78.5t-78 -187.5q0 -88 55 -146.5t145 -58.5q45 0 87.5 15.5t62.5 30.5 l20 16l38 -64q-8 -8 -24 -20t-69.5 -33t-112.5 -23l-9 -16q26 0 42.5 -14t16.5 -40q0 -35 -25 -58t-68 -23q-24 0 -42 7.5t-24 15.5l-7 7l22 32q20 -21 55 -21q45 0 45 36q0 28 -34 28q-6 0 -12 -1.5t-9 -2.5z" />
<glyph unicode="&#xc8;" horiz-adv-x="567" d="M528 333l-10 -73h-317l-26 -185h365l-11 -75h-446l84 600h446l-10 -75h-365l-27 -192h317zM386 637l-67 143l2 15h97l22 -143l-2 -15h-52z" />
<glyph unicode="&#xc9;" horiz-adv-x="567" d="M527 781l-107 -143h-52l2 15l63 143h96zM528 333l-10 -73h-317l-26 -185h365l-11 -75h-446l84 600h446l-10 -75h-365l-27 -192h317z" />
<glyph unicode="&#xca;" horiz-adv-x="567" d="M493 638l-78 99l-107 -99h-52l2 15l120 143h89l80 -143l-2 -15h-52zM528 333l-10 -73h-317l-26 -185h365l-11 -75h-446l84 600h446l-10 -75h-365l-27 -192h317z" />
<glyph unicode="&#xcb;" horiz-adv-x="567" d="M271 700q0 20 17 36t37 16q17 0 29 -12.5t12 -29.5q0 -20 -17 -36t-37 -16q-17 0 -29 12.5t-12 29.5zM453 700q0 20 17 36t37 16q17 0 29 -12.5t12 -29.5q0 -20 -17 -36t-37 -16q-17 0 -29 12.5t-12 29.5zM528 333l-10 -73h-317l-26 -185h365l-11 -75h-446l84 600h446 l-10 -75h-365l-27 -192h317z" />
<glyph unicode="&#xcc;" horiz-adv-x="248" d="M249 600l-84 -600h-82l84 600h82zM184 637l-67 143l2 15h97l22 -143l-2 -15h-52z" />
<glyph unicode="&#xcd;" horiz-adv-x="248" d="M249 600l-84 -600h-82l84 600h82zM345 781l-107 -143h-52l2 15l63 143h96z" />
<glyph unicode="&#xce;" horiz-adv-x="248" d="M307 638l-78 99l-107 -99h-52l2 15l120 143h89l80 -143l-2 -15h-52zM249 600l-84 -600h-82l84 600h82z" />
<glyph unicode="&#xcf;" horiz-adv-x="248" d="M83 700q0 20 17 36t37 16q17 0 29 -12.5t12 -29.5q0 -20 -17 -36t-37 -16q-17 0 -29 12.5t-12 29.5zM265 700q0 20 17 36t37 16q17 0 29 -12.5t12 -29.5q0 -20 -17 -36t-37 -16q-17 0 -29 12.5t-12 29.5zM249 600l-84 -600h-82l84 600h82z" />
<glyph unicode="&#xd0;" horiz-adv-x="668" d="M54 270l8 59h75l38 271h215q129 0 205 -70.5t76 -188.5q0 -151 -103 -246t-262 -95h-215l38 270h-75zM374 525h-128l-28 -196h123l-8 -59h-123l-27 -195h128q117 0 196 69.5t79 186.5q0 91 -58.5 142.5t-153.5 51.5z" />
<glyph unicode="&#xd1;" horiz-adv-x="696" d="M698 600l-84 -600h-23l-366 430l-60 -430h-82l84 600h23l365 -426l60 426h83zM503 660q-30 0 -67.5 22.5t-53.5 22.5q-28 0 -42 -34l-5 -13l-58 6l9 26q27 78 96 78q30 0 66.5 -22.5t53.5 -22.5q32 0 43 33l4 13l58 -5l-8 -26q-24 -78 -96 -78z" />
<glyph unicode="&#xd2;" horiz-adv-x="706" d="M414 638l-67 143l2 15h97l22 -143l-2 -15h-52zM350 -14q-126 0 -198.5 77t-72.5 195q0 148 102 251.5t257 103.5q126 0 199 -76.5t73 -195.5q0 -147 -102 -251t-258 -104zM361 65q114 0 189 77.5t75 188.5q0 88 -53 146t-145 58q-113 0 -188 -78.5t-75 -188.5 q0 -88 53 -145.5t144 -57.5z" />
<glyph unicode="&#xd3;" horiz-adv-x="706" d="M573 781l-107 -143h-52l2 15l63 143h96zM350 -14q-126 0 -198.5 77t-72.5 195q0 148 102 251.5t257 103.5q126 0 199 -76.5t73 -195.5q0 -147 -102 -251t-258 -104zM361 65q114 0 189 77.5t75 188.5q0 88 -53 146t-145 58q-113 0 -188 -78.5t-75 -188.5q0 -88 53 -145.5 t144 -57.5z" />
<glyph unicode="&#xd4;" horiz-adv-x="706" d="M534 638l-78 99l-107 -99h-52l2 15l120 143h89l80 -143l-2 -15h-52zM350 -14q-126 0 -198.5 77t-72.5 195q0 148 102 251.5t257 103.5q126 0 199 -76.5t73 -195.5q0 -147 -102 -251t-258 -104zM361 65q114 0 189 77.5t75 188.5q0 88 -53 146t-145 58q-113 0 -188 -78.5 t-75 -188.5q0 -88 53 -145.5t144 -57.5z" />
<glyph unicode="&#xd5;" horiz-adv-x="706" d="M350 -14q-126 0 -198.5 77t-72.5 195q0 148 102 251.5t257 103.5q126 0 199 -76.5t73 -195.5q0 -147 -102 -251t-258 -104zM361 65q114 0 189 77.5t75 188.5q0 88 -53 146t-145 58q-113 0 -188 -78.5t-75 -188.5q0 -88 53 -145.5t144 -57.5zM513 659q-30 0 -67.5 22.5 t-53.5 22.5q-28 0 -42 -34l-5 -13l-58 6l9 26q27 78 96 78q30 0 66.5 -22.5t53.5 -22.5q32 0 43 33l4 13l58 -5l-8 -26q-24 -78 -96 -78z" />
<glyph unicode="&#xd6;" horiz-adv-x="706" d="M312 699q0 20 17 36t37 16q17 0 29 -12.5t12 -29.5q0 -20 -17 -36t-37 -16q-17 0 -29 12.5t-12 29.5zM494 699q0 20 17 36t37 16q17 0 29 -12.5t12 -29.5q0 -20 -17 -36t-37 -16q-17 0 -29 12.5t-12 29.5zM350 -14q-126 0 -198.5 77t-72.5 195q0 148 102 251.5t257 103.5 q126 0 199 -76.5t73 -195.5q0 -147 -102 -251t-258 -104zM361 65q114 0 189 77.5t75 188.5q0 88 -53 146t-145 58q-113 0 -188 -78.5t-75 -188.5q0 -88 53 -145.5t144 -57.5z" />
<glyph unicode="&#xd7;" horiz-adv-x="515" d="M118 102l-41 47l175 154l-132 154l55 47l131 -154l176 154l41 -47l-176 -154l133 -154l-55 -47l-132 153z" />
<glyph unicode="&#xd8;" horiz-adv-x="704" d="M350 -14q-122 0 -195 73l-72 -62l-35 42l73 63q-42 66 -42 156q0 148 102 251.5t257 103.5q120 0 194 -71l63 54l35 -42l-64 -55q44 -67 44 -158q0 -147 -102 -251t-258 -104zM361 65q114 0 189 77.5t75 188.5q0 63 -27 109l-376 -323q54 -52 139 -52zM164 268 q0 -59 25 -107l376 323q-54 51 -138 51q-113 0 -188 -78.5t-75 -188.5z" />
<glyph unicode="&#xd9;" horiz-adv-x="659" d="M328 -14q-119 0 -177.5 73.5t-41.5 192.5l49 348h82l-49 -348q-12 -84 26 -135.5t122 -51.5t135.5 51.5t63.5 135.5l49 348h83l-49 -348q-17 -120 -95 -193t-198 -73zM399 638l-67 143l2 15h97l22 -143l-2 -15h-52z" />
<glyph unicode="&#xda;" horiz-adv-x="659" d="M546 781l-107 -143h-52l2 15l63 143h96zM328 -14q-119 0 -177.5 73.5t-41.5 192.5l49 348h82l-49 -348q-12 -84 26 -135.5t122 -51.5t135.5 51.5t63.5 135.5l49 348h83l-49 -348q-17 -120 -95 -193t-198 -73z" />
<glyph unicode="&#xdb;" horiz-adv-x="659" d="M514 638l-78 99l-107 -99h-52l2 15l120 143h89l80 -143l-2 -15h-52zM328 -14q-119 0 -177.5 73.5t-41.5 192.5l49 348h82l-49 -348q-12 -84 26 -135.5t122 -51.5t135.5 51.5t63.5 135.5l49 348h83l-49 -348q-17 -120 -95 -193t-198 -73z" />
<glyph unicode="&#xdc;" horiz-adv-x="659" d="M289 701q0 20 17 36t37 16q17 0 29 -12.5t12 -29.5q0 -20 -17 -36t-37 -16q-17 0 -29 12.5t-12 29.5zM471 701q0 20 17 36t37 16q17 0 29 -12.5t12 -29.5q0 -20 -17 -36t-37 -16q-17 0 -29 12.5t-12 29.5zM328 -14q-119 0 -177.5 73.5t-41.5 192.5l49 348h82l-49 -348 q-12 -84 26 -135.5t122 -51.5t135.5 51.5t63.5 135.5l49 348h83l-49 -348q-17 -120 -95 -193t-198 -73z" />
<glyph unicode="&#xdd;" horiz-adv-x="550" d="M345 346l191 254h95l-283 -370l-32 -230h-83l32 229l-178 371h96l121 -254l13 -38h4zM490 781l-107 -143h-52l2 15l63 143h96z" />
<glyph unicode="&#xde;" horiz-adv-x="603" d="M249 600l-14 -96h171q102 0 158.5 -45t56.5 -128q0 -113 -76 -175.5t-202 -62.5h-165l-13 -93h-82l84 600h82zM534 318q0 54 -37.5 82t-104.5 28h-167l-37 -260h168q84 0 131 37t47 113z" />
<glyph unicode="&#xdf;" horiz-adv-x="480" d="M281 125h-49l3 27l112 130h-168l-40 -282h-82l64 453q25 178 189 178q19 0 36.5 -3.5t25.5 -7.5l8 -3l-32 -70q-19 10 -42 10q-88 0 -102 -98l-16 -112h294l-2 -16l-135 -154q112 -15 112 -115q0 -78 -56 -122.5t-147 -44.5q-31 0 -56.5 4.5t-35.5 8.5l-9 5l26 59 q29 -13 81 -13q48 0 78 27t30 68q0 34 -23.5 52.5t-63.5 18.5z" />
<glyph unicode="&#xe0;" d="M41 90q0 53 44.5 86t126.5 33q66 0 102 -27h6l2 17q5 44 -18 66t-79 22q-27 0 -53 -6.5t-38 -13.5l-12 -7l-19 61q52 33 147 33q89 0 124.5 -43.5t25.5 -119.5l-27 -191h-58l-2 40h-6q-41 -48 -134 -48q-65 0 -98.5 27.5t-33.5 70.5zM122 99q0 -22 19.5 -36t57.5 -14 q43 0 75.5 21t32.5 41q0 22 -25.5 35.5t-67.5 13.5q-43 0 -67.5 -16.5t-24.5 -44.5zM238 419l-67 143l2 15h97l22 -143l-2 -15h-52z" />
<glyph unicode="&#xe1;" d="M41 90q0 53 44.5 86t126.5 33q66 0 102 -27h6l2 17q5 44 -18 66t-79 22q-27 0 -53 -6.5t-38 -13.5l-12 -7l-19 61q52 33 147 33q89 0 124.5 -43.5t25.5 -119.5l-27 -191h-58l-2 40h-6q-41 -48 -134 -48q-65 0 -98.5 27.5t-33.5 70.5zM122 99q0 -22 19.5 -36t57.5 -14 q43 0 75.5 21t32.5 41q0 22 -25.5 35.5t-67.5 13.5q-43 0 -67.5 -16.5t-24.5 -44.5zM396 562l-107 -143h-52l2 15l63 143h96z" />
<glyph unicode="&#xe2;" d="M41 90q0 53 44.5 86t126.5 33q66 0 102 -27h6l2 17q5 44 -18 66t-79 22q-27 0 -53 -6.5t-38 -13.5l-12 -7l-19 61q52 33 147 33q89 0 124.5 -43.5t25.5 -119.5l-27 -191h-58l-2 40h-6q-41 -48 -134 -48q-65 0 -98.5 27.5t-33.5 70.5zM122 99q0 -22 19.5 -36t57.5 -14 q43 0 75.5 21t32.5 41q0 22 -25.5 35.5t-67.5 13.5q-43 0 -67.5 -16.5t-24.5 -44.5zM359 419l-78 99l-107 -99h-52l2 15l120 143h89l80 -143l-2 -15h-52z" />
<glyph unicode="&#xe3;" d="M41 90q0 53 44.5 86t126.5 33q66 0 102 -27h6l2 17q5 44 -18 66t-79 22q-27 0 -53 -6.5t-38 -13.5l-12 -7l-19 61q52 33 147 33q89 0 124.5 -43.5t25.5 -119.5l-27 -191h-58l-2 40h-6q-41 -48 -134 -48q-65 0 -98.5 27.5t-33.5 70.5zM122 99q0 -22 19.5 -36t57.5 -14 q43 0 75.5 21t32.5 41q0 22 -25.5 35.5t-67.5 13.5q-43 0 -67.5 -16.5t-24.5 -44.5zM334 439q-30 0 -67.5 22.5t-53.5 22.5q-28 0 -42 -34l-5 -13l-58 6l9 26q27 78 96 78q30 0 66.5 -22.5t53.5 -22.5q32 0 43 33l4 13l58 -5l-8 -26q-24 -78 -96 -78z" />
<glyph unicode="&#xe4;" d="M41 90q0 53 44.5 86t126.5 33q66 0 102 -27h6l2 17q5 44 -18 66t-79 22q-27 0 -53 -6.5t-38 -13.5l-12 -7l-19 61q52 33 147 33q89 0 124.5 -43.5t25.5 -119.5l-27 -191h-58l-2 40h-6q-41 -48 -134 -48q-65 0 -98.5 27.5t-33.5 70.5zM122 99q0 -22 19.5 -36t57.5 -14 q43 0 75.5 21t32.5 41q0 22 -25.5 35.5t-67.5 13.5q-43 0 -67.5 -16.5t-24.5 -44.5zM130 478q0 20 17 36t37 16q17 0 29 -12.5t12 -29.5q0 -20 -17 -36t-37 -16q-17 0 -29 12.5t-12 29.5zM312 478q0 20 17 36t37 16q17 0 29 -12.5t12 -29.5q0 -20 -17 -36t-37 -16 q-17 0 -29 12.5t-12 29.5z" />
<glyph unicode="&#xe5;" d="M41 90q0 53 44.5 86t126.5 33q66 0 102 -27h6l2 17q5 44 -18 66t-79 22q-27 0 -53 -6.5t-38 -13.5l-12 -7l-19 61q52 33 147 33q89 0 124.5 -43.5t25.5 -119.5l-27 -191h-58l-2 40h-6q-41 -48 -134 -48q-65 0 -98.5 27.5t-33.5 70.5zM122 99q0 -22 19.5 -36t57.5 -14 q43 0 75.5 21t32.5 41q0 22 -25.5 35.5t-67.5 13.5q-43 0 -67.5 -16.5t-24.5 -44.5zM265 427q-38 0 -62 23.5t-24 59.5q0 44 33 74.5t79 30.5q37 0 60.5 -23t23.5 -59q0 -45 -32.5 -75.5t-77.5 -30.5zM322 528q0 37 -38 37q-23 0 -37.5 -14t-14.5 -36q0 -17 11 -27t29 -10 q22 0 36 14t14 36z" />
<glyph unicode="&#xe6;" horiz-adv-x="682" d="M609 83l21 -54q-53 -38 -142 -38q-93 0 -140 61q-62 -60 -165 -60q-71 0 -106.5 28t-35.5 71q0 52 43.5 85t117.5 33q81 0 111 -30h4l2 16q6 45 -16 69t-78 24q-27 0 -53.5 -6t-39.5 -12l-13 -7l-17 60q61 31 147 31q97 0 133 -55q61 55 147 55q71 0 110.5 -40.5 t39.5 -107.5l-6 -50h-275q0 -49 29 -74.5t76 -25.5q28 0 54.5 7t38.5 13zM119 98q0 -49 79 -49q44 0 77 18t33 42q0 21 -27.5 35t-66.5 14q-95 0 -95 -60zM519 291q-41 0 -71.5 -22t-42.5 -62h198q0 37 -22 60.5t-62 23.5z" />
<glyph unicode="&#xe7;" horiz-adv-x="363" d="M182 -66l-13 20l25 40q-64 8 -101.5 50.5t-37.5 104.5q0 87 63.5 146t156.5 59q33 0 60.5 -7.5t38.5 -14.5l10 -8l-32 -61q-29 23 -80 23q-55 0 -94.5 -36t-39.5 -93q0 -44 28.5 -70.5t73.5 -26.5q23 0 44.5 6t31.5 12l10 5l14 -61q-37 -27 -103 -30l-13 -22 q26 0 42.5 -14t16.5 -40q0 -35 -25 -58t-68 -23q-24 0 -42 7.5t-24 15.5l-7 7l22 32q20 -21 55 -21q45 0 45 36q0 28 -34 28q-6 0 -12 -1.5t-9 -2.5z" />
<glyph unicode="&#xe8;" horiz-adv-x="416" d="M345 85l20 -54l-16.5 -11t-45.5 -18t-74 -11q-80 0 -127 44t-47 114q0 87 61 146t150 59q70 0 109.5 -41.5t39.5 -107.5l-6 -49h-274q0 -49 28.5 -74.5t76.5 -25.5q29 0 55 7t38 15zM256 290q-40 0 -70 -21.5t-43 -59.5h194q-1 36 -22 58.5t-59 22.5zM237 419l-67 143 l2 15h97l22 -143l-2 -15h-52z" />
<glyph unicode="&#xe9;" horiz-adv-x="416" d="M402 562l-107 -143h-52l2 15l63 143h96zM345 85l20 -54l-16.5 -11t-45.5 -18t-74 -11q-80 0 -127 44t-47 114q0 87 61 146t150 59q70 0 109.5 -41.5t39.5 -107.5l-6 -49h-274q0 -49 28.5 -74.5t76.5 -25.5q29 0 55 7t38 15zM256 290q-40 0 -70 -21.5t-43 -59.5h194 q-1 36 -22 58.5t-59 22.5z" />
<glyph unicode="&#xea;" horiz-adv-x="416" d="M358 419l-78 99l-107 -99h-52l2 15l120 143h89l80 -143l-2 -15h-52zM345 85l20 -54l-16.5 -11t-45.5 -18t-74 -11q-80 0 -127 44t-47 114q0 87 61 146t150 59q70 0 109.5 -41.5t39.5 -107.5l-6 -49h-274q0 -49 28.5 -74.5t76.5 -25.5q29 0 55 7t38 15zM256 290 q-40 0 -70 -21.5t-43 -59.5h194q-1 36 -22 58.5t-59 22.5z" />
<glyph unicode="&#xeb;" horiz-adv-x="416" d="M134 478q0 20 17 36t37 16q17 0 29 -12.5t12 -29.5q0 -20 -17 -36t-37 -16q-17 0 -29 12.5t-12 29.5zM316 478q0 20 17 36t37 16q17 0 29 -12.5t12 -29.5q0 -20 -17 -36t-37 -16q-17 0 -29 12.5t-12 29.5zM345 85l20 -54l-16.5 -11t-45.5 -18t-74 -11q-80 0 -127 44 t-47 114q0 87 61 146t150 59q70 0 109.5 -41.5t39.5 -107.5l-6 -49h-274q0 -49 28.5 -74.5t76.5 -25.5q29 0 55 7t38 15zM256 290q-40 0 -70 -21.5t-43 -59.5h194q-1 36 -22 58.5t-59 22.5z" />
<glyph unicode="&#xec;" horiz-adv-x="198" d="M58 0l49 346h82l-49 -346h-82zM126 419l-67 143l2 15h97l22 -143l-2 -15h-52z" />
<glyph unicode="&#xed;" horiz-adv-x="198" d="M288 562l-107 -143h-52l2 15l63 143h96zM58 0l49 346h82l-49 -346h-82z" />
<glyph unicode="&#xee;" horiz-adv-x="198" d="M250 419l-78 99l-107 -99h-52l2 15l120 143h89l80 -143l-2 -15h-52zM58 0l49 346h82l-49 -346h-82z" />
<glyph unicode="&#xef;" horiz-adv-x="198" d="M30 478q0 20 17 36t37 16q17 0 29 -12.5t12 -29.5q0 -20 -17 -36t-37 -16q-17 0 -29 12.5t-12 29.5zM212 478q0 20 17 36t37 16q17 0 29 -12.5t12 -29.5q0 -20 -17 -36t-37 -16q-17 0 -29 12.5t-12 29.5zM58 0l49 346h82l-49 -346h-82z" />
<glyph unicode="&#xf0;" horiz-adv-x="468" d="M165 387l-19 47l113 60l-46 95l1 11h77l35 -71l106 56l21 -46l-104 -55l77 -154q34 -68 34 -123q0 -97 -64 -157t-163 -60q-81 0 -129.5 43t-48.5 115q0 87 65 145.5t164 58.5q23 0 48 -5l1 3q-13 20 -32 58l-20 40zM242 58q57 0 96 37.5t39 94.5q0 44 -29 69t-73 25 q-58 0 -97 -36.5t-39 -90.5q0 -44 28.5 -71.5t74.5 -27.5z" />
<glyph unicode="&#xf1;" horiz-adv-x="457" d="M167 199l-28 -199h-82l49 346h54l3 -49h5q47 57 134 57q72 0 107 -42t25 -113l-28 -199h-81l26 188q6 43 -14 70.5t-63 27.5q-46 0 -74.5 -27t-32.5 -60zM355 439q-30 0 -67.5 22.5t-53.5 22.5q-28 0 -42 -34l-5 -13l-58 6l9 26q27 78 96 78q30 0 66.5 -22.5t53.5 -22.5 q32 0 43 33l4 13l58 -5l-8 -26q-24 -78 -96 -78z" />
<glyph unicode="&#xf2;" horiz-adv-x="446" d="M440 194q0 -89 -64.5 -145.5t-153.5 -56.5q-73 0 -120 42.5t-47 113.5q0 90 64.5 148t153.5 58q73 0 120 -44t47 -116zM231 58q52 0 90.5 36t38.5 94q0 45 -27 72.5t-70 27.5q-52 0 -89.5 -37t-37.5 -95q0 -45 26.5 -71.5t68.5 -26.5zM261 419l-67 143l2 15h97l22 -143 l-2 -15h-52z" />
<glyph unicode="&#xf3;" horiz-adv-x="446" d="M410 562l-107 -143h-52l2 15l63 143h96zM440 194q0 -89 -64.5 -145.5t-153.5 -56.5q-73 0 -120 42.5t-47 113.5q0 90 64.5 148t153.5 58q73 0 120 -44t47 -116zM231 58q52 0 90.5 36t38.5 94q0 45 -27 72.5t-70 27.5q-52 0 -89.5 -37t-37.5 -95q0 -45 26.5 -71.5 t68.5 -26.5z" />
<glyph unicode="&#xf4;" horiz-adv-x="446" d="M374 419l-78 99l-107 -99h-52l2 15l120 143h89l80 -143l-2 -15h-52zM440 194q0 -89 -64.5 -145.5t-153.5 -56.5q-73 0 -120 42.5t-47 113.5q0 90 64.5 148t153.5 58q73 0 120 -44t47 -116zM231 58q52 0 90.5 36t38.5 94q0 45 -27 72.5t-70 27.5q-52 0 -89.5 -37 t-37.5 -95q0 -45 26.5 -71.5t68.5 -26.5z" />
<glyph unicode="&#xf5;" horiz-adv-x="446" d="M440 194q0 -89 -64.5 -145.5t-153.5 -56.5q-73 0 -120 42.5t-47 113.5q0 90 64.5 148t153.5 58q73 0 120 -44t47 -116zM231 58q52 0 90.5 36t38.5 94q0 45 -27 72.5t-70 27.5q-52 0 -89.5 -37t-37.5 -95q0 -45 26.5 -71.5t68.5 -26.5zM340 439q-30 0 -67.5 22.5 t-53.5 22.5q-28 0 -42 -34l-5 -13l-58 6l9 26q27 78 96 78q30 0 66.5 -22.5t53.5 -22.5q32 0 43 33l4 13l58 -5l-8 -26q-24 -78 -96 -78z" />
<glyph unicode="&#xf6;" horiz-adv-x="446" d="M151 478q0 20 17 36t37 16q17 0 29 -12.5t12 -29.5q0 -20 -17 -36t-37 -16q-17 0 -29 12.5t-12 29.5zM333 478q0 20 17 36t37 16q17 0 29 -12.5t12 -29.5q0 -20 -17 -36t-37 -16q-17 0 -29 12.5t-12 29.5zM440 194q0 -89 -64.5 -145.5t-153.5 -56.5q-73 0 -120 42.5 t-47 113.5q0 90 64.5 148t153.5 58q73 0 120 -44t47 -116zM231 58q52 0 90.5 36t38.5 94q0 45 -27 72.5t-70 27.5q-52 0 -89.5 -37t-37.5 -95q0 -45 26.5 -71.5t68.5 -26.5z" />
<glyph unicode="&#xf7;" horiz-adv-x="502" d="M214 135q0 25 19.5 43.5t45.5 18.5q20 0 34.5 -14.5t14.5 -35.5q0 -25 -20 -43t-45 -18q-21 0 -35 14t-14 35zM259 449q0 25 19 43.5t45 18.5q20 0 34.5 -14.5t14.5 -35.5q0 -25 -20 -43t-45 -18q-21 0 -34.5 14t-13.5 35zM91 262l10 68h394l-10 -68h-394z" />
<glyph unicode="&#xf8;" horiz-adv-x="446" d="M440 194q0 -89 -64.5 -145.5t-153.5 -56.5q-68 0 -112 35l-44 -38l-26 30l43 37q-28 37 -28 92q0 90 64.5 148t153.5 58q65 0 108 -34l49 43l26 -30l-47 -41q31 -40 31 -98zM231 58q52 0 90.5 36t38.5 94q0 30 -12 52l-181 -160q27 -22 64 -22zM136 156q0 -26 9 -47 l180 158q-26 21 -62 21q-52 0 -89.5 -37t-37.5 -95z" />
<glyph unicode="&#xf9;" horiz-adv-x="455" d="M337 147l28 199h82l-48 -346h-54l-8 48h-4q-13 -19 -46 -37.5t-86 -18.5q-72 0 -106 42t-24 113l28 199h82l-26 -188q-6 -44 12.5 -71t61.5 -27q46 0 75 27t33 60zM250 419l-67 143l2 15h97l22 -143l-2 -15h-52z" />
<glyph unicode="&#xfa;" horiz-adv-x="455" d="M414 562l-107 -143h-52l2 15l63 143h96zM337 147l28 199h82l-48 -346h-54l-8 48h-4q-13 -19 -46 -37.5t-86 -18.5q-72 0 -106 42t-24 113l28 199h82l-26 -188q-6 -44 12.5 -71t61.5 -27q46 0 75 27t33 60z" />
<glyph unicode="&#xfb;" horiz-adv-x="455" d="M375 419l-78 99l-107 -99h-52l2 15l120 143h89l80 -143l-2 -15h-52zM337 147l28 199h82l-48 -346h-54l-8 48h-4q-13 -19 -46 -37.5t-86 -18.5q-72 0 -106 42t-24 113l28 199h82l-26 -188q-6 -44 12.5 -71t61.5 -27q46 0 75 27t33 60z" />
<glyph unicode="&#xfc;" horiz-adv-x="455" d="M152 478q0 20 17 36t37 16q17 0 29 -12.5t12 -29.5q0 -20 -17 -36t-37 -16q-17 0 -29 12.5t-12 29.5zM334 478q0 20 17 36t37 16q17 0 29 -12.5t12 -29.5q0 -20 -17 -36t-37 -16q-17 0 -29 12.5t-12 29.5zM337 147l28 199h82l-48 -346h-54l-8 48h-4q-13 -19 -46 -37.5 t-86 -18.5q-72 0 -106 42t-24 113l28 199h82l-26 -188q-6 -44 12.5 -71t61.5 -27q46 0 75 27t33 60z" />
<glyph unicode="&#xfd;" horiz-adv-x="409" d="M448 346l-328 -538h-86l136 216l-110 322h89l68 -223q4 -17 3 -26h5q2 15 11 29l128 220h84zM393 562l-107 -143h-52l2 15l63 143h96z" />
<glyph unicode="&#xfe;" horiz-adv-x="468" d="M149 57h-3l-35 -249h-82l111 792h82l-43 -309h3q2 3 5 7t14.5 15t25 19t36.5 15t49 7q67 0 108 -42t41 -113q0 -89 -59 -148t-141 -59q-26 0 -47.5 6.5t-33 16t-19 19.5t-9.5 16zM157 157q0 -45 26.5 -71t68.5 -26q52 0 88.5 36.5t36.5 92.5q0 43 -25.5 70t-67.5 27 q-53 0 -90 -35.5t-37 -93.5z" />
<glyph unicode="&#xff;" horiz-adv-x="409" d="M448 346l-328 -538h-86l136 216l-110 322h89l68 -223q4 -17 3 -26h5q2 15 11 29l128 220h84zM138 478q0 20 17 36t37 16q17 0 29 -12.5t12 -29.5q0 -20 -17 -36t-37 -16q-17 0 -29 12.5t-12 29.5zM320 478q0 20 17 36t37 16q17 0 29 -12.5t12 -29.5q0 -20 -17 -36 t-37 -16q-17 0 -29 12.5t-12 29.5z" />
<glyph unicode="&#x152;" horiz-adv-x="1066" d="M348 -14q-126 0 -198.5 77t-72.5 195q0 148 102 251.5t257 103.5q143 0 218 -99l12 86h446l-10 -75h-365l-27 -192h317l-10 -73h-317l-26 -185h365l-11 -75h-446l11 77q-102 -91 -245 -91zM359 65q114 0 189 77.5t75 188.5q0 88 -53 146t-145 58q-113 0 -188 -78.5 t-75 -188.5q0 -88 53 -145.5t144 -57.5z" />
<glyph unicode="&#x153;" horiz-adv-x="718" d="M647 85l20 -54l-16.5 -11t-45.5 -18t-74 -11q-102 0 -148 67q-64 -66 -163 -66q-73 0 -120 42.5t-47 113.5q0 90 64.5 148t153.5 58q93 0 139 -67q61 67 158 67q70 0 109.5 -41.5t39.5 -107.5l-6 -49h-274q0 -49 28.5 -74.5t76.5 -25.5q29 0 55 7t38 15zM229 58 q52 0 90.5 36t38.5 94q0 45 -27 72.5t-70 27.5q-52 0 -89.5 -37t-37.5 -95q0 -45 26.5 -71.5t68.5 -26.5zM558 290q-40 0 -70 -21.5t-43 -59.5h194q-1 36 -22 58.5t-59 22.5z" />
<glyph unicode="&#x178;" horiz-adv-x="550" d="M236 700q0 20 17 36t37 16q17 0 29 -12.5t12 -29.5q0 -20 -17 -36t-37 -16q-17 0 -29 12.5t-12 29.5zM418 700q0 20 17 36t37 16q17 0 29 -12.5t12 -29.5q0 -20 -17 -36t-37 -16q-17 0 -29 12.5t-12 29.5zM345 346l191 254h95l-283 -370l-32 -230h-83l32 229l-178 371h96 l121 -254l13 -38h4z" />
<glyph unicode="&#x2c6;" horiz-adv-x="329" d="M321 419l-78 99l-107 -99h-52l2 15l120 143h89l80 -143l-2 -15h-52z" />
<glyph unicode="&#x2dc;" horiz-adv-x="430" d="M341 439q-30 0 -67.5 22.5t-53.5 22.5q-28 0 -42 -34l-5 -13l-58 6l9 26q27 78 96 78q30 0 66.5 -22.5t53.5 -22.5q32 0 43 33l4 13l58 -5l-8 -26q-24 -78 -96 -78z" />
<glyph unicode="&#x2000;" horiz-adv-x="398" />
<glyph unicode="&#x2001;" horiz-adv-x="796" />
<glyph unicode="&#x2002;" horiz-adv-x="398" />
<glyph unicode="&#x2003;" horiz-adv-x="796" />
<glyph unicode="&#x2004;" horiz-adv-x="265" />
<glyph unicode="&#x2005;" horiz-adv-x="199" />
<glyph unicode="&#x2006;" horiz-adv-x="132" />
<glyph unicode="&#x2007;" horiz-adv-x="132" />
<glyph unicode="&#x2008;" horiz-adv-x="99" />
<glyph unicode="&#x2009;" horiz-adv-x="159" />
<glyph unicode="&#x200a;" horiz-adv-x="44" />
<glyph unicode="&#x2010;" horiz-adv-x="389" d="M87 259l10 68h287l-10 -68h-287z" />
<glyph unicode="&#x2011;" horiz-adv-x="389" d="M87 259l10 68h287l-10 -68h-287z" />
<glyph unicode="&#x2012;" horiz-adv-x="389" d="M87 259l10 68h287l-10 -68h-287z" />
<glyph unicode="&#x2013;" horiz-adv-x="458" d="M87 254l10 68h356l-10 -68h-356z" />
<glyph unicode="&#x2014;" horiz-adv-x="721" d="M87 254l10 68h619l-10 -68h-619z" />
<glyph unicode="&#x2018;" horiz-adv-x="190" d="M216 528q0 -25 -17.5 -42.5t-42.5 -17.5q-20 0 -33.5 13.5t-13.5 33.5q0 32 29 75l50 71h56l-45 -64l-19 -20v-4q16 -2 26 -14.5t10 -30.5z" />
<glyph unicode="&#x2019;" horiz-adv-x="190" d="M135 600q0 25 17.5 42.5t42.5 17.5q20 0 33.5 -13.5t13.5 -33.5q0 -32 -29 -75l-50 -71h-56l45 64l19 20v4q-16 2 -26 14.5t-10 30.5z" />
<glyph unicode="&#x201a;" horiz-adv-x="156" d="M31 38q0 25 17.5 42.5t42.5 17.5q20 0 33.5 -13.5t13.5 -33.5q0 -32 -29 -75l-50 -71h-56l45 64l19 20v4q-16 2 -26 14.5t-10 30.5z" />
<glyph unicode="&#x201c;" horiz-adv-x="374" d="M216 528q0 -25 -17.5 -42.5t-42.5 -17.5q-20 0 -33.5 13.5t-13.5 33.5q0 32 29 75l50 71h56l-45 -64l-19 -20v-4q16 -2 26 -14.5t10 -30.5zM400 528q0 -25 -17.5 -42.5t-42.5 -17.5q-20 0 -33.5 13.5t-13.5 33.5q0 32 29 75l50 71h56l-45 -64l-19 -20v-4q16 -2 26 -14.5 t10 -30.5z" />
<glyph unicode="&#x201d;" horiz-adv-x="365" d="M131 600q0 25 17.5 42.5t42.5 17.5q20 0 33.5 -13.5t13.5 -33.5q0 -32 -29 -75l-50 -71h-56l45 64l19 20v4q-16 2 -26 14.5t-10 30.5zM306 600q0 25 17.5 42.5t42.5 17.5q20 0 33.5 -13.5t13.5 -33.5q0 -32 -29 -75l-50 -71h-56l45 64l19 20v4q-16 2 -26 14.5t-10 30.5z " />
<glyph unicode="&#x201e;" horiz-adv-x="383" d="M31 38q0 25 17.5 42.5t42.5 17.5q20 0 33.5 -13.5t13.5 -33.5q0 -32 -29 -75l-50 -71h-56l45 64l19 20v4q-16 2 -26 14.5t-10 30.5zM258 38q0 25 17.5 42.5t42.5 17.5q20 0 33.5 -13.5t13.5 -33.5q0 -32 -29 -75l-50 -71h-56l45 64l19 20v4q-16 2 -26 14.5t-10 30.5z" />
<glyph unicode="&#x2022;" horiz-adv-x="303" d="M98 164q0 35 26.5 61t62.5 26q28 0 47.5 -20.5t19.5 -48.5q0 -35 -27 -60.5t-62 -25.5q-30 0 -48.5 19.5t-18.5 48.5z" />
<glyph unicode="&#x2026;" horiz-adv-x="529" d="M31 41q0 25 19.5 44t45.5 19q21 0 34.5 -14.5t13.5 -35.5q0 -25 -19 -44t-45 -19q-21 0 -35 14.5t-14 35.5zM214 41q0 26 19.5 44.5t45.5 18.5q21 0 34.5 -14t13.5 -35q0 -26 -19 -45t-45 -19q-21 0 -35 14.5t-14 35.5zM398 41q0 25 19 44t45 19q21 0 35 -14.5t14 -35.5 q0 -25 -19.5 -44t-45.5 -19q-21 0 -34.5 14.5t-13.5 35.5z" />
<glyph unicode="&#x202f;" horiz-adv-x="159" />
<glyph unicode="&#x2039;" horiz-adv-x="249" d="M59 162l3 19l127 155h70l-1 -8l-125 -153l-1 -5l82 -155l-1 -8h-70z" />
<glyph unicode="&#x203a;" horiz-adv-x="249" d="M238 181l-2 -19l-128 -155h-70l1 8l125 155l1 5l-82 153l1 8h70z" />
<glyph unicode="&#x205f;" horiz-adv-x="199" />
<glyph unicode="&#x20ac;" horiz-adv-x="596" d="M454 259l-9 -63h-210q25 -125 155 -125q36 0 69.5 13.5t48.5 27.5l16 13l39 -62q-3 -3 -8 -7.5t-22.5 -17t-37.5 -22t-51.5 -17t-65.5 -7.5q-105 0 -163 56t-69 148h-78l9 63h67q4 51 11 79h-67l9 63h77q37 94 111.5 151t179.5 57q34 0 63.5 -7.5t47.5 -17.5t31 -20.5 t19 -17.5l5 -8l-58 -63q-4 6 -12.5 15t-39 24t-66.5 15q-132 0 -193 -128h212l-9 -63h-224q-7 -33 -11 -79h224z" />
<glyph unicode="&#x2122;" horiz-adv-x="739" d="M446 281h-56l45 319h16l123 -134l163 134h16l-45 -319h-56l30 213l-110 -92h-13l-83 92zM374 600l-7 -49h-99l-38 -270h-56l38 270h-100l7 49h255z" />
<glyph unicode="&#x25fc;" horiz-adv-x="345" d="M0 345h345v-345h-345v345z" />
<glyph unicode="&#xfb01;" horiz-adv-x="547" d="M516 478q-19 0 -31 12.5t-12 31.5q0 23 17 40t40 17q19 0 32 -13t13 -32q0 -23 -17.5 -39.5t-41.5 -16.5zM408 0l49 346h82l-49 -346h-82zM340 282h-122l-39 -282h-81l39 282h-80l9 64h80l21 147q12 87 57.5 130t116.5 43q21 0 39.5 -4.5t26 -8t9.5 -5.5l-30 -70 q-23 12 -45 12q-80 0 -93 -97l-21 -147h122z" />
<glyph unicode="&#xfb02;" horiz-adv-x="540" d="M399 0l94 668h82l-94 -668h-82zM340 282h-122l-39 -282h-81l39 282h-80l9 64h80l21 147q12 87 57.5 130t116.5 43q21 0 39.5 -4.5t26 -8t9.5 -5.5l-30 -70q-23 12 -45 12q-80 0 -93 -97l-21 -147h122z" />
<glyph unicode="&#xfb03;" horiz-adv-x="885" d="M853 478q-19 0 -31 12.5t-12 31.5q0 23 17 40t40 17q19 0 32 -13t13 -32q0 -23 -17.5 -39.5t-41.5 -16.5zM745 0l49 346h82l-49 -346h-82zM340 282h-122l-39 -282h-81l39 282h-80l9 64h80l21 147q12 87 57.5 130t116.5 43q21 0 39.5 -4.5t26 -8t9.5 -5.5l-30 -70 q-23 12 -45 12q-80 0 -93 -97l-21 -147h122zM686 282h-122l-39 -282h-81l39 282h-80l9 64h80l21 147q12 87 57.5 130t116.5 43q21 0 39.5 -4.5t26 -8t9.5 -5.5l-30 -70q-23 12 -45 12q-80 0 -93 -97l-21 -147h122z" />
<glyph unicode="&#xfb04;" horiz-adv-x="878" d="M737 0l94 668h82l-94 -668h-82zM340 282h-122l-39 -282h-81l39 282h-80l9 64h80l21 147q12 87 57.5 130t116.5 43q21 0 39.5 -4.5t26 -8t9.5 -5.5l-30 -70q-23 12 -45 12q-80 0 -93 -97l-21 -147h122zM686 282h-122l-39 -282h-81l39 282h-80l9 64h80l21 147 q12 87 57.5 130t116.5 43q21 0 39.5 -4.5t26 -8t9.5 -5.5l-30 -70q-23 12 -45 12q-80 0 -93 -97l-21 -147h122z" />
</font>
</defs>
</svg>
