<?xml version="1.0" encoding="UTF-8"?>
<svg xmlns="http://www.w3.org/2000/svg" xmlns:xlink="http://www.w3.org/1999/xlink" version="1.2" >
<font id="Betm ExtraLight Italic">
<font-face  font-family="Betm" units-per-em="1000" ascent="750" descent="-250" font-style="italic" font-weight="200" font-stretch="normal" cap-height="568" x-height="405" underline-position="-91" underline-thickness="35" />
<missing-glyph  horiz-adv-x="613" d="M565 0 L565 630 L59 630 L59 0 L565 0 Z M86 26 L86 37 L88 34 L90 48 C101 46 106 39 106 26 L86 26 Z M538 601 L538 593 L536 595 L536 583 C524 583 518 589 518 601 L530 601 L528 603 L536 603 L536 601 L538 601 Z M536 27 L528 27 L529 28 L518 28 C518 39 523 46 534 48 L535 34 L538 37 L538 28 L536 28 L536 27 Z M88 603 L96 603 L93 600 L106 599 C103 588 100 583 88 583 L88 595 L86 593 L86 601 L88 601 L88 603 Z M86 603 L538 603 L538 27 L86 27 L86 603 Z " />
<glyph glyph-name="space" unicode="&#x20;" horiz-adv-x="199" d="" />
<glyph glyph-name="exclam" unicode="&#x21;" horiz-adv-x="193" d="M81 10 C80 2 86 -6 94 -6 C103 -6 113 2 114 10 C117 19 109 27 100 27 C92 27 84 19 81 10 L81 10 Z M118 72 L138 155 L215 590 L185 590 L108 155 L98 72 L118 72 Z " />
<glyph glyph-name="quotedbl" unicode="&#x22;" horiz-adv-x="280" d="M169 478 L189 478 L214 590 L184 590 L169 478 Z M259 478 L279 478 L304 590 L274 590 L259 478 Z " />
<glyph glyph-name="numbersign" unicode="&#x23;" horiz-adv-x="882" d="M879 438 L884 466 L743 466 L813 590 L779 590 C756 550 732 506 711 466 L445 466 L514 590 L481 590 L412 466 L248 466 L243 438 L397 438 L240 158 L107 158 L102 130 L224 130 L153 0 L186 0 L257 130 L523 130 L451 0 L483 0 L555 130 L731 130 L736 158 L570 158 L727 438 L879 438 Z M538 158 L272 158 L429 438 L695 438 L538 158 Z " />
<glyph glyph-name="dollar" unicode="&#x24;" horiz-adv-x="595" d="M540 142 C568 307 168 307 192 451 C211 567 335 567 405 567 C428 567 464 563 495 559 C512 556 531 554 550 552 L554 578 C518 590 463 595 416 595 L444 749 L414 749 L386 595 C280 592 178 566 159 451 C127 275 533 287 505 140 C489 45 389 22 298 22 C223 22 158 38 115 51 L111 23 C146 8 207 -3 280 -6 L258 -134 L288 -134 L310 -6 C428 -3 522 43 540 142 L540 142 Z " />
<glyph glyph-name="percent" unicode="&#x25;" horiz-adv-x="691" d="M218 0 L249 0 C360 203 466 387 579 590 L546 590 L218 0 Z M170 514 C161 460 181 433 231 433 C281 433 311 460 320 514 C329 568 309 595 259 595 C209 595 179 568 170 514 L170 514 Z M292 514 C285 477 271 459 235 459 C198 459 190 477 197 514 C204 551 218 569 255 569 C291 569 299 551 292 514 L292 514 Z M474 75 C464 21 484 -6 534 -6 C584 -6 614 21 624 75 C633 129 613 156 563 156 C513 156 483 129 474 75 L474 75 Z M596 75 C589 38 575 20 539 20 C502 20 494 38 501 75 C508 112 521 130 558 130 C594 130 603 112 596 75 L596 75 Z " />
<glyph glyph-name="ampersand" unicode="&#x26;" horiz-adv-x="642" d="M411 562 L420 590 L403 590 C324 590 213 567 191 443 C183 409 178 345 238 300 C134 268 114 204 106 152 C90 59 138 -6 287 -6 L303 -6 C448 -6 513 69 529 157 L552 285 L612 285 L617 313 L557 313 L572 397 L542 397 L527 313 L362 313 C302 313 197 314 221 443 C239 546 330 562 398 562 L411 562 Z M288 22 C234 22 115 23 136 151 C155 250 238 285 321 285 L522 285 L500 160 C479 35 372 22 309 22 L288 22 Z " />
<glyph glyph-name="quotesingle" unicode="&#x27;" horiz-adv-x="190" d="M169 478 L189 478 L214 590 L184 590 L169 478 Z " />
<glyph glyph-name="parenleft" unicode="&#x28;" horiz-adv-x="291" d="M126 263 C99 110 107 -47 144 -204 L174 -204 C137 -40 129 111 156 264 C184 420 243 560 338 724 L307 724 C215 564 154 420 126 263 L126 263 Z " />
<glyph glyph-name="parenright" unicode="&#x29;" horiz-adv-x="291" d="M257 263 C285 420 274 564 238 724 L207 724 C243 560 255 420 227 264 C200 111 138 -40 45 -204 L75 -204 C167 -47 230 110 257 263 L257 263 Z " />
<glyph glyph-name="asterisk" unicode="&#x2a;" horiz-adv-x="458" d="M317 590 L294 428 L178 489 L161 460 L288 404 L184 299 L205 282 L296 383 L351 282 L378 299 L312 404 L459 460 L452 489 L314 428 L349 590 L317 590 Z " />
<glyph glyph-name="plus" unicode="&#x2b;" horiz-adv-x="454" d="M302 344 L272 344 L250 216 L118 216 L113 188 L245 188 L222 61 L252 61 L275 188 L407 188 L412 216 L280 216 L302 344 Z " />
<glyph glyph-name="comma" unicode="&#x2c;" horiz-adv-x="99" d="M82 22 L49 22 L4 -86 L29 -86 L82 22 Z " />
<glyph glyph-name="hyphen" unicode="&#x2d;" horiz-adv-x="444" d="M397 188 L402 216 L118 216 L113 188 L397 188 Z " />
<glyph glyph-name="period" unicode="&#x2e;" horiz-adv-x="193" d="M78 -6 L111 -6 L119 35 L86 35 L78 -6 Z " />
<glyph glyph-name="slash" unicode="&#x2f;" horiz-adv-x="545" d="M44 -204 L75 -204 L592 724 L560 724 L44 -204 Z " />
<glyph glyph-name="zero" unicode="0" horiz-adv-x="614" d="M310 22 C205 22 116 90 153 306 C184 477 269 567 406 567 C543 567 598 477 567 306 C530 90 413 22 310 22 L310 22 Z M305 -6 C406 -6 553 51 598 309 C636 523 535 595 411 595 C287 595 162 523 124 309 C79 51 203 -6 305 -6 L305 -6 Z " />
<glyph glyph-name="one" unicode="1" horiz-adv-x="339" d="M124 478 L327 557 L229 0 L259 0 L363 590 L332 590 L130 511 L124 478 Z " />
<glyph glyph-name="two" unicode="2" horiz-adv-x="518" d="M65 0 L448 0 L452 28 L101 28 C141 253 497 260 529 433 C553 564 451 595 348 595 C271 595 234 587 197 574 L192 549 C235 560 291 567 342 567 C430 567 519 539 500 439 C474 290 111 269 71 37 L65 0 Z " />
<glyph glyph-name="three" unicode="3" horiz-adv-x="527" d="M264 314 C260 306 258 297 253 286 L328 286 C392 286 479 264 460 160 C436 39 289 22 235 22 C196 22 158 26 127 33 C110 36 93 40 77 45 L73 18 C105 6 163 -6 238 -6 C384 -6 473 65 489 154 C500 218 485 277 404 301 C483 333 502 414 507 447 C528 571 409 595 336 595 C252 595 203 584 171 573 L166 546 C209 557 279 567 326 567 C387 567 493 544 477 443 C453 314 363 314 300 314 L264 314 Z " />
<glyph glyph-name="four" unicode="4" horiz-adv-x="553" d="M380 0 L410 0 L443 191 L536 191 L541 219 L448 219 L514 590 L464 590 L90 232 L83 191 L413 191 L380 0 Z M116 219 L479 567 L418 219 L116 219 Z " />
<glyph glyph-name="five" unicode="5" horiz-adv-x="529" d="M333 344 C310 344 256 344 160 312 L204 562 L518 562 L523 590 L179 590 L126 292 L159 282 C236 314 302 316 333 316 C427 316 490 263 474 174 C453 54 376 22 275 22 C227 22 151 24 130 100 L100 100 C113 7 209 -6 266 -6 L274 -6 C340 -6 473 5 505 176 C529 314 413 344 333 344 L333 344 Z " />
<glyph glyph-name="six" unicode="6" horiz-adv-x="537" d="M346 345 C326 345 221 343 144 255 L159 338 C191 522 261 567 412 567 C429 567 455 565 478 562 C491 560 504 558 519 557 L523 583 C492 590 446 595 397 595 C253 595 161 525 129 338 L99 167 C73 19 203 -6 269 -6 L282 -6 C348 -6 484 19 511 169 C535 294 444 345 346 345 L346 345 Z M279 22 C225 22 105 35 129 166 C148 275 277 318 332 318 C395 318 505 299 481 168 C457 35 336 22 279 22 L279 22 Z " />
<glyph glyph-name="seven" unicode="7" horiz-adv-x="469" d="M154 562 L496 562 L154 0 L187 0 C300 188 411 373 527 561 L533 590 L159 590 L154 562 Z " />
<glyph glyph-name="eight" unicode="8" horiz-adv-x="570" d="M339 311 C275 311 180 314 201 442 C222 557 323 567 384 567 C445 567 544 557 523 442 C502 314 402 311 339 311 L339 311 Z M288 22 C236 22 111 39 132 155 C153 283 281 285 335 285 C389 285 513 283 492 155 C471 39 339 22 288 22 L288 22 Z M283 -6 C347 -6 498 16 522 157 C530 203 523 261 445 299 C521 334 545 401 553 442 C577 578 459 595 389 595 C320 595 195 578 171 442 C163 402 166 333 229 299 C138 262 110 202 102 157 C78 16 217 -6 283 -6 L283 -6 Z " />
<glyph glyph-name="nine" unicode="9" horiz-adv-x="537" d="M294 244 C315 244 418 247 495 334 L481 251 C449 67 378 22 227 22 C210 22 184 24 161 27 C148 28 135 30 121 32 L117 6 C148 -1 193 -6 242 -6 C386 -6 479 64 511 251 L541 422 C568 569 436 595 370 595 L357 595 C292 595 156 569 129 420 C105 295 196 244 294 244 L294 244 Z M360 567 C413 567 535 554 511 423 C492 314 363 271 308 271 C243 271 135 290 159 421 C183 552 303 567 360 567 L360 567 Z " />
<glyph glyph-name="colon" unicode="&#x3a;" horiz-adv-x="193" d="M78 -6 L111 -6 L119 35 L86 35 L78 -6 Z M134 308 L167 308 L174 349 L141 349 L134 308 Z " />
<glyph glyph-name="semicolon" unicode="&#x3b;" horiz-adv-x="219" d="M160 308 L193 308 L200 349 L167 349 L160 308 Z M142 22 L109 22 L64 -86 L89 -86 L142 22 Z " />
<glyph glyph-name="less" unicode="&#x3c;" horiz-adv-x="446" d="M366 0 L371 34 L132 167 L418 300 L424 334 L113 190 L105 144 L366 0 Z " />
<glyph glyph-name="equal" unicode="&#x3d;" horiz-adv-x="407" d="M368 233 L373 261 L126 261 L121 233 L368 233 Z M338 63 L343 91 L96 91 L91 63 L338 63 Z " />
<glyph glyph-name="greater" unicode="&#x3e;" horiz-adv-x="446" d="M391 144 L399 190 L138 334 L132 300 L372 167 L85 34 L80 0 L391 144 Z " />
<glyph glyph-name="question" unicode="&#x3f;" horiz-adv-x="516" d="M215 114 L245 114 L270 260 C462 305 503 388 514 447 C538 577 413 595 335 595 C256 595 211 585 180 570 L175 543 C226 560 279 567 330 567 C385 567 506 567 484 443 C471 366 401 320 244 280 L215 114 Z M195 10 C194 2 200 -6 208 -6 C217 -6 227 2 228 10 C231 19 223 27 214 27 C206 27 198 19 195 10 L195 10 Z " />
<glyph glyph-name="at" unicode="&#x40;" horiz-adv-x="726" d="M672 322 C626 411 536 411 521 411 C420 411 314 350 290 209 C261 43 348 -6 424 -6 C451 -6 526 -6 630 82 L616 0 L646 0 L711 369 C751 604 609 657 477 657 C346 657 185 604 145 369 L88 47 C56 -126 156 -185 272 -198 L277 -170 C177 -154 90 -110 120 57 L174 368 C214 589 360 629 472 629 C582 629 720 589 680 368 L672 322 Z M638 125 C620 106 600 88 579 73 C543 46 493 22 438 22 C405 22 288 22 320 209 C347 368 474 383 519 383 C575 383 610 354 633 326 C646 309 656 291 663 270 L638 125 Z " />
<glyph glyph-name="A" unicode="A" horiz-adv-x="606" d="M430 590 L384 590 L40 0 L73 0 L160 153 L498 153 L533 0 L566 0 L430 590 Z M177 181 L402 567 L491 181 L177 181 Z " />
<glyph glyph-name="B" unicode="B" horiz-adv-x="569" d="M165 313 L209 562 L391 562 C455 562 543 547 524 443 C500 314 410 313 347 313 L165 313 Z M114 28 L160 285 L375 285 C441 285 526 264 507 160 C486 35 392 28 329 28 L114 28 Z M324 0 C465 0 521 79 534 147 C545 201 539 275 449 302 C534 339 549 415 554 447 C575 570 484 590 406 590 L184 590 L80 0 L324 0 Z " />
<glyph glyph-name="C" unicode="C" horiz-adv-x="553" d="M449 567 C493 567 541 560 584 539 L601 561 C558 586 506 595 455 595 C308 595 148 530 108 305 C60 31 243 -6 350 -6 C397 -6 457 7 508 32 L498 56 C450 33 396 22 348 22 C233 22 97 73 137 305 C177 523 324 567 449 567 L449 567 Z " />
<glyph glyph-name="D" unicode="D" horiz-adv-x="610" d="M599 309 C636 521 506 590 371 590 L184 590 L80 0 L274 0 C381 0 554 48 599 309 L599 309 Z M114 28 L209 562 L363 562 C487 562 603 502 568 306 C523 54 356 28 254 28 L114 28 Z " />
<glyph glyph-name="E" unicode="E" horiz-adv-x="525" d="M554 562 L559 590 L184 590 L80 0 L455 0 L459 28 L114 28 L160 285 L442 285 L447 313 L165 313 L209 562 L554 562 Z " />
<glyph glyph-name="F" unicode="F" horiz-adv-x="520" d="M110 0 L160 285 L442 285 L447 313 L165 313 L209 562 L554 562 L559 590 L184 590 L80 0 L110 0 Z " />
<glyph glyph-name="G" unicode="G" horiz-adv-x="628" d="M466 274 L461 246 L561 246 L529 67 C467 35 392 22 348 22 C233 22 97 73 137 305 C177 523 324 567 449 567 C493 567 541 560 584 539 L601 561 C558 586 506 595 455 595 C308 595 148 530 108 305 C60 30 243 -6 350 -6 C398 -6 493 5 557 56 L596 274 L466 274 Z " />
<glyph glyph-name="H" unicode="H" horiz-adv-x="626" d="M620 590 L568 296 L162 296 L214 590 L184 590 L80 0 L110 0 L157 268 L563 268 L516 0 L546 0 L650 590 L620 590 Z " />
<glyph glyph-name="I" unicode="I" horiz-adv-x="190" d="M80 0 L110 0 L214 590 L184 590 L80 0 Z " />
<glyph glyph-name="J" unicode="J" horiz-adv-x="466" d="M390 194 C361 34 228 22 175 22 C147 22 97 22 50 37 L37 13 C77 -6 139 -6 173 -6 C244 -3 387 15 419 192 L490 590 L460 590 L390 194 Z " />
<glyph glyph-name="K" unicode="K" horiz-adv-x="548" d="M192 297 L624 590 L575 590 L164 310 L214 590 L184 590 L80 0 L110 0 L159 279 L479 0 L528 0 L192 297 Z " />
<glyph glyph-name="L" unicode="L" horiz-adv-x="485" d="M214 590 L184 590 L80 0 L430 0 L434 28 L114 28 L214 590 Z " />
<glyph glyph-name="M" unicode="M" horiz-adv-x="710" d="M400 146 L689 510 L600 0 L630 0 L734 590 L719 590 L384 170 L199 590 L184 590 L80 0 L110 0 L199 510 L360 146 L400 146 Z " />
<glyph glyph-name="N" unicode="N" horiz-adv-x="632" d="M508 0 L552 0 L656 590 L627 590 L528 30 L229 590 L184 590 L80 0 L110 0 L208 561 L508 0 Z " />
<glyph glyph-name="O" unicode="O" horiz-adv-x="686" d="M346 22 C253 22 108 73 148 306 C185 511 334 567 442 567 C550 567 681 511 644 306 C604 72 438 22 346 22 L346 22 Z M341 -6 C448 -6 630 51 675 309 C712 520 573 595 447 595 C321 595 156 520 119 309 C74 51 232 -6 341 -6 L341 -6 Z " />
<glyph glyph-name="P" unicode="P" horiz-adv-x="556" d="M75 0 L105 0 L142 214 L375 214 C464 214 554 253 583 409 C607 540 534 590 443 590 L179 590 L75 0 Z M436 562 C505 562 574 537 553 409 C526 262 446 242 379 242 L147 242 L204 562 L436 562 Z " />
<glyph glyph-name="Q" unicode="Q" horiz-adv-x="686" d="M675 309 C712 520 573 595 447 595 C321 595 156 520 119 309 C84 117 165 36 253 7 L364 -189 L401 -189 L297 -3 C312 -5 326 -6 341 -6 C448 -6 630 51 675 309 L675 309 Z M148 306 C185 511 334 567 442 567 C550 567 681 511 644 306 C604 72 438 22 346 22 C253 22 108 73 148 306 L148 306 Z " />
<glyph glyph-name="R" unicode="R" horiz-adv-x="566" d="M587 418 C611 547 551 590 445 590 L184 590 L80 0 L110 0 L150 230 L329 230 C396 230 439 194 458 90 L475 0 L507 0 L497 52 C484 116 471 206 423 233 C555 241 579 373 587 418 L587 418 Z M155 258 L209 562 L437 562 C507 562 581 549 557 417 C530 262 451 258 383 258 L155 258 Z " />
<glyph glyph-name="S" unicode="S" horiz-adv-x="545" d="M384 595 C269 595 155 573 134 451 C103 275 506 287 480 140 C464 45 364 22 273 22 C198 22 133 38 90 51 L86 23 C125 7 191 -6 272 -6 C395 -6 496 38 515 142 C543 307 143 307 167 451 C186 567 310 567 380 567 C403 567 439 563 470 559 C487 556 506 554 525 552 L529 578 C490 591 431 595 384 595 L384 595 Z " />
<glyph glyph-name="T" unicode="T" horiz-adv-x="540" d="M154 562 L354 562 L255 0 L285 0 L384 562 L584 562 L589 590 L159 590 L154 562 Z " />
<glyph glyph-name="U" unicode="U" horiz-adv-x="632" d="M314 -6 C421 -6 557 34 600 275 L656 590 L626 590 L570 277 C535 74 425 22 319 22 C212 22 123 74 158 277 L214 590 L184 590 L128 275 C85 34 209 -6 314 -6 L314 -6 Z " />
<glyph glyph-name="V" unicode="V" horiz-adv-x="606" d="M177 590 L144 590 L280 0 L326 0 L670 590 L637 590 L307 23 L177 590 Z " />
<glyph glyph-name="W" unicode="W" horiz-adv-x="851" d="M551 590 L509 590 L213 33 L179 590 L149 590 L184 0 L230 0 C325 179 429 380 524 559 C556 380 589 179 621 0 L667 0 L910 590 L880 590 L648 33 L551 590 Z " />
<glyph glyph-name="X" unicode="X" horiz-adv-x="556" d="M325 271 L484 0 L521 0 L352 290 L625 590 L588 590 L332 307 L176 590 L139 590 L306 290 L35 0 L72 0 L325 271 Z " />
<glyph glyph-name="Y" unicode="Y" horiz-adv-x="542" d="M311 231 L173 590 L139 590 L291 199 L256 0 L286 0 L321 199 L611 590 L577 590 L311 231 Z " />
<glyph glyph-name="Z" unicode="Z" horiz-adv-x="526" d="M161 562 L531 562 L66 39 L60 0 L466 0 L470 28 L92 28 L564 557 L570 590 L166 590 L161 562 Z " />
<glyph glyph-name="bracketleft" unicode="&#x5b;" horiz-adv-x="324" d="M232 696 L366 696 L371 724 L207 724 L44 -204 L208 -204 L212 -176 L78 -176 L232 696 Z " />
<glyph glyph-name="backslash" unicode="&#x5c;" horiz-adv-x="545" d="M239 724 L207 724 L398 -204 L429 -204 L239 724 Z " />
<glyph glyph-name="bracketright" unicode="&#x5d;" horiz-adv-x="324" d="M182 -176 L48 -176 L44 -204 L208 -204 L371 724 L207 724 L202 696 L336 696 L182 -176 Z " />
<glyph glyph-name="asciicircum" unicode="&#x5e;" horiz-adv-x="408" d="M291 590 L155 427 L191 427 L302 561 L367 427 L403 427 L325 590 L291 590 Z " />
<glyph glyph-name="underscore" unicode="&#x5f;" horiz-adv-x="444" d="M358 -34 L362 -6 L78 -6 L74 -34 L358 -34 Z " />
<glyph glyph-name="grave" unicode="&#x60;" horiz-adv-x="225" d="M203 491 L231 491 L221 590 L184 590 L203 491 Z " />
<glyph glyph-name="a" unicode="a" horiz-adv-x="489" d="M458 251 C472 358 413 411 280 411 C229 411 201 402 170 395 L165 366 C196 374 248 383 271 383 C402 383 440 327 427 248 L414 173 C360 222 281 228 248 228 C138 228 86 177 75 116 C54 1 160 -6 191 -6 C217 -6 310 -7 392 54 L383 0 L414 0 L458 251 Z M398 85 C380 73 361 62 341 53 C306 37 260 22 212 22 C118 22 96 59 104 113 C114 165 143 201 247 201 C295 201 336 186 364 171 C381 162 396 153 409 142 L398 85 Z " />
<glyph glyph-name="b" unicode="b" horiz-adv-x="527" d="M75 0 L105 0 L119 82 C191 -6 265 -6 293 -6 C371 -6 474 43 503 209 C527 350 445 411 344 411 C331 411 237 411 161 322 L209 590 L179 590 L75 0 Z M152 270 C167 291 183 309 202 326 C234 354 279 383 336 383 C382 383 500 368 473 209 C441 22 320 22 289 22 C233 22 194 46 167 73 C151 88 138 106 127 125 L152 270 Z " />
<glyph glyph-name="c" unicode="c" horiz-adv-x="431" d="M381 42 C330 25 293 22 264 22 C204 22 95 57 121 208 C145 347 268 383 323 383 C346 383 396 380 439 364 L454 387 C403 411 354 411 329 411 C244 411 115 351 91 207 C62 39 179 -3 251 -6 C290 -6 338 -5 389 18 L381 42 Z " />
<glyph glyph-name="d" unicode="d" horiz-adv-x="527" d="M556 590 L526 590 L478 322 C432 411 342 411 327 411 C226 411 120 350 96 209 C67 43 154 -6 230 -6 C257 -6 332 -6 436 82 L422 0 L452 0 L556 590 Z M444 125 C426 106 406 88 385 73 C349 46 299 22 244 22 C211 22 94 22 126 209 C153 368 280 383 325 383 C381 383 416 354 439 326 C452 309 462 291 469 270 L444 125 Z " />
<glyph glyph-name="e" unicode="e" horiz-adv-x="491" d="M466 231 C485 332 433 411 316 411 C181 411 114 317 95 202 C74 86 122 -6 260 -6 C320 -6 363 -1 396 6 L400 32 C358 24 332 22 276 22 C153 22 112 82 123 195 L460 195 L466 231 Z M129 223 C153 340 233 383 310 383 C379 383 454 351 435 223 L129 223 Z " />
<glyph glyph-name="f" unicode="f" horiz-adv-x="381" d="M439 589 C428 593 415 595 382 595 C285 595 232 540 209 415 L207 405 L111 405 L106 377 L202 377 L136 0 L166 0 L232 377 L401 377 L406 405 L237 405 L240 420 C259 533 309 566 389 566 C408 566 420 567 435 564 L439 589 Z " />
<glyph glyph-name="g" unicode="g" horiz-adv-x="532" d="M449 125 C431 106 411 88 390 73 C354 46 304 22 249 22 C216 22 99 22 131 209 C158 368 285 383 330 383 C386 383 421 354 444 326 C457 309 467 291 474 270 L449 125 Z M425 -8 C397 -169 256 -170 214 -170 C187 -170 140 -165 97 -152 L82 -176 C117 -193 162 -198 214 -198 C287 -198 426 -173 455 -8 L528 405 L498 405 L483 322 C437 411 347 411 332 411 C231 411 125 350 101 209 C72 43 159 -6 235 -6 C262 -6 337 -6 441 82 L425 -8 Z " />
<glyph glyph-name="h" unicode="h" horiz-adv-x="509" d="M105 0 L152 269 C171 290 191 309 213 326 C250 354 299 383 350 383 C406 383 470 357 454 260 L409 0 L439 0 L485 266 C501 357 445 411 361 411 C333 411 258 412 159 310 L209 590 L179 590 L75 0 L105 0 Z " />
<glyph glyph-name="i" unicode="i" horiz-adv-x="190" d="M80 0 L110 0 L181 405 L151 405 L80 0 Z M162 470 L192 470 L202 526 L172 526 L162 470 Z " />
<glyph glyph-name="j" unicode="j" horiz-adv-x="190" d="M181 405 L151 405 L76 -22 C57 -124 34 -169 -71 -169 C-82 -169 -95 -169 -106 -168 C-113 -168 -119 -168 -126 -167 L-131 -194 C-118 -197 -93 -198 -57 -198 C56 -198 89 -120 105 -27 L181 405 Z M162 470 L192 470 L202 526 L172 526 L162 470 Z " />
<glyph glyph-name="k" unicode="k" horiz-adv-x="427" d="M209 590 L179 590 L75 0 L105 0 L144 222 L363 0 L409 0 L180 230 L454 405 L402 405 L147 242 L209 590 Z " />
<glyph glyph-name="l" unicode="l" horiz-adv-x="227" d="M214 590 L184 590 L95 86 C79 4 112 -6 165 -6 L170 22 C132 22 114 27 124 84 L214 590 Z " />
<glyph glyph-name="m" unicode="m" horiz-adv-x="742" d="M146 405 L75 0 L105 0 L142 213 C145 234 186 383 306 383 C357 383 419 357 403 260 L358 0 L388 0 L428 232 C438 287 492 383 587 383 C640 383 705 368 686 251 L642 0 L672 0 L717 260 C734 357 695 411 595 411 C571 411 490 408 434 320 C412 406 355 411 315 411 C296 411 218 411 161 322 L176 405 L146 405 Z " />
<glyph glyph-name="n" unicode="n" horiz-adv-x="509" d="M105 0 L152 269 C171 290 191 309 213 326 C250 354 299 383 350 383 C406 383 470 357 454 260 L409 0 L439 0 L485 266 C501 357 445 411 361 411 C333 411 258 412 159 310 L176 405 L146 405 L75 0 L105 0 Z " />
<glyph glyph-name="o" unicode="o" horiz-adv-x="522" d="M264 22 C212 22 97 45 126 205 C150 344 256 383 328 383 C399 383 492 344 468 205 C439 45 316 22 264 22 L264 22 Z M259 -6 C333 -6 469 37 498 207 C522 351 422 411 333 411 C245 411 120 351 96 207 C67 37 183 -6 259 -6 L259 -6 Z " />
<glyph glyph-name="p" unicode="p" horiz-adv-x="527" d="M40 -195 L70 -195 L119 82 C191 -6 265 -6 293 -6 C371 -6 474 43 503 209 C527 350 445 411 344 411 C331 411 237 411 161 322 L176 405 L146 405 L40 -195 Z M152 270 C167 291 183 309 202 326 C234 354 279 383 336 383 C382 383 500 368 473 209 C441 22 320 22 289 22 C233 22 194 46 167 73 C151 88 138 106 127 125 L152 270 Z " />
<glyph glyph-name="q" unicode="q" horiz-adv-x="527" d="M523 405 L493 405 L478 322 C432 411 342 411 327 411 C226 411 120 350 96 209 C67 43 154 -6 230 -6 C257 -6 332 -6 436 82 L387 -195 L417 -195 L523 405 Z M444 125 C426 106 406 88 385 73 C349 46 299 22 244 22 C211 22 94 22 126 209 C153 368 280 383 325 383 C381 383 416 354 439 326 C452 309 462 291 469 270 L444 125 Z " />
<glyph glyph-name="r" unicode="r" horiz-adv-x="348" d="M176 405 L146 405 L75 0 L105 0 L150 257 C161 280 175 301 194 320 C225 351 276 383 353 383 C357 383 368 382 375 381 L380 409 C373 412 362 411 358 411 C345 411 234 411 162 325 L176 405 Z " />
<glyph glyph-name="s" unicode="s" horiz-adv-x="436" d="M294 411 C215 411 122 387 109 307 C89 189 392 191 376 98 C363 31 273 22 216 22 C189 22 157 28 130 35 C114 38 98 43 83 48 L78 20 C109 7 158 -6 217 -6 C328 -6 394 30 406 101 C426 218 123 213 139 308 C150 365 203 383 311 383 C330 383 389 373 403 370 L407 396 C383 403 345 411 294 411 L294 411 Z " />
<glyph glyph-name="t" unicode="t" horiz-adv-x="358" d="M215 551 L189 405 L106 405 L101 377 L184 377 L144 151 C131 72 134 -6 250 -6 C285 -6 308 -4 317 -1 L322 24 C310 21 295 22 284 22 C187 22 156 42 177 166 L214 377 L384 377 L389 405 L219 405 L249 573 L240 573 L215 551 Z " />
<glyph glyph-name="u" unicode="u" horiz-adv-x="509" d="M475 405 L427 136 C408 115 387 96 365 79 C328 50 280 22 229 22 C173 22 109 48 125 145 L171 405 L141 405 L94 139 C78 48 134 -6 218 -6 C245 -6 321 -6 420 95 L404 0 L434 0 L505 405 L475 405 Z " />
<glyph glyph-name="v" unicode="v" horiz-adv-x="450" d="M248 0 L486 405 L454 405 L228 22 L138 405 L106 405 L202 0 L248 0 Z " />
<glyph glyph-name="w" unicode="w" horiz-adv-x="656" d="M387 405 L179 19 L140 405 L111 405 L151 0 L200 0 L389 351 L456 0 L505 0 L687 405 L658 405 L483 19 L411 405 L387 405 Z " />
<glyph glyph-name="x" unicode="x" horiz-adv-x="418" d="M240 180 L346 0 L383 0 L267 199 L454 405 L417 405 L247 216 L143 405 L106 405 L221 199 L35 0 L72 0 L240 180 Z " />
<glyph glyph-name="y" unicode="y" horiz-adv-x="449" d="M164 -89 C113 -167 76 -170 49 -170 C45 -170 30 -170 23 -169 L18 -198 L56 -198 C93 -198 140 -184 183 -112 L490 405 L456 405 L217 0 L148 405 L116 405 C151 187 174 61 192 -42 L164 -89 Z " />
<glyph glyph-name="z" unicode="z" horiz-adv-x="444" d="M136 377 L408 377 L75 31 L70 0 L374 0 L378 28 L111 28 L439 371 L445 405 L141 405 L136 377 Z " />
<glyph glyph-name="braceleft" unicode="&#x7b;" horiz-adv-x="496" d="M224 -58 C213 -121 208 -204 312 -204 C345 -204 368 -202 381 -197 L384 -176 L332 -176 C263 -176 235 -161 254 -56 L277 76 C288 131 298 207 226 239 C313 281 324 346 335 404 L365 576 C384 681 417 696 486 696 L538 696 L542 717 C531 722 508 724 475 724 C373 724 347 641 336 578 L301 378 C283 275 203 253 137 253 L124 253 L119 225 L132 225 C199 225 271 207 252 102 L224 -58 Z " />
<glyph glyph-name="bar" unicode="&#x7c;" horiz-adv-x="190" d="M44 -204 L74 -204 L237 725 L207 725 L44 -204 Z " />
<glyph glyph-name="braceright" unicode="&#x7d;" horiz-adv-x="496" d="M278 102 C297 207 376 225 442 225 L455 225 L460 253 L447 253 C380 253 309 275 327 378 L362 578 C372 641 379 724 275 724 C242 724 219 722 206 717 L202 696 L254 696 C323 696 352 681 333 576 L303 404 C292 345 281 282 354 239 C269 207 256 131 245 76 L222 -56 C203 -161 169 -176 100 -176 L48 -176 L45 -197 C56 -202 79 -204 112 -204 C215 -204 240 -121 250 -58 L278 102 Z " />
<glyph glyph-name="asciitilde" unicode="&#x7e;" horiz-adv-x="372" d="M310 157 C295 154 284 152 276 152 C237 152 198 193 147 193 C133 193 122 192 113 189 L117 163 C124 164 135 165 142 165 C193 165 224 124 272 124 C287 124 298 124 315 132 L310 157 Z " />
<glyph glyph-name="uni00A0" unicode="&#xa0;" horiz-adv-x="199" d="" />
<glyph glyph-name="exclamdown" unicode="&#xa1;" horiz-adv-x="193" d="M181 574 C178 565 186 557 194 557 C203 557 211 565 214 574 C215 582 209 590 200 590 C192 590 182 582 181 574 L181 574 Z M176 512 L156 429 L79 -6 L109 -6 L186 429 L196 512 L176 512 Z " />
<glyph glyph-name="cent" unicode="&#xa2;" horiz-adv-x="608" d="M474 567 C518 567 566 560 609 539 L626 561 C586 584 539 592 492 595 L520 749 L490 749 L462 594 C320 589 170 521 133 305 C88 47 248 -2 357 -5 L334 -134 L364 -134 L386 -6 C433 -3 486 9 533 32 L523 56 C475 33 421 22 373 22 C258 22 122 73 162 305 C202 523 349 567 474 567 L474 567 Z " />
<glyph glyph-name="sterling" unicode="&#xa3;" horiz-adv-x="590" d="M126 265 L206 265 L164 28 L84 28 L80 0 L510 0 L514 28 L194 28 L236 265 L395 265 L400 293 L241 293 L261 405 C288 566 433 567 472 567 C499 567 546 562 589 549 L604 573 C569 590 524 595 472 595 C399 595 260 570 231 405 L211 293 L131 293 L126 265 Z " />
<glyph glyph-name="currency" unicode="&#xa4;" horiz-adv-x="492" d="M259 79 C280 79 315 85 358 117 L406 61 L425 77 L376 137 C400 172 403 191 406 204 C409 217 411 236 399 271 L470 331 L457 347 L389 291 C357 323 325 329 304 329 C283 329 248 323 205 291 L157 347 L138 331 L187 271 C163 236 159 217 156 204 C153 191 152 172 164 137 L93 77 L106 61 L174 117 C205 85 238 79 259 79 L259 79 Z M299 301 C350 301 390 261 379 204 C368 147 316 107 264 107 C212 107 172 147 183 204 C194 261 246 301 299 301 L299 301 Z " />
<glyph glyph-name="yen" unicode="&#xa5;" horiz-adv-x="632" d="M334 188 L321 114 L194 114 L189 86 L316 86 L301 0 L331 0 L346 86 L473 86 L478 114 L351 114 L364 188 L491 188 L496 216 L378 216 L656 590 L622 590 L356 231 L218 590 L184 590 L329 216 L212 216 L207 188 L334 188 Z " />
<glyph glyph-name="brokenbar" unicode="&#xa6;" horiz-adv-x="190" d="M135 317 L165 317 L237 724 L207 724 L135 317 Z M44 -204 L74 -204 L145 203 L115 203 L44 -204 Z " />
<glyph glyph-name="section" unicode="&#xa7;" horiz-adv-x="494" d="M464 285 C484 402 180 397 196 492 C207 549 260 567 368 567 C387 567 447 557 460 554 L465 580 C440 587 402 595 351 595 C272 595 179 571 166 491 C159 448 195 420 240 399 C184 390 143 359 134 307 C114 189 417 191 401 98 C388 31 298 22 241 22 C214 22 182 28 155 35 C139 38 123 43 108 48 L103 20 C134 7 183 -6 242 -6 C353 -6 419 30 431 101 C439 142 408 167 363 187 C421 202 455 234 464 285 L464 285 Z M164 308 C173 357 216 376 264 376 C344 376 441 326 433 282 C424 231 384 212 336 212 C255 212 156 265 164 308 L164 308 Z " />
<glyph glyph-name="dieresis" unicode="&#xa8;" horiz-adv-x="314" d="M176 549 L209 549 L217 590 L184 590 L176 549 Z M297 549 L330 549 L338 590 L305 590 L297 549 Z " />
<glyph glyph-name="copyright" unicode="&#xa9;" horiz-adv-x="761" d="M484 596 C320 596 160 462 131 294 C102 130 214 -5 378 -5 C546 -5 703 130 732 294 C761 462 652 596 484 596 L484 596 Z M382 21 C238 21 133 151 157 294 C184 443 337 573 480 573 C629 573 736 443 709 294 C685 151 530 21 382 21 L382 21 Z M518 151 C474 136 442 134 415 134 C363 134 266 165 290 298 C312 419 416 451 467 451 C486 451 532 450 569 435 L582 455 C537 476 495 476 472 476 C398 476 284 423 263 297 C236 148 339 112 404 109 C439 109 481 111 524 130 L518 151 Z " />
<glyph glyph-name="ordfeminine" unicode="&#xaa;" horiz-adv-x="399" d="M403 477 C418 558 378 595 291 595 C256 595 234 592 218 589 L213 565 C225 568 273 571 283 571 C374 571 387 537 376 469 L371 439 C339 471 286 471 261 471 C196 471 158 444 148 389 C135 309 236 307 250 307 C266 307 317 308 354 345 L349 312 L374 312 L403 477 Z M362 391 C357 363 314 331 257 331 C163 331 171 374 173 389 C183 447 230 447 257 447 C346 447 365 411 362 391 L362 391 Z " />
<glyph glyph-name="guillemotleft" unicode="&#xab;" horiz-adv-x="465" d="M112 187 L150 0 L181 0 C170 63 156 124 144 187 L246 373 L214 373 L112 187 Z M316 187 L354 0 L385 0 C374 63 360 124 348 187 L450 373 L418 373 L316 187 Z " />
<glyph glyph-name="logicalnot" unicode="&#xac;" horiz-adv-x="506" d="M403 42 L433 42 L460 195 L114 195 L109 167 L425 167 L403 42 Z " />
<glyph glyph-name="uni00AD" unicode="&#xad;" horiz-adv-x="198" d="" />
<glyph glyph-name="registered" unicode="&#xae;" horiz-adv-x="761" d="M484 596 C320 596 160 462 131 294 C102 130 214 -5 378 -5 C546 -5 703 130 732 294 C761 462 652 596 484 596 L484 596 Z M382 21 C238 21 133 151 157 294 C184 443 337 573 480 573 C629 573 736 443 709 294 C685 151 530 21 382 21 L382 21 Z M590 369 C603 449 567 476 500 476 L329 476 L265 108 L292 108 L317 251 L419 251 C462 251 488 229 499 164 L510 108 L539 108 L532 140 C524 180 516 237 486 253 C569 258 585 340 590 369 L590 369 Z M321 276 L352 451 L486 451 C530 451 578 450 562 368 C546 280 498 276 455 276 L321 276 Z " />
<glyph glyph-name="macron" unicode="&#xaf;" horiz-adv-x="444" d="M463 562 L468 590 L184 590 L179 562 L463 562 Z " />
<glyph glyph-name="degree" unicode="&#xb0;" horiz-adv-x="356" d="M167 498 C158 445 187 401 248 401 C309 401 354 445 363 498 C374 551 343 595 282 595 C221 595 178 551 167 498 L167 498 Z M334 498 C326 451 292 429 253 429 C214 429 188 451 196 498 C205 545 238 567 277 567 C316 567 343 545 334 498 L334 498 Z " />
<glyph glyph-name="plusminus" unicode="&#xb1;" horiz-adv-x="454" d="M309 383 L279 383 L256 255 L124 255 L120 227 L252 227 L229 100 L259 100 L282 227 L414 227 L418 255 L286 255 L309 383 Z M84 28 L80 0 L374 0 L378 28 L84 28 Z " />
<glyph glyph-name="twosuperior" unicode="&#xb2;" horiz-adv-x="348" d="M135 316 L323 316 L327 340 L165 340 C173 377 345 440 357 514 C368 575 318 595 268 595 C233 595 219 591 196 583 L193 562 C214 566 238 571 259 571 C295 571 340 557 332 514 C320 447 151 402 139 335 L135 316 Z " />
<glyph glyph-name="threesuperior" unicode="&#xb3;" horiz-adv-x="334" d="M220 462 L209 439 L230 439 C273 439 304 430 297 389 C289 345 242 340 202 340 C175 340 158 346 141 349 L137 324 C154 321 178 316 209 316 C274 316 314 341 322 389 C324 399 328 437 296 450 C336 469 341 498 344 514 C355 583 292 595 255 595 C219 595 199 589 183 585 L179 562 C191 565 209 571 234 571 C275 571 330 571 319 514 C312 475 283 462 243 462 L220 462 Z " />
<glyph glyph-name="acute" unicode="&#xb4;" horiz-adv-x="233" d="M257 590 L219 590 L168 504 L200 504 L257 590 Z " />
<glyph glyph-name="mu" unicode="&#xb5;" horiz-adv-x="509" d="M35 -198 L65 -198 L108 46 C129 11 167 -6 218 -6 C245 -6 321 -6 420 95 L404 0 L434 0 L505 405 L475 405 L427 136 C408 115 387 96 365 79 C328 50 280 22 229 22 C175 22 108 47 124 138 L171 405 L141 405 L35 -198 Z " />
<glyph glyph-name="paragraph" unicode="&#xb6;" horiz-adv-x="609" d="M633 590 L329 590 C230 590 171 517 160 457 C149 395 177 323 306 323 L250 0 L280 0 L379 562 L598 562 L499 0 L529 0 L633 590 Z " />
<glyph glyph-name="periodcentered" unicode="&#xb7;" horiz-adv-x="193" d="M104 139 L137 139 L144 180 L111 180 L104 139 Z " />
<glyph glyph-name="cedilla" unicode="&#xb8;" horiz-adv-x="233" d="M63 -92 L101 -92 L151 -6 L119 -6 L63 -92 Z " />
<glyph glyph-name="onesuperior" unicode="&#xb9;" horiz-adv-x="287" d="M172 524 L281 567 L237 316 L262 316 L311 595 L286 595 L177 552 L172 524 Z " />
<glyph glyph-name="ordmasculine" unicode="&#xba;" horiz-adv-x="356" d="M167 498 C158 445 187 401 248 401 C309 401 354 445 363 498 C374 551 343 595 282 595 C221 595 178 551 167 498 L167 498 Z M334 498 C326 451 292 429 253 429 C214 429 188 451 196 498 C205 545 238 567 277 567 C316 567 343 545 334 498 L334 498 Z " />
<glyph glyph-name="guillemotright" unicode="&#xbb;" horiz-adv-x="465" d="M381 373 L349 373 L385 187 C353 124 315 63 284 0 L315 0 L417 187 L381 373 Z M177 373 L145 373 L181 187 C149 124 111 63 80 0 L111 0 L213 187 L177 373 Z " />
<glyph glyph-name="onequarter" unicode="&#xbc;" horiz-adv-x="720" d="M171 519 L281 562 L236 311 L261 311 L311 590 L286 590 L176 547 L171 519 Z M232 0 L259 0 L587 590 L561 590 L232 0 Z M565 0 L590 0 L600 57 L641 57 L645 81 L604 81 L639 279 L625 279 L421 84 L417 57 L575 57 L565 0 Z M452 81 L605 229 L579 81 L452 81 Z " />
<glyph glyph-name="onehalf" unicode="&#xbd;" horiz-adv-x="723" d="M171 519 L281 562 L236 311 L261 311 L311 590 L286 590 L176 547 L171 519 Z M232 0 L259 0 L587 590 L561 590 L232 0 Z M455 0 L643 0 L647 24 L485 24 C489 61 664 124 676 198 C687 259 639 279 588 279 C553 279 539 275 516 267 L512 246 C535 250 557 255 578 255 C614 255 659 241 651 198 C639 132 470 85 458 19 L455 0 Z " />
<glyph glyph-name="threequarters" unicode="&#xbe;" horiz-adv-x="711" d="M219 457 L208 434 L229 434 C272 434 303 425 296 384 C288 340 242 335 202 335 C175 335 157 341 140 344 L136 319 C153 316 177 311 208 311 C273 311 313 336 321 384 C323 394 327 432 295 445 C335 464 340 493 343 509 C356 578 291 590 255 590 C219 590 198 584 182 580 L178 557 C190 560 208 566 233 566 C274 566 329 566 318 509 C311 470 282 457 242 457 L219 457 Z M232 0 L259 0 L587 590 L561 590 L232 0 Z M565 0 L590 0 L600 57 L641 57 L645 81 L604 81 L639 279 L625 279 L421 84 L417 57 L575 57 L565 0 Z M452 81 L605 229 L579 81 L452 81 Z " />
<glyph glyph-name="questiondown" unicode="&#xbf;" horiz-adv-x="516" d="M404 475 L374 475 L349 329 C157 284 116 201 105 142 C81 12 205 -6 283 -6 C362 -6 408 4 439 19 L444 46 C393 29 339 22 288 22 C232 22 114 22 135 146 C148 223 218 269 375 309 L404 475 Z M424 579 C425 587 418 595 410 595 C401 595 392 587 391 579 C388 570 396 562 405 562 C413 562 421 570 424 579 L424 579 Z " />
<glyph glyph-name="Agrave" unicode="&#xc0;" horiz-adv-x="606" d="M430 590 L384 590 L40 0 L73 0 L160 153 L498 153 L533 0 L566 0 L430 590 Z M177 181 L402 567 L491 181 L177 181 Z M372 743 L410 743 L429 657 L397 657 L372 743 Z " />
<glyph glyph-name="Aacute" unicode="&#xc1;" horiz-adv-x="606" d="M430 590 L384 590 L40 0 L73 0 L160 153 L498 153 L533 0 L566 0 L430 590 Z M177 181 L402 567 L491 181 L177 181 Z M433 657 L401 657 L452 743 L490 743 L433 657 Z " />
<glyph glyph-name="Acircumflex" unicode="&#xc2;" horiz-adv-x="606" d="M430 590 L384 590 L40 0 L73 0 L160 153 L498 153 L533 0 L566 0 L430 590 Z M177 181 L402 567 L491 181 L177 181 Z M450 749 L500 657 L463 657 L425 726 L361 657 L324 657 L408 749 L450 749 Z " />
<glyph glyph-name="Atilde" unicode="&#xc3;" horiz-adv-x="606" d="M430 590 L384 590 L40 0 L73 0 L160 153 L498 153 L533 0 L566 0 L430 590 Z M177 181 L402 567 L491 181 L177 181 Z M526 665 C509 657 498 657 483 657 C435 657 404 698 353 698 C346 698 335 697 328 696 L324 722 C333 725 344 726 358 726 C409 726 448 685 487 685 C495 685 506 687 521 690 L526 665 Z " />
<glyph glyph-name="Adieresis" unicode="&#xc4;" horiz-adv-x="606" d="M430 590 L384 590 L40 0 L73 0 L160 153 L498 153 L533 0 L566 0 L430 590 Z M177 181 L402 567 L491 181 L177 181 Z M353 657 L386 657 L394 698 L361 698 L353 657 Z M449 657 L482 657 L490 698 L457 698 L449 657 Z " />
<glyph glyph-name="Aring" unicode="&#xc5;" horiz-adv-x="606" d="M430 590 L384 590 L40 0 L73 0 L160 153 L498 153 L533 0 L566 0 L430 590 Z M177 181 L402 567 L491 181 L177 181 Z M338 754 C329 701 358 657 419 657 C480 657 525 701 534 754 C545 807 515 851 454 851 C393 851 349 807 338 754 L338 754 Z M505 754 C497 707 463 685 424 685 C385 685 359 707 367 754 C376 801 410 823 449 823 C488 823 514 801 505 754 L505 754 Z " />
<glyph glyph-name="AE" unicode="&#xc6;" horiz-adv-x="1023" d="M1052 562 L1057 590 L664 590 L41 0 L79 0 L242 153 L604 153 L578 0 L953 0 L957 28 L612 28 L658 285 L940 285 L945 313 L663 313 L707 562 L1052 562 Z M271 181 L677 562 L609 181 L271 181 Z " />
<glyph glyph-name="Ccedilla" unicode="&#xc7;" horiz-adv-x="553" d="M449 567 C493 567 541 560 584 539 L601 561 C558 586 506 595 455 595 C308 595 148 530 108 305 C60 31 243 -6 350 -6 C397 -6 457 7 508 32 L498 56 C450 33 396 22 348 22 C233 22 97 73 137 305 C177 523 324 567 449 567 L449 567 Z M254 -150 L292 -150 L342 -64 L310 -64 L254 -150 Z " />
<glyph glyph-name="Egrave" unicode="&#xc8;" horiz-adv-x="525" d="M554 562 L559 590 L184 590 L80 0 L455 0 L459 28 L114 28 L160 285 L442 285 L447 313 L165 313 L209 562 L554 562 Z M347 743 L385 743 L404 657 L372 657 L347 743 Z " />
<glyph glyph-name="Eacute" unicode="&#xc9;" horiz-adv-x="525" d="M554 562 L559 590 L184 590 L80 0 L455 0 L459 28 L114 28 L160 285 L442 285 L447 313 L165 313 L209 562 L554 562 Z M399 657 L367 657 L418 743 L456 743 L399 657 Z " />
<glyph glyph-name="Ecircumflex" unicode="&#xca;" horiz-adv-x="525" d="M554 562 L559 590 L184 590 L80 0 L455 0 L459 28 L114 28 L160 285 L442 285 L447 313 L165 313 L209 562 L554 562 Z M426 749 L476 657 L439 657 L401 726 L337 657 L300 657 L384 749 L426 749 Z " />
<glyph glyph-name="Edieresis" unicode="&#xcb;" horiz-adv-x="525" d="M554 562 L559 590 L184 590 L80 0 L455 0 L459 28 L114 28 L160 285 L442 285 L447 313 L165 313 L209 562 L554 562 Z M311 657 L344 657 L352 698 L319 698 L311 657 Z M432 657 L465 657 L473 698 L440 698 L432 657 Z " />
<glyph glyph-name="Igrave" unicode="&#xcc;" horiz-adv-x="190" d="M80 0 L110 0 L214 590 L184 590 L80 0 Z M169 743 L207 743 L226 657 L194 657 L169 743 Z " />
<glyph glyph-name="Iacute" unicode="&#xcd;" horiz-adv-x="190" d="M214 590 L184 590 L80 0 L110 0 L214 590 Z M226 657 L194 657 L245 743 L283 743 L226 657 Z " />
<glyph glyph-name="Icircumflex" unicode="&#xce;" horiz-adv-x="190" d="M80 0 L110 0 L214 590 L184 590 L80 0 Z M248 749 L298 657 L261 657 L223 726 L159 657 L122 657 L206 749 L248 749 Z " />
<glyph glyph-name="Idieresis" unicode="&#xcf;" horiz-adv-x="190" d="M80 0 L110 0 L214 590 L184 590 L80 0 Z M151 657 L184 657 L192 698 L159 698 L151 657 Z M235 657 L268 657 L276 698 L243 698 L235 657 Z " />
<glyph glyph-name="Eth" unicode="&#xd0;" horiz-adv-x="651" d="M640 309 C677 521 547 590 412 590 L225 590 L174 304 L93 304 L88 276 L169 276 L121 0 L315 0 C422 0 595 48 640 309 L640 309 Z M155 28 L199 276 L372 276 L377 304 L204 304 L250 562 L404 562 C528 562 644 502 609 306 C564 54 397 28 295 28 L155 28 Z " />
<glyph glyph-name="Ntilde" unicode="&#xd1;" horiz-adv-x="632" d="M508 0 L552 0 L656 590 L627 590 L528 30 L229 590 L184 590 L80 0 L110 0 L208 561 L508 0 Z M534 665 C517 657 506 657 491 657 C443 657 412 698 361 698 C354 698 343 697 336 696 L332 722 C341 725 352 726 366 726 C417 726 456 685 495 685 C503 685 514 687 529 690 L534 665 Z " />
<glyph glyph-name="Ograve" unicode="&#xd2;" horiz-adv-x="686" d="M346 22 C253 22 108 73 148 306 C185 511 334 567 442 567 C550 567 681 511 644 306 C604 72 438 22 346 22 L346 22 Z M341 -6 C448 -6 630 51 675 309 C712 520 573 595 447 595 C321 595 156 520 119 309 C74 51 232 -6 341 -6 L341 -6 Z M415 743 L453 743 L472 657 L440 657 L415 743 Z " />
<glyph glyph-name="Oacute" unicode="&#xd3;" horiz-adv-x="686" d="M346 22 C253 22 108 73 148 306 C185 511 334 567 442 567 C550 567 681 511 644 306 C604 72 438 22 346 22 L346 22 Z M341 -6 C448 -6 630 51 675 309 C712 520 573 595 447 595 C321 595 156 520 119 309 C74 51 232 -6 341 -6 L341 -6 Z M476 657 L444 657 L495 743 L533 743 L476 657 Z " />
<glyph glyph-name="Ocircumflex" unicode="&#xd4;" horiz-adv-x="686" d="M346 22 C253 22 108 73 148 306 C185 511 334 567 442 567 C550 567 681 511 644 306 C604 72 438 22 346 22 L346 22 Z M341 -6 C448 -6 630 51 675 309 C712 520 573 595 447 595 C321 595 156 520 119 309 C74 51 232 -6 341 -6 L341 -6 Z M496 749 L546 657 L509 657 L471 726 L407 657 L370 657 L454 749 L496 749 Z " />
<glyph glyph-name="Otilde" unicode="&#xd5;" horiz-adv-x="686" d="M346 22 C253 22 108 73 148 306 C185 511 334 567 442 567 C550 567 681 511 644 306 C604 72 438 22 346 22 L346 22 Z M341 -6 C448 -6 630 51 675 309 C712 520 573 595 447 595 C321 595 156 520 119 309 C74 51 232 -6 341 -6 L341 -6 Z M566 665 C549 657 538 657 523 657 C475 657 444 698 393 698 C386 698 375 697 368 696 L364 722 C373 725 384 726 398 726 C449 726 488 685 527 685 C535 685 546 687 561 690 L566 665 Z " />
<glyph glyph-name="Odieresis" unicode="&#xd6;" horiz-adv-x="686" d="M346 22 C253 22 108 73 148 306 C185 511 334 567 442 567 C550 567 681 511 644 306 C604 72 438 22 346 22 L346 22 Z M341 -6 C448 -6 630 51 675 309 C712 520 573 595 447 595 C321 595 156 520 119 309 C74 51 232 -6 341 -6 L341 -6 Z M393 657 L426 657 L434 698 L401 698 L393 657 Z M489 657 L522 657 L530 698 L497 698 L489 657 Z " />
<glyph glyph-name="multiply" unicode="&#xd7;" horiz-adv-x="372" d="M215 165 L265 56 L301 56 L240 185 L347 315 L312 315 L222 205 L170 315 L135 315 L196 185 L89 56 L125 56 L215 165 Z " />
<glyph glyph-name="Oslash" unicode="&#xd8;" horiz-adv-x="686" d="M628 679 L594 679 L539 581 C509 590 478 595 447 595 C321 595 156 520 119 309 C90 138 149 54 224 19 L158 -97 L192 -97 L252 8 C283 -3 313 -6 341 -6 C448 -6 630 51 675 309 C699 453 645 531 567 569 L628 679 Z M346 22 C253 22 108 73 148 306 C185 511 334 567 442 567 C550 567 681 511 644 306 C604 72 438 22 346 22 L346 22 Z " />
<glyph glyph-name="Ugrave" unicode="&#xd9;" horiz-adv-x="632" d="M314 -6 C421 -6 557 34 600 275 L656 590 L626 590 L570 277 C535 74 425 22 319 22 C212 22 123 74 158 277 L214 590 L184 590 L128 275 C85 34 209 -6 314 -6 L314 -6 Z M386 743 L424 743 L443 657 L411 657 L386 743 Z " />
<glyph glyph-name="Uacute" unicode="&#xda;" horiz-adv-x="632" d="M314 -6 C421 -6 557 34 600 275 L656 590 L626 590 L570 277 C535 74 425 22 319 22 C212 22 123 74 158 277 L214 590 L184 590 L128 275 C85 34 209 -6 314 -6 L314 -6 Z M451 657 L419 657 L470 743 L508 743 L451 657 Z " />
<glyph glyph-name="Ucircumflex" unicode="&#xdb;" horiz-adv-x="632" d="M314 -6 C421 -6 557 34 600 275 L656 590 L626 590 L570 277 C535 74 425 22 319 22 C212 22 123 74 158 277 L214 590 L184 590 L128 275 C85 34 209 -6 314 -6 L314 -6 Z M469 749 L519 657 L482 657 L444 726 L380 657 L343 657 L427 749 L469 749 Z " />
<glyph glyph-name="Udieresis" unicode="&#xdc;" horiz-adv-x="632" d="M314 -6 C421 -6 557 34 600 275 L656 590 L626 590 L570 277 C535 74 425 22 319 22 C212 22 123 74 158 277 L214 590 L184 590 L128 275 C85 34 209 -6 314 -6 L314 -6 Z M354 657 L387 657 L395 698 L362 698 L354 657 Z M475 657 L508 657 L516 698 L483 698 L475 657 Z " />
<glyph glyph-name="Yacute" unicode="&#xdd;" horiz-adv-x="542" d="M311 231 L173 590 L139 590 L291 199 L256 0 L286 0 L321 199 L611 590 L577 590 L311 231 Z M346 743 L384 743 L403 657 L371 657 L346 743 Z " />
<glyph glyph-name="Thorn" unicode="&#xde;" horiz-adv-x="556" d="M75 0 L105 0 L122 102 L355 102 C444 102 534 141 563 297 C587 428 514 478 423 478 L189 478 L209 590 L179 590 L75 0 Z M416 450 C485 450 554 425 533 297 C506 150 426 130 359 130 L127 130 L184 450 L416 450 Z " />
<glyph glyph-name="germandbls" unicode="&#xdf;" horiz-adv-x="583" d="M401 595 C293 595 177 577 129 311 L75 0 L105 0 L158 306 C198 530 274 567 397 567 C478 567 563 560 544 446 C523 324 422 312 353 312 L316 312 L303 284 L385 284 C455 284 552 285 533 173 C509 37 401 28 335 28 L314 28 L310 0 L329 0 C484 0 547 74 563 173 C571 214 573 288 470 304 C552 346 569 412 574 448 C598 584 493 595 401 595 L401 595 Z " />
<glyph glyph-name="agrave" unicode="&#xe0;" horiz-adv-x="489" d="M458 251 C472 358 413 411 280 411 C229 411 201 402 170 395 L165 366 C196 374 248 383 271 383 C402 383 440 327 427 248 L414 173 C360 222 281 228 248 228 C138 228 86 177 75 116 C54 1 160 -6 191 -6 C217 -6 310 -7 392 54 L383 0 L414 0 L458 251 Z M398 85 C380 73 361 62 341 53 C306 37 260 22 212 22 C118 22 96 59 104 113 C114 165 143 201 247 201 C295 201 336 186 364 171 C381 162 396 153 409 142 L398 85 Z M299 557 L337 557 L357 471 L325 471 L299 557 Z " />
<glyph glyph-name="aacute" unicode="&#xe1;" horiz-adv-x="489" d="M458 251 C472 358 413 411 280 411 C229 411 201 402 170 395 L165 366 C196 374 248 383 271 383 C402 383 440 327 427 248 L414 173 C360 222 281 228 248 228 C138 228 86 177 75 116 C54 1 160 -6 191 -6 C217 -6 310 -7 392 54 L383 0 L414 0 L458 251 Z M398 85 C380 73 361 62 341 53 C306 37 260 22 212 22 C118 22 96 59 104 113 C114 165 143 201 247 201 C295 201 336 186 364 171 C381 162 396 153 409 142 L398 85 Z M354 471 L322 471 L372 557 L410 557 L354 471 Z " />
<glyph glyph-name="acircumflex" unicode="&#xe2;" horiz-adv-x="489" d="M458 251 C472 358 413 411 280 411 C229 411 201 402 170 395 L165 366 C196 374 248 383 271 383 C402 383 440 327 427 248 L414 173 C360 222 281 228 248 228 C138 228 86 177 75 116 C54 1 160 -6 191 -6 C217 -6 310 -7 392 54 L383 0 L414 0 L458 251 Z M398 85 C380 73 361 62 341 53 C306 37 260 22 212 22 C118 22 96 59 104 113 C114 165 143 201 247 201 C295 201 336 186 364 171 C381 162 396 153 409 142 L398 85 Z M373 563 L424 471 L387 471 L348 540 L285 471 L248 471 L331 563 L373 563 Z " />
<glyph glyph-name="atilde" unicode="&#xe3;" horiz-adv-x="489" d="M458 251 C472 358 413 411 280 411 C229 411 201 402 170 395 L165 366 C196 374 248 383 271 383 C402 383 440 327 427 248 L414 173 C360 222 281 228 248 228 C138 228 86 177 75 116 C54 1 160 -6 191 -6 C217 -6 310 -7 392 54 L383 0 L414 0 L458 251 Z M398 85 C380 73 361 62 341 53 C306 37 260 22 212 22 C118 22 96 59 104 113 C114 165 143 201 247 201 C295 201 336 186 364 171 C381 162 396 153 409 142 L398 85 Z M434 479 C418 471 407 471 392 471 C344 471 311 512 261 512 C254 512 244 511 236 510 L232 536 C242 539 253 540 266 540 C317 540 356 499 395 499 C403 499 414 501 429 504 L434 479 Z " />
<glyph glyph-name="adieresis" unicode="&#xe4;" horiz-adv-x="489" d="M458 251 C472 358 413 411 280 411 C229 411 201 402 170 395 L165 366 C196 374 248 383 271 383 C402 383 440 327 427 248 L414 173 C360 222 281 228 248 228 C138 228 86 177 75 116 C54 1 160 -6 191 -6 C217 -6 310 -7 392 54 L383 0 L414 0 L458 251 Z M398 85 C380 73 361 62 341 53 C306 37 260 22 212 22 C118 22 96 59 104 113 C114 165 143 201 247 201 C295 201 336 186 364 171 C381 162 396 153 409 142 L398 85 Z M260 471 L293 471 L300 512 L267 512 L260 471 Z M381 471 L414 471 L421 512 L388 512 L381 471 Z " />
<glyph glyph-name="aring" unicode="&#xe5;" horiz-adv-x="489" d="M458 251 C472 358 413 411 280 411 C229 411 201 402 170 395 L165 366 C196 374 248 383 271 383 C402 383 440 327 427 248 L414 173 C360 222 281 228 248 228 C138 228 86 177 75 116 C54 1 160 -6 191 -6 C217 -6 310 -7 392 54 L383 0 L414 0 L458 251 Z M398 85 C380 73 361 62 341 53 C306 37 260 22 212 22 C118 22 96 59 104 113 C114 165 143 201 247 201 C295 201 336 186 364 171 C381 162 396 153 409 142 L398 85 Z M258 568 C247 515 278 471 339 471 C400 471 443 515 454 568 C463 621 434 665 373 665 C312 665 267 621 258 568 L258 568 Z M425 568 C416 521 382 499 343 499 C304 499 278 521 287 568 C295 615 329 637 368 637 C407 637 433 615 425 568 L425 568 Z " />
<glyph glyph-name="ae" unicode="&#xe6;" horiz-adv-x="815" d="M784 195 L790 231 C809 332 757 411 640 411 C551 411 493 371 457 310 C444 377 385 411 280 411 C229 411 201 402 170 395 L165 366 C196 374 248 383 271 383 C402 383 440 327 427 248 L414 173 C360 222 281 228 248 228 C138 228 86 177 75 116 C54 1 160 -6 191 -6 C217 -6 347 -7 419 73 C444 22 500 -6 584 -6 C644 -6 687 -1 720 6 L724 32 C682 24 656 22 600 22 C480 22 429 81 437 132 L448 195 L784 195 Z M398 85 C380 73 361 62 341 53 C306 37 260 22 212 22 C118 22 96 59 104 113 C114 165 143 201 247 201 C295 201 336 186 364 171 C381 162 396 153 409 142 L398 85 Z M634 383 C703 383 778 351 759 223 L453 223 C477 340 557 383 634 383 L634 383 Z " />
<glyph glyph-name="ccedilla" unicode="&#xe7;" horiz-adv-x="431" d="M381 42 C330 25 293 22 264 22 C204 22 95 57 121 208 C145 347 268 383 323 383 C346 383 396 380 439 364 L454 387 C403 411 354 411 329 411 C244 411 115 351 91 207 C62 39 179 -3 251 -6 C290 -6 338 -5 389 18 L381 42 Z M173 -150 L211 -150 L261 -64 L229 -64 L173 -150 Z " />
<glyph glyph-name="egrave" unicode="&#xe8;" horiz-adv-x="491" d="M466 231 C485 332 433 411 316 411 C181 411 114 317 95 202 C74 86 122 -6 260 -6 C320 -6 363 -1 396 6 L400 32 C358 24 332 22 276 22 C153 22 112 82 123 195 L460 195 L466 231 Z M129 223 C153 340 233 383 310 383 C379 383 454 351 435 223 L129 223 Z M284 557 L322 557 L342 471 L310 471 L284 557 Z " />
<glyph glyph-name="eacute" unicode="&#xe9;" horiz-adv-x="491" d="M466 231 C485 332 433 411 316 411 C181 411 114 317 95 202 C74 86 122 -6 260 -6 C320 -6 363 -1 396 6 L400 32 C358 24 332 22 276 22 C153 22 112 82 123 195 L460 195 L466 231 Z M129 223 C153 340 233 383 310 383 C379 383 454 351 435 223 L129 223 Z M342 471 L310 471 L360 557 L398 557 L342 471 Z " />
<glyph glyph-name="ecircumflex" unicode="&#xea;" horiz-adv-x="491" d="M466 231 C485 332 433 411 316 411 C181 411 114 317 95 202 C74 86 122 -6 260 -6 C320 -6 363 -1 396 6 L400 32 C358 24 332 22 276 22 C153 22 112 82 123 195 L460 195 L466 231 Z M129 223 C153 340 233 383 310 383 C379 383 454 351 435 223 L129 223 Z M364 563 L415 471 L378 471 L339 540 L276 471 L239 471 L322 563 L364 563 Z " />
<glyph glyph-name="edieresis" unicode="&#xeb;" horiz-adv-x="491" d="M466 231 C485 332 433 411 316 411 C181 411 114 317 95 202 C74 86 122 -6 260 -6 C320 -6 363 -1 396 6 L400 32 C358 24 332 22 276 22 C153 22 112 82 123 195 L460 195 L466 231 Z M129 223 C153 340 233 383 310 383 C379 383 454 351 435 223 L129 223 Z M247 471 L280 471 L287 512 L254 512 L247 471 Z M368 471 L401 471 L408 512 L375 512 L368 471 Z " />
<glyph glyph-name="igrave" unicode="&#xec;" horiz-adv-x="190" d="M80 0 L110 0 L181 405 L151 405 L80 0 Z M136 557 L174 557 L194 471 L162 471 L136 557 Z " />
<glyph glyph-name="iacute" unicode="&#xed;" horiz-adv-x="190" d="M181 405 L151 405 L80 0 L110 0 L181 405 Z M194 471 L162 471 L212 557 L250 557 L194 471 Z " />
<glyph glyph-name="icircumflex" unicode="&#xee;" horiz-adv-x="190" d="M80 0 L110 0 L181 405 L151 405 L80 0 Z M215 563 L266 471 L229 471 L190 540 L127 471 L90 471 L173 563 L215 563 Z " />
<glyph glyph-name="idieresis" unicode="&#xef;" horiz-adv-x="190" d="M80 0 L110 0 L181 405 L151 405 L80 0 Z M119 471 L152 471 L159 512 L126 512 L119 471 Z M203 471 L236 471 L243 512 L210 512 L203 471 Z " />
<glyph glyph-name="eth" unicode="&#xf0;" horiz-adv-x="575" d="M560 685 L541 701 L483 644 C448 655 404 657 384 657 C332 657 292 652 265 643 L260 618 C295 623 318 629 371 629 C391 629 432 627 457 618 L345 507 L364 491 L479 606 C529 572 578 525 538 301 C485 370 374 374 350 374 C248 374 116 323 92 187 C60 11 205 -6 279 -6 L290 -6 C366 -6 515 17 547 186 L578 361 C607 524 561 585 505 630 L560 685 Z M289 22 C231 22 94 37 122 185 C146 324 284 346 347 346 C407 346 544 332 517 185 C493 41 348 22 289 22 L289 22 Z " />
<glyph glyph-name="ntilde" unicode="&#xf1;" horiz-adv-x="509" d="M105 0 L152 269 C171 290 191 309 213 326 C250 354 299 383 350 383 C406 383 470 357 454 260 L409 0 L439 0 L485 266 C501 357 445 411 361 411 C333 411 258 412 159 310 L176 405 L146 405 L75 0 L105 0 Z M454 479 C438 471 427 471 412 471 C364 471 331 512 281 512 C274 512 264 511 256 510 L252 536 C262 539 273 540 286 540 C337 540 376 499 415 499 C423 499 434 501 449 504 L454 479 Z " />
<glyph glyph-name="ograve" unicode="&#xf2;" horiz-adv-x="522" d="M264 22 C212 22 97 45 126 205 C150 344 256 383 328 383 C399 383 492 344 468 205 C439 45 316 22 264 22 L264 22 Z M259 -6 C333 -6 469 37 498 207 C522 351 422 411 333 411 C245 411 120 351 96 207 C67 37 183 -6 259 -6 L259 -6 Z M298 557 L336 557 L356 471 L324 471 L298 557 Z " />
<glyph glyph-name="oacute" unicode="&#xf3;" horiz-adv-x="522" d="M264 22 C212 22 97 45 126 205 C150 344 256 383 328 383 C399 383 492 344 468 205 C439 45 316 22 264 22 L264 22 Z M259 -6 C333 -6 469 37 498 207 C522 351 422 411 333 411 C245 411 120 351 96 207 C67 37 183 -6 259 -6 L259 -6 Z M364 471 L332 471 L382 557 L420 557 L364 471 Z " />
<glyph glyph-name="ocircumflex" unicode="&#xf4;" horiz-adv-x="522" d="M264 22 C212 22 97 45 126 205 C150 344 256 383 328 383 C399 383 492 344 468 205 C439 45 316 22 264 22 L264 22 Z M259 -6 C333 -6 469 37 498 207 C522 351 422 411 333 411 C245 411 120 351 96 207 C67 37 183 -6 259 -6 L259 -6 Z M381 563 L432 471 L395 471 L356 540 L293 471 L256 471 L339 563 L381 563 Z " />
<glyph glyph-name="otilde" unicode="&#xf5;" horiz-adv-x="522" d="M264 22 C212 22 97 45 126 205 C150 344 256 383 328 383 C399 383 492 344 468 205 C439 45 316 22 264 22 L264 22 Z M259 -6 C333 -6 469 37 498 207 C522 351 422 411 333 411 C245 411 120 351 96 207 C67 37 183 -6 259 -6 L259 -6 Z M450 479 C434 471 423 471 408 471 C360 471 327 512 277 512 C270 512 260 511 252 510 L248 536 C258 539 269 540 282 540 C333 540 372 499 411 499 C419 499 430 501 445 504 L450 479 Z " />
<glyph glyph-name="odieresis" unicode="&#xf6;" horiz-adv-x="522" d="M264 22 C212 22 97 45 126 205 C150 344 256 383 328 383 C399 383 492 344 468 205 C439 45 316 22 264 22 L264 22 Z M259 -6 C333 -6 469 37 498 207 C522 351 422 411 333 411 C245 411 120 351 96 207 C67 37 183 -6 259 -6 L259 -6 Z M267 471 L300 471 L307 512 L274 512 L267 471 Z M388 471 L421 471 L428 512 L395 512 L388 471 Z " />
<glyph glyph-name="divide" unicode="&#xf7;" horiz-adv-x="444" d="M395 176 L399 204 L115 204 L111 176 L395 176 Z M262 338 C260 325 265 319 278 319 C289 319 298 327 301 338 C304 349 296 358 285 358 C274 358 265 349 262 338 L262 338 Z M210 42 C207 31 214 22 225 22 C236 22 246 31 249 42 C252 53 243 61 232 61 C219 61 212 55 210 42 L210 42 Z " />
<glyph glyph-name="oslash" unicode="&#xf8;" horiz-adv-x="522" d="M484 506 L450 506 L391 402 C372 408 352 411 333 411 C245 411 120 351 96 207 C77 97 119 41 172 14 L109 -97 L143 -97 L199 3 C220 -3 240 -6 259 -6 C333 -6 469 37 498 207 C514 307 474 362 420 392 L484 506 Z M264 22 C212 22 97 45 126 205 C150 344 256 383 328 383 C399 383 492 344 468 205 C439 45 316 22 264 22 L264 22 Z " />
<glyph glyph-name="ugrave" unicode="&#xf9;" horiz-adv-x="509" d="M475 405 L427 136 C408 115 387 96 365 79 C328 50 280 22 229 22 C173 22 109 48 125 145 L171 405 L141 405 L94 139 C78 48 134 -6 218 -6 C245 -6 321 -6 420 95 L404 0 L434 0 L505 405 L475 405 Z M298 557 L336 557 L356 471 L324 471 L298 557 Z " />
<glyph glyph-name="uacute" unicode="&#xfa;" horiz-adv-x="509" d="M475 405 L427 136 C408 115 387 96 365 79 C328 50 280 22 229 22 C173 22 109 48 125 145 L171 405 L141 405 L94 139 C78 48 134 -6 218 -6 C245 -6 321 -6 420 95 L404 0 L434 0 L505 405 L475 405 Z M352 471 L320 471 L370 557 L408 557 L352 471 Z " />
<glyph glyph-name="ucircumflex" unicode="&#xfb;" horiz-adv-x="509" d="M475 405 L427 136 C408 115 387 96 365 79 C328 50 280 22 229 22 C173 22 109 48 125 145 L171 405 L141 405 L94 139 C78 48 134 -6 218 -6 C245 -6 321 -6 420 95 L404 0 L434 0 L505 405 L475 405 Z M374 563 L425 471 L388 471 L349 540 L286 471 L249 471 L332 563 L374 563 Z " />
<glyph glyph-name="udieresis" unicode="&#xfc;" horiz-adv-x="509" d="M475 405 L427 136 C408 115 387 96 365 79 C328 50 280 22 229 22 C173 22 109 48 125 145 L171 405 L141 405 L94 139 C78 48 134 -6 218 -6 C245 -6 321 -6 420 95 L404 0 L434 0 L505 405 L475 405 Z M260 471 L293 471 L300 512 L267 512 L260 471 Z M381 471 L414 471 L421 512 L388 512 L381 471 Z " />
<glyph glyph-name="yacute" unicode="&#xfd;" horiz-adv-x="449" d="M164 -89 C113 -167 76 -170 49 -170 C45 -170 30 -170 23 -169 L18 -198 L56 -198 C93 -198 140 -184 183 -112 L490 405 L456 405 L217 0 L148 405 L116 405 C151 187 174 61 192 -42 L164 -89 Z M325 471 L293 471 L343 557 L381 557 L325 471 Z " />
<glyph glyph-name="thorn" unicode="&#xfe;" horiz-adv-x="527" d="M40 -195 L70 -195 L119 82 C191 -6 265 -6 293 -6 C371 -6 474 43 503 209 C527 350 445 411 344 411 C331 411 237 411 161 322 L208 590 L178 590 L40 -195 Z M152 270 C167 291 183 309 202 326 C234 354 279 383 336 383 C382 383 500 368 473 209 C441 22 320 22 289 22 C233 22 194 46 167 73 C151 88 138 106 127 125 L152 270 Z " />
<glyph glyph-name="ydieresis" unicode="&#xff;" horiz-adv-x="449" d="M164 -89 C113 -167 76 -170 49 -170 C45 -170 30 -170 23 -169 L18 -198 L56 -198 C93 -198 140 -184 183 -112 L490 405 L456 405 L217 0 L148 405 L116 405 C151 187 174 61 192 -42 L164 -89 Z M239 471 L272 471 L279 512 L246 512 L239 471 Z M360 471 L393 471 L400 512 L367 512 L360 471 Z " />
<glyph glyph-name="Amacron" unicode="&#x100;" horiz-adv-x="606" d="M430 590 L384 590 L40 0 L73 0 L160 153 L498 153 L533 0 L566 0 L430 590 Z M177 181 L402 567 L491 181 L177 181 Z M560 657 L565 685 L281 685 L276 657 L560 657 Z " />
<glyph glyph-name="amacron" unicode="&#x101;" horiz-adv-x="489" d="M458 251 C472 358 413 411 280 411 C229 411 201 402 170 395 L165 366 C196 374 248 383 271 383 C402 383 440 327 427 248 L414 173 C360 222 281 228 248 228 C138 228 86 177 75 116 C54 1 160 -6 191 -6 C217 -6 310 -7 392 54 L383 0 L414 0 L458 251 Z M398 85 C380 73 361 62 341 53 C306 37 260 22 212 22 C118 22 96 59 104 113 C114 165 143 201 247 201 C295 201 336 186 364 171 C381 162 396 153 409 142 L398 85 Z M477 471 L481 499 L197 499 L193 471 L477 471 Z " />
<glyph glyph-name="Abreve" unicode="&#x102;" horiz-adv-x="606" d="M430 590 L384 590 L40 0 L73 0 L160 153 L498 153 L533 0 L566 0 L430 590 Z M177 181 L402 567 L491 181 L177 181 Z M418 657 C461 657 516 670 548 739 L512 739 C489 699 459 687 424 687 C389 687 362 699 354 739 L318 739 C326 670 375 657 418 657 L418 657 Z " />
<glyph glyph-name="abreve" unicode="&#x103;" horiz-adv-x="489" d="M458 251 C472 358 413 411 280 411 C229 411 201 402 170 395 L165 366 C196 374 248 383 271 383 C402 383 440 327 427 248 L414 173 C360 222 281 228 248 228 C138 228 86 177 75 116 C54 1 160 -6 191 -6 C217 -6 310 -7 392 54 L383 0 L414 0 L458 251 Z M398 85 C380 73 361 62 341 53 C306 37 260 22 212 22 C118 22 96 59 104 113 C114 165 143 201 247 201 C295 201 336 186 364 171 C381 162 396 153 409 142 L398 85 Z M345 471 C387 471 442 484 474 553 L438 553 C415 513 385 501 350 501 C315 501 288 513 280 553 L244 553 C252 484 302 471 345 471 L345 471 Z " />
<glyph glyph-name="Aogonek" unicode="&#x104;" horiz-adv-x="606" d="M430 590 L384 590 L40 0 L73 0 L160 153 L498 153 L533 0 L566 0 L430 590 Z M177 181 L402 567 L491 181 L177 181 Z M466 -150 L504 -150 L554 -64 L522 -64 L466 -150 Z " />
<glyph glyph-name="aogonek" unicode="&#x105;" horiz-adv-x="489" d="M458 251 C472 358 413 411 280 411 C229 411 201 402 170 395 L165 366 C196 374 248 383 271 383 C402 383 440 327 427 248 L414 173 C360 222 281 228 248 228 C138 228 86 177 75 116 C54 1 160 -6 191 -6 C217 -6 310 -7 392 54 L383 0 L414 0 L458 251 Z M398 85 C380 73 361 62 341 53 C306 37 260 22 212 22 C118 22 96 59 104 113 C114 165 143 201 247 201 C295 201 336 186 364 171 C381 162 396 153 409 142 L398 85 Z M314 -150 L352 -150 L402 -64 L370 -64 L314 -150 Z " />
<glyph glyph-name="Cacute" unicode="&#x106;" horiz-adv-x="553" d="M449 567 C493 567 541 560 584 539 L601 561 C558 586 506 595 455 595 C308 595 148 530 108 305 C60 31 243 -6 350 -6 C397 -6 457 7 508 32 L498 56 C450 33 396 22 348 22 C233 22 97 73 137 305 C177 523 324 567 449 567 L449 567 Z M519 743 L481 743 L430 657 L462 657 L519 743 Z " />
<glyph glyph-name="cacute" unicode="&#x107;" horiz-adv-x="431" d="M381 42 C330 25 293 22 264 22 C204 22 95 57 121 208 C145 347 268 383 323 383 C346 383 396 380 439 364 L454 387 C403 411 354 411 329 411 C244 411 115 351 91 207 C62 39 179 -3 251 -6 C290 -6 338 -5 389 18 L381 42 Z M398 557 L360 557 L310 471 L342 471 L398 557 Z " />
<glyph glyph-name="Ccircumflex" unicode="&#x108;" horiz-adv-x="553" d="M449 567 C493 567 541 560 584 539 L601 561 C558 586 506 595 455 595 C308 595 148 530 108 305 C60 31 243 -6 350 -6 C397 -6 457 7 508 32 L498 56 C450 33 396 22 348 22 C233 22 97 73 137 305 C177 523 324 567 449 567 L449 567 Z M434 749 L350 657 L387 657 L451 726 L489 657 L526 657 L476 749 L434 749 Z " />
<glyph glyph-name="ccircumflex" unicode="&#x109;" horiz-adv-x="431" d="M381 42 C330 25 293 22 264 22 C204 22 95 57 121 208 C145 347 268 383 323 383 C346 383 396 380 439 364 L454 387 C403 411 354 411 329 411 C244 411 115 351 91 207 C62 39 179 -3 251 -6 C290 -6 338 -5 389 18 L381 42 Z M333 563 L250 471 L287 471 L350 540 L389 471 L426 471 L375 563 L333 563 Z " />
<glyph glyph-name="Cdotaccent" unicode="&#x10a;" horiz-adv-x="553" d="M449 567 C493 567 541 560 584 539 L601 561 C558 586 506 595 455 595 C308 595 148 530 108 305 C60 31 243 -6 350 -6 C397 -6 457 7 508 32 L498 56 C450 33 396 22 348 22 C233 22 97 73 137 305 C177 523 324 567 449 567 L449 567 Z M433 657 L466 657 L474 698 L441 698 L433 657 Z " />
<glyph glyph-name="cdotaccent" unicode="&#x10b;" horiz-adv-x="431" d="M381 42 C330 25 293 22 264 22 C204 22 95 57 121 208 C145 347 268 383 323 383 C346 383 396 380 439 364 L454 387 C403 411 354 411 329 411 C244 411 115 351 91 207 C62 39 179 -3 251 -6 C290 -6 338 -5 389 18 L381 42 Z M317 471 L350 471 L357 512 L324 512 L317 471 Z " />
<glyph glyph-name="Ccaron" unicode="&#x10c;" horiz-adv-x="553" d="M449 567 C493 567 541 560 584 539 L601 561 C558 586 506 595 455 595 C308 595 148 530 108 305 C60 31 243 -6 350 -6 C397 -6 457 7 508 32 L498 56 C450 33 396 22 348 22 C233 22 97 73 137 305 C177 523 324 567 449 567 L449 567 Z M476 657 L560 749 L523 749 L459 680 L421 749 L384 749 L434 657 L476 657 Z " />
<glyph glyph-name="ccaron" unicode="&#x10d;" horiz-adv-x="431" d="M381 42 C330 25 293 22 264 22 C204 22 95 57 121 208 C145 347 268 383 323 383 C346 383 396 380 439 364 L454 387 C403 411 354 411 329 411 C244 411 115 351 91 207 C62 39 179 -3 251 -6 C290 -6 338 -5 389 18 L381 42 Z M360 471 L443 563 L406 563 L343 494 L304 563 L267 563 L318 471 L360 471 Z " />
<glyph glyph-name="Dcaron" unicode="&#x10e;" horiz-adv-x="610" d="M599 309 C636 521 506 590 371 590 L184 590 L80 0 L274 0 C381 0 554 48 599 309 L599 309 Z M114 28 L209 562 L363 562 C487 562 603 502 568 306 C523 54 356 28 254 28 L114 28 Z M372 657 L322 749 L359 749 L397 680 L461 749 L498 749 L414 657 L372 657 Z " />
<glyph glyph-name="dcaron" unicode="&#x10f;" horiz-adv-x="603" d="M556 590 L526 590 L478 322 C432 411 342 411 327 411 C226 411 120 350 96 209 C67 43 154 -6 230 -6 C257 -6 332 -6 436 82 L422 0 L452 0 L556 590 Z M444 125 C426 106 406 88 385 73 C349 46 299 22 244 22 C211 22 94 22 126 209 C153 368 280 383 325 383 C381 383 416 354 439 326 C452 309 462 291 469 270 L444 125 Z M672 590 L634 590 L583 504 L615 504 L672 590 Z " />
<glyph glyph-name="Dcroat" unicode="&#x110;" horiz-adv-x="651" d="M640 309 C677 521 547 590 412 590 L225 590 L174 304 L93 304 L88 276 L169 276 L121 0 L315 0 C422 0 595 48 640 309 L640 309 Z M155 28 L199 276 L372 276 L377 304 L204 304 L250 562 L404 562 C528 562 644 502 609 306 C564 54 397 28 295 28 L155 28 Z " />
<glyph glyph-name="dcroat" unicode="&#x111;" horiz-adv-x="554" d="M444 125 C426 106 406 88 385 73 C349 46 299 22 244 22 C211 22 94 22 126 209 C153 368 280 383 325 383 C381 383 416 354 439 326 C452 309 462 291 469 270 L444 125 Z M540 503 L630 503 L635 531 L545 531 L556 590 L526 590 L515 531 L420 531 L415 503 L510 503 L478 322 C432 411 342 411 327 411 C226 411 120 350 96 209 C67 43 154 -6 230 -6 C257 -6 332 -6 436 82 L422 0 L452 0 L540 503 Z " />
<glyph glyph-name="Emacron" unicode="&#x112;" horiz-adv-x="525" d="M554 562 L559 590 L184 590 L80 0 L455 0 L459 28 L114 28 L160 285 L442 285 L447 313 L165 313 L209 562 L554 562 Z M526 657 L531 685 L247 685 L242 657 L526 657 Z " />
<glyph glyph-name="emacron" unicode="&#x113;" horiz-adv-x="491" d="M466 231 C485 332 433 411 316 411 C181 411 114 317 95 202 C74 86 122 -6 260 -6 C320 -6 363 -1 396 6 L400 32 C358 24 332 22 276 22 C153 22 112 82 123 195 L460 195 L466 231 Z M129 223 C153 340 233 383 310 383 C379 383 454 351 435 223 L129 223 Z M470 471 L474 499 L190 499 L186 471 L470 471 Z " />
<glyph glyph-name="Edotaccent" unicode="&#x116;" horiz-adv-x="525" d="M554 562 L559 590 L184 590 L80 0 L455 0 L459 28 L114 28 L160 285 L442 285 L447 313 L165 313 L209 562 L554 562 Z M373 657 L406 657 L414 698 L381 698 L373 657 Z " />
<glyph glyph-name="edotaccent" unicode="&#x117;" horiz-adv-x="491" d="M466 231 C485 332 433 411 316 411 C181 411 114 317 95 202 C74 86 122 -6 260 -6 C320 -6 363 -1 396 6 L400 32 C358 24 332 22 276 22 C153 22 112 82 123 195 L460 195 L466 231 Z M129 223 C153 340 233 383 310 383 C379 383 454 351 435 223 L129 223 Z M312 471 L345 471 L352 512 L319 512 L312 471 Z " />
<glyph glyph-name="Eogonek" unicode="&#x118;" horiz-adv-x="525" d="M554 562 L559 590 L184 590 L80 0 L455 0 L459 28 L114 28 L160 285 L442 285 L447 313 L165 313 L209 562 L554 562 Z M355 -150 L393 -150 L443 -64 L411 -64 L355 -150 Z " />
<glyph glyph-name="eogonek" unicode="&#x119;" horiz-adv-x="491" d="M466 231 C485 332 433 411 316 411 C181 411 114 317 95 202 C74 86 122 -6 260 -6 C320 -6 363 -1 396 6 L400 32 C358 24 332 22 276 22 C153 22 112 82 123 195 L460 195 L466 231 Z M129 223 C153 340 233 383 310 383 C379 383 454 351 435 223 L129 223 Z M171 -150 L209 -150 L259 -64 L227 -64 L171 -150 Z " />
<glyph glyph-name="Ecaron" unicode="&#x11a;" horiz-adv-x="525" d="M554 562 L559 590 L184 590 L80 0 L455 0 L459 28 L114 28 L160 285 L442 285 L447 313 L165 313 L209 562 L554 562 Z M371 657 L321 749 L358 749 L396 680 L460 749 L497 749 L413 657 L371 657 Z " />
<glyph glyph-name="ecaron" unicode="&#x11b;" horiz-adv-x="491" d="M466 231 C485 332 433 411 316 411 C181 411 114 317 95 202 C74 86 122 -6 260 -6 C320 -6 363 -1 396 6 L400 32 C358 24 332 22 276 22 C153 22 112 82 123 195 L460 195 L466 231 Z M129 223 C153 340 233 383 310 383 C379 383 454 351 435 223 L129 223 Z M308 471 L257 563 L294 563 L333 494 L396 563 L433 563 L350 471 L308 471 Z " />
<glyph glyph-name="Gcircumflex" unicode="&#x11c;" horiz-adv-x="628" d="M466 274 L461 246 L561 246 L529 67 C467 35 392 22 348 22 C233 22 97 73 137 305 C177 523 324 567 449 567 C493 567 541 560 584 539 L601 561 C558 586 506 595 455 595 C308 595 148 530 108 305 C60 30 243 -6 350 -6 C398 -6 493 5 557 56 L596 274 L466 274 Z M468 749 L518 657 L481 657 L443 726 L379 657 L342 657 L426 749 L468 749 Z " />
<glyph glyph-name="gcircumflex" unicode="&#x11d;" horiz-adv-x="532" d="M449 125 C431 106 411 88 390 73 C354 46 304 22 249 22 C216 22 99 22 131 209 C158 368 285 383 330 383 C386 383 421 354 444 326 C457 309 467 291 474 270 L449 125 Z M425 -8 C397 -169 256 -170 214 -170 C187 -170 140 -165 97 -152 L82 -176 C117 -193 162 -198 214 -198 C287 -198 426 -173 455 -8 L528 405 L498 405 L483 322 C437 411 347 411 332 411 C231 411 125 350 101 209 C72 43 159 -6 235 -6 C262 -6 337 -6 441 82 L425 -8 Z M373 563 L424 471 L387 471 L348 540 L285 471 L248 471 L331 563 L373 563 Z " />
<glyph glyph-name="Gbreve" unicode="&#x11e;" horiz-adv-x="628" d="M466 274 L461 246 L561 246 L529 67 C467 35 392 22 348 22 C233 22 97 73 137 305 C177 523 324 567 449 567 C493 567 541 560 584 539 L601 561 C558 586 506 595 455 595 C308 595 148 530 108 305 C60 30 243 -6 350 -6 C398 -6 493 5 557 56 L596 274 L466 274 Z M447 657 C490 657 545 670 577 739 L541 739 C518 699 488 687 453 687 C418 687 391 699 383 739 L347 739 C355 670 404 657 447 657 L447 657 Z " />
<glyph glyph-name="gbreve" unicode="&#x11f;" horiz-adv-x="532" d="M449 125 C431 106 411 88 390 73 C354 46 304 22 249 22 C216 22 99 22 131 209 C158 368 285 383 330 383 C386 383 421 354 444 326 C457 309 467 291 474 270 L449 125 Z M425 -8 C397 -169 256 -170 214 -170 C187 -170 140 -165 97 -152 L82 -176 C117 -193 162 -198 214 -198 C287 -198 426 -173 455 -8 L528 405 L498 405 L483 322 C437 411 347 411 332 411 C231 411 125 350 101 209 C72 43 159 -6 235 -6 C262 -6 337 -6 441 82 L425 -8 Z M363 471 C405 471 460 484 492 553 L456 553 C433 513 403 501 368 501 C333 501 306 513 298 553 L262 553 C270 484 320 471 363 471 L363 471 Z " />
<glyph glyph-name="Gdotaccent" unicode="&#x120;" horiz-adv-x="628" d="M466 274 L461 246 L561 246 L529 67 C467 35 392 22 348 22 C233 22 97 73 137 305 C177 523 324 567 449 567 C493 567 541 560 584 539 L601 561 C558 586 506 595 455 595 C308 595 148 530 108 305 C60 30 243 -6 350 -6 C398 -6 493 5 557 56 L596 274 L466 274 Z M416 657 L449 657 L457 698 L424 698 L416 657 Z " />
<glyph glyph-name="gdotaccent" unicode="&#x121;" horiz-adv-x="532" d="M449 125 C431 106 411 88 390 73 C354 46 304 22 249 22 C216 22 99 22 131 209 C158 368 285 383 330 383 C386 383 421 354 444 326 C457 309 467 291 474 270 L449 125 Z M425 -8 C397 -169 256 -170 214 -170 C187 -170 140 -165 97 -152 L82 -176 C117 -193 162 -198 214 -198 C287 -198 426 -173 455 -8 L528 405 L498 405 L483 322 C437 411 347 411 332 411 C231 411 125 350 101 209 C72 43 159 -6 235 -6 C262 -6 337 -6 441 82 L425 -8 Z M335 471 L368 471 L375 512 L342 512 L335 471 Z " />
<glyph glyph-name="uni0122" unicode="&#x122;" horiz-adv-x="628" d="M466 274 L461 246 L561 246 L529 67 C467 35 392 22 348 22 C233 22 97 73 137 305 C177 523 324 567 449 567 C493 567 541 560 584 539 L601 561 C558 586 506 595 455 595 C308 595 148 530 108 305 C60 30 243 -6 350 -6 C398 -6 493 5 557 56 L596 274 L466 274 Z M256 -150 L294 -150 L344 -64 L312 -64 L256 -150 Z " />
<glyph glyph-name="uni0123" unicode="&#x123;" horiz-adv-x="532" d="M449 125 C431 106 411 88 390 73 C354 46 304 22 249 22 C216 22 99 22 131 209 C158 368 285 383 330 383 C386 383 421 354 444 326 C457 309 467 291 474 270 L449 125 Z M425 -8 C397 -169 256 -170 214 -170 C187 -170 140 -165 97 -152 L82 -176 C117 -193 162 -198 214 -198 C287 -198 426 -173 455 -8 L528 405 L498 405 L483 322 C437 411 347 411 332 411 C231 411 125 350 101 209 C72 43 159 -6 235 -6 C262 -6 337 -6 441 82 L425 -8 Z M365 471 L333 471 L383 557 L421 557 L365 471 Z " />
<glyph glyph-name="Hcircumflex" unicode="&#x124;" horiz-adv-x="626" d="M620 590 L568 296 L162 296 L214 590 L184 590 L80 0 L110 0 L157 268 L563 268 L516 0 L546 0 L650 590 L620 590 Z M466 749 L516 657 L479 657 L441 726 L377 657 L340 657 L424 749 L466 749 Z " />
<glyph glyph-name="hcircumflex" unicode="&#x125;" horiz-adv-x="509" d="M105 0 L152 269 C171 290 191 309 213 326 C250 354 299 383 350 383 C406 383 470 357 454 260 L409 0 L439 0 L485 266 C501 357 445 411 361 411 C333 411 258 412 159 310 L209 590 L179 590 L75 0 L105 0 Z M316 749 L366 657 L329 657 L291 726 L227 657 L190 657 L274 749 L316 749 Z " />
<glyph glyph-name="Hbar" unicode="&#x126;" horiz-adv-x="664" d="M120 512 L189 512 L99 0 L129 0 L176 268 L582 268 L535 0 L565 0 L655 512 L724 512 L729 540 L660 540 L669 590 L639 590 L630 540 L224 540 L233 590 L203 590 L194 540 L125 540 L120 512 Z M181 296 L219 512 L625 512 L587 296 L181 296 Z " />
<glyph glyph-name="hbar" unicode="&#x127;" horiz-adv-x="539" d="M223 503 L318 503 L323 531 L228 531 L239 590 L209 590 L198 531 L108 531 L103 503 L193 503 L105 0 L135 0 L182 269 C201 290 221 309 243 326 C280 354 329 383 380 383 C436 383 500 357 484 260 L439 0 L469 0 L515 266 C531 357 475 411 391 411 C363 411 288 412 189 310 L223 503 Z " />
<glyph glyph-name="Itilde" unicode="&#x128;" horiz-adv-x="190" d="M80 0 L110 0 L214 590 L184 590 L80 0 Z M318 665 C301 657 290 657 275 657 C227 657 196 698 145 698 C138 698 127 697 120 696 L116 722 C125 725 136 726 150 726 C201 726 240 685 279 685 C287 685 298 687 313 690 L318 665 Z " />
<glyph glyph-name="itilde" unicode="&#x129;" horiz-adv-x="190" d="M285 479 C269 471 258 471 243 471 C195 471 162 512 112 512 C105 512 95 511 87 510 L83 536 C93 539 104 540 117 540 C168 540 207 499 246 499 C254 499 265 501 280 504 L285 479 Z M80 0 L110 0 L181 405 L151 405 L80 0 Z " />
<glyph glyph-name="Imacron" unicode="&#x12a;" horiz-adv-x="190" d="M80 0 L110 0 L214 590 L184 590 L80 0 Z M291 657 L296 685 L134 685 L129 657 L291 657 Z " />
<glyph glyph-name="imacron" unicode="&#x12b;" horiz-adv-x="190" d="M80 0 L110 0 L181 405 L151 405 L80 0 Z M259 471 L263 499 L101 499 L97 471 L259 471 Z " />
<glyph glyph-name="Iogonek" unicode="&#x12e;" horiz-adv-x="190" d="M80 0 L110 0 L214 590 L184 590 L80 0 Z M11 -150 L49 -150 L99 -64 L67 -64 L11 -150 Z " />
<glyph glyph-name="iogonek" unicode="&#x12f;" horiz-adv-x="190" d="M80 0 L110 0 L181 405 L151 405 L80 0 Z M162 470 L192 470 L202 526 L172 526 L162 470 Z M12 -150 L50 -150 L100 -64 L68 -64 L12 -150 Z " />
<glyph glyph-name="Idotaccent" unicode="&#x130;" horiz-adv-x="190" d="M81 0 L111 0 L215 590 L185 590 L81 0 Z M196 657 L226 657 L236 713 L206 713 L196 657 Z " />
<glyph glyph-name="dotlessi" unicode="&#x131;" horiz-adv-x="190" d="M80 0 L110 0 L181 405 L151 405 L80 0 Z " />
<glyph glyph-name="Jcircumflex" unicode="&#x134;" horiz-adv-x="466" d="M390 194 C361 34 228 22 175 22 C147 22 97 22 50 37 L37 13 C77 -6 139 -6 173 -6 C244 -3 387 15 419 192 L490 590 L460 590 L390 194 Z M451 749 L501 657 L464 657 L426 726 L362 657 L325 657 L409 749 L451 749 Z " />
<glyph glyph-name="jcircumflex" unicode="&#x135;" horiz-adv-x="190" d="M181 405 L151 405 L76 -22 C57 -124 34 -169 -71 -169 C-82 -169 -95 -169 -106 -168 C-113 -168 -119 -168 -126 -167 L-131 -194 C-118 -197 -93 -198 -57 -198 C56 -198 89 -120 105 -27 L181 405 Z M215 563 L266 471 L229 471 L190 540 L127 471 L90 471 L173 563 L215 563 Z " />
<glyph glyph-name="uni0136" unicode="&#x136;" horiz-adv-x="548" d="M192 297 L624 590 L575 590 L164 310 L214 590 L184 590 L80 0 L110 0 L159 279 L479 0 L528 0 L192 297 Z M200 -150 L238 -150 L288 -64 L256 -64 L200 -150 Z " />
<glyph glyph-name="uni0137" unicode="&#x137;" horiz-adv-x="427" d="M209 590 L179 590 L75 0 L105 0 L144 222 L363 0 L409 0 L180 230 L454 405 L402 405 L147 242 L209 590 Z M158 -150 L196 -150 L246 -64 L214 -64 L158 -150 Z " />
<glyph glyph-name="kgreenlandic" unicode="&#x138;" horiz-adv-x="427" d="M176 405 L146 405 L75 0 L105 0 L144 222 L363 0 L409 0 L180 230 L454 405 L402 405 L147 242 L176 405 Z " />
<glyph glyph-name="Lacute" unicode="&#x139;" horiz-adv-x="485" d="M214 590 L184 590 L80 0 L430 0 L434 28 L114 28 L214 590 Z M227 657 L195 657 L246 743 L284 743 L227 657 Z " />
<glyph glyph-name="lacute" unicode="&#x13a;" horiz-adv-x="190" d="M214 590 L184 590 L80 0 L110 0 L214 590 Z M226 657 L194 657 L245 743 L283 743 L226 657 Z " />
<glyph glyph-name="uni013B" unicode="&#x13b;" horiz-adv-x="485" d="M214 590 L184 590 L80 0 L430 0 L434 28 L114 28 L214 590 Z M183 -150 L221 -150 L271 -64 L239 -64 L183 -150 Z " />
<glyph glyph-name="uni013C" unicode="&#x13c;" horiz-adv-x="190" d="M80 0 L110 0 L214 590 L184 590 L80 0 Z M11 -150 L49 -150 L99 -64 L67 -64 L11 -150 Z " />
<glyph glyph-name="Lcaron" unicode="&#x13d;" horiz-adv-x="485" d="M214 590 L184 590 L80 0 L430 0 L434 28 L114 28 L214 590 Z M462 590 L424 590 L373 504 L405 504 L462 590 Z " />
<glyph glyph-name="lcaron" unicode="&#x13e;" horiz-adv-x="261" d="M80 0 L110 0 L214 590 L184 590 L80 0 Z M330 590 L292 590 L241 504 L273 504 L330 590 Z " />
<glyph glyph-name="Lslash" unicode="&#x141;" horiz-adv-x="551" d="M357 366 L363 397 L238 357 L280 590 L250 590 L207 347 L95 312 L89 282 L201 317 L146 0 L496 0 L500 28 L180 28 L233 327 L357 366 Z " />
<glyph glyph-name="lslash" unicode="&#x142;" horiz-adv-x="362" d="M393 407 L399 438 L259 394 L294 590 L264 590 L227 384 L100 345 L95 315 L222 354 L160 0 L190 0 L254 364 L393 407 Z " />
<glyph glyph-name="Nacute" unicode="&#x143;" horiz-adv-x="632" d="M508 0 L552 0 L656 590 L627 590 L528 30 L229 590 L184 590 L80 0 L110 0 L208 561 L508 0 Z M439 657 L407 657 L458 743 L496 743 L439 657 Z " />
<glyph glyph-name="nacute" unicode="&#x144;" horiz-adv-x="509" d="M105 0 L152 269 C171 290 191 309 213 326 C250 354 299 383 350 383 C406 383 470 357 454 260 L409 0 L439 0 L485 266 C501 357 445 411 361 411 C333 411 258 412 159 310 L176 405 L146 405 L75 0 L105 0 Z M358 471 L326 471 L376 557 L414 557 L358 471 Z " />
<glyph glyph-name="uni0145" unicode="&#x145;" horiz-adv-x="632" d="M508 0 L552 0 L656 590 L627 590 L528 30 L229 590 L184 590 L80 0 L110 0 L208 561 L508 0 Z M246 -150 L284 -150 L334 -64 L302 -64 L246 -150 Z " />
<glyph glyph-name="uni0146" unicode="&#x146;" horiz-adv-x="509" d="M105 0 L152 269 C171 290 191 309 213 326 C250 354 299 383 350 383 C406 383 470 357 454 260 L409 0 L439 0 L485 266 C501 357 445 411 361 411 C333 411 258 412 159 310 L176 405 L146 405 L75 0 L105 0 Z M183 -150 L221 -150 L271 -64 L239 -64 L183 -150 Z " />
<glyph glyph-name="Ncaron" unicode="&#x147;" horiz-adv-x="632" d="M508 0 L552 0 L656 590 L627 590 L528 30 L229 590 L184 590 L80 0 L110 0 L208 561 L508 0 Z M424 657 L374 749 L411 749 L449 680 L513 749 L550 749 L466 657 L424 657 Z " />
<glyph glyph-name="ncaron" unicode="&#x148;" horiz-adv-x="509" d="M105 0 L152 269 C171 290 191 309 213 326 C250 354 299 383 350 383 C406 383 470 357 454 260 L409 0 L439 0 L485 266 C501 357 445 411 361 411 C333 411 258 412 159 310 L176 405 L146 405 L75 0 L105 0 Z M308 471 L257 563 L294 563 L333 494 L396 563 L433 563 L350 471 L308 471 Z " />
<glyph glyph-name="Eng" unicode="&#x14a;" horiz-adv-x="632" d="M656 590 L626 590 L527 30 L229 590 L184 590 L80 0 L110 0 L208 561 L518 -20 L517 -24 C498 -125 477 -169 370 -169 C359 -169 346 -169 335 -168 C328 -168 322 -168 315 -167 L310 -194 C323 -197 348 -198 384 -198 C498 -198 531 -120 547 -27 L656 590 Z " />
<glyph glyph-name="eng" unicode="&#x14b;" horiz-adv-x="509" d="M105 0 L152 269 C171 290 191 309 213 326 C250 354 299 383 350 383 C406 383 470 357 454 260 L405 -22 C386 -124 364 -169 257 -169 C246 -169 233 -169 222 -168 C215 -168 209 -168 202 -167 L197 -194 C210 -197 235 -198 271 -198 C385 -198 418 -120 434 -27 L485 266 C501 357 445 411 361 411 C333 411 258 412 159 310 L176 405 L146 405 L75 0 L105 0 Z " />
<glyph glyph-name="Omacron" unicode="&#x14c;" horiz-adv-x="686" d="M346 22 C253 22 108 73 148 306 C185 511 334 567 442 567 C550 567 681 511 644 306 C604 72 438 22 346 22 L346 22 Z M341 -6 C448 -6 630 51 675 309 C712 520 573 595 447 595 C321 595 156 520 119 309 C74 51 232 -6 341 -6 L341 -6 Z M601 657 L606 685 L322 685 L317 657 L601 657 Z " />
<glyph glyph-name="omacron" unicode="&#x14d;" horiz-adv-x="522" d="M264 22 C212 22 97 45 126 205 C150 344 256 383 328 383 C399 383 492 344 468 205 C439 45 316 22 264 22 L264 22 Z M259 -6 C333 -6 469 37 498 207 C522 351 422 411 333 411 C245 411 120 351 96 207 C67 37 183 -6 259 -6 L259 -6 Z M486 471 L490 499 L206 499 L202 471 L486 471 Z " />
<glyph glyph-name="Ohungarumlaut" unicode="&#x150;" horiz-adv-x="686" d="M346 22 C253 22 108 73 148 306 C185 511 334 567 442 567 C550 567 681 511 644 306 C604 72 438 22 346 22 L346 22 Z M341 -6 C448 -6 630 51 675 309 C712 520 573 595 447 595 C321 595 156 520 119 309 C74 51 232 -6 341 -6 L341 -6 Z M412 657 L382 657 L422 743 L458 743 L412 657 Z M540 657 L510 657 L550 743 L586 743 L540 657 Z " />
<glyph glyph-name="ohungarumlaut" unicode="&#x151;" horiz-adv-x="522" d="M264 22 C212 22 97 45 126 205 C150 344 256 383 328 383 C399 383 492 344 468 205 C439 45 316 22 264 22 L264 22 Z M259 -6 C333 -6 469 37 498 207 C522 351 422 411 333 411 C245 411 120 351 96 207 C67 37 183 -6 259 -6 L259 -6 Z M295 471 L265 471 L304 557 L340 557 L295 471 Z M423 471 L393 471 L432 557 L468 557 L423 471 Z " />
<glyph glyph-name="OE" unicode="&#x152;" horiz-adv-x="859" d="M888 562 L893 590 L522 590 C499 594 478 595 455 595 C308 595 148 530 108 305 C60 30 243 -6 350 -6 C369 -6 391 -4 414 0 L789 0 L793 28 L448 28 L494 285 L776 285 L781 313 L499 313 L543 562 L888 562 Z M348 22 C233 22 97 73 137 305 C177 523 324 567 449 567 C469 567 490 566 513 562 L419 30 C394 25 370 22 348 22 L348 22 Z " />
<glyph glyph-name="oe" unicode="&#x153;" horiz-adv-x="863" d="M838 231 C857 332 805 411 688 411 C591 411 531 364 496 293 C478 375 400 411 333 411 C245 411 120 351 96 207 C67 37 183 -6 259 -6 C317 -6 413 20 466 115 C478 43 529 -6 632 -6 C692 -6 735 -1 768 6 L772 32 C730 24 704 22 648 22 C525 22 484 82 495 195 L832 195 L838 231 Z M264 22 C212 22 97 45 126 205 C150 344 256 383 328 383 C398 383 488 345 469 210 L466 193 C439 45 314 22 264 22 L264 22 Z M501 223 C525 340 605 383 682 383 C751 383 826 351 807 223 L501 223 Z " />
<glyph glyph-name="Racute" unicode="&#x154;" horiz-adv-x="566" d="M587 418 C611 547 551 590 445 590 L184 590 L80 0 L110 0 L150 230 L329 230 C396 230 439 194 458 90 L475 0 L507 0 L497 52 C484 116 471 206 423 233 C555 241 579 373 587 418 L587 418 Z M155 258 L209 562 L437 562 C507 562 581 549 557 417 C530 262 451 258 383 258 L155 258 Z M390 657 L358 657 L409 743 L447 743 L390 657 Z " />
<glyph glyph-name="racute" unicode="&#x155;" horiz-adv-x="348" d="M176 405 L146 405 L75 0 L105 0 L150 257 C161 280 175 301 194 320 C225 351 276 383 353 383 C357 383 368 382 375 381 L380 409 C373 412 362 411 358 411 C345 411 234 411 162 325 L176 405 Z M190 471 L158 471 L208 557 L246 557 L190 471 Z " />
<glyph glyph-name="uni0156" unicode="&#x156;" horiz-adv-x="566" d="M587 418 C611 547 551 590 445 590 L184 590 L80 0 L110 0 L150 230 L329 230 C396 230 439 194 458 90 L475 0 L507 0 L497 52 C484 116 471 206 423 233 C555 241 579 373 587 418 L587 418 Z M155 258 L209 562 L437 562 C507 562 581 549 557 417 C530 262 451 258 383 258 L155 258 Z M210 -150 L248 -150 L298 -64 L266 -64 L210 -150 Z " />
<glyph glyph-name="uni0157" unicode="&#x157;" horiz-adv-x="348" d="M176 405 L146 405 L75 0 L105 0 L150 257 C161 280 175 301 194 320 C225 351 276 383 353 383 C357 383 368 382 375 381 L380 409 C373 412 362 411 358 411 C345 411 234 411 162 325 L176 405 Z M48 -150 L86 -150 L136 -64 L104 -64 L48 -150 Z " />
<glyph glyph-name="Rcaron" unicode="&#x158;" horiz-adv-x="566" d="M587 418 C611 547 551 590 445 590 L184 590 L80 0 L110 0 L150 230 L329 230 C396 230 439 194 458 90 L475 0 L507 0 L497 52 C484 116 471 206 423 233 C555 241 579 373 587 418 L587 418 Z M155 258 L209 562 L437 562 C507 562 581 549 557 417 C530 262 451 258 383 258 L155 258 Z M365 657 L315 749 L352 749 L390 680 L454 749 L491 749 L407 657 L365 657 Z " />
<glyph glyph-name="rcaron" unicode="&#x159;" horiz-adv-x="348" d="M176 405 L146 405 L75 0 L105 0 L150 257 C161 280 175 301 194 320 C225 351 276 383 353 383 C357 383 368 382 375 381 L380 409 C373 412 362 411 358 411 C345 411 234 411 162 325 L176 405 Z M241 471 L190 563 L227 563 L266 494 L329 563 L366 563 L283 471 L241 471 Z " />
<glyph glyph-name="Sacute" unicode="&#x15a;" horiz-adv-x="545" d="M384 595 C269 595 155 573 134 451 C103 275 506 287 480 140 C464 45 364 22 273 22 C198 22 133 38 90 51 L86 23 C125 7 191 -6 272 -6 C395 -6 496 38 515 142 C543 307 143 307 167 451 C186 567 310 567 380 567 C403 567 439 563 470 559 C487 556 506 554 525 552 L529 578 C490 591 431 595 384 595 L384 595 Z M395 657 L363 657 L414 743 L452 743 L395 657 Z " />
<glyph glyph-name="sacute" unicode="&#x15b;" horiz-adv-x="436" d="M294 411 C215 411 122 387 109 307 C89 189 392 191 376 98 C363 31 273 22 216 22 C189 22 157 28 130 35 C114 38 98 43 83 48 L78 20 C109 7 158 -6 217 -6 C328 -6 394 30 406 101 C426 218 123 213 139 308 C150 365 203 383 311 383 C330 383 389 373 403 370 L407 396 C383 403 345 411 294 411 L294 411 Z M316 471 L284 471 L334 557 L372 557 L316 471 Z " />
<glyph glyph-name="Scircumflex" unicode="&#x15c;" horiz-adv-x="545" d="M384 595 C269 595 155 573 134 451 C103 275 506 287 480 140 C464 45 364 22 273 22 C198 22 133 38 90 51 L86 23 C125 7 191 -6 272 -6 C395 -6 496 38 515 142 C543 307 143 307 167 451 C186 567 310 567 380 567 C403 567 439 563 470 559 C487 556 506 554 525 552 L529 578 C490 591 431 595 384 595 L384 595 Z M407 749 L457 657 L420 657 L382 726 L318 657 L281 657 L365 749 L407 749 Z " />
<glyph glyph-name="scircumflex" unicode="&#x15d;" horiz-adv-x="436" d="M294 411 C215 411 122 387 109 307 C89 189 392 191 376 98 C363 31 273 22 216 22 C189 22 157 28 130 35 C114 38 98 43 83 48 L78 20 C109 7 158 -6 217 -6 C328 -6 394 30 406 101 C426 218 123 213 139 308 C150 365 203 383 311 383 C330 383 389 373 403 370 L407 396 C383 403 345 411 294 411 L294 411 Z M343 563 L394 471 L357 471 L318 540 L255 471 L218 471 L301 563 L343 563 Z " />
<glyph glyph-name="Scedilla" unicode="&#x15e;" horiz-adv-x="545" d="M384 595 C269 595 155 573 134 451 C103 275 506 287 480 140 C464 45 364 22 273 22 C198 22 133 38 90 51 L86 23 C125 7 191 -6 272 -6 C395 -6 496 38 515 142 C543 307 143 307 167 451 C186 567 310 567 380 567 C403 567 439 563 470 559 C487 556 506 554 525 552 L529 578 C490 591 431 595 384 595 L384 595 Z M211 -150 L249 -150 L299 -64 L267 -64 L211 -150 Z " />
<glyph glyph-name="scedilla" unicode="&#x15f;" horiz-adv-x="436" d="M294 411 C215 411 122 387 109 307 C89 189 392 191 376 98 C363 31 273 22 216 22 C189 22 157 28 130 35 C114 38 98 43 83 48 L78 20 C109 7 158 -6 217 -6 C328 -6 394 30 406 101 C426 218 123 213 139 308 C150 365 203 383 311 383 C330 383 389 373 403 370 L407 396 C383 403 345 411 294 411 L294 411 Z M171 -150 L209 -150 L259 -64 L227 -64 L171 -150 Z " />
<glyph glyph-name="Scaron" unicode="&#x160;" horiz-adv-x="545" d="M384 595 C269 595 155 573 134 451 C103 275 506 287 480 140 C464 45 364 22 273 22 C198 22 133 38 90 51 L86 23 C125 7 191 -6 272 -6 C395 -6 496 38 515 142 C543 307 143 307 167 451 C186 567 310 567 380 567 C403 567 439 563 470 559 C487 556 506 554 525 552 L529 578 C490 591 431 595 384 595 L384 595 Z M357 657 L307 749 L344 749 L382 680 L446 749 L483 749 L399 657 L357 657 Z " />
<glyph glyph-name="scaron" unicode="&#x161;" horiz-adv-x="436" d="M294 411 C215 411 122 387 109 307 C89 189 392 191 376 98 C363 31 273 22 216 22 C189 22 157 28 130 35 C114 38 98 43 83 48 L78 20 C109 7 158 -6 217 -6 C328 -6 394 30 406 101 C426 218 123 213 139 308 C150 365 203 383 311 383 C330 383 389 373 403 370 L407 396 C383 403 345 411 294 411 L294 411 Z M286 471 L235 563 L272 563 L311 494 L374 563 L411 563 L328 471 L286 471 Z " />
<glyph glyph-name="uni0162" unicode="&#x162;" horiz-adv-x="540" d="M154 562 L354 562 L255 0 L285 0 L384 562 L584 562 L589 590 L159 590 L154 562 Z M184 -150 L222 -150 L272 -64 L240 -64 L184 -150 Z " />
<glyph glyph-name="uni0163" unicode="&#x163;" horiz-adv-x="358" d="M215 551 L189 405 L106 405 L101 377 L184 377 L144 151 C131 72 134 -6 250 -6 C285 -6 308 -4 317 -1 L322 24 C310 21 295 22 284 22 C187 22 156 42 177 166 L214 377 L384 377 L389 405 L219 405 L249 573 L240 573 L215 551 Z M158 -150 L196 -150 L246 -64 L214 -64 L158 -150 Z " />
<glyph glyph-name="Tcaron" unicode="&#x164;" horiz-adv-x="540" d="M154 562 L354 562 L255 0 L285 0 L384 562 L584 562 L589 590 L159 590 L154 562 Z M364 657 L314 749 L351 749 L389 680 L453 749 L490 749 L406 657 L364 657 Z " />
<glyph glyph-name="tcaron" unicode="&#x165;" horiz-adv-x="397" d="M225 551 L199 405 L116 405 L111 377 L194 377 L154 151 C141 72 144 -6 260 -6 C295 -6 318 -4 327 -1 L332 24 C320 21 305 22 294 22 C197 22 166 42 187 166 L224 377 L394 377 L399 405 L229 405 L259 573 L250 573 L225 551 Z M466 567 L428 567 L378 481 L410 481 L466 567 Z " />
<glyph glyph-name="Tbar" unicode="&#x166;" horiz-adv-x="540" d="M179 274 L303 274 L255 0 L285 0 L333 274 L457 274 L462 302 L338 302 L384 562 L584 562 L589 590 L159 590 L154 562 L354 562 L308 302 L184 302 L179 274 Z " />
<glyph glyph-name="tbar" unicode="&#x167;" horiz-adv-x="358" d="M79 254 L74 226 L157 226 L144 151 C131 72 134 -6 250 -6 C285 -6 308 -4 317 -1 L322 24 C310 21 295 22 284 22 C187 22 156 42 177 166 L187 226 L357 226 L362 254 L192 254 L214 377 L384 377 L389 405 L219 405 L249 573 L240 573 L215 551 L189 405 L106 405 L101 377 L184 377 L162 254 L79 254 Z " />
<glyph glyph-name="Utilde" unicode="&#x168;" horiz-adv-x="632" d="M314 -6 C421 -6 557 34 600 275 L656 590 L626 590 L570 277 C535 74 425 22 319 22 C212 22 123 74 158 277 L214 590 L184 590 L128 275 C85 34 209 -6 314 -6 L314 -6 Z M530 665 C513 657 502 657 487 657 C439 657 408 698 357 698 C350 698 339 697 332 696 L328 722 C337 725 348 726 362 726 C413 726 452 685 491 685 C499 685 510 687 525 690 L530 665 Z " />
<glyph glyph-name="utilde" unicode="&#x169;" horiz-adv-x="509" d="M475 405 L427 136 C408 115 387 96 365 79 C328 50 280 22 229 22 C173 22 109 48 125 145 L171 405 L141 405 L94 139 C78 48 134 -6 218 -6 C245 -6 321 -6 420 95 L404 0 L434 0 L505 405 L475 405 Z M434 479 C418 471 407 471 392 471 C344 471 311 512 261 512 C254 512 244 511 236 510 L232 536 C242 539 253 540 266 540 C317 540 356 499 395 499 C403 499 414 501 429 504 L434 479 Z " />
<glyph glyph-name="Umacron" unicode="&#x16a;" horiz-adv-x="632" d="M314 -6 C421 -6 557 34 600 275 L656 590 L626 590 L570 277 C535 74 425 22 319 22 C212 22 123 74 158 277 L214 590 L184 590 L128 275 C85 34 209 -6 314 -6 L314 -6 Z M573 657 L578 685 L294 685 L289 657 L573 657 Z " />
<glyph glyph-name="umacron" unicode="&#x16b;" horiz-adv-x="514" d="M480 405 L432 136 C413 115 392 96 370 79 C333 50 285 22 234 22 C178 22 114 48 130 145 L176 405 L146 405 L99 139 C83 48 139 -6 223 -6 C250 -6 326 -6 425 95 L409 0 L439 0 L510 405 L480 405 Z M482 471 L486 499 L202 499 L198 471 L482 471 Z " />
<glyph glyph-name="Ubreve" unicode="&#x16c;" horiz-adv-x="632" d="M314 -6 C421 -6 557 34 600 275 L656 590 L626 590 L570 277 C535 74 425 22 319 22 C212 22 123 74 158 277 L214 590 L184 590 L128 275 C85 34 209 -6 314 -6 L314 -6 Z M431 657 C474 657 529 670 561 739 L525 739 C502 699 472 687 437 687 C402 687 375 699 367 739 L331 739 C339 670 388 657 431 657 L431 657 Z " />
<glyph glyph-name="ubreve" unicode="&#x16d;" horiz-adv-x="509" d="M475 405 L427 136 C408 115 387 96 365 79 C328 50 280 22 229 22 C173 22 109 48 125 145 L171 405 L141 405 L94 139 C78 48 134 -6 218 -6 C245 -6 321 -6 420 95 L404 0 L434 0 L505 405 L475 405 Z M335 471 C377 471 432 484 464 553 L428 553 C405 513 375 501 340 501 C305 501 278 513 270 553 L234 553 C242 484 292 471 335 471 L335 471 Z " />
<glyph glyph-name="Uring" unicode="&#x16e;" horiz-adv-x="632" d="M314 -6 C421 -6 557 34 600 275 L656 590 L626 590 L570 277 C535 74 425 22 319 22 C212 22 123 74 158 277 L214 590 L184 590 L128 275 C85 34 209 -6 314 -6 L314 -6 Z M349 754 C340 701 369 657 430 657 C491 657 536 701 545 754 C556 807 526 851 465 851 C404 851 360 807 349 754 L349 754 Z M516 754 C508 707 474 685 435 685 C396 685 370 707 378 754 C387 801 421 823 460 823 C499 823 525 801 516 754 L516 754 Z " />
<glyph glyph-name="uring" unicode="&#x16f;" horiz-adv-x="509" d="M475 405 L427 136 C408 115 387 96 365 79 C328 50 280 22 229 22 C173 22 109 48 125 145 L171 405 L141 405 L94 139 C78 48 134 -6 218 -6 C245 -6 321 -6 420 95 L404 0 L434 0 L505 405 L475 405 Z M258 568 C247 515 278 471 339 471 C400 471 443 515 454 568 C463 621 434 665 373 665 C312 665 267 621 258 568 L258 568 Z M425 568 C416 521 382 499 343 499 C304 499 278 521 287 568 C295 615 329 637 368 637 C407 637 433 615 425 568 L425 568 Z " />
<glyph glyph-name="Uhungarumlaut" unicode="&#x170;" horiz-adv-x="632" d="M314 -6 C421 -6 557 34 600 275 L656 590 L626 590 L570 277 C535 74 425 22 319 22 C212 22 123 74 158 277 L214 590 L184 590 L128 275 C85 34 209 -6 314 -6 L314 -6 Z M385 657 L355 657 L395 743 L431 743 L385 657 Z M513 657 L483 657 L523 743 L559 743 L513 657 Z " />
<glyph glyph-name="uhungarumlaut" unicode="&#x171;" horiz-adv-x="509" d="M475 405 L427 136 C408 115 387 96 365 79 C328 50 280 22 229 22 C173 22 109 48 125 145 L171 405 L141 405 L94 139 C78 48 134 -6 218 -6 C245 -6 321 -6 420 95 L404 0 L434 0 L505 405 L475 405 Z M286 471 L256 471 L295 557 L331 557 L286 471 Z M414 471 L384 471 L423 557 L459 557 L414 471 Z " />
<glyph glyph-name="Uogonek" unicode="&#x172;" horiz-adv-x="632" d="M314 -6 C421 -6 557 34 600 275 L656 590 L626 590 L570 277 C535 74 425 22 319 22 C212 22 123 74 158 277 L214 590 L184 590 L128 275 C85 34 209 -6 314 -6 L314 -6 Z M236 -150 L274 -150 L324 -64 L292 -64 L236 -150 Z " />
<glyph glyph-name="uogonek" unicode="&#x173;" horiz-adv-x="509" d="M475 405 L427 136 C408 115 387 96 365 79 C328 50 280 22 229 22 C173 22 109 48 125 145 L171 405 L141 405 L94 139 C78 48 134 -6 218 -6 C245 -6 321 -6 420 95 L404 0 L434 0 L505 405 L475 405 Z M334 -150 L372 -150 L422 -64 L390 -64 L334 -150 Z " />
<glyph glyph-name="Ydieresis" unicode="&#x178;" horiz-adv-x="542" d="M311 231 L173 590 L139 590 L291 199 L256 0 L286 0 L321 199 L611 590 L577 590 L311 231 Z M310 657 L343 657 L351 698 L318 698 L310 657 Z M431 657 L464 657 L472 698 L439 698 L431 657 Z " />
<glyph glyph-name="Zacute" unicode="&#x179;" horiz-adv-x="526" d="M161 562 L531 562 L66 39 L60 0 L466 0 L470 28 L92 28 L564 557 L570 590 L166 590 L161 562 Z M397 657 L365 657 L416 743 L454 743 L397 657 Z " />
<glyph glyph-name="zacute" unicode="&#x17a;" horiz-adv-x="444" d="M136 377 L408 377 L75 31 L70 0 L374 0 L378 28 L111 28 L439 371 L445 405 L141 405 L136 377 Z M321 471 L289 471 L339 557 L377 557 L321 471 Z " />
<glyph glyph-name="Zdotaccent" unicode="&#x17b;" horiz-adv-x="526" d="M161 562 L531 562 L66 39 L60 0 L466 0 L470 28 L92 28 L564 557 L570 590 L166 590 L161 562 Z M363 657 L396 657 L404 698 L371 698 L363 657 Z " />
<glyph glyph-name="zdotaccent" unicode="&#x17c;" horiz-adv-x="444" d="M136 377 L408 377 L75 31 L70 0 L374 0 L378 28 L111 28 L439 371 L445 405 L141 405 L136 377 Z M294 471 L327 471 L334 512 L301 512 L294 471 Z " />
<glyph glyph-name="Zcaron" unicode="&#x17d;" horiz-adv-x="526" d="M161 562 L531 562 L66 39 L60 0 L466 0 L470 28 L92 28 L564 557 L570 590 L166 590 L161 562 Z M365 657 L315 749 L352 749 L390 680 L454 749 L491 749 L407 657 L365 657 Z " />
<glyph glyph-name="zcaron" unicode="&#x17e;" horiz-adv-x="444" d="M136 377 L408 377 L75 31 L70 0 L374 0 L378 28 L111 28 L439 371 L445 405 L141 405 L136 377 Z M291 471 L240 563 L277 563 L316 494 L379 563 L416 563 L333 471 L291 471 Z " />
<glyph glyph-name="florin" unicode="&#x192;" horiz-adv-x="381" d="M439 589 C428 593 415 595 382 595 C285 595 232 540 209 415 L207 405 L111 405 L106 377 L202 377 L132 -22 C113 -124 90 -169 -15 -169 C-26 -169 -39 -169 -50 -168 C-57 -168 -63 -168 -70 -167 L-75 -194 C-62 -197 -37 -198 -1 -198 C112 -198 145 -120 161 -27 L232 377 L401 377 L406 405 L237 405 L240 420 C259 533 309 566 389 566 C408 566 420 567 435 564 L439 589 Z " />
<glyph glyph-name="uni0218" unicode="&#x218;" horiz-adv-x="545" d="M384 595 C269 595 155 573 134 451 C103 275 506 287 480 140 C464 45 364 22 273 22 C198 22 133 38 90 51 L86 23 C125 7 191 -6 272 -6 C395 -6 496 38 515 142 C543 307 143 307 167 451 C186 567 310 567 380 567 C403 567 439 563 470 559 C487 556 506 554 525 552 L529 578 C490 591 431 595 384 595 L384 595 Z M211 -150 L249 -150 L299 -64 L267 -64 L211 -150 Z " />
<glyph glyph-name="uni0219" unicode="&#x219;" horiz-adv-x="436" d="M294 411 C215 411 122 387 109 307 C89 189 392 191 376 98 C363 31 273 22 216 22 C189 22 157 28 130 35 C114 38 98 43 83 48 L78 20 C109 7 158 -6 217 -6 C328 -6 394 30 406 101 C426 218 123 213 139 308 C150 365 203 383 311 383 C330 383 389 373 403 370 L407 396 C383 403 345 411 294 411 L294 411 Z M171 -150 L209 -150 L259 -64 L227 -64 L171 -150 Z " />
<glyph glyph-name="uni021A" unicode="&#x21a;" horiz-adv-x="540" d="M154 562 L354 562 L255 0 L285 0 L384 562 L584 562 L589 590 L159 590 L154 562 Z M184 -150 L222 -150 L272 -64 L240 -64 L184 -150 Z " />
<glyph glyph-name="uni021B" unicode="&#x21b;" horiz-adv-x="358" d="M215 551 L189 405 L106 405 L101 377 L184 377 L144 151 C131 72 134 -6 250 -6 C285 -6 308 -4 317 -1 L322 24 C310 21 295 22 284 22 C187 22 156 42 177 166 L214 377 L384 377 L389 405 L219 405 L249 573 L240 573 L215 551 Z M158 -150 L196 -150 L246 -64 L214 -64 L158 -150 Z " />
<glyph glyph-name="circumflex" unicode="&#x2c6;" horiz-adv-x="336" d="M251 590 L167 498 L204 498 L267 567 L306 498 L343 498 L293 590 L251 590 Z " />
<glyph glyph-name="caron" unicode="&#x2c7;" horiz-adv-x="336" d="M276 498 L360 590 L323 590 L259 521 L221 590 L184 590 L234 498 L276 498 Z " />
<glyph glyph-name="breve" unicode="&#x2d8;" horiz-adv-x="390" d="M284 508 C326 508 382 521 414 590 L378 590 C355 550 324 538 289 538 C254 538 227 550 220 590 L184 590 C192 521 241 508 284 508 L284 508 Z " />
<glyph glyph-name="dotaccent" unicode="&#x2d9;" horiz-adv-x="193" d="M176 549 L209 549 L217 590 L184 590 L176 549 Z " />
<glyph glyph-name="ring" unicode="&#x2da;" horiz-adv-x="356" d="M167 498 C158 445 187 401 248 401 C309 401 354 445 363 498 C374 551 343 595 282 595 C221 595 178 551 167 498 L167 498 Z M334 498 C326 451 292 429 253 429 C214 429 188 451 196 498 C205 545 238 567 277 567 C316 567 343 545 334 498 L334 498 Z " />
<glyph glyph-name="ogonek" unicode="&#x2db;" horiz-adv-x="233" d="M63 -92 L101 -92 L151 -6 L119 -6 L63 -92 Z " />
<glyph glyph-name="tilde" unicode="&#x2dc;" horiz-adv-x="372" d="M380 554 C365 551 354 549 346 549 C307 549 268 590 217 590 C203 590 192 589 183 586 L187 560 C194 561 205 562 212 562 C263 562 294 521 342 521 C357 521 368 521 385 529 L380 554 Z " />
<glyph glyph-name="hungarumlaut" unicode="&#x2dd;" horiz-adv-x="348" d="M244 590 L208 590 L168 504 L198 504 L244 590 Z M372 590 L336 590 L296 504 L326 504 L372 590 Z " />
<glyph glyph-name="uni03A9" unicode="&#x3a9;" horiz-adv-x="784" d="M492 567 C626 567 701 488 666 285 L652 206 C641 142 609 72 574 34 L569 0 L704 0 L708 27 L605 27 C663 107 677 181 682 206 L699 305 C736 517 624 595 496 595 C368 595 228 517 191 305 L174 206 C169 182 156 106 187 27 L84 27 L80 0 L215 0 L220 34 C197 71 193 142 204 206 L218 285 C253 488 357 567 492 567 L492 567 Z " />
<glyph glyph-name="pi" unicode="&#x3c0;" horiz-adv-x="796" d="M146 377 L265 377 L199 0 L227 0 L293 377 L635 377 L569 0 L597 0 L663 377 L782 377 L787 405 L151 405 L146 377 Z " />
<glyph glyph-name="ZWSP" unicode="&#x200b;" d="" />
<glyph glyph-name="endash" unicode="&#x2013;" horiz-adv-x="444" d="M397 188 L402 216 L118 216 L113 188 L397 188 Z " />
<glyph glyph-name="emdash" unicode="&#x2014;" horiz-adv-x="507" d="M460 188 L465 216 L118 216 L113 188 L460 188 Z " />
<glyph glyph-name="quoteleft" unicode="&#x2018;" horiz-adv-x="237" d="M166 493 L205 493 L261 590 L232 590 L166 493 Z " />
<glyph glyph-name="quoteright" unicode="&#x2019;" horiz-adv-x="237" d="M261 590 L222 590 L166 493 L195 493 L261 590 Z " />
<glyph glyph-name="quotesinglbase" unicode="&#x201a;" horiz-adv-x="237" d="M160 19 L121 19 L66 -78 L95 -78 L160 19 Z " />
<glyph glyph-name="quotedblleft" unicode="&#x201c;" horiz-adv-x="332" d="M166 493 L205 493 L261 590 L232 590 L166 493 Z M261 493 L300 493 L356 590 L327 590 L261 493 Z " />
<glyph glyph-name="quotedblright" unicode="&#x201d;" horiz-adv-x="332" d="M356 590 L317 590 L261 493 L290 493 L356 590 Z M261 590 L222 590 L166 493 L195 493 L261 590 Z " />
<glyph glyph-name="quotedblbase" unicode="&#x201e;" horiz-adv-x="332" d="M255 19 L216 19 L161 -78 L190 -78 L255 19 Z M160 19 L121 19 L66 -78 L95 -78 L160 19 Z " />
<glyph glyph-name="dagger" unicode="&#x2020;" horiz-adv-x="500" d="M146 377 L301 377 L205 -170 L235 -170 L331 377 L486 377 L491 405 L336 405 L369 590 L339 590 L306 405 L151 405 L146 377 Z " />
<glyph glyph-name="daggerdbl" unicode="&#x2021;" horiz-adv-x="500" d="M84 28 L80 0 L235 0 L205 -170 L235 -170 L265 0 L420 0 L424 28 L269 28 L331 377 L486 377 L491 405 L336 405 L369 590 L339 590 L306 405 L151 405 L146 377 L301 377 L239 28 L84 28 Z " />
<glyph glyph-name="bullet" unicode="&#x2022;" horiz-adv-x="210" d="M111 179 C108 164 117 154 132 154 C147 154 158 164 161 179 C164 194 155 204 140 204 C125 204 114 194 111 179 L111 179 Z " />
<glyph glyph-name="ellipsis" unicode="&#x2026;" horiz-adv-x="755" d="M78 -6 L111 -6 L119 35 L86 35 L78 -6 Z M359 -6 L392 -6 L400 35 L367 35 L359 -6 Z M640 -6 L673 -6 L681 35 L648 35 L640 -6 Z " />
<glyph glyph-name="perthousand" unicode="&#x2030;" horiz-adv-x="908" d="M218 0 L249 0 C360 203 466 387 579 590 L546 590 L218 0 Z M170 514 C161 460 181 433 231 433 C281 433 311 460 320 514 C329 568 309 595 259 595 C209 595 179 568 170 514 L170 514 Z M292 514 C285 477 271 459 235 459 C198 459 190 477 197 514 C204 551 218 569 255 569 C291 569 299 551 292 514 L292 514 Z M474 75 C464 21 484 -6 534 -6 C584 -6 614 21 624 75 C633 129 613 156 563 156 C513 156 483 129 474 75 L474 75 Z M596 75 C589 38 575 20 539 20 C502 20 494 38 501 75 C508 112 521 130 558 130 C594 130 603 112 596 75 L596 75 Z M691 75 C681 21 701 -6 751 -6 C801 -6 831 21 841 75 C850 129 830 156 780 156 C730 156 700 129 691 75 L691 75 Z M813 75 C806 38 792 20 756 20 C719 20 711 38 718 75 C725 112 738 130 775 130 C811 130 820 112 813 75 L813 75 Z " />
<glyph glyph-name="guilsinglleft" unicode="&#x2039;" horiz-adv-x="446" d="M366 0 L371 34 L132 167 L418 300 L424 334 L113 190 L105 144 L366 0 Z " />
<glyph glyph-name="guilsinglright" unicode="&#x203a;" horiz-adv-x="446" d="M138 334 L132 300 L372 167 L85 34 L80 0 L391 144 L399 190 L138 334 Z " />
<glyph glyph-name="fraction" unicode="&#x2044;" horiz-adv-x="545" d="M44 -204 L75 -204 L592 724 L560 724 L44 -204 Z " />
<glyph glyph-name="Euro" unicode="&#x20ac;" horiz-adv-x="685" d="M450 22 C356 22 250 56 234 192 L397 192 L402 220 L232 220 C232 245 234 273 239 305 C244 332 250 354 258 377 L430 377 L435 405 L269 405 C328 536 448 567 551 567 C595 567 643 560 686 539 L703 561 C660 586 608 595 557 595 C433 595 304 549 240 405 L151 405 L146 377 L229 377 C221 354 215 332 210 305 C205 274 202 245 202 220 L118 220 L113 192 L203 192 C219 19 361 -6 452 -6 C499 -6 559 7 610 32 L600 56 C552 33 498 22 450 22 L450 22 Z " />
<glyph glyph-name="Numero" unicode="&#x2116;" horiz-adv-x="1117" d="M508 0 L552 0 L656 590 L627 590 L528 30 L229 590 L184 590 L80 0 L110 0 L208 561 L508 0 Z M863 158 C811 158 696 181 725 341 C749 480 855 519 927 519 C998 519 1091 480 1067 341 C1038 181 915 158 863 158 L863 158 Z M858 130 C932 130 1068 173 1097 343 C1121 487 1021 547 932 547 C844 547 719 487 695 343 C666 173 782 130 858 130 L858 130 Z M1037 0 L1041 28 L639 28 L635 0 L1037 0 Z " />
<glyph glyph-name="trademark" unicode="&#x2122;" horiz-adv-x="731" d="M179 566 L274 566 L225 289 L250 289 L299 566 L394 566 L399 590 L184 590 L179 566 Z M570 373 L726 572 L676 289 L701 289 L755 590 L712 590 L567 405 L488 590 L445 590 L391 289 L416 289 L466 572 L552 373 L570 373 Z " />
<glyph glyph-name="Omega" unicode="&#x2126;" horiz-adv-x="784" d="M492 567 C626 567 701 488 666 285 L652 206 C641 142 609 72 574 34 L569 0 L704 0 L708 27 L605 27 C663 107 677 181 682 206 L699 305 C736 517 624 595 496 595 C368 595 228 517 191 305 L174 206 C169 182 156 106 187 27 L84 27 L80 0 L215 0 L220 34 C197 71 193 142 204 206 L218 285 C253 488 357 567 492 567 L492 567 Z " />
<glyph glyph-name="partialdiff" unicode="&#x2202;" horiz-adv-x="552" d="M498 322 C452 411 362 411 347 411 C246 411 140 350 116 209 C87 43 174 -6 250 -6 C277 -6 352 -6 456 82 L442 0 L472 0 L543 405 C572 570 440 595 368 595 C316 595 271 590 230 573 L235 549 C283 562 331 567 358 567 C399 567 541 566 513 405 L498 322 Z M464 125 C446 106 426 88 405 73 C369 46 319 22 264 22 C231 22 114 22 146 209 C173 368 300 383 345 383 C401 383 436 354 459 326 C472 309 482 291 489 270 L464 125 Z " />
<glyph glyph-name="Delta" unicode="&#x2206;" horiz-adv-x="808" d="M507 587 L80 0 L728 0 L507 587 Z M496 525 L683 28 L133 28 L496 525 Z " />
<glyph glyph-name="product" unicode="&#x220f;" horiz-adv-x="796" d="M179 562 L298 562 L199 0 L227 0 L326 562 L668 562 L569 0 L597 0 L696 562 L815 562 L820 590 L184 590 L179 562 Z " />
<glyph glyph-name="summation" unicode="&#x2211;" horiz-adv-x="478" d="M82 12 L80 0 L398 0 L402 28 L123 28 L290 296 L217 562 L497 562 L502 590 L184 590 L181 574 L257 295 L82 12 Z " />
<glyph glyph-name="minus" unicode="&#x2212;" horiz-adv-x="444" d="M397 188 L402 216 L118 216 L113 188 L397 188 Z " />
<glyph glyph-name="radical" unicode="&#x221a;" horiz-adv-x="772" d="M293 0 L662 629 L802 629 L807 657 L647 657 L273 22 L183 405 L151 405 L247 0 L293 0 Z " />
<glyph glyph-name="infinity" unicode="&#x221e;" horiz-adv-x="1070" d="M565 172 C615 85 709 49 794 49 C898 49 1007 105 1028 220 C1048 332 984 395 855 395 C771 395 681 354 576 235 C512 354 437 395 353 395 C224 395 138 332 118 220 C97 105 190 49 292 49 C376 49 483 85 565 172 L565 172 Z M348 367 C435 367 496 321 560 202 C475 111 388 77 297 77 C208 77 132 126 148 219 C169 342 279 367 348 367 L348 367 Z M850 367 C919 367 1019 342 998 219 C982 126 887 77 799 77 C708 77 633 111 580 202 C686 321 762 367 850 367 L850 367 Z " />
<glyph glyph-name="integral" unicode="&#x222b;" horiz-adv-x="544" d="M360 419 C379 521 401 566 508 566 C517 566 532 565 543 565 C550 564 556 564 563 564 L568 591 C555 594 530 595 494 595 C380 595 347 517 331 424 L253 -22 C234 -124 212 -169 105 -169 C94 -169 81 -169 70 -168 C63 -168 57 -168 50 -167 L45 -194 C58 -197 83 -198 119 -198 C233 -198 266 -120 282 -27 L360 419 Z " />
<glyph glyph-name="approxequal" unicode="&#x2248;" horiz-adv-x="372" d="M299 95 C284 92 273 90 265 90 C226 90 187 131 136 131 C122 131 111 130 102 127 L106 101 C113 102 124 103 131 103 C182 103 213 62 261 62 C276 62 287 62 304 70 L299 95 Z M321 220 C306 217 295 215 287 215 C248 215 209 256 158 256 C144 256 133 255 124 252 L128 226 C136 227 146 228 153 228 C204 228 235 187 283 187 C298 187 309 187 326 195 L321 220 Z " />
<glyph glyph-name="notequal" unicode="&#x2260;" horiz-adv-x="407" d="M371 253 L376 281 L307 281 L358 373 L322 373 C305 344 287 309 271 281 L129 281 L124 253 L255 253 L185 129 L102 129 L97 101 L170 101 L115 0 L150 0 L205 101 L344 101 L349 129 L222 129 L291 253 L371 253 Z " />
<glyph glyph-name="lessequal" unicode="&#x2264;" horiz-adv-x="441" d="M361 0 L365 28 L84 28 L80 0 L361 0 Z M113 190 C205 149 282 110 373 69 L378 102 L139 214 L418 326 L424 359 C320 318 228 279 121 238 L113 190 Z " />
<glyph glyph-name="greaterequal" unicode="&#x2265;" horiz-adv-x="441" d="M361 0 L365 28 L84 28 L80 0 L361 0 Z M402 238 C310 279 234 318 143 359 L137 326 L376 214 L97 102 L92 69 C196 110 287 149 394 190 L402 238 Z " />
<glyph glyph-name="lozenge" unicode="&#x25ca;" horiz-adv-x="550" d="M284 52 L166 293 L369 535 L486 293 L284 52 Z M275 0 L521 290 L521 294 L379 590 L131 294 L131 290 L275 0 Z " />
<glyph glyph-name="uni25CC" unicode="&#x25cc;" horiz-adv-x="512" d="" />
<glyph glyph-name="fi" unicode="&#xfb01;" horiz-adv-x="571" d="M439 589 C428 593 415 595 382 595 C285 595 232 540 209 415 L207 405 L111 405 L106 377 L202 377 L136 0 L166 0 L232 377 L401 377 L406 405 L237 405 L240 420 C259 533 309 566 389 566 C408 566 420 567 435 564 L439 589 Z M461 0 L491 0 L562 405 L532 405 L461 0 Z M543 470 L573 470 L583 526 L553 526 L543 470 Z " />
<glyph glyph-name="fl" unicode="&#xfb02;" horiz-adv-x="607" d="M439 589 C428 593 415 595 382 595 C285 595 232 540 209 415 L207 405 L111 405 L106 377 L202 377 L136 0 L166 0 L232 377 L401 377 L406 405 L237 405 L240 420 C259 533 309 566 389 566 C408 566 420 567 435 564 L439 589 Z M595 590 L565 590 L476 86 C460 4 493 -6 546 -6 L551 22 C513 22 495 27 505 84 L595 590 Z " />
</font>
</svg>
