<?xml version="1.0" encoding="UTF-8"?>
<svg xmlns="http://www.w3.org/2000/svg" xmlns:xlink="http://www.w3.org/1999/xlink" version="1.2" >
<font id="Betm Italic">
<font-face  font-family="Betm" units-per-em="1000" ascent="750" descent="-250" font-style="italic" font-weight="400" font-stretch="normal" cap-height="568" x-height="405" underline-position="-91" underline-thickness="35" />
<missing-glyph  horiz-adv-x="583" d="M546 0 L546 628 L37 628 L37 0 L546 0 Z M83 46 L75 46 C80 45 83 41 83 35 L83 46 Z M500 582 L508 582 C503 582 500 585 500 590 L500 582 Z M500 46 L500 37 C500 42 503 45 508 46 L500 46 Z M83 582 L83 590 C82 585 79 582 75 582 L83 582 Z M83 582 L500 582 L500 46 L83 46 L83 582 Z " />
<glyph glyph-name="space" unicode="&#x20;" horiz-adv-x="199" d="" />
<glyph glyph-name="exclam" unicode="&#x21;" horiz-adv-x="217" d="M101 127 L160 127 L196 250 L256 590 L169 590 L109 250 L101 127 Z M71 37 C67 13 82 -6 106 -6 C130 -6 154 13 158 37 C162 61 146 81 122 81 C98 81 75 61 71 37 L71 37 Z " />
<glyph glyph-name="quotedbl" unicode="&#x22;" horiz-adv-x="354" d="M153 442 L219 442 L256 590 L169 590 L153 442 Z M291 442 L356 442 L393 590 L308 590 L291 442 Z " />
<glyph glyph-name="numbersign" unicode="&#x23;" horiz-adv-x="836" d="M840 395 L854 476 L745 476 L809 590 L718 590 L652 476 L474 476 L537 590 L448 590 L382 476 L225 476 L211 395 L338 395 L230 199 L100 199 L85 118 L185 118 L120 0 L214 0 L278 118 L455 118 L391 0 L484 0 C519 64 536 95 548 118 L708 118 L723 199 L593 199 L701 395 L840 395 Z M500 199 L323 199 L431 395 L608 395 L500 199 Z " />
<glyph glyph-name="dollar" unicode="&#x24;" horiz-adv-x="578" d="M540 158 C571 330 208 335 226 435 C239 512 335 514 395 514 C416 514 454 509 486 504 C505 501 524 498 545 495 L558 572 C538 583 507 592 436 595 L460 730 L373 730 L349 594 C251 586 161 551 140 428 C108 254 475 263 455 156 C444 93 370 77 299 77 C215 77 129 101 108 109 L96 41 C123 25 172 4 244 -3 L223 -120 L310 -120 L331 -3 C442 8 523 58 540 158 L540 158 Z " />
<glyph glyph-name="percent" unicode="&#x25;" horiz-adv-x="680" d="M183 0 L276 0 C385 203 489 388 601 590 L508 590 L183 0 Z M241 454 C220 454 207 468 212 495 C216 522 234 535 255 535 C280 535 290 522 286 495 C281 468 266 454 241 454 L241 454 Z M230 394 C295 394 333 428 345 495 C356 559 325 595 265 595 C205 595 163 559 152 495 C140 427 167 394 230 394 L230 394 Z M527 54 C506 54 494 68 498 95 C503 122 520 135 541 135 C564 135 577 122 572 95 C568 68 550 54 527 54 L527 54 Z M516 -6 C581 -6 619 28 631 95 C643 159 612 195 552 195 C492 195 450 159 438 95 C426 27 453 -6 516 -6 L516 -6 Z " />
<glyph glyph-name="ampersand" unicode="&#x26;" horiz-adv-x="621" d="M416 510 L443 590 L394 590 C311 590 194 565 170 430 C165 394 156 337 211 300 C122 281 103 215 92 154 C76 69 126 -6 278 -6 L294 -6 C445 -6 518 100 529 161 L546 256 L601 256 L615 338 L560 338 L574 415 L487 415 L473 338 L357 338 C314 338 241 338 257 427 C268 495 344 510 387 510 L416 510 Z M291 76 C251 76 164 78 180 164 C191 232 252 256 310 256 L459 256 L444 172 C428 87 356 76 310 76 L291 76 Z " />
<glyph glyph-name="quotesingle" unicode="&#x27;" horiz-adv-x="215" d="M152 442 L217 442 L254 590 L169 590 L152 442 Z " />
<glyph glyph-name="parenleft" unicode="&#x28;" horiz-adv-x="317" d="M111 266 C84 117 90 -51 129 -204 L216 -204 C176 -44 172 118 199 267 C226 416 283 564 379 724 L292 724 C199 568 138 418 111 266 L111 266 Z " />
<glyph glyph-name="parenright" unicode="&#x29;" horiz-adv-x="317" d="M298 266 C325 415 318 568 279 724 L192 724 C231 564 239 416 212 267 C185 118 125 -44 29 -204 L116 -204 C209 -51 271 117 298 266 L298 266 Z " />
<glyph glyph-name="asterisk" unicode="&#x2a;" horiz-adv-x="464" d="M299 590 L285 449 L181 505 L142 440 L262 393 L164 300 L213 254 L293 349 L339 254 L404 300 L340 393 L476 440 L461 505 L337 449 L373 590 L299 590 Z " />
<glyph glyph-name="plus" unicode="&#x2b;" horiz-adv-x="455" d="M335 367 L248 367 L228 250 L109 250 L95 172 L214 172 L193 55 L280 55 L301 172 L420 172 L434 250 L315 250 L335 367 Z " />
<glyph glyph-name="comma" unicode="&#x2c;" horiz-adv-x="179" d="M159 59 L76 59 L13 -96 L81 -96 L159 59 Z " />
<glyph glyph-name="hyphen" unicode="&#x2d;" horiz-adv-x="444" d="M409 172 L423 253 L109 253 L95 172 L409 172 Z " />
<glyph glyph-name="period" unicode="&#x2e;" horiz-adv-x="216" d="M63 -6 L149 -6 L163 69 L77 69 L63 -6 Z " />
<glyph glyph-name="slash" unicode="&#x2f;" horiz-adv-x="571" d="M29 -204 L118 -204 L633 724 L540 724 L29 -204 Z " />
<glyph glyph-name="zero" unicode="0" horiz-adv-x="594" d="M310 76 C231 76 158 103 193 303 C225 476 283 513 387 513 C489 513 539 476 507 303 C472 103 389 76 310 76 L310 76 Z M295 -6 C399 -6 547 51 592 306 C630 520 527 595 401 595 C275 595 146 520 108 306 C63 51 191 -6 295 -6 L295 -6 Z " />
<glyph glyph-name="one" unicode="1" horiz-adv-x="345" d="M100 426 L283 501 L195 0 L280 0 L384 590 L299 590 L115 515 L100 426 Z " />
<glyph glyph-name="two" unicode="2" horiz-adv-x="506" d="M50 0 L453 0 L466 79 L153 79 C221 259 499 248 531 428 C555 561 462 595 345 595 C252 595 206 579 177 563 L164 488 C204 499 266 513 322 513 C387 513 456 492 445 424 C429 329 98 281 66 93 L50 0 Z " />
<glyph glyph-name="three" unicode="3" horiz-adv-x="515" d="M245 338 L211 256 L317 256 C363 256 421 244 410 172 C394 90 283 76 242 76 C217 76 175 82 139 89 C118 92 95 97 72 102 L59 26 C91 10 143 -6 235 -6 C386 -6 478 71 494 167 C506 238 491 275 415 295 C489 321 505 395 510 430 C534 565 412 595 333 595 C241 595 189 579 154 564 L141 490 C187 501 255 513 308 513 C353 513 436 494 425 427 C409 338 345 338 301 338 L245 338 Z " />
<glyph glyph-name="four" unicode="4" horiz-adv-x="535" d="M328 0 L413 0 L443 172 L530 172 L544 254 L457 254 L517 590 L387 590 C283 486 184 383 84 278 L65 172 L358 172 L328 0 Z M168 254 L418 511 L372 254 L168 254 Z " />
<glyph glyph-name="five" unicode="5" horiz-adv-x="516" d="M351 363 C331 363 265 363 203 333 L234 508 L516 508 L531 590 L164 590 L107 267 L194 260 C235 279 296 284 321 284 C389 284 434 249 423 186 C407 101 353 76 278 76 C239 76 170 76 170 134 L83 134 C78 14 195 -6 259 -6 L267 -6 C334 -6 477 8 509 188 C533 321 421 363 351 363 L351 363 Z " />
<glyph glyph-name="six" unicode="6" horiz-adv-x="522" d="M351 360 C330 360 258 360 195 321 C229 472 270 513 391 513 C398 513 430 510 459 507 C476 505 495 503 516 502 L529 576 C504 585 451 595 388 595 C239 595 146 512 111 323 L86 181 C58 21 194 -6 263 -6 L273 -6 C341 -6 485 21 514 182 C538 315 433 360 351 360 L351 360 Z M283 76 C241 76 155 83 171 180 C187 274 276 282 319 282 C365 282 444 274 428 180 C412 80 323 76 283 76 L283 76 Z " />
<glyph glyph-name="seven" unicode="7" horiz-adv-x="459" d="M129 508 L442 508 L109 0 L204 0 L519 486 L538 590 L144 590 L129 508 Z " />
<glyph glyph-name="eight" unicode="8" horiz-adv-x="556" d="M337 337 C291 337 222 338 238 426 C251 502 323 513 368 513 C412 513 481 502 468 426 C452 338 382 337 337 337 L337 337 Z M291 76 C253 76 161 91 174 167 C190 252 282 256 323 256 C363 256 456 252 440 167 C427 91 329 76 291 76 L291 76 Z M276 -6 C344 -6 498 17 525 169 C533 220 533 270 471 300 C528 339 545 381 553 426 C580 575 457 595 382 595 C307 595 180 575 153 426 C145 381 146 339 189 300 C118 271 97 219 89 169 C61 16 208 -6 276 -6 L276 -6 Z " />
<glyph glyph-name="nine" unicode="9" horiz-adv-x="522" d="M274 229 C295 229 367 229 430 268 C396 117 355 76 234 76 C226 76 195 78 166 81 C149 83 130 85 109 87 L96 13 C121 4 173 -6 236 -6 C384 -6 480 78 513 266 L538 408 C567 568 430 595 361 595 L351 595 C282 595 140 568 111 407 C87 274 192 229 274 229 L274 229 Z M342 513 C383 513 470 506 454 409 C438 315 349 307 306 307 C260 307 181 315 197 409 C213 509 302 513 342 513 L342 513 Z " />
<glyph glyph-name="colon" unicode="&#x3a;" horiz-adv-x="216" d="M63 -6 L149 -6 L163 69 L77 69 L63 -6 Z M117 296 L203 296 L216 372 L130 372 L117 296 Z " />
<glyph glyph-name="semicolon" unicode="&#x3b;" horiz-adv-x="249" d="M194 59 L111 59 L48 -96 L116 -96 L194 59 Z M150 296 L236 296 L249 372 L163 372 L150 296 Z " />
<glyph glyph-name="less" unicode="&#x3c;" horiz-adv-x="439" d="M429 312 L445 406 L111 262 L91 150 C149 121 213 86 375 6 L391 100 L180 206 L429 312 Z " />
<glyph glyph-name="equal" unicode="&#x3d;" horiz-adv-x="410" d="M379 198 L394 279 L114 279 L99 198 L379 198 Z M352 43 L366 124 L86 124 L72 43 L352 43 Z " />
<glyph glyph-name="greater" unicode="&#x3e;" horiz-adv-x="439" d="M331 206 L82 100 L66 6 C256 86 331 121 400 150 L420 262 L136 406 L120 312 L331 206 Z " />
<glyph glyph-name="question" unicode="&#x3f;" horiz-adv-x="507" d="M190 127 L276 127 L297 248 C468 280 507 370 517 430 C541 565 422 595 340 595 C240 595 194 578 164 564 L151 488 C194 499 266 513 318 513 C361 513 445 509 432 427 C421 363 364 336 221 302 L190 127 Z M174 37 C170 13 185 -6 209 -6 C233 -6 257 13 261 37 C265 61 249 81 225 81 C201 81 178 61 174 37 L174 37 Z " />
<glyph glyph-name="at" unicode="&#x40;" horiz-adv-x="715" d="M626 360 C594 411 529 411 513 411 C422 411 316 350 292 209 C263 43 354 -6 431 -6 C459 -6 514 -5 570 45 L571 0 L650 0 L714 368 C754 585 601 657 471 657 C343 657 167 588 130 371 L75 59 C40 -134 172 -185 291 -198 L305 -117 C219 -109 140 -72 166 83 L216 368 C248 543 360 576 457 576 C550 576 656 536 627 364 L626 360 Z M588 156 C580 141 570 128 558 116 C538 96 508 76 469 76 C437 76 355 76 379 209 C398 319 483 329 514 329 C553 329 575 309 588 289 C595 277 601 264 604 249 L588 156 Z " />
<glyph glyph-name="A" unicode="A" horiz-adv-x="599" d="M349 590 L25 0 L119 0 L194 139 L453 139 L480 0 L574 0 L458 590 L349 590 Z M383 483 L437 221 L239 221 L383 483 Z " />
<glyph glyph-name="B" unicode="B" horiz-adv-x="553" d="M211 338 L241 509 L374 509 C421 509 477 496 466 427 C450 339 388 338 344 338 L211 338 Z M166 81 L197 257 L360 257 C408 257 462 243 451 172 C435 88 374 81 329 81 L166 81 Z M314 0 C462 0 523 85 536 161 C547 221 534 276 462 300 C532 335 548 395 553 430 C577 565 480 590 397 590 L169 590 L65 0 L314 0 Z " />
<glyph glyph-name="C" unicode="C" horiz-adv-x="548" d="M423 513 C466 513 512 502 551 477 L608 539 C561 578 501 595 438 595 C306 595 131 520 93 306 C49 51 224 -6 333 -6 C393 -6 459 8 520 51 L486 113 C438 86 391 76 346 76 C266 76 145 103 180 303 C212 476 325 513 423 513 L423 513 Z " />
<glyph glyph-name="D" unicode="D" horiz-adv-x="589" d="M592 306 C629 519 488 590 360 590 L169 590 L65 0 L268 0 C374 0 550 59 592 306 L592 306 Z M166 82 L241 508 L347 508 C446 508 531 457 505 303 C470 103 348 82 269 82 L166 82 Z " />
<glyph glyph-name="E" unicode="E" horiz-adv-x="514" d="M548 508 L563 590 L169 590 L65 0 L459 0 L473 82 L166 82 L194 243 L445 243 L460 325 L209 325 L241 508 L548 508 Z " />
<glyph glyph-name="F" unicode="F" horiz-adv-x="509" d="M65 0 L152 0 L194 243 L445 243 L460 325 L209 325 L241 508 L548 508 L563 590 L169 590 L65 0 Z " />
<glyph glyph-name="G" unicode="G" horiz-adv-x="611" d="M420 304 L406 225 L493 225 L472 106 C428 85 387 76 346 76 C266 76 145 103 180 303 C212 476 325 513 423 513 C466 513 512 502 551 477 L608 539 C561 578 501 595 438 595 C306 595 131 520 93 306 C49 51 224 -6 333 -6 C393 -6 496 15 553 69 L594 304 L420 304 Z " />
<glyph glyph-name="H" unicode="H" horiz-adv-x="605" d="M557 590 L510 325 L209 325 L256 590 L169 590 L65 0 L152 0 L194 243 L495 243 L453 0 L540 0 L644 590 L557 590 Z " />
<glyph glyph-name="I" unicode="I" horiz-adv-x="217" d="M65 0 L152 0 L256 590 L169 590 L65 0 Z " />
<glyph glyph-name="J" unicode="J" horiz-adv-x="470" d="M353 202 C332 77 232 76 192 76 C161 76 118 77 73 97 C57 74 45 60 26 36 C72 -7 148 -6 188 -6 C262 -3 407 23 439 198 L509 590 L422 590 L353 202 Z " />
<glyph glyph-name="K" unicode="K" horiz-adv-x="547" d="M304 301 L646 590 L520 590 L209 325 L256 590 L169 590 L65 0 L152 0 L201 280 L420 0 L541 0 L304 301 Z " />
<glyph glyph-name="L" unicode="L" horiz-adv-x="476" d="M256 590 L169 590 L65 0 L436 0 L450 82 L166 82 L256 590 Z " />
<glyph glyph-name="M" unicode="M" horiz-adv-x="686" d="M403 132 L600 378 L534 0 L621 0 L725 590 L666 590 L384 236 L228 590 L169 590 L65 0 L152 0 L218 378 L329 132 L403 132 Z " />
<glyph glyph-name="N" unicode="N" horiz-adv-x="627" d="M460 0 L562 0 L666 590 L579 590 L498 132 L270 590 L169 590 L65 0 L152 0 L231 453 L460 0 Z " />
<glyph glyph-name="O" unicode="O" horiz-adv-x="666" d="M346 76 C268 76 155 103 190 303 C222 476 325 513 423 513 C519 513 614 476 582 303 C547 103 423 76 346 76 L346 76 Z M331 -6 C440 -6 624 51 669 306 C707 520 567 595 437 595 C309 595 141 520 103 306 C59 51 222 -6 331 -6 L331 -6 Z " />
<glyph glyph-name="P" unicode="P" horiz-adv-x="549" d="M60 0 L147 0 L180 192 L373 192 C454 192 560 233 589 397 C613 535 523 590 441 590 L164 590 L60 0 Z M425 508 C473 508 520 488 504 397 C486 291 430 274 384 274 L195 274 L236 508 L425 508 Z " />
<glyph glyph-name="Q" unicode="Q" horiz-adv-x="666" d="M669 306 C707 520 567 595 437 595 C309 595 141 520 103 306 C71 122 149 40 233 11 L336 -169 L434 -169 L341 -6 C449 -3 627 60 669 306 L669 306 Z M346 76 C268 76 155 103 190 303 C222 476 325 513 423 513 C519 513 614 476 582 303 C547 103 423 76 346 76 L346 76 Z " />
<glyph glyph-name="R" unicode="R" horiz-adv-x="553" d="M584 404 C608 543 519 590 437 590 L169 590 L65 0 L152 0 L188 208 L319 208 C366 208 397 181 409 102 L426 0 L516 0 C511 28 506 57 502 84 C493 151 484 192 448 235 C539 259 576 355 584 404 L584 404 Z M203 290 L241 508 L414 508 C465 508 513 494 497 403 C476 292 425 290 376 290 L203 290 Z " />
<glyph glyph-name="S" unicode="S" horiz-adv-x="528" d="M375 595 C257 595 139 571 115 427 C83 253 450 262 430 155 C419 92 345 76 274 76 C190 76 104 100 83 108 L71 40 C102 21 166 -6 263 -6 C394 -6 493 44 515 157 C547 329 181 334 201 434 C214 511 310 513 370 513 C391 513 429 508 461 503 C480 500 499 497 520 494 L533 571 C510 584 470 595 375 595 L375 595 Z " />
<glyph glyph-name="T" unicode="T" horiz-adv-x="525" d="M129 508 L308 508 L219 0 L306 0 L395 508 L574 508 L589 590 L144 590 L129 508 Z " />
<glyph glyph-name="U" unicode="U" horiz-adv-x="606" d="M301 -6 C407 -6 548 36 588 267 L645 590 L558 590 L502 276 C473 117 396 76 316 76 C238 76 171 117 200 276 L256 590 L169 590 L112 267 C72 36 195 -6 301 -6 L301 -6 Z " />
<glyph glyph-name="V" unicode="V" horiz-adv-x="599" d="M223 590 L129 590 L245 0 L354 0 L678 590 L584 590 L316 107 L223 590 Z " />
<glyph glyph-name="W" unicode="W" horiz-adv-x="820" d="M464 590 L239 106 L221 590 L134 590 L157 0 L280 0 C344 139 427 324 491 462 C504 324 524 139 540 0 L663 0 L894 590 L807 590 L617 106 L564 590 L464 590 Z " />
<glyph glyph-name="X" unicode="X" horiz-adv-x="526" d="M301 217 L403 0 L505 0 L364 292 L610 590 L508 590 L328 369 L226 590 L124 590 L264 292 L21 0 L123 0 L301 217 Z " />
<glyph glyph-name="Y" unicode="Y" horiz-adv-x="563" d="M335 303 L222 590 L124 590 L273 199 L238 0 L325 0 L360 199 L647 590 L549 590 L335 303 Z " />
<glyph glyph-name="Z" unicode="Z" horiz-adv-x="512" d="M135 508 L453 508 L61 94 L45 0 L467 0 L481 80 L158 80 L555 500 L571 590 L150 590 L135 508 Z " />
<glyph glyph-name="bracketleft" unicode="&#x5b;" horiz-adv-x="336" d="M263 642 L384 642 L398 724 L192 724 L29 -204 L235 -204 L249 -122 L128 -122 L263 642 Z " />
<glyph glyph-name="backslash" unicode="&#x5c;" horiz-adv-x="571" d="M285 724 L192 724 L381 -204 L470 -204 L285 724 Z " />
<glyph glyph-name="bracketright" unicode="&#x5d;" horiz-adv-x="336" d="M164 -122 L43 -122 L29 -204 L235 -204 L398 724 L192 724 L178 642 L299 642 L164 -122 Z " />
<glyph glyph-name="asciicircum" unicode="&#x5e;" horiz-adv-x="448" d="M269 590 L133 386 L228 386 L316 525 L357 386 L451 386 L387 590 L269 590 Z " />
<glyph glyph-name="underscore" unicode="&#x5f;" horiz-adv-x="444" d="M365 -79 L377 -6 L63 -6 L51 -79 L365 -79 Z " />
<glyph glyph-name="grave" unicode="&#x60;" horiz-adv-x="265" d="M201 450 L279 450 L262 590 L169 590 L201 450 Z " />
<glyph glyph-name="a" unicode="a" horiz-adv-x="471" d="M454 245 C469 353 411 411 287 411 C212 411 182 399 148 389 L135 316 C175 323 214 329 235 329 C356 329 374 293 366 242 L360 209 C303 250 247 250 217 250 C128 250 73 196 62 128 C40 4 147 -6 168 -6 L180 -6 C206 -6 272 -5 331 43 L329 0 L411 0 L454 245 Z M344 114 C337 107 329 100 318 95 C299 84 272 76 229 76 C161 76 142 96 149 125 C154 154 169 173 246 173 C281 173 307 164 324 155 C334 150 342 144 348 138 L344 114 Z " />
<glyph glyph-name="b" unicode="b" horiz-adv-x="499" d="M60 0 L139 0 L154 45 C191 -6 246 -6 275 -6 C354 -6 461 43 490 209 C514 350 433 411 341 411 C325 411 261 411 210 360 L251 590 L164 590 L60 0 Z M192 249 C201 264 211 277 223 289 C243 309 273 329 312 329 C345 329 422 318 403 209 C379 76 300 76 267 76 C228 76 205 96 192 116 C185 128 179 141 176 156 L192 249 Z " />
<glyph glyph-name="c" unicode="c" horiz-adv-x="422" d="M372 100 C321 79 291 76 264 76 C219 76 144 100 163 208 C179 304 262 329 309 329 C333 329 367 326 408 305 L456 368 C402 411 350 411 310 411 C230 411 100 351 76 207 C47 43 164 -3 235 -6 C278 -6 336 -7 398 36 L372 100 Z " />
<glyph glyph-name="d" unicode="d" horiz-adv-x="499" d="M543 590 L456 590 L415 360 C383 411 318 411 302 411 C211 411 105 350 81 209 C52 43 143 -6 220 -6 C248 -6 303 -5 359 45 L360 0 L439 0 L543 590 Z M377 156 C369 141 359 128 347 116 C327 96 297 76 258 76 C226 76 144 76 168 209 C187 319 272 329 303 329 C342 329 364 309 377 289 C384 277 390 264 393 249 L377 156 Z " />
<glyph glyph-name="e" unicode="e" horiz-adv-x="467" d="M457 228 C476 332 428 411 304 411 C179 411 101 318 80 203 C59 87 107 -6 245 -6 C313 -6 360 3 391 14 L404 88 C361 83 310 76 290 76 C184 76 164 104 161 167 L446 167 L457 228 Z M174 242 C197 299 228 329 289 329 C342 329 372 311 373 242 L174 242 Z " />
<glyph glyph-name="f" unicode="f" horiz-adv-x="367" d="M439 580 C427 588 410 595 358 595 C269 595 204 545 180 412 L179 405 L96 405 L82 324 L165 324 L108 0 L195 0 L252 324 L394 324 L408 405 L266 405 L269 422 C282 495 321 514 372 514 C395 514 407 514 426 509 L439 580 Z " />
<glyph glyph-name="g" unicode="g" horiz-adv-x="504" d="M382 156 C374 141 364 128 352 116 C332 96 302 76 263 76 C231 76 149 76 173 209 C192 319 277 329 308 329 C347 329 369 309 382 289 C389 277 395 264 398 249 L382 156 Z M354 -5 C333 -114 255 -116 210 -116 C185 -116 138 -114 95 -95 L56 -163 C91 -190 141 -198 201 -198 C273 -198 414 -173 443 -5 L515 405 L442 405 L420 360 C388 411 323 411 307 411 C216 411 110 350 86 209 C57 43 148 -6 225 -6 C253 -6 309 -5 362 43 L354 -5 Z " />
<glyph glyph-name="h" unicode="h" horiz-adv-x="484" d="M147 0 L191 255 C202 268 213 281 226 292 C249 311 279 329 318 329 C354 329 397 312 386 251 L342 0 L429 0 L475 262 C488 345 429 411 360 411 C333 411 270 410 210 359 L251 590 L164 590 L60 0 L147 0 Z " />
<glyph glyph-name="i" unicode="i" horiz-adv-x="217" d="M65 0 L152 0 L223 405 L136 405 L65 0 Z M147 469 L234 469 L249 554 L162 554 L147 469 Z " />
<glyph glyph-name="j" unicode="j" horiz-adv-x="232" d="M47 -9 C34 -88 22 -116 -42 -116 C-51 -116 -69 -115 -86 -114 C-96 -113 -106 -112 -117 -111 L-130 -185 C-114 -192 -96 -198 -40 -198 C83 -198 117 -108 125 -57 L207 405 L120 405 L47 -9 Z M131 469 L218 469 L233 554 L146 554 L131 469 Z " />
<glyph glyph-name="k" unicode="k" horiz-adv-x="446" d="M443 0 L287 226 L493 405 L371 405 L190 248 L251 590 L164 590 L60 0 L147 0 L183 209 L327 0 L443 0 Z " />
<glyph glyph-name="l" unicode="l" horiz-adv-x="243" d="M256 590 L169 590 L82 102 C66 6 106 -6 143 -6 L148 -6 C157 -6 168 -6 179 -5 C185 -4 191 -4 197 -3 L209 63 C173 63 163 68 170 103 L256 590 Z " />
<glyph glyph-name="m" unicode="m" horiz-adv-x="708" d="M576 411 C548 411 481 412 436 345 C411 398 375 411 336 411 C317 411 260 410 210 358 L204 405 L131 405 L60 0 L147 0 L189 239 C189 241 206 329 291 329 C326 329 366 312 355 251 L311 0 L398 0 L440 240 C446 276 481 329 541 329 C575 329 622 319 609 245 L566 0 L653 0 L697 251 C715 351 655 411 576 411 L576 411 Z " />
<glyph glyph-name="n" unicode="n" horiz-adv-x="484" d="M147 0 L191 255 C202 268 213 281 226 292 C249 311 279 329 318 329 C354 329 397 312 386 251 L342 0 L429 0 L475 262 C488 345 429 411 360 411 C333 411 270 410 210 359 L208 405 L131 405 L60 0 L147 0 Z " />
<glyph glyph-name="o" unicode="o" horiz-adv-x="492" d="M259 76 C214 76 147 93 168 205 C184 301 256 329 304 329 C353 329 412 301 396 205 C375 93 306 76 259 76 L259 76 Z M244 -6 C320 -6 454 37 483 207 C507 351 406 411 318 411 C231 411 105 351 81 207 C52 37 167 -6 244 -6 L244 -6 Z " />
<glyph glyph-name="p" unicode="p" horiz-adv-x="499" d="M25 -195 L114 -195 L156 43 C191 -5 248 -6 275 -6 C354 -6 461 43 490 209 C514 350 433 411 341 411 C325 411 261 411 210 360 L204 405 L131 405 L25 -195 Z M192 249 C201 264 211 277 223 289 C243 309 273 329 312 329 C345 329 422 318 403 209 C379 76 300 76 267 76 C228 76 205 96 192 116 C185 128 179 141 176 156 L192 249 Z " />
<glyph glyph-name="q" unicode="q" horiz-adv-x="499" d="M510 405 L437 405 L415 360 C383 411 318 411 302 411 C211 411 105 350 81 209 C52 43 143 -6 220 -6 C248 -6 304 -5 357 43 L315 -195 L404 -195 L510 405 Z M377 156 C369 141 359 128 347 116 C327 96 297 76 258 76 C226 76 144 76 168 209 C187 319 272 329 303 329 C342 329 364 309 377 289 C384 277 390 264 393 249 L377 156 Z " />
<glyph glyph-name="r" unicode="r" horiz-adv-x="342" d="M389 411 L351 411 C338 411 256 411 211 356 L198 405 L131 405 L60 0 L149 0 L189 230 C194 248 203 264 215 279 C235 304 271 329 332 329 C339 329 358 330 374 327 L389 411 Z " />
<glyph glyph-name="s" unicode="s" horiz-adv-x="415" d="M283 411 C200 411 108 382 92 298 C68 170 326 161 314 105 C309 77 253 76 217 76 C196 76 161 81 130 88 C112 91 93 95 74 100 L61 24 C85 12 142 -6 207 -6 C320 -6 388 36 403 116 C423 232 171 244 179 299 C184 328 216 329 288 329 C303 329 330 325 353 322 C366 320 380 318 394 316 L407 389 C387 400 346 411 283 411 L283 411 Z " />
<glyph glyph-name="t" unicode="t" horiz-adv-x="361" d="M148 324 L118 158 C105 75 110 -6 234 -6 C286 -6 308 1 323 12 L335 81 C320 80 287 76 274 76 C213 76 195 81 208 161 L237 324 L378 324 L392 405 L251 405 L277 555 L268 555 L86 377 L77 324 L148 324 Z " />
<glyph glyph-name="u" unicode="u" horiz-adv-x="484" d="M408 405 L363 150 C353 136 342 124 329 113 C306 94 276 76 237 76 C201 76 158 93 169 154 L213 405 L126 405 L80 145 C61 43 120 -6 188 -6 C216 -6 283 -5 344 43 L347 0 L424 0 L495 405 L408 405 Z " />
<glyph glyph-name="v" unicode="v" horiz-adv-x="446" d="M280 0 L497 405 L401 405 L237 83 L187 405 L91 405 L166 0 L280 0 Z " />
<glyph glyph-name="w" unicode="w" horiz-adv-x="647" d="M417 405 L371 405 L214 76 L190 405 L96 405 L139 0 L262 0 L355 187 L385 0 L508 0 L693 405 L599 405 L459 76 L417 405 Z " />
<glyph glyph-name="x" unicode="x" horiz-adv-x="414" d="M231 137 L293 0 L394 0 L300 203 L465 405 L360 405 L254 267 L196 405 L91 405 L184 203 L20 0 L121 0 L231 137 Z " />
<glyph glyph-name="y" unicode="y" horiz-adv-x="445" d="M137 -66 C110 -115 67 -116 51 -116 C47 -116 24 -114 16 -113 L1 -196 C16 -197 38 -198 62 -198 C107 -198 146 -185 200 -107 L501 405 L400 405 L238 115 L195 405 L101 405 C124 269 146 134 171 -2 L137 -66 Z " />
<glyph glyph-name="z" unicode="z" horiz-adv-x="429" d="M111 323 L326 323 L71 94 L55 0 L374 0 L388 80 L174 80 L428 308 L445 405 L126 405 L111 323 Z " />
<glyph glyph-name="braceleft" unicode="&#x7b;" horiz-adv-x="489" d="M114 281 L101 208 L130 208 C179 208 236 191 225 120 L193 -61 C185 -107 180 -205 297 -205 C356 -205 374 -200 389 -193 L402 -120 C387 -123 371 -123 358 -123 C294 -123 271 -100 284 -24 L306 97 C317 160 325 224 243 245 C333 269 348 330 358 392 L385 546 C398 621 429 643 493 643 C498 643 508 642 519 642 C525 641 531 641 537 641 L549 709 C537 716 517 724 461 724 C343 724 314 627 306 579 L269 369 C256 300 191 281 143 281 L114 281 Z " />
<glyph glyph-name="bar" unicode="&#x7c;" horiz-adv-x="217" d="M29 -204 L116 -204 L279 725 L192 725 L29 -204 Z " />
<glyph glyph-name="braceright" unicode="&#x7d;" horiz-adv-x="489" d="M444 281 C396 281 337 300 350 369 L387 579 C395 627 399 724 282 724 C226 724 205 716 190 709 L178 641 C184 641 190 641 196 642 C207 642 217 643 222 643 C286 643 309 621 296 546 L269 392 C259 330 249 269 332 245 C242 224 228 160 217 97 L195 -24 C182 -100 151 -123 87 -123 C74 -123 58 -123 43 -120 L30 -193 C40 -201 61 -205 118 -205 C236 -205 266 -107 274 -61 L306 120 C317 191 384 208 431 208 L460 208 L473 281 L444 281 Z " />
<glyph glyph-name="asciitilde" unicode="&#x7e;" horiz-adv-x="389" d="M335 205 C320 198 303 194 286 194 C242 194 215 231 170 231 C146 231 128 226 101 207 L115 143 C128 150 140 150 156 150 C199 150 225 114 268 114 C295 114 322 127 349 142 L335 205 Z " />
<glyph glyph-name="uni00A0" unicode="&#xa0;" horiz-adv-x="199" d="" />
<glyph glyph-name="exclamdown" unicode="&#xa1;" horiz-adv-x="217" d="M123 334 L63 -6 L150 -6 L210 334 L218 457 L159 457 L123 334 Z M161 547 C157 523 172 503 196 503 C220 503 244 523 248 547 C252 571 236 590 212 590 C188 590 165 571 161 547 L161 547 Z " />
<glyph glyph-name="cent" unicode="&#xa2;" horiz-adv-x="603" d="M448 513 C491 513 537 502 576 477 L633 539 C592 572 542 589 490 594 L514 730 L427 730 L403 590 C282 568 150 488 118 306 C81 94 196 19 299 0 L277 -120 L364 -120 L385 -5 C436 -1 493 15 545 51 L511 113 C463 86 416 76 371 76 C291 76 170 103 205 303 C237 476 350 513 448 513 L448 513 Z " />
<glyph glyph-name="sterling" unicode="&#xa3;" horiz-adv-x="568" d="M107 240 L174 240 L146 82 L79 82 L65 0 L503 0 L517 82 L233 82 L261 240 L407 240 L421 322 L275 322 L289 402 C308 511 391 513 435 513 C460 513 507 511 550 492 L589 560 C554 587 504 595 444 595 C372 595 231 570 202 402 L188 322 L121 322 L107 240 Z " />
<glyph glyph-name="currency" unicode="&#xa4;" horiz-adv-x="504" d="M278 148 C245 148 215 175 222 211 C229 248 264 276 300 276 C336 276 363 248 356 211 C348 175 312 148 278 148 L278 148 Z M264 70 C291 70 325 74 358 97 L404 48 L455 94 C440 111 419 132 404 145 C423 168 429 192 432 211 C435 227 438 253 427 277 L497 329 L462 374 L397 323 C370 346 341 352 314 352 C287 352 255 346 219 323 L172 374 L123 329 L173 277 C154 253 149 227 146 211 C143 192 139 168 150 145 C131 132 101 111 81 94 L116 48 L180 97 C205 74 237 70 264 70 L264 70 Z " />
<glyph glyph-name="yen" unicode="&#xa5;" horiz-adv-x="653" d="M493 54 L507 135 L393 135 L401 181 L515 181 L530 262 L451 262 L692 590 L594 590 L380 303 L267 590 L169 590 L294 262 L216 262 L201 181 L314 181 L306 135 L193 135 L179 54 L292 54 L283 0 L370 0 L379 54 L493 54 Z " />
<glyph glyph-name="brokenbar" unicode="&#xa6;" horiz-adv-x="217" d="M120 317 L207 317 L279 724 L192 724 L120 317 Z M29 -204 L116 -204 L187 203 L100 203 L29 -204 Z " />
<glyph glyph-name="section" unicode="&#xa7;" horiz-adv-x="490" d="M367 191 C447 207 469 250 477 298 C497 416 246 426 254 481 C261 512 289 514 361 514 C376 514 403 510 426 507 C439 504 454 502 469 500 L482 573 C462 584 424 595 357 595 C275 595 184 563 168 480 C161 445 182 415 211 390 C160 367 123 334 115 289 C102 212 192 172 257 153 C301 139 339 135 336 109 C330 76 275 76 240 76 C217 76 182 81 151 88 C133 91 114 95 94 100 L81 25 C104 12 162 -6 230 -6 C341 -6 410 40 423 119 C428 142 414 176 367 191 L367 191 Z M203 291 C206 302 212 345 313 345 C337 345 397 332 389 294 C381 248 332 232 288 232 L284 232 C239 233 196 252 203 291 L203 291 Z " />
<glyph glyph-name="dieresis" unicode="&#xa8;" horiz-adv-x="361" d="M155 515 L241 515 L255 590 L169 590 L155 515 Z M300 515 L386 515 L400 590 L314 590 L300 515 Z " />
<glyph glyph-name="copyright" unicode="&#xa9;" horiz-adv-x="731" d="M469 596 C305 596 145 462 116 294 C87 130 199 -5 363 -5 C531 -5 688 130 717 294 C746 462 637 596 469 596 L469 596 Z M376 69 C259 69 170 176 191 293 C212 415 338 521 455 521 C578 521 664 415 643 293 C622 176 499 69 376 69 L376 69 Z M384 127 C419 127 466 127 530 178 L493 229 C446 206 426 206 409 206 C364 206 336 241 347 298 C355 345 391 378 439 378 C456 378 475 378 515 354 L570 407 C521 458 479 459 441 459 C378 459 276 413 257 297 C233 167 327 130 384 127 L384 127 Z " />
<glyph glyph-name="ordfeminine" unicode="&#xaa;" horiz-adv-x="404" d="M422 476 C433 559 387 595 291 595 C239 595 215 590 198 583 L188 526 C207 529 230 530 251 530 C350 530 362 512 354 472 L348 442 C328 467 308 476 255 476 C177 476 139 426 131 377 C115 285 206 277 223 277 C242 277 284 278 324 305 L327 282 L388 282 L422 476 Z M331 375 C327 356 295 343 259 343 C199 343 187 357 191 376 C194 396 204 411 271 411 C333 411 331 386 331 375 L331 375 Z " />
<glyph glyph-name="guillemotleft" unicode="&#xab;" horiz-adv-x="558" d="M142 0 L235 0 L192 196 L302 393 L209 393 L99 196 L142 0 Z M400 0 L493 0 L450 196 L560 393 L467 393 L357 196 L400 0 Z " />
<glyph glyph-name="logicalnot" unicode="&#xac;" horiz-adv-x="497" d="M351 39 L438 39 L473 234 L106 234 L91 152 L371 152 L351 39 Z " />
<glyph glyph-name="uni00AD" unicode="&#xad;" horiz-adv-x="198" d="" />
<glyph glyph-name="registered" unicode="&#xae;" horiz-adv-x="731" d="M469 596 C305 596 145 462 116 294 C87 130 199 -5 363 -5 C531 -5 688 130 717 294 C746 462 637 596 469 596 L469 596 Z M376 69 C259 69 170 176 191 293 C212 415 338 521 455 521 C578 521 664 415 643 293 C622 176 499 69 376 69 L376 69 Z M559 352 C572 429 518 457 473 457 L334 457 L279 142 L369 142 L386 243 L397 243 C413 243 416 232 423 201 L434 142 L530 142 L521 210 C516 238 513 262 493 275 C528 284 552 317 559 352 L559 352 Z M400 322 L410 377 L438 377 C453 377 470 370 466 351 C462 327 443 322 428 322 L400 322 Z " />
<glyph glyph-name="macron" unicode="&#xaf;" horiz-adv-x="444" d="M468 509 L483 590 L169 590 L154 509 L468 509 Z " />
<glyph glyph-name="degree" unicode="&#xb0;" horiz-adv-x="376" d="M280 522 C303 522 322 513 315 474 C308 435 286 426 263 426 C240 426 220 435 227 474 C234 513 257 522 280 522 L280 522 Z M250 353 C326 353 383 410 394 474 C405 538 369 595 292 595 C217 595 159 538 148 474 C137 410 173 353 250 353 L250 353 Z " />
<glyph glyph-name="plusminus" unicode="&#xb1;" horiz-adv-x="455" d="M353 467 L266 467 L245 350 L126 350 L112 272 L231 272 L211 155 L298 155 L318 272 L437 272 L451 350 L332 350 L353 467 Z M65 0 L390 0 L403 78 L78 78 L65 0 Z " />
<glyph glyph-name="twosuperior" unicode="&#xb2;" horiz-adv-x="354" d="M113 274 L331 274 L342 339 L211 339 C274 373 364 427 375 489 C388 572 338 595 278 595 C237 595 208 586 180 574 L169 514 C193 521 231 530 256 530 C283 530 313 525 308 494 C296 429 133 391 121 320 L113 274 Z " />
<glyph glyph-name="threesuperior" unicode="&#xb3;" horiz-adv-x="345" d="M208 463 L191 397 L228 397 C259 397 281 397 276 368 C272 344 238 340 209 340 C170 340 148 345 127 352 L115 284 C134 277 163 274 207 274 C288 274 334 311 343 360 C346 375 352 418 319 426 C355 443 363 474 366 493 C382 582 303 595 260 595 C211 595 186 589 167 582 L156 518 C175 523 198 530 225 530 L233 530 C265 530 303 524 298 493 C294 468 276 463 249 463 L208 463 Z " />
<glyph glyph-name="acute" unicode="&#xb4;" horiz-adv-x="279" d="M318 590 L221 590 L147 466 L231 466 L318 590 Z " />
<glyph glyph-name="mu" unicode="&#xb5;" horiz-adv-x="484" d="M24 -171 L111 -171 L142 2 C157 -3 172 -6 188 -6 C216 -6 283 -5 344 43 L347 0 L424 0 L495 405 L408 405 L363 150 C353 136 342 124 329 113 C306 94 276 76 237 76 C201 76 158 93 169 154 L213 405 L126 405 L24 -171 Z " />
<glyph glyph-name="paragraph" unicode="&#xb6;" horiz-adv-x="592" d="M631 590 L299 590 C227 571 154 515 143 445 C131 374 182 315 269 296 L217 0 L304 0 L393 508 L529 508 L440 0 L527 0 L631 590 Z " />
<glyph glyph-name="periodcentered" unicode="&#xb7;" horiz-adv-x="216" d="M90 142 L176 142 L189 217 L103 217 L90 142 Z " />
<glyph glyph-name="cedilla" unicode="&#xb8;" horiz-adv-x="279" d="M42 -130 L139 -130 L212 -6 L128 -6 L42 -130 Z " />
<glyph glyph-name="onesuperior" unicode="&#xb9;" horiz-adv-x="297" d="M147 468 L254 514 L213 280 L281 280 L336 590 L268 590 L160 542 L147 468 Z " />
<glyph glyph-name="ordmasculine" unicode="&#xba;" horiz-adv-x="376" d="M280 522 C303 522 322 513 315 474 C308 435 286 426 263 426 C240 426 220 435 227 474 C234 513 257 522 280 522 L280 522 Z M250 353 C326 353 383 410 394 474 C405 538 369 595 292 595 C217 595 159 538 148 474 C137 410 173 353 250 353 L250 353 Z " />
<glyph glyph-name="guillemotright" unicode="&#xbb;" horiz-adv-x="558" d="M527 196 L487 393 L394 393 L434 196 L323 0 L416 0 L527 196 Z M269 196 L229 393 L136 393 L176 196 L65 0 L158 0 L269 196 Z " />
<glyph glyph-name="onequarter" unicode="&#xbc;" horiz-adv-x="752" d="M147 468 L254 514 L213 280 L281 280 L336 590 L268 590 L160 542 L147 468 Z M220 0 L293 0 L624 590 L549 590 L220 0 Z M583 0 L651 0 L661 60 L698 60 L710 126 L673 126 L708 328 L606 328 C549 267 499 207 442 146 L427 60 L593 60 L583 0 Z M504 126 L629 262 L605 126 L504 126 Z " />
<glyph glyph-name="onehalf" unicode="&#xbd;" horiz-adv-x="741" d="M147 468 L254 514 L213 280 L281 280 L336 590 L268 590 L160 542 L147 468 Z M220 0 L293 0 L624 590 L549 590 L220 0 Z M452 0 L670 0 L681 65 L550 65 C613 99 702 153 713 215 C729 298 676 321 617 321 C576 321 547 312 518 300 L508 240 C532 247 570 256 595 256 C622 256 651 251 646 220 C634 155 472 117 460 46 L452 0 Z " />
<glyph glyph-name="threequarters" unicode="&#xbe;" horiz-adv-x="771" d="M236 0 L309 0 L640 590 L565 590 L236 0 Z M208 463 L191 397 L228 397 C259 397 281 397 276 368 C272 344 238 340 209 340 C170 340 148 345 127 352 L115 284 C134 277 163 274 207 274 C288 274 334 311 343 360 C346 375 352 418 319 426 C355 443 363 474 366 493 C382 582 303 595 260 595 C211 595 186 589 167 582 L156 518 C175 523 198 530 225 530 L233 530 C265 530 303 524 298 493 C294 468 276 463 249 463 L208 463 Z M601 0 L669 0 L679 60 L716 60 L728 126 L691 126 L726 328 L624 328 C567 267 517 207 460 146 L445 60 L611 60 L601 0 Z M522 126 L647 262 L623 126 L522 126 Z " />
<glyph glyph-name="questiondown" unicode="&#xbf;" horiz-adv-x="507" d="M420 462 L334 462 L313 341 C141 309 104 219 93 159 C69 24 187 -6 269 -6 C369 -6 417 12 446 25 L459 101 C415 91 344 76 292 76 C249 76 165 80 178 162 C189 226 246 253 389 287 L420 462 Z M436 552 C440 576 424 595 400 595 C376 595 353 576 349 552 C345 528 361 508 385 508 C409 508 432 528 436 552 L436 552 Z " />
<glyph glyph-name="Agrave" unicode="&#xc0;" horiz-adv-x="599" d="M349 590 L25 0 L119 0 L194 139 L453 139 L480 0 L574 0 L458 590 L349 590 Z M383 483 L437 221 L239 221 L383 483 Z M327 781 L424 781 L454 657 L370 657 L327 781 Z " />
<glyph glyph-name="Aacute" unicode="&#xc1;" horiz-adv-x="599" d="M349 590 L25 0 L119 0 L194 139 L453 139 L480 0 L574 0 L458 590 L349 590 Z M383 483 L437 221 L239 221 L383 483 Z M459 657 L375 657 L449 781 L546 781 L459 657 Z " />
<glyph glyph-name="Acircumflex" unicode="&#xc2;" horiz-adv-x="599" d="M349 590 L25 0 L119 0 L194 139 L453 139 L480 0 L574 0 L458 590 L349 590 Z M383 483 L437 221 L239 221 L383 483 Z M480 796 L536 657 L450 657 L427 734 L376 657 L290 657 L396 796 L480 796 Z " />
<glyph glyph-name="Atilde" unicode="&#xc3;" horiz-adv-x="599" d="M349 590 L25 0 L119 0 L194 139 L453 139 L480 0 L574 0 L458 590 L349 590 Z M383 483 L437 221 L239 221 L383 483 Z M546 685 C519 670 492 657 465 657 C422 657 397 693 354 693 C338 693 327 693 312 686 L299 750 C326 769 344 774 368 774 C414 774 438 737 483 737 C499 737 516 740 532 748 L546 685 Z " />
<glyph glyph-name="Adieresis" unicode="&#xc4;" horiz-adv-x="599" d="M349 590 L25 0 L119 0 L194 139 L453 139 L480 0 L574 0 L458 590 L349 590 Z M383 483 L437 221 L239 221 L383 483 Z M299 657 L385 657 L399 732 L313 732 L299 657 Z M444 657 L530 657 L544 732 L458 732 L444 657 Z " />
<glyph glyph-name="Aring" unicode="&#xc5;" horiz-adv-x="599" d="M349 590 L25 0 L119 0 L194 139 L453 139 L480 0 L574 0 L458 590 L349 590 Z M383 483 L437 221 L239 221 L383 483 Z M443 826 C465 826 484 816 479 778 C472 739 449 730 426 730 C403 730 384 739 391 778 C398 817 420 826 443 826 L443 826 Z M413 657 C490 657 545 714 558 778 C569 842 533 899 456 899 C380 899 323 842 312 778 C299 714 337 657 413 657 L413 657 Z " />
<glyph glyph-name="AE" unicode="&#xc6;" horiz-adv-x="967" d="M1001 508 L1016 590 L570 590 L25 0 L136 0 C172 45 223 95 260 139 L542 139 L518 0 L912 0 L926 82 L619 82 L647 243 L898 243 L913 325 L662 325 L694 508 L1001 508 Z M337 221 L608 511 L556 221 L337 221 Z " />
<glyph glyph-name="Ccedilla" unicode="&#xc7;" horiz-adv-x="548" d="M423 513 C466 513 512 502 551 477 L608 539 C561 578 501 595 438 595 C306 595 131 520 93 306 C49 51 224 -6 333 -6 C393 -6 459 8 520 51 L486 113 C438 86 391 76 346 76 C266 76 145 103 180 303 C212 476 325 513 423 513 L423 513 Z M180 -188 L277 -188 L351 -64 L267 -64 L180 -188 Z " />
<glyph glyph-name="Egrave" unicode="&#xc8;" horiz-adv-x="514" d="M548 508 L563 590 L169 590 L65 0 L459 0 L473 82 L166 82 L194 243 L445 243 L460 325 L209 325 L241 508 L548 508 Z M297 781 L394 781 L424 657 L340 657 L297 781 Z " />
<glyph glyph-name="Eacute" unicode="&#xc9;" horiz-adv-x="514" d="M548 508 L563 590 L169 590 L65 0 L459 0 L473 82 L166 82 L194 243 L445 243 L460 325 L209 325 L241 508 L548 508 Z M426 657 L342 657 L416 781 L513 781 L426 657 Z " />
<glyph glyph-name="Ecircumflex" unicode="&#xca;" horiz-adv-x="514" d="M548 508 L563 590 L169 590 L65 0 L459 0 L473 82 L166 82 L194 243 L445 243 L460 325 L209 325 L241 508 L548 508 Z M446 796 L502 657 L416 657 L393 734 L342 657 L256 657 L362 796 L446 796 Z " />
<glyph glyph-name="Edieresis" unicode="&#xcb;" horiz-adv-x="514" d="M548 508 L563 590 L169 590 L65 0 L459 0 L473 82 L166 82 L194 243 L445 243 L460 325 L209 325 L241 508 L548 508 Z M252 657 L338 657 L352 732 L266 732 L252 657 Z M397 657 L483 657 L497 732 L411 732 L397 657 Z " />
<glyph glyph-name="Igrave" unicode="&#xcc;" horiz-adv-x="217" d="M65 0 L152 0 L256 590 L169 590 L65 0 Z M134 781 L231 781 L261 657 L177 657 L134 781 Z " />
<glyph glyph-name="Iacute" unicode="&#xcd;" horiz-adv-x="217" d="M256 590 L169 590 L65 0 L152 0 L256 590 Z M270 657 L186 657 L260 781 L357 781 L270 657 Z " />
<glyph glyph-name="Icircumflex" unicode="&#xce;" horiz-adv-x="217" d="M65 0 L152 0 L256 590 L169 590 L65 0 Z M290 796 L346 657 L260 657 L237 734 L186 657 L100 657 L206 796 L290 796 Z " />
<glyph glyph-name="Idieresis" unicode="&#xcf;" horiz-adv-x="217" d="M65 0 L152 0 L256 590 L169 590 L65 0 Z M115 657 L201 657 L215 732 L129 732 L115 657 Z M246 657 L332 657 L346 732 L260 732 L246 657 Z " />
<glyph glyph-name="Eth" unicode="&#xd0;" horiz-adv-x="622" d="M202 590 L156 331 L83 331 L69 250 L142 250 L98 0 L301 0 C407 0 583 59 625 306 C662 519 521 590 393 590 L202 590 Z M199 82 L229 250 L383 250 L397 331 L243 331 L274 508 L380 508 C479 508 564 457 538 303 C503 103 381 82 302 82 L199 82 Z " />
<glyph glyph-name="Ntilde" unicode="&#xd1;" horiz-adv-x="627" d="M460 0 L562 0 L666 590 L579 590 L498 132 L270 590 L169 590 L65 0 L152 0 L231 453 L460 0 Z M552 685 C525 670 498 657 471 657 C428 657 403 693 360 693 C344 693 333 693 318 686 L305 750 C332 769 350 774 374 774 C420 774 444 737 489 737 C505 737 522 740 538 748 L552 685 Z " />
<glyph glyph-name="Ograve" unicode="&#xd2;" horiz-adv-x="666" d="M346 76 C268 76 155 103 190 303 C222 476 325 513 423 513 C519 513 614 476 582 303 C547 103 423 76 346 76 L346 76 Z M331 -6 C440 -6 624 51 669 306 C707 520 567 595 437 595 C309 595 141 520 103 306 C59 51 222 -6 331 -6 L331 -6 Z M362 781 L459 781 L489 657 L405 657 L362 781 Z " />
<glyph glyph-name="Oacute" unicode="&#xd3;" horiz-adv-x="666" d="M346 76 C268 76 155 103 190 303 C222 476 325 513 423 513 C519 513 614 476 582 303 C547 103 423 76 346 76 L346 76 Z M331 -6 C440 -6 624 51 669 306 C707 520 567 595 437 595 C309 595 141 520 103 306 C59 51 222 -6 331 -6 L331 -6 Z M491 657 L407 657 L481 781 L578 781 L491 657 Z " />
<glyph glyph-name="Ocircumflex" unicode="&#xd4;" horiz-adv-x="666" d="M346 76 C268 76 155 103 190 303 C222 476 325 513 423 513 C519 513 614 476 582 303 C547 103 423 76 346 76 L346 76 Z M331 -6 C440 -6 624 51 669 306 C707 520 567 595 437 595 C309 595 141 520 103 306 C59 51 222 -6 331 -6 L331 -6 Z M515 796 L571 657 L485 657 L462 734 L411 657 L325 657 L431 796 L515 796 Z " />
<glyph glyph-name="Otilde" unicode="&#xd5;" horiz-adv-x="666" d="M346 76 C268 76 155 103 190 303 C222 476 325 513 423 513 C519 513 614 476 582 303 C547 103 423 76 346 76 L346 76 Z M331 -6 C440 -6 624 51 669 306 C707 520 567 595 437 595 C309 595 141 520 103 306 C59 51 222 -6 331 -6 L331 -6 Z M581 685 C554 670 527 657 500 657 C457 657 432 693 389 693 C373 693 362 693 347 686 L334 750 C361 769 379 774 403 774 C449 774 473 737 518 737 C534 737 551 740 567 748 L581 685 Z " />
<glyph glyph-name="Odieresis" unicode="&#xd6;" horiz-adv-x="666" d="M346 76 C268 76 155 103 190 303 C222 476 325 513 423 513 C519 513 614 476 582 303 C547 103 423 76 346 76 L346 76 Z M331 -6 C440 -6 624 51 669 306 C707 520 567 595 437 595 C309 595 141 520 103 306 C59 51 222 -6 331 -6 L331 -6 Z M334 657 L420 657 L434 732 L348 732 L334 657 Z M479 657 L565 657 L579 732 L493 732 L479 657 Z " />
<glyph glyph-name="multiply" unicode="&#xd7;" horiz-adv-x="420" d="M230 118 L261 50 L362 50 L296 195 C335 244 376 292 415 341 L316 341 L256 266 L224 341 L125 341 C145 292 172 244 192 195 L74 50 L175 50 L230 118 Z " />
<glyph glyph-name="Oslash" unicode="&#xd8;" horiz-adv-x="666" d="M638 669 L547 669 L503 588 C482 593 460 595 437 595 C309 595 141 520 103 306 C76 152 126 70 193 30 L129 -87 L220 -87 L268 1 C289 -4 310 -6 331 -6 C440 -6 624 51 669 306 C693 438 648 520 578 560 L638 669 Z M346 76 C268 76 155 103 190 303 C222 476 325 513 423 513 C519 513 614 476 582 303 C547 103 423 76 346 76 L346 76 Z " />
<glyph glyph-name="Ugrave" unicode="&#xd9;" horiz-adv-x="606" d="M301 -6 C407 -6 548 36 588 267 L645 590 L558 590 L502 276 C473 117 396 76 316 76 C238 76 171 117 200 276 L256 590 L169 590 L112 267 C72 36 195 -6 301 -6 L301 -6 Z M338 781 L435 781 L465 657 L381 657 L338 781 Z " />
<glyph glyph-name="Uacute" unicode="&#xda;" horiz-adv-x="606" d="M301 -6 C407 -6 548 36 588 267 L645 590 L558 590 L502 276 C473 117 396 76 316 76 C238 76 171 117 200 276 L256 590 L169 590 L112 267 C72 36 195 -6 301 -6 L301 -6 Z M455 657 L371 657 L445 781 L542 781 L455 657 Z " />
<glyph glyph-name="Ucircumflex" unicode="&#xdb;" horiz-adv-x="606" d="M301 -6 C407 -6 548 36 588 267 L645 590 L558 590 L502 276 C473 117 396 76 316 76 C238 76 171 117 200 276 L256 590 L169 590 L112 267 C72 36 195 -6 301 -6 L301 -6 Z M485 796 L541 657 L455 657 L432 734 L381 657 L295 657 L401 796 L485 796 Z " />
<glyph glyph-name="Udieresis" unicode="&#xdc;" horiz-adv-x="606" d="M301 -6 C407 -6 548 36 588 267 L645 590 L558 590 L502 276 C473 117 396 76 316 76 C238 76 171 117 200 276 L256 590 L169 590 L112 267 C72 36 195 -6 301 -6 L301 -6 Z M303 657 L389 657 L403 732 L317 732 L303 657 Z M448 657 L534 657 L548 732 L462 732 L448 657 Z " />
<glyph glyph-name="Yacute" unicode="&#xdd;" horiz-adv-x="563" d="M335 303 L222 590 L124 590 L273 199 L238 0 L325 0 L360 199 L647 590 L549 590 L335 303 Z M441 657 L357 657 L431 781 L528 781 L441 657 Z " />
<glyph glyph-name="Thorn" unicode="&#xde;" horiz-adv-x="549" d="M60 0 L147 0 L164 97 L357 97 C438 97 543 138 572 302 C596 440 506 495 424 495 L234 495 L251 590 L164 590 L60 0 Z M408 413 C456 413 503 393 487 302 C469 196 413 179 367 179 L178 179 L219 413 L408 413 Z " />
<glyph glyph-name="germandbls" unicode="&#xdf;" horiz-adv-x="569" d="M391 595 C283 595 160 578 118 331 L60 0 L147 0 L204 328 C233 495 288 513 375 513 L391 513 C440 513 504 494 490 421 C474 330 389 326 344 326 L310 244 L379 244 C428 244 489 244 478 180 C462 89 391 82 346 82 L300 82 L286 0 L331 0 C487 0 547 70 563 167 C575 235 561 279 489 294 C561 337 572 385 577 423 C601 564 500 595 414 595 L391 595 Z " />
<glyph glyph-name="agrave" unicode="&#xe0;" horiz-adv-x="471" d="M454 245 C469 353 411 411 287 411 C212 411 182 399 148 389 L135 316 C175 323 214 329 235 329 C356 329 374 293 366 242 L360 209 C303 250 247 250 217 250 C128 250 73 196 62 128 C40 4 147 -6 168 -6 L180 -6 C206 -6 272 -5 331 43 L329 0 L411 0 L454 245 Z M344 114 C337 107 329 100 318 95 C299 84 272 76 229 76 C161 76 142 96 149 125 C154 154 169 173 246 173 C281 173 307 164 324 155 C334 150 342 144 348 138 L344 114 Z M242 595 L339 595 L370 471 L286 471 L242 595 Z " />
<glyph glyph-name="aacute" unicode="&#xe1;" horiz-adv-x="471" d="M454 245 C469 353 411 411 287 411 C212 411 182 399 148 389 L135 316 C175 323 214 329 235 329 C356 329 374 293 366 242 L360 209 C303 250 247 250 217 250 C128 250 73 196 62 128 C40 4 147 -6 168 -6 L180 -6 C206 -6 272 -5 331 43 L329 0 L411 0 L454 245 Z M344 114 C337 107 329 100 318 95 C299 84 272 76 229 76 C161 76 142 96 149 125 C154 154 169 173 246 173 C281 173 307 164 324 155 C334 150 342 144 348 138 L344 114 Z M361 471 L277 471 L350 595 L447 595 L361 471 Z " />
<glyph glyph-name="acircumflex" unicode="&#xe2;" horiz-adv-x="471" d="M454 245 C469 353 411 411 287 411 C212 411 182 399 148 389 L135 316 C175 323 214 329 235 329 C356 329 374 293 366 242 L360 209 C303 250 247 250 217 250 C128 250 73 196 62 128 C40 4 147 -6 168 -6 L180 -6 C206 -6 272 -5 331 43 L329 0 L411 0 L454 245 Z M344 114 C337 107 329 100 318 95 C299 84 272 76 229 76 C161 76 142 96 149 125 C154 154 169 173 246 173 C281 173 307 164 324 155 C334 150 342 144 348 138 L344 114 Z M378 610 L435 471 L349 471 L325 548 L275 471 L189 471 L294 610 L378 610 Z " />
<glyph glyph-name="atilde" unicode="&#xe3;" horiz-adv-x="471" d="M454 245 C469 353 411 411 287 411 C212 411 182 399 148 389 L135 316 C175 323 214 329 235 329 C356 329 374 293 366 242 L360 209 C303 250 247 250 217 250 C128 250 73 196 62 128 C40 4 147 -6 168 -6 L180 -6 C206 -6 272 -5 331 43 L329 0 L411 0 L454 245 Z M344 114 C337 107 329 100 318 95 C299 84 272 76 229 76 C161 76 142 96 149 125 C154 154 169 173 246 173 C281 173 307 164 324 155 C334 150 342 144 348 138 L344 114 Z M462 499 C435 484 409 471 382 471 C339 471 313 507 270 507 C254 507 242 507 229 500 L215 564 C242 583 260 588 284 588 C329 588 356 551 400 551 C417 551 434 555 449 562 L462 499 Z " />
<glyph glyph-name="adieresis" unicode="&#xe4;" horiz-adv-x="471" d="M454 245 C469 353 411 411 287 411 C212 411 182 399 148 389 L135 316 C175 323 214 329 235 329 C356 329 374 293 366 242 L360 209 C303 250 247 250 217 250 C128 250 73 196 62 128 C40 4 147 -6 168 -6 L180 -6 C206 -6 272 -5 331 43 L329 0 L411 0 L454 245 Z M344 114 C337 107 329 100 318 95 C299 84 272 76 229 76 C161 76 142 96 149 125 C154 154 169 173 246 173 C281 173 307 164 324 155 C334 150 342 144 348 138 L344 114 Z M215 471 L301 471 L314 546 L228 546 L215 471 Z M360 471 L446 471 L459 546 L373 546 L360 471 Z " />
<glyph glyph-name="aring" unicode="&#xe5;" horiz-adv-x="471" d="M454 245 C469 353 411 411 287 411 C212 411 182 399 148 389 L135 316 C175 323 214 329 235 329 C356 329 374 293 366 242 L360 209 C303 250 247 250 217 250 C128 250 73 196 62 128 C40 4 147 -6 168 -6 L180 -6 C206 -6 272 -5 331 43 L329 0 L411 0 L454 245 Z M344 114 C337 107 329 100 318 95 C299 84 272 76 229 76 C161 76 142 96 149 125 C154 154 169 173 246 173 C281 173 307 164 324 155 C334 150 342 144 348 138 L344 114 Z M355 640 C378 640 398 631 391 592 C384 553 361 544 338 544 C315 544 296 553 303 592 C310 631 332 640 355 640 L355 640 Z M326 471 C402 471 457 528 470 592 C481 656 445 713 368 713 C292 713 235 656 224 592 C211 528 251 471 326 471 L326 471 Z " />
<glyph glyph-name="ae" unicode="&#xe6;" horiz-adv-x="746" d="M736 228 C755 332 707 411 583 411 C522 411 472 389 435 353 C408 392 358 411 287 411 C212 411 182 399 148 389 L135 316 C175 323 214 329 235 329 C356 329 374 293 366 242 L360 209 C303 250 247 250 217 250 C128 250 73 196 62 128 C38 -5 154 -6 197 -6 L209 -6 C234 -6 333 0 380 58 C407 19 452 -6 524 -6 C592 -6 639 3 670 14 L683 88 C640 83 589 76 569 76 C463 76 443 104 440 167 L725 167 L736 228 Z M344 114 C337 107 329 100 318 95 C299 84 272 76 229 76 C161 76 142 96 149 125 C154 154 169 173 246 173 C281 173 307 164 324 155 C334 150 342 144 348 138 L344 114 Z M453 242 C476 299 507 329 568 329 C621 329 651 311 652 242 L453 242 Z " />
<glyph glyph-name="ccedilla" unicode="&#xe7;" horiz-adv-x="422" d="M372 100 C321 79 291 76 264 76 C219 76 144 100 163 208 C179 304 262 329 309 329 C333 329 367 326 408 305 L456 368 C402 411 350 411 310 411 C230 411 100 351 76 207 C47 43 164 -3 235 -6 C278 -6 336 -7 398 36 L372 100 Z M111 -188 L208 -188 L282 -64 L198 -64 L111 -188 Z " />
<glyph glyph-name="egrave" unicode="&#xe8;" horiz-adv-x="467" d="M457 228 C476 332 428 411 304 411 C179 411 101 318 80 203 C59 87 107 -6 245 -6 C313 -6 360 3 391 14 L404 88 C361 83 310 76 290 76 C184 76 164 104 161 167 L446 167 L457 228 Z M174 242 C197 299 228 329 289 329 C342 329 372 311 373 242 L174 242 Z M235 595 L332 595 L363 471 L279 471 L235 595 Z " />
<glyph glyph-name="eacute" unicode="&#xe9;" horiz-adv-x="467" d="M457 228 C476 332 428 411 304 411 C179 411 101 318 80 203 C59 87 107 -6 245 -6 C313 -6 360 3 391 14 L404 88 C361 83 310 76 290 76 C184 76 164 104 161 167 L446 167 L457 228 Z M174 242 C197 299 228 329 289 329 C342 329 372 311 373 242 L174 242 Z M359 471 L275 471 L348 595 L445 595 L359 471 Z " />
<glyph glyph-name="ecircumflex" unicode="&#xea;" horiz-adv-x="467" d="M457 228 C476 332 428 411 304 411 C179 411 101 318 80 203 C59 87 107 -6 245 -6 C313 -6 360 3 391 14 L404 88 C361 83 310 76 290 76 C184 76 164 104 161 167 L446 167 L457 228 Z M174 242 C197 299 228 329 289 329 C342 329 372 311 373 242 L174 242 Z M389 610 L446 471 L360 471 L336 548 L286 471 L200 471 L305 610 L389 610 Z " />
<glyph glyph-name="edieresis" unicode="&#xeb;" horiz-adv-x="467" d="M457 228 C476 332 428 411 304 411 C179 411 101 318 80 203 C59 87 107 -6 245 -6 C313 -6 360 3 391 14 L404 88 C361 83 310 76 290 76 C184 76 164 104 161 167 L446 167 L457 228 Z M174 242 C197 299 228 329 289 329 C342 329 372 311 373 242 L174 242 Z M204 471 L290 471 L303 546 L217 546 L204 471 Z M349 471 L435 471 L448 546 L362 546 L349 471 Z " />
<glyph glyph-name="igrave" unicode="&#xec;" horiz-adv-x="216" d="M64 0 L151 0 L222 405 L135 405 L64 0 Z M104 595 L201 595 L232 471 L148 471 L104 595 Z " />
<glyph glyph-name="iacute" unicode="&#xed;" horiz-adv-x="217" d="M223 405 L136 405 L65 0 L152 0 L223 405 Z M234 471 L150 471 L223 595 L320 595 L234 471 Z " />
<glyph glyph-name="icircumflex" unicode="&#xee;" horiz-adv-x="217" d="M223 405 L136 405 L65 0 L152 0 L223 405 Z M257 610 L314 471 L228 471 L204 548 L154 471 L68 471 L173 610 L257 610 Z " />
<glyph glyph-name="idieresis" unicode="&#xef;" horiz-adv-x="217" d="M223 405 L136 405 L65 0 L152 0 L223 405 Z M83 471 L169 471 L182 546 L96 546 L83 471 Z M214 471 L300 471 L313 546 L227 546 L214 471 Z " />
<glyph glyph-name="eth" unicode="&#xf0;" horiz-adv-x="538" d="M542 661 L495 706 L441 652 C409 656 394 657 367 657 C296 657 262 643 235 632 L222 559 C276 567 273 571 366 571 L283 495 L329 451 L431 553 C466 515 492 491 465 341 C404 378 345 380 321 380 L315 380 C230 380 103 333 79 193 C50 22 189 -6 261 -6 L271 -6 C344 -6 494 17 526 189 L552 339 C578 490 552 566 499 617 L542 661 Z M281 76 C239 76 146 86 165 188 C181 288 275 297 320 297 C365 297 455 288 439 188 C420 89 324 76 281 76 L281 76 Z " />
<glyph glyph-name="ntilde" unicode="&#xf1;" horiz-adv-x="484" d="M147 0 L191 255 C202 268 213 281 226 292 C249 311 279 329 318 329 C354 329 397 312 386 251 L342 0 L429 0 L475 262 C488 345 429 411 360 411 C333 411 270 410 210 359 L208 405 L131 405 L60 0 L147 0 Z M465 499 C438 484 412 471 385 471 C342 471 316 507 273 507 C257 507 245 507 232 500 L218 564 C245 583 263 588 287 588 C332 588 359 551 403 551 C420 551 437 555 452 562 L465 499 Z " />
<glyph glyph-name="ograve" unicode="&#xf2;" horiz-adv-x="492" d="M259 76 C214 76 147 93 168 205 C184 301 256 329 304 329 C353 329 412 301 396 205 C375 93 306 76 259 76 L259 76 Z M244 -6 C320 -6 454 37 483 207 C507 351 406 411 318 411 C231 411 105 351 81 207 C52 37 167 -6 244 -6 L244 -6 Z M241 595 L338 595 L369 471 L285 471 L241 595 Z " />
<glyph glyph-name="oacute" unicode="&#xf3;" horiz-adv-x="492" d="M259 76 C214 76 147 93 168 205 C184 301 256 329 304 329 C353 329 412 301 396 205 C375 93 306 76 259 76 L259 76 Z M244 -6 C320 -6 454 37 483 207 C507 351 406 411 318 411 C231 411 105 351 81 207 C52 37 167 -6 244 -6 L244 -6 Z M373 471 L289 471 L362 595 L459 595 L373 471 Z " />
<glyph glyph-name="ocircumflex" unicode="&#xf4;" horiz-adv-x="492" d="M259 76 C214 76 147 93 168 205 C184 301 256 329 304 329 C353 329 412 301 396 205 C375 93 306 76 259 76 L259 76 Z M244 -6 C320 -6 454 37 483 207 C507 351 406 411 318 411 C231 411 105 351 81 207 C52 37 167 -6 244 -6 L244 -6 Z M395 610 L452 471 L366 471 L342 548 L292 471 L206 471 L311 610 L395 610 Z " />
<glyph glyph-name="otilde" unicode="&#xf5;" horiz-adv-x="492" d="M259 76 C214 76 147 93 168 205 C184 301 256 329 304 329 C353 329 412 301 396 205 C375 93 306 76 259 76 L259 76 Z M244 -6 C320 -6 454 37 483 207 C507 351 406 411 318 411 C231 411 105 351 81 207 C52 37 167 -6 244 -6 L244 -6 Z M462 499 C435 484 409 471 382 471 C339 471 313 507 270 507 C254 507 242 507 229 500 L215 564 C242 583 260 588 284 588 C329 588 356 551 400 551 C417 551 434 555 449 562 L462 499 Z " />
<glyph glyph-name="odieresis" unicode="&#xf6;" horiz-adv-x="492" d="M259 76 C214 76 147 93 168 205 C184 301 256 329 304 329 C353 329 412 301 396 205 C375 93 306 76 259 76 L259 76 Z M244 -6 C320 -6 454 37 483 207 C507 351 406 411 318 411 C231 411 105 351 81 207 C52 37 167 -6 244 -6 L244 -6 Z M214 471 L300 471 L313 546 L227 546 L214 471 Z M359 471 L445 471 L458 546 L372 546 L359 471 Z " />
<glyph glyph-name="divide" unicode="&#xf7;" horiz-adv-x="444" d="M408 166 L422 247 L108 247 L94 166 L408 166 Z M237 352 C232 325 247 306 274 306 C301 306 325 325 330 352 C334 379 318 399 291 399 C264 399 241 379 237 352 L237 352 Z M185 59 C180 32 196 13 223 13 C250 13 273 32 278 59 C282 86 266 106 239 106 C212 106 189 86 185 59 L185 59 Z " />
<glyph glyph-name="oslash" unicode="&#xf8;" horiz-adv-x="492" d="M488 492 L397 492 L350 408 C340 410 329 411 318 411 C231 411 105 351 81 207 C64 110 94 56 138 25 L72 -96 L163 -96 L214 -4 C226 -5 235 -6 244 -6 C320 -6 454 37 483 207 C498 291 469 346 424 378 L488 492 Z M259 76 C214 76 147 93 168 205 C184 301 256 329 304 329 C353 329 412 301 396 205 C375 93 306 76 259 76 L259 76 Z " />
<glyph glyph-name="ugrave" unicode="&#xf9;" horiz-adv-x="484" d="M408 405 L363 150 C353 136 342 124 329 113 C306 94 276 76 237 76 C201 76 158 93 169 154 L213 405 L126 405 L80 145 C61 43 120 -6 188 -6 C216 -6 283 -5 344 43 L347 0 L424 0 L495 405 L408 405 Z M241 595 L338 595 L369 471 L285 471 L241 595 Z " />
<glyph glyph-name="uacute" unicode="&#xfa;" horiz-adv-x="484" d="M408 405 L363 150 C353 136 342 124 329 113 C306 94 276 76 237 76 C201 76 158 93 169 154 L213 405 L126 405 L80 145 C61 43 120 -6 188 -6 C216 -6 283 -5 344 43 L347 0 L424 0 L495 405 L408 405 Z M367 471 L283 471 L356 595 L453 595 L367 471 Z " />
<glyph glyph-name="ucircumflex" unicode="&#xfb;" horiz-adv-x="484" d="M408 405 L363 150 C353 136 342 124 329 113 C306 94 276 76 237 76 C201 76 158 93 169 154 L213 405 L126 405 L80 145 C61 43 120 -6 188 -6 C216 -6 283 -5 344 43 L347 0 L424 0 L495 405 L408 405 Z M389 610 L446 471 L360 471 L336 548 L286 471 L200 471 L305 610 L389 610 Z " />
<glyph glyph-name="udieresis" unicode="&#xfc;" horiz-adv-x="484" d="M408 405 L363 150 C353 136 342 124 329 113 C306 94 276 76 237 76 C201 76 158 93 169 154 L213 405 L126 405 L80 145 C61 43 120 -6 188 -6 C216 -6 283 -5 344 43 L347 0 L424 0 L495 405 L408 405 Z M207 471 L293 471 L306 546 L220 546 L207 471 Z M352 471 L438 471 L451 546 L365 546 L352 471 Z " />
<glyph glyph-name="yacute" unicode="&#xfd;" horiz-adv-x="445" d="M137 -66 C110 -115 67 -116 51 -116 C47 -116 24 -114 16 -113 L1 -196 C16 -197 38 -198 62 -198 C107 -198 146 -185 200 -107 L501 405 L400 405 L238 115 L195 405 L101 405 C124 269 146 134 171 -2 L137 -66 Z M359 471 L275 471 L348 595 L445 595 L359 471 Z " />
<glyph glyph-name="thorn" unicode="&#xfe;" horiz-adv-x="499" d="M25 -195 L114 -195 L156 43 C191 -5 248 -6 275 -6 C354 -6 461 43 490 209 C514 350 433 411 341 411 C325 411 261 411 210 360 L249 590 L163 590 L25 -195 Z M192 249 C201 264 211 277 223 289 C243 309 273 329 312 329 C345 329 422 318 403 209 C379 76 300 76 267 76 C228 76 205 96 192 116 C185 128 179 141 176 156 L192 249 Z " />
<glyph glyph-name="ydieresis" unicode="&#xff;" horiz-adv-x="445" d="M137 -66 C110 -115 67 -116 51 -116 C47 -116 24 -114 16 -113 L1 -196 C16 -197 38 -198 62 -198 C107 -198 146 -185 200 -107 L501 405 L400 405 L238 115 L195 405 L101 405 C124 269 146 134 171 -2 L137 -66 Z M201 471 L287 471 L300 546 L214 546 L201 471 Z M346 471 L432 471 L445 546 L359 546 L346 471 Z " />
<glyph glyph-name="Amacron" unicode="&#x100;" horiz-adv-x="599" d="M349 590 L25 0 L119 0 L194 139 L453 139 L480 0 L574 0 L458 590 L349 590 Z M383 483 L437 221 L239 221 L383 483 Z M570 657 L585 738 L271 738 L256 657 L570 657 Z " />
<glyph glyph-name="amacron" unicode="&#x101;" horiz-adv-x="471" d="M454 245 C469 353 411 411 287 411 C212 411 182 399 148 389 L135 316 C175 323 214 329 235 329 C356 329 374 293 366 242 L360 209 C303 250 247 250 217 250 C128 250 73 196 62 128 C40 4 147 -6 168 -6 L180 -6 C206 -6 272 -5 331 43 L329 0 L411 0 L454 245 Z M344 114 C337 107 329 100 318 95 C299 84 272 76 229 76 C161 76 142 96 149 125 C154 154 169 173 246 173 C281 173 307 164 324 155 C334 150 342 144 348 138 L344 114 Z M478 471 L492 552 L178 552 L164 471 L478 471 Z " />
<glyph glyph-name="Abreve" unicode="&#x102;" horiz-adv-x="599" d="M349 590 L25 0 L119 0 L194 139 L453 139 L480 0 L574 0 L458 590 L349 590 Z M383 483 L437 221 L239 221 L383 483 Z M414 657 C475 657 545 687 577 771 L491 771 C471 735 451 730 427 730 C403 730 385 735 377 771 L291 771 C296 687 352 657 414 657 L414 657 Z " />
<glyph glyph-name="abreve" unicode="&#x103;" horiz-adv-x="471" d="M454 245 C469 353 411 411 287 411 C212 411 182 399 148 389 L135 316 C175 323 214 329 235 329 C356 329 374 293 366 242 L360 209 C303 250 247 250 217 250 C128 250 73 196 62 128 C40 4 147 -6 168 -6 L180 -6 C206 -6 272 -5 331 43 L329 0 L411 0 L454 245 Z M344 114 C337 107 329 100 318 95 C299 84 272 76 229 76 C161 76 142 96 149 125 C154 154 169 173 246 173 C281 173 307 164 324 155 C334 150 342 144 348 138 L344 114 Z M326 471 C388 471 454 501 489 585 L403 585 C382 549 362 544 338 544 C314 544 296 549 289 585 L203 585 C206 501 266 471 326 471 L326 471 Z " />
<glyph glyph-name="Aogonek" unicode="&#x104;" horiz-adv-x="599" d="M349 590 L25 0 L119 0 L194 139 L453 139 L480 0 L574 0 L458 590 L349 590 Z M383 483 L437 221 L239 221 L383 483 Z M392 -177 L489 -177 L563 -53 L479 -53 L392 -177 Z " />
<glyph glyph-name="aogonek" unicode="&#x105;" horiz-adv-x="471" d="M454 245 C469 353 411 411 287 411 C212 411 182 399 148 389 L135 316 C175 323 214 329 235 329 C356 329 374 293 366 242 L360 209 C303 250 247 250 217 250 C128 250 73 196 62 128 C40 4 147 -6 168 -6 L180 -6 C206 -6 272 -5 331 43 L329 0 L411 0 L454 245 Z M344 114 C337 107 329 100 318 95 C299 84 272 76 229 76 C161 76 142 96 149 125 C154 154 169 173 246 173 C281 173 307 164 324 155 C334 150 342 144 348 138 L344 114 Z M229 -177 L326 -177 L400 -53 L316 -53 L229 -177 Z " />
<glyph glyph-name="Cacute" unicode="&#x106;" horiz-adv-x="548" d="M423 513 C466 513 512 502 551 477 L608 539 C561 578 501 595 438 595 C306 595 131 520 93 306 C49 51 224 -6 333 -6 C393 -6 459 8 520 51 L486 113 C438 86 391 76 346 76 C266 76 145 103 180 303 C212 476 325 513 423 513 L423 513 Z M561 781 L464 781 L390 657 L474 657 L561 781 Z " />
<glyph glyph-name="cacute" unicode="&#x107;" horiz-adv-x="422" d="M372 100 C321 79 291 76 264 76 C219 76 144 100 163 208 C179 304 262 329 309 329 C333 329 367 326 408 305 L456 368 C402 411 350 411 310 411 C230 411 100 351 76 207 C47 43 164 -3 235 -6 C278 -6 336 -7 398 36 L372 100 Z M455 595 L358 595 L285 471 L369 471 L455 595 Z " />
<glyph glyph-name="Ccircumflex" unicode="&#x108;" horiz-adv-x="548" d="M423 513 C466 513 512 502 551 477 L608 539 C561 578 501 595 438 595 C306 595 131 520 93 306 C49 51 224 -6 333 -6 C393 -6 459 8 520 51 L486 113 C438 86 391 76 346 76 C266 76 145 103 180 303 C212 476 325 513 423 513 L423 513 Z M419 796 L313 657 L399 657 L450 734 L473 657 L559 657 L503 796 L419 796 Z " />
<glyph glyph-name="ccircumflex" unicode="&#x109;" horiz-adv-x="422" d="M372 100 C321 79 291 76 264 76 C219 76 144 100 163 208 C179 304 262 329 309 329 C333 329 367 326 408 305 L456 368 C402 411 350 411 310 411 C230 411 100 351 76 207 C47 43 164 -3 235 -6 C278 -6 336 -7 398 36 L372 100 Z M307 610 L202 471 L288 471 L338 548 L362 471 L448 471 L391 610 L307 610 Z " />
<glyph glyph-name="Cdotaccent" unicode="&#x10a;" horiz-adv-x="548" d="M423 513 C466 513 512 502 551 477 L608 539 C561 578 501 595 438 595 C306 595 131 520 93 306 C49 51 224 -6 333 -6 C393 -6 459 8 520 51 L486 113 C438 86 391 76 346 76 C266 76 145 103 180 303 C212 476 325 513 423 513 L423 513 Z M376 657 L462 657 L476 732 L390 732 L376 657 Z " />
<glyph glyph-name="cdotaccent" unicode="&#x10b;" horiz-adv-x="422" d="M372 100 C321 79 291 76 264 76 C219 76 144 100 163 208 C179 304 262 329 309 329 C333 329 367 326 408 305 L456 368 C402 411 350 411 310 411 C230 411 100 351 76 207 C47 43 164 -3 235 -6 C278 -6 336 -7 398 36 L372 100 Z M279 471 L365 471 L378 546 L292 546 L279 471 Z " />
<glyph glyph-name="Ccaron" unicode="&#x10c;" horiz-adv-x="548" d="M423 513 C466 513 512 502 551 477 L608 539 C561 578 501 595 438 595 C306 595 131 520 93 306 C49 51 224 -6 333 -6 C393 -6 459 8 520 51 L486 113 C438 86 391 76 346 76 C266 76 145 103 180 303 C212 476 325 513 423 513 L423 513 Z M478 657 L584 796 L498 796 L447 719 L424 796 L338 796 L394 657 L478 657 Z " />
<glyph glyph-name="ccaron" unicode="&#x10d;" horiz-adv-x="422" d="M372 100 C321 79 291 76 264 76 C219 76 144 100 163 208 C179 304 262 329 309 329 C333 329 367 326 408 305 L456 368 C402 411 350 411 310 411 C230 411 100 351 76 207 C47 43 164 -3 235 -6 C278 -6 336 -7 398 36 L372 100 Z M366 471 L471 610 L385 610 L334 533 L311 610 L225 610 L282 471 L366 471 Z " />
<glyph glyph-name="Dcaron" unicode="&#x10e;" horiz-adv-x="589" d="M592 306 C629 519 488 590 360 590 L169 590 L65 0 L268 0 C374 0 550 59 592 306 L592 306 Z M269 82 L166 82 L241 508 L347 508 C446 508 531 457 505 303 C470 103 348 82 269 82 L269 82 Z M335 657 L279 796 L365 796 L388 719 L439 796 L525 796 L419 657 L335 657 Z " />
<glyph glyph-name="dcaron" unicode="&#x10f;" horiz-adv-x="644" d="M543 590 L456 590 L415 360 C383 411 318 411 302 411 C211 411 105 350 81 209 C52 43 143 -6 220 -6 C248 -6 303 -5 359 45 L360 0 L439 0 L543 590 Z M377 156 C369 141 359 128 347 116 C327 96 297 76 258 76 C226 76 144 76 168 209 C187 319 272 329 303 329 C342 329 364 309 377 289 C384 277 390 264 393 249 L377 156 Z M728 590 L631 590 L557 466 L641 466 L728 590 Z " />
<glyph glyph-name="Dcroat" unicode="&#x110;" horiz-adv-x="622" d="M202 590 L156 331 L83 331 L69 250 L142 250 L98 0 L301 0 C407 0 583 59 625 306 C662 519 521 590 393 590 L202 590 Z M199 82 L229 250 L383 250 L397 331 L243 331 L274 508 L380 508 C479 508 564 457 538 303 C503 103 381 82 302 82 L199 82 Z " />
<glyph glyph-name="dcroat" unicode="&#x111;" horiz-adv-x="516" d="M377 156 C369 141 359 128 347 116 C327 96 297 76 258 76 C226 76 144 76 168 209 C187 319 272 329 303 329 C342 329 364 309 377 289 C384 277 390 264 393 249 L377 156 Z M522 475 L599 475 L612 545 L535 545 L543 590 L456 590 L448 545 L367 545 L354 475 L435 475 L415 360 C383 411 318 411 302 411 C211 411 105 350 81 209 C52 43 143 -6 220 -6 C248 -6 303 -5 359 45 L360 0 L439 0 L522 475 Z " />
<glyph glyph-name="Emacron" unicode="&#x112;" horiz-adv-x="514" d="M548 508 L563 590 L169 590 L65 0 L459 0 L473 82 L166 82 L194 243 L445 243 L460 325 L209 325 L241 508 L548 508 Z M534 657 L549 738 L235 738 L220 657 L534 657 Z " />
<glyph glyph-name="emacron" unicode="&#x113;" horiz-adv-x="467" d="M457 228 C476 332 428 411 304 411 C179 411 101 318 80 203 C59 87 107 -6 245 -6 C313 -6 360 3 391 14 L404 88 C361 83 310 76 290 76 C184 76 164 104 161 167 L446 167 L457 228 Z M174 242 C197 299 228 329 289 329 C342 329 372 311 373 242 L174 242 Z M470 471 L484 552 L170 552 L156 471 L470 471 Z " />
<glyph glyph-name="Edotaccent" unicode="&#x116;" horiz-adv-x="514" d="M548 508 L563 590 L169 590 L65 0 L459 0 L473 82 L166 82 L194 243 L445 243 L460 325 L209 325 L241 508 L548 508 Z M337 657 L423 657 L437 732 L351 732 L337 657 Z " />
<glyph glyph-name="edotaccent" unicode="&#x117;" horiz-adv-x="467" d="M457 228 C476 332 428 411 304 411 C179 411 101 318 80 203 C59 87 107 -6 245 -6 C313 -6 360 3 391 14 L404 88 C361 83 310 76 290 76 C184 76 164 104 161 167 L446 167 L457 228 Z M174 242 C197 299 228 329 289 329 C342 329 372 311 373 242 L174 242 Z M279 471 L365 471 L378 546 L292 546 L279 471 Z " />
<glyph glyph-name="Eogonek" unicode="&#x118;" horiz-adv-x="515" d="M548 508 L563 590 L169 590 L65 0 L459 0 L473 82 L166 82 L194 243 L445 243 L460 325 L209 325 L241 508 L548 508 Z M279 -177 L376 -177 L450 -53 L366 -53 L279 -177 Z " />
<glyph glyph-name="eogonek" unicode="&#x119;" horiz-adv-x="467" d="M457 228 C476 332 428 411 304 411 C179 411 101 318 80 203 C59 87 107 -6 245 -6 C313 -6 360 3 391 14 L404 88 C361 83 310 76 290 76 C184 76 164 104 161 167 L446 167 L457 228 Z M174 242 C197 299 228 329 289 329 C342 329 372 311 373 242 L174 242 Z M112 -177 L209 -177 L283 -53 L199 -53 L112 -177 Z " />
<glyph glyph-name="Ecaron" unicode="&#x11a;" horiz-adv-x="514" d="M548 508 L563 590 L169 590 L65 0 L459 0 L473 82 L166 82 L194 243 L445 243 L460 325 L209 325 L241 508 L548 508 Z M337 657 L281 796 L367 796 L390 719 L441 796 L527 796 L421 657 L337 657 Z " />
<glyph glyph-name="ecaron" unicode="&#x11b;" horiz-adv-x="467" d="M457 228 C476 332 428 411 304 411 C179 411 101 318 80 203 C59 87 107 -6 245 -6 C313 -6 360 3 391 14 L404 88 C361 83 310 76 290 76 C184 76 164 104 161 167 L446 167 L457 228 Z M174 242 C197 299 228 329 289 329 C342 329 372 311 373 242 L174 242 Z M278 471 L221 610 L307 610 L330 533 L381 610 L467 610 L362 471 L278 471 Z " />
<glyph glyph-name="Gcircumflex" unicode="&#x11c;" horiz-adv-x="611" d="M420 304 L406 225 L493 225 L472 106 C428 85 387 76 346 76 C266 76 145 103 180 303 C212 476 325 513 423 513 C466 513 512 502 551 477 L608 539 C561 578 501 595 438 595 C306 595 131 520 93 306 C49 51 224 -6 333 -6 C393 -6 496 15 553 69 L594 304 L420 304 Z M501 796 L557 657 L471 657 L448 734 L397 657 L311 657 L417 796 L501 796 Z " />
<glyph glyph-name="gcircumflex" unicode="&#x11d;" horiz-adv-x="504" d="M382 156 C374 141 364 128 352 116 C332 96 302 76 263 76 C231 76 149 76 173 209 C192 319 277 329 308 329 C347 329 369 309 382 289 C389 277 395 264 398 249 L382 156 Z M354 -5 C333 -114 255 -116 210 -116 C185 -116 138 -114 95 -95 L56 -163 C91 -190 141 -198 201 -198 C273 -198 414 -173 443 -5 L515 405 L442 405 L420 360 C388 411 323 411 307 411 C216 411 110 350 86 209 C57 43 148 -6 225 -6 C253 -6 309 -5 362 43 L354 -5 Z M399 610 L456 471 L370 471 L346 548 L296 471 L210 471 L315 610 L399 610 Z " />
<glyph glyph-name="Gbreve" unicode="&#x11e;" horiz-adv-x="611" d="M420 304 L406 225 L493 225 L472 106 C428 85 387 76 346 76 C266 76 145 103 180 303 C212 476 325 513 423 513 C466 513 512 502 551 477 L608 539 C561 578 501 595 438 595 C306 595 131 520 93 306 C49 51 224 -6 333 -6 C393 -6 496 15 553 69 L594 304 L420 304 Z M440 657 C501 657 571 687 603 771 L517 771 C497 735 477 730 453 730 C429 730 411 735 403 771 L317 771 C322 687 378 657 440 657 L440 657 Z " />
<glyph glyph-name="gbreve" unicode="&#x11f;" horiz-adv-x="504" d="M382 156 C374 141 364 128 352 116 C332 96 302 76 263 76 C231 76 149 76 173 209 C192 319 277 329 308 329 C347 329 369 309 382 289 C389 277 395 264 398 249 L382 156 Z M354 -5 C333 -114 255 -116 210 -116 C185 -116 138 -114 95 -95 L56 -163 C91 -190 141 -198 201 -198 C273 -198 414 -173 443 -5 L515 405 L442 405 L420 360 C388 411 323 411 307 411 C216 411 110 350 86 209 C57 43 148 -6 225 -6 C253 -6 309 -5 362 43 L354 -5 Z M328 471 C390 471 456 501 491 585 L405 585 C384 549 364 544 340 544 C316 544 298 549 291 585 L205 585 C208 501 268 471 328 471 L328 471 Z " />
<glyph glyph-name="Gdotaccent" unicode="&#x120;" horiz-adv-x="611" d="M420 304 L406 225 L493 225 L472 106 C428 85 387 76 346 76 C266 76 145 103 180 303 C212 476 325 513 423 513 C466 513 512 502 551 477 L608 539 C561 578 501 595 438 595 C306 595 131 520 93 306 C49 51 224 -6 333 -6 C393 -6 496 15 553 69 L594 304 L420 304 Z M382 657 L468 657 L482 732 L396 732 L382 657 Z " />
<glyph glyph-name="gdotaccent" unicode="&#x121;" horiz-adv-x="504" d="M382 156 C374 141 364 128 352 116 C332 96 302 76 263 76 C231 76 149 76 173 209 C192 319 277 329 308 329 C347 329 369 309 382 289 C389 277 395 264 398 249 L382 156 Z M354 -5 C333 -114 255 -116 210 -116 C185 -116 138 -114 95 -95 L56 -163 C91 -190 141 -198 201 -198 C273 -198 414 -173 443 -5 L515 405 L442 405 L420 360 C388 411 323 411 307 411 C216 411 110 350 86 209 C57 43 148 -6 225 -6 C253 -6 309 -5 362 43 L354 -5 Z M281 471 L367 471 L380 546 L294 546 L281 471 Z " />
<glyph glyph-name="uni0122" unicode="&#x122;" horiz-adv-x="611" d="M420 304 L406 225 L493 225 L472 106 C428 85 387 76 346 76 C266 76 145 103 180 303 C212 476 325 513 423 513 C466 513 512 502 551 477 L608 539 C561 578 501 595 438 595 C306 595 131 520 93 306 C49 51 224 -6 333 -6 C393 -6 496 15 553 69 L594 304 L420 304 Z M186 -177 L283 -177 L357 -53 L273 -53 L186 -177 Z " />
<glyph glyph-name="uni0123" unicode="&#x123;" horiz-adv-x="504" d="M382 156 C374 141 364 128 352 116 C332 96 302 76 263 76 C231 76 149 76 173 209 C192 319 277 329 308 329 C347 329 369 309 382 289 C389 277 395 264 398 249 L382 156 Z M354 -5 C333 -114 255 -116 210 -116 C185 -116 138 -114 95 -95 L56 -163 C91 -190 141 -198 201 -198 C273 -198 414 -173 443 -5 L515 405 L442 405 L420 360 C388 411 323 411 307 411 C216 411 110 350 86 209 C57 43 148 -6 225 -6 C253 -6 309 -5 362 43 L354 -5 Z M369 471 L285 471 L358 595 L455 595 L369 471 Z " />
<glyph glyph-name="Hcircumflex" unicode="&#x124;" horiz-adv-x="605" d="M557 590 L510 325 L209 325 L256 590 L169 590 L65 0 L152 0 L194 243 L495 243 L453 0 L540 0 L644 590 L557 590 Z M484 796 L540 657 L454 657 L431 734 L380 657 L294 657 L400 796 L484 796 Z " />
<glyph glyph-name="hcircumflex" unicode="&#x125;" horiz-adv-x="484" d="M147 0 L191 255 C202 268 213 281 226 292 C249 311 279 329 318 329 C354 329 397 312 386 251 L342 0 L429 0 L475 262 C488 345 429 411 360 411 C333 411 270 410 210 359 L251 590 L164 590 L60 0 L147 0 Z M365 796 L421 657 L335 657 L312 734 L261 657 L175 657 L281 796 L365 796 Z " />
<glyph glyph-name="Hbar" unicode="&#x126;" horiz-adv-x="627" d="M693 460 L707 542 L646 542 L655 590 L568 590 L559 542 L258 542 L267 590 L180 590 L171 542 L110 542 L96 460 L157 460 L76 0 L163 0 L205 243 L506 243 L464 0 L551 0 L632 460 L693 460 Z M220 325 L244 460 L545 460 L521 325 L220 325 Z " />
<glyph glyph-name="hbar" unicode="&#x127;" horiz-adv-x="501" d="M247 475 L328 475 L341 545 L260 545 L268 590 L181 590 L173 545 L96 545 L83 475 L160 475 L77 0 L164 0 L208 255 C219 268 230 281 243 292 C266 311 296 329 335 329 C371 329 414 312 403 251 L359 0 L446 0 L492 262 C505 345 446 411 377 411 C350 411 287 410 227 359 L247 475 Z " />
<glyph glyph-name="Itilde" unicode="&#x128;" horiz-adv-x="217" d="M65 0 L152 0 L256 590 L169 590 L65 0 Z M359 685 C332 670 305 657 278 657 C235 657 210 693 167 693 C151 693 140 693 125 686 L112 750 C139 769 157 774 181 774 C227 774 251 737 296 737 C312 737 329 740 345 748 L359 685 Z " />
<glyph glyph-name="itilde" unicode="&#x129;" horiz-adv-x="217" d="M65 0 L152 0 L223 405 L136 405 L65 0 Z M326 499 C299 484 273 471 246 471 C203 471 177 507 134 507 C118 507 106 507 93 500 L79 564 C106 583 124 588 148 588 C193 588 220 551 264 551 C281 551 298 555 313 562 L326 499 Z " />
<glyph glyph-name="Imacron" unicode="&#x12a;" horiz-adv-x="217" d="M65 0 L152 0 L256 590 L169 590 L65 0 Z M324 657 L339 738 L138 738 L123 657 L324 657 Z " />
<glyph glyph-name="imacron" unicode="&#x12b;" horiz-adv-x="217" d="M65 0 L152 0 L223 405 L136 405 L65 0 Z M292 471 L306 552 L105 552 L91 471 L292 471 Z " />
<glyph glyph-name="Iogonek" unicode="&#x12e;" horiz-adv-x="217" d="M65 0 L152 0 L256 590 L169 590 L65 0 Z M-29 -177 L67 -177 L141 -53 L57 -53 L-29 -177 Z " />
<glyph glyph-name="iogonek" unicode="&#x12f;" horiz-adv-x="217" d="M65 0 L152 0 L223 405 L136 405 L65 0 Z M147 469 L234 469 L249 554 L162 554 L147 469 Z M-29 -177 L67 -177 L141 -53 L57 -53 L-29 -177 Z " />
<glyph glyph-name="Idotaccent" unicode="&#x130;" horiz-adv-x="217" d="M65 0 L152 0 L256 590 L169 590 L65 0 Z M180 657 L267 657 L282 742 L195 742 L180 657 Z " />
<glyph glyph-name="dotlessi" unicode="&#x131;" horiz-adv-x="217" d="M65 0 L152 0 L223 405 L136 405 L65 0 Z " />
<glyph glyph-name="Jcircumflex" unicode="&#x134;" horiz-adv-x="470" d="M353 202 C332 77 232 76 192 76 C161 76 118 77 73 97 C57 74 45 60 26 36 C72 -7 148 -6 188 -6 C262 -3 407 23 439 198 L509 590 L422 590 L353 202 Z M464 796 L520 657 L434 657 L411 734 L360 657 L274 657 L380 796 L464 796 Z " />
<glyph glyph-name="jcircumflex" unicode="&#x135;" horiz-adv-x="217" d="M63 -9 C50 -88 38 -116 -26 -116 C-35 -116 -53 -115 -70 -114 C-80 -113 -90 -112 -101 -111 L-114 -185 C-98 -192 -80 -198 -24 -198 C99 -198 133 -108 141 -57 L223 405 L136 405 L63 -9 Z M257 610 L314 471 L228 471 L204 548 L154 471 L68 471 L173 610 L257 610 Z " />
<glyph glyph-name="uni0136" unicode="&#x136;" horiz-adv-x="547" d="M304 301 L646 590 L520 590 L209 325 L256 590 L169 590 L65 0 L152 0 L201 280 L420 0 L541 0 L304 301 Z M149 -177 L246 -177 L320 -53 L236 -53 L149 -177 Z " />
<glyph glyph-name="uni0137" unicode="&#x137;" horiz-adv-x="446" d="M443 0 L287 226 L493 405 L371 405 L190 248 L251 590 L164 590 L60 0 L147 0 L183 209 L327 0 L443 0 Z M98 -177 L195 -177 L269 -53 L185 -53 L98 -177 Z " />
<glyph glyph-name="kgreenlandic" unicode="&#x138;" horiz-adv-x="446" d="M443 0 L287 226 L493 405 L371 405 L190 248 L218 405 L131 405 L60 0 L147 0 L183 209 L327 0 L443 0 Z " />
<glyph glyph-name="Lacute" unicode="&#x139;" horiz-adv-x="476" d="M256 590 L169 590 L65 0 L436 0 L450 82 L166 82 L256 590 Z M264 657 L180 657 L254 781 L351 781 L264 657 Z " />
<glyph glyph-name="lacute" unicode="&#x13a;" horiz-adv-x="217" d="M256 590 L169 590 L65 0 L152 0 L256 590 Z M270 657 L186 657 L260 781 L357 781 L270 657 Z " />
<glyph glyph-name="uni013B" unicode="&#x13b;" horiz-adv-x="476" d="M256 590 L169 590 L65 0 L436 0 L450 82 L166 82 L256 590 Z M124 -177 L221 -177 L295 -53 L211 -53 L124 -177 Z " />
<glyph glyph-name="uni013C" unicode="&#x13c;" horiz-adv-x="217" d="M65 0 L152 0 L256 590 L169 590 L65 0 Z M-29 -177 L67 -177 L141 -53 L57 -53 L-29 -177 Z " />
<glyph glyph-name="Lcaron" unicode="&#x13d;" horiz-adv-x="476" d="M256 590 L169 590 L65 0 L436 0 L450 82 L166 82 L256 590 Z M489 590 L392 590 L318 466 L402 466 L489 590 Z " />
<glyph glyph-name="lcaron" unicode="&#x13e;" horiz-adv-x="357" d="M65 0 L152 0 L256 590 L169 590 L65 0 Z M441 590 L344 590 L270 466 L354 466 L441 590 Z " />
<glyph glyph-name="Lslash" unicode="&#x141;" horiz-adv-x="533" d="M83 331 L67 243 L170 275 L122 0 L493 0 L507 82 L223 82 L262 304 L374 340 L390 426 L277 391 L313 590 L226 590 L186 363 L83 331 Z " />
<glyph glyph-name="lslash" unicode="&#x142;" horiz-adv-x="353" d="M128 0 L215 0 L271 319 L390 357 L406 443 L286 406 L319 590 L232 590 L194 378 L85 345 L70 257 L179 291 L128 0 Z " />
<glyph glyph-name="Nacute" unicode="&#x143;" horiz-adv-x="627" d="M460 0 L562 0 L666 590 L579 590 L498 132 L270 590 L169 590 L65 0 L152 0 L231 453 L460 0 Z M486 657 L402 657 L476 781 L573 781 L486 657 Z " />
<glyph glyph-name="nacute" unicode="&#x144;" horiz-adv-x="484" d="M147 0 L191 255 C202 268 213 281 226 292 C249 311 279 329 318 329 C354 329 397 312 386 251 L342 0 L429 0 L475 262 C488 345 429 411 360 411 C333 411 270 410 210 359 L208 405 L131 405 L60 0 L147 0 Z M376 471 L292 471 L365 595 L462 595 L376 471 Z " />
<glyph glyph-name="uni0145" unicode="&#x145;" horiz-adv-x="627" d="M460 0 L562 0 L666 590 L579 590 L498 132 L270 590 L169 590 L65 0 L152 0 L231 453 L460 0 Z M174 -177 L271 -177 L345 -53 L261 -53 L174 -177 Z " />
<glyph glyph-name="uni0146" unicode="&#x146;" horiz-adv-x="484" d="M147 0 L191 255 C202 268 213 281 226 292 C249 311 279 329 318 329 C354 329 397 312 386 251 L342 0 L429 0 L475 262 C488 345 429 411 360 411 C333 411 270 410 210 359 L208 405 L131 405 L60 0 L147 0 Z M114 -177 L211 -177 L285 -53 L201 -53 L114 -177 Z " />
<glyph glyph-name="Ncaron" unicode="&#x147;" horiz-adv-x="627" d="M460 0 L562 0 L666 590 L579 590 L498 132 L270 590 L169 590 L65 0 L152 0 L231 453 L460 0 Z M394 657 L338 796 L424 796 L447 719 L498 796 L584 796 L478 657 L394 657 Z " />
<glyph glyph-name="ncaron" unicode="&#x148;" horiz-adv-x="484" d="M147 0 L191 255 C202 268 213 281 226 292 C249 311 279 329 318 329 C354 329 397 312 386 251 L342 0 L429 0 L475 262 C488 345 429 411 360 411 C333 411 270 410 210 359 L208 405 L131 405 L60 0 L147 0 Z M278 471 L221 610 L307 610 L330 533 L381 610 L467 610 L362 471 L278 471 Z " />
<glyph glyph-name="Eng" unicode="&#x14a;" horiz-adv-x="627" d="M666 590 L579 590 L498 132 L270 590 L169 590 L65 0 L152 0 L231 453 L471 -19 C458 -91 445 -116 383 -116 C374 -116 356 -115 339 -114 C329 -113 319 -112 308 -111 L295 -185 C311 -192 329 -198 385 -198 C508 -198 543 -108 551 -57 L666 590 Z " />
<glyph glyph-name="eng" unicode="&#x14b;" horiz-adv-x="484" d="M340 -9 C327 -88 315 -116 250 -116 C241 -116 223 -115 206 -114 C196 -113 186 -112 175 -111 L162 -185 C178 -192 196 -198 252 -198 C375 -198 410 -108 418 -57 L475 262 C488 345 429 411 360 411 C333 411 270 410 210 359 L208 405 L131 405 L60 0 L147 0 L191 255 C202 268 213 281 226 292 C249 311 279 329 318 329 C354 329 397 312 386 251 L340 -9 Z " />
<glyph glyph-name="Omacron" unicode="&#x14c;" horiz-adv-x="666" d="M346 76 C268 76 155 103 190 303 C222 476 325 513 423 513 C519 513 614 476 582 303 C547 103 423 76 346 76 L346 76 Z M331 -6 C440 -6 624 51 669 306 C707 520 567 595 437 595 C309 595 141 520 103 306 C59 51 222 -6 331 -6 L331 -6 Z M605 657 L620 738 L306 738 L291 657 L605 657 Z " />
<glyph glyph-name="omacron" unicode="&#x14d;" horiz-adv-x="492" d="M259 76 C214 76 147 93 168 205 C184 301 256 329 304 329 C353 329 412 301 396 205 C375 93 306 76 259 76 L259 76 Z M244 -6 C320 -6 454 37 483 207 C507 351 406 411 318 411 C231 411 105 351 81 207 C52 37 167 -6 244 -6 L244 -6 Z M486 471 L500 552 L186 552 L172 471 L486 471 Z " />
<glyph glyph-name="Ohungarumlaut" unicode="&#x150;" horiz-adv-x="666" d="M346 76 C268 76 155 103 190 303 C222 476 325 513 423 513 C519 513 614 476 582 303 C547 103 423 76 346 76 L346 76 Z M331 -6 C440 -6 624 51 669 306 C707 520 567 595 437 595 C309 595 141 520 103 306 C59 51 222 -6 331 -6 L331 -6 Z M419 657 L341 657 L398 781 L493 781 L419 657 Z M554 657 L476 657 L533 781 L628 781 L554 657 Z " />
<glyph glyph-name="ohungarumlaut" unicode="&#x151;" horiz-adv-x="492" d="M300 471 L222 471 L278 595 L373 595 L300 471 Z M259 76 C214 76 147 93 168 205 C184 301 256 329 304 329 C353 329 412 301 396 205 C375 93 306 76 259 76 L259 76 Z M244 -6 C320 -6 454 37 483 207 C507 351 406 411 318 411 C231 411 105 351 81 207 C52 37 167 -6 244 -6 L244 -6 Z M435 471 L357 471 L413 595 L508 595 L435 471 Z " />
<glyph glyph-name="OE" unicode="&#x152;" horiz-adv-x="846" d="M880 508 L895 590 L501 590 C482 594 462 595 438 595 C306 595 131 520 93 306 C49 51 224 -6 333 -6 C354 -6 376 -4 397 0 L791 0 L805 82 L498 82 L526 243 L777 243 L792 325 L541 325 L573 508 L880 508 Z M346 76 C266 76 145 103 180 303 C212 476 325 513 423 513 C444 513 463 510 486 505 L411 84 C388 77 367 76 346 76 L346 76 Z " />
<glyph glyph-name="oe" unicode="&#x153;" horiz-adv-x="782" d="M772 228 C791 332 743 411 619 411 C551 411 499 385 460 342 C427 389 370 411 318 411 C231 411 105 351 81 207 C52 37 167 -6 244 -6 C291 -6 360 10 413 63 C438 20 484 -6 560 -6 C628 -6 675 3 706 14 L719 88 C676 83 625 76 605 76 C499 76 479 104 476 167 L761 167 L772 228 Z M259 76 C214 76 147 93 168 205 C184 301 256 329 304 329 C352 329 410 303 397 212 L396 205 C375 93 306 76 259 76 L259 76 Z M489 242 C512 299 543 329 604 329 C657 329 687 311 688 242 L489 242 Z " />
<glyph glyph-name="Racute" unicode="&#x154;" horiz-adv-x="553" d="M584 404 C608 543 519 590 437 590 L169 590 L65 0 L152 0 L188 208 L319 208 C366 208 397 181 409 102 L426 0 L516 0 C511 28 506 57 502 84 C493 151 484 192 448 235 C539 259 576 355 584 404 L584 404 Z M203 290 L241 508 L414 508 C465 508 513 494 497 403 C476 292 425 290 376 290 L203 290 Z M414 657 L330 657 L404 781 L501 781 L414 657 Z " />
<glyph glyph-name="racute" unicode="&#x155;" horiz-adv-x="342" d="M389 411 L351 411 C338 411 256 411 211 356 L198 405 L131 405 L60 0 L149 0 L189 230 C194 248 203 264 215 279 C235 304 271 329 332 329 C339 329 358 330 374 327 L389 411 Z M227 471 L143 471 L216 595 L313 595 L227 471 Z " />
<glyph glyph-name="uni0156" unicode="&#x156;" horiz-adv-x="553" d="M584 404 C608 543 519 590 437 590 L169 590 L65 0 L152 0 L188 208 L319 208 C366 208 397 181 409 102 L426 0 L516 0 C511 28 506 57 502 84 C493 151 484 192 448 235 C539 259 576 355 584 404 L584 404 Z M203 290 L241 508 L414 508 C465 508 513 494 497 403 C476 292 425 290 376 290 L203 290 Z M153 -177 L250 -177 L324 -53 L240 -53 L153 -177 Z " />
<glyph glyph-name="uni0157" unicode="&#x157;" horiz-adv-x="342" d="M389 411 L351 411 C338 411 256 411 211 356 L198 405 L131 405 L60 0 L149 0 L189 230 C194 248 203 264 215 279 C235 304 271 329 332 329 C339 329 358 330 374 327 L389 411 Z M28 -177 L125 -177 L199 -53 L115 -53 L28 -177 Z " />
<glyph glyph-name="Rcaron" unicode="&#x158;" horiz-adv-x="553" d="M584 404 C608 543 519 590 437 590 L169 590 L65 0 L152 0 L188 208 L319 208 C366 208 397 181 409 102 L426 0 L516 0 C511 28 506 57 502 84 C493 151 484 192 448 235 C539 259 576 355 584 404 L584 404 Z M203 290 L241 508 L414 508 C465 508 513 494 497 403 C476 292 425 290 376 290 L203 290 Z M334 657 L278 796 L364 796 L387 719 L438 796 L524 796 L418 657 L334 657 Z " />
<glyph glyph-name="rcaron" unicode="&#x159;" horiz-adv-x="342" d="M389 411 L351 411 C338 411 256 411 211 356 L198 405 L131 405 L60 0 L149 0 L189 230 C194 248 203 264 215 279 C235 304 271 329 332 329 C339 329 358 330 374 327 L389 411 Z M230 471 L173 610 L259 610 L282 533 L333 610 L419 610 L314 471 L230 471 Z " />
<glyph glyph-name="Sacute" unicode="&#x15a;" horiz-adv-x="528" d="M375 595 C257 595 139 571 115 427 C83 253 450 262 430 155 C419 92 345 76 274 76 C190 76 104 100 83 108 L71 40 C102 21 166 -6 263 -6 C394 -6 493 44 515 157 C547 329 181 334 201 434 C214 511 310 513 370 513 C391 513 429 508 461 503 C480 500 499 497 520 494 L533 571 C510 584 470 595 375 595 L375 595 Z M411 657 L327 657 L401 781 L498 781 L411 657 Z " />
<glyph glyph-name="sacute" unicode="&#x15b;" horiz-adv-x="415" d="M283 411 C200 411 108 382 92 298 C68 170 326 161 314 105 C309 77 253 76 217 76 C196 76 161 81 130 88 C112 91 93 95 74 100 L61 24 C85 12 142 -6 207 -6 C320 -6 388 36 403 116 C423 232 171 244 179 299 C184 328 216 329 288 329 C303 329 330 325 353 322 C366 320 380 318 394 316 L407 389 C387 400 346 411 283 411 L283 411 Z M341 471 L257 471 L330 595 L427 595 L341 471 Z " />
<glyph glyph-name="Scircumflex" unicode="&#x15c;" horiz-adv-x="528" d="M375 595 C257 595 139 571 115 427 C83 253 450 262 430 155 C419 92 345 76 274 76 C190 76 104 100 83 108 L71 40 C102 21 166 -6 263 -6 C394 -6 493 44 515 157 C547 329 181 334 201 434 C214 511 310 513 370 513 C391 513 429 508 461 503 C480 500 499 497 520 494 L533 571 C510 584 470 595 375 595 L375 595 Z M446 796 L502 657 L416 657 L393 734 L342 657 L256 657 L362 796 L446 796 Z " />
<glyph glyph-name="scircumflex" unicode="&#x15d;" horiz-adv-x="415" d="M283 411 C200 411 108 382 92 298 C68 170 326 161 314 105 C309 77 253 76 217 76 C196 76 161 81 130 88 C112 91 93 95 74 100 L61 24 C85 12 142 -6 207 -6 C320 -6 388 36 403 116 C423 232 171 244 179 299 C184 328 216 329 288 329 C303 329 330 325 353 322 C366 320 380 318 394 316 L407 389 C387 400 346 411 283 411 L283 411 Z M357 610 L414 471 L328 471 L304 548 L254 471 L168 471 L273 610 L357 610 Z " />
<glyph glyph-name="Scedilla" unicode="&#x15e;" horiz-adv-x="528" d="M375 595 C257 595 139 571 115 427 C83 253 450 262 430 155 C419 92 345 76 274 76 C190 76 104 100 83 108 L71 40 C102 21 166 -6 263 -6 C394 -6 493 44 515 157 C547 329 181 334 201 434 C214 511 310 513 370 513 C391 513 429 508 461 503 C480 500 499 497 520 494 L533 571 C510 584 470 595 375 595 L375 595 Z M150 -177 L247 -177 L321 -53 L237 -53 L150 -177 Z " />
<glyph glyph-name="scedilla" unicode="&#x15f;" horiz-adv-x="415" d="M283 411 C200 411 108 382 92 298 C68 170 326 161 314 105 C309 77 253 76 217 76 C196 76 161 81 130 88 C112 91 93 95 74 100 L61 24 C85 12 142 -6 207 -6 C320 -6 388 36 403 116 C423 232 171 244 179 299 C184 328 216 329 288 329 C303 329 330 325 353 322 C366 320 380 318 394 316 L407 389 C387 400 346 411 283 411 L283 411 Z M99 -177 L196 -177 L270 -53 L186 -53 L99 -177 Z " />
<glyph glyph-name="Scaron" unicode="&#x160;" horiz-adv-x="528" d="M375 595 C257 595 139 571 115 427 C83 253 450 262 430 155 C419 92 345 76 274 76 C190 76 104 100 83 108 L71 40 C102 21 166 -6 263 -6 C394 -6 493 44 515 157 C547 329 181 334 201 434 C214 511 310 513 370 513 C391 513 429 508 461 503 C480 500 499 497 520 494 L533 571 C510 584 470 595 375 595 L375 595 Z M319 657 L263 796 L349 796 L372 719 L423 796 L509 796 L403 657 L319 657 Z " />
<glyph glyph-name="scaron" unicode="&#x161;" horiz-adv-x="415" d="M283 411 C200 411 108 382 92 298 C68 170 326 161 314 105 C309 77 253 76 217 76 C196 76 161 81 130 88 C112 91 93 95 74 100 L61 24 C85 12 142 -6 207 -6 C320 -6 388 36 403 116 C423 232 171 244 179 299 C184 328 216 329 288 329 C303 329 330 325 353 322 C366 320 380 318 394 316 L407 389 C387 400 346 411 283 411 L283 411 Z M249 471 L192 610 L278 610 L301 533 L352 610 L438 610 L333 471 L249 471 Z " />
<glyph glyph-name="uni0162" unicode="&#x162;" horiz-adv-x="525" d="M129 508 L308 508 L219 0 L306 0 L395 508 L574 508 L589 590 L144 590 L129 508 Z M126 -177 L223 -177 L297 -53 L213 -53 L126 -177 Z " />
<glyph glyph-name="uni0163" unicode="&#x163;" horiz-adv-x="361" d="M148 324 L118 158 C105 75 110 -6 234 -6 C286 -6 308 1 323 12 L335 81 C320 80 287 76 274 76 C213 76 195 81 208 161 L237 324 L378 324 L392 405 L251 405 L277 555 L268 555 L86 377 L77 324 L148 324 Z M90 -177 L187 -177 L261 -53 L177 -53 L90 -177 Z " />
<glyph glyph-name="Tcaron" unicode="&#x164;" horiz-adv-x="525" d="M335 657 L279 796 L365 796 L388 719 L439 796 L525 796 L419 657 L335 657 Z M129 508 L308 508 L219 0 L306 0 L395 508 L574 508 L589 590 L144 590 L129 508 Z " />
<glyph glyph-name="tcaron" unicode="&#x165;" horiz-adv-x="407" d="M158 324 L128 158 C115 75 120 -6 244 -6 C296 -6 318 1 333 12 L345 81 C330 80 297 76 284 76 C223 76 205 81 218 161 L247 324 L388 324 L402 405 L261 405 L287 555 L278 555 L96 377 L87 324 L158 324 Z M409 466 L325 466 L399 590 L496 590 L409 466 Z " />
<glyph glyph-name="Tbar" unicode="&#x166;" horiz-adv-x="525" d="M462 247 L477 329 L364 329 L395 508 L574 508 L589 590 L144 590 L129 508 L308 508 L277 329 L164 329 L149 247 L262 247 L219 0 L306 0 L349 247 L462 247 Z " />
<glyph glyph-name="tbar" unicode="&#x167;" horiz-adv-x="361" d="M54 195 L125 195 L118 158 C105 75 110 -6 234 -6 C286 -6 308 1 323 12 L335 81 C320 80 287 76 274 76 C213 76 195 81 208 161 L214 195 L355 195 L369 276 L228 276 L237 324 L378 324 L392 405 L251 405 L277 555 L268 555 L86 377 L77 324 L148 324 L139 276 L68 276 L54 195 Z " />
<glyph glyph-name="Utilde" unicode="&#x168;" horiz-adv-x="606" d="M301 -6 C407 -6 548 36 588 267 L645 590 L558 590 L502 276 C473 117 396 76 316 76 C238 76 171 117 200 276 L256 590 L169 590 L112 267 C72 36 195 -6 301 -6 L301 -6 Z M551 685 C524 670 497 657 470 657 C427 657 402 693 359 693 C343 693 332 693 317 686 L304 750 C331 769 349 774 373 774 C419 774 443 737 488 737 C504 737 521 740 537 748 L551 685 Z " />
<glyph glyph-name="utilde" unicode="&#x169;" horiz-adv-x="484" d="M408 405 L363 150 C353 136 342 124 329 113 C306 94 276 76 237 76 C201 76 158 93 169 154 L213 405 L126 405 L80 145 C61 43 120 -6 188 -6 C216 -6 283 -5 344 43 L347 0 L424 0 L495 405 L408 405 Z M452 499 C425 484 399 471 372 471 C329 471 303 507 260 507 C244 507 232 507 219 500 L205 564 C232 583 250 588 274 588 C319 588 346 551 390 551 C407 551 424 555 439 562 L452 499 Z " />
<glyph glyph-name="Umacron" unicode="&#x16a;" horiz-adv-x="606" d="M301 -6 C407 -6 548 36 588 267 L645 590 L558 590 L502 276 C473 117 396 76 316 76 C238 76 171 117 200 276 L256 590 L169 590 L112 267 C72 36 195 -6 301 -6 L301 -6 Z M575 657 L590 738 L276 738 L261 657 L575 657 Z " />
<glyph glyph-name="umacron" unicode="&#x16b;" horiz-adv-x="484" d="M408 405 L363 150 C353 136 342 124 329 113 C306 94 276 76 237 76 C201 76 158 93 169 154 L213 405 L126 405 L80 145 C61 43 120 -6 188 -6 C216 -6 283 -5 344 43 L347 0 L424 0 L495 405 L408 405 Z M479 471 L493 552 L179 552 L165 471 L479 471 Z " />
<glyph glyph-name="Ubreve" unicode="&#x16c;" horiz-adv-x="606" d="M301 -6 C407 -6 548 36 588 267 L645 590 L558 590 L502 276 C473 117 396 76 316 76 C238 76 171 117 200 276 L256 590 L169 590 L112 267 C72 36 195 -6 301 -6 L301 -6 Z M418 657 C479 657 549 687 581 771 L495 771 C475 735 455 730 431 730 C407 730 389 735 381 771 L295 771 C300 687 356 657 418 657 L418 657 Z " />
<glyph glyph-name="ubreve" unicode="&#x16d;" horiz-adv-x="484" d="M408 405 L363 150 C353 136 342 124 329 113 C306 94 276 76 237 76 C201 76 158 93 169 154 L213 405 L126 405 L80 145 C61 43 120 -6 188 -6 C216 -6 283 -5 344 43 L347 0 L424 0 L495 405 L408 405 Z M322 471 C384 471 450 501 485 585 L399 585 C378 549 358 544 334 544 C310 544 292 549 285 585 L199 585 C202 501 262 471 322 471 L322 471 Z " />
<glyph glyph-name="Uring" unicode="&#x16e;" horiz-adv-x="606" d="M301 -6 C407 -6 548 36 588 267 L645 590 L558 590 L502 276 C473 117 396 76 316 76 C238 76 171 117 200 276 L256 590 L169 590 L112 267 C72 36 195 -6 301 -6 L301 -6 Z M448 826 C470 826 489 816 484 778 C477 739 454 730 431 730 C408 730 389 739 396 778 C403 817 425 826 448 826 L448 826 Z M418 657 C495 657 550 714 563 778 C574 842 538 899 461 899 C385 899 328 842 317 778 C304 714 342 657 418 657 L418 657 Z " />
<glyph glyph-name="uring" unicode="&#x16f;" horiz-adv-x="484" d="M408 405 L363 150 C353 136 342 124 329 113 C306 94 276 76 237 76 C201 76 158 93 169 154 L213 405 L126 405 L80 145 C61 43 120 -6 188 -6 C216 -6 283 -5 344 43 L347 0 L424 0 L495 405 L408 405 Z M356 640 C379 640 399 631 392 592 C385 553 362 544 339 544 C316 544 297 553 304 592 C311 631 333 640 356 640 L356 640 Z M327 471 C403 471 458 528 471 592 C482 656 446 713 369 713 C293 713 236 656 225 592 C212 528 252 471 327 471 L327 471 Z " />
<glyph glyph-name="Uhungarumlaut" unicode="&#x170;" horiz-adv-x="606" d="M301 -6 C407 -6 548 36 588 267 L645 590 L558 590 L502 276 C473 117 396 76 316 76 C238 76 171 117 200 276 L256 590 L169 590 L112 267 C72 36 195 -6 301 -6 L301 -6 Z M395 657 L317 657 L374 781 L469 781 L395 657 Z M530 657 L452 657 L509 781 L604 781 L530 657 Z " />
<glyph glyph-name="uhungarumlaut" unicode="&#x171;" horiz-adv-x="484" d="M408 405 L363 150 C353 136 342 124 329 113 C306 94 276 76 237 76 C201 76 158 93 169 154 L213 405 L126 405 L80 145 C61 43 120 -6 188 -6 C216 -6 283 -5 344 43 L347 0 L424 0 L495 405 L408 405 Z M297 471 L219 471 L275 595 L370 595 L297 471 Z M432 471 L354 471 L410 595 L505 595 L432 471 Z " />
<glyph glyph-name="Uogonek" unicode="&#x172;" horiz-adv-x="606" d="M301 -6 C407 -6 548 36 588 267 L645 590 L558 590 L502 276 C473 117 396 76 316 76 C238 76 171 117 200 276 L256 590 L169 590 L112 267 C72 36 195 -6 301 -6 L301 -6 Z M156 -177 L253 -177 L327 -53 L243 -53 L156 -177 Z " />
<glyph glyph-name="uogonek" unicode="&#x173;" horiz-adv-x="485" d="M408 405 L363 150 C353 136 342 124 329 113 C306 94 276 76 237 76 C201 76 158 93 169 154 L213 405 L126 405 L80 145 C61 43 120 -6 188 -6 C216 -6 283 -5 344 43 L347 0 L424 0 L495 405 L408 405 Z M244 -177 L341 -177 L415 -53 L331 -53 L244 -177 Z " />
<glyph glyph-name="Ydieresis" unicode="&#x178;" horiz-adv-x="563" d="M335 303 L222 590 L124 590 L273 199 L238 0 L325 0 L360 199 L647 590 L549 590 L335 303 Z M283 656 L369 656 L382 731 L296 731 L283 656 Z M428 656 L514 656 L527 731 L441 731 L428 656 Z " />
<glyph glyph-name="Zacute" unicode="&#x179;" horiz-adv-x="512" d="M135 508 L453 508 L61 94 L45 0 L467 0 L481 80 L158 80 L555 500 L571 590 L150 590 L135 508 Z M411 657 L327 657 L401 781 L498 781 L411 657 Z " />
<glyph glyph-name="zacute" unicode="&#x17a;" horiz-adv-x="429" d="M111 323 L326 323 L71 94 L55 0 L374 0 L388 80 L174 80 L428 308 L445 405 L126 405 L111 323 Z M345 471 L261 471 L334 595 L431 595 L345 471 Z " />
<glyph glyph-name="Zdotaccent" unicode="&#x17b;" horiz-adv-x="512" d="M135 508 L453 508 L61 94 L45 0 L467 0 L481 80 L158 80 L555 500 L571 590 L150 590 L135 508 Z M330 657 L416 657 L430 732 L344 732 L330 657 Z " />
<glyph glyph-name="zdotaccent" unicode="&#x17c;" horiz-adv-x="429" d="M111 323 L326 323 L71 94 L55 0 L374 0 L388 80 L174 80 L428 308 L445 405 L126 405 L111 323 Z M261 471 L347 471 L360 546 L274 546 L261 471 Z " />
<glyph glyph-name="Zcaron" unicode="&#x17d;" horiz-adv-x="512" d="M135 508 L453 508 L61 94 L45 0 L467 0 L481 80 L158 80 L555 500 L571 590 L150 590 L135 508 Z M337 657 L281 796 L367 796 L390 719 L441 796 L527 796 L421 657 L337 657 Z " />
<glyph glyph-name="zcaron" unicode="&#x17e;" horiz-adv-x="429" d="M111 323 L326 323 L71 94 L55 0 L374 0 L388 80 L174 80 L428 308 L445 405 L126 405 L111 323 Z M262 471 L205 610 L291 610 L314 533 L365 610 L451 610 L346 471 L262 471 Z " />
<glyph glyph-name="florin" unicode="&#x192;" horiz-adv-x="367" d="M106 -9 C93 -88 81 -116 16 -116 C8 -116 -11 -115 -27 -114 C-37 -113 -47 -112 -58 -111 L-71 -185 C-55 -192 -37 -198 18 -198 C141 -198 176 -108 184 -57 L252 324 L394 324 L408 405 L266 405 L269 422 C282 495 321 514 372 514 C395 514 407 514 426 509 L439 580 C427 588 410 595 358 595 C269 595 204 545 180 412 L179 405 L96 405 L82 324 L165 324 L106 -9 Z " />
<glyph glyph-name="uni0218" unicode="&#x218;" horiz-adv-x="528" d="M375 595 C257 595 139 571 115 427 C83 253 450 262 430 155 C419 92 345 76 274 76 C190 76 104 100 83 108 L71 40 C102 21 166 -6 263 -6 C394 -6 493 44 515 157 C547 329 181 334 201 434 C214 511 310 513 370 513 C391 513 429 508 461 503 C480 500 499 497 520 494 L533 571 C510 584 470 595 375 595 L375 595 Z M150 -177 L247 -177 L321 -53 L237 -53 L150 -177 Z " />
<glyph glyph-name="uni0219" unicode="&#x219;" horiz-adv-x="415" d="M283 411 C200 411 108 382 92 298 C68 170 326 161 314 105 C309 77 253 76 217 76 C196 76 161 81 130 88 C112 91 93 95 74 100 L61 24 C85 12 142 -6 207 -6 C320 -6 388 36 403 116 C423 232 171 244 179 299 C184 328 216 329 288 329 C303 329 330 325 353 322 C366 320 380 318 394 316 L407 389 C387 400 346 411 283 411 L283 411 Z M91 -177 L188 -177 L262 -53 L178 -53 L91 -177 Z " />
<glyph glyph-name="uni021A" unicode="&#x21a;" horiz-adv-x="525" d="M129 508 L308 508 L219 0 L306 0 L395 508 L574 508 L589 590 L144 590 L129 508 Z M126 -177 L223 -177 L297 -53 L213 -53 L126 -177 Z " />
<glyph glyph-name="uni021B" unicode="&#x21b;" horiz-adv-x="361" d="M148 324 L118 158 C105 75 110 -6 234 -6 C286 -6 308 1 323 12 L335 81 C320 80 287 76 274 76 C213 76 195 81 208 161 L237 324 L378 324 L392 405 L251 405 L277 555 L268 555 L86 377 L77 324 L148 324 Z M90 -177 L187 -177 L261 -53 L177 -53 L90 -177 Z " />
<glyph glyph-name="circumflex" unicode="&#x2c6;" horiz-adv-x="376" d="M250 590 L144 451 L230 451 L281 528 L304 451 L390 451 L334 590 L250 590 Z " />
<glyph glyph-name="caron" unicode="&#x2c7;" horiz-adv-x="376" d="M309 451 L415 590 L329 590 L278 513 L255 590 L169 590 L225 451 L309 451 Z " />
<glyph glyph-name="breve" unicode="&#x2d8;" horiz-adv-x="416" d="M291 476 C353 476 420 506 455 590 L369 590 C348 554 328 549 304 549 C280 549 262 554 255 590 L169 590 C172 506 230 476 291 476 L291 476 Z " />
<glyph glyph-name="dotaccent" unicode="&#x2d9;" horiz-adv-x="216" d="M155 515 L241 515 L255 590 L169 590 L155 515 Z " />
<glyph glyph-name="ring" unicode="&#x2da;" horiz-adv-x="376" d="M280 522 C303 522 322 513 315 474 C308 435 286 426 263 426 C240 426 220 435 227 474 C234 513 257 522 280 522 L280 522 Z M250 353 C326 353 383 410 394 474 C405 538 369 595 292 595 C217 595 159 538 148 474 C137 410 173 353 250 353 L250 353 Z " />
<glyph glyph-name="ogonek" unicode="&#x2db;" horiz-adv-x="279" d="M42 -130 L139 -130 L212 -6 L128 -6 L42 -130 Z " />
<glyph glyph-name="tilde" unicode="&#x2dc;" horiz-adv-x="389" d="M399 569 C384 562 367 558 350 558 C306 558 279 595 234 595 C210 595 192 590 165 571 L179 507 C192 514 204 514 220 514 C263 514 289 478 332 478 C359 478 386 491 413 506 L399 569 Z " />
<glyph glyph-name="hungarumlaut" unicode="&#x2dd;" horiz-adv-x="395" d="M299 590 L204 590 L147 466 L225 466 L299 590 Z M434 590 L339 590 L282 466 L360 466 L434 590 Z " />
<glyph glyph-name="uni03A9" unicode="&#x3a9;" horiz-adv-x="748" d="M465 513 C566 513 626 460 594 287 L581 215 C572 160 552 118 519 89 L504 0 L683 0 L697 82 L606 82 C651 146 664 188 668 215 L684 304 C721 517 608 595 478 595 C350 595 207 517 170 304 L154 215 C150 188 147 146 170 82 L79 82 L65 0 L244 0 L259 89 C236 120 232 159 241 215 L254 287 C286 460 360 513 465 513 L465 513 Z " />
<glyph glyph-name="pi" unicode="&#x3c0;" horiz-adv-x="764" d="M770 405 L136 405 L121 323 L231 323 L175 0 L260 0 L316 323 L560 323 L504 0 L589 0 L645 323 L755 323 L770 405 Z " />
<glyph glyph-name="ZWSP" unicode="&#x200b;" d="" />
<glyph glyph-name="endash" unicode="&#x2013;" horiz-adv-x="444" d="M409 172 L423 253 L109 253 L95 172 L409 172 Z " />
<glyph glyph-name="emdash" unicode="&#x2014;" horiz-adv-x="499" d="M464 172 L478 253 L109 253 L95 172 L464 172 Z " />
<glyph glyph-name="quoteleft" unicode="&#x2018;" horiz-adv-x="279" d="M147 466 L244 466 L318 590 L234 590 L147 466 Z " />
<glyph glyph-name="quoteright" unicode="&#x2019;" horiz-adv-x="279" d="M318 590 L221 590 L147 466 L231 466 L318 590 Z " />
<glyph glyph-name="quotesinglbase" unicode="&#x201a;" horiz-adv-x="279" d="M222 47 L125 47 L51 -77 L135 -77 L222 47 Z " />
<glyph glyph-name="quotedblleft" unicode="&#x201c;" horiz-adv-x="418" d="M147 466 L244 466 L318 590 L234 590 L147 466 Z M286 466 L383 466 L457 590 L373 590 L286 466 Z " />
<glyph glyph-name="quotedblright" unicode="&#x201d;" horiz-adv-x="418" d="M457 590 L360 590 L286 466 L370 466 L457 590 Z M318 590 L221 590 L147 466 L231 466 L318 590 Z " />
<glyph glyph-name="quotedblbase" unicode="&#x201e;" horiz-adv-x="418" d="M361 47 L264 47 L190 -77 L274 -77 L361 47 Z M222 47 L125 47 L51 -77 L135 -77 L222 47 Z " />
<glyph glyph-name="dagger" unicode="&#x2020;" horiz-adv-x="495" d="M121 323 L260 323 L173 -171 L260 -171 L347 323 L486 323 L501 405 L362 405 L395 590 L308 590 L275 405 L136 405 L121 323 Z " />
<glyph glyph-name="daggerdbl" unicode="&#x2021;" horiz-adv-x="495" d="M79 82 L65 0 L204 0 L173 -171 L260 -171 L291 0 L430 0 L444 82 L305 82 L347 323 L486 323 L501 405 L362 405 L395 590 L308 590 L275 405 L136 405 L121 323 L260 323 L218 82 L79 82 Z " />
<glyph glyph-name="bullet" unicode="&#x2022;" horiz-adv-x="223" d="M98 188 C93 163 111 143 136 143 C163 143 186 163 191 188 C195 215 179 234 152 234 C127 234 102 215 98 188 L98 188 Z " />
<glyph glyph-name="ellipsis" unicode="&#x2026;" horiz-adv-x="734" d="M63 -6 L149 -6 L163 69 L77 69 L63 -6 Z M322 -6 L408 -6 L422 69 L336 69 L322 -6 Z M581 -6 L667 -6 L681 69 L595 69 L581 -6 Z " />
<glyph glyph-name="perthousand" unicode="&#x2030;" horiz-adv-x="920" d="M183 0 L276 0 C385 203 489 388 601 590 L508 590 L183 0 Z M241 454 C220 454 207 468 212 495 C216 522 234 535 255 535 C280 535 290 522 286 495 C281 468 266 454 241 454 L241 454 Z M230 394 C295 394 333 428 345 495 C356 559 325 595 265 595 C205 595 163 559 152 495 C140 427 167 394 230 394 L230 394 Z M527 54 C506 54 494 68 498 95 C503 122 520 135 541 135 C564 135 577 122 572 95 C568 68 550 54 527 54 L527 54 Z M516 -6 C581 -6 619 28 631 95 C643 159 612 195 552 195 C492 195 450 159 438 95 C426 27 453 -6 516 -6 L516 -6 Z M767 54 C746 54 734 68 738 95 C743 122 760 135 781 135 C804 135 817 122 812 95 C808 68 790 54 767 54 L767 54 Z M756 -6 C821 -6 859 28 871 95 C883 159 852 195 792 195 C732 195 690 159 678 95 C666 27 693 -6 756 -6 L756 -6 Z " />
<glyph glyph-name="guilsinglleft" unicode="&#x2039;" horiz-adv-x="439" d="M429 312 L445 406 L111 262 L91 150 C149 121 213 86 375 6 L391 100 L180 206 L429 312 Z " />
<glyph glyph-name="guilsinglright" unicode="&#x203a;" horiz-adv-x="439" d="M331 206 L82 100 L66 6 C256 86 331 121 400 150 L420 262 L136 406 L120 312 L331 206 Z " />
<glyph glyph-name="fraction" unicode="&#x2044;" horiz-adv-x="571" d="M29 -204 L118 -204 L633 724 L540 724 L29 -204 Z " />
<glyph glyph-name="Euro" unicode="&#x20ac;" horiz-adv-x="677" d="M445 76 C384 76 301 92 277 187 L411 187 L425 266 L274 266 C275 278 276 290 279 303 C282 314 282 323 285 332 L437 332 L451 411 L317 411 C367 493 450 513 522 513 C565 513 611 502 650 477 L707 539 C660 578 600 595 537 595 C429 595 293 545 226 411 L137 411 L123 332 L198 332 C195 324 195 315 192 306 C189 291 190 279 187 266 L111 266 L97 187 L187 187 C208 32 344 -6 432 -6 C492 -6 558 8 619 51 L585 113 C537 86 490 76 445 76 L445 76 Z " />
<glyph glyph-name="Numero" unicode="&#x2116;" horiz-adv-x="1112" d="M460 0 L562 0 L666 590 L579 590 L498 132 L270 590 L169 590 L65 0 L152 0 L231 453 L460 0 Z M887 236 C842 236 775 253 796 365 C812 461 884 489 932 489 C981 489 1040 461 1024 365 C1003 253 934 236 887 236 L887 236 Z M873 154 C949 154 1082 197 1111 367 C1138 511 1033 571 946 571 C858 571 736 511 709 367 C680 197 797 154 873 154 L873 154 Z M1047 0 L1061 81 L659 81 L645 0 L1047 0 Z " />
<glyph glyph-name="trademark" unicode="&#x2122;" horiz-adv-x="733" d="M158 528 L243 528 L197 271 L265 271 L311 528 L397 528 L408 590 L169 590 L158 528 Z M579 337 L684 471 L648 271 L715 271 L772 590 L696 590 L576 434 L512 590 L436 590 L379 271 L446 271 L482 471 L539 337 L579 337 Z " />
<glyph glyph-name="Omega" unicode="&#x2126;" horiz-adv-x="748" d="M465 513 C566 513 626 460 594 287 L581 215 C572 160 552 118 519 89 L504 0 L683 0 L697 82 L606 82 C651 146 664 188 668 215 L684 304 C721 517 608 595 478 595 C350 595 207 517 170 304 L154 215 C150 188 147 146 170 82 L79 82 L65 0 L244 0 L259 89 C236 120 232 159 241 215 L254 287 C286 460 360 513 465 513 L465 513 Z " />
<glyph glyph-name="partialdiff" unicode="&#x2202;" horiz-adv-x="524" d="M397 156 C389 141 379 128 367 116 C347 96 317 76 278 76 C246 76 164 76 188 209 C207 319 292 329 323 329 C362 329 384 309 397 289 C404 277 410 264 413 249 L397 156 Z M529 402 C558 570 428 595 355 595 C295 595 242 587 198 560 L213 492 C262 511 311 513 336 513 C382 513 461 511 442 402 L435 360 C403 411 338 411 322 411 C231 411 125 350 101 209 C72 43 163 -6 240 -6 C268 -6 323 -5 379 45 L380 0 L459 0 L529 402 Z " />
<glyph glyph-name="Delta" unicode="&#x2206;" horiz-adv-x="792" d="M501 585 L65 0 L727 0 L501 585 Z M468 414 L596 79 L222 79 L468 414 Z " />
<glyph glyph-name="product" unicode="&#x220f;" horiz-adv-x="764" d="M803 590 L169 590 L154 508 L264 508 L175 0 L260 0 L349 508 L593 508 L504 0 L589 0 L678 508 L788 508 L803 590 Z " />
<glyph glyph-name="summation" unicode="&#x2211;" horiz-adv-x="474" d="M73 46 L65 0 L409 0 L423 82 L190 82 L323 295 L265 508 L498 508 L513 590 L169 590 L160 542 C205 380 219 332 227 295 L73 46 Z " />
<glyph glyph-name="minus" unicode="&#x2212;" horiz-adv-x="444" d="M409 172 L423 253 L109 253 L95 172 L409 172 Z " />
<glyph glyph-name="radical" unicode="&#x221a;" horiz-adv-x="754" d="M325 0 L633 576 L790 576 L804 657 L580 657 L282 83 L232 405 L136 405 L211 0 L325 0 Z " />
<glyph glyph-name="infinity" unicode="&#x221e;" horiz-adv-x="990" d="M519 137 C558 77 635 43 719 43 C825 43 943 101 964 225 C985 342 917 413 784 413 C698 413 641 389 547 298 C485 389 436 413 350 413 C217 413 125 342 104 225 C83 101 178 43 285 43 C369 43 459 77 519 137 L519 137 Z M336 332 C405 332 462 297 507 213 C417 131 370 124 299 124 C232 124 180 160 191 224 C207 312 286 332 336 332 L336 332 Z M770 332 C820 332 893 312 877 224 C866 160 799 124 733 124 C661 124 620 131 557 213 C633 297 701 332 770 332 L770 332 Z " />
<glyph glyph-name="integral" unicode="&#x222b;" horiz-adv-x="511" d="M370 406 C383 485 395 513 460 513 C468 513 487 511 504 510 C514 509 524 509 535 508 L548 582 C532 589 514 595 458 595 C335 595 300 505 292 454 L210 -9 C197 -88 185 -116 120 -116 C111 -116 93 -115 76 -114 C66 -113 56 -112 45 -111 L32 -185 C48 -192 66 -198 122 -198 C245 -198 280 -108 288 -57 L370 406 Z " />
<glyph glyph-name="approxequal" unicode="&#x2248;" horiz-adv-x="389" d="M322 135 C306 127 289 124 273 124 C228 124 204 161 158 161 C134 161 116 156 89 137 L102 73 C115 80 128 80 144 80 C187 80 212 44 255 44 C282 44 309 57 336 72 L322 135 Z M345 263 C330 256 313 252 296 252 C252 252 225 289 180 289 C156 289 138 284 111 265 L125 201 C138 208 150 208 166 208 C209 208 235 172 278 172 C305 172 332 185 359 200 L345 263 Z " />
<glyph glyph-name="notequal" unicode="&#x2260;" horiz-adv-x="410" d="M387 239 L401 320 L353 320 L394 393 L302 393 L261 320 L121 320 L107 239 L217 239 L176 165 L94 165 L79 84 L131 84 L85 0 L177 0 L223 84 L359 84 L374 165 L268 165 L309 239 L387 239 Z " />
<glyph glyph-name="lessequal" unicode="&#x2264;" horiz-adv-x="440" d="M112 262 C307 174 345 157 398 133 L414 226 C353 253 281 287 221 314 L445 402 L462 497 C349 454 244 409 131 369 L112 262 Z M375 0 L389 81 L79 81 L65 0 L375 0 Z " />
<glyph glyph-name="greaterequal" unicode="&#x2265;" horiz-adv-x="440" d="M439 369 C340 409 251 454 152 497 L135 402 L329 314 C258 287 176 253 104 226 L88 133 C150 157 192 174 420 262 L439 369 Z M375 0 L389 81 L79 81 L65 0 L375 0 Z " />
<glyph glyph-name="lozenge" unicode="&#x25ca;" horiz-adv-x="523" d="M288 149 L217 293 L339 437 L408 293 L288 149 Z M264 0 L508 287 L510 296 L368 591 L363 591 L117 296 L115 287 L259 0 L264 0 Z " />
<glyph glyph-name="uni25CC" unicode="&#x25cc;" horiz-adv-x="512" d="" />
<glyph glyph-name="fi" unicode="&#xfb01;" horiz-adv-x="583" d="M439 580 C427 588 410 595 358 595 C269 595 204 545 180 412 L179 405 L96 405 L82 324 L165 324 L108 0 L195 0 L252 324 L394 324 L408 405 L266 405 L269 422 C282 495 321 514 372 514 C395 514 407 514 426 509 L439 580 Z M432 0 L519 0 L590 405 L503 405 L432 0 Z M514 469 L601 469 L616 554 L529 554 L514 469 Z " />
<glyph glyph-name="fl" unicode="&#xfb02;" horiz-adv-x="611" d="M439 580 C427 588 410 595 358 595 C269 595 204 545 180 412 L179 405 L96 405 L82 324 L165 324 L108 0 L195 0 L252 324 L394 324 L408 405 L266 405 L269 422 C282 495 321 514 372 514 C395 514 407 514 426 509 L439 580 Z M623 590 L536 590 L449 102 C433 6 473 -6 510 -6 L515 -6 C524 -6 535 -6 546 -5 C552 -4 558 -4 564 -3 L576 63 C540 63 530 68 537 103 L623 590 Z " />
</font>
</svg>
