<?xml version="1.0" standalone="no"?>
<!DOCTYPE svg PUBLIC "-//W3C//DTD SVG 1.1//EN" "http://www.w3.org/Graphics/SVG/1.1/DTD/svg11.dtd" >
<svg xmlns="http://www.w3.org/2000/svg">
<metadata></metadata>
<defs>
<font id="arquitecta_blackblack_italic" horiz-adv-x="444" >
<font-face units-per-em="1000" ascent="750" descent="-250" />
<missing-glyph horiz-adv-x="156" />
<glyph horiz-adv-x="0" />
<glyph horiz-adv-x="333" />
<glyph horiz-adv-x="0" />
<glyph horiz-adv-x="0" />
<glyph unicode="&#xd;" horiz-adv-x="280" />
<glyph unicode=" "  horiz-adv-x="156" />
<glyph unicode="&#x09;" horiz-adv-x="156" />
<glyph unicode="&#xa0;" horiz-adv-x="156" />
<glyph unicode="!" horiz-adv-x="259" d="M295 600l-6 -45l-83 -341h-94l13 341l6 45h164zM55 66q0 39 29 67t68 28q32 0 53 -21.5t21 -53.5q0 -38 -29.5 -66t-68.5 -28q-32 0 -52.5 21t-20.5 53z" />
<glyph unicode="&#x22;" horiz-adv-x="369" d="M260 650l-72 -187h-92l3 22l48 187h116zM440 650l-72 -187h-92l3 22l48 187h116z" />
<glyph unicode="#" horiz-adv-x="670" d="M635 583l-52 -143h121l-31 -82h-120l-48 -132h122l-31 -82h-121l-52 -144h-88l52 144h-133l-52 -144h-88l52 144h-118l30 82h118l48 132h-119l30 82h119l52 143h88l-52 -143h133l52 143h88zM332 358l-48 -132h133l48 132h-133z" />
<glyph unicode="$" horiz-adv-x="558" d="M38 67l95 111q9 -6 24.5 -16t59 -26t82.5 -16q43 0 63 16t20 40q0 21 -21.5 35t-80.5 31q-92 27 -137.5 65.5t-45.5 99.5q0 82 56 137t163 66l9 65h96l-9 -64q59 -4 103.5 -19.5t60.5 -29.5l15 -13l-95 -118q-7 6 -19 14t-51 22t-79 14q-80 0 -80 -49q0 -19 20.5 -30.5 t74.5 -26.5q98 -27 146 -66.5t48 -102.5q0 -85 -60 -146.5t-171 -70.5l-9 -64h-96l9 65q-59 6 -106.5 25.5t-66.5 35.5z" />
<glyph unicode="%" horiz-adv-x="676" d="M236 613q57 0 89.5 -36.5t32.5 -90.5q0 -67 -46 -117t-117 -50q-57 0 -89.5 37t-32.5 91q0 67 46 116.5t117 49.5zM226 537q-59 0 -59 -90q0 -51 39 -51q58 0 58 89q0 52 -38 52zM624 613l61 -56l-549 -564l-60 56zM566 286q57 0 89.5 -36.5t32.5 -90.5q0 -67 -46 -117 t-117 -50q-57 0 -89.5 37t-32.5 91q0 67 46 116.5t117 49.5zM556 210q-59 0 -59 -90q0 -51 39 -51q58 0 58 89q0 52 -38 52z" />
<glyph unicode="&#x26;" horiz-adv-x="663" d="M67 149q0 67 37 108t102 69l-14 16q-34 37 -34 94q0 75 59.5 126t159.5 51q82 0 130 -40.5t48 -101.5q0 -70 -37 -111.5t-102 -70.5l71 -77q26 40 32 84l3 24h138l-2 -21q-14 -96 -87 -179l102 -110l-1 -10h-172l-32 35q-83 -48 -175 -48q-114 0 -170 44t-56 118z M311 113q38 0 74 15l-99 109q-57 -29 -57 -67q0 -25 20 -41t62 -16zM294 436q0 -29 40 -64q41 15 63 33t22 44q0 20 -15 32t-41 12q-32 0 -50.5 -16t-18.5 -41z" />
<glyph unicode="'" horiz-adv-x="189" d="M260 650l-72 -187h-92l3 22l48 187h116z" />
<glyph unicode="(" horiz-adv-x="369" d="M447 579q-246 -130 -246 -366q0 -178 155 -277l-87 -100q-32 15 -66.5 44.5t-70.5 74.5t-59 111t-23 140q0 78 26 150t63.5 122.5t86 94t88 67.5t74.5 39z" />
<glyph unicode=")" horiz-adv-x="369" d="M85 579l87 100q32 -15 66.5 -44t71 -74t59.5 -111t23 -140q0 -78 -25.5 -150t-63.5 -123t-86.5 -94t-88 -67.5t-74.5 -39.5l-59 100q246 130 246 366q0 179 -156 277z" />
<glyph unicode="*" horiz-adv-x="385" d="M335 700l-26 -77h-59l-3 77l4 29h88zM407 571l-80 -10l-10 56l77 39l26 8l15 -85zM215 561l-77 10l-26 8l39 85l24 -9l66 -39zM150 498l67 54l43 -33l-47 -74l-18 -22l-65 51zM322 551l53 -53l13 -24l-80 -51l-12 22l-25 74z" />
<glyph unicode="+" horiz-adv-x="485" d="M374 504l-21 -149h149l-16 -116h-149l-20 -141h-118l20 141h-152l16 116h152l21 149h118z" />
<glyph unicode="," horiz-adv-x="217" d="M36 62q0 37 27.5 64t64.5 27q31 0 51 -20.5t20 -51.5q0 -25 -9 -49t-16.5 -36t-25.5 -37l-40 -56h-90l40 56q6 8 13 15t11 10l3 3v8q-22 6 -35.5 24t-13.5 43z" />
<glyph unicode="-" horiz-adv-x="370" d="M70 229l16 116h294l-16 -116h-294z" />
<glyph unicode="." horiz-adv-x="215" d="M36 62q0 37 27.5 64t65.5 27q31 0 50.5 -20.5t19.5 -51.5q0 -36 -28 -62.5t-65 -26.5q-31 0 -50.5 20t-19.5 50z" />
<glyph unicode="/" horiz-adv-x="401" d="M481 703l-345 -879h-141l345 879h141z" />
<glyph unicode="0" horiz-adv-x="626" d="M311 -13q-118 0 -178.5 75t-60.5 189q0 94 36.5 175t112.5 134t178 53q118 0 179 -75t61 -189q0 -69 -21.5 -133.5t-61.5 -115.5t-104 -82t-141 -31zM331 127q74 0 115.5 59t41.5 151q0 63 -27.5 99.5t-80.5 36.5q-75 0 -116 -58.5t-41 -151.5q0 -63 27.5 -99.5 t80.5 -36.5z" />
<glyph unicode="1" horiz-adv-x="353" d="M86 475l18 125h257l-85 -600h-145l67 475h-112z" />
<glyph unicode="2" horiz-adv-x="528" d="M35 0l3 24l266 279q37 39 47.5 57.5t10.5 40.5q0 30 -21 50t-55 20q-64 0 -131 -54l-59 116q4 3 11 8.5t30 19.5t48 24.5t63.5 19t77.5 8.5q106 0 158 -46.5t52 -119.5q0 -86 -87 -178l-137 -144h197l-17 -125h-457z" />
<glyph unicode="3" horiz-adv-x="533" d="M281 270h-71l4 29l120 176h-207l17 125h416l-3 -24l-144 -212q114 -27 114 -147q0 -97 -73.5 -163.5t-210.5 -66.5q-63 0 -117 20t-73 34.5t-26 23.5l88 113q7 -6 18.5 -15.5t49 -25t74.5 -15.5q58 0 85 24t27 60q0 29 -22 46.5t-66 17.5z" />
<glyph unicode="4" horiz-adv-x="581" d="M36 124l14 100l403 376h103l-50 -352h76l-17 -124h-77l-17 -124h-145l17 124h-307zM247 264l-3 -16h117l19 138l-106 -102z" />
<glyph unicode="5" horiz-adv-x="526" d="M525 475h-247l-15 -93q23 3 45 3q219 0 219 -166q0 -99 -73.5 -165.5t-210.5 -66.5q-39 0 -76 8t-61.5 19.5t-43 23t-26.5 19.5l-9 8l88 113q7 -6 18.5 -15.5t49 -25t74.5 -15.5q59 0 85.5 23.5t26.5 59.5q0 65 -120 65q-91 0 -131 -20l-11 7l57 343h378z" />
<glyph unicode="6" horiz-adv-x="538" d="M59 175q0 98 88 223l143 202h177l-117 -163q-7 -10 -15.5 -19t-12.5 -13l-5 -4v-11q11 4 34 4q94 0 146.5 -43t52.5 -121q0 -109 -79.5 -176t-191.5 -67q-101 0 -160.5 51t-59.5 137zM315 278q-43 0 -71 -30t-28 -68q0 -32 19.5 -51t55.5 -19q47 0 73.5 28t26.5 68 q0 31 -19.5 51.5t-56.5 20.5z" />
<glyph unicode="7" horiz-adv-x="485" d="M94 475l17 125h457l-4 -32l-341 -568h-170l299 475h-258z" />
<glyph unicode="8" horiz-adv-x="550" d="M273 -13q-103 0 -160 46.5t-57 117.5q0 109 108 167q-46 43 -46 105q0 79 68 134.5t175 55.5q90 0 142 -43.5t52 -110.5q0 -87 -80 -143q66 -46 66 -125q0 -86 -73.5 -145t-194.5 -59zM290 110q41 0 69 25t28 58q0 29 -20.5 48t-55.5 19q-41 0 -68.5 -24.5t-27.5 -58.5 q0 -28 20.5 -47.5t54.5 -19.5zM325 359q35 0 57 21t22 51q0 25 -16.5 41.5t-44.5 16.5q-34 0 -55.5 -22t-21.5 -52q0 -24 15.5 -40t43.5 -16z" />
<glyph unicode="9" horiz-adv-x="542" d="M567 423q0 -95 -88 -222l-141 -201h-184l117 163q7 10 15.5 18.5t13.5 12.5l5 4v9q-12 -3 -32 -3q-94 0 -146.5 43t-52.5 122q0 109 79 176.5t191 67.5q101 0 162 -51.5t61 -138.5zM312 326q41 0 66.5 26.5t25.5 64.5q0 30 -18.5 48t-52.5 18q-43 0 -68 -25.5t-25 -63.5 q0 -30 19 -49t53 -19z" />
<glyph unicode=":" horiz-adv-x="221" d="M66 255q0 37 28 64t65 27q31 0 50.5 -20.5t19.5 -51.5q0 -36 -28 -62.5t-65 -26.5q-31 0 -50.5 20t-19.5 50zM39 62q0 37 27.5 64t65.5 27q31 0 50.5 -20.5t19.5 -51.5q0 -36 -28 -62.5t-65 -26.5q-31 0 -50.5 20t-19.5 50z" />
<glyph unicode=";" horiz-adv-x="222" d="M39 62q0 37 27.5 64t64.5 27q31 0 51 -20.5t20 -51.5q0 -24 -9 -48.5t-16.5 -36.5t-25.5 -37l-40 -56h-90l40 56q7 9 13.5 16t9.5 9l4 3v8q-22 6 -35.5 24t-13.5 43zM66 255q0 37 27.5 64t64.5 27q31 0 51 -20.5t20 -51.5q0 -36 -28 -62.5t-65 -26.5q-31 0 -50.5 20 t-19.5 50z" />
<glyph unicode="&#x3c;" horiz-adv-x="392" d="M273 44l-207 232l3 24l273 232l71 -86l-190 -159l145 -157z" />
<glyph unicode="=" horiz-adv-x="592" d="M138 332l16 116h410l-16 -116h-410zM111 142l16 116h410l-16 -116h-410z" />
<glyph unicode="&#x3e;" horiz-adv-x="392" d="M404 276l-273 -232l-71 86l190 157l-146 159l95 86l208 -232z" />
<glyph unicode="?" horiz-adv-x="401" d="M141 472l-33 110q64 30 162 30q77 0 119.5 -38t42.5 -96q0 -43 -14.5 -75.5t-37 -53t-46 -37t-45 -39t-29.5 -48.5l-6 -19h-94l4 30q4 33 23.5 62.5t40.5 47.5t37.5 42.5t16.5 50.5t-17 40.5t-45 14.5q-19 0 -39 -5.5t-30 -10.5zM109 63q0 36 28 62.5t65 26.5 q31 0 50.5 -20t19.5 -50q0 -37 -27.5 -64t-64.5 -27q-31 0 -51 20.5t-20 51.5z" />
<glyph unicode="@" horiz-adv-x="901" d="M420 -244q-96 0 -169 29.5t-116 81t-64 115t-21 137.5q0 73 18 142.5t57.5 132.5t96 110t138 75t179.5 28t172 -29t114 -77t59.5 -101t19.5 -110q0 -139 -67 -221t-172 -82q-29 0 -52.5 6.5t-35.5 15.5t-20 18t-11 15l-2 7h-10q-36 -56 -121 -56q-63 0 -102.5 41.5 t-39.5 111.5q0 96 55.5 152.5t137.5 56.5q71 0 97 -41l21 32h86l-26 -182q-9 -61 48 -61q43 0 69.5 42t26.5 127q0 103 -65 164t-197 61q-161 0 -259.5 -101.5t-98.5 -262.5q0 -122 70.5 -194.5t198.5 -72.5q45 0 85.5 7.5t57.5 14.5l18 8l33 -97q-7 -5 -21.5 -12t-68.5 -19 t-119 -12zM528 187q0 55 -53 55q-31 0 -51.5 -21.5t-20.5 -55.5q0 -27 14.5 -43t38.5 -16q35 0 53.5 23t18.5 58z" />
<glyph unicode="A" horiz-adv-x="622" d="M-15 0l398 600h24l231 -600h-164l-23 71h-261l-42 -71h-163zM414 184l-52 166h-5l-99 -166l-9 -11h170z" />
<glyph unicode="B" horiz-adv-x="637" d="M628 197q0 -90 -69 -143.5t-189 -53.5h-304l84 600h299q198 0 198 -148q0 -45 -22 -80.5t-63 -53.5l-2 -15q68 -28 68 -106zM416 255h-170l-18 -130h165q35 0 57 21.5t22 50.5q0 23 -15 40.5t-41 17.5zM489 423q0 23 -15.5 37.5t-44.5 14.5h-152l-17 -121h151 q37 0 57.5 20t20.5 49z" />
<glyph unicode="C" horiz-adv-x="578" d="M507 171l68 -111q-3 -3 -9 -8t-27.5 -17.5t-45.5 -22t-62.5 -17.5t-79.5 -8q-132 0 -207 77.5t-75 195.5q0 146 104 249.5t266 103.5q66 0 116.5 -18.5t68.5 -36.5l18 -18l-98 -111q-56 45 -123 45q-86 0 -143.5 -56t-57.5 -142q0 -68 41.5 -109t110.5 -41q38 0 71.5 11 t48.5 23z" />
<glyph unicode="D" horiz-adv-x="664" d="M679 340q0 -145 -100.5 -242.5t-263.5 -97.5h-249l84 600h249q132 0 206 -72t74 -188zM371 475h-94l-49 -350h94q90 0 148 53t58 149q0 72 -42.5 110t-114.5 38z" />
<glyph unicode="E" horiz-adv-x="577" d="M66 0l84 600h477l-17 -125h-333l-16 -118h264l-16 -114h-264l-17 -118h333l-18 -125h-477z" />
<glyph unicode="F" horiz-adv-x="564" d="M627 600l-17 -125h-333l-16 -118h281l-16 -114h-281l-34 -243h-145l84 600h477z" />
<glyph unicode="G" horiz-adv-x="661" d="M516 235l1 8h-146l16 114h300l-10 -67q-21 -140 -101.5 -221.5t-225.5 -81.5q-131 0 -206 77.5t-75 195.5q0 146 103.5 249.5t265.5 103.5q45 0 83.5 -7.5t61.5 -18.5t40 -22.5t23 -18.5l7 -8l-101 -110q-6 5 -16.5 12.5t-46 20.5t-73.5 13q-82 0 -139 -56t-57 -142 q0 -67 41 -108.5t106 -41.5q64 0 103.5 30.5t45.5 78.5z" />
<glyph unicode="H" horiz-adv-x="687" d="M705 600l-84 -600h-145l33 235h-265l-33 -235h-145l84 600h145l-35 -251h265l35 251h145z" />
<glyph unicode="I" horiz-adv-x="277" d="M295 600l-84 -600h-145l84 600h145z" />
<glyph unicode="J" horiz-adv-x="486" d="M16 37l83 125q46 -33 98 -33q53 0 80.5 26t35.5 84l52 361h145l-55 -390q-13 -95 -80.5 -159t-187.5 -64q-50 0 -92 12t-57 21.5t-22 16.5z" />
<glyph unicode="K" horiz-adv-x="638" d="M295 600l-36 -258l281 258h177l-2 -13l-265 -244l185 -329l-2 -14h-176q-14 27 -123 236l-104 -96l-19 -140h-145l84 600h145z" />
<glyph unicode="L" horiz-adv-x="528" d="M516 0h-450l84 600h145l-67 -475h306z" />
<glyph unicode="M" horiz-adv-x="759" d="M549 0l44 315l-177 -153h-25l-137 154l-44 -316h-144l84 600h39l237 -257l313 257h38l-84 -600h-144z" />
<glyph unicode="N" horiz-adv-x="697" d="M715 599l-84 -599h-33l-342 331l-46 -331h-144l84 600h33l343 -318l45 317h144z" />
<glyph unicode="O" horiz-adv-x="702" d="M349 -13q-131 0 -205.5 77.5t-74.5 195.5q0 146 103.5 249.5t264.5 103.5q131 0 206 -77.5t75 -195.5q0 -146 -103.5 -249.5t-265.5 -103.5zM368 127q82 0 140.5 55.5t58.5 140.5q0 67 -42 108.5t-108 41.5q-81 0 -139 -55.5t-58 -140.5q0 -67 41.5 -108.5t106.5 -41.5z " />
<glyph unicode="P" horiz-adv-x="616" d="M66 0l84 600h284q104 0 162.5 -48t58.5 -133q0 -115 -81.5 -179.5t-208.5 -64.5h-130l-24 -175h-145zM503 398q0 77 -93 77h-133l-25 -180h133q57 0 87.5 26.5t30.5 76.5z" />
<glyph unicode="Q" horiz-adv-x="702" d="M349 -13q-131 0 -205.5 77.5t-74.5 195.5q0 146 103.5 249.5t264.5 103.5q131 0 206 -77.5t75 -195.5q0 -85 -38 -159.5t-106 -124.5l53 -95l-2 -14h-154l-27 51q-47 -11 -95 -11zM320 235l2 14h146l38 -69q61 56 61 143q0 67 -42 108.5t-108 41.5q-81 0 -139 -55.5 t-58 -140.5q0 -67 41.5 -108.5t106.5 -41.5h8z" />
<glyph unicode="R" horiz-adv-x="649" d="M433 600q104 0 163 -48t59 -133q0 -72 -34.5 -125.5t-94.5 -83.5v-11l108 -189l-1 -10h-165l-93 175h-140l-24 -175h-145l84 600h283zM503 398q0 77 -93 77h-133l-25 -180h133q57 0 87.5 26.5t30.5 76.5z" />
<glyph unicode="S" horiz-adv-x="552" d="M34 67l95 111q9 -6 24.5 -16t59 -26t82.5 -16q43 0 63 16t20 40q0 21 -21.5 35t-80.5 31q-92 27 -137.5 65.5t-45.5 99.5q0 91 69.5 148.5t199.5 57.5q75 0 131 -16t75 -32l19 -16l-95 -118q-7 6 -19 14t-51 22t-79 14q-80 0 -80 -49q0 -19 20.5 -30.5t74.5 -26.5 q98 -27 146 -66.5t48 -102.5q0 -92 -70.5 -155.5t-200.5 -63.5q-76 0 -137.5 20t-85.5 40z" />
<glyph unicode="T" horiz-adv-x="546" d="M79 475l18 125h522l-18 -125h-188l-67 -475h-145l67 475h-189z" />
<glyph unicode="U" horiz-adv-x="665" d="M332 -13q-125 0 -190 77t-48 195l48 341h145l-48 -341q-8 -55 20.5 -93.5t91.5 -38.5q64 0 102.5 37.5t46.5 94.5l48 341h145l-48 -341q-17 -119 -102 -195.5t-211 -76.5z" />
<glyph unicode="V" horiz-adv-x="622" d="M311 354l30 -116h6l61 116l149 246h165l-399 -600h-26l-228 600h162z" />
<glyph unicode="W" horiz-adv-x="834" d="M363 390l126 210h25l65 -210l18 -80h22l42 95l105 195h160l-346 -600h-26l-68 210l-24 76h-11l-45 -76l-126 -210h-26l-178 600h159l51 -195l14 -95h22z" />
<glyph unicode="X" horiz-adv-x="603" d="M677 600l-223 -293l143 -307h-176l-69 177l-18 53q-2 -2 -32 -53l-119 -177h-175l226 307l-139 293h175l68 -167l17 -56q5 8 18 30t15 26q21 30 59 86.5t55 80.5h175z" />
<glyph unicode="Y" horiz-adv-x="572" d="M369 418l130 182h167l-276 -370l-32 -230h-145l32 229l-169 371h167l78 -182l12 -40h12z" />
<glyph unicode="Z" horiz-adv-x="561" d="M24 0l5 39l341 436h-269l17 125h497l-5 -40l-328 -435h267l-18 -125h-507z" />
<glyph unicode="[" horiz-adv-x="350" d="M426 674l-16 -116h-138l-84 -600h137l-16 -116h-273l117 832h273z" />
<glyph unicode="\" horiz-adv-x="401" d="M215 -176l-97 879h141l97 -879h-141z" />
<glyph unicode="]" horiz-adv-x="350" d="M-3 -158l16 116h137l84 600h-136l16 116h273l-117 -832h-273z" />
<glyph unicode="^" horiz-adv-x="390" d="M311 491l-37 76l-57 -76h-107l3 22l139 155h74l95 -155l-3 -22h-107z" />
<glyph unicode="_" horiz-adv-x="507" d="M15 -136l16 116h439l-16 -116h-439z" />
<glyph unicode="`" horiz-adv-x="254" d="M185 419l-80 136l3 22h163l9 -136l-3 -22h-92z" />
<glyph unicode="a" horiz-adv-x="426" d="M34 85q0 55 42 86t113 31q31 0 52 -5t27 -11l5 -5h6l2 13q4 25 -15 36t-58 11q-21 0 -44.5 -5.5t-36.5 -11.5l-13 -5l-27 104q75 31 163 31q96 0 137 -43.5t30 -121.5l-27 -189h-105l-10 34h-6q-29 -42 -114 -42q-54 0 -87.5 26t-33.5 67zM172 106q0 -28 41 -28 q25 0 39 10t14 25q0 28 -44 28q-50 0 -50 -35z" />
<glyph unicode="b" horiz-adv-x="466" d="M42 0l94 668h144l-49 -347h6q3 4 8.5 9.5t28.5 14.5t51 9q64 0 103.5 -43t39.5 -113q0 -92 -57 -149t-142 -57q-35 0 -59.5 12t-31.5 24l-7 12h-6l-29 -40h-94zM203 163q0 -53 50 -53q31 0 50 21t19 53q0 24 -13.5 38t-37.5 14q-32 0 -50 -20.5t-18 -52.5z" />
<glyph unicode="c" horiz-adv-x="357" d="M226 -8q-84 0 -132.5 45.5t-48.5 114.5q0 84 65.5 143t166.5 59q35 0 62.5 -7t37.5 -14l10 -7l-55 -106q-21 16 -58 16q-38 0 -60.5 -19.5t-22.5 -51.5q0 -25 17 -40t48 -15q16 0 32 4t24 8l7 4l22 -105q-37 -29 -115 -29z" />
<glyph unicode="d" horiz-adv-x="466" d="M319 321h6l49 347h144l-94 -668h-94l-17 40h-6q-4 -5 -11.5 -13t-36.5 -21.5t-64 -13.5q-67 0 -108 41t-41 112q0 90 57 149.5t138 59.5q28 0 47.5 -8t25.5 -16zM313 184q0 52 -52 52q-31 0 -49.5 -20t-18.5 -52q0 -24 13.5 -39t37.5 -15q32 0 50.5 21t18.5 53z" />
<glyph unicode="e" horiz-adv-x="414" d="M336 117l33 -88q-5 -4 -15.5 -11t-47 -18t-77.5 -11q-87 0 -135.5 46.5t-48.5 115.5q0 86 63.5 144.5t155.5 58.5q74 0 115.5 -41t41.5 -113l-7 -53h-231q7 -49 68 -49q24 0 45 5t30 9zM248 253q-43 0 -59 -43h101q2 18 -9.5 30.5t-32.5 12.5z" />
<glyph unicode="f" horiz-adv-x="346" d="M367 235h-100l-33 -235h-144l33 235h-69l16 111h68l18 127q14 95 68 144t132 49q53 0 91 -19l-53 -124q-21 10 -35 10q-50 0 -59 -60l-18 -127h101z" />
<glyph unicode="g" horiz-adv-x="421" d="M181 -238q-93 0 -140.5 32.5t-47.5 81.5q0 70 75 99l1 5q-43 22 -43 63q0 61 74 95q-19 28 -19 63q0 67 52.5 110t124.5 43q28 0 75.5 -3t81.5 -6l34 -3l-14 -97h-49l-1 -6q6 -8 6 -24q0 -53 -47.5 -91.5t-123.5 -38.5q-28 0 -44 5q-15 -6 -19.5 -11t-4.5 -12 q0 -20 69 -20q191 0 191 -117q0 -73 -60 -120.5t-171 -47.5zM207 -58q-41 0 -57.5 -13.5t-16.5 -31.5q0 -36 62 -36q41 0 57.5 13.5t16.5 30.5q0 37 -62 37zM244 256q-21 0 -33.5 -13t-12.5 -31q0 -14 9 -23.5t26 -9.5q21 0 33.5 13t12.5 30q0 15 -9 24.5t-26 9.5z" />
<glyph unicode="h" horiz-adv-x="466" d="M41 0l94 668h146l-50 -352h4q36 39 98 39q67 0 100 -40t24 -107l-29 -207h-144l26 186q3 21 -8 35.5t-34 14.5q-46 0 -53 -45l-28 -192h-146z" />
<glyph unicode="i" horiz-adv-x="226" d="M177 448q-31 0 -50.5 20t-19.5 50q0 37 28 64t65 27q31 0 50.5 -20.5t19.5 -51.5q0 -36 -28 -62.5t-65 -26.5zM41 0l49 346h144l-49 -346h-144z" />
<glyph unicode="j" horiz-adv-x="227" d="M-44 -185l35 106q7 -3 17 -3q22 0 25 22l57 406h145l-58 -413q-18 -134 -147 -134q-23 0 -41.5 4t-25.5 8zM176 448q-31 0 -50.5 20t-19.5 50q0 37 28 64t65 27q31 0 50.5 -20.5t19.5 -51.5q0 -36 -28 -62.5t-65 -26.5z" />
<glyph unicode="k" horiz-adv-x="443" d="M320 346h157l-132 -168l95 -178h-168l-64 132h-5l-18 -132h-144l94 668h144l-66 -464h4z" />
<glyph unicode="l" horiz-adv-x="226" d="M41 0l94 668h144l-94 -668h-144z" />
<glyph unicode="m" horiz-adv-x="705" d="M213 188l-27 -188h-144l49 346h86l17 -45h6q48 53 122 53q80 0 114 -54h6q15 23 48.5 38.5t72.5 15.5q71 0 107.5 -39t26.5 -108l-29 -207h-144l26 186q3 23 -7.5 36.5t-32.5 13.5q-21 0 -37 -11.5t-19 -31.5l-27 -193h-144l26 186q3 23 -7.5 36.5t-32.5 13.5t-37.5 -13 t-18.5 -35z" />
<glyph unicode="n" horiz-adv-x="464" d="M212 187l-26 -187h-144l49 346h86l17 -45h6q48 53 122 53q71 0 107.5 -39t26.5 -108l-29 -207h-144l26 186q3 23 -7.5 36.5t-32.5 13.5t-38 -13.5t-19 -35.5z" />
<glyph unicode="o" d="M448 193q0 -88 -67.5 -144.5t-159.5 -56.5q-77 0 -127 44t-50 114q0 89 67.5 146.5t160.5 57.5q76 0 126 -44.5t50 -116.5zM237 105q33 0 51.5 22.5t18.5 57.5q0 26 -13 41t-38 15q-33 0 -52 -22.5t-19 -57.5q0 -25 13.5 -40.5t38.5 -15.5z" />
<glyph unicode="p" horiz-adv-x="466" d="M195 25h-6l-30 -217h-144l76 538h90l16 -45h5q1 2 4 5.5t13.5 13t23 16.5t33.5 12.5t44 5.5q67 0 108 -41t41 -112q0 -90 -57 -149.5t-138 -59.5q-28 0 -48 8t-26 16zM202 162q0 -24 13 -38t38 -14q31 0 50 20t19 52q0 24 -13.5 39t-37.5 15q-32 0 -50.5 -21t-18.5 -53z " />
<glyph unicode="q" horiz-adv-x="466" d="M472 346l-75 -538h-144l30 217h-6q-3 -4 -8.5 -9.5t-28 -14.5t-50.5 -9q-64 0 -104 43t-40 113q0 92 57.5 149t142.5 57q23 0 42 -5.5t30 -13t18 -15.5t10 -14l2 -5h5l29 45h90zM312 183q0 24 -13 38.5t-38 14.5q-31 0 -50 -21t-19 -53q0 -24 13.5 -38t37.5 -14 q32 0 50.5 20.5t18.5 52.5z" />
<glyph unicode="r" horiz-adv-x="339" d="M386 322l-69 -115q-17 16 -45 16q-25 0 -41.5 -15t-20.5 -39l-24 -169h-144l49 346h86l17 -45h5q46 53 106 53q28 0 48 -8t27 -16z" />
<glyph unicode="s" horiz-adv-x="385" d="M30 25l47 98q53 -33 104 -33q31 0 31 21q0 11 -24 19t-52 13.5t-52 26.5t-24 56q0 57 44 92.5t134 35.5q50 0 90.5 -7.5t55.5 -14.5l16 -8l-51 -99q-39 29 -106 29q-25 0 -25 -18q0 -11 25 -19t54.5 -14.5t54.5 -28t25 -56.5q0 -56 -48.5 -91t-140.5 -35q-49 0 -88.5 8 t-54.5 16z" />
<glyph unicode="t" horiz-adv-x="352" d="M67 346h58l15 103h144l-15 -103h99l-16 -113h-99l-12 -90q-3 -31 25 -31q11 0 21.5 3t15.5 6l5 3l32 -96q-4 -4 -13 -10t-39 -16t-64 -10q-68 0 -102.5 39t-24.5 107l13 95h-59z" />
<glyph unicode="u" horiz-adv-x="464" d="M470 346l-48 -346h-99l-18 45h-6q-36 -53 -109 -53q-71 0 -107.5 39t-26.5 108l29 207h144l-26 -186q-3 -23 7.5 -36.5t32.5 -13.5q21 0 36.5 11t18.5 30l28 195h144z" />
<glyph unicode="v" horiz-adv-x="425" d="M477 346l-213 -346h-103l-115 346h157l28 -141q4 -22 2 -34h7q2 11 12 34l68 141h157z" />
<glyph unicode="w" horiz-adv-x="612" d="M662 346l-203 -346h-88l-35 123q-6 25 -3 44h-6q-4 -22 -15 -44l-71 -123h-88l-105 346h157l23 -141q4 -22 2 -34h7q0 2 12 34l58 141h96l18 -141q4 -23 2 -34h7q2 14 12 34l63 141h157z" />
<glyph unicode="x" horiz-adv-x="438" d="M4 0l154 172l-105 174h160l42 -85h2l66 85h160l-155 -174l106 -172h-160l-42 86h-2l-66 -86h-160z" />
<glyph unicode="y" horiz-adv-x="418" d="M468 346l-316 -538l-152 -1l149 235l-101 304h157l28 -141q4 -22 2 -34h7q3 17 12 34l68 141h146z" />
<glyph unicode="z" horiz-adv-x="403" d="M371 0h-340l8 59l163 172h-137l17 115h338l-8 -51l-162 -180h137z" />
<glyph unicode="{" horiz-adv-x="314" d="M48 311h24q29 0 43.5 15.5t19.5 51.5l23 162q11 75 65.5 117.5t150.5 46.5l3 -119q-36 -6 -49.5 -15t-17.5 -37l-25 -177q-11 -75 -78 -94l-1 -9q29 -8 43 -33t9 -60l-25 -177q-4 -28 7 -37t45 -15l-36 -119q-96 4 -138.5 46.5t-31.5 117.5l23 162q5 36 -5.5 51.5 t-39.5 15.5h-24z" />
<glyph unicode="|" horiz-adv-x="245" d="M283 673l-116 -825h-131l116 825h131z" />
<glyph unicode="}" horiz-adv-x="314" d="M339 205h-24q-29 0 -44 -15.5t-20 -51.5l-23 -162q-11 -75 -65.5 -117.5t-150.5 -46.5l-3 119q36 6 49.5 15t17.5 37l25 177q5 35 26 60t52 33l2 9q-63 19 -52 94l25 177q4 28 -7.5 37t-45.5 15l37 119q95 -4 138 -46.5t32 -117.5l-23 -162q-5 -36 5 -51.5t39 -15.5h24z " />
<glyph unicode="~" horiz-adv-x="460" d="M349 337q20 0 40 6t29 12l10 6l30 -89q-5 -5 -15 -12t-42 -19t-65 -12q-28 0 -70.5 12t-72.5 12q-20 0 -40 -6t-30 -12l-10 -6l-29 89q5 5 15 12t41.5 19t64.5 12q28 0 71 -12t73 -12z" />
<glyph unicode="&#xa1;" horiz-adv-x="259" d="M217 45l-6 -45h-164l6 45l83 341h94zM118 514q0 39 29 67t68 28q32 0 52.5 -21.5t20.5 -53.5q0 -39 -29 -66.5t-68 -27.5q-32 0 -52.5 21t-20.5 53z" />
<glyph unicode="&#xa2;" horiz-adv-x="402" d="M166 -109l15 107q-59 14 -92.5 56t-33.5 98q0 71 48 125.5t126 70.5l15 107h96l-14 -104q26 -3 48.5 -10.5t31.5 -12.5l10 -6l-65 -110q-30 24 -67 24q-38 0 -60.5 -19.5t-22.5 -51.5q0 -25 17 -40t48 -15q16 0 34.5 5.5t29.5 10.5l10 6l34 -110q-38 -21 -98 -27 l-14 -104h-96z" />
<glyph unicode="&#xa3;" horiz-adv-x="528" d="M498 125l-18 -125h-418l18 125q6 2 15 6.5t26.5 27t21.5 54.5h-77l13 96h50q-7 35 -7 67q0 93 75.5 165t202.5 72q59 0 102.5 -18.5t57.5 -36.5l14 -18l-96 -108q-3 5 -9 11.5t-29.5 18t-51.5 11.5q-50 0 -78 -28.5t-28 -73.5q0 -19 9 -62h147l-13 -96h-127 q-10 -52 -44 -88h244z" />
<glyph unicode="&#xa4;" horiz-adv-x="579" d="M144 53l-79 90l69 60q-13 36 -13 71q0 66 38 121l-50 58l104 90l45 -62q50 24 101 24q54 0 95 -26l64 64l80 -90l-72 -62q13 -36 13 -69q0 -64 -37 -120l52 -59l-105 -90l-46 62q-48 -24 -102 -24q-53 0 -94 24zM253 289q0 -28 19 -47.5t47 -19.5q35 0 61.5 25.5 t26.5 59.5q0 28 -19 47.5t-48 19.5q-34 0 -60.5 -25.5t-26.5 -59.5z" />
<glyph unicode="&#xa5;" horiz-adv-x="641" d="M403 418l130 182h167l-208 -279h101l-13 -96h-157l-5 -39h156l-13 -96h-157l-12 -90h-145l12 90h-155l13 96h156l5 39h-155l13 96h101l-127 279h167l78 -182l12 -40h12z" />
<glyph unicode="&#xa6;" horiz-adv-x="245" d="M167 -152h-131l116 825h131z" />
<glyph unicode="&#xa7;" horiz-adv-x="550" d="M12 -121l95 111q8 -6 22 -16t53.5 -26t75.5 -16q43 0 63 16t20 39q0 22 -22 36.5t-66 30.5q-29 11 -46.5 18t-43.5 22t-40.5 30.5t-25.5 40.5t-11 54q0 77 52 119q-25 30 -25 73q0 88 65 145t188 57q69 0 121.5 -16t70.5 -32l18 -16l-94 -118q-6 6 -17 14t-46 22t-71 14 q-66 0 -66 -48q0 -35 66 -58q37 -13 52 -18.5t48.5 -22.5t49 -32t29.5 -41t14 -57q0 -85 -56 -135q27 -35 27 -73q0 -81 -70 -139t-198 -58q-45 0 -86 8t-66.5 20t-44.5 24t-27 20zM283 261q-14 4 -42 14q-10 -7 -10 -31q0 -48 88 -77q28 -9 61 -23q13 17 13 37 q0 29 -27.5 46t-82.5 34z" />
<glyph unicode="&#xa8;" horiz-adv-x="403" d="M110 476q0 29 24.5 52t52.5 23q25 0 42 -18t17 -43q0 -28 -24.5 -51t-53.5 -23q-24 0 -41 18t-17 42zM300 476q0 29 24.5 52t52.5 23q25 0 42 -18t17 -43q0 -28 -24.5 -51t-53.5 -23q-24 0 -41 18t-17 42z" />
<glyph unicode="&#xa9;" horiz-adv-x="708" d="M440 613q131 0 206 -77.5t75 -195.5q0 -146 -103.5 -249.5t-265.5 -103.5q-131 0 -205.5 77.5t-74.5 195.5q0 146 104 249.5t264 103.5zM429 537q-120 0 -198.5 -78.5t-78.5 -188.5q0 -89 56.5 -147.5t153.5 -58.5q122 0 201 78.5t79 187.5q0 90 -56.5 148.5t-156.5 58.5 zM522 418l-56 -65q-17 15 -50 15q-34 0 -56 -22t-22 -56q0 -26 16 -42t43 -16q15 0 28.5 3.5t19.5 6.5l6 4l38 -64q-38 -36 -110 -36q-65 0 -101.5 38t-36.5 96q0 72 50.5 123t130.5 51q32 0 57 -9t34 -18z" />
<glyph unicode="&#xaa;" horiz-adv-x="388" d="M71 354q0 51 41 81t105 30q53 0 81 -21l3 20q4 29 -13.5 41t-58.5 12q-36 0 -83 -20l-22 90q76 26 143 26q86 0 122.5 -41t25.5 -114l-25 -184h-87l-12 35h-3q-31 -43 -109 -43q-47 0 -77.5 24.5t-30.5 63.5zM185 368q0 -29 44 -29q24 0 41.5 9t17.5 26q0 13 -14.5 22.5 t-35.5 9.5q-53 0 -53 -38z" />
<glyph unicode="&#xab;" horiz-adv-x="476" d="M44 161l3 21l128 154h119l-2 -9l-122 -150l-1 -9l80 -152l-2 -9h-119zM254 161l3 21l128 154h119l-2 -9l-122 -150l-1 -9l80 -152l-2 -9h-119z" />
<glyph unicode="&#xac;" horiz-adv-x="569" d="M61 230l16 116h472l-48 -346h-118l32 230h-354z" />
<glyph unicode="&#xad;" horiz-adv-x="370" d="M70 229l16 116h294l-16 -116h-294z" />
<glyph unicode="&#xae;" horiz-adv-x="562" d="M577 409q0 -109 -78 -187.5t-199 -78.5q-97 0 -152.5 59t-55.5 147q0 109 77.5 188t197.5 79q98 0 154 -59t56 -148zM496 401q0 62 -39 100t-101 38q-77 0 -129.5 -48t-52.5 -133q0 -62 38 -100t99 -38q76 0 130.5 51t54.5 130zM259 485h100q36 0 57.5 -18t21.5 -49 q0 -46 -42 -71l29 -52l-2 -12h-64l-26 49h-35l-7 -49h-61zM349 430h-37l-7 -45h37q31 0 31 25q0 20 -24 20z" />
<glyph unicode="&#xaf;" horiz-adv-x="376" d="M114 438l12 85h286l-12 -85h-286z" />
<glyph unicode="&#xb0;" horiz-adv-x="276" d="M232 672q48 0 76 -27t28 -68q0 -50 -38.5 -85.5t-95.5 -35.5q-48 0 -76 27t-28 68q0 50 38.5 85.5t95.5 35.5zM223 603q-21 0 -33 -12.5t-12 -31.5q0 -32 34 -32q20 0 33 12.5t13 30.5q0 15 -9.5 24t-25.5 9z" />
<glyph unicode="&#xb1;" horiz-adv-x="515" d="M345 192h-118l20 141h-153l17 116h152l21 149h118l-21 -149h149l-17 -116h-148zM485 133l-16 -116h-419l16 116h419z" />
<glyph unicode="&#xb2;" horiz-adv-x="304" d="M71 342l3 21l140 144q29 30 29 50q0 29 -33 29q-32 0 -72 -32l-39 74q6 5 17.5 13.5t46.5 22t70 13.5q59 0 87.5 -26.5t28.5 -68.5q0 -49 -51 -103l-54 -56h99l-11 -81h-261z" />
<glyph unicode="&#xb3;" horiz-adv-x="309" d="M111 586l11 82h245l-2 -21l-71 -103q58 -16 58 -77q0 -57 -41.5 -95t-119.5 -38q-34 0 -64 10.5t-42 19.5t-19 16l58 71q32 -29 76 -29q52 0 52 34q0 25 -40 25h-48l3 23l57 82h-113z" />
<glyph unicode="&#xb4;" horiz-adv-x="247" d="M301 555l-118 -136h-92l3 22l47 136h163z" />
<glyph unicode="&#xb5;" horiz-adv-x="515" d="M178 -192h-143l75 538h144l-26 -186q-3 -23 7.5 -36.5t32.5 -13.5q21 0 36.5 11t18.5 30l28 195h144l-48 -346h-99l-18 45h-6q-36 -53 -109 -53q-2 0 -6 0.5t-5 0.5z" />
<glyph unicode="&#xb6;" horiz-adv-x="506" d="M260 -133l34 239h-11q-98 0 -157 46t-59 130q0 103 72 163t191 60h165l-90 -638h-145z" />
<glyph unicode="&#xb7;" horiz-adv-x="223" d="M76 347q0 39 29 67t68 28q32 0 53 -21.5t21 -53.5q0 -38 -29.5 -66t-68.5 -28q-31 0 -52 21t-21 53z" />
<glyph unicode="&#xb8;" horiz-adv-x="216" d="M66 -79l-19 26l33 56h65l-17 -33q25 0 40 -15t15 -41q0 -38 -27 -62.5t-75 -24.5q-29 0 -51 9.5t-30 19.5l-8 9l35 48q20 -24 58 -24q32 0 32 22q0 17 -23 17q-8 0 -15 -2t-10 -4z" />
<glyph unicode="&#xb9;" horiz-adv-x="216" d="M96 586l12 82h159l-46 -326h-94l34 244h-65z" />
<glyph unicode="&#xba;" horiz-adv-x="394" d="M283 613q68 0 110.5 -41.5t42.5 -110.5q0 -85 -59 -140t-143 -55q-69 0 -111.5 40.5t-42.5 107.5q0 88 58.5 143.5t144.5 55.5zM269 515q-34 0 -54.5 -25.5t-20.5 -63.5q0 -27 14 -44t40 -17q34 0 53.5 25t19.5 63q0 28 -13.5 45t-38.5 17z" />
<glyph unicode="&#xbb;" horiz-adv-x="476" d="M271 182l-3 -21l-128 -154h-119l1 9l123 152l1 9l-80 150l1 9h119zM481 182l-3 -21l-128 -154h-119l1 9l123 152l1 9l-80 150l1 9h119z" />
<glyph unicode="&#xbc;" horiz-adv-x="650" d="M117 -7l-60 56l548 564l61 -56zM323 67l8 60l216 199h71l-26 -183h50l-10 -76h-51l-9 -67h-90l9 67h-168zM103 518l11 82h159l-45 -326h-94l33 244h-64zM443 143v-2l27 2h32l6 43l4 21h-2l-46 -48z" />
<glyph unicode="&#xbd;" horiz-adv-x="721" d="M114 -7l-60 56l548 564l61 -56zM435 21l-3 -21h261l11 81h-99l54 56q51 54 51 103q0 42 -28.5 68.5t-87.5 26.5q-35 0 -68.5 -12.5t-49.5 -24.5l-16 -12l39 -74q40 32 72 32q33 0 33 -29q0 -20 -29 -50zM106 518l11 82h159l-45 -326h-94l33 244h-64z" />
<glyph unicode="&#xbe;" horiz-adv-x="731" d="M196 -7l-60 56l548 564l61 -56zM118 518l11 82h245l-2 -21l-71 -103q58 -16 58 -77q0 -57 -42 -95t-119 -38q-34 0 -64 10.5t-42 19.5t-19 16l58 71q32 -29 76 -29q52 0 52 34q0 25 -40 25h-48l3 23l57 82h-113zM401 60l8 60l216 199h71l-26 -183h50l-10 -76h-51l-8 -60 h-90l8 60h-168zM521 136v-2l27 2h32l6 43l4 21h-2l-46 -48z" />
<glyph unicode="&#xbf;" horiz-adv-x="400" d="M344 132l33 -110q-64 -30 -162 -30q-77 0 -119.5 38t-42.5 96q0 43 15.5 75.5t38.5 52.5t47 37t44.5 39t27.5 49l5 19h94l-4 -30q-4 -33 -23.5 -62.5t-40.5 -47.5t-37.5 -42.5t-16.5 -50.5t17 -40.5t45 -14.5q19 0 39 5.5t30 10.5zM376 541q0 -36 -28 -62.5t-65 -26.5 q-31 0 -50.5 20t-19.5 50q0 37 27.5 64t65.5 27q31 0 50.5 -20.5t19.5 -51.5z" />
<glyph unicode="&#xc0;" horiz-adv-x="622" d="M351 638l-80 136l3 22h163l9 -136l-3 -22h-92zM-15 0l398 600h24l231 -600h-164l-23 71h-261l-42 -71h-163zM414 184l-52 166h-5l-99 -166l-9 -11h170z" />
<glyph unicode="&#xc1;" horiz-adv-x="622" d="M-15 0l398 600h24l231 -600h-164l-23 71h-261l-42 -71h-163zM414 184l-52 166h-5l-99 -166l-9 -11h170zM562 774l-118 -136h-92l3 22l47 136h163z" />
<glyph unicode="&#xc2;" horiz-adv-x="622" d="M-15 0l398 600h24l231 -600h-164l-23 71h-261l-42 -71h-163zM414 184l-52 166h-5l-99 -166l-9 -11h170zM459 638l-50 71l-71 -71h-92l3 22l97 136h149l59 -136l-3 -22h-92z" />
<glyph unicode="&#xc3;" horiz-adv-x="622" d="M-15 0l398 600h24l231 -600h-164l-23 71h-261l-42 -71h-163zM414 184l-52 166h-5l-99 -166l-9 -11h170zM470 628q-33 0 -69 18t-49 18q-21 0 -31 -25l-6 -16l-100 9l11 37q15 48 46.5 75t76.5 27q33 0 68.5 -18t48.5 -18q22 0 32 25l6 16l100 -9l-11 -37 q-15 -48 -46.5 -75t-76.5 -27z" />
<glyph unicode="&#xc4;" horiz-adv-x="622" d="M-15 0l398 600h24l231 -600h-164l-23 71h-261l-42 -71h-163zM414 184l-52 166h-5l-99 -166l-9 -11h170zM247 730q0 29 24.5 52t52.5 23q25 0 42 -18t17 -43q0 -28 -24.5 -51t-53.5 -23q-24 0 -41 18t-17 42zM437 730q0 29 24.5 52t52.5 23q25 0 42 -18t17 -43 q0 -28 -24.5 -51t-53.5 -23q-24 0 -41 18t-17 42z" />
<glyph unicode="&#xc5;" horiz-adv-x="624" d="M-15 0l356 536q-26 11 -41.5 34.5t-15.5 54.5q0 49 39 85t91 36q44 0 72 -27.5t28 -69.5q0 -37 -23.5 -68t-59.5 -45l207 -536h-164l-23 71h-261l-42 -71h-163zM414 184l-52 166h-5l-99 -166l-9 -11h170zM426 641q0 23 -23 23q-13 0 -21.5 -8.5t-8.5 -21.5q0 -23 22 -23 q13 0 22 8.5t9 21.5z" />
<glyph unicode="&#xc6;" horiz-adv-x="929" d="M-23 0l503 600h499l-17 -125h-333l-17 -121h265l-16 -114h-265l-16 -115h333l-18 -125h-477l10 71h-214l-55 -71h-182zM467 399l-174 -226h149l33 226h-8z" />
<glyph unicode="&#xc7;" horiz-adv-x="578" d="M507 171l68 -111q-8 -7 -23 -18t-67.5 -31t-110.5 -23l-9 -18q25 0 40 -15t15 -41q0 -38 -27 -62.5t-75 -24.5q-29 0 -51 9.5t-30 19.5l-8 9l35 48q20 -24 58 -24q32 0 32 22q0 17 -23 17q-8 0 -15 -2t-10 -4l-3 -1l-19 26l25 43q-113 12 -176.5 87t-63.5 183 q0 146 104 249.5t266 103.5q66 0 116.5 -18.5t68.5 -36.5l18 -18l-98 -111q-56 45 -123 45q-86 0 -143.5 -56t-57.5 -142q0 -68 41.5 -109t110.5 -41q38 0 71.5 11t48.5 23z" />
<glyph unicode="&#xc8;" horiz-adv-x="577" d="M355 637l-80 136l3 22h163l9 -136l-3 -22h-92zM66 0l84 600h477l-17 -125h-333l-16 -118h264l-16 -114h-264l-17 -118h333l-18 -125h-477z" />
<glyph unicode="&#xc9;" horiz-adv-x="577" d="M66 0l84 600h477l-17 -125h-333l-16 -118h264l-16 -114h-264l-17 -118h333l-18 -125h-477zM543 774l-118 -136h-92l3 22l47 136h163z" />
<glyph unicode="&#xca;" horiz-adv-x="577" d="M66 0l84 600h477l-17 -125h-333l-16 -118h264l-16 -114h-264l-17 -118h333l-18 -125h-477zM454 638l-50 71l-71 -71h-92l3 22l97 136h149l59 -136l-3 -22h-92z" />
<glyph unicode="&#xcb;" horiz-adv-x="577" d="M240 698q0 29 24.5 52t52.5 23q25 0 42 -18t17 -43q0 -28 -24.5 -51t-53.5 -23q-24 0 -41 18t-17 42zM430 698q0 29 24.5 52t52.5 23q25 0 42 -18t17 -43q0 -28 -24.5 -51t-53.5 -23q-24 0 -41 18t-17 42zM66 0l84 600h477l-17 -125h-333l-16 -118h264l-16 -114h-264 l-17 -118h333l-18 -125h-477z" />
<glyph unicode="&#xcc;" horiz-adv-x="277" d="M181 637l-80 136l3 22h163l9 -136l-3 -22h-92zM295 600l-84 -600h-145l84 600h145z" />
<glyph unicode="&#xcd;" horiz-adv-x="277" d="M295 600l-84 -600h-145l84 600h145zM393 774l-118 -136h-92l3 22l47 136h163z" />
<glyph unicode="&#xce;" horiz-adv-x="277" d="M295 600l-84 -600h-145l84 600h145zM291 638l-50 71l-71 -71h-92l3 22l97 136h149l59 -136l-3 -22h-92z" />
<glyph unicode="&#xcf;" horiz-adv-x="277" d="M69 698q0 29 24.5 52t52.5 23q25 0 42 -18t17 -43q0 -28 -24.5 -51t-53.5 -23q-24 0 -41 18t-17 42zM259 698q0 29 24.5 52t52.5 23q25 0 42 -18t17 -43q0 -28 -24.5 -51t-53.5 -23q-24 0 -41 18t-17 42zM295 600l-84 -600h-145l84 600h145z" />
<glyph unicode="&#xd0;" horiz-adv-x="671" d="M42 263l10 73h68l37 264h249q132 0 206 -72t74 -188q0 -145 -100.5 -242.5t-263.5 -97.5h-249l37 263h-68zM378 475h-94l-20 -139h88l-10 -73h-88l-19 -138h94q90 0 148 53t58 149q0 72 -42.5 110t-114.5 38z" />
<glyph unicode="&#xd1;" horiz-adv-x="697" d="M715 599l-84 -599h-33l-342 331l-46 -331h-144l84 600h33l343 -318l45 317h144zM504 643q-33 0 -69 18t-49 18q-21 0 -31 -25l-6 -16l-100 9l11 37q15 48 46.5 75t76.5 27q33 0 68.5 -18t48.5 -18q22 0 32 25l6 16l100 -9l-11 -37q-15 -48 -46.5 -75t-76.5 -27z" />
<glyph unicode="&#xd2;" horiz-adv-x="702" d="M389 638l-80 136l3 22h163l9 -136l-3 -22h-92zM349 -13q-131 0 -205.5 77.5t-74.5 195.5q0 146 103.5 249.5t264.5 103.5q131 0 206 -77.5t75 -195.5q0 -146 -103.5 -249.5t-265.5 -103.5zM368 127q82 0 140.5 55.5t58.5 140.5q0 67 -42 108.5t-108 41.5 q-81 0 -139 -55.5t-58 -140.5q0 -67 41.5 -108.5t106.5 -41.5z" />
<glyph unicode="&#xd3;" horiz-adv-x="702" d="M349 -13q-131 0 -205.5 77.5t-74.5 195.5q0 146 103.5 249.5t264.5 103.5q131 0 206 -77.5t75 -195.5q0 -146 -103.5 -249.5t-265.5 -103.5zM368 127q82 0 140.5 55.5t58.5 140.5q0 67 -42 108.5t-108 41.5q-81 0 -139 -55.5t-58 -140.5q0 -67 41.5 -108.5t106.5 -41.5z M604 774l-118 -136h-92l3 22l47 136h163z" />
<glyph unicode="&#xd4;" horiz-adv-x="702" d="M349 -13q-131 0 -205.5 77.5t-74.5 195.5q0 146 103.5 249.5t264.5 103.5q131 0 206 -77.5t75 -195.5q0 -146 -103.5 -249.5t-265.5 -103.5zM368 127q82 0 140.5 55.5t58.5 140.5q0 67 -42 108.5t-108 41.5q-81 0 -139 -55.5t-58 -140.5q0 -67 41.5 -108.5t106.5 -41.5z M496 638l-50 71l-71 -71h-92l3 22l97 136h149l59 -136l-3 -22h-92z" />
<glyph unicode="&#xd5;" horiz-adv-x="702" d="M349 -13q-131 0 -205.5 77.5t-74.5 195.5q0 146 103.5 249.5t264.5 103.5q131 0 206 -77.5t75 -195.5q0 -146 -103.5 -249.5t-265.5 -103.5zM368 127q82 0 140.5 55.5t58.5 140.5q0 67 -42 108.5t-108 41.5q-81 0 -139 -55.5t-58 -140.5q0 -67 41.5 -108.5t106.5 -41.5z M507 642q-33 0 -69 18t-49 18q-21 0 -31 -25l-6 -16l-100 9l11 37q15 48 46.5 75t76.5 27q33 0 68.5 -18t48.5 -18q22 0 32 25l6 16l100 -9l-11 -37q-15 -48 -46.5 -75t-76.5 -27z" />
<glyph unicode="&#xd6;" horiz-adv-x="702" d="M281 697q0 29 24.5 52t52.5 23q25 0 42 -18t17 -43q0 -28 -24.5 -51t-53.5 -23q-24 0 -41 18t-17 42zM471 697q0 29 24.5 52t52.5 23q25 0 42 -18t17 -43q0 -28 -24.5 -51t-53.5 -23q-24 0 -41 18t-17 42zM349 -13q-131 0 -205.5 77.5t-74.5 195.5q0 146 103.5 249.5 t264.5 103.5q131 0 206 -77.5t75 -195.5q0 -146 -103.5 -249.5t-265.5 -103.5zM368 127q82 0 140.5 55.5t58.5 140.5q0 67 -42 108.5t-108 41.5q-81 0 -139 -55.5t-58 -140.5q0 -67 41.5 -108.5t106.5 -41.5z" />
<glyph unicode="&#xd7;" horiz-adv-x="512" d="M131 85l-70 81l156 137l-117 137l92 81l118 -137l156 137l70 -81l-157 -137l118 -137l-92 -81l-118 137z" />
<glyph unicode="&#xd8;" horiz-adv-x="700" d="M349 -13q-117 0 -193 66l-71 -61l-43 51l70 60q-43 65 -43 157q0 146 103.5 249.5t264.5 103.5q116 0 192 -65l60 52l43 -51l-59 -51q45 -66 45 -158q0 -146 -103.5 -249.5t-265.5 -103.5zM368 127q82 0 140.5 55.5t58.5 140.5q0 38 -16 70l-276 -237q38 -29 93 -29z M220 277q0 -38 14 -69l275 237q-39 28 -92 28q-81 0 -139 -55.5t-58 -140.5z" />
<glyph unicode="&#xd9;" horiz-adv-x="665" d="M374 638l-80 136l3 22h163l9 -136l-3 -22h-92zM332 -13q-125 0 -190 77t-48 195l48 341h145l-48 -341q-8 -55 20.5 -93.5t91.5 -38.5q64 0 102.5 37.5t46.5 94.5l48 341h145l-48 -341q-17 -119 -102 -195.5t-211 -76.5z" />
<glyph unicode="&#xda;" horiz-adv-x="665" d="M332 -13q-125 0 -190 77t-48 195l48 341h145l-48 -341q-8 -55 20.5 -93.5t91.5 -38.5q64 0 102.5 37.5t46.5 94.5l48 341h145l-48 -341q-17 -119 -102 -195.5t-211 -76.5zM588 774l-118 -136h-92l3 22l47 136h163z" />
<glyph unicode="&#xdb;" horiz-adv-x="665" d="M332 -13q-125 0 -190 77t-48 195l48 341h145l-48 -341q-8 -55 20.5 -93.5t91.5 -38.5q64 0 102.5 37.5t46.5 94.5l48 341h145l-48 -341q-17 -119 -102 -195.5t-211 -76.5zM482 638l-50 71l-71 -71h-92l3 22l97 136h149l59 -136l-3 -22h-92z" />
<glyph unicode="&#xdc;" horiz-adv-x="665" d="M268 699q0 29 24.5 52t52.5 23q25 0 42 -18t17 -43q0 -28 -24.5 -51t-53.5 -23q-24 0 -41 18t-17 42zM458 699q0 29 24.5 52t52.5 23q25 0 42 -18t17 -43q0 -28 -24.5 -51t-53.5 -23q-24 0 -41 18t-17 42zM332 -13q-125 0 -190 77t-48 195l48 341h145l-48 -341 q-8 -55 20.5 -93.5t91.5 -38.5q64 0 102.5 37.5t46.5 94.5l48 341h145l-48 -341q-17 -119 -102 -195.5t-211 -76.5z" />
<glyph unicode="&#xdd;" horiz-adv-x="572" d="M369 418l130 182h167l-276 -370l-32 -230h-145l32 229l-169 371h167l78 -182l12 -40h12zM544 774l-118 -136h-92l3 22l47 136h163z" />
<glyph unicode="&#xde;" horiz-adv-x="616" d="M295 600l-13 -88h140q103 0 162 -48t59 -133q0 -115 -82 -179.5t-209 -64.5h-129l-12 -87h-145l84 600h145zM491 310q0 77 -94 77h-132l-25 -180h133q57 0 87.5 26.5t30.5 76.5z" />
<glyph unicode="&#xdf;" horiz-adv-x="522" d="M298 93h-56l5 34l73 108h-100l-33 -235h-145l60 428q29 204 228 204q22 0 42 -3t30 -7l9 -3l-53 -123q-15 5 -33 5q-67 0 -76 -62l-13 -93h295l-4 -24l-100 -147q78 -25 78 -108q0 -82 -59 -127.5t-155 -45.5q-31 0 -59 4t-40 8l-12 5l45 101q36 -12 59 -12q30 0 47 15.5 t17 39.5q0 38 -50 38z" />
<glyph unicode="&#xe0;" horiz-adv-x="426" d="M34 85q0 55 42 86t113 31q31 0 52 -5t27 -11l5 -5h6l2 13q4 25 -15 36t-58 11q-21 0 -44.5 -5.5t-36.5 -11.5l-13 -5l-27 104q75 31 163 31q96 0 137 -43.5t30 -121.5l-27 -189h-105l-10 34h-6q-29 -42 -114 -42q-54 0 -87.5 26t-33.5 67zM172 106q0 -28 41 -28 q25 0 39 10t14 25q0 28 -44 28q-50 0 -50 -35zM222 419l-80 136l3 22h163l9 -136l-3 -22h-92z" />
<glyph unicode="&#xe1;" horiz-adv-x="426" d="M34 85q0 55 42 86t113 31q31 0 52 -5t27 -11l5 -5h6l2 13q4 25 -15 36t-58 11q-21 0 -44.5 -5.5t-36.5 -11.5l-13 -5l-27 104q75 31 163 31q96 0 137 -43.5t30 -121.5l-27 -189h-105l-10 34h-6q-29 -42 -114 -42q-54 0 -87.5 26t-33.5 67zM172 106q0 -28 41 -28 q25 0 39 10t14 25q0 28 -44 28q-50 0 -50 -35zM438 555l-118 -136h-92l3 22l47 136h163z" />
<glyph unicode="&#xe2;" horiz-adv-x="426" d="M34 85q0 55 42 86t113 31q31 0 52 -5t27 -11l5 -5h6l2 13q4 25 -15 36t-58 11q-21 0 -44.5 -5.5t-36.5 -11.5l-13 -5l-27 104q75 31 163 31q96 0 137 -43.5t30 -121.5l-27 -189h-105l-10 34h-6q-29 -42 -114 -42q-54 0 -87.5 26t-33.5 67zM172 106q0 -28 41 -28 q25 0 39 10t14 25q0 28 -44 28q-50 0 -50 -35zM325 419l-50 71l-71 -71h-92l3 22l97 136h149l59 -136l-3 -22h-92z" />
<glyph unicode="&#xe3;" horiz-adv-x="426" d="M34 85q0 55 42 86t113 31q31 0 52 -5t27 -11l5 -5h6l2 13q4 25 -15 36t-58 11q-21 0 -44.5 -5.5t-36.5 -11.5l-13 -5l-27 104q75 31 163 31q96 0 137 -43.5t30 -121.5l-27 -189h-105l-10 34h-6q-29 -42 -114 -42q-54 0 -87.5 26t-33.5 67zM172 106q0 -28 41 -28 q25 0 39 10t14 25q0 28 -44 28q-50 0 -50 -35zM342 422q-33 0 -69 18t-49 18q-21 0 -31 -25l-6 -16l-100 9l11 37q15 48 46.5 75t76.5 27q33 0 68.5 -18t48.5 -18q22 0 32 25l6 16l100 -9l-11 -37q-15 -48 -46.5 -75t-76.5 -27z" />
<glyph unicode="&#xe4;" horiz-adv-x="426" d="M34 85q0 55 42 86t113 31q31 0 52 -5t27 -11l5 -5h6l2 13q4 25 -15 36t-58 11q-21 0 -44.5 -5.5t-36.5 -11.5l-13 -5l-27 104q75 31 163 31q96 0 137 -43.5t30 -121.5l-27 -189h-105l-10 34h-6q-29 -42 -114 -42q-54 0 -87.5 26t-33.5 67zM172 106q0 -28 41 -28 q25 0 39 10t14 25q0 28 -44 28q-50 0 -50 -35zM124 476q0 29 24.5 52t52.5 23q25 0 42 -18t17 -43q0 -28 -24.5 -51t-53.5 -23q-24 0 -41 18t-17 42zM314 476q0 29 24.5 52t52.5 23q25 0 42 -18t17 -43q0 -28 -24.5 -51t-53.5 -23q-24 0 -41 18t-17 42z" />
<glyph unicode="&#xe5;" horiz-adv-x="426" d="M34 85q0 55 42 86t113 31q31 0 52 -5t27 -11l5 -5h6l2 13q4 25 -15 36t-58 11q-21 0 -44.5 -5.5t-36.5 -11.5l-13 -5l-27 104q75 31 163 31q96 0 137 -43.5t30 -121.5l-27 -189h-105l-10 34h-6q-29 -42 -114 -42q-54 0 -87.5 26t-33.5 67zM172 106q0 -28 41 -28 q25 0 39 10t14 25q0 28 -44 28q-50 0 -50 -35zM274 412q-44 0 -72 27.5t-28 69.5q0 49 39 85t91 36q44 0 72 -27.5t28 -69.5q0 -49 -39 -85t-91 -36zM316 525q0 23 -23 23q-13 0 -21.5 -8.5t-8.5 -21.5q0 -23 22 -23q13 0 22 8.5t9 21.5z" />
<glyph unicode="&#xe6;" horiz-adv-x="650" d="M276 181h8l2 13q7 47 -78 47q-21 0 -44.5 -5.5t-36.5 -11.5l-13 -5l-27 104q75 31 163 31q81 0 125 -33q57 33 124 33q73 0 115.5 -41.5t42.5 -112.5q0 -15 -2.5 -29t-4.5 -21l-2 -7h-231q10 -45 66 -45q24 0 46 6t33 12l10 5l31 -94q-7 -4 -19.5 -10.5t-55 -17 t-88.5 -10.5q-70 0 -113 38q-54 -35 -137 -35q-80 0 -118 26.5t-38 70.5q0 53 42.5 83t112.5 30q31 0 53 -5t28 -11zM172 105q0 -30 42 -30q27 0 41.5 10.5t14.5 26.5q0 29 -46 29q-26 0 -39 -10.5t-13 -25.5zM485 258q-50 0 -65 -52h108q4 25 -8 38.5t-35 13.5z" />
<glyph unicode="&#xe7;" horiz-adv-x="357" d="M180 -79l-19 26l28 48q-67 10 -105.5 53.5t-38.5 103.5q0 84 65.5 143t166.5 59q35 0 62.5 -7t37.5 -14l10 -7l-55 -106q-21 16 -58 16q-38 0 -60.5 -19.5t-22.5 -51.5q0 -25 17 -40t48 -15q16 0 32 4t24 8l7 4l22 -105q-29 -22 -87 -28l-12 -23q25 0 40 -15t15 -41 q0 -38 -27 -62.5t-75 -24.5q-29 0 -51 9.5t-30 19.5l-8 9l35 48q20 -24 58 -24q32 0 32 22q0 17 -23 17q-8 0 -15 -2t-10 -4z" />
<glyph unicode="&#xe8;" horiz-adv-x="414" d="M336 117l33 -88q-5 -4 -15.5 -11t-47 -18t-77.5 -11q-87 0 -135.5 46.5t-48.5 115.5q0 86 63.5 144.5t155.5 58.5q74 0 115.5 -41t41.5 -113l-7 -53h-231q7 -49 68 -49q24 0 45 5t30 9zM248 253q-43 0 -59 -43h101q2 18 -9.5 30.5t-32.5 12.5zM229 419l-80 136l3 22h163 l9 -136l-3 -22h-92z" />
<glyph unicode="&#xe9;" horiz-adv-x="414" d="M336 117l33 -88q-5 -4 -15.5 -11t-47 -18t-77.5 -11q-87 0 -135.5 46.5t-48.5 115.5q0 86 63.5 144.5t155.5 58.5q74 0 115.5 -41t41.5 -113l-7 -53h-231q7 -49 68 -49q24 0 45 5t30 9zM248 253q-43 0 -59 -43h101q2 18 -9.5 30.5t-32.5 12.5zM416 555l-118 -136h-92 l3 22l47 136h163z" />
<glyph unicode="&#xea;" horiz-adv-x="414" d="M336 117l33 -88q-5 -4 -15.5 -11t-47 -18t-77.5 -11q-87 0 -135.5 46.5t-48.5 115.5q0 86 63.5 144.5t155.5 58.5q74 0 115.5 -41t41.5 -113l-7 -53h-231q7 -49 68 -49q24 0 45 5t30 9zM248 253q-43 0 -59 -43h101q2 18 -9.5 30.5t-32.5 12.5zM332 419l-50 71l-71 -71 h-92l3 22l97 136h149l59 -136l-3 -22h-92z" />
<glyph unicode="&#xeb;" horiz-adv-x="414" d="M336 117l33 -88q-5 -4 -15.5 -11t-47 -18t-77.5 -11q-87 0 -135.5 46.5t-48.5 115.5q0 86 63.5 144.5t155.5 58.5q74 0 115.5 -41t41.5 -113l-7 -53h-231q7 -49 68 -49q24 0 45 5t30 9zM248 253q-43 0 -59 -43h101q2 18 -9.5 30.5t-32.5 12.5zM122 476q0 29 24.5 52 t52.5 23q25 0 42 -18t17 -43q0 -28 -24.5 -51t-53.5 -23q-24 0 -41 18t-17 42zM312 476q0 29 24.5 52t52.5 23q25 0 42 -18t17 -43q0 -28 -24.5 -51t-53.5 -23q-24 0 -41 18t-17 42z" />
<glyph unicode="&#xec;" horiz-adv-x="226" d="M41 0l49 346h144l-49 -346h-144zM123 419l-80 136l3 22h163l9 -136l-3 -22h-92z" />
<glyph unicode="&#xed;" horiz-adv-x="226" d="M41 0l49 346h144l-49 -346h-144zM333 555l-118 -136h-92l3 22l47 136h163z" />
<glyph unicode="&#xee;" horiz-adv-x="226" d="M41 0l49 346h144l-49 -346h-144zM236 419l-50 71l-71 -71h-92l3 22l97 136h149l59 -136l-3 -22h-92z" />
<glyph unicode="&#xef;" horiz-adv-x="226" d="M41 0l49 346h144l-49 -346h-144zM19 476q0 29 24.5 52t52.5 23q25 0 42 -18t17 -43q0 -28 -24.5 -51t-53.5 -23q-24 0 -41 18t-17 42zM209 476q0 29 24.5 52t52.5 23q25 0 42 -18t17 -43q0 -28 -24.5 -51t-53.5 -23q-24 0 -41 18t-17 42z" />
<glyph unicode="&#xf0;" horiz-adv-x="456" d="M155 366l-33 76l87 46l-40 97l2 15h135l22 -50l91 48l33 -76l-90 -48l61 -136q34 -75 35 -129q0 -99 -64.5 -158t-167.5 -59q-82 0 -131.5 42t-49.5 115q0 86 63.5 143t157.5 62v11q-7 7 -17 29l-8 17zM242 110q29 0 48.5 17t19.5 53q0 56 -50 56q-31 0 -50 -20t-19 -52 q0 -24 13.5 -39t37.5 -15z" />
<glyph unicode="&#xf1;" horiz-adv-x="464" d="M212 187l-26 -187h-144l49 346h86l17 -45h6q48 53 122 53q71 0 107.5 -39t26.5 -108l-29 -207h-144l26 186q3 23 -7.5 36.5t-32.5 13.5t-38 -13.5t-19 -35.5zM365 422q-33 0 -69 18t-49 18q-21 0 -31 -25l-6 -16l-100 9l11 37q15 48 46.5 75t76.5 27q33 0 68.5 -18 t48.5 -18q22 0 32 25l6 16l100 -9l-11 -37q-15 -48 -46.5 -75t-76.5 -27z" />
<glyph unicode="&#xf2;" d="M448 193q0 -88 -67.5 -144.5t-159.5 -56.5q-77 0 -127 44t-50 114q0 89 67.5 146.5t160.5 57.5q76 0 126 -44.5t50 -116.5zM237 105q33 0 51.5 22.5t18.5 57.5q0 26 -13 41t-38 15q-33 0 -52 -22.5t-19 -57.5q0 -25 13.5 -40.5t38.5 -15.5zM221 419l-80 136l3 22h163 l9 -136l-3 -22h-92z" />
<glyph unicode="&#xf3;" d="M448 193q0 -88 -67.5 -144.5t-159.5 -56.5q-77 0 -127 44t-50 114q0 89 67.5 146.5t160.5 57.5q76 0 126 -44.5t50 -116.5zM237 105q33 0 51.5 22.5t18.5 57.5q0 26 -13 41t-38 15q-33 0 -52 -22.5t-19 -57.5q0 -25 13.5 -40.5t38.5 -15.5zM440 555l-118 -136h-92l3 22 l47 136h163z" />
<glyph unicode="&#xf4;" d="M448 193q0 -88 -67.5 -144.5t-159.5 -56.5q-77 0 -127 44t-50 114q0 89 67.5 146.5t160.5 57.5q76 0 126 -44.5t50 -116.5zM237 105q33 0 51.5 22.5t18.5 57.5q0 26 -13 41t-38 15q-33 0 -52 -22.5t-19 -57.5q0 -25 13.5 -40.5t38.5 -15.5zM341 419l-50 71l-71 -71h-92 l3 22l97 136h149l59 -136l-3 -22h-92z" />
<glyph unicode="&#xf5;" d="M448 193q0 -88 -67.5 -144.5t-159.5 -56.5q-77 0 -127 44t-50 114q0 89 67.5 146.5t160.5 57.5q76 0 126 -44.5t50 -116.5zM237 105q33 0 51.5 22.5t18.5 57.5q0 26 -13 41t-38 15q-33 0 -52 -22.5t-19 -57.5q0 -25 13.5 -40.5t38.5 -15.5zM342 422q-33 0 -69 18t-49 18 q-21 0 -31 -25l-6 -16l-100 9l11 37q15 48 46.5 75t76.5 27q33 0 68.5 -18t48.5 -18q22 0 32 25l6 16l100 -9l-11 -37q-15 -48 -46.5 -75t-76.5 -27z" />
<glyph unicode="&#xf6;" d="M448 193q0 -88 -67.5 -144.5t-159.5 -56.5q-77 0 -127 44t-50 114q0 89 67.5 146.5t160.5 57.5q76 0 126 -44.5t50 -116.5zM237 105q33 0 51.5 22.5t18.5 57.5q0 26 -13 41t-38 15q-33 0 -52 -22.5t-19 -57.5q0 -25 13.5 -40.5t38.5 -15.5zM126 476q0 29 24.5 52t52.5 23 q25 0 42 -18t17 -43q0 -28 -24.5 -51t-53.5 -23q-24 0 -41 18t-17 42zM316 476q0 29 24.5 52t52.5 23q25 0 42 -18t17 -43q0 -28 -24.5 -51t-53.5 -23q-24 0 -41 18t-17 42z" />
<glyph unicode="&#xf7;" horiz-adv-x="481" d="M171 97q0 39 28.5 67t67.5 28q32 0 53 -21.5t21 -53.5q0 -39 -29 -66.5t-68 -27.5q-32 0 -52.5 21t-20.5 53zM224 476q0 39 29 67t68 28q32 0 53 -21.5t21 -53.5q0 -38 -29.5 -66t-68.5 -28q-32 0 -52.5 21t-20.5 53zM65 239l16 116h419l-16 -116h-419z" />
<glyph unicode="&#xf8;" d="M448 193q0 -88 -67.5 -144.5t-159.5 -56.5q-61 0 -106 28l-42 -38l-39 46l38 32q-28 37 -28 90q0 89 67.5 146.5t160.5 57.5q58 0 103 -28l49 46l39 -46l-45 -38q30 -41 30 -95zM237 105q33 0 51.5 22.5t18.5 57.5q0 1 -0.5 3.5t-0.5 3.5l-93 -82q12 -5 24 -5zM185 161 v-4l92 80q-8 4 -21 4q-33 0 -52 -22.5t-19 -57.5z" />
<glyph unicode="&#xf9;" horiz-adv-x="464" d="M470 346l-48 -346h-99l-18 45h-6q-36 -53 -109 -53q-71 0 -107.5 39t-26.5 108l29 207h144l-26 -186q-3 -23 7.5 -36.5t32.5 -13.5q21 0 36.5 11t18.5 30l28 195h144zM239 419l-80 136l3 22h163l9 -136l-3 -22h-92z" />
<glyph unicode="&#xfa;" horiz-adv-x="464" d="M470 346l-48 -346h-99l-18 45h-6q-36 -53 -109 -53q-71 0 -107.5 39t-26.5 108l29 207h144l-26 -186q-3 -23 7.5 -36.5t32.5 -13.5q21 0 36.5 11t18.5 30l28 195h144zM453 555l-118 -136h-92l3 22l47 136h163z" />
<glyph unicode="&#xfb;" horiz-adv-x="464" d="M470 346l-48 -346h-99l-18 45h-6q-36 -53 -109 -53q-71 0 -107.5 39t-26.5 108l29 207h144l-26 -186q-3 -23 7.5 -36.5t32.5 -13.5q21 0 36.5 11t18.5 30l28 195h144zM351 419l-50 71l-71 -71h-92l3 22l97 136h149l59 -136l-3 -22h-92z" />
<glyph unicode="&#xfc;" horiz-adv-x="464" d="M470 346l-48 -346h-99l-18 45h-6q-36 -53 -109 -53q-71 0 -107.5 39t-26.5 108l29 207h144l-26 -186q-3 -23 7.5 -36.5t32.5 -13.5q21 0 36.5 11t18.5 30l28 195h144zM143 476q0 29 24.5 52t52.5 23q25 0 42 -18t17 -43q0 -28 -24.5 -51t-53.5 -23q-24 0 -41 18t-17 42z M333 476q0 29 24.5 52t52.5 23q25 0 42 -18t17 -43q0 -28 -24.5 -51t-53.5 -23q-24 0 -41 18t-17 42z" />
<glyph unicode="&#xfd;" horiz-adv-x="419" d="M468 346l-316 -538l-152 -1l149 235l-101 304h157l28 -141q4 -22 2 -34h7q3 17 12 34l68 141h146zM443 555l-118 -136h-92l3 22l47 136h163z" />
<glyph unicode="&#xfe;" horiz-adv-x="466" d="M194 25h-6l-30 -217h-144l111 792h144l-38 -274h5q29 28 88 28q66 0 105 -40.5t39 -110.5q0 -91 -57 -151t-138 -60q-28 0 -48 8t-25 16zM201 162q0 -24 13 -38t38 -14q31 0 50 20t19 52q0 24 -13.5 39t-37.5 15q-32 0 -50.5 -21t-18.5 -53z" />
<glyph unicode="&#xff;" horiz-adv-x="419" d="M468 346l-316 -538l-152 -1l149 235l-101 304h157l28 -141q4 -22 2 -34h7q3 17 12 34l68 141h146zM122 476q0 29 24.5 52t52.5 23q25 0 42 -18t17 -43q0 -28 -24.5 -51t-53.5 -23q-24 0 -41 18t-17 42zM312 476q0 29 24.5 52t52.5 23q25 0 42 -18t17 -43q0 -28 -24.5 -51 t-53.5 -23q-24 0 -41 18t-17 42z" />
<glyph unicode="&#x152;" horiz-adv-x="1036" d="M525 0l4 29q-81 -42 -180 -42q-131 0 -205.5 77.5t-74.5 195.5q0 146 103.5 249.5t264.5 103.5q97 0 167 -46l5 33h477l-17 -125h-333l-16 -118h264l-16 -114h-264l-17 -118h333l-18 -125h-477zM368 127q82 0 140 55.5t58 140.5q0 67 -41.5 108.5t-107.5 41.5 q-81 0 -139 -55.5t-58 -140.5q0 -67 41.5 -108.5t106.5 -41.5z" />
<glyph unicode="&#x153;" horiz-adv-x="676" d="M598 117l33 -88q-5 -4 -15.5 -11t-47 -18t-77.5 -11q-84 0 -132 43q-60 -40 -138 -40q-77 0 -127 44t-50 114q0 89 67.5 146.5t160.5 57.5q72 0 121 -41q58 41 133 41q74 0 115.5 -41t41.5 -113l-7 -53h-231q7 -49 68 -49q24 0 45 5t30 9zM237 105q33 0 51.5 22.5 t18.5 57.5q0 26 -13 41t-38 15q-33 0 -52 -22.5t-19 -57.5q0 -25 13.5 -40.5t38.5 -15.5zM510 253q-43 0 -59 -43h101q2 18 -9.5 30.5t-32.5 12.5z" />
<glyph unicode="&#x178;" horiz-adv-x="572" d="M222 698q0 29 24.5 52t52.5 23q25 0 42 -18t17 -43q0 -28 -24.5 -51t-53.5 -23q-24 0 -41 18t-17 42zM412 698q0 29 24.5 52t52.5 23q25 0 42 -18t17 -43q0 -28 -24.5 -51t-53.5 -23q-24 0 -41 18t-17 42zM369 418l130 182h167l-276 -370l-32 -230h-145l32 229l-169 371 h167l78 -182l12 -40h12z" />
<glyph unicode="&#x2c6;" horiz-adv-x="329" d="M291 419l-50 71l-71 -71h-92l3 22l97 136h149l59 -136l-3 -22h-92z" />
<glyph unicode="&#x2dc;" horiz-adv-x="430" d="M345 422q-33 0 -69 18t-49 18q-21 0 -31 -25l-6 -16l-100 9l11 37q15 48 46.5 75t76.5 27q33 0 68.5 -18t48.5 -18q22 0 32 25l6 16l100 -9l-11 -37q-15 -48 -46.5 -75t-76.5 -27z" />
<glyph unicode="&#x2000;" horiz-adv-x="402" />
<glyph unicode="&#x2001;" horiz-adv-x="805" />
<glyph unicode="&#x2002;" horiz-adv-x="402" />
<glyph unicode="&#x2003;" horiz-adv-x="805" />
<glyph unicode="&#x2004;" horiz-adv-x="268" />
<glyph unicode="&#x2005;" horiz-adv-x="201" />
<glyph unicode="&#x2006;" horiz-adv-x="134" />
<glyph unicode="&#x2007;" horiz-adv-x="134" />
<glyph unicode="&#x2008;" horiz-adv-x="100" />
<glyph unicode="&#x2009;" horiz-adv-x="161" />
<glyph unicode="&#x200a;" horiz-adv-x="44" />
<glyph unicode="&#x2010;" horiz-adv-x="370" d="M70 229l16 116h294l-16 -116h-294z" />
<glyph unicode="&#x2011;" horiz-adv-x="370" d="M70 229l16 116h294l-16 -116h-294z" />
<glyph unicode="&#x2012;" horiz-adv-x="370" d="M70 229l16 116h294l-16 -116h-294z" />
<glyph unicode="&#x2013;" horiz-adv-x="460" d="M70 229l16 116h384l-16 -116h-384z" />
<glyph unicode="&#x2014;" horiz-adv-x="701" d="M70 229l16 116h625l-16 -116h-625z" />
<glyph unicode="&#x2018;" horiz-adv-x="207" d="M248 472q0 -37 -27.5 -64t-64.5 -27q-31 0 -51 20.5t-20 51.5q0 25 9 49t16.5 36t25.5 37l40 56h90l-40 -56q-6 -8 -13 -15t-11 -10l-3 -3v-8q22 -6 35.5 -24t13.5 -43z" />
<glyph unicode="&#x2019;" horiz-adv-x="205" d="M107 577q0 37 27.5 64t64.5 27q31 0 51 -20.5t20 -51.5q0 -25 -9 -49t-16.5 -36t-25.5 -37l-40 -56h-90l40 56q6 8 13 15l10 10l4 3v8q-22 6 -35.5 24t-13.5 43z" />
<glyph unicode="&#x201a;" horiz-adv-x="217" d="M36 62q0 37 27.5 64t64.5 27q31 0 51 -20.5t20 -51.5q0 -25 -9 -49t-16.5 -36t-25.5 -37l-40 -56h-90l40 56q6 8 13 15t11 10l3 3v8q-22 6 -35.5 24t-13.5 43z" />
<glyph unicode="&#x201c;" horiz-adv-x="413" d="M248 473q0 -37 -27.5 -64t-64.5 -27q-31 0 -51 20.5t-20 51.5q0 25 9 49t16.5 36t25.5 37l40 56h90l-40 -56q-6 -8 -13 -15t-11 -10l-3 -3v-8q22 -6 35.5 -24t13.5 -43zM454 473q0 -37 -27.5 -64t-64.5 -27q-31 0 -51 20.5t-20 51.5q0 25 9 49t16.5 36t25.5 37l40 56h90 l-40 -56q-6 -8 -13 -15t-11 -10l-3 -3v-8q22 -6 35.5 -24t13.5 -43z" />
<glyph unicode="&#x201d;" horiz-adv-x="412" d="M107 577q0 37 27.5 64t64.5 27q31 0 51 -20.5t20 -51.5q0 -25 -9 -49t-16.5 -36t-25.5 -37l-40 -56h-90l40 56q6 8 13 15l10 10l4 3v8q-22 6 -35.5 24t-13.5 43zM313 577q0 37 27.5 64t64.5 27q31 0 51 -20.5t20 -51.5q0 -25 -9 -49t-16.5 -36t-25.5 -37l-40 -56h-90 l40 56q6 8 13 15l10 10l4 3v8q-22 6 -35.5 24t-13.5 43z" />
<glyph unicode="&#x201e;" d="M36 62q0 37 27.5 64t64.5 27q31 0 51 -20.5t20 -51.5q0 -25 -9 -49t-16.5 -36t-25.5 -37l-40 -56h-90l40 56q6 8 13 15t11 10l3 3v8q-22 6 -35.5 24t-13.5 43zM263 62q0 37 27.5 64t64.5 27q31 0 51 -20.5t20 -51.5q0 -25 -9 -49t-16.5 -36t-25.5 -37l-40 -56h-90l40 56 q6 8 13 15l10 10l4 3v8q-22 6 -35.5 24t-13.5 43z" />
<glyph unicode="&#x2022;" horiz-adv-x="323" d="M81 161q0 47 36 81.5t83 34.5q39 0 64.5 -26.5t25.5 -65.5q0 -47 -36 -81t-83 -34q-39 0 -64.5 26t-25.5 65z" />
<glyph unicode="&#x2026;" horiz-adv-x="755" d="M37 66q0 39 29 67t68 28q32 0 53 -21.5t21 -53.5q0 -38 -29.5 -66t-68.5 -28q-32 0 -52.5 21t-20.5 53zM303 66q0 39 29 67t68 28q32 0 53 -21.5t21 -53.5q0 -38 -29.5 -66t-68.5 -28q-32 0 -52.5 21t-20.5 53zM569 66q0 39 29 67t68 28q32 0 53 -21.5t21 -53.5 q0 -38 -29.5 -66t-68.5 -28q-32 0 -52.5 21t-20.5 53z" />
<glyph unicode="&#x202f;" horiz-adv-x="161" />
<glyph unicode="&#x2039;" horiz-adv-x="266" d="M44 161l3 21l128 154h119l-2 -9l-122 -150l-1 -9l80 -152l-2 -9h-119z" />
<glyph unicode="&#x203a;" horiz-adv-x="266" d="M271 182l-3 -21l-128 -154h-119l1 9l123 152l1 9l-80 150l1 9h119z" />
<glyph unicode="&#x205f;" horiz-adv-x="201" />
<glyph unicode="&#x20ac;" horiz-adv-x="583" d="M449 279l-13 -96h-150q28 -57 103 -57q27 0 53.5 11t39.5 22l12 11l68 -111q-3 -3 -8.5 -8t-24 -17.5t-39.5 -22t-54.5 -17.5t-68.5 -8q-105 0 -166 53.5t-76 143.5h-66l13 96h51l5 39h-50l13 96h66q40 90 116 144.5t182 54.5q35 0 66 -7.5t50 -18.5t32.5 -21.5 t19.5 -17.5l6 -8l-98 -111q-4 5 -11 12.5t-31 19.5t-51 12q-76 0 -121 -59h151l-13 -96h-177q-5 -18 -6 -39h177z" />
<glyph unicode="&#x2122;" horiz-adv-x="735" d="M473 281h-90l45 319h20l127 -137l166 137h20l-45 -319h-90l20 141l-79 -67h-13l-61 69zM379 600l-11 -79h-87l-34 -240h-90l34 240h-87l11 79h264z" />
<glyph unicode="&#xfb01;" horiz-adv-x="604" d="M367 235h-100l-33 -235h-144l33 235h-69l16 111h68l18 127q14 95 68 144t132 49q53 0 91 -19l-53 -124q-21 10 -35 10q-50 0 -59 -60l-18 -127h101zM554 448q-31 0 -50.5 20t-19.5 50q0 37 28 64t65 27q31 0 50.5 -20.5t19.5 -51.5q0 -36 -28 -62.5t-65 -26.5zM418 0 l49 346h144l-49 -346h-144z" />
<glyph unicode="&#xfb02;" horiz-adv-x="599" d="M367 235h-100l-33 -235h-144l33 235h-69l16 111h68l18 127q14 95 68 144t132 49q53 0 91 -19l-53 -124q-21 10 -35 10q-50 0 -59 -60l-18 -127h101zM413 0l94 668h144l-94 -668h-144z" />
<glyph unicode="&#xfb03;" horiz-adv-x="937" d="M367 235h-100l-33 -235h-144l33 235h-69l16 111h68l18 127q14 95 68 144t132 49q53 0 91 -19l-53 -124q-21 10 -35 10q-50 0 -59 -60l-18 -127h101zM722 235h-100l-33 -235h-144l33 235h-69l16 111h68l18 127q14 95 68 144t132 49q53 0 91 -19l-53 -124q-21 10 -35 10 q-50 0 -59 -60l-18 -127h101zM887 448q-31 0 -50.5 20t-19.5 50q0 37 28 64t65 27q31 0 50.5 -20.5t19.5 -51.5q0 -36 -28 -62.5t-65 -26.5zM751 0l49 346h144l-49 -346h-144z" />
<glyph unicode="&#xfb04;" horiz-adv-x="937" d="M367 235h-100l-33 -235h-144l33 235h-69l16 111h68l18 127q14 95 68 144t132 49q53 0 91 -19l-53 -124q-21 10 -35 10q-50 0 -59 -60l-18 -127h101zM722 235h-100l-33 -235h-144l33 235h-69l16 111h68l18 127q14 95 68 144t132 49q53 0 91 -19l-53 -124q-21 10 -35 10 q-50 0 -59 -60l-18 -127h101zM751 0l94 668h144l-94 -668h-144z" />
</font>
</defs>
</svg>
